<?xml version="1.0" encoding="utf-8"?>
<!-- Generator: Adobe Illustrator 23.0.1, SVG Export Plug-In . SVG Version: 6.00 Build 0)  -->
<svg version="1.1" id="Layer_1" xmlns="http://www.w3.org/2000/svg" xmlns:xlink="http://www.w3.org/1999/xlink" x="0px" y="0px"
	 viewBox="0 0 100 100" style="enable-background:new 0 0 100 100;" xml:space="preserve">
<g id="right-arm_14_">
	
		<linearGradient id="SVGID_1_" gradientUnits="userSpaceOnUse" x1="-384.5836" y1="75.4214" x2="-378.8781" y2="75.4214" gradientTransform="matrix(-0.9996 -2.911018e-02 2.911018e-02 -0.9996 -341.0618 111.0883)">
		<stop  offset="5.117199e-03" style="stop-color:#F7C6D3"/>
		<stop  offset="1" style="stop-color:#F3A8B2"/>
	</linearGradient>
	<path style="fill:url(#SVGID_1_);" d="M40,40.1c0,0,0.6,2.8,0.9,3.9c0.3,1.4,3.4,8.5,3.4,8.5s0.2,1.1,0,1.7c0,0,0.3,0.3,0.8-0.6
		c0.5-0.8-0.1-1.4-0.4-1.8S43.3,44.7,43,44c-0.3-0.9-1-4.6-1-4.6L40,40.1z"/>
	
		<linearGradient id="SVGID_2_" gradientUnits="userSpaceOnUse" x1="-610.4593" y1="59.211" x2="-606.3472" y2="59.211" gradientTransform="matrix(-1 0 0 -1 -566.8593 100)">
		<stop  offset="0" style="stop-color:#E95281"/>
		<stop  offset="1" style="stop-color:#BF3D62"/>
	</linearGradient>
	<path style="fill:url(#SVGID_2_);" d="M41.8,37.7c0,0,0.9,1.4,1.8,4.8c0,0-1.8,1.7-3.3,1.4c0,0-0.9-3.3-0.8-4.1
		C39.6,38.3,40.9,37.4,41.8,37.7z"/>
</g>
</svg>
