<?xml version="1.0" encoding="utf-8"?>
<!-- Generator: Adobe Illustrator 23.0.1, SVG Export Plug-In . SVG Version: 6.00 Build 0)  -->
<svg version="1.1" id="Layer_1" xmlns="http://www.w3.org/2000/svg" xmlns:xlink="http://www.w3.org/1999/xlink" x="0px" y="0px"
	 viewBox="0 0 100 100" style="enable-background:new 0 0 100 100;" xml:space="preserve">
<g>
	<path style="fill:#FFFFFF;" d="M79.9,80.4c0,0.1,0,0.2,0,0.4c0,0.2,0,0.3,0,0.4c0,0.1-0.1,0.2-0.1,0.2s-0.1,0-0.1-0.1
		c0-0.1,0-0.2,0-0.4c0-0.2,0-0.3,0-0.4c0-0.1,0.1-0.2,0.1-0.2S79.9,80.4,79.9,80.4z M79.8,81.1c0,0,0-0.1,0-0.2c0-0.1,0-0.2,0-0.2
		c0,0,0-0.1,0,0c0,0,0,0,0,0.1c0,0,0,0.1,0,0.2C79.7,81,79.7,81.1,79.8,81.1C79.7,81.2,79.8,81.2,79.8,81.1
		C79.8,81.2,79.8,81.2,79.8,81.1"/>
</g>
<g id="fenwick-with-worker_1_">
	<g style="opacity:0.2;">
		
			<linearGradient id="SVGID_1_" gradientUnits="userSpaceOnUse" x1="762.1439" y1="65.2969" x2="716.8095" y2="65.2969" gradientTransform="matrix(1 0 0 1 -697.9749 0)">
			<stop  offset="2.096873e-02" style="stop-color:#41A8DF;stop-opacity:0"/>
			<stop  offset="0.2566" style="stop-color:#3C91CA;stop-opacity:0.2407"/>
			<stop  offset="0.7488" style="stop-color:#2F5695;stop-opacity:0.7434"/>
			<stop  offset="1" style="stop-color:#283578"/>
		</linearGradient>
		<path style="fill:url(#SVGID_1_);" d="M20.1,59.5c-1.6,0.9-1.7,2.5,0,3.4l25.5,14.8c1.6,0.9,4.3,0.9,5.9,0l11.4-6.6
			c1.6-0.9,1.7-2.5,0-3.4L37.4,52.9c-1.6-0.9-4.3-0.9-5.9,0L20.1,59.5z"/>
	</g>
	<g style="opacity:0.2;">
		
			<linearGradient id="SVGID_2_" gradientUnits="userSpaceOnUse" x1="747.6637" y1="78.7779" x2="786.4115" y2="78.7779" gradientTransform="matrix(1 0 0 1 -697.9749 0)">
			<stop  offset="2.096873e-02" style="stop-color:#41A8DF;stop-opacity:0"/>
			<stop  offset="0.1827" style="stop-color:#40A3DB;stop-opacity:0.1652"/>
			<stop  offset="0.3734" style="stop-color:#3D95CE;stop-opacity:0.3599"/>
			<stop  offset="0.5786" style="stop-color:#387DB9;stop-opacity:0.5696"/>
			<stop  offset="0.7927" style="stop-color:#315C9B;stop-opacity:0.7882"/>
			<stop  offset="1" style="stop-color:#283578"/>
		</linearGradient>
		<path style="fill:url(#SVGID_2_);" d="M50.3,78c-0.8,0.4-0.8,1.2,0,1.6l17.3,10.1c0.8,0.4,2,0.4,2.8,0l17.4-10.1
			c0.8-0.4,0.8-1.2,0-1.6L70.5,67.9c-0.8-0.4-2-0.4-2.8,0L50.3,78z"/>
	</g>
	<g>
		
			<linearGradient id="SVGID_3_" gradientUnits="userSpaceOnUse" x1="712.7396" y1="53.6323" x2="712.7396" y2="58.6925" gradientTransform="matrix(1 0 0 1 -697.9749 0)">
			<stop  offset="0" style="stop-color:#315CA7"/>
			<stop  offset="1" style="stop-color:#32BDEF"/>
		</linearGradient>
		<polygon style="fill:url(#SVGID_3_);" points="12.1,58.7 17.7,55.1 12.3,53.6 11.8,57.4 		"/>
		<g>
			<g>
				
					<linearGradient id="SVGID_4_" gradientUnits="userSpaceOnUse" x1="710.3097" y1="61.0615" x2="717.4305" y2="61.0615" gradientTransform="matrix(1 0 0 1 -697.9749 0)">
					<stop  offset="6.778585e-03" style="stop-color:#92D4F6"/>
					<stop  offset="0.2627" style="stop-color:#A5DBF4"/>
					<stop  offset="0.7343" style="stop-color:#C4E5F1"/>
					<stop  offset="1" style="stop-color:#CFE9F0"/>
				</linearGradient>
				<path style="fill:url(#SVGID_4_);" d="M19.5,63.1c0,2.3-1.6,3.2-3.6,2c-2-1.1-3.6-3.9-3.5-6.1c0-2.3,1.6-3.2,3.6-2
					C17.9,58.1,19.5,60.9,19.5,63.1z"/>
			</g>
			
				<linearGradient id="SVGID_5_" gradientUnits="userSpaceOnUse" x1="711.3483" y1="60.082" x2="720.3892" y2="60.082" gradientTransform="matrix(1 0 0 1 -697.9749 0)">
				<stop  offset="0.1028" style="stop-color:#8AC6ED"/>
				<stop  offset="0.1968" style="stop-color:#8FC8EE"/>
				<stop  offset="0.3075" style="stop-color:#9DD0EF"/>
				<stop  offset="0.4268" style="stop-color:#B5DBF2"/>
				<stop  offset="0.5512" style="stop-color:#D6EBF5"/>
				<stop  offset="0.5814" style="stop-color:#DFF0F6"/>
				<stop  offset="0.7033" style="stop-color:#D9EEF6"/>
				<stop  offset="0.8609" style="stop-color:#C9E7F7"/>
				<stop  offset="1" style="stop-color:#B5DEF7"/>
			</linearGradient>
			<path style="fill:url(#SVGID_5_);" d="M19.4,62.7c0-0.1,0-0.2,0-0.3c0,0,0-0.1,0-0.1c0,0,0-0.1,0-0.1c0,0,0-0.1,0-0.1
				c0,0,0-0.1,0-0.1c0,0,0-0.1,0-0.1c0-0.1-0.1-0.2-0.1-0.4c0,0,0,0,0-0.1c0-0.1-0.1-0.2-0.1-0.3c0,0,0,0,0,0c0-0.1-0.1-0.2-0.1-0.3
				c0,0,0,0,0-0.1c0-0.1-0.1-0.2-0.1-0.2c0,0,0,0,0,0c0-0.1-0.1-0.2-0.1-0.3c0,0,0,0,0-0.1c0-0.1-0.1-0.1-0.1-0.2c0,0,0,0,0-0.1
				c0-0.1-0.1-0.2-0.1-0.3c0,0,0,0,0,0c0-0.1-0.1-0.2-0.1-0.2c0,0,0,0,0-0.1c-0.1-0.1-0.1-0.2-0.2-0.3c0,0,0,0,0,0
				c-0.1-0.1-0.1-0.2-0.2-0.3c0,0,0,0,0,0c-0.1-0.1-0.2-0.2-0.3-0.3c0,0,0,0,0,0c-0.1-0.1-0.1-0.1-0.2-0.2c0,0,0,0,0,0
				c-0.1-0.1-0.1-0.1-0.2-0.2c0,0,0,0,0,0c-0.1-0.1-0.2-0.2-0.2-0.2c0,0,0,0,0,0c-0.1-0.1-0.2-0.1-0.3-0.2c0,0,0,0-0.1,0
				c-0.1-0.1-0.2-0.1-0.3-0.2c0,0,0,0,0,0C16.1,57.1,16,57,15.9,57c-0.1,0-0.2-0.1-0.2-0.1c0,0,0,0-0.1,0c-0.1,0-0.1-0.1-0.2-0.1
				c0,0,0,0-0.1,0c-0.1,0-0.1,0-0.2-0.1c0,0,0,0,0,0c-0.1,0-0.1,0-0.2-0.1c0,0-0.1,0-0.1,0c0,0,0,0-0.1,0c-0.1,0-0.1,0-0.2,0
				c-0.1,0-0.2,0-0.2,0c0,0,0,0,0,0c-0.1,0-0.1,0-0.2,0c0,0,0,0,0,0c-0.1,0-0.1,0-0.2,0c0,0,0,0,0,0c-0.1,0-0.1,0-0.2,0c0,0,0,0,0,0
				c-0.1,0-0.1,0-0.2,0.1c0,0,0,0,0,0c0,0-0.1,0-0.1,0.1c0,0,0,0,0,0l3-1.7c0,0,0,0,0,0c0,0,0,0,0,0c0,0,0.1,0,0.1-0.1c0,0,0,0,0,0
				c0,0,0,0,0,0c0.1,0,0.1,0,0.2-0.1c0,0,0,0,0,0c0,0,0,0,0,0c0.1,0,0.1,0,0.2,0c0,0,0,0,0,0c0,0,0,0,0,0c0.1,0,0.1,0,0.2,0
				c0,0,0,0,0,0c0,0,0,0,0,0c0.1,0,0.1,0,0.2,0c0,0,0,0,0,0c0,0,0,0,0,0c0.1,0,0.2,0,0.2,0c0,0,0,0,0,0c0.1,0,0.1,0,0.2,0
				c0,0,0,0,0.1,0c0,0,0.1,0,0.1,0c0,0,0,0,0,0c0.1,0,0.1,0,0.2,0.1c0,0,0,0,0,0c0.1,0,0.1,0,0.2,0.1c0,0,0,0,0,0c0,0,0,0,0,0
				c0.1,0,0.1,0.1,0.2,0.1c0,0,0,0,0.1,0c0.1,0,0.1,0.1,0.2,0.1c0.1,0.1,0.2,0.1,0.3,0.2c0,0,0,0,0,0c0.1,0.1,0.2,0.1,0.3,0.2
				c0,0,0,0,0.1,0c0.1,0.1,0.2,0.1,0.3,0.2c0,0,0,0,0,0c0.1,0.1,0.2,0.1,0.2,0.2c0,0,0,0,0,0c0,0,0,0,0,0c0.1,0.1,0.1,0.1,0.2,0.2
				c0,0,0,0,0,0c0.1,0.1,0.1,0.1,0.2,0.2c0,0,0,0,0,0c0,0,0,0,0,0c0.1,0.1,0.2,0.2,0.3,0.3c0,0,0,0,0,0c0,0,0,0,0,0
				c0.1,0.1,0.1,0.2,0.2,0.3c0,0,0,0,0,0c0,0,0,0,0,0c0.1,0.1,0.1,0.2,0.2,0.3c0,0,0,0,0,0c0,0,0,0,0,0c0,0.1,0.1,0.2,0.1,0.2
				c0,0,0,0,0,0c0,0,0,0,0,0c0.1,0.1,0.1,0.2,0.1,0.3c0,0,0,0,0,0c0,0,0,0,0,0c0,0.1,0.1,0.1,0.1,0.2c0,0,0,0,0,0c0,0,0,0,0,0
				c0,0.1,0.1,0.2,0.1,0.3c0,0,0,0,0,0c0,0,0,0,0,0c0,0.1,0.1,0.2,0.1,0.3c0,0,0,0,0,0c0,0,0,0,0,0c0,0.1,0.1,0.2,0.1,0.3
				c0,0,0,0,0,0c0,0,0,0,0,0c0,0.1,0.1,0.2,0.1,0.3c0,0,0,0,0,0c0,0,0,0,0,0c0,0.1,0.1,0.2,0.1,0.4c0,0,0,0,0,0c0,0,0,0,0,0
				c0,0,0,0.1,0,0.1c0,0,0,0.1,0,0.1c0,0,0,0.1,0,0.1c0,0,0,0,0,0.1c0,0,0,0,0,0c0,0.1,0,0.2,0,0.3c0,0,0,0,0,0.1c0,0.1,0,0.2,0,0.3
				c0,1.1-0.4,1.9-1,2.3l-3,1.7c0.6-0.4,1-1.2,1-2.3C19.5,63,19.5,62.9,19.4,62.7C19.4,62.8,19.4,62.8,19.4,62.7z"/>
			<g>
				
					<linearGradient id="SVGID_6_" gradientUnits="userSpaceOnUse" x1="712.0778" y1="61.0615" x2="715.6624" y2="61.0615" gradientTransform="matrix(1 0 0 1 -697.9749 0)">
					<stop  offset="0" style="stop-color:#4489C8"/>
					<stop  offset="0.2286" style="stop-color:#76AAD7"/>
					<stop  offset="0.4788" style="stop-color:#A6C9E5"/>
					<stop  offset="0.6999" style="stop-color:#C8E0EF"/>
					<stop  offset="0.8812" style="stop-color:#DDEEF6"/>
					<stop  offset="1" style="stop-color:#E5F3F8"/>
				</linearGradient>
				<path style="fill:url(#SVGID_6_);" d="M15.9,59c-1-0.6-1.8-0.1-1.8,1c0,1.1,0.8,2.5,1.8,3.1c1,0.6,1.8,0.1,1.8-1
					C17.7,61,16.9,59.6,15.9,59z"/>
			</g>
		</g>
		
			<linearGradient id="SVGID_7_" gradientUnits="userSpaceOnUse" x1="728.4413" y1="58.5145" x2="728.4413" y2="67.6001" gradientTransform="matrix(1 0 0 1 -697.9749 0)">
			<stop  offset="0" style="stop-color:#315CA7"/>
			<stop  offset="1" style="stop-color:#32BDEF"/>
		</linearGradient>
		<polygon style="fill:url(#SVGID_7_);" points="27.2,67.6 35,63 27.3,58.5 26,65.5 		"/>
		<g>
			
				<linearGradient id="SVGID_8_" gradientUnits="userSpaceOnUse" x1="726.6113" y1="68.2043" x2="737.0925" y2="68.2043" gradientTransform="matrix(1 0 0 1 -697.9749 0)">
				<stop  offset="0.1028" style="stop-color:#8AC6ED"/>
				<stop  offset="0.1968" style="stop-color:#8FC8EE"/>
				<stop  offset="0.3075" style="stop-color:#9DD0EF"/>
				<stop  offset="0.4268" style="stop-color:#B5DBF2"/>
				<stop  offset="0.5512" style="stop-color:#D6EBF5"/>
				<stop  offset="0.5814" style="stop-color:#DFF0F6"/>
				<stop  offset="0.7033" style="stop-color:#D9EEF6"/>
				<stop  offset="0.8609" style="stop-color:#C9E7F7"/>
				<stop  offset="1" style="stop-color:#B5DEF7"/>
			</linearGradient>
			<path style="fill:url(#SVGID_8_);" d="M36.1,71.3c0-0.1,0-0.3,0-0.4c0,0,0-0.1,0-0.1c0-0.1,0-0.1,0-0.2c0,0,0-0.1,0-0.1
				c0-0.1,0-0.1,0-0.2c0,0,0-0.1,0-0.1c0,0,0-0.1,0-0.1c0-0.1,0-0.1,0-0.2c0,0,0-0.1,0-0.1c0,0,0-0.1,0-0.1c0-0.1-0.1-0.3-0.1-0.4
				c0,0,0,0,0,0c0-0.1-0.1-0.2-0.1-0.4c0,0,0-0.1,0-0.1c0-0.1-0.1-0.2-0.1-0.3c0,0,0,0,0,0c0-0.1-0.1-0.2-0.2-0.3c0,0,0-0.1,0-0.1
				c0-0.1-0.1-0.2-0.1-0.3c0,0,0-0.1,0-0.1c-0.1-0.1-0.1-0.2-0.2-0.3c0,0,0,0,0-0.1c-0.1-0.1-0.1-0.2-0.2-0.3c0,0,0-0.1-0.1-0.1
				c-0.1-0.1-0.1-0.2-0.2-0.3c0,0,0,0,0,0c-0.1-0.1-0.2-0.2-0.2-0.3c0,0,0,0,0,0c-0.1-0.1-0.2-0.3-0.3-0.4c0,0,0,0,0-0.1
				c-0.1-0.1-0.1-0.2-0.2-0.2c0,0,0,0,0,0c-0.1-0.1-0.1-0.2-0.2-0.2c0,0-0.1-0.1-0.1-0.1c0,0,0,0,0,0C33,65.1,32.9,65,32.9,65
				c0,0,0,0-0.1,0c0,0-0.1-0.1-0.1-0.1c0,0,0,0-0.1-0.1c0,0-0.1-0.1-0.1-0.1c0,0-0.1,0-0.1-0.1c0,0-0.1-0.1-0.1-0.1
				c0,0-0.1,0-0.1-0.1c0,0-0.1-0.1-0.1-0.1c0,0,0,0-0.1,0c-0.1,0-0.1-0.1-0.2-0.1c-0.1-0.1-0.2-0.1-0.3-0.1c0,0-0.1,0-0.1,0
				c-0.1,0-0.1-0.1-0.2-0.1c0,0,0,0-0.1,0c-0.1,0-0.1-0.1-0.2-0.1c0,0,0,0,0,0c-0.1,0-0.2-0.1-0.2-0.1c0,0-0.1,0-0.1,0
				c0,0,0,0-0.1,0c-0.1,0-0.1,0-0.2,0c0,0,0,0,0,0c-0.1,0-0.1,0-0.2,0c0,0,0,0-0.1,0c0,0-0.1,0-0.1,0c-0.1,0-0.2,0-0.3,0
				c0,0,0,0,0,0c-0.1,0-0.1,0-0.2,0c0,0,0,0-0.1,0c-0.1,0-0.1,0-0.2,0.1c0,0,0,0,0,0c-0.1,0-0.1,0-0.2,0.1c0,0,0,0-0.1,0
				c-0.1,0-0.1,0.1-0.2,0.1c0,0,0,0-0.1,0l3-1.7c0,0,0,0,0,0c0,0,0,0,0,0c0.1,0,0.1-0.1,0.2-0.1c0,0,0,0,0,0c0,0,0,0,0,0
				c0.1,0,0.1,0,0.2-0.1c0,0,0,0,0,0c0,0,0,0,0,0c0.1,0,0.1,0,0.2-0.1c0,0,0,0,0,0c0,0,0,0,0,0c0.1,0,0.1,0,0.2,0c0,0,0,0,0,0
				c0,0,0,0,0,0c0.1,0,0.2,0,0.3,0c0,0,0,0,0,0c0,0,0.1,0,0.1,0c0,0,0,0,0.1,0c0.1,0,0.1,0,0.2,0c0,0,0,0,0,0c0,0,0,0,0,0
				c0.1,0,0.1,0,0.2,0c0,0,0,0,0.1,0c0,0,0.1,0,0.1,0c0,0,0,0,0,0c0.1,0,0.2,0,0.2,0.1c0,0,0,0,0,0c0.1,0,0.1,0,0.2,0.1c0,0,0,0,0,0
				c0,0,0,0,0,0c0.1,0,0.1,0.1,0.2,0.1c0,0,0.1,0,0.1,0c0.1,0,0.2,0.1,0.3,0.1c0.1,0,0.1,0.1,0.2,0.1c0,0,0,0,0.1,0
				c0,0,0.1,0.1,0.1,0.1c0,0,0.1,0,0.1,0.1c0,0,0.1,0.1,0.1,0.1c0,0,0.1,0,0.1,0.1c0,0,0.1,0.1,0.1,0.1c0,0,0,0,0.1,0.1
				c0,0,0.1,0.1,0.1,0.1c0,0,0,0,0.1,0c0.1,0.1,0.1,0.1,0.2,0.2c0,0,0,0,0,0c0,0,0.1,0.1,0.1,0.1c0,0,0,0,0,0
				c0.1,0.1,0.2,0.2,0.2,0.2c0,0,0,0,0,0c0.1,0.1,0.1,0.2,0.2,0.2c0,0,0,0,0,0c0,0,0,0,0,0c0.1,0.1,0.2,0.3,0.3,0.4c0,0,0,0,0,0
				c0,0,0,0,0,0c0.1,0.1,0.2,0.2,0.2,0.3c0,0,0,0,0,0c0,0,0,0,0,0c0.1,0.1,0.2,0.2,0.2,0.3c0,0,0,0,0,0c0,0,0,0,0,0
				c0.1,0.1,0.1,0.2,0.2,0.3c0,0,0,0,0,0c0,0,0,0,0,0c0.1,0.1,0.1,0.2,0.2,0.3c0,0,0,0,0,0c0,0,0,0,0,0.1c0,0.1,0.1,0.2,0.1,0.3
				c0,0,0,0,0,0.1c0,0,0,0,0,0c0.1,0.1,0.1,0.2,0.2,0.3c0,0,0,0,0,0c0,0,0,0,0,0c0,0.1,0.1,0.2,0.1,0.3c0,0,0,0,0,0c0,0,0,0,0,0
				c0,0.1,0.1,0.2,0.1,0.4c0,0,0,0,0,0c0,0,0,0,0,0c0,0.1,0.1,0.3,0.1,0.4c0,0,0,0,0,0c0,0,0,0,0,0c0,0,0,0.1,0,0.1
				c0,0.1,0,0.1,0,0.2c0,0,0,0.1,0,0.1c0,0,0,0.1,0,0.1c0,0,0,0,0,0.1c0,0.1,0,0.1,0,0.2c0,0,0,0.1,0,0.1c0,0.1,0,0.1,0,0.2
				c0,0,0,0.1,0,0.1c0,0,0,0,0,0c0,0.1,0,0.3,0,0.4c0,0,0,0.1,0,0.1c0,0.1,0,0.3,0,0.4c0,1.4-0.5,2.4-1.3,2.8l-3,1.7
				c0.8-0.5,1.3-1.4,1.3-2.8C36.2,71.6,36.2,71.5,36.1,71.3C36.1,71.3,36.1,71.3,36.1,71.3z"/>
			<g>
				
					<linearGradient id="SVGID_9_" gradientUnits="userSpaceOnUse" x1="725.3271" y1="69.2121" x2="734.1337" y2="69.2121" gradientTransform="matrix(1 0 0 1 -697.9749 0)">
					<stop  offset="6.778585e-03" style="stop-color:#92D4F6"/>
					<stop  offset="0.2627" style="stop-color:#A5DBF4"/>
					<stop  offset="0.7343" style="stop-color:#C4E5F1"/>
					<stop  offset="1" style="stop-color:#CFE9F0"/>
				</linearGradient>
				<path style="fill:url(#SVGID_9_);" d="M36.2,71.8c0,2.8-2,3.9-4.4,2.5c-2.4-1.4-4.4-4.8-4.4-7.6c0-2.8,2-3.9,4.4-2.5
					C34.2,65.6,36.2,69,36.2,71.8z"/>
			</g>
			<g>
				
					<linearGradient id="SVGID_10_" gradientUnits="userSpaceOnUse" x1="727.5133" y1="69.2121" x2="731.9474" y2="69.2121" gradientTransform="matrix(1 0 0 1 -697.9749 0)">
					<stop  offset="0" style="stop-color:#4489C8"/>
					<stop  offset="0.2286" style="stop-color:#76AAD7"/>
					<stop  offset="0.4788" style="stop-color:#A6C9E5"/>
					<stop  offset="0.6999" style="stop-color:#C8E0EF"/>
					<stop  offset="0.8812" style="stop-color:#DDEEF6"/>
					<stop  offset="1" style="stop-color:#E5F3F8"/>
				</linearGradient>
				<path style="fill:url(#SVGID_10_);" d="M31.8,66.7c-1.2-0.7-2.2-0.1-2.2,1.3c0,1.4,1,3.1,2.2,3.8c1.2,0.7,2.2,0.1,2.2-1.3
					C34,69.1,33,67.4,31.8,66.7z"/>
			</g>
		</g>
		<g>
			
				<linearGradient id="SVGID_11_" gradientUnits="userSpaceOnUse" x1="709.5381" y1="52.5127" x2="754.8725" y2="52.5127" gradientTransform="matrix(1 0 0 1 -697.9749 0)">
				<stop  offset="6.778585e-03" style="stop-color:#92D4F6"/>
				<stop  offset="0.2627" style="stop-color:#A5DBF4"/>
				<stop  offset="0.7343" style="stop-color:#C4E5F1"/>
				<stop  offset="1" style="stop-color:#CFE9F0"/>
			</linearGradient>
			<path style="fill:url(#SVGID_11_);" d="M12.8,46.7c-1.6,0.9-1.7,2.5,0,3.4l25.5,14.8c1.6,0.9,4.3,0.9,5.9,0l11.4-6.6
				c1.6-0.9,1.7-2.5,0-3.4L30.1,40.1c-1.6-0.9-4.3-0.9-5.9,0L12.8,46.7z"/>
		</g>
		
			<linearGradient id="SVGID_12_" gradientUnits="userSpaceOnUse" x1="709.5381" y1="61.5892" x2="754.8984" y2="61.5892" gradientTransform="matrix(1 0 0 1 -697.9749 0)">
			<stop  offset="6.778585e-03" style="stop-color:#92D4F6"/>
			<stop  offset="0.2627" style="stop-color:#A5DBF4"/>
			<stop  offset="0.7343" style="stop-color:#C4E5F1"/>
			<stop  offset="1" style="stop-color:#CFE9F0"/>
		</linearGradient>
		<path style="fill:url(#SVGID_12_);" d="M11.6,48.5C11.6,48.5,11.6,48.5,11.6,48.5c0,0.1,0,0.1,0,0.1c0,0,0,0,0,0.1c0,0,0,0,0,0.1
			c0,0,0,0,0,0.1c0,0,0,0,0,0.1c0,0,0,0,0,0.1c0,0,0,0,0,0.1c0,0,0,0,0,0.1c0,0,0,0,0,0.1c0,0,0,0,0,0.1c0,0,0,0,0,0.1
			c0,0,0,0,0,0.1c0,0,0,0,0,0c0,0,0,0.1,0.1,0.1c0,0,0,0,0,0c0,0,0.1,0.1,0.1,0.1c0,0,0,0,0,0c0,0,0.1,0.1,0.1,0.1c0,0,0,0,0,0
			c0,0,0,0,0.1,0.1c0,0,0,0,0.1,0c0,0,0,0,0.1,0.1c0,0,0,0,0.1,0c0,0,0,0,0.1,0c0,0,0,0,0.1,0c0,0,0.1,0,0.1,0c0,0,0.1,0,0.1,0.1
			l25.5,14.8c0.1,0.1,0.2,0.1,0.3,0.1c0,0,0.1,0,0.1,0c0.1,0,0.2,0.1,0.3,0.1c0,0,0,0,0,0c0.1,0,0.2,0.1,0.3,0.1
			c0.1,0,0.1,0,0.2,0.1c0.1,0,0.1,0,0.2,0c0.1,0,0.2,0,0.2,0c0.1,0,0.1,0,0.2,0c0,0,0,0,0.1,0c0.1,0,0.2,0,0.3,0c0,0,0.1,0,0.1,0
			c0.1,0,0.1,0,0.2,0c0.1,0,0.2,0,0.3,0c0.1,0,0.1,0,0.2,0c0.1,0,0.2,0,0.2,0c0.1,0,0.1,0,0.2,0c0.1,0,0.1,0,0.2,0
			c0.1,0,0.1,0,0.2,0c0.1,0,0.1,0,0.2,0c0.1,0,0.1,0,0.2,0c0.1,0,0.1,0,0.2,0c0.1,0,0.1,0,0.2,0c0.1,0,0.2,0,0.3-0.1
			c0.1,0,0.1,0,0.2,0c0,0,0.1,0,0.1,0c0.1,0,0.2-0.1,0.3-0.1c0,0,0,0,0.1,0c0.1,0,0.1-0.1,0.2-0.1c0,0,0.1,0,0.1,0
			c0.1-0.1,0.2-0.1,0.3-0.2l11.4-6.6c0.8-0.5,1.2-1.1,1.2-1.7l0,9.1c0,0.6-0.4,1.3-1.2,1.7l-11.4,6.6c-0.1,0.1-0.2,0.1-0.3,0.2
			c0,0-0.1,0-0.1,0c-0.1,0-0.1,0.1-0.2,0.1c0,0,0,0,0,0c0,0,0,0-0.1,0c-0.1,0-0.2,0.1-0.3,0.1c0,0-0.1,0-0.1,0c0,0,0,0-0.1,0
			c0,0-0.1,0-0.1,0c-0.1,0-0.2,0-0.3,0.1c0,0,0,0-0.1,0c0,0-0.1,0-0.1,0c-0.1,0-0.1,0-0.2,0c0,0-0.1,0-0.1,0c0,0-0.1,0-0.1,0
			c-0.1,0-0.1,0-0.2,0c0,0-0.1,0-0.1,0c0,0-0.1,0-0.1,0c-0.1,0-0.1,0-0.2,0c0,0-0.1,0-0.1,0c0,0-0.1,0-0.1,0c-0.1,0-0.2,0-0.2,0
			c0,0-0.1,0-0.1,0c0,0,0,0-0.1,0c-0.1,0-0.2,0-0.3,0c0,0-0.1,0-0.1,0c0,0,0,0-0.1,0c0,0-0.1,0-0.1,0c-0.1,0-0.2,0-0.3,0
			c0,0,0,0-0.1,0c0,0,0,0,0,0c0,0-0.1,0-0.1,0c-0.1,0-0.2,0-0.2,0c-0.1,0-0.1,0-0.2,0c-0.1,0-0.1,0-0.2-0.1c0,0,0,0,0,0
			c-0.1,0-0.2-0.1-0.3-0.1c0,0,0,0,0,0c-0.1,0-0.2-0.1-0.3-0.1c0,0-0.1,0-0.1,0c-0.1,0-0.2-0.1-0.3-0.1l-0.9-0.5
			c0.1-0.3,0.1-0.7,0.1-1.1c0-3.3-2.3-7.4-5.2-9c-2.9-1.7-5.2-0.3-5.2,3c0,0.4,0,0.8,0.1,1.2l-7-4c0.1-0.3,0.1-0.6,0.1-0.9
			c0-2.6-1.8-5.8-4.1-7.1c-2.3-1.3-4.1-0.3-4.1,2.3c0,0.3,0,0.6,0.1,0.9c0,0-0.1-0.1-0.1-0.1c0,0,0,0,0,0c0,0-0.1-0.1-0.1-0.1
			c0,0,0,0,0,0c0,0,0,0,0,0c0,0,0-0.1-0.1-0.1c0,0,0,0,0,0c0,0,0,0,0-0.1c0,0,0,0,0,0c0,0,0,0,0,0c0,0,0,0,0-0.1c0,0,0,0,0-0.1
			c0,0,0,0,0-0.1c0,0,0,0,0,0c0,0,0,0,0,0c0,0,0,0,0-0.1c0,0,0,0,0-0.1c0,0,0,0,0-0.1c0,0,0,0,0,0c0,0,0,0,0,0c0,0,0,0,0-0.1
			c0,0,0,0,0-0.1c0,0,0,0,0-0.1c0,0,0,0,0,0c0,0,0,0,0,0v0L11.6,48.5C11.6,48.4,11.6,48.4,11.6,48.5z"/>
		<g>
			
				<linearGradient id="SVGID_13_" gradientUnits="userSpaceOnUse" x1="730.7473" y1="41.277" x2="730.7473" y2="62.0879" gradientTransform="matrix(1 0 0 1 -697.9749 0)">
				<stop  offset="0" style="stop-color:#4489C8"/>
				<stop  offset="0.2286" style="stop-color:#76AAD7"/>
				<stop  offset="0.4788" style="stop-color:#A6C9E5"/>
				<stop  offset="0.6999" style="stop-color:#C8E0EF"/>
				<stop  offset="0.8812" style="stop-color:#DDEEF6"/>
				<stop  offset="1" style="stop-color:#E5F3F8"/>
			</linearGradient>
			<path style="fill:url(#SVGID_13_);" d="M15.2,49.1l1.3,0.7l20.6,12c0.6,0.3,1.5,0.3,2.1,0l9.9-5.7l1.3-0.7c0.6-0.3,0.6-0.9,0-1.2
				L28.4,41.5c-0.6-0.3-1.5-0.3-2.1,0l-11.1,6.4C14.7,48.3,14.7,48.8,15.2,49.1z"/>
		</g>
		<g>
			
				<linearGradient id="SVGID_14_" gradientUnits="userSpaceOnUse" x1="730.7477" y1="62.0879" x2="730.7477" y2="43.9536" gradientTransform="matrix(1 0 0 1 -697.9749 0)">
				<stop  offset="0" style="stop-color:#4489C8"/>
				<stop  offset="0.2286" style="stop-color:#76AAD7"/>
				<stop  offset="0.4788" style="stop-color:#A6C9E5"/>
				<stop  offset="0.6999" style="stop-color:#C8E0EF"/>
				<stop  offset="0.8812" style="stop-color:#DDEEF6"/>
				<stop  offset="1" style="stop-color:#E5F3F8"/>
			</linearGradient>
			<path style="fill:url(#SVGID_14_);" d="M16.5,49.9l20.6,12c0.6,0.3,1.5,0.3,2.1,0l9.9-5.7l-20.6-12c-0.6-0.3-1.5-0.3-2.1,0
				L16.5,49.9z"/>
		</g>
	</g>
	<g id="controls_1_">
		<g style="enable-background:new    ;">
			
				<linearGradient id="SVGID_15_" gradientUnits="userSpaceOnUse" x1="739.3262" y1="58.6945" x2="747.9182" y2="58.6945" gradientTransform="matrix(1 0 0 1 -697.9749 0)">
				<stop  offset="0" style="stop-color:#315CA7"/>
				<stop  offset="1" style="stop-color:#32BDEF"/>
			</linearGradient>
			<path style="fill:url(#SVGID_15_);" d="M48.6,56.3C48.6,56.2,48.5,56.2,48.6,56.3C48.5,56.2,48.5,56.2,48.6,56.3
				C48.5,56.2,48.5,56.2,48.6,56.3C48.5,56.2,48.5,56.2,48.6,56.3C48.5,56.2,48.5,56.2,48.6,56.3C48.5,56.2,48.5,56.2,48.6,56.3
				C48.5,56.2,48.5,56.2,48.6,56.3c-0.1,0-0.1,0-0.1,0c0,0,0,0,0,0c0,0,0,0,0,0c0,0,0,0,0,0c0,0,0,0,0,0l-7.1,4.1c0,0,0,0,0,0l0,0
				l0,0c0,0,0,0,0.1,0c0,0,0,0,0,0c0,0,0,0,0.1,0l1.4,0.8l7.1-4.1L48.6,56.3z"/>
			<g style="enable-background:new    ;">
				<defs>
					<path id="SVGID_16_" style="enable-background:new    ;" d="M44.4,33.9L37.4,38c0,0,0,0,0.1,0L44.4,33.9
						C44.5,33.9,44.5,33.9,44.4,33.9z"/>
				</defs>
				<clipPath id="SVGID_17_">
					<use xlink:href="#SVGID_16_"  style="overflow:visible;"/>
				</clipPath>
				<g style="clip-path:url(#SVGID_17_);enable-background:new    ;">
					<path style="fill:#ADADAD;" d="M37.4,38l7.1-4.1c0,0,0,0,0,0L37.4,38C37.4,38,37.4,38,37.4,38"/>
					<path style="fill:#A7A7A7;" d="M37.4,38l7.1-4.1c0,0,0,0,0,0L37.4,38C37.4,38,37.4,38,37.4,38"/>
					<polyline style="fill:#A3A3A3;" points="37.4,38 44.5,33.9 44.5,33.9 37.4,38 37.4,38 					"/>
					<polyline style="fill:#9F9F9F;" points="37.4,38 44.5,33.9 44.5,33.9 37.4,38 37.4,38 					"/>
					<polyline style="fill:#9A9A9A;" points="37.4,38 44.5,33.9 44.4,33.9 37.4,38 37.4,38 					"/>
					<polyline style="fill:#969596;" points="37.4,38 44.4,33.9 44.4,33.9 37.4,38 37.4,38 					"/>
				</g>
			</g>
			<g>
				
					<linearGradient id="SVGID_18_" gradientUnits="userSpaceOnUse" x1="741.8336" y1="37.1149" x2="740.5868" y2="34.9552" gradientTransform="matrix(1 0 0 1 -697.9749 0)">
					<stop  offset="0" style="stop-color:#315CA7"/>
					<stop  offset="1" style="stop-color:#32BDEF"/>
				</linearGradient>
				<polygon style="fill:url(#SVGID_18_);" points="42,38.2 49.1,34.1 44.5,33.9 37.4,38 				"/>
			</g>
			<g>
				<polygon style="fill:#FFFFFF;" points="42.3,37.6 47.4,34.6 44.1,34.5 39.1,37.4 				"/>
			</g>
			<g>
				
					<linearGradient id="SVGID_19_" gradientUnits="userSpaceOnUse" x1="735.2826" y1="49.9006" x2="741.2808" y2="49.9006" gradientTransform="matrix(1 0 0 1 -697.9749 0)">
					<stop  offset="0" style="stop-color:#315CA7"/>
					<stop  offset="1" style="stop-color:#32BDEF"/>
				</linearGradient>
				<path style="fill:url(#SVGID_19_);" d="M42,38.2L37.4,38c-0.1,0-0.1,0.1-0.1,0.2c0,0.1,0.1,0.2,0.2,0.2c0,0,0.1,0,0.1,0l4.4,0.2
					c0.2,0.2,0.5,0.4,0.6,0.7c0.2,0.3,0.3,0.6,0.3,0.9l-0.1,20.9l-1.4-0.8c-0.1-0.1-0.2,0-0.2,0.1c0,0.1,0.1,0.3,0.2,0.3l1.8,1
					l0.1-21.3C43.3,39.7,42.7,38.6,42,38.2z"/>
			</g>
			
				<linearGradient id="SVGID_20_" gradientUnits="userSpaceOnUse" x1="744.1538" y1="34.0897" x2="744.1538" y2="61.8209" gradientTransform="matrix(1 0 0 1 -697.9749 0)">
				<stop  offset="0" style="stop-color:#4489C8"/>
				<stop  offset="0.2286" style="stop-color:#76AAD7"/>
				<stop  offset="0.4788" style="stop-color:#A6C9E5"/>
				<stop  offset="0.6999" style="stop-color:#C8E0EF"/>
				<stop  offset="0.8812" style="stop-color:#DDEEF6"/>
				<stop  offset="1" style="stop-color:#E5F3F8"/>
			</linearGradient>
			<path style="fill:url(#SVGID_20_);" d="M43.3,40.2C43.3,40.2,43.3,40.2,43.3,40.2c0-0.1,0-0.2-0.1-0.3c0,0,0,0,0,0
				c0-0.1-0.1-0.2-0.1-0.3c0,0,0,0,0,0c0-0.1-0.1-0.2-0.2-0.3c0,0,0,0,0,0c-0.1-0.1-0.1-0.2-0.2-0.3c0,0,0,0,0,0
				c-0.1-0.1-0.1-0.2-0.2-0.2c0,0,0,0,0,0c-0.1-0.1-0.1-0.1-0.2-0.2c0,0-0.1,0-0.1-0.1c-0.1-0.1-0.2-0.1-0.3-0.2l7.1-4.1
				c0.1,0,0.2,0.1,0.3,0.2c0,0,0.1,0,0.1,0.1c0,0,0.1,0.1,0.1,0.1c0,0,0,0,0.1,0.1c0,0,0,0,0,0c0,0,0,0,0.1,0.1c0,0,0.1,0.1,0.1,0.1
				c0,0,0,0,0,0c0,0,0,0,0,0c0,0,0,0,0,0c0,0,0.1,0.1,0.1,0.1c0,0,0,0.1,0.1,0.1c0,0,0,0,0,0c0,0,0,0,0,0c0,0,0,0.1,0.1,0.1
				c0,0,0,0.1,0.1,0.1c0,0,0,0.1,0,0.1c0,0,0,0,0,0c0,0,0,0,0,0c0,0,0,0.1,0,0.1c0,0,0,0.1,0,0.1c0,0,0,0,0,0.1c0,0,0,0,0,0
				c0,0,0,0,0,0c0,0.1,0,0.1,0,0.2c0,0,0,0.1,0,0.1c0,0,0,0,0,0c0,0,0,0,0,0c0,0.1,0,0.2,0,0.3l-0.1,21.3l-7.1,4.1l0.1-21.3
				C43.3,40.4,43.3,40.3,43.3,40.2z"/>
		</g>
	</g>
	<g id="fourche_1_">
		<g>
			<g style="enable-background:new    ;">
				<g>
					<polygon style="fill:#5C5B5C;" points="61.4,66.3 60.4,65.7 58.4,66.8 59.5,67.4 					"/>
				</g>
				<g>
					<polygon style="fill:#535252;" points="61.4,63.7 60.4,63.1 60.4,65.7 61.4,66.3 					"/>
				</g>
				<g>
					<polygon style="fill:#5C5B5C;" points="61.4,63.7 60.4,63.1 58.4,64.2 59.5,64.8 					"/>
				</g>
				<g>
					<polygon style="fill:#3A60A9;" points="59.5,60.5 58.4,59.9 58.4,64.2 59.5,64.8 					"/>
				</g>
				<g>
					<polygon style="fill:#5C5B5C;" points="61.4,59.3 60.4,58.7 58.4,59.9 59.5,60.5 					"/>
				</g>
				<g>
					<polygon style="fill:#535252;" points="61.4,56.7 60.4,56.1 60.4,58.7 61.4,59.3 					"/>
				</g>
				<g>
					<polygon style="fill:#5C5B5C;" points="61.4,56.7 60.4,56.1 58.4,57.2 59.5,57.8 					"/>
				</g>
				<g>
					<polygon style="fill:#3A60A9;" points="59.5,53.5 58.4,52.9 58.4,57.2 59.5,57.8 					"/>
				</g>
				<g>
					<polygon style="fill:#5C5B5C;" points="61.4,52.4 60.4,51.7 58.4,52.9 59.5,53.5 					"/>
				</g>
				<g>
					<polygon style="fill:#535252;" points="61.4,49.7 60.4,49.1 60.4,51.7 61.4,52.4 					"/>
				</g>
				<g>
					<polygon style="fill:#5C5B5C;" points="61.4,49.7 60.4,49.1 58.4,50.3 59.4,50.9 					"/>
				</g>
				<g>
					<polygon style="fill:#5C5B5C;" points="45.6,75.4 44.5,74.8 42.6,76 43.6,76.6 					"/>
				</g>
				<g>
					
						<linearGradient id="SVGID_21_" gradientUnits="userSpaceOnUse" x1="742.5016" y1="68.5035" x2="757.4624" y2="68.5035" gradientTransform="matrix(1 0 0 1 -697.9749 0)">
						<stop  offset="0" style="stop-color:#4489C8"/>
						<stop  offset="0.3376" style="stop-color:#55A2C8"/>
						<stop  offset="0.7477" style="stop-color:#66BAC9"/>
						<stop  offset="1" style="stop-color:#6CC3C9"/>
					</linearGradient>
					<polygon style="fill:url(#SVGID_21_);" points="59.5,64.8 58.4,64.2 44.5,72.2 45.6,72.8 					"/>
				</g>
				<g>
					<polygon style="fill:#5C5B5C;" points="45.6,72.8 44.5,72.2 42.6,73.3 43.6,73.9 					"/>
				</g>
				<g>
					<polygon style="fill:#535252;" points="43.6,73.9 42.6,73.3 42.6,76 43.6,76.6 					"/>
				</g>
				<g>
					<polygon style="fill:#5C5B5C;" points="45.6,68.5 44.5,67.9 42.6,69 43.6,69.6 					"/>
				</g>
				<g>
					
						<linearGradient id="SVGID_22_" gradientUnits="userSpaceOnUse" x1="742.4819" y1="61.5493" x2="757.4427" y2="61.5493" gradientTransform="matrix(1 0 0 1 -697.9749 0)">
						<stop  offset="0" style="stop-color:#4489C8"/>
						<stop  offset="0.3376" style="stop-color:#55A2C8"/>
						<stop  offset="0.7477" style="stop-color:#66BAC9"/>
						<stop  offset="1" style="stop-color:#6CC3C9"/>
					</linearGradient>
					<polygon style="fill:url(#SVGID_22_);" points="59.5,57.8 58.4,57.2 44.5,65.3 45.6,65.9 					"/>
				</g>
				<g>
					<polygon style="fill:#5C5B5C;" points="45.6,65.9 44.5,65.3 42.6,66.4 43.6,67 					"/>
				</g>
				<g>
					<polygon style="fill:#535252;" points="43.6,67 42.6,66.4 42.6,69 43.6,69.6 					"/>
				</g>
				<g>
					<polygon style="fill:#5C5B5C;" points="45.5,61.5 44.5,60.9 42.5,62 43.6,62.6 					"/>
				</g>
				<g>
					
						<linearGradient id="SVGID_23_" gradientUnits="userSpaceOnUse" x1="742.4622" y1="54.571" x2="757.4229" y2="54.571" gradientTransform="matrix(1 0 0 1 -697.9749 0)">
						<stop  offset="0" style="stop-color:#4489C8"/>
						<stop  offset="0.3376" style="stop-color:#55A2C8"/>
						<stop  offset="0.7477" style="stop-color:#66BAC9"/>
						<stop  offset="1" style="stop-color:#6CC3C9"/>
					</linearGradient>
					<polygon style="fill:url(#SVGID_23_);" points="59.4,50.9 58.4,50.3 44.5,58.3 45.5,58.9 					"/>
				</g>
				<g>
					<polygon style="fill:#5C5B5C;" points="45.5,58.9 44.5,58.3 42.5,59.4 43.6,60 					"/>
				</g>
				<g>
					<polygon style="fill:#535252;" points="43.6,60 42.5,59.4 42.5,62 43.6,62.6 					"/>
				</g>
				
					<linearGradient id="SVGID_24_" gradientUnits="userSpaceOnUse" x1="757.8193" y1="50.8587" x2="757.8193" y2="28.3921" gradientTransform="matrix(1 0 0 1 -697.9749 0)">
					<stop  offset="5.376340e-03" style="stop-color:#76CAEB"/>
					<stop  offset="1" style="stop-color:#315CA7"/>
				</linearGradient>
				<path style="fill:url(#SVGID_24_);" d="M58.3,30.5C58.3,30.5,58.3,30.4,58.3,30.5C58.3,30.4,58.3,30.4,58.3,30.5
					C58.4,30.4,58.4,30.4,58.3,30.5c0-0.1,0-0.1,0-0.1c0,0,0,0,0-0.1c0,0,0,0,0-0.1c0,0,0,0,0,0c0,0,0,0,0,0c0,0,0,0,0-0.1
					c0,0,0,0,0-0.1c0,0,0,0,0,0c0,0,0,0,0,0c0,0,0,0,0,0c0,0,0,0,0-0.1c0,0,0,0,0,0c0,0,0,0,0,0c0,0,0,0,0,0c0,0,0,0,0-0.1
					c0,0,0,0,0-0.1c0,0,0,0,0,0c0,0,0,0,0,0c0,0,0,0,0,0c0,0,0,0,0-0.1c0,0,0,0,0,0c0,0,0,0,0,0c0,0,0,0,0,0c0,0,0,0,0-0.1
					c0,0,0,0,0-0.1c0,0,0,0,0,0c0,0,0,0,0,0c0,0,0,0,0,0c0,0,0,0,0-0.1c0,0,0,0,0,0c0,0,0,0,0,0c0,0,0,0,0,0c0,0,0-0.1,0-0.1
					c0,0,0,0,0,0c0,0,0-0.1,0.1-0.1l0,0c0,0,0,0,0,0c0,0,0,0,0.1-0.1c0,0,0,0,0-0.1c0,0,0,0,0,0c0,0,0,0,0,0c0,0,0,0,0-0.1
					c0,0,0,0,0,0c0,0,0,0,0,0c0,0,0,0,0,0c0,0,0,0,0,0c0,0,0,0,0,0c0,0,0,0,0,0c0,0,0,0,0,0c0,0,0,0,0,0c0,0,0,0,0.1,0c0,0,0,0,0,0
					c0,0,0,0,0,0c0,0,0,0,0,0c0,0,0,0,0.1,0c0,0,0,0,0,0c0,0,0,0,0,0c0,0,0,0,0,0c0,0,0,0,0,0c0,0,0,0,0,0c0,0,0,0,0,0c0,0,0,0,0,0
					c0,0,0,0,0,0c0,0,0,0,0,0c0,0,0,0,0,0c0,0,0,0,0,0c0,0,0,0,0,0c0,0,0,0,0,0c0,0,0,0,0,0c0,0,0,0,0,0c0,0,0,0,0,0c0,0,0,0,0,0
					c0,0,0,0,0,0c0,0,0,0,0,0c0,0,0,0,0,0c0,0,0,0,0,0c0,0,0,0,0,0c0,0,0,0,0,0c0,0,0,0,0,0c0,0,0,0,0.1,0c0,0,0,0,0,0c0,0,0,0,0,0
					c0,0,0,0,0,0c0,0,0,0,0.1,0c0,0,0,0,0,0c0,0,0,0,0,0c0,0,0,0,0.1,0c0,0,0,0,0,0c0,0,0.1,0,0.1,0l1,0.6c0,0-0.1,0-0.1,0
					c0,0,0,0-0.1,0c0,0,0,0,0,0c0,0-0.1,0-0.1,0c0,0,0,0,0,0c0,0-0.1,0-0.1,0c0,0,0,0,0,0c0,0-0.1,0-0.1,0c0,0,0,0,0,0
					c0,0-0.1,0-0.1,0c0,0,0,0,0,0c0,0-0.1,0-0.1,0c0,0,0,0,0,0c0,0-0.1,0-0.1,0.1c0,0-0.1,0-0.1,0.1c0,0,0,0,0,0
					c0,0-0.1,0.1-0.1,0.1c0,0,0,0,0,0c0,0-0.1,0.1-0.1,0.1c0,0,0,0,0,0c0,0-0.1,0.1-0.1,0.1c0,0,0,0,0,0c0,0-0.1,0.1-0.1,0.1l0,0
					c0,0-0.1,0.1-0.1,0.1c0,0,0,0,0,0c0,0-0.1,0.1-0.1,0.1c0,0,0,0,0,0.1c0,0,0,0,0,0.1c0,0,0,0,0,0c0,0,0,0.1-0.1,0.1c0,0,0,0,0,0
					c0,0,0,0.1-0.1,0.1c0,0,0,0,0,0c0,0,0,0.1-0.1,0.1c0,0,0,0,0,0c0,0,0,0.1,0,0.1c0,0,0,0,0,0c0,0,0,0.1,0,0.1c0,0,0,0,0,0
					c0,0,0,0.1,0,0.1c0,0,0,0,0,0c0,0,0,0.1,0,0.1c0,0,0,0,0,0c0,0,0,0.1,0,0.1l0.1,19.7l-1-0.6L58.3,30.5
					C58.3,30.5,58.3,30.5,58.3,30.5z"/>
				
					<linearGradient id="SVGID_25_" gradientUnits="userSpaceOnUse" x1="750.4614" y1="76.7678" x2="750.4614" y2="29.0006" gradientTransform="matrix(1 0 0 1 -697.9749 0)">
					<stop  offset="0" style="stop-color:#4489C8"/>
					<stop  offset="0.2286" style="stop-color:#76AAD7"/>
					<stop  offset="0.4788" style="stop-color:#A6C9E5"/>
					<stop  offset="0.6999" style="stop-color:#C8E0EF"/>
					<stop  offset="0.8812" style="stop-color:#DDEEF6"/>
					<stop  offset="1" style="stop-color:#E5F3F8"/>
				</linearGradient>
				<path style="fill:url(#SVGID_25_);" d="M43.3,76.8l0.3-0.2l0,0l1.9-1.1l13.9-8l2.3-1.3l-0.1-36.3c0-0.7-0.5-1-1.1-0.7
					c-0.6,0.4-1.1,1.2-1.1,2l0.1,19.7l-13.9,8l-0.1-19.8c0-0.7-0.5-1-1.1-0.7c-0.6,0.4-1.1,1.2-1.1,2L43.3,76.8z M59.5,53.5l0,4.4
					l-13.9,8l0-4.4L59.5,53.5z M45.6,72.8l0-4.3l13.9-8l0,4.3L45.6,72.8z"/>
				
					<linearGradient id="SVGID_26_" gradientUnits="userSpaceOnUse" x1="741.6207" y1="76.7678" x2="741.6207" y2="37.6945" gradientTransform="matrix(1 0 0 1 -697.9749 0)">
					<stop  offset="5.376340e-03" style="stop-color:#76CAEB"/>
					<stop  offset="1" style="stop-color:#315CA7"/>
				</linearGradient>
				<path style="fill:url(#SVGID_26_);" d="M42.1,39.8C42.1,39.8,42.1,39.7,42.1,39.8C42.2,39.7,42.2,39.7,42.1,39.8
					C42.2,39.7,42.2,39.7,42.1,39.8c0-0.1,0-0.1,0-0.1c0,0,0,0,0-0.1c0,0,0,0,0-0.1c0,0,0,0,0,0c0,0,0,0,0,0c0,0,0,0,0-0.1
					c0,0,0,0,0-0.1c0,0,0,0,0,0c0,0,0,0,0,0c0,0,0,0,0,0c0,0,0,0,0-0.1c0,0,0,0,0,0c0,0,0,0,0,0c0,0,0,0,0,0c0,0,0,0,0-0.1
					c0,0,0,0,0-0.1c0,0,0,0,0,0c0,0,0,0,0,0c0,0,0,0,0,0c0,0,0,0,0-0.1c0,0,0,0,0,0c0,0,0,0,0,0c0,0,0,0,0,0c0,0,0,0,0-0.1
					c0,0,0,0,0-0.1c0,0,0,0,0,0c0,0,0,0,0,0c0,0,0,0,0,0c0,0,0,0,0-0.1c0,0,0,0,0,0c0,0,0,0,0,0c0,0,0,0,0-0.1c0,0,0,0,0-0.1
					c0,0,0,0,0,0c0,0,0-0.1,0.1-0.1c0,0,0,0,0.1-0.1c0,0,0,0,0-0.1c0,0,0,0,0,0c0,0,0,0,0,0c0,0,0,0,0-0.1c0,0,0,0,0,0c0,0,0,0,0,0
					c0,0,0,0,0,0c0,0,0,0,0,0c0,0,0,0,0,0c0,0,0,0,0,0c0,0,0,0,0,0c0,0,0,0,0,0c0,0,0,0,0.1,0c0,0,0,0,0,0c0,0,0,0,0,0c0,0,0,0,0,0
					c0,0,0,0,0.1,0c0,0,0,0,0,0c0,0,0,0,0,0c0,0,0,0,0,0c0,0,0,0,0,0c0,0,0,0,0,0c0,0,0,0,0,0c0,0,0,0,0,0c0,0,0,0,0,0c0,0,0,0,0,0
					c0,0,0,0,0,0c0,0,0,0,0,0c0,0,0,0,0,0c0,0,0,0,0,0c0,0,0,0,0,0c0,0,0,0,0,0c0,0,0,0,0,0c0,0,0,0,0,0c0,0,0,0,0,0c0,0,0,0,0,0
					c0,0,0,0,0,0c0,0,0,0,0.1,0c0,0,0,0,0,0c0,0,0,0,0,0c0,0,0,0,0,0c0,0,0,0,0.1,0c0,0,0,0,0,0c0,0,0,0,0,0c0,0,0,0,0,0
					c0,0,0,0,0.1,0c0,0,0,0,0,0c0,0,0,0,0,0c0,0,0,0,0.1,0c0,0,0,0,0,0c0,0,0.1,0,0.1,0l1,0.6c0,0-0.1,0-0.1,0c0,0,0,0-0.1,0
					c0,0,0,0,0,0c0,0-0.1,0-0.1,0c0,0,0,0,0,0c0,0-0.1,0-0.1,0c0,0,0,0,0,0c0,0-0.1,0-0.1,0c0,0,0,0,0,0c0,0-0.1,0-0.1,0
					c0,0,0,0,0,0c0,0-0.1,0-0.1,0c0,0,0,0,0,0c0,0-0.1,0-0.1,0.1c0,0-0.1,0-0.1,0.1c0,0,0,0,0,0c0,0-0.1,0.1-0.1,0.1c0,0,0,0,0,0
					c0,0-0.1,0.1-0.1,0.1c0,0,0,0,0,0c0,0-0.1,0.1-0.1,0.1c0,0,0,0,0,0c0,0-0.1,0.1-0.1,0.1c0,0,0,0,0,0c0,0-0.1,0.1-0.1,0.1l0,0
					c0,0-0.1,0.1-0.1,0.1c0,0,0,0,0,0.1c0,0,0,0,0,0.1c0,0,0,0,0,0c0,0,0,0.1-0.1,0.1c0,0,0,0,0,0c0,0,0,0.1-0.1,0.1c0,0,0,0,0,0
					c0,0,0,0.1-0.1,0.1c0,0,0,0,0,0c0,0,0,0.1,0,0.1c0,0,0,0,0,0c0,0,0,0.1,0,0.1c0,0,0,0,0,0c0,0,0,0.1,0,0.1c0,0,0,0,0,0
					c0,0,0,0.1,0,0.1c0,0,0,0,0,0c0,0,0,0.1,0,0.1l0.1,36.3l-1-0.6L42.1,39.8C42.1,39.8,42.1,39.8,42.1,39.8z"/>
			</g>
		</g>
		<g>
			<path style="fill:#1E4C9B;" d="M72.7,74.1c0,0,0.1,0.1,0.2,0.1c0,0,0,0,0,0c0,0,0.1,0,0.1,0c0,0,0,0,0,0c0,0,0.1,0,0.1,0
				c0,0,0,0,0.1,0c0,0,0.1,0,0.1,0c0,0,0,0,0.1,0c0.1,0,0.1,0,0.2,0c0,0,0,0,0.1,0c0,0,0.1,0,0.1,0c0,0,0,0,0.1,0c0,0,0.1,0,0.1,0
				c0,0,0,0,0.1,0c0,0,0.1,0,0.1,0c0,0,0,0,0.1,0c0,0,0.1,0,0.1,0c0,0,0,0,0.1,0c0,0,0.1,0,0.1,0c0,0,0,0,0.1,0c0,0,0.1,0,0.1,0
				c0,0,0,0,0.1,0c0.1,0,0.1,0,0.2-0.1c0,0,0,0,0,0c0.1,0,0.2-0.1,0.2-0.1c0.2-0.1,0.3-0.3,0.4-0.4c0-0.1,0.1-0.2,0.1-0.3l0,1
				c0,0.2-0.2,0.5-0.5,0.7c-0.1,0-0.1,0.1-0.2,0.1c0,0,0,0,0,0c0,0,0,0,0,0c-0.1,0-0.1,0-0.2,0.1c0,0,0,0,0,0c0,0,0,0,0,0
				c0,0-0.1,0-0.1,0c0,0,0,0,0,0c0,0,0,0,0,0c0,0-0.1,0-0.1,0c0,0,0,0,0,0c0,0,0,0,0,0c0,0-0.1,0-0.1,0c0,0,0,0,0,0c0,0,0,0,0,0
				c0,0-0.1,0-0.1,0c0,0,0,0,0,0c0,0,0,0,0,0c0,0-0.1,0-0.1,0c0,0,0,0,0,0c0,0,0,0,0,0c0,0-0.1,0-0.1,0c0,0,0,0,0,0c0,0,0,0,0,0
				c-0.1,0-0.1,0-0.2,0c0,0,0,0,0,0c0,0,0,0-0.1,0c0,0-0.1,0-0.1,0c0,0,0,0-0.1,0c0,0-0.1,0-0.1,0c0,0,0,0,0,0c0,0,0,0,0,0
				c0,0-0.1,0-0.1,0c0,0,0,0,0,0c-0.1,0-0.1,0-0.2-0.1l-11-6.4l0-1L72.7,74.1z"/>
			<g>
				<polygon style="fill:#1E4C9B;" points="47.9,75.8 47.9,76.8 61.8,68.7 61.8,67.7 				"/>
			</g>
			<path style="fill:#1E4C9B;" d="M56.5,83.4c0,0,0.1,0.1,0.2,0.1c0,0,0,0,0,0c0,0,0.1,0,0.1,0c0,0,0,0,0,0c0,0,0.1,0,0.1,0
				c0,0,0,0,0.1,0c0,0,0.1,0,0.1,0c0,0,0,0,0.1,0c0.1,0,0.1,0,0.2,0c0,0,0,0,0.1,0c0,0,0.1,0,0.1,0c0,0,0,0,0.1,0c0,0,0.1,0,0.1,0
				c0,0,0,0,0.1,0c0,0,0.1,0,0.1,0c0,0,0,0,0.1,0c0,0,0.1,0,0.1,0c0,0,0,0,0.1,0c0,0,0.1,0,0.1,0c0,0,0,0,0.1,0c0,0,0.1,0,0.1,0
				c0,0,0,0,0.1,0c0.1,0,0.1,0,0.2-0.1c0,0,0,0,0,0c0.1,0,0.2-0.1,0.2-0.1c0.3-0.2,0.5-0.4,0.5-0.7l0,1c0,0.2-0.2,0.5-0.5,0.7
				c-0.1,0-0.1,0.1-0.2,0.1c0,0,0,0,0,0c0,0,0,0,0,0c-0.1,0-0.1,0-0.2,0.1c0,0,0,0,0,0c0,0,0,0,0,0c0,0-0.1,0-0.1,0c0,0,0,0,0,0
				c0,0,0,0,0,0c0,0-0.1,0-0.1,0c0,0,0,0,0,0c0,0,0,0,0,0c0,0-0.1,0-0.1,0c0,0,0,0,0,0c0,0,0,0,0,0c0,0-0.1,0-0.1,0c0,0,0,0,0,0
				c0,0,0,0,0,0c0,0-0.1,0-0.1,0c0,0,0,0,0,0c0,0,0,0,0,0c0,0-0.1,0-0.1,0c0,0,0,0,0,0c0,0,0,0,0,0c-0.1,0-0.1,0-0.2,0c0,0,0,0,0,0
				c0,0,0,0-0.1,0c0,0-0.1,0-0.1,0c0,0,0,0-0.1,0c0,0-0.1,0-0.1,0c0,0,0,0,0,0c0,0,0,0,0,0c0,0-0.1,0-0.1,0c0,0,0,0,0,0
				c-0.1,0-0.1,0-0.2-0.1l-13.2-7.7l0-1L56.5,83.4z"/>
			<g>
				<path style="fill:#3A60A9;" d="M43.3,75.8l13.2,7.7c0.6,0.4,1.6,0.4,2.3,0c0.6-0.4,0.6-1,0-1.3l-10.9-6.3l13.9-8l11,6.4
					c0.6,0.4,1.6,0.4,2.3,0c0.6-0.4,0.6-1,0-1.3l-13.2-7.7l-0.3,0.2l-1.9,1.1l-13.9,8l-2,1.1L43.3,75.8z"/>
			</g>
		</g>
	</g>
	<g id="palette_3_">
		<g>
			<g style="enable-background:new    ;">
				<g>
					
						<linearGradient id="SVGID_27_" gradientUnits="userSpaceOnUse" x1="740.7155" y1="76.6272" x2="779.4633" y2="76.6272" gradientTransform="matrix(1 0 0 1 -697.9749 0)">
						<stop  offset="6.778585e-03" style="stop-color:#92D4F6"/>
						<stop  offset="0.2627" style="stop-color:#A5DBF4"/>
						<stop  offset="0.7343" style="stop-color:#C4E5F1"/>
						<stop  offset="1" style="stop-color:#CFE9F0"/>
					</linearGradient>
					<path style="fill:url(#SVGID_27_);" d="M43.3,75.8c-0.8,0.4-0.8,1.2,0,1.6l17.3,10.1c0.8,0.4,2,0.4,2.8,0l17.4-10.1
						c0.8-0.4,0.8-1.2,0-1.6L63.6,65.7c-0.8-0.4-2-0.4-2.8,0L43.3,75.8z"/>
				</g>
				
					<linearGradient id="SVGID_28_" gradientUnits="userSpaceOnUse" x1="760.0903" y1="76.6222" x2="760.0903" y2="88.495" gradientTransform="matrix(1 0 0 1 -697.9749 0)">
					<stop  offset="5.376340e-03" style="stop-color:#23398D"/>
					<stop  offset="0.3102" style="stop-color:#456FA8"/>
					<stop  offset="0.6252" style="stop-color:#64A0C0"/>
					<stop  offset="0.8653" style="stop-color:#78BFCF"/>
					<stop  offset="1" style="stop-color:#7FCAD5"/>
				</linearGradient>
				<path style="fill:url(#SVGID_28_);" d="M42.8,76.8C42.8,76.8,42.8,76.9,42.8,76.8c0,0.1,0.1,0.1,0.1,0.2c0,0,0,0,0,0
					c0,0.1,0.1,0.1,0.2,0.2c0,0,0.1,0.1,0.1,0.1c0,0,0.1,0.1,0.1,0.1l17.3,10.1c0.1,0.1,0.3,0.1,0.4,0.2c0,0,0.1,0,0.1,0
					c0.1,0,0.1,0,0.2,0c0.1,0,0.2,0,0.2,0c0,0,0,0,0.1,0c0.1,0,0.2,0,0.3,0c0,0,0,0,0.1,0c0.1,0,0.2,0,0.3,0c0,0,0,0,0,0
					c0.1,0,0.2,0,0.3-0.1c0,0,0,0,0.1,0c0.1,0,0.2-0.1,0.3-0.1c0,0,0,0,0,0c0.1,0,0.2-0.1,0.3-0.1l17.4-10.1
					c0.4-0.2,0.6-0.5,0.6-0.8l0,0.6c0,0.3-0.2,0.6-0.6,0.8L63.5,88.2c-0.1,0.1-0.2,0.1-0.3,0.1c0,0,0,0,0,0c0,0,0,0,0,0
					c-0.1,0-0.1,0-0.2,0.1c0,0-0.1,0-0.1,0c0,0,0,0-0.1,0c0,0,0,0-0.1,0c-0.1,0-0.1,0-0.2,0c0,0,0,0-0.1,0c0,0,0,0,0,0
					c0,0,0,0-0.1,0c-0.1,0-0.1,0-0.2,0c0,0,0,0-0.1,0c0,0,0,0-0.1,0c0,0-0.1,0-0.1,0c-0.1,0-0.1,0-0.2,0c0,0,0,0,0,0c0,0,0,0-0.1,0
					c-0.1,0-0.1,0-0.2,0c0,0,0,0-0.1,0c-0.1,0-0.1,0-0.2,0c0,0-0.1,0-0.1,0c0,0,0,0,0,0c-0.1,0-0.3-0.1-0.4-0.2L43.3,78.1
					c0,0,0,0,0,0c0,0-0.1,0-0.1-0.1c0,0-0.1-0.1-0.1-0.1c0,0,0,0,0,0c0,0-0.1-0.1-0.1-0.1c0,0,0,0,0,0c0,0,0,0,0,0c0,0,0,0,0-0.1
					c0,0,0-0.1-0.1-0.1c0,0,0,0,0,0c0,0,0,0,0,0c0,0,0,0,0-0.1c0,0,0-0.1,0-0.1c0,0,0,0,0,0l0-0.6C42.7,76.7,42.8,76.8,42.8,76.8z"
					/>
			</g>
		</g>
		<g>
			<g style="enable-background:new    ;">
				<g>
					
						<linearGradient id="SVGID_29_" gradientUnits="userSpaceOnUse" x1="775.8506" y1="78.036" x2="777.1898" y2="78.036" gradientTransform="matrix(1 0 0 1 -697.9749 0)">
						<stop  offset="0" style="stop-color:#4489C8"/>
						<stop  offset="0.2523" style="stop-color:#4A92C8"/>
						<stop  offset="0.6624" style="stop-color:#5BAAC9"/>
						<stop  offset="1" style="stop-color:#6CC3C9"/>
					</linearGradient>
					<polygon style="fill:url(#SVGID_29_);" points="77.9,77.7 77.9,79.2 79.2,78.4 79.2,76.9 					"/>
				</g>
				<g>
					
						<linearGradient id="SVGID_30_" gradientUnits="userSpaceOnUse" x1="764.6232" y1="75.159" x2="775.855" y2="75.159" gradientTransform="matrix(1 0 0 1 -697.9749 0)">
						<stop  offset="0" style="stop-color:#4489C8"/>
						<stop  offset="0.2523" style="stop-color:#4A92C8"/>
						<stop  offset="0.6624" style="stop-color:#5BAAC9"/>
						<stop  offset="1" style="stop-color:#6CC3C9"/>
					</linearGradient>
					<polygon style="fill:url(#SVGID_30_);" points="77.9,77.7 66.6,71.1 66.7,72.7 77.9,79.2 					"/>
				</g>
				<g>
					<polygon style="fill:#848585;" points="79.2,76.9 68,70.4 66.6,71.1 77.9,77.7 					"/>
				</g>
			</g>
		</g>
		<g>
			<g style="enable-background:new    ;">
				<g>
					
						<linearGradient id="SVGID_31_" gradientUnits="userSpaceOnUse" x1="762.5987" y1="85.6845" x2="763.9377" y2="85.6845" gradientTransform="matrix(1 0 0 1 -697.9749 0)">
						<stop  offset="0" style="stop-color:#4489C8"/>
						<stop  offset="0.2523" style="stop-color:#4A92C8"/>
						<stop  offset="0.6624" style="stop-color:#5BAAC9"/>
						<stop  offset="1" style="stop-color:#6CC3C9"/>
					</linearGradient>
					<polygon style="fill:url(#SVGID_31_);" points="64.6,85.3 64.6,86.8 66,86.1 66,84.5 					"/>
				</g>
				<g>
					
						<linearGradient id="SVGID_32_" gradientUnits="userSpaceOnUse" x1="751.3712" y1="82.8075" x2="762.603" y2="82.8075" gradientTransform="matrix(1 0 0 1 -697.9749 0)">
						<stop  offset="0" style="stop-color:#4489C8"/>
						<stop  offset="0.2523" style="stop-color:#4A92C8"/>
						<stop  offset="0.6624" style="stop-color:#5BAAC9"/>
						<stop  offset="1" style="stop-color:#6CC3C9"/>
					</linearGradient>
					<polygon style="fill:url(#SVGID_32_);" points="64.6,85.3 53.4,78.8 53.4,80.3 64.6,86.8 					"/>
				</g>
				<g>
					<polygon style="fill:#848585;" points="66,84.5 54.7,78 53.4,78.8 64.6,85.3 					"/>
				</g>
			</g>
		</g>
		<g>
			<g style="enable-background:new    ;">
				<g>
					
						<linearGradient id="SVGID_33_" gradientUnits="userSpaceOnUse" x1="740.7155" y1="74.4761" x2="779.4633" y2="74.4761" gradientTransform="matrix(1 0 0 1 -697.9749 0)">
						<stop  offset="0" style="stop-color:#4489C8"/>
						<stop  offset="0.2286" style="stop-color:#76AAD7"/>
						<stop  offset="0.4788" style="stop-color:#A6C9E5"/>
						<stop  offset="0.6999" style="stop-color:#C8E0EF"/>
						<stop  offset="0.8812" style="stop-color:#DDEEF6"/>
						<stop  offset="1" style="stop-color:#E5F3F8"/>
					</linearGradient>
					<path style="fill:url(#SVGID_33_);" d="M43.3,73.7c-0.8,0.4-0.8,1.2,0,1.6l17.3,10.1c0.8,0.4,2,0.4,2.8,0l17.4-10.1
						c0.8-0.4,0.8-1.2,0-1.6L63.6,63.6c-0.8-0.4-2-0.4-2.8,0L43.3,73.7z"/>
				</g>
				
					<linearGradient id="SVGID_34_" gradientUnits="userSpaceOnUse" x1="760.0903" y1="74.4712" x2="760.0903" y2="86.344" gradientTransform="matrix(1 0 0 1 -697.9749 0)">
					<stop  offset="5.376340e-03" style="stop-color:#23398D"/>
					<stop  offset="0.3102" style="stop-color:#456FA8"/>
					<stop  offset="0.6252" style="stop-color:#64A0C0"/>
					<stop  offset="0.8653" style="stop-color:#78BFCF"/>
					<stop  offset="1" style="stop-color:#7FCAD5"/>
				</linearGradient>
				<path style="fill:url(#SVGID_34_);" d="M42.8,74.7C42.8,74.7,42.8,74.7,42.8,74.7c0,0.1,0.1,0.1,0.1,0.2c0,0,0,0,0,0
					c0,0.1,0.1,0.1,0.2,0.2c0,0,0.1,0.1,0.1,0.1c0,0,0.1,0.1,0.1,0.1l17.3,10.1c0.1,0.1,0.3,0.1,0.4,0.2c0,0,0.1,0,0.1,0
					c0.1,0,0.1,0,0.2,0c0.1,0,0.2,0,0.2,0c0,0,0,0,0.1,0c0.1,0,0.2,0,0.3,0c0,0,0,0,0.1,0c0.1,0,0.2,0,0.3,0c0,0,0,0,0,0
					c0.1,0,0.2,0,0.3-0.1c0,0,0,0,0.1,0c0.1,0,0.2-0.1,0.3-0.1c0,0,0,0,0,0c0.1,0,0.2-0.1,0.3-0.1l17.4-10.1
					c0.4-0.2,0.6-0.5,0.6-0.8l0,0.6c0,0.3-0.2,0.6-0.6,0.8L63.5,86c-0.1,0.1-0.2,0.1-0.3,0.1c0,0,0,0,0,0c0,0,0,0,0,0
					c-0.1,0-0.1,0-0.2,0.1c0,0-0.1,0-0.1,0c0,0,0,0-0.1,0c0,0,0,0-0.1,0c-0.1,0-0.1,0-0.2,0c0,0,0,0-0.1,0c0,0,0,0,0,0
					c0,0,0,0-0.1,0c-0.1,0-0.1,0-0.2,0c0,0,0,0-0.1,0c0,0,0,0-0.1,0c0,0-0.1,0-0.1,0c-0.1,0-0.1,0-0.2,0c0,0,0,0,0,0c0,0,0,0-0.1,0
					c-0.1,0-0.1,0-0.2,0c0,0,0,0-0.1,0c-0.1,0-0.1,0-0.2,0c0,0-0.1,0-0.1,0c0,0,0,0,0,0c-0.1,0-0.3-0.1-0.4-0.2L43.3,75.9
					c0,0,0,0,0,0c0,0-0.1,0-0.1-0.1c0,0-0.1-0.1-0.1-0.1c0,0,0,0,0,0c0,0-0.1-0.1-0.1-0.1c0,0,0,0,0,0c0,0,0,0,0,0c0,0,0,0,0-0.1
					c0,0,0-0.1-0.1-0.1c0,0,0,0,0,0c0,0,0,0,0,0c0,0,0,0,0-0.1c0,0,0-0.1,0-0.1c0,0,0,0,0,0l0-0.6C42.7,74.6,42.8,74.6,42.8,74.7z"
					/>
			</g>
		</g>
	</g>
	<g id="light_12_">
		<g>
			<g style="enable-background:new    ;">
				
					<linearGradient id="SVGID_35_" gradientUnits="userSpaceOnUse" x1="710.7207" y1="40.2078" x2="711.7693" y2="40.2078" gradientTransform="matrix(1 0 0 1 -697.9749 0)">
					<stop  offset="6.778585e-03" style="stop-color:#92D4F6"/>
					<stop  offset="0.2627" style="stop-color:#A5DBF4"/>
					<stop  offset="0.7343" style="stop-color:#C4E5F1"/>
					<stop  offset="1" style="stop-color:#CFE9F0"/>
				</linearGradient>
				<path style="fill:url(#SVGID_35_);" d="M12.8,32C12.8,32,12.8,32,12.8,32c0,0,0.1,0.1,0.1,0.1c0,0,0.1,0,0.2,0.1c0,0,0,0,0,0
					c0.1,0,0.1,0,0.2,0c0,0,0,0,0,0c0.1,0,0.1,0,0.2,0c0,0,0,0,0,0c0.1,0,0.1,0,0.2-0.1c0.1-0.1,0.1-0.1,0.1-0.2l0,16.3
					c0,0.1,0,0.2-0.1,0.2c0,0,0,0-0.1,0c0,0,0,0-0.1,0c0,0,0,0,0,0c0,0,0,0,0,0c0,0,0,0,0,0c0,0,0,0,0,0c0,0,0,0,0,0c0,0,0,0,0,0
					c0,0,0,0,0,0c0,0,0,0,0,0c0,0,0,0,0,0c0,0,0,0-0.1,0c0,0,0,0-0.1,0c0,0,0,0,0,0c0,0,0,0,0,0c0,0,0,0,0,0c0,0-0.1,0-0.1,0
					c0,0,0,0,0,0c0,0,0,0-0.1,0c0,0,0,0,0,0c0,0,0,0,0,0c0,0,0,0,0,0c0,0,0,0,0,0c0,0,0,0,0,0c0,0,0,0,0,0c0,0,0,0,0,0c0,0,0,0,0,0
					l0-16.3C12.7,31.9,12.8,32,12.8,32z"/>
				<g>
					<path style="fill:#727272;" d="M12.9,31.7c-0.2,0.1-0.2,0.3,0,0.4c0.2,0.1,0.5,0.1,0.7,0c0.2-0.1,0.2-0.3,0-0.4
						C13.4,31.6,13.1,31.6,12.9,31.7z"/>
				</g>
			</g>
		</g>
		
			<linearGradient id="SVGID_36_" gradientUnits="userSpaceOnUse" x1="711.2455" y1="33.3682" x2="711.2455" y2="28.7175" gradientTransform="matrix(1 0 0 1 -697.9749 0)">
			<stop  offset="6.297816e-03" style="stop-color:#7FBF7C"/>
			<stop  offset="1" style="stop-color:#E9F4F3"/>
		</linearGradient>
		<path style="fill:url(#SVGID_36_);" d="M11.6,29.8c0,0,0-0.1,0-0.1l0,0.7l0,2c0,0,0,0,0,0c0,0,0,0.1,0,0.1c0,0,0,0,0,0.1
			c0,0,0,0,0,0c0,0,0,0,0,0c0,0,0,0.1,0,0.1c0,0,0,0,0,0c0,0,0,0,0,0c0,0,0,0,0,0c0,0,0.1,0.1,0.1,0.1c0,0,0,0,0,0
			c0,0,0.1,0.1,0.1,0.1c0,0,0.1,0,0.1,0.1c0,0,0,0,0,0c0.1,0.1,0.2,0.1,0.3,0.1c0,0,0,0,0,0c0,0,0.1,0,0.1,0c0.1,0,0.1,0,0.2,0
			c0,0,0,0,0.1,0c0,0,0.1,0,0.1,0c0,0,0,0,0,0c0,0,0,0,0,0c0.1,0,0.1,0,0.2,0c0,0,0,0,0.1,0c0,0,0,0,0,0c0,0,0,0,0.1,0
			c0.1,0,0.1,0,0.2,0c0,0,0,0,0.1,0c0,0,0,0,0,0c0,0,0,0,0.1,0c0.1,0,0.1,0,0.2,0c0,0,0,0,0,0c0,0,0,0,0,0c0,0,0.1,0,0.1,0
			c0.1,0,0.1,0,0.1-0.1c0,0,0,0,0,0c0,0,0,0,0,0c0.1,0,0.2-0.1,0.2-0.1c0.3-0.2,0.5-0.4,0.5-0.7c0,0,0,0,0,0l0-2.7c0,0,0,0,0,0
			c0-0.2-0.2-0.5-0.5-0.7c-0.7-0.4-1.7-0.4-2.4,0C11.7,29.2,11.6,29.5,11.6,29.8z"/>
		<g>
			
				<linearGradient id="SVGID_37_" gradientUnits="userSpaceOnUse" x1="709.5812" y1="32.5504" x2="712.9175" y2="32.5504" gradientTransform="matrix(1 0 0 1 -697.9749 0)">
				<stop  offset="0" style="stop-color:#4489C8"/>
				<stop  offset="0.2523" style="stop-color:#4A92C8"/>
				<stop  offset="0.6624" style="stop-color:#5BAAC9"/>
				<stop  offset="1" style="stop-color:#6CC3C9"/>
			</linearGradient>
			<path style="fill:url(#SVGID_37_);" d="M11.6,31.7C11.6,31.7,11.6,31.7,11.6,31.7c0,0,0,0.1,0,0.1c0,0,0,0,0,0.1c0,0,0,0,0,0
				c0,0,0,0,0,0c0,0,0,0.1,0,0.1c0,0,0,0,0,0c0,0,0,0,0,0c0,0,0,0,0,0c0,0,0.1,0.1,0.1,0.1c0,0,0,0,0,0c0,0,0.1,0.1,0.1,0.1
				c0,0,0.1,0,0.1,0.1c0,0,0,0,0,0c0.1,0.1,0.2,0.1,0.3,0.1c0,0,0,0,0,0c0,0,0.1,0,0.1,0c0.1,0,0.1,0,0.2,0c0,0,0,0,0.1,0
				c0,0,0.1,0,0.1,0c0,0,0,0,0,0c0,0,0,0,0,0c0.1,0,0.1,0,0.2,0c0,0,0,0,0.1,0c0,0,0,0,0,0c0,0,0,0,0.1,0c0.1,0,0.1,0,0.2,0
				c0,0,0,0,0.1,0c0,0,0,0,0,0c0,0,0,0,0.1,0c0.1,0,0.1,0,0.2,0c0,0,0,0,0,0c0,0,0,0,0,0c0,0,0.1,0,0.1,0c0.1,0,0.1,0,0.1-0.1
				c0,0,0,0,0,0c0,0,0,0,0,0c0.1,0,0.2-0.1,0.2-0.1c0.3-0.2,0.5-0.4,0.5-0.7l0,0.7c0,0.2-0.2,0.5-0.5,0.7c-0.1,0-0.2,0.1-0.2,0.1
				c0,0,0,0,0,0c0,0,0,0,0,0c0,0-0.1,0-0.1,0.1c0,0-0.1,0-0.1,0c0,0,0,0,0,0c0,0,0,0,0,0c-0.1,0-0.1,0-0.2,0c0,0,0,0-0.1,0
				c0,0,0,0,0,0c0,0,0,0-0.1,0c-0.1,0-0.1,0-0.2,0c0,0,0,0-0.1,0c0,0,0,0,0,0c0,0,0,0-0.1,0c-0.1,0-0.1,0-0.2,0c0,0,0,0,0,0
				c0,0,0,0,0,0c0,0-0.1,0-0.1,0c0,0,0,0-0.1,0c-0.1,0-0.1,0-0.2,0c0,0-0.1,0-0.1,0c0,0,0,0,0,0c-0.1,0-0.2-0.1-0.3-0.1c0,0,0,0,0,0
				c0,0-0.1,0-0.1-0.1c0,0-0.1-0.1-0.1-0.1c0,0,0,0,0,0c0,0-0.1-0.1-0.1-0.1c0,0,0,0,0,0c0,0,0,0,0,0c0,0,0,0,0,0c0,0,0-0.1,0-0.1
				c0,0,0,0,0,0c0,0,0,0,0,0c0,0,0,0,0-0.1c0,0,0-0.1,0-0.1c0,0,0,0,0,0V31.7z"/>
		</g>
	</g>
	<g id="box_29_">
		<g style="opacity:0.4;">
			
				<linearGradient id="SVGID_38_" gradientUnits="userSpaceOnUse" x1="-225.8219" y1="-440.1091" x2="-225.8219" y2="-429.3597" gradientTransform="matrix(-0.7862 -1.3425 -1.1734 0.6871 -635.1495 67.1218)">
				<stop  offset="0" style="stop-color:#252F62"/>
				<stop  offset="0.1575" style="stop-color:#263467;stop-opacity:0.8425"/>
				<stop  offset="0.3432" style="stop-color:#294275;stop-opacity:0.6568"/>
				<stop  offset="0.5431" style="stop-color:#2F598D;stop-opacity:0.4569"/>
				<stop  offset="0.7531" style="stop-color:#3679AE;stop-opacity:0.2469"/>
				<stop  offset="0.9689" style="stop-color:#3FA1D8;stop-opacity:3.109598e-02"/>
				<stop  offset="1" style="stop-color:#41A8DF;stop-opacity:0"/>
			</linearGradient>
			<path style="fill:url(#SVGID_38_);" d="M61.9,75.2c0.5,0.3,0.5,0.8,0.1,1l-6.6,3.9c-0.5,0.3-1.2,0.2-1.7-0.1l-7.1-4.4
				c-0.5-0.3-0.5-0.8-0.1-1L53.1,61c0.5-0.3,1.2-0.2,1.7,0.1L61.9,75.2z"/>
		</g>
		<g>
			
				<linearGradient id="SVGID_39_" gradientUnits="userSpaceOnUse" x1="-861.8742" y1="56.5036" x2="-861.8742" y2="80.2772" gradientTransform="matrix(-1 0 0 1 -804.3325 0)">
				<stop  offset="0" style="stop-color:#4489C8"/>
				<stop  offset="0.3758" style="stop-color:#259FD9"/>
				<stop  offset="0.7681" style="stop-color:#0AB1E8"/>
				<stop  offset="1" style="stop-color:#00B8ED"/>
			</linearGradient>
			<path style="fill:url(#SVGID_39_);" d="M61,56.6c0.5-0.3,0.9-0.1,0.9,0.5l0,17.6c0,0.5-0.4,1.2-0.9,1.5l-6.9,4
				c-0.5,0.3-0.9,0.1-0.9-0.5l0-17.6c0-0.5,0.4-1.2,0.9-1.5L61,56.6z"/>
		</g>
		<polygon style="fill:#FFFFFF;" points="54.1,61.6 55.6,60.7 55.6,62.5 54.1,63.4 		"/>
		<polygon style="fill:#FFFFFF;" points="55.9,60.6 57.5,59.7 57.5,61.5 55.9,62.4 		"/>
		
			<linearGradient id="SVGID_40_" gradientUnits="userSpaceOnUse" x1="-857.4412" y1="80.219" x2="-857.4412" y2="51.5267" gradientTransform="matrix(-1 0 0 1 -804.3325 0)">
			<stop  offset="6.778585e-03" style="stop-color:#92D4F6"/>
			<stop  offset="0.2627" style="stop-color:#A5DBF4"/>
			<stop  offset="0.7343" style="stop-color:#C4E5F1"/>
			<stop  offset="1" style="stop-color:#CFE9F0"/>
		</linearGradient>
		<path style="fill:url(#SVGID_40_);" d="M61.6,56.5C61.6,56.5,61.5,56.5,61.6,56.5C61.5,56.5,61.5,56.5,61.6,56.5
			C61.5,56.5,61.5,56.5,61.6,56.5C61.5,56.5,61.5,56.5,61.6,56.5C61.5,56.5,61.5,56.5,61.6,56.5c-0.1,0-0.1,0-0.1,0c0,0,0,0,0,0
			c0,0,0,0,0,0c0,0,0,0,0,0h0c0,0,0,0-0.1,0c0,0,0,0,0,0c0,0,0,0,0,0c0,0,0,0,0,0c0,0,0,0,0,0c0,0,0,0,0,0c0,0,0,0-0.1,0
			c0,0,0,0,0,0c0,0,0,0-0.1,0c0,0,0,0-0.1,0l-6.9,4c0,0,0,0-0.1,0c0,0,0,0-0.1,0c0,0,0,0,0,0c0,0,0,0,0,0c0,0,0,0-0.1,0c0,0,0,0,0,0
			c0,0,0,0-0.1,0.1l0,0c0,0,0,0-0.1,0.1c0,0,0,0,0,0c0,0,0,0,0,0c0,0,0,0,0,0c0,0,0,0,0,0c0,0,0,0,0,0c0,0,0,0,0,0.1c0,0,0,0,0,0
			c0,0,0,0.1-0.1,0.1c0,0,0,0,0,0c0,0,0,0.1,0,0.1c0,0,0,0,0,0c0,0,0,0.1,0,0.1c0,0,0,0,0,0c0,0,0,0.1,0,0.1c0,0,0,0,0,0
			c0,0,0,0,0,0.1c0,0,0,0,0,0c0,0,0,0,0,0.1c0,0,0,0,0,0c0,0,0,0,0,0c0,0,0,0.1,0,0.1c0,0,0,0,0,0c0,0,0,0,0,0.1c0,0,0,0.1,0,0.1v0
			l0,17.6c0,0,0,0.1,0,0.1c0,0,0,0,0,0.1c0,0,0,0,0,0.1c0,0,0,0.1,0,0.1c0,0,0,0,0,0c0,0,0,0,0,0c0,0,0,0.1,0.1,0.1c0,0,0,0,0,0
			c0,0,0,0,0,0c0,0,0,0,0,0l0,0l-8.5-5c-0.1,0-0.1-0.1-0.1-0.1c-0.1-0.1-0.1-0.2-0.1-0.4l0-17.6c0,0,0-0.1,0-0.2c0,0,0,0,0,0
			c0,0,0,0,0,0c0,0,0,0,0-0.1c0,0,0,0,0,0c0,0,0,0,0,0c0,0,0,0,0,0c0,0,0,0,0,0c0,0,0,0,0,0c0,0,0,0,0,0c0,0,0,0,0,0c0,0,0,0,0,0
			c0,0,0,0,0,0c0,0,0,0,0,0c0,0,0-0.1,0-0.1c0,0,0,0,0,0c0,0,0,0,0,0c0,0,0,0,0-0.1c0,0,0,0,0,0c0,0,0,0,0,0c0,0,0,0,0,0
			c0,0,0,0,0-0.1c0,0,0,0,0,0c0,0,0,0,0,0c0,0,0,0,0-0.1c0,0,0,0,0,0c0,0,0,0,0,0c0,0,0,0,0,0c0,0,0,0,0,0c0,0,0,0,0,0c0,0,0,0,0,0
			c0,0,0,0,0,0c0,0,0,0,0,0c0,0,0,0,0,0c0,0,0,0,0,0c0,0,0,0,0.1-0.1c0,0,0,0,0,0c0,0,0,0,0,0c0,0,0.1-0.1,0.1-0.1c0,0,0,0,0,0
			c0,0,0.1-0.1,0.1-0.1l6.9-4c0,0,0.1,0,0.1-0.1c0,0,0,0,0,0c0,0,0,0,0,0c0,0,0,0,0.1,0c0,0,0,0,0,0c0,0,0,0,0,0c0,0,0,0,0,0
			c0,0,0,0,0,0c0,0,0,0,0,0c0,0,0,0,0,0c0,0,0,0,0,0c0,0,0,0,0,0h0c0,0,0,0,0.1,0c0,0,0,0,0,0c0,0,0,0,0,0c0,0,0,0,0,0c0,0,0,0,0,0
			c0,0,0,0,0,0c0,0,0,0,0,0c0,0,0,0,0,0c0,0,0,0,0,0l3.1,1.8l1.2,0.7L61.6,56.5z"/>
		<path style="fill:#FFFFFF;" d="M51.6,57.5l0.8,0.4l0-1.6l-2.7,0l0.8,0.4l-0.9,0.5c-0.1,0-0.1,0.1-0.2,0.1l0,0l0,0
			c0,0-0.1,0-0.1,0.1l0,0c0,0,0,0,0,0c0,0,0,0,0,0c0,0-0.1,0.1-0.1,0.1c0,0,0,0,0,0c0,0,0,0.1-0.1,0.1l0,0c0,0-0.1,0.1-0.1,0.1l0,0
			c0,0-0.1,0.1-0.1,0.1l0,0c0,0,0,0.1-0.1,0.1l0,0c0,0,0,0.1-0.1,0.1l0,0c0,0,0,0.1-0.1,0.1l0,0.1c0,0,0,0.1,0,0.1c0,0,0,0.1,0,0.1
			c0,0,0,0,0,0.1c0,0,0,0.1,0,0.1c0,0,0,0,0,0.1c0,0.1,0,0.2-0.1,0.3l0,0c0,0.1,0,0.2,0,0.3l0,17.5l1.2,0.7l0-18.2c0,0,0-0.1,0-0.1
			l0,0c0,0,0-0.1,0-0.1l0,0c0,0,0,0,0-0.1l0,0c0,0,0,0,0,0c0,0,0,0,0-0.1l0,0c0,0,0,0,0-0.1l0,0c0,0,0-0.1,0-0.1l0,0c0,0,0,0,0-0.1
			l0,0c0,0,0,0,0-0.1l0,0c0,0,0,0,0.1-0.1l0,0c0,0,0,0,0,0l0,0c0,0,0,0,0,0l0.1-0.1c0,0,0,0,0,0l0,0c0,0,0.1,0,0.1-0.1L51.6,57.5z"
			/>
		<path style="fill:none;stroke:#000000;stroke-width:5.844820e-02;stroke-miterlimit:10;" d="M61.6,56.6"/>
	</g>
	<g id="box_28_">
		<g style="opacity:0.4;">
			
				<linearGradient id="SVGID_41_" gradientUnits="userSpaceOnUse" x1="-231.2599" y1="-452.5099" x2="-231.2599" y2="-441.8086" gradientTransform="matrix(-0.7862 -1.3425 -1.1734 0.6871 -635.1495 67.1218)">
				<stop  offset="0" style="stop-color:#252F62"/>
				<stop  offset="0.1575" style="stop-color:#263467;stop-opacity:0.8425"/>
				<stop  offset="0.3432" style="stop-color:#294275;stop-opacity:0.6568"/>
				<stop  offset="0.5431" style="stop-color:#2F598D;stop-opacity:0.4569"/>
				<stop  offset="0.7531" style="stop-color:#3679AE;stop-opacity:0.2469"/>
				<stop  offset="0.9689" style="stop-color:#3FA1D8;stop-opacity:3.109598e-02"/>
				<stop  offset="1" style="stop-color:#41A8DF;stop-opacity:0"/>
			</linearGradient>
			<path style="fill:url(#SVGID_41_);" d="M80.7,73.9c0.5,0.3,0.5,0.8,0.1,1l-6.6,3.9c-0.5,0.3-1.2,0.2-1.7-0.1l-7-4.4
				c-0.5-0.3-0.5-0.8-0.1-1L72,59.8c0.5-0.3,1.2-0.2,1.7,0.1L80.7,73.9z"/>
		</g>
		<g>
			
				<linearGradient id="SVGID_42_" gradientUnits="userSpaceOnUse" x1="-880.7066" y1="55.6697" x2="-880.7066" y2="79.337" gradientTransform="matrix(-1 0 0 1 -804.3325 0)">
				<stop  offset="0" style="stop-color:#4489C8"/>
				<stop  offset="0.3758" style="stop-color:#259FD9"/>
				<stop  offset="0.7681" style="stop-color:#0AB1E8"/>
				<stop  offset="1" style="stop-color:#00B8ED"/>
			</linearGradient>
			<path style="fill:url(#SVGID_42_);" d="M79.8,55.8c0.5-0.3,0.9-0.1,0.9,0.5l0,17.5c0,0.5-0.4,1.2-0.9,1.5l-6.9,4
				c-0.5,0.3-0.9,0.1-0.9-0.5l0-17.5c0-0.5,0.4-1.2,0.9-1.5L79.8,55.8z"/>
		</g>
		<polygon style="fill:#FFFFFF;" points="72.9,60.8 74.5,59.9 74.5,61.7 72.9,62.6 		"/>
		<polygon style="fill:#FFFFFF;" points="74.8,59.7 76.3,58.8 76.3,60.6 74.8,61.5 		"/>
		
			<linearGradient id="SVGID_43_" gradientUnits="userSpaceOnUse" x1="-876.2934" y1="79.279" x2="-876.2934" y2="50.7151" gradientTransform="matrix(-1 0 0 1 -804.3325 0)">
			<stop  offset="6.778585e-03" style="stop-color:#92D4F6"/>
			<stop  offset="0.2627" style="stop-color:#A5DBF4"/>
			<stop  offset="0.7343" style="stop-color:#C4E5F1"/>
			<stop  offset="1" style="stop-color:#CFE9F0"/>
		</linearGradient>
		<path style="fill:url(#SVGID_43_);" d="M80.4,55.7C80.4,55.7,80.4,55.7,80.4,55.7C80.3,55.7,80.3,55.7,80.4,55.7
			C80.3,55.7,80.3,55.7,80.4,55.7C80.3,55.7,80.3,55.7,80.4,55.7C80.3,55.7,80.3,55.7,80.4,55.7c-0.1,0-0.1,0-0.1,0c0,0,0,0,0,0
			c0,0,0,0,0,0c0,0,0,0,0,0h0c0,0,0,0-0.1,0c0,0,0,0,0,0c0,0,0,0,0,0c0,0,0,0,0,0c0,0,0,0,0,0c0,0,0,0,0,0c0,0,0,0-0.1,0
			c0,0,0,0,0,0c0,0,0,0-0.1,0c0,0,0,0-0.1,0l-6.9,4c0,0,0,0-0.1,0c0,0,0,0-0.1,0c0,0,0,0,0,0c0,0,0,0,0,0c0,0,0,0-0.1,0c0,0,0,0,0,0
			c0,0,0,0-0.1,0.1l0,0c0,0,0,0-0.1,0.1c0,0,0,0,0,0c0,0,0,0,0,0c0,0,0,0,0,0c0,0,0,0,0,0c0,0,0,0,0,0c0,0,0,0,0,0.1c0,0,0,0,0,0
			c0,0,0,0.1-0.1,0.1c0,0,0,0,0,0c0,0,0,0.1,0,0.1c0,0,0,0,0,0c0,0,0,0.1,0,0.1c0,0,0,0,0,0c0,0,0,0.1,0,0.1c0,0,0,0,0,0
			c0,0,0,0,0,0.1c0,0,0,0,0,0c0,0,0,0,0,0.1c0,0,0,0,0,0c0,0,0,0,0,0c0,0,0,0.1,0,0.1c0,0,0,0,0,0c0,0,0,0,0,0.1c0,0,0,0.1,0,0.1v0
			l0,17.5c0,0,0,0.1,0,0.1c0,0,0,0,0,0.1c0,0,0,0,0,0.1c0,0,0,0.1,0,0.1c0,0,0,0,0,0c0,0,0,0,0,0c0,0,0,0.1,0.1,0.1c0,0,0,0,0,0
			c0,0,0,0,0,0c0,0,0,0,0,0l0,0l-8.5-4.9c-0.1,0-0.1-0.1-0.1-0.1c-0.1-0.1-0.1-0.2-0.1-0.4l0-17.5c0,0,0-0.1,0-0.2c0,0,0,0,0,0
			c0,0,0,0,0,0c0,0,0,0,0-0.1c0,0,0,0,0,0c0,0,0,0,0,0c0,0,0,0,0,0c0,0,0,0,0,0c0,0,0,0,0,0c0,0,0,0,0,0c0,0,0,0,0,0c0,0,0,0,0,0
			c0,0,0,0,0,0c0,0,0,0,0,0c0,0,0-0.1,0-0.1c0,0,0,0,0,0c0,0,0,0,0,0c0,0,0,0,0-0.1c0,0,0,0,0,0c0,0,0,0,0,0c0,0,0,0,0,0
			c0,0,0,0,0-0.1c0,0,0,0,0,0c0,0,0,0,0,0c0,0,0,0,0-0.1c0,0,0,0,0,0c0,0,0,0,0,0c0,0,0,0,0,0c0,0,0,0,0,0c0,0,0,0,0,0c0,0,0,0,0,0
			c0,0,0,0,0,0c0,0,0,0,0,0c0,0,0,0,0,0c0,0,0,0,0,0c0,0,0,0,0.1-0.1c0,0,0,0,0,0c0,0,0,0,0,0c0,0,0.1-0.1,0.1-0.1c0,0,0,0,0,0
			c0,0,0.1-0.1,0.1-0.1l6.9-4c0,0,0.1,0,0.1-0.1c0,0,0,0,0,0c0,0,0,0,0,0c0,0,0,0,0.1,0c0,0,0,0,0,0c0,0,0,0,0,0c0,0,0,0,0,0
			c0,0,0,0,0,0c0,0,0,0,0,0c0,0,0,0,0,0c0,0,0,0,0,0c0,0,0,0,0,0h0c0,0,0,0,0.1,0c0,0,0,0,0,0c0,0,0,0,0,0c0,0,0,0,0,0c0,0,0,0,0,0
			c0,0,0,0,0,0c0,0,0,0,0,0c0,0,0,0,0,0c0,0,0,0,0,0l3.1,1.8l1.2,0.7L80.4,55.7z"/>
		<path style="fill:#FFFFFF;" d="M70.4,56.7l0.8,0.4l0-1.6l-2.7,0l0.8,0.4l-0.9,0.5c-0.1,0-0.1,0.1-0.2,0.1l0,0l0,0
			c0,0-0.1,0-0.1,0.1l0,0c0,0,0,0,0,0c0,0,0,0,0,0c0,0-0.1,0.1-0.1,0.1c0,0,0,0,0,0c0,0,0,0.1-0.1,0.1l0,0c0,0-0.1,0.1-0.1,0.1l0,0
			c0,0-0.1,0.1-0.1,0.1l0,0c0,0,0,0.1-0.1,0.1l0,0c0,0,0,0.1-0.1,0.1l0,0c0,0,0,0.1-0.1,0.1l0,0.1c0,0,0,0.1,0,0.1c0,0,0,0.1,0,0.1
			c0,0,0,0,0,0.1c0,0,0,0.1,0,0.1c0,0,0,0,0,0.1c0,0.1,0,0.2-0.1,0.3l0,0c0,0.1,0,0.2,0,0.3l0,17.4l1.2,0.7l0-18.1c0,0,0-0.1,0-0.1
			l0,0c0,0,0-0.1,0-0.1l0,0c0,0,0,0,0-0.1l0,0c0,0,0,0,0,0c0,0,0,0,0-0.1l0,0c0,0,0,0,0-0.1l0,0c0,0,0-0.1,0-0.1l0,0c0,0,0,0,0-0.1
			l0,0c0,0,0,0,0-0.1l0,0c0,0,0,0,0.1-0.1l0,0c0,0,0,0,0,0l0,0c0,0,0,0,0,0l0.1-0.1c0,0,0,0,0,0l0,0c0,0,0.1,0,0.1-0.1L70.4,56.7z"
			/>
		<path style="fill:none;stroke:#000000;stroke-width:5.818675e-02;stroke-miterlimit:10;" d="M80.4,55.7"/>
	</g>
</g>
</svg>
