<?xml version="1.0" encoding="utf-8"?>
<!-- Generator: Adobe Illustrator 23.0.1, SVG Export Plug-In . SVG Version: 6.00 Build 0)  -->
<svg version="1.1" id="Layer_1" xmlns="http://www.w3.org/2000/svg" xmlns:xlink="http://www.w3.org/1999/xlink" x="0px" y="0px"
	 viewBox="0 0 100 100" style="enable-background:new 0 0 100 100;" xml:space="preserve">
<style type="text/css">
	.st0{fill:url(#left-leg_1_);}
</style>
<g id="left-leg_11_">
	<path id="Shoes_14_" d="M78.8,66.9c0,0.5,0,0.8,0,0.9c0,0.2,0,0.3,0,0.4c-0.3,0.4-0.8,0.5-1.5,0.3l0-0.3c-0.5,0-1.1-0.2-1.6-0.6
		c-0.9-0.6-1-1.1-0.7-1.3c0.3-0.2,0.9,0.1,1.3,0.2s0.8,0.1,1.1-0.2C77.5,66.1,78,66.3,78.8,66.9z"/>
	
		<linearGradient id="left-leg_1_" gradientUnits="userSpaceOnUse" x1="-314.93" y1="442.0917" x2="-313.6425" y2="442.3692" gradientTransform="matrix(-18.4813 0 0 -69.1719 -5742.2651 30639.2441)">
		<stop  offset="0" style="stop-color:#E95281"/>
		<stop  offset="0.4393" style="stop-color:#E7517F"/>
		<stop  offset="0.6683" style="stop-color:#DF4D7A"/>
		<stop  offset="0.8482" style="stop-color:#D24670"/>
		<stop  offset="1" style="stop-color:#BF3D62"/>
	</linearGradient>
	<path id="left-leg_12_" class="st0" d="M75.6,53.4c0,2.3,0.1,3.9,0.3,4.8c0.3,1.2,0.8,7.6,0.8,8.1c0,0.5,0.2,1.3,1.1,1.3
		c0.9,0,1.1-0.4,1.1-1.1c0-0.7-0.1-5.3-0.3-6.2c-0.2-0.9,0-3.9,0.4-5.1c0.4-1.2,1.4-3.1,0.7-4C79.3,50.6,77.9,51.3,75.6,53.4z"/>
</g>
</svg>
