<?xml version="1.0" encoding="utf-8"?>
<!-- Generator: Adobe Illustrator 23.0.1, SVG Export Plug-In . SVG Version: 6.00 Build 0)  -->
<svg version="1.1" id="Layer_1" xmlns="http://www.w3.org/2000/svg" xmlns:xlink="http://www.w3.org/1999/xlink" x="0px" y="0px"
	 viewBox="0 0 100 100" style="enable-background:new 0 0 100 100;" xml:space="preserve">
<g id="achat-digtale_1_">
	<g id="e-commerce_1_">
		<g id="computer_7_">
			
				<linearGradient id="SVGID_1_" gradientUnits="userSpaceOnUse" x1="1347.859" y1="54.2406" x2="1336.5792" y2="34.7035" gradientTransform="matrix(1 0 0 -1 -1286.2603 100)">
				<stop  offset="0" style="stop-color:#6485C3;stop-opacity:0"/>
				<stop  offset="0.2111" style="stop-color:#6A8BC6;stop-opacity:0.1266"/>
				<stop  offset="0.4949" style="stop-color:#7A9CCF;stop-opacity:0.297"/>
				<stop  offset="0.8189" style="stop-color:#95B8DE;stop-opacity:0.4913"/>
				<stop  offset="1" style="stop-color:#A7CBE8;stop-opacity:0.6"/>
			</linearGradient>
			<path style="opacity:0.24;fill:url(#SVGID_1_);enable-background:new    ;" d="M51.7,40.1c-0.8-0.4-2-0.4-2.8,0L29.2,51.5
				c-0.8,0.4-0.8,1.2,0,1.6l31,17.9c0.8,0.4,2,0.4,2.8,0l19.8-11.5c0.7-0.4,0.7-1.1,0-1.5L51.7,40.1z"/>
			
				<linearGradient id="SVGID_2_" gradientUnits="userSpaceOnUse" x1="1314.8602" y1="47.85" x2="1369.5129" y2="47.85" gradientTransform="matrix(1 0 0 -1 -1286.2603 100)">
				<stop  offset="0" style="stop-color:#FFFFFF"/>
				<stop  offset="0.3662" style="stop-color:#FCFDFE"/>
				<stop  offset="0.6134" style="stop-color:#F3F8FD"/>
				<stop  offset="0.8248" style="stop-color:#E4EFFA"/>
				<stop  offset="1" style="stop-color:#D1E4F6"/>
			</linearGradient>
			<path style="fill:url(#SVGID_2_);" d="M51.7,36.7c-0.8-0.4-2-0.4-2.8,0L29.2,48.1c-0.8,0.4-0.8,1.2,0,1.6l31,17.9
				c0.8,0.4,2,0.4,2.8,0l19.8-11.5c0.7-0.4,0.7-1.1,0-1.5L51.7,36.7z"/>
			
				<linearGradient id="SVGID_3_" gradientUnits="userSpaceOnUse" x1="1348.0042" y1="57.0585" x2="1336.2776" y2="36.7475" gradientTransform="matrix(1 0 0 -1 -1286.2603 100)">
				<stop  offset="0" style="stop-color:#FFFFFF"/>
				<stop  offset="0.3662" style="stop-color:#FCFDFE"/>
				<stop  offset="0.6134" style="stop-color:#F3F8FD"/>
				<stop  offset="0.8248" style="stop-color:#E4EFFA"/>
				<stop  offset="1" style="stop-color:#D1E4F6"/>
			</linearGradient>
			<path style="fill:url(#SVGID_3_);" d="M83.3,55.5L83.3,55.5L83.3,55.5L83.3,55.5v0.2l0,0c0,0,0,0.1-0.1,0.1l0,0
				c0,0,0,0.1-0.1,0.1l0,0L83,56l0,0l-0.1,0.1l0,0l-0.1,0.1L63,67.6c0,0-0.1,0-0.1,0.1l0,0c0,0-0.1,0-0.1,0.1l0,0h-0.1h-0.1h-0.1
				h-0.1h-0.1l0,0h-0.1l0,0h-0.1H62h-0.1h-0.1h-0.1h-0.1h-0.1h-0.1h-0.1h-0.1h-0.1H61h-0.1l0,0h-0.1l0,0h-0.1c0,0,0,0-0.1,0
				c0,0-0.1,0-0.1-0.1l-31-17.9c-0.2-0.1-0.4-0.3-0.5-0.4c0,0,0-0.1-0.1-0.1c0-0.1,0-0.1,0-0.2V49l0,0l0,0v1.5
				c0,0.3,0.2,0.6,0.6,0.8l31,17.9l0.1,0.1c0,0,0,0,0.1,0h0.1l0,0l0,0h0.1l0,0l0,0c0,0,0,0,0.1,0h0.1l0,0l0,0h0.1l0,0l0,0h0.1l0,0
				l0,0h0.1c0,0,0,0,0.1,0l0,0h0.1c0,0,0,0,0.1,0l0,0h0.1c0,0,0,0,0.1,0l0,0l0,0H62l0,0l0,0c0,0,0,0,0.1,0h0.1h0.1h0.1l0,0h0.1l0,0
				c0,0,0.1,0,0.1-0.1l0,0c0,0,0.1,0,0.1-0.1l19.8-11.5l0,0c0,0,0.1,0,0.1-0.1l0,0c0,0,0.1,0,0.1-0.1l0,0l0,0c0,0,0,0,0.1-0.1l0,0
				l0,0l0,0l0,0c0,0,0,0,0-0.1l0,0l0,0c0,0,0,0,0-0.1l0,0l0,0c0,0,0,0,0-0.1l0,0l0,0v-0.1l0,0L83.3,55.5
				C83.3,55.4,83.3,55.4,83.3,55.5z"/>
			<g>
				
					<linearGradient id="SVGID_4_" gradientUnits="userSpaceOnUse" x1="1336.9421" y1="67.15" x2="1370.7584" y2="67.15" gradientTransform="matrix(1 0 0 -1 -1286.2603 100)">
					<stop  offset="0" style="stop-color:#FFFFFF"/>
					<stop  offset="0.3662" style="stop-color:#FCFDFE"/>
					<stop  offset="0.6134" style="stop-color:#F3F8FD"/>
					<stop  offset="0.8248" style="stop-color:#E4EFFA"/>
					<stop  offset="1" style="stop-color:#D1E4F6"/>
				</linearGradient>
				<path style="fill:url(#SVGID_4_);" d="M52.1,10.9c-0.8-0.4-1.4-0.1-1.4,0.8l-0.1,22.8c0,0.9,0.6,2,1.4,2.4l31,17.9
					c0.8,0.4,1.4,0.1,1.4-0.8l0.1-22.9c0-0.8-0.6-1.8-1.3-2.2L52.1,10.9z M83.1,52.2l-31.3-18l0.1-21.8l31.3,18L83.1,52.2"/>
			</g>
			
				<linearGradient id="SVGID_5_" gradientUnits="userSpaceOnUse" x1="1338.4642" y1="90.246" x2="1377.0361" y2="51.6741" gradientTransform="matrix(1 0 0 -1 -1286.2603 100)">
				<stop  offset="0" style="stop-color:#FFFFFF"/>
				<stop  offset="0.3662" style="stop-color:#FCFDFE"/>
				<stop  offset="0.6134" style="stop-color:#F3F8FD"/>
				<stop  offset="0.8248" style="stop-color:#E4EFFA"/>
				<stop  offset="1" style="stop-color:#D1E4F6"/>
			</linearGradient>
			<path style="fill:url(#SVGID_5_);" d="M84.9,30.8C84.9,30.7,84.9,30.7,84.9,30.8C84.9,30.7,84.9,30.7,84.9,30.8
				c0-0.1,0-0.1,0-0.1l0,0c0,0,0,0,0-0.1c0,0,0,0,0-0.1l0,0l0,0c0,0,0,0,0-0.1c0,0,0,0,0-0.1l0,0l0,0l0,0c0,0,0,0,0-0.1
				c0,0,0,0,0-0.1l0,0l0,0c0,0,0,0,0-0.1c0,0,0,0,0-0.1l0,0l0,0l0,0c0,0,0,0,0-0.1l0,0l0,0l0,0c0,0,0,0,0-0.1c0,0,0,0,0-0.1l0,0l0,0
				c0,0,0,0,0-0.1c0,0,0,0,0-0.1l0,0l0,0c0,0,0,0,0-0.1c0,0,0-0.1-0.1-0.1l0,0l-0.1-0.1l0,0l0,0c0,0,0-0.1-0.1-0.1c0,0,0,0,0-0.1
				l0,0l0,0c0,0,0,0,0-0.1c0,0,0,0-0.1-0.1l0,0l0,0l0,0c0,0,0,0-0.1-0.1l0,0l0,0l0,0c0,0,0,0-0.1-0.1l0,0l0,0l0,0c0,0,0,0-0.1,0l0,0
				l0,0l0,0c0,0,0,0-0.1,0c0,0,0,0-0.1,0l0,0L52.6,10.7l0,0l0,0l0,0l0,0l0,0l0,0l0,0c0,0,0,0-0.1,0l0,0l0,0c0,0,0,0-0.1,0l0,0l0,0
				l0,0l0,0l0,0l0,0l0,0l0,0l0,0l0,0l0,0l0,0l0,0l0,0l0,0l0,0l0,0l0,0l0,0l0,0l0,0l0,0c0,0,0,0-0.1,0l0,0l0,0h-0.1l0,0l0,0l0,0l0,0
				c0,0,0,0-0.1,0l0,0l-0.4,0.2c0,0,0,0,0.1,0l0,0l0,0l0,0h0.1l0,0c0,0,0,0,0.1,0l0,0l0,0l0,0l0,0l0,0l0,0l0,0l0,0l0,0l0,0l0,0l0,0
				l0,0l0,0c0,0,0.1,0,0.1,0.1l0,0l0,0l0,0c0,0,0,0,0.1,0l31.1,17.9l0.1,0.1l0,0l0.1,0.1l0,0l0.1,0.1l0,0l0.1,0.1l0,0l0.1,0.1l0,0
				l0.1,0.1l0,0l0.1,0.1c0,0,0,0.1,0.1,0.1c0,0,0,0,0,0.1l0,0c0,0,0,0.1,0.1,0.1l0,0c0,0,0,0.1,0.1,0.2l0,0c0,0,0,0.1,0.1,0.1l0,0
				c0,0.1,0,0.1,0.1,0.2l0,0v0.1l0,0c0,0.1,0,0.1,0,0.2l0,0c0,0.1,0,0.1,0,0.2l0,0c0,0.1,0,0.1,0,0.1l-0.1,23c0,0.1,0,0.1,0,0.2l0,0
				v0.1l0,0v0.1l0,0v0.1l0,0c0,0,0,0.1-0.1,0.1l0,0c0,0,0,0-0.1,0.1l0,0c0,0,0,0-0.1,0.1l0,0c0,0-0.1,0-0.1,0.1l0.4-0.2
				c0,0,0.1,0,0.1-0.1l0,0c0,0,0,0,0.1-0.1l0,0c0,0,0,0,0.1-0.1l0,0l0,0c0,0,0-0.1,0.1-0.1l0,0l0,0c0,0,0,0,0-0.1l0,0l0,0l0,0
				c0,0,0,0,0-0.1l0,0l0,0l0,0c0,0,0,0,0-0.1l0,0l0,0l0,0c0,0,0,0,0-0.1c0,0,0,0,0-0.1l0,0L84.9,30.8L84.9,30.8z"/>
			<g style="opacity:0.2;">
				
					<linearGradient id="SVGID_6_" gradientUnits="userSpaceOnUse" x1="-646.3629" y1="50.1" x2="-607.2617" y2="50.1" gradientTransform="matrix(-1 0 0 -1 -566.8593 100)">
					<stop  offset="5.762439e-03" style="stop-color:#71C8E2"/>
					<stop  offset="1" style="stop-color:#EAF6FD"/>
				</linearGradient>
				<path style="fill:url(#SVGID_6_);" d="M40.7,44.3c-0.3,0.2-0.3,0.5,0,0.7l27.8,16.1c0.3,0.2,0.9,0.2,1.2,0l9.7-5.6
					c0.3-0.2,0.3-0.5,0-0.7L51.5,38.7c-0.3-0.2-0.9-0.2-1.2,0L40.7,44.3z"/>
			</g>
			<g>
				<g>
					<g>
						<path style="fill:#B9B9B9;" d="M72.4,52.2c-0.1,0-0.1,0.1,0,0.2l1.2,0.7c0.1,0,0.2,0,0.3,0l0.4-0.2c0.1,0,0.1-0.1,0-0.2
							L73.1,52c-0.1,0-0.2,0-0.3,0L72.4,52.2z"/>
					</g>
				</g>
				<g>
					<g>
						<path style="fill:#B9B9B9;" d="M70,52.9c-0.1,0-0.1,0.1,0,0.2l1.2,0.7c0.1,0,0.2,0,0.3,0l1.1-0.6c0.1,0,0.1-0.1,0-0.2
							l-1.2-0.7c-0.1,0-0.2,0-0.3,0L70,52.9z"/>
					</g>
				</g>
				<g>
					<g>
						<path style="fill:#B9B9B9;" d="M72,54c-0.1,0-0.1,0.1,0,0.2l1.2,0.7c0.1,0,0.2,0,0.3,0l1.1-0.6c0.1,0,0.1-0.1,0-0.2l-1.2-0.7
							c-0.1,0-0.2,0-0.3,0L72,54z"/>
					</g>
				</g>
				<g>
					<g>
						<path style="fill:#B9B9B9;" d="M74.4,53.4c-0.1,0-0.1,0.1,0,0.2l1.2,0.7c0.1,0,0.2,0,0.3,0l0.4-0.2c0.1,0,0.1-0.1,0-0.2
							l-1.2-0.7c-0.1,0-0.2,0-0.3,0L74.4,53.4z"/>
					</g>
				</g>
				<g>
					<g>
						<path style="fill:#B9B9B9;" d="M76.4,54.5c-0.1,0-0.1,0.1,0,0.2l1.2,0.7c0.1,0,0.2,0,0.3,0l0.4-0.2c0.1,0,0.1-0.1,0-0.2
							l-1.2-0.7c-0.1,0-0.2,0-0.3,0L76.4,54.5z"/>
					</g>
				</g>
				<g>
					<g>
						<path style="fill:#B9B9B9;" d="M70.4,51.1c-0.1,0-0.1,0.1,0,0.2l1.2,0.7c0.1,0,0.2,0,0.3,0l0.4-0.2c0.1,0,0.1-0.1,0-0.2
							l-1.2-0.7c-0.1,0-0.2,0-0.3,0L70.4,51.1z"/>
					</g>
				</g>
				<g>
					<g>
						<path style="fill:#B9B9B9;" d="M50.5,39.5c-0.1,0-0.1,0.1,0,0.2l1.2,0.7c0.1,0,0.2,0,0.3,0l0.4-0.2c0.1,0,0.1-0.1,0-0.2
							l-1.2-0.7c-0.1,0-0.2,0-0.3,0L50.5,39.5z"/>
					</g>
				</g>
				<g>
					<g>
						<path style="fill:#B9B9B9;" d="M47,41.6c-0.1,0-0.1,0.1,0,0.2l1.2,0.7c0.1,0,0.2,0,0.3,0l1.1-0.6c0.1,0,0.1-0.1,0-0.2L48.4,41
							c-0.1,0-0.2,0-0.3,0L47,41.6z"/>
					</g>
				</g>
				<g>
					<g>
						<path style="fill:#B9B9B9;" d="M48.9,42.7c-0.1,0-0.1,0.1,0,0.2l1.2,0.7c0.1,0,0.2,0,0.3,0l1.1-0.6c0.1,0,0.1-0.1,0-0.2
							l-1.2-0.7c-0.1,0-0.2,0-0.3,0L48.9,42.7z"/>
					</g>
				</g>
				<g>
					<g>
						<path style="fill:#B9B9B9;" d="M51.4,48.3c-0.1,0-0.1,0.1,0,0.2l1.2,0.7c0.1,0,0.2,0,0.3,0l1.1-0.6c0.1,0,0.1-0.1,0-0.2
							l-1.2-0.7c-0.1,0-0.2,0-0.3,0L51.4,48.3z"/>
					</g>
				</g>
				<g style="enable-background:new    ;">
					<g>
						<g>
							<path style="fill:#B9B9B9;" d="M52.5,40.6c-0.1,0-0.1,0.1,0,0.2l1.2,0.7c0.1,0,0.2,0,0.3,0l0.4-0.2c0.1,0,0.1-0.1,0-0.2
								l-1.2-0.7c-0.1,0-0.2,0-0.3,0L52.5,40.6z"/>
						</g>
					</g>
					<g>
						<g>
							<path style="fill:#B9B9B9;" d="M48.7,40.5c-0.1,0-0.1,0.1,0,0.2l2.5,1.4c0.1,0,0.2,0,0.3,0l1.1-0.6c0.1,0,0.1-0.1,0-0.2
								l-2.5-1.4c-0.1,0-0.2,0-0.3,0L48.7,40.5z"/>
						</g>
					</g>
					<g>
						<g>
							<path style="fill:#B9B9B9;" d="M54.5,41.8c-0.1,0-0.1,0.1,0,0.2l1.2,0.7c0.1,0,0.2,0,0.3,0l0.4-0.2c0.1,0,0.1-0.1,0-0.2
								l-1.2-0.7c-0.1,0-0.2,0-0.3,0L54.5,41.8z"/>
						</g>
					</g>
					<g>
						<g>
							<path style="fill:#B9B9B9;" d="M52,42.4c-0.1,0-0.1,0.1,0,0.2l1.2,0.7c0.1,0,0.2,0,0.3,0l1.1-0.6c0.1,0,0.1-0.1,0-0.2
								l-1.2-0.7c-0.1,0-0.2,0-0.3,0L52,42.4z"/>
						</g>
					</g>
					<g>
						<g>
							<path style="fill:#B9B9B9;" d="M45.2,42.6c-0.1,0-0.1,0.1,0,0.2l2.5,1.5c0.1,0,0.2,0,0.3,0l1.1-0.6c0.1,0,0.1-0.1,0-0.2
								L46.5,42c-0.1,0-0.2,0-0.3,0L45.2,42.6z"/>
						</g>
					</g>
					<g>
						<g>
							<path style="fill:#B9B9B9;" d="M50.9,43.8c-0.1,0-0.1,0.1,0,0.2l1.2,0.7c0.1,0,0.2,0,0.3,0l1.1-0.6c0.1,0,0.1-0.1,0-0.2
								l-1.2-0.7c-0.1,0-0.2,0-0.3,0L50.9,43.8z"/>
						</g>
					</g>
					<g>
						<g>
							<path style="fill:#B9B9B9;" d="M48.4,44.5c-0.1,0-0.1,0.1,0,0.2l1.2,0.7c0.1,0,0.2,0,0.3,0l1.1-0.6c0.1,0,0.1-0.1,0-0.2
								l-1.2-0.7c-0.1,0-0.2,0-0.3,0L48.4,44.5z"/>
						</g>
					</g>
					<g>
						<g>
							<path style="fill:#B9B9B9;" d="M43.4,43.6c-0.1,0-0.1,0.1,0,0.2l3.3,1.9c0.1,0,0.2,0,0.3,0l1.1-0.6c0.1,0,0.1-0.1,0-0.2
								L44.8,43c-0.1,0-0.2,0-0.3,0L43.4,43.6z"/>
						</g>
					</g>
					<g>
						<g>
							<path style="fill:#B9B9B9;" d="M52.9,45c-0.1,0-0.1,0.1,0,0.2l1.2,0.7c0.1,0,0.2,0,0.3,0l1.1-0.6c0.1,0,0.1-0.1,0-0.2
								l-1.2-0.7c-0.1,0-0.2,0-0.3,0L52.9,45z"/>
						</g>
					</g>
					<g>
						<g>
							<path style="fill:#B9B9B9;" d="M41.6,44.6c-0.1,0-0.1,0.1,0,0.2l2.5,1.4c0.1,0,0.2,0,0.3,0l1.1-0.6c0.1,0,0.1-0.1,0-0.2
								L43,44c-0.1,0-0.2,0-0.3,0L41.6,44.6z"/>
						</g>
					</g>
					<g>
						<g>
							<path style="fill:#B9B9B9;" d="M50.4,45.6c-0.1,0-0.1,0.1,0,0.2l1.2,0.7c0.1,0,0.2,0,0.3,0l1.1-0.6c0.1,0,0.1-0.1,0-0.2
								L51.7,45c-0.1,0-0.2,0-0.3,0L50.4,45.6z"/>
						</g>
					</g>
					<g>
						<g>
							<path style="fill:#B9B9B9;" d="M47.4,46c-0.1,0-0.1,0.1,0,0.2l1.2,0.7c0.1,0,0.2,0,0.3,0l1.1-0.6c0.1,0,0.1-0.1,0-0.2
								l-1.2-0.7c-0.1,0-0.2,0-0.3,0L47.4,46z"/>
						</g>
					</g>
					<g>
						<g>
							<path style="fill:#B9B9B9;" d="M44.9,46.5c-0.1,0-0.1,0.1,0,0.2l1.7,1c0.1,0,0.2,0,0.3,0l1.1-0.6c0.1,0,0.1-0.1,0-0.2l-1.7-1
								c-0.1,0-0.2,0-0.3,0L44.9,46.5z"/>
						</g>
					</g>
					<g>
						<g>
							<path style="fill:#B9B9B9;" d="M49.4,47.1c-0.1,0-0.1,0.1,0,0.2l1.2,0.7c0.1,0,0.2,0,0.3,0l1.1-0.6c0.1,0,0.1-0.1,0-0.2
								l-1.2-0.7c-0.1,0-0.2,0-0.3,0L49.4,47.1z"/>
						</g>
					</g>
					<g>
						<g>
							<path style="fill:#B9B9B9;" d="M47.3,47.9c-0.1,0-0.1,0.1,0,0.2l1.7,1c0.1,0,0.2,0,0.3,0l1.1-0.6c0.1,0,0.1-0.1,0-0.2l-1.7-1
								c-0.1,0-0.2,0-0.3,0L47.3,47.9z"/>
						</g>
					</g>
				</g>
				<g>
					<g>
						<path style="fill:#B9B9B9;" d="M56.5,43c-0.1,0-0.1,0.1,0,0.2l1.2,0.7c0.1,0,0.2,0,0.3,0l0.4-0.2c0.1,0,0.1-0.1,0-0.2
							l-1.2-0.7c-0.1,0-0.2,0-0.3,0L56.5,43z"/>
					</g>
				</g>
				<g style="enable-background:new    ;">
					<g>
						<g>
							<path style="fill:#B9B9B9;" d="M56,44.7c-0.1,0-0.1,0.1,0,0.2l1.2,0.7c0.1,0,0.2,0,0.3,0l1.1-0.6c0.1,0,0.1-0.1,0-0.2
								l-1.2-0.7c-0.1,0-0.2,0-0.3,0L56,44.7z"/>
						</g>
					</g>
					<g>
						<g>
							<path style="fill:#B9B9B9;" d="M54.9,46.2c-0.1,0-0.1,0.1,0,0.2l1.2,0.7c0.1,0,0.2,0,0.3,0l1.1-0.6c0.1,0,0.1-0.1,0-0.2
								l-1.2-0.7c-0.1,0-0.2,0-0.3,0L54.9,46.2z"/>
						</g>
					</g>
				</g>
				<g>
					<g>
						<path style="fill:#B9B9B9;" d="M58.5,44.1c-0.1,0-0.1,0.1,0,0.2l1.2,0.7c0.1,0,0.2,0,0.3,0l0.4-0.2c0.1,0,0.1-0.1,0-0.2
							l-1.2-0.7c-0.1,0-0.2,0-0.3,0L58.5,44.1z"/>
					</g>
				</g>
				<g>
					<g>
						<path style="fill:#B9B9B9;" d="M60.4,45.3c-0.1,0-0.1,0.1,0,0.2l1.2,0.7c0.1,0,0.2,0,0.3,0l0.4-0.2c0.1,0,0.1-0.1,0-0.2
							L61.1,45c-0.1,0-0.2,0-0.3,0L60.4,45.3z"/>
					</g>
				</g>
				<g>
					<g>
						<path style="fill:#B9B9B9;" d="M57.4,51.7c-0.1,0-0.1,0.1,0,0.2l1.2,0.7c0.1,0,0.2,0,0.3,0L60,52c0.1,0,0.1-0.1,0-0.2
							l-1.2-0.7c-0.1,0-0.2,0-0.3,0L57.4,51.7z"/>
					</g>
				</g>
				<g style="enable-background:new    ;">
					<g>
						<g>
							<path style="fill:#B9B9B9;" d="M63.4,55.2c-0.1,0-0.1,0.1,0,0.2l1.2,0.7c0.1,0,0.2,0,0.3,0l1.1-0.6c0.1,0,0.1-0.1,0-0.2
								l-1.2-0.7c-0.1,0-0.2,0-0.3,0L63.4,55.2z"/>
						</g>
					</g>
					<g>
						<g>
							<path style="fill:#B9B9B9;" d="M65.4,56.4c-0.1,0-0.1,0.1,0,0.2l5.1,3c0.1,0,0.2,0,0.3,0l1.1-0.6c0.1,0,0.1-0.1,0-0.2l-5.1-3
								c-0.1,0-0.2,0-0.3,0L65.4,56.4z"/>
						</g>
					</g>
				</g>
				<g>
					<g>
						<path style="fill:#B9B9B9;" d="M61.4,54.1c-0.1,0-0.1,0.1,0,0.2l1.2,0.7c0.1,0,0.2,0,0.3,0l1.1-0.6c0.1,0,0.1-0.1,0-0.2
							l-1.2-0.7c-0.1,0-0.2,0-0.3,0L61.4,54.1z"/>
					</g>
				</g>
				<g>
					<g>
						<path style="fill:#B9B9B9;" d="M61.4,56.1c-0.1,0-0.1,0.1,0,0.2l1.7,1c0.1,0,0.2,0,0.3,0l1.1-0.6c0.1,0,0.1-0.1,0-0.2l-1.7-1
							c-0.1,0-0.2,0-0.3,0L61.4,56.1z"/>
					</g>
				</g>
				<g style="enable-background:new    ;">
					<g>
						<g>
							<path style="fill:#B9B9B9;" d="M54.3,47.9c-0.1,0-0.1,0.1,0,0.2l1.2,0.7c0.1,0,0.2,0,0.3,0l1.1-0.6c0.1,0,0.1-0.1,0-0.2
								l-1.2-0.7c-0.1,0-0.2,0-0.3,0L54.3,47.9z"/>
						</g>
					</g>
					<g>
						<g>
							<path style="fill:#B9B9B9;" d="M62,48.2c-0.1,0-0.1,0.1,0,0.2l1.2,0.7c0.1,0,0.2,0,0.3,0l1.1-0.6c0.1,0,0.1-0.1,0-0.2
								l-1.2-0.7c-0.1,0-0.2,0-0.3,0L62,48.2z"/>
						</g>
					</g>
					<g>
						<g>
							<path style="fill:#B9B9B9;" d="M58.9,48.5c-0.1,0-0.1,0.1,0,0.2l1.2,0.7c0.1,0,0.2,0,0.3,0l1.1-0.6c0.1,0,0.1-0.1,0-0.2
								l-1.2-0.7c-0.1,0-0.2,0-0.3,0L58.9,48.5z"/>
						</g>
					</g>
					<g>
						<g>
							<path style="fill:#B9B9B9;" d="M56.3,49.1c-0.1,0-0.1,0.1,0,0.2l1.2,0.7c0.1,0,0.2,0,0.3,0l1.1-0.6c0.1,0,0.1-0.1,0-0.2
								l-1.2-0.7c-0.1,0-0.2,0-0.3,0L56.3,49.1z"/>
						</g>
					</g>
					<g>
						<g>
							<path style="fill:#B9B9B9;" d="M53.4,49.4c-0.1,0-0.1,0.1,0,0.2l1.2,0.7c0.1,0,0.2,0,0.3,0l1.1-0.6c0.1,0,0.1-0.1,0-0.2
								l-1.2-0.7c-0.1,0-0.2,0-0.3,0L53.4,49.4z"/>
						</g>
					</g>
					<g>
						<g>
							<path style="fill:#B9B9B9;" d="M60.9,49.6c-0.1,0-0.1,0.1,0,0.2l1.2,0.7c0.1,0,0.2,0,0.3,0l1.1-0.6c0.1,0,0.1-0.1,0-0.2
								L62.2,49c-0.1,0-0.2,0-0.3,0L60.9,49.6z"/>
						</g>
					</g>
					<g>
						<g>
							<path style="fill:#B9B9B9;" d="M58.3,50.2c-0.1,0-0.1,0.1,0,0.2l1.2,0.7c0.1,0,0.2,0,0.3,0l1.1-0.6c0.1,0,0.1-0.1,0-0.2
								l-1.2-0.7c-0.1,0-0.2,0-0.3,0L58.3,50.2z"/>
						</g>
					</g>
					<g>
						<g>
							<path style="fill:#B9B9B9;" d="M55.4,50.6c-0.1,0-0.1,0.1,0,0.2l1.2,0.7c0.1,0,0.2,0,0.3,0l1.1-0.6c0.1,0,0.1-0.1,0-0.2
								L56.7,50c-0.1,0-0.2,0-0.3,0L55.4,50.6z"/>
						</g>
					</g>
					<g>
						<g>
							<path style="fill:#B9B9B9;" d="M60.3,51.4c-0.1,0-0.1,0.1,0,0.2l1.2,0.7c0.1,0,0.2,0,0.3,0l1.1-0.6c0.1,0,0.1-0.1,0-0.2
								l-1.2-0.7c-0.1,0-0.2,0-0.3,0L60.3,51.4z"/>
						</g>
					</g>
					<g>
						<g>
							<path style="fill:#B9B9B9;" d="M59.4,52.9c-0.1,0-0.1,0.1,0,0.2l1.2,0.7c0.1,0,0.2,0,0.3,0l1.1-0.6c0.1,0,0.1-0.1,0-0.2
								l-1.2-0.7c-0.1,0-0.2,0-0.3,0L59.4,52.9z"/>
						</g>
					</g>
					<g>
						<g>
							<path style="fill:#B9B9B9;" d="M49.6,49.3c-0.1,0-0.1,0.1,0,0.2l11,6.4c0.1,0,0.2,0,0.3,0l1.1-0.6c0.1,0,0.1-0.1,0-0.2
								l-11-6.4c-0.1,0-0.2,0-0.3,0L49.6,49.3z"/>
						</g>
					</g>
				</g>
				<g>
					<g>
						<path style="fill:#B9B9B9;" d="M58,45.9c-0.1,0-0.1,0.1,0,0.2l1.2,0.7c0.1,0,0.2,0,0.3,0l1.1-0.6c0.1,0,0.1-0.1,0-0.2
							l-1.2-0.7c-0.1,0-0.2,0-0.3,0L58,45.9z"/>
					</g>
				</g>
				<g>
					<g>
						<path style="fill:#B9B9B9;" d="M60,47.1c-0.1,0-0.1,0.1,0,0.2l1.2,0.7c0.1,0,0.2,0,0.3,0l1.1-0.6c0.1,0,0.1-0.1,0-0.2
							l-1.2-0.7c-0.1,0-0.2,0-0.3,0L60,47.1z"/>
					</g>
				</g>
				<g>
					<g>
						<path style="fill:#B9B9B9;" d="M62.4,46.4c-0.1,0-0.1,0.1,0,0.2l1.2,0.7c0.1,0,0.2,0,0.3,0l0.4-0.2c0.1,0,0.1-0.1,0-0.2
							l-1.2-0.7c-0.1,0-0.2,0-0.3,0L62.4,46.4z"/>
					</g>
				</g>
				<g>
					<g>
						<path style="fill:#B9B9B9;" d="M64.4,47.6c-0.1,0-0.1,0.1,0,0.2l1.2,0.7c0.1,0,0.2,0,0.3,0l0.4-0.2c0.1,0,0.1-0.1,0-0.2
							l-1.2-0.7c-0.1,0-0.2,0-0.3,0L64.4,47.6z"/>
					</g>
				</g>
				<g>
					<g>
						<path style="fill:#B9B9B9;" d="M62.9,50.8c-0.1,0-0.1,0.1,0,0.2l1.2,0.7c0.1,0,0.2,0,0.3,0l1.1-0.6c0.1,0,0.1-0.1,0-0.2
							l-1.2-0.7c-0.1,0-0.2,0-0.3,0L62.9,50.8z"/>
					</g>
				</g>
				<g style="enable-background:new    ;">
					<g>
						<g>
							<path style="fill:#B9B9B9;" d="M64.9,52c-0.1,0-0.1,0.1,0,0.2l1.2,0.7c0.1,0,0.2,0,0.3,0l1.1-0.6c0.1,0,0.1-0.1,0-0.2
								l-1.2-0.7c-0.1,0-0.2,0-0.3,0L64.9,52z"/>
						</g>
					</g>
					<g>
						<g>
							<path style="fill:#B9B9B9;" d="M62.3,52.5c-0.1,0-0.1,0.1,0,0.2l1.2,0.7c0.1,0,0.2,0,0.3,0l1.1-0.6c0.1,0,0.1-0.1,0-0.2
								l-1.2-0.7c-0.1,0-0.2,0-0.3,0L62.3,52.5z"/>
						</g>
					</g>
					<g>
						<g>
							<path style="fill:#B9B9B9;" d="M66.9,53.1c-0.1,0-0.1,0.1,0,0.2l1.2,0.7c0.1,0,0.2,0,0.3,0l1.1-0.6c0.1,0,0.1-0.1,0-0.2
								l-1.2-0.7c-0.1,0-0.2,0-0.3,0L66.9,53.1z"/>
						</g>
					</g>
					<g>
						<g>
							<path style="fill:#B9B9B9;" d="M64.3,53.7c-0.1,0-0.1,0.1,0,0.2l1.2,0.7c0.1,0,0.2,0,0.3,0l1.1-0.6c0.1,0,0.1-0.1,0-0.2
								l-1.2-0.7c-0.1,0-0.2,0-0.3,0L64.3,53.7z"/>
						</g>
					</g>
					<g>
						<g>
							<path style="fill:#B9B9B9;" d="M68.9,54.3c-0.1,0-0.1,0.1,0,0.2l1.2,0.7c0.1,0,0.2,0,0.3,0l1.1-0.6c0.1,0,0.1-0.1,0-0.2
								l-1.2-0.7c-0.1,0-0.2,0-0.3,0L68.9,54.3z"/>
						</g>
					</g>
					<g>
						<g>
							<path style="fill:#B9B9B9;" d="M66.3,54.9c-0.1,0-0.1,0.1,0,0.2l1.2,0.7c0.1,0,0.2,0,0.3,0l1.1-0.6c0.1,0,0.1-0.1,0-0.2
								l-1.2-0.7c-0.1,0-0.2,0-0.3,0L66.3,54.9z"/>
						</g>
					</g>
					<g>
						<g>
							<path style="fill:#B9B9B9;" d="M70.9,55.4c-0.1,0-0.1,0.1,0,0.2l3.2,1.9c0.1,0,0.2,0,0.3,0l1.1-0.6c0.1,0,0.1-0.1,0-0.2
								l-3.2-1.9c-0.1,0-0.2,0-0.3,0L70.9,55.4z"/>
						</g>
					</g>
					<g>
						<g>
							<path style="fill:#B9B9B9;" d="M68.3,56c-0.1,0-0.1,0.1,0,0.2l4,2.3c0.1,0,0.2,0,0.3,0l1.1-0.6c0.1,0,0.1-0.1,0-0.2l-4-2.3
								c-0.1,0-0.2,0-0.3,0L68.3,56z"/>
						</g>
					</g>
				</g>
				<g>
					<g>
						<path style="fill:#B9B9B9;" d="M68,51.7c-0.1,0-0.1,0.1,0,0.2l1.2,0.7c0.1,0,0.2,0,0.3,0l1.1-0.6c0.1,0,0.1-0.1,0-0.2
							l-1.2-0.7c-0.1,0-0.2,0-0.3,0L68,51.7z"/>
					</g>
				</g>
				<g>
					<g>
						<path style="fill:#B9B9B9;" d="M66,50.5c-0.1,0-0.1,0.1,0,0.2l1.2,0.7c0.1,0,0.2,0,0.3,0l1.1-0.6c0.1,0,0.1-0.1,0-0.2
							l-1.2-0.7c-0.1,0-0.2,0-0.3,0L66,50.5z"/>
					</g>
				</g>
				<g>
					<g>
						<path style="fill:#B9B9B9;" d="M64,49.4c-0.1,0-0.1,0.1,0,0.2l1.2,0.7c0.1,0,0.2,0,0.3,0l1.1-0.6c0.1,0,0.1-0.1,0-0.2
							l-1.2-0.7c-0.1,0-0.2,0-0.3,0L64,49.4z"/>
					</g>
				</g>
				<g>
					<g>
						<path style="fill:#B9B9B9;" d="M66.4,48.8c-0.1,0-0.1,0.1,0,0.2l1.2,0.7c0.1,0,0.2,0,0.3,0l0.4-0.2c0.1,0,0.1-0.1,0-0.2
							l-1.2-0.7c-0.1,0-0.2,0-0.3,0L66.4,48.8z"/>
					</g>
				</g>
				<g>
					<g>
						<path style="fill:#B9B9B9;" d="M68.4,49.9c-0.1,0-0.1,0.1,0,0.2l1.2,0.7c0.1,0,0.2,0,0.3,0l0.4-0.2c0.1,0,0.1-0.1,0-0.2
							l-1.2-0.7c-0.1,0-0.2,0-0.3,0L68.4,49.9z"/>
					</g>
				</g>
				<g>
					<g>
						<path style="fill:#B9B9B9;" d="M74,55.2c-0.1,0-0.1,0.1,0,0.2l1.9,1.1c0.1,0,0.2,0,0.3,0l1.1-0.6c0.1,0,0.1-0.1,0-0.2
							l-1.9-1.1c-0.1,0-0.2,0-0.3,0L74,55.2z"/>
					</g>
				</g>
				<g>
					<g>
						<path style="fill:#B9B9B9;" d="M54,43.6c-0.1,0-0.1,0.1,0,0.2l1.2,0.7c0.1,0,0.2,0,0.3,0l1.1-0.6c0.1,0,0.1-0.1,0-0.2L55.4,43
							c-0.1,0-0.2,0-0.3,0L54,43.6z"/>
					</g>
				</g>
				<g>
					<g>
						<path style="fill:#B9B9B9;" d="M56.9,47.3c-0.1,0-0.1,0.1,0,0.2l1.2,0.7c0.1,0,0.2,0,0.3,0l1.1-0.6c0.1,0,0.1-0.1,0-0.2
							l-1.2-0.7c-0.1,0-0.2,0-0.3,0L56.9,47.3z"/>
					</g>
				</g>
				<g>
					<g>
						<path style="fill:#B9B9B9;" d="M52.4,46.8c-0.1,0-0.1,0.1,0,0.2l1.2,0.7c0.1,0,0.2,0,0.3,0L55,47c0.1,0,0.1-0.1,0-0.2
							l-1.2-0.7c-0.1,0-0.2,0-0.3,0L52.4,46.8z"/>
					</g>
				</g>
				<g>
					<g>
						<path style="fill:#B9B9B9;" d="M66.3,59c-0.1,0-0.1,0.1,0,0.2l2.5,1.4c0.1,0,0.2,0,0.3,0l1.1-0.6c0.1,0,0.1-0.1,0-0.2
							l-2.5-1.4c-0.1,0-0.2,0-0.3,0L66.3,59z"/>
					</g>
				</g>
				<g>
					<g>
						<path style="fill:#B9B9B9;" d="M63.8,57.6c-0.1,0-0.1,0.1,0,0.2l1.7,1c0.1,0,0.2,0,0.3,0l1.1-0.6c0.1,0,0.1-0.1,0-0.2l-1.7-1
							c-0.1,0-0.2,0-0.3,0L63.8,57.6z"/>
					</g>
				</g>
			</g>
			<g>
				<g>
					<path style="fill:#B9B9B9;" d="M55.9,56.6c0.2,0.1,0.2,0.4,0,0.5L51,59.9c-0.2,0.1-0.6,0.1-0.9,0l-7.6-4.4
						c-0.2-0.1-0.2-0.4,0-0.5l4.9-2.8c0.2-0.1,0.6-0.1,0.9,0L55.9,56.6z"/>
				</g>
			</g>
			<g id="screen_5_">
				
					<linearGradient id="SVGID_7_" gradientUnits="userSpaceOnUse" x1="-638.8604" y1="74.5729" x2="-630.0262" y2="59.2718" gradientTransform="matrix(-1 0 0 -1 -566.8593 100)">
					<stop  offset="5.762439e-03" style="stop-color:#71C8E2"/>
					<stop  offset="1" style="stop-color:#EAF6FD"/>
				</linearGradient>
				<path style="fill:url(#SVGID_7_);" d="M51.9,34.2l31.3,18l0.1-20.4L52,13.9L51.9,34.2z"/>
				<polygon style="fill:#53A2DA;" points="51.9,12.3 83.2,30.3 83.2,31.8 51.9,13.8 				"/>
				<g>
					<path style="fill:#E52E31;" d="M52.7,13c0.2,0.1,0.4,0.4,0.4,0.6c0,0.2-0.2,0.3-0.4,0.2s-0.4-0.4-0.4-0.6
						C52.3,13,52.5,12.9,52.7,13z"/>
				</g>
				<g>
					<path style="fill:#7FBB48;" d="M53.8,13.7c0.2,0.1,0.4,0.4,0.4,0.6c0,0.2-0.2,0.3-0.4,0.2s-0.4-0.4-0.4-0.6
						C53.4,13.7,53.6,13.6,53.8,13.7z"/>
				</g>
				<g>
					<path style="fill:#F2902A;" d="M55,14.4c0.2,0.1,0.4,0.4,0.4,0.6c0,0.2-0.2,0.3-0.4,0.2s-0.4-0.4-0.4-0.6
						C54.6,14.3,54.8,14.2,55,14.4z"/>
				</g>
			</g>
			<g>
				
					<linearGradient id="SVGID_8_" gradientUnits="userSpaceOnUse" x1="-622.2888" y1="84.1" x2="-615.7167" y2="84.1" gradientTransform="matrix(-1 0 0 -1 -566.8593 100)">
					<stop  offset="0" style="stop-color:#E95281"/>
					<stop  offset="1" style="stop-color:#BF3D62"/>
				</linearGradient>
				<path style="fill:url(#SVGID_8_);" d="M52.4,19.1L52.4,19.1c0-0.1,0-0.2,0-0.2v-0.1v-0.1c0,0,0,0,0-0.1s0-0.2,0.1-0.3l0,0
					c0-0.1,0.1-0.2,0.1-0.3l0,0c0-0.1,0.1-0.2,0.1-0.3c0,0,0,0,0-0.1s0.1-0.1,0.1-0.2l0,0c0-0.1,0.1-0.2,0.1-0.2s0,0,0-0.1
					S53,17,53,16.9c0,0,0,0,0-0.1s0.1-0.2,0.1-0.2l0,0c0-0.1,0.1-0.1,0.1-0.2c0,0,0,0,0-0.1c0.1-0.1,0.1-0.2,0.2-0.2l0,0
					c0.1-0.1,0.1-0.2,0.2-0.2l0,0c0.1-0.1,0.2-0.2,0.2-0.3l0,0c0.1-0.1,0.1-0.1,0.2-0.2l0,0l0.1-0.1l0,0c0.1-0.1,0.1-0.1,0.2-0.2
					l0,0c0.1-0.1,0.1-0.1,0.2-0.2l0,0c0.1-0.1,0.1-0.1,0.2-0.2l0,0c0.1-0.1,0.2-0.1,0.2-0.2l0,0l0,0l0,0l-3.5-2
					c-0.1,0-0.2,0.1-0.2,0.2l0,0c-0.1,0.1-0.2,0.1-0.2,0.2l0,0c-0.1,0.1-0.2,0.1-0.2,0.2l0,0c-0.1,0.1-0.1,0.1-0.2,0.2l0,0l0,0
					l-0.1,0.1l0,0c-0.1,0.1-0.1,0.1-0.2,0.2l0,0l0,0c-0.1,0.1-0.2,0.2-0.2,0.3l0,0l0,0C50,14,50,14.1,49.9,14.1l0,0l0,0
					c-0.1,0.1-0.1,0.2-0.2,0.2l0,0l0,0c0,0.1-0.1,0.1-0.1,0.2l0,0l0,0c0,0.1-0.1,0.2-0.1,0.2l0,0l0,0c0,0.1-0.1,0.1-0.1,0.2l0,0l0,0
					c0,0.1-0.1,0.2-0.1,0.2l0,0l0,0c0,0.1-0.1,0.1-0.1,0.2l0,0l0,0c0,0.1-0.1,0.2-0.1,0.3l0,0l0,0c0,0.1-0.1,0.2-0.1,0.3l0,0l0,0
					c0,0.1-0.1,0.2-0.1,0.3l0,0l0,0v0.1v0.1v0.1c0,0,0,0,0,0.1l0,0c0,0.1,0,0.2,0,0.3c0,0,0,0,0,0.1s0,0.2,0,0.3l3.5,2
					c0-0.1,0-0.2,0-0.3c0,0,0,0,0-0.1C52.4,19.3,52.4,19.2,52.4,19.1z"/>
				
					<linearGradient id="SVGID_9_" gradientUnits="userSpaceOnUse" x1="1415.0575" y1="82.2622" x2="1421.6295" y2="82.2622" gradientTransform="matrix(1 0 0 -1 -1362.7177 100)">
					<stop  offset="5.618000e-03" style="stop-color:#FAFCFF"/>
					<stop  offset="1" style="stop-color:#E5E8F5"/>
				</linearGradient>
				<path style="fill:url(#SVGID_9_);" d="M55.9,21.1L55.9,21.1c0-0.1,0-0.2,0-0.2v-0.1v-0.1c0,0,0,0,0-0.1s0-0.2,0.1-0.3l0,0
					c0-0.1,0.1-0.2,0.1-0.3l0,0c0-0.1,0.1-0.2,0.1-0.3c0,0,0,0,0-0.1s0.1-0.1,0.1-0.2l0,0c0-0.1,0.1-0.2,0.1-0.2s0,0,0-0.1
					s0.1-0.1,0.1-0.2c0,0,0,0,0-0.1s0.1-0.2,0.1-0.2l0,0c0-0.1,0.1-0.1,0.1-0.2c0,0,0,0,0-0.1c0.1-0.1,0.1-0.2,0.2-0.2l0,0
					c0.1-0.1,0.1-0.2,0.2-0.2l0,0c0.1-0.1,0.2-0.2,0.2-0.3l0,0c0.1-0.1,0.1-0.1,0.2-0.2l0,0l0.1-0.1l0,0C58,17,58,17,58.1,16.9l0,0
					c0.1-0.1,0.1-0.1,0.2-0.2l0,0c0.1-0.1,0.1-0.1,0.2-0.2l0,0c0.1-0.1,0.2-0.1,0.2-0.2l0,0l0,0l0,0l-3.5-2c-0.1,0-0.2,0.1-0.2,0.2
					l0,0c-0.1,0.1-0.2,0.1-0.2,0.2l0,0c-0.1,0.1-0.2,0.1-0.2,0.2l0,0c-0.1,0.1-0.1,0.1-0.2,0.2l0,0l0,0l-0.1,0.1l0,0
					c-0.1,0.1-0.1,0.1-0.2,0.2l0,0l0,0c-0.1,0.1-0.2,0.2-0.2,0.3l0,0l0,0c-0.1,0.1-0.1,0.2-0.2,0.2l0,0l0,0
					c-0.1,0.1-0.1,0.2-0.2,0.2l0,0l0,0c0,0.1-0.1,0.1-0.1,0.2l0,0l0,0c0,0.1-0.1,0.2-0.1,0.2l0,0l0,0c0,0.1-0.1,0.1-0.1,0.2l0,0l0,0
					c0,0.1-0.1,0.2-0.1,0.2l0,0l0,0c0,0.1-0.1,0.1-0.1,0.2l0,0l0,0c0,0.1-0.1,0.2-0.1,0.3l0,0l0,0c0,0.1-0.1,0.2-0.1,0.3l0,0l0,0
					c0,0.1-0.1,0.2-0.1,0.3l0,0l0,0v0.1v0.1v0.1c0,0,0,0,0,0.1l0,0c0,0.1,0,0.2,0,0.3c0,0,0,0,0,0.1s0,0.2,0,0.3l3.5,2
					c0-0.1,0-0.2,0-0.3c0,0,0,0,0-0.1C55.8,21.3,55.9,21.2,55.9,21.1z"/>
				
					<linearGradient id="SVGID_10_" gradientUnits="userSpaceOnUse" x1="-629.2536" y1="80.1622" x2="-622.6815" y2="80.1622" gradientTransform="matrix(-1 0 0 -1 -566.8593 100)">
					<stop  offset="0" style="stop-color:#E95281"/>
					<stop  offset="1" style="stop-color:#BF3D62"/>
				</linearGradient>
				<path style="fill:url(#SVGID_10_);" d="M59.3,23.1C59.3,23.1,59.4,23.1,59.3,23.1c0-0.1,0-0.2,0-0.2v-0.1v-0.1c0,0,0,0,0-0.1
					s0-0.2,0.1-0.3l0,0c0-0.1,0.1-0.2,0.1-0.3l0,0c0-0.1,0.1-0.2,0.1-0.3c0,0,0,0,0-0.1s0.1-0.1,0.1-0.2l0,0c0-0.1,0.1-0.2,0.1-0.2
					s0,0,0-0.1s0.1-0.1,0.1-0.2c0,0,0,0,0-0.1s0.1-0.2,0.1-0.2l0,0c0-0.1,0.1-0.1,0.1-0.2c0,0,0,0,0-0.1c0.1-0.1,0.1-0.2,0.2-0.2
					l0,0c0.1-0.1,0.1-0.2,0.2-0.2l0,0c0.1-0.1,0.2-0.2,0.2-0.3l0,0c0.1-0.1,0.1-0.1,0.2-0.2l0,0l0.1-0.1l0,0
					c0.1-0.1,0.1-0.1,0.2-0.2l0,0c0.1-0.1,0.1-0.1,0.2-0.2l0,0c0.1-0.1,0.1-0.1,0.2-0.2l0,0c0.1-0.1,0.2-0.1,0.2-0.2l0,0l0,0l0,0
					l-3.5-2c-0.1,0-0.2,0.1-0.2,0.2l0,0c-0.1,0.1-0.2,0.1-0.2,0.2l0,0c-0.1,0.1-0.2,0.1-0.2,0.2l0,0c0.3-0.1,0.3-0.1,0.2,0l0,0l0,0
					l-0.1,0.1l0,0c-0.1,0.1-0.1,0.1-0.2,0.2l0,0l0,0c-0.1,0.1-0.2,0.2-0.2,0.3l0,0l0,0c-0.1,0.1-0.1,0.2-0.2,0.2l0,0l0,0
					c-0.1,0.1-0.1,0.2-0.2,0.2l0,0l0,0c0,0.1-0.1,0.1-0.1,0.2l0,0l0,0c0,0.1-0.1,0.2-0.1,0.2l0,0l0,0c0,0.1-0.1,0.1-0.1,0.2l0,0l0,0
					c0,0.1-0.1,0.2-0.1,0.2l0,0l0,0c0,0.1-0.1,0.1-0.1,0.2l0,0l0,0c0,0.1-0.1,0.2-0.1,0.3l0,0l0,0c0,0.1-0.1,0.2-0.1,0.3l0,0l0,0
					c0,0.1-0.1,0.2-0.1,0.3l0,0l0,0v0.1v0.1v0.1c0,0,0,0,0,0.1l0,0c0,0.1,0,0.2,0,0.3c0,0,0,0,0,0.1s0,0.2,0,0.3l3.5,2
					c0-0.1,0-0.2,0-0.3c0,0,0,0,0-0.1C59.3,23.3,59.3,23.2,59.3,23.1z"/>
				
					<linearGradient id="SVGID_11_" gradientUnits="userSpaceOnUse" x1="1422.0176" y1="78.1" x2="1428.5896" y2="78.1" gradientTransform="matrix(1 0 0 -1 -1362.7177 100)">
					<stop  offset="5.618000e-03" style="stop-color:#FAFCFF"/>
					<stop  offset="1" style="stop-color:#E5E8F5"/>
				</linearGradient>
				<path style="fill:url(#SVGID_11_);" d="M62.8,25.1L62.8,25.1c0-0.1,0-0.2,0-0.2v-0.1v-0.1c0,0,0,0,0-0.1s0-0.2,0.1-0.3l0,0
					c0-0.1,0.1-0.2,0.1-0.3l0,0c0-0.1,0.1-0.2,0.1-0.3c0,0,0,0,0-0.1s0.1-0.1,0.1-0.2l0,0c0-0.1,0.1-0.2,0.1-0.2s0,0,0-0.1
					s0.1-0.1,0.1-0.2c0,0,0,0,0-0.1s0.1-0.2,0.1-0.2l0,0c0-0.1,0.1-0.1,0.1-0.2c0,0,0,0,0-0.1c0.1-0.1,0.1-0.2,0.2-0.2l0,0
					c0.1-0.1,0.1-0.2,0.2-0.2l0,0c0.1-0.1,0.2-0.2,0.2-0.3l0,0c0.1-0.1,0.1-0.1,0.2-0.2l0,0l0.1-0.1l0,0c0.1-0.1,0.1-0.1,0.2-0.2
					l0,0c0.1-0.1,0.1-0.1,0.2-0.2l0,0c0.1-0.1,0.1-0.1,0.2-0.2l0,0c0.1-0.1,0.2-0.1,0.2-0.2l0,0l0,0l0,0l-3.5-2
					c-0.1,0-0.2,0.1-0.2,0.2l0,0c-0.1,0.1-0.2,0.1-0.2,0.2l0,0c-0.1,0.1-0.2,0.1-0.2,0.2l0,0c-0.1,0.1-0.1,0.1-0.2,0.2l0,0l0,0
					l-0.1,0.1l0,0c-0.1,0.1-0.1,0.1-0.2,0.2l0,0l0,0c-0.1,0.1-0.2,0.2-0.2,0.3l0,0l0,0c-0.1,0.1-0.1,0.2-0.2,0.2l0,0l0,0
					c-0.1,0.1-0.1,0.2-0.2,0.2l0,0l0,0c0,0.1-0.1,0.1-0.1,0.2l0,0l0,0c0,0.1-0.1,0.2-0.1,0.2l0,0l0,0c0,0.1-0.1,0.1-0.1,0.2l0,0l0,0
					c0,0.1-0.1,0.2-0.1,0.2l0,0l0,0c0,0.1-0.1,0.1-0.1,0.2l0,0l0,0c0,0.1-0.1,0.2-0.1,0.3l0,0l0,0c0,0.1-0.1,0.2-0.1,0.3l0,0l0,0
					c0,0.1-0.1,0.2-0.1,0.3l0,0l0,0v0.1v0.1v0.1c0,0,0,0,0,0.1l0,0c0,0.1,0,0.2,0,0.3c0,0,0,0,0,0.1s0,0.2,0,0.3l3.5,2
					c0-0.1,0-0.2,0-0.3c0,0,0,0,0-0.1C62.8,25.3,62.8,25.2,62.8,25.1z"/>
				
					<linearGradient id="SVGID_12_" gradientUnits="userSpaceOnUse" x1="-636.2184" y1="76.1622" x2="-629.6463" y2="76.1622" gradientTransform="matrix(-1 0 0 -1 -566.8593 100)">
					<stop  offset="0" style="stop-color:#E95281"/>
					<stop  offset="1" style="stop-color:#BF3D62"/>
				</linearGradient>
				<path style="fill:url(#SVGID_12_);" d="M66.3,27.1L66.3,27.1c0-0.1,0-0.2,0-0.2v-0.1v-0.1c0,0,0,0,0-0.1s0-0.2,0.1-0.3l0,0
					c0-0.1,0.1-0.2,0.1-0.3l0,0c0-0.1,0.1-0.2,0.1-0.3c0,0,0,0,0-0.1s0.1-0.1,0.1-0.2l0,0c0-0.1,0.1-0.2,0.1-0.2s0,0,0-0.1
					s0.1-0.1,0.1-0.2c0,0,0,0,0-0.1s0.1-0.2,0.1-0.2l0,0c0-0.1,0.1-0.1,0.1-0.2c0,0,0,0,0-0.1c0.1-0.1,0.1-0.2,0.2-0.2l0,0
					c0.1-0.1,0.1-0.2,0.2-0.2l0,0c0.1-0.1,0.2-0.2,0.2-0.3l0,0c0.1-0.1,0.1-0.1,0.2-0.2l0,0l0.1-0.1l0,0c0.1-0.1,0.1-0.1,0.2-0.2
					l0,0c0.1-0.1,0.1-0.1,0.2-0.2l0,0c0.1-0.1,0.1-0.1,0.2-0.2l0,0c0.1-0.1,0.2-0.1,0.2-0.2l0,0l0,0l0,0l-3.5-2
					c-0.1,0-0.2,0.1-0.2,0.2l0,0c-0.1,0.1-0.2,0.1-0.2,0.2l0,0c-0.1,0.1-0.2,0.1-0.2,0.2l0,0c0.3-0.1,0.2-0.1,0.2,0l0,0l0,0
					l-0.1,0.1l0,0c-0.1,0.1-0.1,0.1-0.2,0.2l0,0l0,0c-0.1,0.1-0.2,0.2-0.2,0.3l0,0l0,0c-0.1,0.1-0.1,0.2-0.2,0.2l0,0l0,0
					c-0.1,0.1-0.1,0.2-0.2,0.2l0,0l0,0c0,0.1-0.1,0.1-0.1,0.2l0,0l0,0c0,0.1-0.1,0.2-0.1,0.2l0,0l0,0c0,0.1-0.1,0.1-0.1,0.2l0,0l0,0
					c0,0.1-0.1,0.2-0.1,0.2l0,0l0,0c0,0.1-0.1,0.1-0.1,0.2l0,0l0,0c0,0.1-0.1,0.2-0.1,0.3l0,0l0,0c0,0.1-0.1,0.2-0.1,0.3l0,0l0,0
					c0,0.1-0.1,0.2-0.1,0.3l0,0l0,0v0.1v0.1v0.1c0,0,0,0,0,0.1l0,0c0,0.1,0,0.2,0,0.3c0,0,0,0,0,0.1s0,0.2,0,0.3l3.5,2
					c0-0.1,0-0.2,0-0.3c0,0,0,0,0-0.1C66.3,27.3,66.3,27.2,66.3,27.1z"/>
				
					<linearGradient id="SVGID_13_" gradientUnits="userSpaceOnUse" x1="1428.9872" y1="74.1" x2="1435.5592" y2="74.1" gradientTransform="matrix(1 0 0 -1 -1362.7177 100)">
					<stop  offset="5.618000e-03" style="stop-color:#FAFCFF"/>
					<stop  offset="1" style="stop-color:#E5E8F5"/>
				</linearGradient>
				<path style="fill:url(#SVGID_13_);" d="M69.8,29.1L69.8,29.1c0-0.1,0-0.2,0-0.2v-0.1v-0.1c0,0,0,0,0-0.1s0-0.2,0.1-0.3l0,0
					c0-0.1,0.1-0.2,0.1-0.3l0,0c0-0.1,0.1-0.2,0.1-0.3c0,0,0,0,0-0.1s0.1-0.1,0.1-0.2l0,0c0-0.1,0.1-0.2,0.1-0.2s0,0,0-0.1
					s0.1-0.1,0.1-0.2c0,0,0,0,0-0.1s0.1-0.2,0.1-0.2l0,0c0-0.1,0.1-0.1,0.1-0.2c0,0,0,0,0-0.1c0.1-0.1,0.1-0.2,0.2-0.2l0,0
					c0.1-0.1,0.1-0.2,0.2-0.2l0,0c0.1-0.1,0.2-0.2,0.2-0.3l0,0c0.1-0.1,0.1-0.1,0.2-0.2l0,0l0.1-0.1l0,0c0.1-0.1,0.1-0.1,0.2-0.2
					l0,0c0.1-0.1,0.1-0.1,0.2-0.2l0,0c0.1-0.1,0.1-0.1,0.2-0.2l0,0c0.1-0.1,0.2-0.1,0.2-0.2l0,0l0,0l0,0l-3.5-2
					c-0.1,0-0.2,0.1-0.2,0.2l0,0c-0.1,0.1-0.2,0.1-0.2,0.2l0,0c-0.1,0.1-0.2,0.1-0.2,0.2l0,0c-0.1,0.1-0.1,0.1-0.2,0.2l0,0l0,0
					l-0.1,0.1l0,0c-0.1,0.1-0.1,0.1-0.2,0.2l0,0l0,0c-0.1,0.1-0.2,0.2-0.2,0.3l0,0l0,0c-0.1,0.1-0.1,0.2-0.2,0.2l0,0l0,0
					c-0.1,0.1-0.1,0.2-0.2,0.2l0,0l0,0c0,0.1-0.1,0.1-0.1,0.2l0,0l0,0c0,0.1-0.1,0.2-0.1,0.2l0,0l0,0c0,0.1-0.1,0.1-0.1,0.2l0,0l0,0
					c0,0.1-0.1,0.2-0.1,0.2l0,0l0,0c0,0.1-0.1,0.1-0.1,0.2l0,0l0,0c0,0.1-0.1,0.2-0.1,0.3l0,0l0,0c0,0.1-0.1,0.2-0.1,0.3l0,0l0,0
					c0,0.1-0.1,0.2-0.1,0.3l0,0l0,0v0.1v0.1v0.1c0,0,0,0,0,0.1l0,0c0,0.1,0,0.2,0,0.3c0,0,0,0,0,0.1s0,0.2,0,0.3l3.5,2
					c0-0.1,0-0.2,0-0.3c0,0,0,0,0-0.1C69.8,29.3,69.8,29.2,69.8,29.1z"/>
				
					<linearGradient id="SVGID_14_" gradientUnits="userSpaceOnUse" x1="-643.1832" y1="72" x2="-636.6111" y2="72" gradientTransform="matrix(-1 0 0 -1 -566.8593 100)">
					<stop  offset="0" style="stop-color:#E95281"/>
					<stop  offset="1" style="stop-color:#BF3D62"/>
				</linearGradient>
				<path style="fill:url(#SVGID_14_);" d="M73.3,31.2C73.3,31.1,73.3,31.1,73.3,31.2c0-0.1,0-0.2,0-0.2v-0.1v-0.1c0,0,0,0,0-0.1
					s0-0.2,0.1-0.3l0,0c0-0.1,0.1-0.2,0.1-0.3l0,0c0-0.1,0.1-0.2,0.1-0.3c0,0,0,0,0-0.1s0.1-0.1,0.1-0.2l0,0c0-0.1,0.1-0.2,0.1-0.2
					s0,0,0-0.1s0.1-0.1,0.1-0.2c0,0,0,0,0-0.1s0.1-0.2,0.1-0.2l0,0c0-0.1,0.1-0.1,0.1-0.2c0,0,0,0,0-0.1c0.1-0.1,0.1-0.2,0.2-0.2
					l0,0c0.1-0.1,0.1-0.2,0.2-0.2l0,0c0.1-0.1,0.2-0.2,0.2-0.3l0,0c0.1-0.1,0.1-0.1,0.2-0.2l0,0l0.1-0.1l0,0
					c0.1-0.1,0.1-0.1,0.2-0.2l0,0c0.1-0.1,0.1-0.1,0.2-0.2l0,0c0.1-0.1,0.1-0.1,0.2-0.2l0,0c0.1-0.1,0.2-0.1,0.2-0.2l0,0l0,0l0,0
					l-3.5-2c-0.1,0-0.2,0.1-0.2,0.2l0,0c-0.1,0.1-0.2,0.1-0.2,0.2l0,0c-0.1,0.1-0.2,0.1-0.2,0.2l0,0c-0.1,0.1-0.1,0.1-0.2,0.2l0,0
					l0,0l-0.1,0.1l0,0c-0.1,0.1-0.1,0.1-0.2,0.2l0,0l0,0C71.1,25.8,71,25.9,71,26l0,0l0,0c-0.1,0.1-0.1,0.2-0.2,0.2l0,0l0,0
					c-0.1,0.1-0.1,0.2-0.2,0.2l0,0l0,0c0,0.1-0.1,0.1-0.1,0.2l0,0l0,0c0,0.1-0.1,0.2-0.1,0.2l0,0l0,0c0,0.1-0.1,0.1-0.1,0.2l0,0l0,0
					c0,0.1-0.1,0.2-0.1,0.2l0,0l0,0c0,0.1-0.1,0.1-0.1,0.2l0,0l0,0c0,0.1-0.1,0.2-0.1,0.3l0,0l0,0c0,0.1-0.1,0.2-0.1,0.3l0,0l0,0
					c0,0.1-0.1,0.2-0.1,0.3l0,0l0,0v0.1v0.1v0.1c0,0,0,0,0,0.1l0,0c0,0.1,0,0.2,0,0.3c0,0,0,0,0,0.1s0,0.2,0,0.3l3.5,2
					c0-0.1,0-0.2,0-0.3c0,0,0,0,0-0.1C73.3,31.3,73.3,31.2,73.3,31.2z"/>
				
					<linearGradient id="SVGID_15_" gradientUnits="userSpaceOnUse" x1="1435.9519" y1="70" x2="1442.524" y2="70" gradientTransform="matrix(1 0 0 -1 -1362.7177 100)">
					<stop  offset="5.618000e-03" style="stop-color:#FAFCFF"/>
					<stop  offset="1" style="stop-color:#E5E8F5"/>
				</linearGradient>
				<path style="fill:url(#SVGID_15_);" d="M76.8,33.2C76.8,33.1,76.8,33.1,76.8,33.2c0-0.1,0-0.2,0-0.2v-0.1v-0.1c0,0,0,0,0-0.1
					s0-0.2,0.1-0.3l0,0c0-0.1,0.1-0.2,0.1-0.3l0,0c0-0.1,0.1-0.2,0.1-0.3c0,0,0,0,0-0.1s0.1-0.1,0.1-0.2l0,0c0-0.1,0.1-0.2,0.1-0.2
					s0,0,0-0.1s0.1-0.1,0.1-0.2c0,0,0,0,0-0.1s0.1-0.2,0.1-0.2l0,0c0-0.1,0.1-0.1,0.1-0.2c0,0,0,0,0-0.1c0.1-0.1,0.1-0.2,0.2-0.2
					l0,0c0.1-0.1,0.1-0.2,0.2-0.2l0,0c0.1-0.1,0.2-0.2,0.2-0.3l0,0c0.1-0.1,0.1-0.1,0.2-0.2l0,0l0.1-0.1l0,0
					c0.1-0.1,0.1-0.1,0.2-0.2l0,0c0.1-0.1,0.1-0.1,0.2-0.2l0,0c0.1-0.1,0.1-0.1,0.2-0.2l0,0c0.1-0.1,0.2-0.1,0.2-0.2l0,0l0,0l0,0
					l-3.5-2c-0.1,0-0.2,0.1-0.2,0.2l0,0c-0.1,0.1-0.2,0.1-0.2,0.2l0,0c-0.1,0.1-0.2,0.1-0.2,0.2l0,0c-0.1,0.1-0.1,0.1-0.2,0.2l0,0
					l0,0l-0.1,0.1l0,0c-0.1,0.1-0.1,0.1-0.2,0.2l0,0l0,0c-0.1,0.1-0.2,0.2-0.2,0.3l0,0l0,0c-0.1,0.1-0.1,0.2-0.2,0.2l0,0l0,0
					c-0.1,0.1-0.1,0.2-0.2,0.2l0,0l0,0c0,0.1-0.1,0.1-0.1,0.2l0,0l0,0c0,0.1-0.1,0.2-0.1,0.2l0,0l0,0c0,0.1-0.1,0.1-0.1,0.2l0,0l0,0
					c0,0.1-0.1,0.2-0.1,0.2l0,0l0,0c0,0.1-0.1,0.1-0.1,0.2l0,0l0,0c0,0.1-0.1,0.2-0.1,0.3l0,0l0,0c0,0.1-0.1,0.2-0.1,0.3l0,0l0,0
					c0,0.1-0.1,0.2-0.1,0.3l0,0l0,0v0.1v0.1v0.1c0,0,0,0,0,0.1l0,0c0,0.1,0,0.2,0,0.3c0,0,0,0,0,0.1s0,0.2,0,0.3l3.5,2
					C76.8,33.3,76.8,33.2,76.8,33.2c0-0.1,0-0.1,0-0.2C76.7,33.3,76.7,33.2,76.8,33.2z"/>
				
					<linearGradient id="SVGID_16_" gradientUnits="userSpaceOnUse" x1="-650.1733" y1="66.9" x2="-647.0616" y2="66.9" gradientTransform="matrix(-1 0 0 -1 -566.8593 100)">
					<stop  offset="0" style="stop-color:#E95281"/>
					<stop  offset="1" style="stop-color:#BF3D62"/>
				</linearGradient>
				<path style="fill:url(#SVGID_16_);" d="M83.3,30.4V34l-3.1,1.8C80.2,33.8,81.6,31.4,83.3,30.4z"/>
				
					<linearGradient id="SVGID_17_" gradientUnits="userSpaceOnUse" x1="-650.148" y1="68" x2="-643.576" y2="68" gradientTransform="matrix(-1 0 0 -1 -566.8593 100)">
					<stop  offset="0" style="stop-color:#E95281"/>
					<stop  offset="1" style="stop-color:#BF3D62"/>
				</linearGradient>
				<path style="fill:url(#SVGID_17_);" d="M80.2,35.2C80.2,35.1,80.2,35.1,80.2,35.2c0-0.1,0-0.2,0-0.2v-0.1v-0.1c0,0,0,0,0-0.1
					s0-0.2,0.1-0.3l0,0c0-0.1,0.1-0.2,0.1-0.3l0,0c0-0.1,0.1-0.2,0.1-0.3c0,0,0,0,0-0.1s0.1-0.1,0.1-0.2l0,0c0-0.1,0.1-0.2,0.1-0.2
					s0,0,0-0.1s0.1-0.1,0.1-0.2c0,0,0,0,0-0.1s0.1-0.2,0.1-0.2l0,0c0-0.1,0.1-0.1,0.1-0.2c0,0,0,0,0-0.1c0.1-0.1,0.1-0.2,0.2-0.2
					l0,0c0.1-0.1,0.1-0.2,0.2-0.2l0,0c0.1-0.1,0.2-0.2,0.2-0.3l0,0c0.1-0.1,0.1-0.1,0.2-0.2l0,0l0.1-0.1l0,0
					c0.1-0.1,0.1-0.1,0.2-0.2l0,0c0.1-0.1,0.1-0.1,0.2-0.2l0,0c0.1-0.1,0.1-0.1,0.2-0.2l0,0c0.1-0.1,0.2-0.1,0.2-0.2l0,0l0,0l0,0
					l-3.5-2c-0.1,0-0.2,0.1-0.2,0.2l0,0c-0.1,0.1-0.2,0.1-0.2,0.2l0,0c-0.1,0.1-0.2,0.1-0.2,0.2l0,0c-0.1,0.1-0.1,0.1-0.2,0.2l0,0
					l0,0l-0.1,0.1l0,0c-0.1,0.1-0.1,0.1-0.2,0.2l0,0l0,0c-0.1,0.1-0.2,0.2-0.2,0.3l0,0l0,0c-0.1,0.1-0.1,0.2-0.2,0.2l0,0l0,0
					c-0.1,0.1-0.1,0.2-0.2,0.2l0,0l0,0c0,0.1-0.1,0.1-0.1,0.2l0,0l0,0c0,0.1-0.1,0.2-0.1,0.2l0,0l0,0c0,0.1-0.1,0.1-0.1,0.2l0,0l0,0
					c0,0.1-0.1,0.2-0.1,0.2l0,0l0,0c0,0.1-0.1,0.1-0.1,0.2l0,0l0,0c0,0.1-0.1,0.2-0.1,0.3l0,0l0,0c0,0.1-0.1,0.2-0.1,0.3l0,0l0,0
					c0,0.1-0.1,0.2-0.1,0.3l0,0l0,0v0.1v0.1v0.1c0,0,0,0,0,0.1l0,0c0,0.1,0,0.2,0,0.3c0,0,0,0,0,0.1s0,0.2,0,0.3l3.5,2
					C80.2,35.3,80.2,35.2,80.2,35.2c0-0.1,0-0.1,0-0.2C80.2,35.3,80.2,35.3,80.2,35.2z"/>
			</g>
		</g>
	</g>
</g>
</svg>
