<?xml version="1.0" encoding="utf-8"?>
<!-- Generator: Adobe Illustrator 23.0.1, SVG Export Plug-In . SVG Version: 6.00 Build 0)  -->
<svg version="1.1" id="Layer_1" xmlns="http://www.w3.org/2000/svg" xmlns:xlink="http://www.w3.org/1999/xlink" x="0px" y="0px"
	 viewBox="0 0 100 100" style="enable-background:new 0 0 100 100;" xml:space="preserve">
<style type="text/css">
	.st0{fill:#FFFFFF;}
	.st1{opacity:0.2;}
	.st2{fill:url(#SVGID_1_);}
	.st3{fill:url(#SVGID_2_);}
	.st4{fill:url(#SVGID_3_);}
	.st5{fill:url(#SVGID_4_);}
	.st6{fill:url(#SVGID_5_);}
	.st7{fill:url(#SVGID_6_);}
	.st8{fill:url(#SVGID_7_);}
	.st9{fill:url(#SVGID_8_);}
	.st10{fill:url(#SVGID_9_);}
	.st11{fill:url(#SVGID_10_);}
	.st12{fill:url(#SVGID_11_);}
	.st13{fill:url(#SVGID_12_);}
	.st14{fill:url(#SVGID_13_);}
	.st15{enable-background:new    ;}
	.st16{fill:url(#SVGID_14_);}
	.st17{clip-path:url(#SVGID_16_);enable-background:new    ;}
	.st18{fill:#ADADAD;}
	.st19{fill:#A7A7A7;}
	.st20{fill:#A3A3A3;}
	.st21{fill:#9F9F9F;}
	.st22{fill:#9A9A9A;}
	.st23{fill:#969596;}
	.st24{fill:url(#SVGID_17_);}
	.st25{fill:url(#SVGID_18_);}
	.st26{fill:url(#SVGID_19_);}
	.st27{fill:url(#SVGID_20_);}
	.st28{fill:#727272;}
</style>
<g>
	<path class="st0" d="M79.9,80.4c0,0.1,0,0.2,0,0.4c0,0.2,0,0.3,0,0.4s-0.1,0.2-0.1,0.2s-0.1,0-0.1-0.1s0-0.2,0-0.4
		c0-0.2,0-0.3,0-0.4S79.8,80.3,79.9,80.4L79.9,80.4z M79.8,81.1c0,0,0-0.1,0-0.2s0-0.2,0-0.2s0-0.1,0,0c0,0,0,0,0,0.1
		C79.8,80.8,79.8,80.9,79.8,81.1C79.7,81,79.7,81.1,79.8,81.1C79.7,81.2,79.8,81.2,79.8,81.1C79.8,81.2,79.8,81.2,79.8,81.1"/>
</g>
<g id="fenwick-with-worker_1_">
	<g class="st1">
		
			<linearGradient id="SVGID_1_" gradientUnits="userSpaceOnUse" x1="762.1127" y1="65.3" x2="716.7783" y2="65.3" gradientTransform="matrix(1 0 0 1 -697.9749 0)">
			<stop  offset="2.096873e-02" style="stop-color:#41A8DF;stop-opacity:0"/>
			<stop  offset="0.2566" style="stop-color:#3C91CA;stop-opacity:0.2407"/>
			<stop  offset="0.7488" style="stop-color:#2F5695;stop-opacity:0.7434"/>
			<stop  offset="1" style="stop-color:#283578"/>
		</linearGradient>
		<path class="st2" d="M20.1,59.5c-1.6,0.9-1.7,2.5,0,3.4l25.5,14.8c1.6,0.9,4.3,0.9,5.9,0l11.4-6.6c1.6-0.9,1.7-2.5,0-3.4
			L37.4,52.9c-1.6-0.9-4.3-0.9-5.9,0L20.1,59.5z"/>
	</g>
	<g>
		
			<linearGradient id="SVGID_2_" gradientUnits="userSpaceOnUse" x1="712.7249" y1="53.6323" x2="712.7249" y2="58.6925" gradientTransform="matrix(1 0 0 1 -697.9749 0)">
			<stop  offset="0" style="stop-color:#315CA7"/>
			<stop  offset="1" style="stop-color:#32BDEF"/>
		</linearGradient>
		<polygon class="st3" points="12.1,58.7 17.7,55.1 12.3,53.6 11.8,57.4 		"/>
		<g>
			<g>
				
					<linearGradient id="SVGID_3_" gradientUnits="userSpaceOnUse" x1="710.3097" y1="61.05" x2="717.4305" y2="61.05" gradientTransform="matrix(1 0 0 1 -697.9749 0)">
					<stop  offset="6.778585e-03" style="stop-color:#92D4F6"/>
					<stop  offset="0.2627" style="stop-color:#A5DBF4"/>
					<stop  offset="0.7343" style="stop-color:#C4E5F1"/>
					<stop  offset="1" style="stop-color:#CFE9F0"/>
				</linearGradient>
				<path class="st4" d="M19.5,63.1c0,2.3-1.6,3.2-3.6,2c-2-1.1-3.6-3.9-3.5-6.1c0-2.3,1.6-3.2,3.6-2C17.9,58.1,19.5,60.9,19.5,63.1
					z"/>
			</g>
			
				<linearGradient id="SVGID_4_" gradientUnits="userSpaceOnUse" x1="711.3483" y1="59.85" x2="720.3892" y2="59.85" gradientTransform="matrix(1 0 0 1 -697.9749 0)">
				<stop  offset="0.1028" style="stop-color:#8AC6ED"/>
				<stop  offset="0.1968" style="stop-color:#8FC8EE"/>
				<stop  offset="0.3075" style="stop-color:#9DD0EF"/>
				<stop  offset="0.4268" style="stop-color:#B5DBF2"/>
				<stop  offset="0.5512" style="stop-color:#D6EBF5"/>
				<stop  offset="0.5814" style="stop-color:#DFF0F6"/>
				<stop  offset="0.7033" style="stop-color:#D9EEF6"/>
				<stop  offset="0.8609" style="stop-color:#C9E7F7"/>
				<stop  offset="1" style="stop-color:#B5DEF7"/>
			</linearGradient>
			<path class="st5" d="M19.4,62.7c0-0.1,0-0.2,0-0.3v-0.1v-0.1v-0.1V62v-0.1c0-0.1-0.1-0.2-0.1-0.4c0,0,0,0,0-0.1s-0.1-0.2-0.1-0.3
				l0,0c0-0.1-0.1-0.2-0.1-0.3c0,0,0,0,0-0.1S19,60.5,19,60.5l0,0c0-0.1-0.1-0.2-0.1-0.3c0,0,0,0,0-0.1s-0.1-0.1-0.1-0.2
				c0,0,0,0,0-0.1s-0.1-0.2-0.1-0.3l0,0c0-0.1-0.1-0.2-0.1-0.2s0,0,0-0.1c-0.1-0.1-0.1-0.2-0.2-0.3l0,0c-0.1-0.1-0.1-0.2-0.2-0.3
				l0,0c-0.1-0.1-0.2-0.2-0.3-0.3l0,0c-0.1-0.1-0.1-0.1-0.2-0.2l0,0c-0.1-0.1-0.1-0.1-0.2-0.2l0,0c-0.1-0.1-0.2-0.2-0.2-0.2l0,0
				c-0.1-0.1-0.2-0.1-0.3-0.2c0,0,0,0-0.1,0c-0.1-0.1-0.2-0.1-0.3-0.2l0,0C16.1,57.1,16,57,15.9,57s-0.2-0.1-0.2-0.1s0,0-0.1,0
				s-0.1-0.1-0.2-0.1c0,0,0,0-0.1,0s-0.1,0-0.2-0.1l0,0c-0.1,0-0.1,0-0.2-0.1h-0.1c0,0,0,0-0.1,0s-0.1,0-0.2,0c-0.1,0-0.2,0-0.2,0
				l0,0c-0.1,0-0.1,0-0.2,0l0,0c-0.1,0-0.1,0-0.2,0l0,0c-0.1,0-0.1,0-0.2,0l0,0c-0.1,0-0.1,0-0.2,0.1l0,0c0,0-0.1,0-0.1,0.1l0,0
				l3-1.7l0,0l0,0c0,0,0.1,0,0.1-0.1l0,0l0,0c0.1,0,0.1,0,0.2-0.1l0,0l0,0c0.1,0,0.1,0,0.2,0l0,0l0,0c0.1,0,0.1,0,0.2,0l0,0l0,0
				c0.1,0,0.1,0,0.2,0l0,0l0,0c0.1,0,0.2,0,0.2,0l0,0c0.1,0,0.1,0,0.2,0c0,0,0,0,0.1,0h0.1l0,0c0.1,0,0.1,0,0.2,0.1l0,0
				c0.1,0,0.1,0,0.2,0.1l0,0l0,0c0.1,0,0.1,0.1,0.2,0.1c0,0,0,0,0.1,0s0.1,0.1,0.2,0.1c0.1,0.1,0.2,0.1,0.3,0.2l0,0
				c0.1,0.1,0.2,0.1,0.3,0.2c0,0,0,0,0.1,0c0.1,0.1,0.2,0.1,0.3,0.2l0,0C19.9,56,20,56,20,56.1l0,0l0,0c0.1,0.1,0.1,0.1,0.2,0.2l0,0
				c0.1,0.1,0.1,0.1,0.2,0.2l0,0l0,0c0.1,0.1,0.2,0.2,0.3,0.3l0,0l0,0c0.1,0.1,0.1,0.2,0.2,0.3l0,0l0,0c0.1,0.1,0.1,0.2,0.2,0.3l0,0
				l0,0c0,0.1,0.1,0.2,0.1,0.2l0,0l0,0c0.1,0.1,0.1,0.2,0.1,0.3l0,0l0,0c0,0.1,0.1,0.1,0.1,0.2l0,0l0,0c0,0.1,0.1,0.2,0.1,0.3l0,0
				l0,0c0,0.1,0.1,0.2,0.1,0.3l0,0l0,0c0,0.1,0.1,0.2,0.1,0.3l0,0l0,0c0,0.1,0.1,0.2,0.1,0.3l0,0l0,0c0,0.1,0.1,0.2,0.1,0.4l0,0l0,0
				v0.1v0.1V60c0,0,0,0,0,0.1l0,0c0,0.1,0,0.2,0,0.3c0,0,0,0,0,0.1s0,0.2,0,0.3c0,1.1-0.4,1.9-1,2.3l-3,1.7c0.6-0.4,1-1.2,1-2.3
				C19.5,63,19.5,62.9,19.4,62.7C19.4,62.8,19.4,62.8,19.4,62.7z"/>
			<g>
				
					<linearGradient id="SVGID_5_" gradientUnits="userSpaceOnUse" x1="712.0749" y1="61.05" x2="715.6595" y2="61.05" gradientTransform="matrix(1 0 0 1 -697.9749 0)">
					<stop  offset="0" style="stop-color:#4489C8"/>
					<stop  offset="0.2286" style="stop-color:#76AAD7"/>
					<stop  offset="0.4788" style="stop-color:#A6C9E5"/>
					<stop  offset="0.6999" style="stop-color:#C8E0EF"/>
					<stop  offset="0.8812" style="stop-color:#DDEEF6"/>
					<stop  offset="1" style="stop-color:#E5F3F8"/>
				</linearGradient>
				<path class="st6" d="M15.9,59c-1-0.6-1.8-0.1-1.8,1s0.8,2.5,1.8,3.1s1.8,0.1,1.8-1C17.7,61,16.9,59.6,15.9,59z"/>
			</g>
		</g>
		
			<linearGradient id="SVGID_6_" gradientUnits="userSpaceOnUse" x1="728.4749" y1="58.5145" x2="728.4749" y2="67.6001" gradientTransform="matrix(1 0 0 1 -697.9749 0)">
			<stop  offset="0" style="stop-color:#315CA7"/>
			<stop  offset="1" style="stop-color:#32BDEF"/>
		</linearGradient>
		<polygon class="st7" points="27.2,67.6 35,63 27.3,58.5 26,65.5 		"/>
		<g>
			
				<linearGradient id="SVGID_7_" gradientUnits="userSpaceOnUse" x1="726.6113" y1="68.1" x2="737.0925" y2="68.1" gradientTransform="matrix(1 0 0 1 -697.9749 0)">
				<stop  offset="0.1028" style="stop-color:#8AC6ED"/>
				<stop  offset="0.1968" style="stop-color:#8FC8EE"/>
				<stop  offset="0.3075" style="stop-color:#9DD0EF"/>
				<stop  offset="0.4268" style="stop-color:#B5DBF2"/>
				<stop  offset="0.5512" style="stop-color:#D6EBF5"/>
				<stop  offset="0.5814" style="stop-color:#DFF0F6"/>
				<stop  offset="0.7033" style="stop-color:#D9EEF6"/>
				<stop  offset="0.8609" style="stop-color:#C9E7F7"/>
				<stop  offset="1" style="stop-color:#B5DEF7"/>
			</linearGradient>
			<path class="st8" d="M36.1,71.3c0-0.1,0-0.3,0-0.4v-0.1c0-0.1,0-0.1,0-0.2v-0.1c0-0.1,0-0.1,0-0.2v-0.1v-0.1c0-0.1,0-0.1,0-0.2
				v-0.1v-0.1c0-0.1-0.1-0.3-0.1-0.4l0,0c0-0.1-0.1-0.2-0.1-0.4v-0.1c0-0.1-0.1-0.2-0.1-0.3l0,0c0-0.1-0.1-0.2-0.2-0.3v-0.1
				c0-0.1-0.1-0.2-0.1-0.3v-0.1c-0.1-0.1-0.1-0.2-0.2-0.3c0,0,0,0,0-0.1c-0.1-0.1-0.1-0.2-0.2-0.3c0,0,0-0.1-0.1-0.1
				c-0.1-0.1-0.1-0.2-0.2-0.3l0,0c-0.1-0.1-0.2-0.2-0.2-0.3l0,0c-0.1-0.1-0.2-0.3-0.3-0.4c0,0,0,0,0-0.1c-0.1-0.1-0.1-0.2-0.2-0.2
				l0,0c-0.1-0.1-0.1-0.2-0.2-0.2l-0.1-0.1l0,0C33,65.1,32.9,65,32.9,65s0,0-0.1,0l-0.1-0.1c0,0,0,0-0.1-0.1l-0.1-0.1
				c0,0-0.1,0-0.1-0.1l-0.1-0.1c0,0-0.1,0-0.1-0.1l-0.1-0.1c0,0,0,0-0.1,0c-0.1,0-0.1-0.1-0.2-0.1c-0.1-0.1-0.2-0.1-0.3-0.1h-0.1
				c-0.1,0-0.1-0.1-0.2-0.1c0,0,0,0-0.1,0s-0.1-0.1-0.2-0.1l0,0c-0.1,0-0.2-0.1-0.2-0.1h-0.1c0,0,0,0-0.1,0s-0.1,0-0.2,0l0,0
				c-0.1,0-0.1,0-0.2,0c0,0,0,0-0.1,0h-0.1c-0.1,0-0.2,0-0.3,0l0,0c-0.1,0-0.1,0-0.2,0c0,0,0,0-0.1,0s-0.1,0-0.2,0.1l0,0
				c-0.1,0-0.1,0-0.2,0.1c0,0,0,0-0.1,0s-0.1,0.1-0.2,0.1c0,0,0,0-0.1,0l3-1.7l0,0l0,0c0.1,0,0.1-0.1,0.2-0.1l0,0l0,0
				c0.1,0,0.1,0,0.2-0.1l0,0l0,0c0.1,0,0.1,0,0.2-0.1l0,0l0,0c0.1,0,0.1,0,0.2,0l0,0l0,0c0.1,0,0.2,0,0.3,0l0,0h0.1c0,0,0,0,0.1,0
				s0.1,0,0.2,0l0,0l0,0c0.1,0,0.1,0,0.2,0c0,0,0,0,0.1,0h0.1l0,0c0.1,0,0.2,0,0.2,0.1l0,0c0.1,0,0.1,0,0.2,0.1l0,0l0,0
				c0.1,0,0.1,0.1,0.2,0.1h0.1c0.1,0,0.2,0.1,0.3,0.1s0.1,0.1,0.2,0.1c0,0,0,0,0.1,0l0.1,0.1c0,0,0.1,0,0.1,0.1l0.1,0.1
				c0,0,0.1,0,0.1,0.1l0.1,0.1c0,0,0,0,0.1,0.1l0.1,0.1c0,0,0,0,0.1,0c0.1,0.1,0.1,0.1,0.2,0.2l0,0l0.1,0.1l0,0
				c0.1,0.1,0.2,0.2,0.2,0.2l0,0c0.1,0.1,0.1,0.2,0.2,0.2l0,0l0,0c0.1,0.1,0.2,0.3,0.3,0.4l0,0l0,0c0.1,0.1,0.2,0.2,0.2,0.3l0,0l0,0
				c0.1,0.1,0.2,0.2,0.2,0.3l0,0l0,0c0.1,0.1,0.1,0.2,0.2,0.3l0,0l0,0c0.1,0.1,0.1,0.2,0.2,0.3l0,0c0,0,0,0,0,0.1s0.1,0.2,0.1,0.3
				c0,0,0,0,0,0.1l0,0c0.1,0.1,0.1,0.2,0.2,0.3l0,0l0,0c0,0.1,0.1,0.2,0.1,0.3l0,0l0,0c0,0.1,0.1,0.2,0.1,0.4l0,0l0,0
				c0,0.1,0.1,0.3,0.1,0.4l0,0l0,0v0.1c0,0.1,0,0.1,0,0.2v0.1V68c0,0,0,0,0,0.1s0,0.1,0,0.2v0.1c0,0.1,0,0.1,0,0.2v0.1l0,0
				c0,0.1,0,0.3,0,0.4v0.1c0,0.1,0,0.3,0,0.4c0,1.4-0.5,2.4-1.3,2.8l-3,1.7c0.8-0.5,1.3-1.4,1.3-2.8C36.2,71.6,36.2,71.5,36.1,71.3
				L36.1,71.3z"/>
			<g>
				
					<linearGradient id="SVGID_8_" gradientUnits="userSpaceOnUse" x1="725.3271" y1="69.25" x2="734.1271" y2="69.25" gradientTransform="matrix(1 0 0 1 -697.9749 0)">
					<stop  offset="6.778585e-03" style="stop-color:#92D4F6"/>
					<stop  offset="0.2627" style="stop-color:#A5DBF4"/>
					<stop  offset="0.7343" style="stop-color:#C4E5F1"/>
					<stop  offset="1" style="stop-color:#CFE9F0"/>
				</linearGradient>
				<path class="st9" d="M36.2,71.8c0,2.8-2,3.9-4.4,2.5s-4.4-4.8-4.4-7.6c0-2.8,2-3.9,4.4-2.5C34.2,65.6,36.2,69,36.2,71.8z"/>
			</g>
			<g>
				
					<linearGradient id="SVGID_9_" gradientUnits="userSpaceOnUse" x1="727.5133" y1="69.25" x2="731.9474" y2="69.25" gradientTransform="matrix(1 0 0 1 -697.9749 0)">
					<stop  offset="0" style="stop-color:#4489C8"/>
					<stop  offset="0.2286" style="stop-color:#76AAD7"/>
					<stop  offset="0.4788" style="stop-color:#A6C9E5"/>
					<stop  offset="0.6999" style="stop-color:#C8E0EF"/>
					<stop  offset="0.8812" style="stop-color:#DDEEF6"/>
					<stop  offset="1" style="stop-color:#E5F3F8"/>
				</linearGradient>
				<path class="st10" d="M31.8,66.7c-1.2-0.7-2.2-0.1-2.2,1.3s1,3.1,2.2,3.8c1.2,0.7,2.2,0.1,2.2-1.3S33,67.4,31.8,66.7z"/>
			</g>
		</g>
		<g>
			
				<linearGradient id="SVGID_10_" gradientUnits="userSpaceOnUse" x1="709.5371" y1="52.5" x2="754.8715" y2="52.5" gradientTransform="matrix(1 0 0 1 -697.9749 0)">
				<stop  offset="6.778585e-03" style="stop-color:#92D4F6"/>
				<stop  offset="0.2627" style="stop-color:#A5DBF4"/>
				<stop  offset="0.7343" style="stop-color:#C4E5F1"/>
				<stop  offset="1" style="stop-color:#CFE9F0"/>
			</linearGradient>
			<path class="st11" d="M12.8,46.7c-1.6,0.9-1.7,2.5,0,3.4l25.5,14.8c1.6,0.9,4.3,0.9,5.9,0l11.4-6.6c1.6-0.9,1.7-2.5,0-3.4
				L30.1,40.1c-1.6-0.9-4.3-0.9-5.9,0L12.8,46.7z"/>
		</g>
		
			<linearGradient id="SVGID_11_" gradientUnits="userSpaceOnUse" x1="709.5749" y1="61.5125" x2="754.9749" y2="61.5125" gradientTransform="matrix(1 0 0 1 -697.9749 0)">
			<stop  offset="6.778585e-03" style="stop-color:#92D4F6"/>
			<stop  offset="0.2627" style="stop-color:#A5DBF4"/>
			<stop  offset="0.7343" style="stop-color:#C4E5F1"/>
			<stop  offset="1" style="stop-color:#CFE9F0"/>
		</linearGradient>
		<path class="st12" d="M11.6,48.5L11.6,48.5C11.6,48.6,11.6,48.6,11.6,48.5c0,0.1,0,0.1,0,0.2c0,0,0,0,0,0.1c0,0,0,0,0,0.1
			c0,0,0,0,0,0.1c0,0,0,0,0,0.1c0,0,0,0,0,0.1c0,0,0,0,0,0.1c0,0,0,0,0,0.1c0,0,0,0,0,0.1c0,0,0,0,0,0.1c0,0,0,0,0,0.1l0,0
			c0,0,0,0.1,0.1,0.1l0,0l0.1,0.1l0,0l0.1,0.1l0,0c0,0,0,0,0.1,0.1c0,0,0,0,0.1,0c0,0,0,0,0.1,0.1c0,0,0,0,0.1,0c0,0,0,0,0.1,0
			c0,0,0,0,0.1,0h0.1c0,0,0.1,0,0.1,0.1l25.5,14.8c0.1,0.1,0.2,0.1,0.3,0.1h0.1c0.1,0,0.2,0.1,0.3,0.1l0,0c0.1,0,0.2,0.1,0.3,0.1
			s0.1,0,0.2,0.1c0.1,0,0.1,0,0.2,0c0.1,0,0.2,0,0.2,0c0.1,0,0.1,0,0.2,0c0,0,0,0,0.1,0s0.2,0,0.3,0h0.1c0.1,0,0.1,0,0.2,0
			c0.1,0,0.2,0,0.3,0s0.1,0,0.2,0c0.1,0,0.2,0,0.2,0c0.1,0,0.1,0,0.2,0c0.1,0,0.1,0,0.2,0c0.1,0,0.1,0,0.2,0c0.1,0,0.1,0,0.2,0
			c0.1,0,0.1,0,0.2,0c0.1,0,0.1,0,0.2,0c0.1,0,0.1,0,0.2,0c0.1,0,0.2,0,0.3-0.1c0.1,0,0.1,0,0.2,0h0.1c0.1,0,0.2-0.1,0.3-0.1
			c0,0,0,0,0.1,0s0.1-0.1,0.2-0.1h0.1c0.1-0.1,0.2-0.1,0.3-0.2l11.4-6.6c0.8-0.5,1.2-1.1,1.2-1.7v9.1c0,0.6-0.4,1.3-1.2,1.7
			l-11.4,6.6c-0.1,0.1-0.2,0.1-0.3,0.2H44c-0.1,0-0.1,0.1-0.2,0.1l0,0c0,0,0,0-0.1,0s-0.2,0.1-0.3,0.1h-0.1c0,0,0,0-0.1,0h-0.1
			c-0.1,0-0.2,0-0.3,0.1c0,0,0,0-0.1,0h-0.1c-0.1,0-0.1,0-0.2,0h-0.1h-0.1c-0.1,0-0.1,0-0.2,0h-0.1h-0.1c-0.1,0-0.1,0-0.2,0h-0.1
			h-0.1c-0.1,0-0.2,0-0.2,0h-0.1c0,0,0,0-0.1,0s-0.2,0-0.3,0h-0.1c0,0,0,0-0.1,0h-0.1c-0.1,0-0.2,0-0.3,0c0,0,0,0-0.1,0l0,0h-0.1
			c-0.1,0-0.2,0-0.2,0c-0.1,0-0.1,0-0.2,0c-0.1,0-0.1,0-0.2-0.1l0,0c-0.1,0-0.2-0.1-0.3-0.1l0,0c-0.1,0-0.2-0.1-0.3-0.1h-0.1
			c-0.1,0-0.2-0.1-0.3-0.1l-0.9-0.5c0.1-0.3,0.1-0.7,0.1-1.1c0-3.3-2.3-7.4-5.2-9c-2.9-1.7-5.2-0.3-5.2,3c0,0.4,0,0.8,0.1,1.2l-7-4
			c0.1-0.3,0.1-0.6,0.1-0.9c0-2.6-1.8-5.8-4.1-7.1s-4.1-0.3-4.1,2.3c0,0.3,0,0.6,0.1,0.9l-0.1-0.1l0,0L12,58.8l0,0l0,0
			c0,0,0-0.1-0.1-0.1l0,0c0,0,0,0,0-0.1l0,0l0,0c0,0,0,0,0-0.1c0,0,0,0,0-0.1c0,0,0,0,0-0.1l0,0l0,0c0,0,0,0,0-0.1c0,0,0,0,0-0.1
			c0,0,0,0,0-0.1l0,0l0,0c0,0,0,0,0-0.1c0,0,0,0,0-0.1c0,0,0,0,0-0.1l0,0l0,0l0,0L11.6,48.5C11.6,48.4,11.6,48.4,11.6,48.5z"/>
		<g>
			
				<linearGradient id="SVGID_12_" gradientUnits="userSpaceOnUse" x1="730.8124" y1="41.275" x2="730.8124" y2="62.0859" gradientTransform="matrix(1 0 0 1 -697.9749 0)">
				<stop  offset="0" style="stop-color:#4489C8"/>
				<stop  offset="0.2286" style="stop-color:#76AAD7"/>
				<stop  offset="0.4788" style="stop-color:#A6C9E5"/>
				<stop  offset="0.6999" style="stop-color:#C8E0EF"/>
				<stop  offset="0.8812" style="stop-color:#DDEEF6"/>
				<stop  offset="1" style="stop-color:#E5F3F8"/>
			</linearGradient>
			<path class="st13" d="M15.2,49.1l1.3,0.7l20.6,12c0.6,0.3,1.5,0.3,2.1,0l9.9-5.7l1.3-0.7c0.6-0.3,0.6-0.9,0-1.2l-22-12.7
				c-0.6-0.3-1.5-0.3-2.1,0l-11.1,6.4C14.7,48.3,14.7,48.8,15.2,49.1z"/>
		</g>
		<g>
			
				<linearGradient id="SVGID_13_" gradientUnits="userSpaceOnUse" x1="730.7749" y1="62.0879" x2="730.7749" y2="43.9379" gradientTransform="matrix(1 0 0 1 -697.9749 0)">
				<stop  offset="0" style="stop-color:#4489C8"/>
				<stop  offset="0.2286" style="stop-color:#76AAD7"/>
				<stop  offset="0.4788" style="stop-color:#A6C9E5"/>
				<stop  offset="0.6999" style="stop-color:#C8E0EF"/>
				<stop  offset="0.8812" style="stop-color:#DDEEF6"/>
				<stop  offset="1" style="stop-color:#E5F3F8"/>
			</linearGradient>
			<path class="st14" d="M16.5,49.9l20.6,12c0.6,0.3,1.5,0.3,2.1,0l9.9-5.7l-20.6-12c-0.6-0.3-1.5-0.3-2.1,0L16.5,49.9z"/>
		</g>
	</g>
	<g id="controls_1_">
		<g class="st15">
			
				<linearGradient id="SVGID_14_" gradientUnits="userSpaceOnUse" x1="739.3262" y1="58.7125" x2="747.9182" y2="58.7125" gradientTransform="matrix(1 0 0 1 -697.9749 0)">
				<stop  offset="0" style="stop-color:#315CA7"/>
				<stop  offset="1" style="stop-color:#32BDEF"/>
			</linearGradient>
			<path class="st16" d="M48.6,56.3C48.6,56.2,48.5,56.2,48.6,56.3C48.5,56.2,48.5,56.2,48.6,56.3C48.5,56.2,48.5,56.2,48.6,56.3
				C48.5,56.2,48.5,56.2,48.6,56.3C48.5,56.2,48.5,56.2,48.6,56.3C48.5,56.2,48.5,56.2,48.6,56.3C48.5,56.2,48.5,56.2,48.6,56.3
				C48.5,56.3,48.5,56.3,48.6,56.3L48.6,56.3L48.6,56.3L48.6,56.3L48.6,56.3l-7.2,4.1l0,0l0,0l0,0c0,0,0,0,0.1,0l0,0c0,0,0,0,0.1,0
				l1.4,0.8l7.1-4.1L48.6,56.3z"/>
			<g class="st15">
				<g>
					<g>
						<defs>
							<path id="SVGID_15_" d="M44.4,33.9l-7,4.1c0,0,0,0,0.1,0L44.4,33.9C44.5,33.9,44.5,33.9,44.4,33.9z"/>
						</defs>
						<clipPath id="SVGID_16_">
							<use xlink:href="#SVGID_15_"  style="overflow:visible;"/>
						</clipPath>
						<g class="st17">
							<path class="st18" d="M37.4,38l7.1-4.1l0,0L37.4,38L37.4,38"/>
							<path class="st19" d="M37.4,38l7.1-4.1l0,0L37.4,38L37.4,38"/>
							<polyline class="st20" points="37.4,38 44.5,33.9 44.5,33.9 37.4,38 37.4,38 							"/>
							<polyline class="st21" points="37.4,38 44.5,33.9 44.5,33.9 37.4,38 37.4,38 							"/>
							<polyline class="st22" points="37.4,38 44.5,33.9 44.4,33.9 37.4,38 37.4,38 							"/>
							<polyline class="st23" points="37.4,38 44.4,33.9 44.4,33.9 37.4,38 37.4,38 							"/>
						</g>
					</g>
				</g>
			</g>
			<g>
				
					<linearGradient id="SVGID_17_" gradientUnits="userSpaceOnUse" x1="741.8382" y1="37.1123" x2="740.5914" y2="34.9526" gradientTransform="matrix(1 0 0 1 -697.9749 0)">
					<stop  offset="0" style="stop-color:#315CA7"/>
					<stop  offset="1" style="stop-color:#32BDEF"/>
				</linearGradient>
				<polygon class="st24" points="42,38.2 49.1,34.1 44.5,33.9 37.4,38 				"/>
			</g>
			<g>
				<polygon class="st0" points="42.3,37.6 47.4,34.6 44.1,34.5 39.1,37.4 				"/>
			</g>
			<g>
				
					<linearGradient id="SVGID_18_" gradientUnits="userSpaceOnUse" x1="735.2826" y1="49.85" x2="741.2826" y2="49.85" gradientTransform="matrix(1 0 0 1 -697.9749 0)">
					<stop  offset="0" style="stop-color:#315CA7"/>
					<stop  offset="1" style="stop-color:#32BDEF"/>
				</linearGradient>
				<path class="st25" d="M42,38.2L37.4,38c-0.1,0-0.1,0.1-0.1,0.2c0,0.1,0.1,0.2,0.2,0.2h0.1l4.4,0.2c0.2,0.2,0.5,0.4,0.6,0.7
					c0.2,0.3,0.3,0.6,0.3,0.9l-0.1,20.9l-1.4-0.8c-0.1-0.1-0.2,0-0.2,0.1s0.1,0.3,0.2,0.3l1.8,1l0.1-21.3
					C43.3,39.7,42.7,38.6,42,38.2z"/>
			</g>
			
				<linearGradient id="SVGID_19_" gradientUnits="userSpaceOnUse" x1="744.0249" y1="34.0897" x2="744.0249" y2="61.8209" gradientTransform="matrix(1 0 0 1 -697.9749 0)">
				<stop  offset="0" style="stop-color:#4489C8"/>
				<stop  offset="0.2286" style="stop-color:#76AAD7"/>
				<stop  offset="0.4788" style="stop-color:#A6C9E5"/>
				<stop  offset="0.6999" style="stop-color:#C8E0EF"/>
				<stop  offset="0.8812" style="stop-color:#DDEEF6"/>
				<stop  offset="1" style="stop-color:#E5F3F8"/>
			</linearGradient>
			<path class="st26" d="M43.3,40.2L43.3,40.2c0-0.1,0-0.2-0.1-0.3l0,0c0-0.1-0.1-0.2-0.1-0.3l0,0c0-0.1-0.1-0.2-0.2-0.3l0,0
				c-0.1-0.1-0.1-0.2-0.2-0.3l0,0c-0.1-0.1-0.1-0.2-0.2-0.2l0,0c-0.1-0.1-0.1-0.1-0.2-0.2c0,0-0.1,0-0.1-0.1
				c-0.1-0.1-0.2-0.1-0.3-0.2l7.1-4.1c0.1,0,0.2,0.1,0.3,0.2c0,0,0.1,0,0.1,0.1l0.1,0.1c0,0,0,0,0.1,0.1l0,0c0,0,0,0,0.1,0.1
				l0.1,0.1l0,0l0,0l0,0l0.1,0.1c0,0,0,0.1,0.1,0.1l0,0l0,0c0,0,0,0.1,0.1,0.1c0,0,0,0.1,0.1,0.1v0.1l0,0l0,0v0.1v0.1c0,0,0,0,0,0.1
				l0,0l0,0c0,0.1,0,0.1,0,0.2V36l0,0l0,0c0,0.1,0,0.2,0,0.3l-0.1,21.3L43,61.7l0.1-21.3C43.3,40.4,43.3,40.3,43.3,40.2z"/>
		</g>
	</g>
	<g id="light_12_">
		<g>
			<g class="st15">
				
					<linearGradient id="SVGID_20_" gradientUnits="userSpaceOnUse" x1="710.7207" y1="40.15" x2="711.7693" y2="40.15" gradientTransform="matrix(1 0 0 1 -697.9749 0)">
					<stop  offset="6.778585e-03" style="stop-color:#92D4F6"/>
					<stop  offset="0.2627" style="stop-color:#A5DBF4"/>
					<stop  offset="0.7343" style="stop-color:#C4E5F1"/>
					<stop  offset="1" style="stop-color:#CFE9F0"/>
				</linearGradient>
				<path class="st27" d="M12.8,32L12.8,32l0.1,0.1c0,0,0.1,0,0.2,0.1l0,0c0.1,0,0.1,0,0.2,0l0,0c0.1,0,0.1,0,0.2,0l0,0
					c0.1,0,0.1,0,0.2-0.1c0.1-0.1,0.1-0.1,0.1-0.2v16.3c0,0.1,0,0.2-0.1,0.2c0,0,0,0-0.1,0c0,0,0,0-0.1,0l0,0l0,0l0,0l0,0l0,0l0,0
					l0,0l0,0l0,0c0,0,0,0-0.1,0c0,0,0,0-0.1,0l0,0l0,0l0,0h-0.1l0,0c0,0,0,0-0.1,0l0,0l0,0l0,0l0,0l0,0l0,0l0,0l0,0V32.1
					C12.7,31.9,12.8,32,12.8,32z"/>
				<g>
					<path class="st28" d="M12.9,31.7c-0.2,0.1-0.2,0.3,0,0.4c0.2,0.1,0.5,0.1,0.7,0s0.2-0.3,0-0.4C13.4,31.6,13.1,31.6,12.9,31.7z"
						/>
				</g>
			</g>
		</g>
	</g>
</g>
</svg>
