<?xml version="1.0" encoding="utf-8"?>
<!-- Generator: Adobe Illustrator 23.0.1, SVG Export Plug-In . SVG Version: 6.00 Build 0)  -->
<svg version="1.1" id="Layer_1" xmlns="http://www.w3.org/2000/svg" xmlns:xlink="http://www.w3.org/1999/xlink" x="0px" y="0px"
	 viewBox="0 0 100 100" style="enable-background:new 0 0 100 100;" xml:space="preserve">
<style type="text/css">
	.st0{fill:url(#Body_1_);}
	.st1{fill:url(#Neck_1_);}
</style>
<linearGradient id="Body_1_" gradientUnits="userSpaceOnUse" x1="-281.0122" y1="440.6364" x2="-281.5712" y2="440.8173" gradientTransform="matrix(-41.9675 0 0 -59.4046 -11723.3008 26227.0391)">
	<stop  offset="0" style="stop-color:#E95281"/>
	<stop  offset="0.1526" style="stop-color:#D74974"/>
	<stop  offset="0.3392" style="stop-color:#C9426A"/>
	<stop  offset="0.5732" style="stop-color:#C13E64"/>
	<stop  offset="1" style="stop-color:#BF3D62"/>
</linearGradient>
<path id="Body_4_" class="st0" d="M76,48.8c-0.6,1.6-0.8,3.2-0.7,4.6c0.4,0.5,0.9,0.8,1.6,0.8c0.7,0,1.5-0.2,2.4-0.5
	c0.2-0.8,0.3-1.4,0.3-1.7c0.1,0.5,0.1,1,0,1.6c0.9-0.4,1.5-0.8,1.8-1.1c0.4-0.4,0.4-1.6,0.2-2.4c-0.2-0.8-0.5-3.9-0.1-5.2
	c0.4-1.3,0.6-3.5,0.1-4.3c-0.6-0.8-1.5-0.8-2.6-0.2c-1.1,0.6-2.1,1.1-2.6,1.2c-0.5,0.2-1.4,0.5-1.4,2.4c0,1.3,0,2,0,2.2l-2-1.2
	c-0.3-0.1-0.6,0-0.8,0.2c-0.3,0.4-0.3,0.9,0.1,1.2c0.4,0.3,2.1,1.3,2.4,1.6c0.3,0.3,0.9,0.7,1.1,0.7C75.8,48.9,75.9,48.9,76,48.8z"
	/>
<linearGradient id="Neck_1_" gradientUnits="userSpaceOnUse" x1="-356.9625" y1="382.7868" x2="-356.395" y2="383.3082" gradientTransform="matrix(-10.9081 0 0 -5.7145 -3812.7087 2229.8765)">
	<stop  offset="0" style="stop-color:#E95281"/>
	<stop  offset="1" style="stop-color:#BF3D62"/>
</linearGradient>
<path id="Neck_5_" class="st1" d="M79.3,40.4c0.2,0.1,0.3,0.3,0.3,0.4c0,0.2,0,0.5-0.4,0.7c-0.5,0.3-1.7,0.3-2,0.2
	c-0.2,0-0.2-0.2-0.1-0.4c0.1-0.2,0.1-0.3,0.2-0.5L79.3,40.4z"/>
</svg>
