<?xml version="1.0" encoding="utf-8"?>
<!-- Generator: Adobe Illustrator 23.0.1, SVG Export Plug-In . SVG Version: 6.00 Build 0)  -->
<svg version="1.1" id="Layer_1" xmlns="http://www.w3.org/2000/svg" xmlns:xlink="http://www.w3.org/1999/xlink" x="0px" y="0px"
	 viewBox="0 0 100 100" style="enable-background:new 0 0 100 100;" xml:space="preserve">
<g id="e-commerce_1_">
	<g id="base_43_">
		<polygon style="fill:#C0C3C6;" points="99.4,60.1 99.4,60.1 99.4,60.1 		"/>
		<path style="fill:#C0C3C6;" d="M0.6,60.1c0,0.6,0.4,1.1,1.1,1.5l45.5,26.5c1.4,0.8,3.8,0.8,5.3,0l45.8-26.5c0.7-0.4,1.1-1,1.1-1.5
			v0.8h0c0,0.6-0.4,1.1-1.1,1.5L52.5,88.9c-1.5,0.8-3.8,0.8-5.3,0L1.7,62.4c-0.7-0.4-1.1-1-1.1-1.5h0L0.6,60.1L0.6,60.1z"/>
		<path style="fill:#EEF1F3;" d="M98.3,61.6L52.5,88.1c-1.5,0.8-3.8,0.8-5.3,0L1.7,61.6c-0.7-0.4-1.1-1-1.1-1.5
			c0-0.6,0.4-1.1,1.1-1.5l45.8-26.5c1.5-0.8,3.8-0.8,5.3,0l45.5,26.5c0.7,0.4,1.1,1,1.1,1.5c0,0,0,0,0,0
			C99.4,60.6,99.1,61.2,98.3,61.6z"/>
	</g>
</g>
</svg>
