<?xml version="1.0" encoding="utf-8"?>
<!-- Generator: Adobe Illustrator 23.0.1, SVG Export Plug-In . SVG Version: 6.00 Build 0)  -->
<svg version="1.1" id="Layer_1" xmlns="http://www.w3.org/2000/svg" xmlns:xlink="http://www.w3.org/1999/xlink" x="0px" y="0px"
	 viewBox="0 0 100 100" style="enable-background:new 0 0 100 100;" xml:space="preserve">
<linearGradient id="dress_2_" gradientUnits="userSpaceOnUse" x1="1184.3733" y1="55" x2="1193.1664" y2="55" gradientTransform="matrix(1 0 0 -1 -1166.0406 100)">
	<stop  offset="0" style="stop-color:#E95281"/>
	<stop  offset="1" style="stop-color:#BF3D62"/>
</linearGradient>
<path id="dress_1_" style="fill:url(#dress_2_);" d="M25,58.6c0,0-3.9-0.4-4.7-1.5c-1.3-2-2.1-8.5-1.9-10.6s3.1-6.3,3-6.7
	s-1.6-3.4-2-5.3c-0.3-1.5-0.4-3,0.2-3.1c0.1,0,0.4,0,0.7,0.1l0,0c1.3,0.4,3.7,1.8,4.9,2.6c0.4,0.3,0.6,0.5,0.7,0.5
	c0.3,0.5,1,2.6,1,2.7c0,0.1-0.9,1.5-1.5,2s-1.2,1.3-0.9,1.9c0.3,0.6,2.6,3.7,2.7,6.1C27.2,49.8,26.1,55.9,25,58.6z"/>
</svg>
