<?xml version="1.0" encoding="utf-8"?>
<!-- Generator: Adobe Illustrator 23.0.1, SVG Export Plug-In . SVG Version: 6.00 Build 0)  -->
<svg version="1.1" id="Layer_1" xmlns="http://www.w3.org/2000/svg" xmlns:xlink="http://www.w3.org/1999/xlink" x="0px" y="0px"
	 viewBox="0 0 100 100" style="enable-background:new 0 0 100 100;" xml:space="preserve">
<g id="box_35_">
	<g style="opacity:0.4;">
		
			<linearGradient id="SVGID_1_" gradientUnits="userSpaceOnUse" x1="2.5439" y1="20.4881" x2="2.5439" y2="32.7643" gradientTransform="matrix(-0.7862 -1.3425 -1.1734 0.6871 59.8657 65.4664)">
			<stop  offset="0" style="stop-color:#252F62"/>
			<stop  offset="0.1575" style="stop-color:#263467;stop-opacity:0.8425"/>
			<stop  offset="0.3432" style="stop-color:#294275;stop-opacity:0.6568"/>
			<stop  offset="0.5431" style="stop-color:#2F598D;stop-opacity:0.4569"/>
			<stop  offset="0.7531" style="stop-color:#3679AE;stop-opacity:0.2469"/>
			<stop  offset="0.9689" style="stop-color:#3FA1D8;stop-opacity:3.109598e-02"/>
			<stop  offset="1" style="stop-color:#41A8DF;stop-opacity:0"/>
		</linearGradient>
		<path style="fill:url(#SVGID_1_);" d="M37.4,84.4c0.6,0.3,0.6,0.9,0.1,1.2l-7.6,4.5c-0.5,0.3-1.4,0.3-2-0.1L19.8,85
			c-0.6-0.3-0.6-0.9-0.1-1.2l7.6-15.5c0.5-0.3,1.4-0.3,2,0.1L37.4,84.4z"/>
	</g>
	<g>
		
			<linearGradient id="SVGID_2_" gradientUnits="userSpaceOnUse" x1="-139.9491" y1="63.1382" x2="-139.9491" y2="90.2887" gradientTransform="matrix(-1 0 0 1 -108.3577 0)">
			<stop  offset="0" style="stop-color:#4489C8"/>
			<stop  offset="0.3758" style="stop-color:#259FD9"/>
			<stop  offset="0.7681" style="stop-color:#0AB1E8"/>
			<stop  offset="1" style="stop-color:#00B8ED"/>
		</linearGradient>
		<path style="fill:url(#SVGID_2_);" d="M35.5,63.3c0.5-0.3,1-0.1,1,0.6l0,20.1c0,0.6-0.4,1.4-1,1.7l-7.9,4.5c-0.5,0.3-1,0.1-1-0.6
			l0-20.1c0-0.6,0.4-1.4,1-1.7L35.5,63.3z"/>
	</g>
	<polygon style="fill:#FFFFFF;" points="27.6,69 29.4,67.9 29.4,70 27.6,71 	"/>
	<polygon style="fill:#FFFFFF;" points="29.8,67.8 31.5,66.8 31.5,68.8 29.8,69.8 	"/>
	
		<linearGradient id="SVGID_3_" gradientUnits="userSpaceOnUse" x1="-134.8864" y1="90.2222" x2="-134.8864" y2="57.4543" gradientTransform="matrix(-1 0 0 1 -108.3577 0)">
		<stop  offset="6.778585e-03" style="stop-color:#92D4F6"/>
		<stop  offset="0.2627" style="stop-color:#A5DBF4"/>
		<stop  offset="0.7343" style="stop-color:#C4E5F1"/>
		<stop  offset="1" style="stop-color:#CFE9F0"/>
	</linearGradient>
	<path style="fill:url(#SVGID_3_);" d="M36.2,63.2C36.2,63.2,36.2,63.2,36.2,63.2C36.1,63.2,36.1,63.2,36.2,63.2
		C36.1,63.2,36.1,63.2,36.2,63.2c-0.1,0-0.1,0-0.1,0c0,0,0,0,0,0c0,0,0,0,0,0c0,0,0,0,0,0c0,0,0,0-0.1,0c0,0,0,0,0,0h0
		c0,0,0,0-0.1,0c0,0,0,0,0,0c0,0,0,0,0,0c0,0,0,0,0,0c0,0,0,0,0,0c0,0,0,0,0,0c0,0,0,0-0.1,0c0,0,0,0,0,0c0,0,0,0-0.1,0
		c0,0,0,0-0.1,0l-7.9,4.5c0,0-0.1,0-0.1,0c0,0,0,0-0.1,0.1c0,0,0,0,0,0c0,0,0,0,0,0c0,0,0,0-0.1,0.1c0,0,0,0,0,0c0,0,0,0-0.1,0.1
		l0,0c0,0,0,0-0.1,0.1c0,0,0,0,0,0c0,0,0,0,0,0c0,0,0,0,0,0c0,0,0,0,0,0.1c0,0,0,0,0,0c0,0,0,0,0,0.1c0,0,0,0,0,0c0,0,0,0.1-0.1,0.1
		c0,0,0,0,0,0c0,0,0,0.1,0,0.1c0,0,0,0,0,0c0,0,0,0.1,0,0.1c0,0,0,0,0,0c0,0,0,0.1,0,0.1c0,0,0,0,0,0c0,0,0,0.1,0,0.1c0,0,0,0,0,0
		c0,0,0,0,0,0.1c0,0,0,0,0,0c0,0,0,0,0,0c0,0,0,0.1,0,0.1c0,0,0,0,0,0c0,0,0,0,0,0.1c0,0,0,0.1,0,0.1v0l0,20.1c0,0,0,0.1,0,0.1
		c0,0,0,0,0,0.1c0,0,0,0,0,0.1c0,0,0,0.1,0,0.1c0,0,0,0,0,0c0,0,0,0,0,0c0,0,0.1,0.1,0.1,0.1c0,0,0,0,0,0c0,0,0,0,0,0c0,0,0,0,0.1,0
		l0,0l-9.8-5.7c-0.1,0-0.1-0.1-0.2-0.2c-0.1-0.1-0.1-0.3-0.1-0.5l0-20.1c0-0.1,0-0.1,0-0.2c0,0,0,0,0,0c0,0,0,0,0,0c0,0,0-0.1,0-0.1
		c0,0,0,0,0,0c0,0,0,0,0,0c0,0,0,0,0,0c0,0,0,0,0,0c0,0,0,0,0,0c0,0,0,0,0,0c0,0,0,0,0,0c0,0,0,0,0,0c0,0,0,0,0,0c0,0,0,0,0,0
		c0,0,0-0.1,0-0.1c0,0,0,0,0,0c0,0,0,0,0,0c0,0,0,0,0-0.1c0,0,0,0,0,0c0,0,0,0,0,0c0,0,0,0,0,0c0,0,0,0,0-0.1c0,0,0,0,0,0
		c0,0,0,0,0,0c0,0,0-0.1,0.1-0.1c0,0,0,0,0,0c0,0,0,0,0,0c0,0,0,0,0,0c0,0,0,0,0,0c0,0,0,0,0,0c0,0,0,0,0,0c0,0,0,0,0,0c0,0,0,0,0,0
		c0,0,0,0,0,0c0,0,0,0,0,0c0,0,0,0,0.1-0.1c0,0,0,0,0,0c0,0,0,0,0,0c0,0,0.1-0.1,0.1-0.1c0,0,0,0,0,0c0,0,0.1-0.1,0.2-0.1l7.9-4.5
		c0,0,0.1,0,0.1-0.1c0,0,0,0,0,0c0,0,0,0,0,0c0,0,0,0,0.1,0c0,0,0,0,0,0c0,0,0,0,0,0c0,0,0,0,0,0c0,0,0,0,0,0c0,0,0,0,0,0
		c0,0,0,0,0,0c0,0,0,0,0,0c0,0,0,0,0,0h0c0,0,0,0,0.1,0c0,0,0,0,0,0c0,0,0,0,0,0c0,0,0,0,0,0c0,0,0,0,0,0c0,0,0,0,0,0c0,0,0,0,0,0
		c0,0,0,0,0,0c0,0,0,0,0,0l3.6,2.1l1.4,0.8L36.2,63.2z"/>
	<path style="fill:#FFFFFF;" d="M24.8,64.3l0.9,0.5l0-1.8l-3.1,0l0.9,0.5l-1,0.6c-0.1,0-0.2,0.1-0.2,0.2l0,0l0,0
		c0,0-0.1,0.1-0.1,0.1l0,0c0,0,0,0-0.1,0c0,0,0,0-0.1,0c0,0-0.1,0.1-0.1,0.1c0,0,0,0,0,0c0,0-0.1,0.1-0.1,0.1l0,0
		c0,0-0.1,0.1-0.1,0.1l0,0c0,0-0.1,0.1-0.1,0.1l0,0c0,0-0.1,0.1-0.1,0.1l0,0c0,0-0.1,0.1-0.1,0.2l0,0c0,0,0,0.1-0.1,0.1l0,0.1
		c0,0,0,0.1,0,0.1c0,0,0,0.1,0,0.1c0,0,0,0.1,0,0.1c0,0,0,0.1,0,0.1c0,0,0,0,0,0.1c0,0.1,0,0.2-0.1,0.3l0,0c0,0.1,0,0.2,0,0.3
		l0,19.9l1.4,0.8l0-20.7c0,0,0-0.1,0-0.1l0,0c0,0,0-0.1,0-0.2l0,0c0,0,0-0.1,0-0.1l0,0c0,0,0,0,0,0c0,0,0,0,0-0.1l0,0c0,0,0,0,0-0.1
		l0,0c0,0,0-0.1,0.1-0.1l0,0c0,0,0-0.1,0.1-0.1l0,0c0,0,0-0.1,0.1-0.1l0,0c0,0,0,0,0.1-0.1l0,0c0,0,0,0,0-0.1l0,0c0,0,0,0,0,0
		l0.1-0.1c0,0,0,0,0,0l0,0c0,0,0.1-0.1,0.1-0.1L24.8,64.3z"/>
	<path style="fill:none;stroke:#000000;stroke-width:6.675036e-02;stroke-miterlimit:10;" d="M36.2,63.2"/>
</g>
</svg>
