<?xml version="1.0" encoding="utf-8"?>
<!-- Generator: Adobe Illustrator 23.0.1, SVG Export Plug-In . SVG Version: 6.00 Build 0)  -->
<svg version="1.1" id="Layer_1" xmlns="http://www.w3.org/2000/svg" xmlns:xlink="http://www.w3.org/1999/xlink" x="0px" y="0px"
	 viewBox="0 0 100 100" style="enable-background:new 0 0 100 100;" xml:space="preserve">
<style type="text/css">
	.st0{fill:url(#Arm_1_);}
	.st1{fill:url(#Body_1_);}
</style>
<linearGradient id="Arm_1_" gradientUnits="userSpaceOnUse" x1="353.0341" y1="-307.7524" x2="352.3612" y2="-308.1532" gradientTransform="matrix(7.1964 0 0 8.8231 -2496.9487 2726.7644)">
	<stop  offset="0" style="stop-color:#E95281"/>
	<stop  offset="1" style="stop-color:#BF3D62"/>
</linearGradient>
<path id="Arm_13_" class="st0" d="M42.3,9.6c1.4-0.2,2.3,0.7,2.7,2.7l-1.6,0.6L42.3,9.6z"/>
<linearGradient id="Body_1_" gradientUnits="userSpaceOnUse" x1="305.6462" y1="-336.4001" x2="304.8243" y2="-336.6912" gradientTransform="matrix(-28.7555 0 0 35.4599 8834.416 11942.4268)">
	<stop  offset="0" style="stop-color:#E95281"/>
	<stop  offset="1" style="stop-color:#BF3D62"/>
</linearGradient>
<path id="Body_5_" class="st1" d="M43.1,21.5c-0.3-1.9-0.1-3.2,0.5-3.8c0.9-1,1.6-2.6,0.7-4.2c-0.9-1.7-0.8-2.8-1-3.4
	s-1.4-0.7-2.8-0.7s-3.3,0.8-4.4,1.6c-1.1,0.8-2.2,1.5-2.2,5.4c0.6,0.4,1.4,0.5,2.3,0.2c0.5,0.8,0.6,1.7,0.5,2.6
	c-0.1,0.9-0.3,1.7-0.5,2.4c0.8,0.6,1.8,1,3.1,1.1C40.6,22.8,41.9,22.4,43.1,21.5z"/>
</svg>
