<?xml version="1.0" encoding="utf-8"?>
<!-- Generator: Adobe Illustrator 23.0.1, SVG Export Plug-In . SVG Version: 6.00 Build 0)  -->
<svg version="1.1" id="Layer_1" xmlns="http://www.w3.org/2000/svg" xmlns:xlink="http://www.w3.org/1999/xlink" x="0px" y="0px"
	 viewBox="0 0 100 100" style="enable-background:new 0 0 100 100;" xml:space="preserve">
<style type="text/css">
	.st0{fill:#292C68;}
	.st1{fill:#C1E4EE;}
</style>
<path id="Shoes_17_" class="st0" d="M36.7,47.5c-0.3,0.7-0.4,1.4-0.4,2.2c0,0.7,0,1.2,0,1.3h0.2l0.2-0.4c0.1,0.5,0.2,1,0.2,1.4
	c0,0.6,0.2,1.6,1.5,1.9c1.3,0.4,1.7,0.4,1.5-0.6c-0.2-1-0.3-1.7-1.3-2.4C38,50.4,37.3,49.3,36.7,47.5C36.7,47.5,36.7,47.5,36.7,47.5
	z"/>
<path id="Foot_13_" class="st1" d="M36.5,36.8c-0.4,2.1-0.5,4.2-0.2,6.3c0.4,3.2,0.3,5.4,0.5,6.5c0.3,1.1,0.4,2.8,1.5,3
	s1.1-0.6,0.6-1.5c-0.6-0.9-1-2.6-0.8-4.4c0.2-1.8,1.2-8,0.8-10.2C38.6,35,37.8,35.1,36.5,36.8z"/>
</svg>
