<?xml version="1.0" encoding="utf-8"?>
<!-- Generator: Adobe Illustrator 23.0.1, SVG Export Plug-In . SVG Version: 6.00 Build 0)  -->
<svg version="1.1" id="Layer_1" xmlns="http://www.w3.org/2000/svg" xmlns:xlink="http://www.w3.org/1999/xlink" x="0px" y="0px"
	 viewBox="0 0 100 100" style="enable-background:new 0 0 100 100;" xml:space="preserve">
<g id="tee_8_">
	<g id="base_41_">
		<g style="opacity:0.24;">
			
				<linearGradient id="SVGID_1_" gradientUnits="userSpaceOnUse" x1="1046.9103" y1="59.055" x2="1043.6431" y2="53.396" gradientTransform="matrix(1 0 0 -1 -980.212 100)">
				<stop  offset="0" style="stop-color:#6485C3;stop-opacity:0"/>
				<stop  offset="0.2111" style="stop-color:#6A8BC6;stop-opacity:0.1266"/>
				<stop  offset="0.4949" style="stop-color:#7A9CCF;stop-opacity:0.297"/>
				<stop  offset="0.8189" style="stop-color:#95B8DE;stop-opacity:0.4913"/>
				<stop  offset="1" style="stop-color:#A7CBE8;stop-opacity:0.6"/>
			</linearGradient>
			<path style="fill:url(#SVGID_1_);" d="M70.9,43.4c0.4,0.2,0.4,0.5,0,0.8l-5.2,3c-0.4,0.2-0.9,0.2-1.3,0l-5.2-3
				c-0.4-0.2-0.4-0.5,0-0.8l5.2-3c0.4-0.2,0.9-0.2,1.3,0L70.9,43.4z"/>
		</g>
		<g>
			
				<linearGradient id="SVGID_2_" gradientUnits="userSpaceOnUse" x1="1039.0459" y1="58.5" x2="1051.3459" y2="58.5" gradientTransform="matrix(1 0 0 -1 -980.212 100)">
				<stop  offset="0" style="stop-color:#74C7F0"/>
				<stop  offset="0.3181" style="stop-color:#A1D9F5"/>
				<stop  offset="1" style="stop-color:#FFFFFF"/>
			</linearGradient>
			<path style="fill:url(#SVGID_2_);" d="M70.9,41.1c0.4,0.2,0.4,0.5,0,0.8l-5.2,3c-0.4,0.2-0.9,0.2-1.3,0l-5.2-3
				c-0.4-0.2-0.4-0.5,0-0.8l5.2-3c0.4-0.2,0.9-0.2,1.3,0L70.9,41.1z"/>
		</g>
		<g>
			
				<linearGradient id="SVGID_3_" gradientUnits="userSpaceOnUse" x1="1039.5847" y1="58.5" x2="1050.8098" y2="58.5" gradientTransform="matrix(1 0 0 -1 -980.212 100)">
				<stop  offset="0" style="stop-color:#315CA7"/>
				<stop  offset="1" style="stop-color:#32BDEF"/>
			</linearGradient>
			<path style="fill:url(#SVGID_3_);" d="M65,44.6c-0.2,0-0.3,0-0.4-0.1l-5.2-3l5.2-3c0.1-0.1,0.3-0.1,0.4-0.1c0.2,0,0.3,0,0.4,0.1
				l5.2,3l-5.2,3C65.3,44.6,65.2,44.6,65,44.6z"/>
		</g>
		
			<linearGradient id="SVGID_4_" gradientUnits="userSpaceOnUse" x1="1039.0426" y1="56.6" x2="1051.3491" y2="56.6" gradientTransform="matrix(1 0 0 -1 -980.212 100)">
			<stop  offset="0" style="stop-color:#315CA7"/>
			<stop  offset="1" style="stop-color:#32BDEF"/>
		</linearGradient>
		<path style="fill:url(#SVGID_4_);" d="M71.1,41.5L71.1,41.5L71.1,41.5C71.1,41.6,71.1,41.6,71.1,41.5
			C71.1,41.6,71.1,41.6,71.1,41.5L71.1,41.5L71.1,41.5L71.1,41.5L71.1,41.5L71.1,41.5L71.1,41.5L71.1,41.5L71.1,41.5L71.1,41.5
			L71.1,41.5L71.1,41.5l-5.2,3.1h-0.1l0,0c0,0,0,0-0.1,0l0,0l0,0l0,0c0,0,0,0-0.1,0l0,0h-0.1l0,0c0,0,0,0-0.1,0l0,0c0,0,0,0-0.1,0
			l0,0l0,0l0,0l0,0l0,0l0,0l0,0c0,0,0,0-0.1,0l0,0h-0.1l0,0c0,0-0.1,0-0.1-0.1l-5.2-3c-0.2-0.1-0.3-0.2-0.3-0.4v1.1
			c0,0.1,0.1,0.3,0.3,0.4l5.2,3c0,0,0.1,0,0.1,0.1l0,0l0,0h0.1l0,0l0,0c0,0,0,0,0.1,0l0,0l0,0l0,0l0,0l0,0l0,0l0,0l0,0l0,0l0,0l0,0
			c0,0,0,0,0.1,0l0,0l0,0c0,0,0,0,0.1,0l0,0l0,0h0.1l0,0l0,0c0,0,0,0,0.1,0l0,0l0,0l0,0l0,0c0,0,0,0,0.1,0l0,0h0.1l5.2-3l0,0l0,0
			l0,0l0,0l0,0l0,0l0,0l0,0l0,0l0,0l0,0l0,0l0,0l0,0l0,0l0,0l0,0l0,0l0,0l0,0l0,0l0,0l0,0V41.5z"/>
	</g>
	<g id="tee_9_">
		
			<linearGradient id="SVGID_5_" gradientUnits="userSpaceOnUse" x1="-634.2694" y1="63.5216" x2="-632.1238" y2="67.238" gradientTransform="matrix(-1 0 0 -1 -566.8593 100)">
			<stop  offset="0" style="stop-color:#E95281"/>
			<stop  offset="1" style="stop-color:#BF3D62"/>
		</linearGradient>
		<path style="fill:url(#SVGID_5_);" d="M66.3,32.2c0.5,0.1,1,1,1.2,1.8c0.1,0.6,0.2,1.5,0.2,2.3c0,0-0.6,0.7-2.1,0
			C65.7,35.6,65.5,33.7,66.3,32.2z"/>
		<g>
			
				<linearGradient id="SVGID_6_" gradientUnits="userSpaceOnUse" x1="-633.7166" y1="59.1704" x2="-629.4342" y2="66.5876" gradientTransform="matrix(-1 0 0 -1 -566.8593 100)">
				<stop  offset="0" style="stop-color:#E95281"/>
				<stop  offset="1" style="stop-color:#BF3D62"/>
			</linearGradient>
			<path style="fill:url(#SVGID_6_);" d="M67.3,40.1c0,0-0.3,1.1-2,1.5c-0.1,0-0.3,0.1-0.4,0.1c-1.2,0.2-2.4-0.2-2.6-0.9
				c0,0,0.2-1.8-0.2-3.6c-0.1-0.6-0.2-1.2-0.2-1.7c0-0.1,0-0.2,0-0.4c0-0.6,0.2-1,0.4-1.3c0.1-0.1,0.1-0.1,0.2-0.2
				c0.1-0.1,0.3-0.2,0.5-0.4c0.1,0,0.1-0.1,0.2-0.1c0.6-0.3,1.4-0.7,2.1-0.8c0.1,0,0.1,0,0.2,0s0.1,0,0.2,0c1.2-0.2,1.5,1.4,1.5,2
				c0,0.7-0.1,2.5-0.1,3.5C67.1,38.3,67.3,40.1,67.3,40.1z"/>
		</g>
		
			<linearGradient id="SVGID_7_" gradientUnits="userSpaceOnUse" x1="-631.7885" y1="61.6743" x2="-628.7885" y2="61.6743" gradientTransform="matrix(-1 0 0 -1 -566.8593 100)">
			<stop  offset="0" style="stop-color:#E95281"/>
			<stop  offset="1" style="stop-color:#BF3D62"/>
		</linearGradient>
		<path style="fill:url(#SVGID_7_);" d="M64.9,41.6c-1.2,0.2-2.4-0.2-2.6-0.9c0,0,0.2-1.8-0.2-3.6c-0.1-0.6-0.2-1.2-0.2-1.7
			c0-0.1,0-0.2,0-0.4l1.5,0.8c0,0,0.2,3.6,0.4,4.6C64,41.1,64.2,41.5,64.9,41.6z"/>
		
			<linearGradient id="SVGID_8_" gradientUnits="userSpaceOnUse" x1="-630.098" y1="62.0068" x2="-628.0262" y2="65.5952" gradientTransform="matrix(-1 0 0 -1 -566.8593 100)">
			<stop  offset="0" style="stop-color:#E95281"/>
			<stop  offset="1" style="stop-color:#BF3D62"/>
		</linearGradient>
		<path style="fill:url(#SVGID_8_);" d="M62.3,33.8c0.2-0.1,0.8,0.1,1,0.8c0.2,0.6,0.1,2.4,0.1,3.3c0,0-1.3,0.7-2.4-0.2
			C61.2,36.8,61.3,34.7,62.3,33.8z"/>
		
			<linearGradient id="SVGID_9_" gradientUnits="userSpaceOnUse" x1="-632.2473" y1="67.2086" x2="-630.051" y2="67.2086" gradientTransform="matrix(-1 0 0 -1 -566.8593 100)">
			<stop  offset="0" style="stop-color:#E95281"/>
			<stop  offset="1" style="stop-color:#BF3D62"/>
		</linearGradient>
		<path style="fill:url(#SVGID_9_);" d="M64.8,33.3c0.5-0.2,0.6-0.7,0.5-1v-0.1l0,0c-0.7,0.2-1.5,0.5-2.1,0.8l0,0c0,0,0.1,0,0.1,0.1
			C63.6,33.3,64.3,33.5,64.8,33.3z"/>
		<path style="fill:#FFFFFF;" d="M64.9,33.5c-0.7,0.3-1.6-0.2-1.9-0.4c0.1,0,0.1-0.1,0.2-0.1l0,0c0.6-0.3,1.4-0.7,2.1-0.8l0,0l0,0
			c0.1,0,0.1,0,0.2,0C65.7,32.6,65.6,33.3,64.9,33.5z M65.4,32.3c-0.6,0.2-1.7,0.6-2,0.8c0.3,0.1,1,0.4,1.5,0.2
			C65.3,33.1,65.4,32.7,65.4,32.3z"/>
	</g>
</g>
</svg>
