<?xml version="1.0" encoding="utf-8"?>
<!-- Generator: Adobe Illustrator 23.0.1, SVG Export Plug-In . SVG Version: 6.00 Build 0)  -->
<svg version="1.1" id="Layer_1" xmlns="http://www.w3.org/2000/svg" xmlns:xlink="http://www.w3.org/1999/xlink" x="0px" y="0px"
	 viewBox="0 0 100 100" style="enable-background:new 0 0 100 100;" xml:space="preserve">
<style type="text/css">
	.st0{fill:url(#shade_1_);}
	.st1{fill:url(#left-arm_2_);}
	.st2{fill:url(#suit_1_);}
	.st3{fill:url(#SVGID_1_);}
	.st4{fill:url(#right-arm_2_);}
	.st5{fill:url(#middle-tee_2_);}
	.st6{fill:#FFFFFF;}
</style>
<linearGradient id="shade_1_" gradientUnits="userSpaceOnUse" x1="738.6056" y1="85.0025" x2="757.3441" y2="85.0025" gradientTransform="matrix(1 0 0 1 -697.9749 0)">
	<stop  offset="0" style="stop-color:#253672"/>
	<stop  offset="1" style="stop-color:#4674B8;stop-opacity:0"/>
</linearGradient>
<path id="shade_34_" class="st0" d="M56.6,81.2c3.7,2.1,3.7,5.6,0,7.7c-3.6,2.1-9.6,2.1-13.3,0c-3.7-2.1-3.7-5.6,0-7.7
	C47,79,52.9,79,56.6,81.2z"/>
<linearGradient id="left-arm_2_" gradientUnits="userSpaceOnUse" x1="753.0144" y1="73.35" x2="757.6377" y2="73.35" gradientTransform="matrix(1 0 0 -1 -697.9749 100)">
	<stop  offset="0" style="stop-color:#4674B8"/>
	<stop  offset="1" style="stop-color:#2A2760"/>
</linearGradient>
<path id="left-arm_1_" class="st1" d="M56.7,20.8c0,0,1.7,0,2.4,2.1s0.4,8,0.4,8s-1.2,1.4-3.7,1.6c0,0-0.6-6.4-0.8-8.2
	C54.9,22.6,55.4,21.3,56.7,20.8z"/>
<linearGradient id="suit_1_" gradientUnits="userSpaceOnUse" x1="740.9867" y1="47.0993" x2="756.0264" y2="47.0993" gradientTransform="matrix(1 0 0 -1 -697.9749 100)">
	<stop  offset="0" style="stop-color:#E95281"/>
	<stop  offset="1" style="stop-color:#BF3D62"/>
</linearGradient>
<path id="suit_2_" class="st2" d="M56.2,66.7C55.7,68.5,55,81.6,55,81.6c-0.6,0.8-2,0.1-2,0.1s-1.6-11.6-0.9-15.1
	c0.6-2.8-0.6-13.1-0.6-13.1s-1.9,10.9-3.4,14.2c-1.3,2.8-3,17.2-3,17.2c-1.5,0.4-2-0.5-2-0.5c0.2-3.2-0.7-13.5,0.8-17.7
	c1.1-3.1,0.3-11.2,0-14.4s0-7.4,0.6-10.1c0.6-2.7,0-8.5-0.6-11.2s-0.3-4.6,0.8-5.3c0.3-0.2,0.8-0.5,1.3-0.8c1.4-0.9,3.1-2.1,3.1-2.1
	s4.5-1.5,7.1-1.9c0.3,0,0.5-0.1,0.7-0.1c2.4-0.1,0.7,7,0.6,11.3c-0.1,4.3,0.4,8.8,0.7,12.8C58.3,48.9,56.6,64.8,56.2,66.7z"/>
<g id="right-arm_11_">
	
		<linearGradient id="SVGID_1_" gradientUnits="userSpaceOnUse" x1="741.4567" y1="57.936" x2="755.7287" y2="57.936" gradientTransform="matrix(1 0 0 -1 -697.9749 100)">
		<stop  offset="0" style="stop-color:#E2E5F4"/>
		<stop  offset="0.2383" style="stop-color:#E4E0ED"/>
		<stop  offset="0.5769" style="stop-color:#EBD1DB"/>
		<stop  offset="0.9741" style="stop-color:#F5BABC"/>
		<stop  offset="1" style="stop-color:#F6B8BA"/>
	</linearGradient>
	<path class="st3" d="M43.5,35.2c0,0,1.1,5.8,2.3,6.8c1.1,0.9,7.8,5.3,8.9,5.6c1.6,0.4,2.1,2.6,2.7,2.3c0.9-0.4,0.2-2-0.1-2.5
		c-0.2-0.4-1.3-0.6-2.2-1.2c-0.9-0.6-6.8-5.4-6.8-5.4l-2.1-6.6L43.5,35.2z"/>
	
		<linearGradient id="right-arm_2_" gradientUnits="userSpaceOnUse" x1="739.3566" y1="68.2423" x2="745.6749" y2="68.2423" gradientTransform="matrix(1 0 0 -1 -697.9749 100)">
		<stop  offset="0" style="stop-color:#4674B8"/>
		<stop  offset="1" style="stop-color:#2A2760"/>
	</linearGradient>
	<path id="right-arm_1_" class="st4" d="M44.5,25.6c-1.4,0.8-2.9,2.1-3.1,3.3s1.3,8.6,1.3,8.6s2.2,1.3,5-0.7c0,0-1.3-6.2-1.5-8.1
		C46.1,27,44.5,25.6,44.5,25.6z"/>
</g>
<linearGradient id="middle-tee_2_" gradientUnits="userSpaceOnUse" x1="743.7573" y1="72.8434" x2="754.4736" y2="72.8434" gradientTransform="matrix(1 0 0 -1 -697.9749 100)">
	<stop  offset="0" style="stop-color:#4674B8"/>
	<stop  offset="1" style="stop-color:#2A2760"/>
</linearGradient>
<path id="middle-tee_1_" class="st5" d="M56.1,30.4c-1.6,3.6-7.7,3.2-7.7,3.2s-0.4-2.3-0.6-4.5c-0.3-2.9-1.3-3.8-2-4.4
	c1.4-0.9,3.1-2.1,3.1-2.1s4.5-1.5,7.1-1.9C57.1,23,56.1,30.4,56.1,30.4z"/>
<path id="right-foot_4_" class="st6" d="M43.3,84.7c0,0-0.5,1-0.3,1.4c0.3,0.7,2.8,1.8,3.9,1.6c1-0.2,0.7-1.2-0.1-1.3
	c-0.7-0.1-1.6-1.4-1.6-1.4S44.2,84.9,43.3,84.7z"/>
<path id="left-foot_4_" class="st6" d="M53.3,81.7c0,0-0.5,1-0.3,1.4c0.3,0.7,2.8,1.8,3.9,1.6c1-0.2,0.7-1.2-0.1-1.3
	c-0.7-0.1-1.6-1.4-1.6-1.4S54.2,82,53.3,81.7z"/>
</svg>
