<?xml version="1.0" encoding="utf-8"?>
<!-- Generator: Adobe Illustrator 23.0.1, SVG Export Plug-In . SVG Version: 6.00 Build 0)  -->
<svg version="1.1" id="Layer_1" xmlns="http://www.w3.org/2000/svg" xmlns:xlink="http://www.w3.org/1999/xlink" x="0px" y="0px"
	 viewBox="0 0 100 100" style="enable-background:new 0 0 100 100;" xml:space="preserve">
<g id="tee_7_">
	<g id="base_38_">
		<g style="opacity:0.24;">
			
				<linearGradient id="SVGID_1_" gradientUnits="userSpaceOnUse" x1="361.6717" y1="67.1199" x2="357.1391" y2="74.9706" gradientTransform="matrix(-1 0 0 1 413.3527 0)">
				<stop  offset="0" style="stop-color:#6485C3;stop-opacity:0"/>
				<stop  offset="0.2111" style="stop-color:#6A8BC6;stop-opacity:0.1266"/>
				<stop  offset="0.4949" style="stop-color:#7A9CCF;stop-opacity:0.297"/>
				<stop  offset="0.8189" style="stop-color:#95B8DE;stop-opacity:0.4913"/>
				<stop  offset="1" style="stop-color:#A7CBE8;stop-opacity:0.6"/>
			</linearGradient>
			<path style="fill:url(#SVGID_1_);" d="M45.8,70.5c-0.5,0.3-0.5,0.8,0,1.1l7.2,4.2c0.5,0.3,1.3,0.3,1.8,0l7.3-4.2
				c0.5-0.3,0.5-0.8,0-1.1l-7.2-4.2c-0.5-0.3-1.3-0.3-1.8,0L45.8,70.5z"/>
		</g>
		<g>
			
				<linearGradient id="SVGID_2_" gradientUnits="userSpaceOnUse" x1="350.837" y1="67.95" x2="367.9052" y2="67.95" gradientTransform="matrix(-1 0 0 1 413.3527 0)">
				<stop  offset="0" style="stop-color:#74C7F0"/>
				<stop  offset="0.3181" style="stop-color:#A1D9F5"/>
				<stop  offset="1" style="stop-color:#FFFFFF"/>
			</linearGradient>
			<path style="fill:url(#SVGID_2_);" d="M45.8,67.4c-0.5,0.3-0.5,0.8,0,1.1l7.2,4.2c0.5,0.3,1.3,0.3,1.8,0l7.3-4.2
				c0.5-0.3,0.5-0.8,0-1.1l-7.2-4.2c-0.5-0.3-1.3-0.3-1.8,0L45.8,67.4z"/>
		</g>
		<g>
			
				<linearGradient id="SVGID_3_" gradientUnits="userSpaceOnUse" x1="360.0871" y1="63.735" x2="358.6092" y2="72.1166" gradientTransform="matrix(-1 0 0 1 413.3527 0)">
				<stop  offset="5.376340e-03" style="stop-color:#32BDEF"/>
				<stop  offset="1" style="stop-color:#315CA7"/>
			</linearGradient>
			<path style="fill:url(#SVGID_3_);" d="M54,72.2c0.2,0,0.4,0,0.6-0.1l7.2-4.2l-7.2-4.2c-0.1-0.1-0.4-0.1-0.6-0.1
				c-0.2,0-0.4,0-0.6,0.1l-7.2,4.2l7.2,4.2C53.5,72.2,53.7,72.2,54,72.2z"/>
		</g>
		
			<linearGradient id="SVGID_4_" gradientUnits="userSpaceOnUse" x1="350.8326" y1="70.8" x2="367.9052" y2="70.8" gradientTransform="matrix(-1 0 0 1 413.3527 0)">
			<stop  offset="6.778585e-03" style="stop-color:#92D4F6"/>
			<stop  offset="0.2627" style="stop-color:#A5DBF4"/>
			<stop  offset="0.7343" style="stop-color:#C4E5F1"/>
			<stop  offset="1" style="stop-color:#CFE9F0"/>
		</linearGradient>
		<path style="fill:url(#SVGID_4_);" d="M45.4,67.9C45.4,67.9,45.4,68,45.4,67.9C45.5,68,45.5,68,45.4,67.9
			C45.4,68,45.4,68,45.4,67.9L45.4,67.9L45.4,67.9L45.4,67.9L45.4,67.9L45.4,67.9L45.4,67.9c0,0.1,0,0.1,0.1,0.2l0,0l0,0l0,0l0,0
			l0,0l7.2,4.2c0,0,0.1,0,0.1,0.1l0,0h0.1l0,0c0,0,0,0,0.1,0c0,0,0,0,0.1,0c0,0,0,0,0.1,0l0,0h0.1l0,0h0.1c0,0,0,0,0.1,0
			c0,0,0,0,0.1,0c0,0,0,0,0.1,0c0,0,0,0,0.1,0c0,0,0,0,0.1,0c0,0,0,0,0.1,0c0,0,0,0,0.1,0c0,0,0,0,0.1,0c0,0,0,0,0.1,0h0.1l0,0h0.1
			l0,0c0.1,0,0.1-0.1,0.2-0.1l7.3-4.2c0.3-0.1,0.4-0.3,0.4-0.5v1.6c0,0.2-0.1,0.4-0.4,0.5l-7.3,4.2c-0.1,0-0.1,0.1-0.2,0.1l0,0l0,0
			h-0.1l0,0l0,0h-0.1l0,0l0,0c0,0,0,0-0.1,0l0,0l0,0c0,0,0,0-0.1,0l0,0l0,0c0,0,0,0-0.1,0l0,0l0,0c0,0,0,0-0.1,0l0,0l0,0h-0.1l0,0
			l0,0h-0.1l0,0l0,0c0,0,0,0-0.1,0c0,0,0,0-0.1,0c0,0,0,0-0.1,0l0,0l0,0h-0.1l0,0c0,0-0.1,0-0.1-0.1L45.8,70l0,0l0,0l0,0l0,0l0,0
			l0,0l0,0c0,0,0,0-0.1-0.1l0,0l0,0l0,0l0,0l0,0l0,0l0,0l0,0l0,0l0,0l0,0l0,0l0,0l0,0l0,0L45.4,67.9z"/>
	</g>
</g>
</svg>
