<?xml version="1.0" encoding="utf-8"?>
<!-- Generator: Adobe Illustrator 23.0.1, SVG Export Plug-In . SVG Version: 6.00 Build 0)  -->
<svg version="1.1" id="Layer_1" xmlns="http://www.w3.org/2000/svg" xmlns:xlink="http://www.w3.org/1999/xlink" x="0px" y="0px"
	 viewBox="0 0 100 100" style="enable-background:new 0 0 100 100;" xml:space="preserve">
<style type="text/css">
	.st0{fill:#D97610;}
	.st1{opacity:0.2;fill:url(#_x33__1_);enable-background:new    ;}
	.st2{opacity:0.4;fill:url(#_x32__1_);enable-background:new    ;}
	.st3{opacity:0.6;fill:url(#_x31__1_);enable-background:new    ;}
	.st4{fill:#FFFFFF;}
	.st5{fill:#63A9DA;}
</style>
<g>
	<g id="XMLID_1098_">
		<g id="XMLID_1099_">
			<g id="XMLID_1100_">
				<g id="XMLID_1101_">
					<path id="XMLID_1102_" class="st0" d="M54.4,24.5L54.4,24.5L54.4,24.5z"/>
				</g>
			</g>
		</g>
	</g>
</g>
<g id="screens_1_">
	
		<linearGradient id="_x33__1_" gradientUnits="userSpaceOnUse" x1="42.55" y1="96.0764" x2="42.55" y2="57.3465" gradientTransform="matrix(1 0 0 -1 0 100)">
		<stop  offset="5.376340e-03" style="stop-color:#76CAEB"/>
		<stop  offset="1" style="stop-color:#315CA7"/>
	</linearGradient>
	<path id="_x33__8_" class="st1" d="M52.9,4.1C53.5,3.7,54,4,54,4.8l0.1,23.8c0,0.7-0.5,1.6-1.1,2l-20.7,12
		c-0.6,0.4-1.2,0.1-1.2-0.7L31,18.1c0-0.7,0.5-1.6,1.1-2L52.9,4.1z"/>
	
		<linearGradient id="_x32__1_" gradientUnits="userSpaceOnUse" x1="45.1" y1="94.5764" x2="45.1" y2="55.8236" gradientTransform="matrix(1 0 0 -1 0 100)">
		<stop  offset="5.376340e-03" style="stop-color:#76CAEB"/>
		<stop  offset="1" style="stop-color:#315CA7"/>
	</linearGradient>
	<path id="_x32__13_" class="st2" d="M55.4,5.6c0.6-0.4,1.2-0.1,1.2,0.7l0.1,23.8c0,0.7-0.5,1.6-1.1,2L34.8,44
		c-0.6,0.4-1.2,0.1-1.2-0.7l-0.1-23.8c0-0.7,0.5-1.6,1.1-2L55.4,5.6z"/>
	
		<linearGradient id="_x31__1_" gradientUnits="userSpaceOnUse" x1="47.75" y1="93.0764" x2="47.75" y2="54.3465" gradientTransform="matrix(1 0 0 -1 0 100)">
		<stop  offset="5.376340e-03" style="stop-color:#76CAEB"/>
		<stop  offset="1" style="stop-color:#315CA7"/>
	</linearGradient>
	<path id="_x31__14_" class="st3" d="M58,7.1c0.6-0.4,1.2-0.1,1.2,0.7l0.1,23.8c0,0.7-0.5,1.6-1.1,2l-20.7,12
		c-0.6,0.4-1.2,0.1-1.2-0.7l-0.1-23.8c0-0.7,0.5-1.6,1.1-2L58,7.1z"/>
</g>
<g id="sign_11_">
	<path id="base-ead_1_" class="st4" d="M47,15.6c0.3-0.2,0.6,0,0.6,0.3v7.9c0,0.4-0.3,0.9-0.6,1l-6.9,4c-0.3,0.2-0.6,0-0.6-0.3v-7.9
		c0-0.4,0.3-0.9,0.6-1L47,15.6z"/>
	<g id="EAD_1_">
		<g>
			<polygon class="st5" points="42.1,21.1 42.1,21.9 41.6,22.2 41.6,22.8 42,22.6 42,23.4 41.6,23.6 41.6,24.3 42.1,24 42.1,24.8 
				41.2,25.3 41.2,21.6 			"/>
		</g>
		<g>
			<path class="st5" d="M43.9,20.2l0.6,3.3L44,23.8L43.9,23l-0.6,0.3l-0.1,0.9l-0.4,0.2l0.6-4L43.9,20.2z M43.5,22.5l0.3-0.2
				l-0.2-1.1L43.5,22.5"/>
		</g>
		<g>
			<path class="st5" d="M46.1,19.5c0.2,0.2,0.3,0.6,0.3,1.2s-0.1,1.1-0.3,1.5s-0.4,0.7-0.7,0.9l-0.5,0.3v-3.7l0.5-0.3
				C45.7,19.2,46,19.2,46.1,19.5z M45.8,21.8c0.1-0.2,0.1-0.5,0.1-0.9c0-0.3,0-0.6-0.1-0.7s-0.2-0.2-0.4-0.1h-0.1v2.1h0.1
				C45.6,22.2,45.7,22,45.8,21.8"/>
		</g>
	</g>
	<path id="base-taric_1_" class="st4" d="M47,26.7c0.3-0.2,0.6,0,0.6,0.3v7.9c0,0.4-0.3,0.9-0.6,1l-9.4,5.6c-0.3,0.2-0.6,0-0.6-0.3
		v-7.9c0-0.4,0.3-0.9,0.6-1L47,26.7z"/>
	<g id="textes_1_">
		<g>
			<path class="st4" d="M55.1,17.6c0.3-0.1,0.5,0,0.5,0.3s-0.2,0.6-0.5,0.8L51,21c-0.3,0.1-0.5,0-0.5-0.3s0.2-0.6,0.5-0.8L55.1,17.6
				z"/>
		</g>
		<g>
			<path class="st4" d="M58.1,13.3c0.3-0.1,0.5,0,0.5,0.3s-0.2,0.6-0.5,0.8L51,18.5c-0.3,0.1-0.5,0-0.5-0.3s0.2-0.6,0.5-0.8
				L58.1,13.3z"/>
		</g>
		<g>
			<path class="st4" d="M58.1,10.7c0.3-0.1,0.5,0,0.5,0.3s-0.2,0.6-0.5,0.8l-7.2,4.1c-0.3,0.1-0.5,0-0.5-0.3s0.2-0.6,0.5-0.8
				L58.1,10.7z"/>
		</g>
		<g>
			<path class="st4" d="M55.1,28.7c0.3-0.1,0.5,0,0.5,0.3s-0.2,0.6-0.5,0.8L51,32.2c-0.3,0.1-0.5,0-0.5-0.3s0.2-0.6,0.5-0.8
				L55.1,28.7z"/>
		</g>
		<g>
			<path class="st4" d="M58.1,24.4c0.3-0.1,0.5,0,0.5,0.3s-0.2,0.6-0.5,0.8L51,29.6c-0.3,0.1-0.5,0-0.5-0.3s0.2-0.6,0.5-0.8
				L58.1,24.4z"/>
		</g>
		<g>
			<path class="st4" d="M58.1,21.8c0.3-0.1,0.5,0,0.5,0.3s-0.2,0.6-0.5,0.8L50.9,27c-0.3,0.1-0.5,0-0.5-0.3s0.2-0.6,0.5-0.8
				L58.1,21.8z"/>
		</g>
	</g>
	<g>
		<g>
			<polygon class="st5" points="39,34 39.1,34.9 38.7,35.1 38.8,38.2 38.4,38.5 38.2,35.4 37.8,35.6 37.7,34.7 			"/>
		</g>
		<g>
			<path class="st5" d="M40.4,33.3l0.9,3.6l-0.5,0.2l-0.2-0.8L40,36.6l-0.1,1l-0.5,0.2l0.4-4.3L40.4,33.3z M40.1,35.8l0.4-0.2
				l-0.2-1.2L40.1,35.8"/>
		</g>
		<g>
			<path class="st5" d="M42.8,34.4l0.5,1.5l-0.5,0.3l-0.4-1.3L42.3,35l0.1,1.5l-0.5,0.2l-0.2-3.9l0.6-0.3c0.2-0.1,0.4-0.1,0.5,0
				c0.1,0.2,0.2,0.4,0.2,0.8c0,0.2,0,0.4,0,0.7C42.9,34.1,42.9,34.2,42.8,34.4z M42.5,33.8c0-0.1,0-0.2,0-0.3s0-0.2-0.1-0.3
				c0-0.1-0.1-0.1-0.2,0l-0.1,0.1v0.9l0.1-0.1C42.4,34,42.5,33.9,42.5,33.8"/>
		</g>
		<g>
			<polygon class="st5" points="44.1,31.4 44.3,35.3 43.9,35.5 43.6,31.6 			"/>
		</g>
		<g>
			<path class="st5" d="M45.7,30.4c0.2-0.1,0.4-0.1,0.6,0l-0.1,0.9c-0.1-0.1-0.3-0.1-0.4-0.1c-0.1,0-0.2,0.1-0.2,0.2
				c-0.1,0.1-0.1,0.2-0.2,0.3c0,0.1-0.1,0.3-0.1,0.4c0,0.1,0,0.3,0,0.4c0,0.2,0,0.4,0.1,0.5c0,0.2,0.1,0.3,0.2,0.3
				c0.1,0.1,0.2,0.1,0.3,0s0.3-0.2,0.4-0.5l0.2,0.8c-0.1,0.3-0.3,0.5-0.5,0.6s-0.4,0.1-0.5,0c-0.2-0.1-0.3-0.3-0.4-0.5
				c-0.1-0.3-0.2-0.6-0.2-1c0-0.3,0-0.6,0-0.8c0-0.3,0.1-0.5,0.2-0.8c0.1-0.2,0.2-0.4,0.3-0.6C45.4,30.6,45.6,30.5,45.7,30.4z"/>
		</g>
	</g>
</g>
</svg>
