<?xml version="1.0" encoding="utf-8"?>
<!-- Generator: Adobe Illustrator 23.0.1, SVG Export Plug-In . SVG Version: 6.00 Build 0)  -->
<svg version="1.1" id="Layer_1" xmlns="http://www.w3.org/2000/svg" xmlns:xlink="http://www.w3.org/1999/xlink" x="0px" y="0px"
	 viewBox="0 0 100 100" style="enable-background:new 0 0 100 100;" xml:space="preserve">
<style type="text/css">
	.st0{fill:url(#SVGID_1_);}
	
		.st1{opacity:0.2;fill:none;stroke:#FFFFFF;stroke-width:0.7766;stroke-linecap:round;stroke-miterlimit:10;enable-background:new    ;}
	.st2{fill:url(#SVGID_2_);}
	.st3{opacity:0.4;}
	.st4{fill:url(#SVGID_3_);}
	.st5{fill:url(#SVGID_4_);}
	.st6{fill:url(#SVGID_5_);}
	.st7{fill:url(#SVGID_6_);}
	.st8{fill:url(#SVGID_7_);}
	.st9{fill:url(#SVGID_8_);}
	.st10{fill:url(#SVGID_9_);}
	.st11{fill:url(#SVGID_10_);}
	.st12{fill:url(#SVGID_11_);}
	.st13{fill:url(#SVGID_12_);}
	.st14{fill:url(#SVGID_13_);}
	.st15{fill:none;stroke:url(#SVGID_14_);stroke-width:1.262;stroke-miterlimit:10;}
	.st16{opacity:0.5;}
	.st17{fill:#CCD8EC;}
	.st18{fill:none;stroke:url(#SVGID_15_);stroke-width:1.0358;stroke-linecap:round;stroke-linejoin:round;stroke-miterlimit:10;}
</style>
<g id="tuyau-2_3_">
	
		<linearGradient id="SVGID_1_" gradientUnits="userSpaceOnUse" x1="53.6432" y1="58.5524" x2="22.2855" y2="40.9878" gradientTransform="matrix(1 0 0 -1 0 100)">
		<stop  offset="0" style="stop-color:#315CA7"/>
		<stop  offset="1" style="stop-color:#2A7DC0"/>
	</linearGradient>
	<path class="st0" d="M19.3,58.4L18,56.2l14.4-8.3c1.3-0.8,3-0.8,4.3,0l6.1,3.6l-1.3,2.2l-6.1-3.6c-0.6-0.3-1.2-0.3-1.8,0L19.3,58.4
		z"/>
	<line class="st1" x1="36.4" y1="49.7" x2="40.5" y2="52.1"/>
	
		<linearGradient id="SVGID_2_" gradientUnits="userSpaceOnUse" x1="34.55" y1="51.3941" x2="34.55" y2="46.9907" gradientTransform="matrix(1 0 0 -1 0 100)">
		<stop  offset="5.376340e-03" style="stop-color:#76CAEB"/>
		<stop  offset="1" style="stop-color:#315CA7"/>
	</linearGradient>
	<path class="st2" d="M32,47.9c-0.1,0-0.1,0.1,0,0.2c0.2,0.1,0.7,0.5,0.9,0.8c0.3,0.5,0.4,0.9,0.4,1.4c0,0.1,0.1,0.1,0.1,0.1
		l0.3-0.1c0,0,0.7-0.5,1.7,0c1,0.4,0,0,0,0l0.4,0.2c0.1,0,0.1,0,0.1-0.1c0-0.3,0-0.9,0.4-1.4c0.3-0.4,0.6-0.6,0.8-0.8
		c0.1-0.1,0.1-0.2,0-0.3l-0.2-0.1l0,0c-0.1,0-1.1-0.5-1.9-0.5c-0.8,0-1.4,0-2.6,0.6l0,0L32,47.9z"/>
	<g>
		<g class="st3">
			
				<linearGradient id="SVGID_3_" gradientUnits="userSpaceOnUse" x1="24.9114" y1="41.8628" x2="23.0415" y2="44.8815" gradientTransform="matrix(1 0 0 -1 0 100)">
				<stop  offset="5.376340e-03" style="stop-color:#23398D"/>
				<stop  offset="0.3102" style="stop-color:#456FA8"/>
				<stop  offset="0.6252" style="stop-color:#64A0C0"/>
				<stop  offset="0.8653" style="stop-color:#78BFCF"/>
				<stop  offset="1" style="stop-color:#7FCAD5"/>
			</linearGradient>
			<path class="st4" d="M23.3,56c0.2-1.6-1.2-2.2-1.2-2.2h0.1C22.2,53.9,23.5,54.5,23.3,56L23.3,56z"/>
		</g>
		<g class="st3">
			
				<linearGradient id="SVGID_4_" gradientUnits="userSpaceOnUse" x1="23.4035" y1="40.9887" x2="21.5336" y2="44.0074" gradientTransform="matrix(1 0 0 -1 0 100)">
				<stop  offset="5.376340e-03" style="stop-color:#23398D"/>
				<stop  offset="0.3102" style="stop-color:#456FA8"/>
				<stop  offset="0.6252" style="stop-color:#64A0C0"/>
				<stop  offset="0.8653" style="stop-color:#78BFCF"/>
				<stop  offset="1" style="stop-color:#7FCAD5"/>
			</linearGradient>
			<path class="st5" d="M21.8,56.9c0.2-1.6-1.2-2.2-1.2-2.2h0.1C20.8,54.8,22,55.4,21.8,56.9L21.8,56.9z"/>
		</g>
		<g class="st3">
			
				<linearGradient id="SVGID_5_" gradientUnits="userSpaceOnUse" x1="27.9124" y1="43.5891" x2="26.0425" y2="46.6078" gradientTransform="matrix(1 0 0 -1 0 100)">
				<stop  offset="5.376340e-03" style="stop-color:#23398D"/>
				<stop  offset="0.3102" style="stop-color:#456FA8"/>
				<stop  offset="0.6252" style="stop-color:#64A0C0"/>
				<stop  offset="0.8653" style="stop-color:#78BFCF"/>
				<stop  offset="1" style="stop-color:#7FCAD5"/>
			</linearGradient>
			<path class="st6" d="M26.3,54.3c0.2-1.6-1.2-2.2-1.2-2.2h0.1C25.3,52.1,26.5,52.8,26.3,54.3L26.3,54.3z"/>
		</g>
		<g class="st3">
			
				<linearGradient id="SVGID_6_" gradientUnits="userSpaceOnUse" x1="26.5033" y1="42.7761" x2="24.6333" y2="45.7948" gradientTransform="matrix(1 0 0 -1 0 100)">
				<stop  offset="5.376340e-03" style="stop-color:#23398D"/>
				<stop  offset="0.3102" style="stop-color:#456FA8"/>
				<stop  offset="0.6252" style="stop-color:#64A0C0"/>
				<stop  offset="0.8653" style="stop-color:#78BFCF"/>
				<stop  offset="1" style="stop-color:#7FCAD5"/>
			</linearGradient>
			<path class="st7" d="M24.9,55.1c0.2-1.6-1.2-2.2-1.2-2.2h0.1C23.8,53,25.1,53.6,24.9,55.1L24.9,55.1z"/>
		</g>
		<g class="st3">
			
				<linearGradient id="SVGID_7_" gradientUnits="userSpaceOnUse" x1="31.0105" y1="45.3773" x2="29.1406" y2="48.396" gradientTransform="matrix(1 0 0 -1 0 100)">
				<stop  offset="5.376340e-03" style="stop-color:#23398D"/>
				<stop  offset="0.3102" style="stop-color:#456FA8"/>
				<stop  offset="0.6252" style="stop-color:#64A0C0"/>
				<stop  offset="0.8653" style="stop-color:#78BFCF"/>
				<stop  offset="1" style="stop-color:#7FCAD5"/>
			</linearGradient>
			<path class="st8" d="M29.4,52.5c0.2-1.6-1.2-2.2-1.2-2.2h0.1C28.4,50.4,29.6,51,29.4,52.5L29.4,52.5z"/>
		</g>
		<g class="st3">
			
				<linearGradient id="SVGID_8_" gradientUnits="userSpaceOnUse" x1="29.5129" y1="44.5095" x2="27.643" y2="47.5282" gradientTransform="matrix(1 0 0 -1 0 100)">
				<stop  offset="5.376340e-03" style="stop-color:#23398D"/>
				<stop  offset="0.3102" style="stop-color:#456FA8"/>
				<stop  offset="0.6252" style="stop-color:#64A0C0"/>
				<stop  offset="0.8653" style="stop-color:#78BFCF"/>
				<stop  offset="1" style="stop-color:#7FCAD5"/>
			</linearGradient>
			<path class="st9" d="M27.9,53.4c0.2-1.6-1.2-2.2-1.2-2.2h0.1C26.9,51.2,28.1,51.8,27.9,53.4L27.9,53.4z"/>
		</g>
		<g class="st3">
			
				<linearGradient id="SVGID_9_" gradientUnits="userSpaceOnUse" x1="34.0307" y1="47.1155" x2="32.1608" y2="50.1342" gradientTransform="matrix(1 0 0 -1 0 100)">
				<stop  offset="5.376340e-03" style="stop-color:#23398D"/>
				<stop  offset="0.3102" style="stop-color:#456FA8"/>
				<stop  offset="0.6252" style="stop-color:#64A0C0"/>
				<stop  offset="0.8653" style="stop-color:#78BFCF"/>
				<stop  offset="1" style="stop-color:#7FCAD5"/>
			</linearGradient>
			<path class="st10" d="M32.4,50.8c0.2-1.6-1.2-2.2-1.2-2.2h0.1C31.4,48.6,32.7,49.2,32.4,50.8L32.4,50.8z"/>
		</g>
		<g class="st3">
			
				<linearGradient id="SVGID_10_" gradientUnits="userSpaceOnUse" x1="32.6023" y1="46.2905" x2="30.7324" y2="49.3092" gradientTransform="matrix(1 0 0 -1 0 100)">
				<stop  offset="5.376340e-03" style="stop-color:#23398D"/>
				<stop  offset="0.3102" style="stop-color:#456FA8"/>
				<stop  offset="0.6252" style="stop-color:#64A0C0"/>
				<stop  offset="0.8653" style="stop-color:#78BFCF"/>
				<stop  offset="1" style="stop-color:#7FCAD5"/>
			</linearGradient>
			<path class="st11" d="M31,51.6c0.2-1.6-1.2-2.2-1.2-2.2h0.1C30,49.5,31.2,50.1,31,51.6L31,51.6z"/>
		</g>
	</g>
	<g>
		<g class="st3">
			
				<linearGradient id="SVGID_11_" gradientUnits="userSpaceOnUse" x1="350.6768" y1="47.167" x2="348.8069" y2="50.1857" gradientTransform="matrix(-1 0 0 -1 385.6599 100)">
				<stop  offset="5.376340e-03" style="stop-color:#23398D"/>
				<stop  offset="0.3102" style="stop-color:#456FA8"/>
				<stop  offset="0.6252" style="stop-color:#64A0C0"/>
				<stop  offset="0.8653" style="stop-color:#78BFCF"/>
				<stop  offset="1" style="stop-color:#7FCAD5"/>
			</linearGradient>
			<path class="st12" d="M36.6,50.7c-0.2-1.6,1.2-2.2,1.2-2.2h-0.1C37.6,48.6,36.4,49.2,36.6,50.7L36.6,50.7z"/>
		</g>
		<g class="st3">
			
				<linearGradient id="SVGID_12_" gradientUnits="userSpaceOnUse" x1="349.1631" y1="46.2892" x2="347.2931" y2="49.3079" gradientTransform="matrix(-1 0 0 -1 385.6599 100)">
				<stop  offset="5.376340e-03" style="stop-color:#23398D"/>
				<stop  offset="0.3102" style="stop-color:#456FA8"/>
				<stop  offset="0.6252" style="stop-color:#64A0C0"/>
				<stop  offset="0.8653" style="stop-color:#78BFCF"/>
				<stop  offset="1" style="stop-color:#7FCAD5"/>
			</linearGradient>
			<path class="st13" d="M38.1,51.6c-0.2-1.6,1.2-2.2,1.2-2.2h-0.1C39.1,49.5,37.9,50.1,38.1,51.6L38.1,51.6z"/>
		</g>
		<g class="st3">
			
				<linearGradient id="SVGID_13_" gradientUnits="userSpaceOnUse" x1="347.5824" y1="45.358" x2="345.7125" y2="48.3767" gradientTransform="matrix(-1 0 0 -1 385.6599 100)">
				<stop  offset="5.376340e-03" style="stop-color:#23398D"/>
				<stop  offset="0.3102" style="stop-color:#456FA8"/>
				<stop  offset="0.6252" style="stop-color:#64A0C0"/>
				<stop  offset="0.8653" style="stop-color:#78BFCF"/>
				<stop  offset="1" style="stop-color:#7FCAD5"/>
			</linearGradient>
			<path class="st14" d="M39.7,52.5c-0.2-1.6,1.2-2.2,1.2-2.2h-0.1C40.7,50.4,39.5,51,39.7,52.5L39.7,52.5z"/>
		</g>
	</g>
	<path class="st1" d="M20.9,55.4l12.1-7c0,0,0.6-0.3,1.4-0.3"/>
</g>
<g id="tuyau-3_3_">
	
		<linearGradient id="SVGID_14_" gradientUnits="userSpaceOnUse" x1="342.5615" y1="805.5502" x2="353.9847" y2="805.5502" gradientTransform="matrix(-1 0 0 1 405.7619 -750.3502)">
		<stop  offset="3.371547e-03" style="stop-color:#D3E6F4"/>
		<stop  offset="1" style="stop-color:#BDE2F3"/>
	</linearGradient>
	<line class="st15" x1="62.9" y1="51.7" x2="52.1" y2="58.7"/>
	<g class="st16">
		<circle class="st17" cx="57.8" cy="55.1" r="0.3"/>
		<circle class="st17" cx="58.8" cy="54.5" r="0.3"/>
		<circle class="st17" cx="59.7" cy="53.9" r="0.3"/>
		<circle class="st17" cx="60.7" cy="53.4" r="0.3"/>
	</g>
</g>
<g id="tuyau-1_3_">
	
		<linearGradient id="SVGID_15_" gradientUnits="userSpaceOnUse" x1="31.9821" y1="20.8" x2="65.5179" y2="20.8" gradientTransform="matrix(1 0 0 -1 0 100)">
		<stop  offset="3.371547e-03" style="stop-color:#D3E6F4"/>
		<stop  offset="1" style="stop-color:#BDE2F3"/>
	</linearGradient>
	<polyline class="st18" points="51.1,60.4 65,68.6 32.5,87.2 50.4,98 	"/>
	<g class="st16">
		<circle class="st17" cx="56.4" cy="63.5" r="0.3"/>
		<circle class="st17" cx="55.5" cy="62.9" r="0.3"/>
		<circle class="st17" cx="54.5" cy="62.3" r="0.3"/>
		<circle class="st17" cx="53.5" cy="61.7" r="0.3"/>
	</g>
</g>
</svg>
