<?xml version="1.0" encoding="utf-8"?>
<!-- Generator: Adobe Illustrator 23.0.1, SVG Export Plug-In . SVG Version: 6.00 Build 0)  -->
<svg version="1.1" id="Layer_1" xmlns="http://www.w3.org/2000/svg" xmlns:xlink="http://www.w3.org/1999/xlink" x="0px" y="0px"
	 viewBox="0 0 100 100" style="enable-background:new 0 0 100 100;" xml:space="preserve">
<g>
	<path style="fill:#FFFFFF;" d="M79.9,80.4c0,0.1,0,0.2,0,0.4c0,0.2,0,0.3,0,0.4s-0.1,0.2-0.1,0.2s-0.1,0-0.1-0.1s0-0.2,0-0.4
		c0-0.2,0-0.3,0-0.4S79.8,80.3,79.9,80.4L79.9,80.4z M79.8,81.1c0,0,0-0.1,0-0.2s0-0.2,0-0.2s0-0.1,0,0c0,0,0,0,0,0.1
		C79.8,80.8,79.8,80.9,79.8,81.1C79.7,81,79.7,81.1,79.8,81.1C79.7,81.2,79.8,81.2,79.8,81.1C79.8,81.2,79.8,81.2,79.8,81.1"/>
</g>
<g id="box_33_">
	<g style="opacity:0.4;">
		
			<linearGradient id="SVGID_1_" gradientUnits="userSpaceOnUse" x1="351.9289" y1="728.3738" x2="358.816" y2="682.0184" gradientTransform="matrix(0.7862 -1.3425 1.1734 0.6871 -1050.6432 65.4664)">
			<stop  offset="0" style="stop-color:#41A8DF;stop-opacity:0"/>
			<stop  offset="0" style="stop-color:#252F62"/>
			<stop  offset="0" style="stop-color:#253063;stop-opacity:0.9977"/>
			<stop  offset="0.1538" style="stop-color:#263568;stop-opacity:0.8443"/>
			<stop  offset="0.3433" style="stop-color:#2A4477;stop-opacity:0.6552"/>
			<stop  offset="0.5514" style="stop-color:#2F5C90;stop-opacity:0.4475"/>
			<stop  offset="0.7731" style="stop-color:#377EB3;stop-opacity:0.2264"/>
			<stop  offset="1" style="stop-color:#41A8DF;stop-opacity:0"/>
		</linearGradient>
		<path style="fill:url(#SVGID_1_);" d="M17.2,71.7c-2.5,1.6-2.6,3.9-0.3,5.3l33.7,19.9c2.3,1.4,6.2,1.2,8.7-0.3l36-22.5
			c2.5-1.6,2.6-3.9,0.3-5.3L61.9,48.9c-2.3-1.4-6.2-1.2-8.7,0.3L17.2,71.7z"/>
	</g>
	<g>
		
			<linearGradient id="SVGID_2_" gradientUnits="userSpaceOnUse" x1="907.1445" y1="26.7487" x2="907.1445" y2="98.5524" gradientTransform="matrix(1 0 0 1 -882.4199 0)">
			<stop  offset="6.778585e-03" style="stop-color:#92D4F6"/>
			<stop  offset="0.2627" style="stop-color:#A5DBF4"/>
			<stop  offset="0.7343" style="stop-color:#C4E5F1"/>
			<stop  offset="1" style="stop-color:#CFE9F0"/>
		</linearGradient>
		<path style="fill:url(#SVGID_2_);" d="M7.3,27.4c-2.4-1.4-4.4-0.3-4.4,2.5L2.8,70.1c0,2.8,1.9,6.2,4.4,7.6L42.2,98
			c2.4,1.4,4.4,0.3,4.4-2.5l0.1-40.3c0-2.8-1.9-6.2-4.4-7.6L7.3,27.4z"/>
	</g>
	<polygon style="fill:#FFFFFF;" points="42.3,52.7 34.4,48.1 34.4,57.3 42.3,61.9 	"/>
	<polygon style="fill:#FFFFFF;" points="32.9,47.4 24.9,42.8 24.9,52 32.9,56.6 	"/>
	
		<linearGradient id="SVGID_3_" gradientUnits="userSpaceOnUse" x1="929.6806" y1="98.2564" x2="929.6806" y2="1.4476" gradientTransform="matrix(1 0 0 1 -882.4199 0)">
		<stop  offset="0" style="stop-color:#4489C8"/>
		<stop  offset="0.3758" style="stop-color:#259FD9"/>
		<stop  offset="0.7681" style="stop-color:#0AB1E8"/>
		<stop  offset="1" style="stop-color:#00B8ED"/>
	</linearGradient>
	<path style="fill:url(#SVGID_3_);" d="M4.3,27c0,0,0.1,0,0.1-0.1c0,0,0,0,0.1,0c0.1,0,0.1,0,0.2-0.1c0,0,0,0,0.1,0c0,0,0,0,0,0
		c0,0,0,0,0.1,0c0,0,0,0,0.1,0c0.1,0,0.1,0,0.2,0c0,0,0,0,0,0h0.1c0.1,0,0.2,0,0.3,0c0,0,0.1,0,0.1,0c0.1,0,0.1,0,0.2,0c0,0,0,0,0,0
		c0.1,0,0.1,0,0.2,0c0.1,0,0.1,0,0.2,0.1c0.1,0,0.2,0.1,0.3,0.1c0,0,0.1,0,0.1,0c0.1,0,0.2,0.1,0.3,0.1c0.1,0,0.2,0.1,0.3,0.1
		l35.1,20.2c0.1,0.1,0.2,0.1,0.4,0.2c0.1,0.1,0.2,0.2,0.3,0.2c0,0,0.1,0.1,0.1,0.1c0,0,0,0,0,0c0.1,0.1,0.2,0.1,0.3,0.2c0,0,0,0,0,0
		c0.1,0.1,0.2,0.2,0.3,0.3l0.1,0.1c0.1,0.1,0.2,0.2,0.3,0.3c0,0,0,0,0,0c0.1,0.1,0.1,0.1,0.2,0.2c0.1,0.1,0.1,0.1,0.2,0.2
		c0.1,0.1,0.1,0.2,0.2,0.3c0,0.1,0.1,0.1,0.1,0.2c0.1,0.1,0.1,0.2,0.2,0.3c0,0,0.1,0.1,0.1,0.1c0.1,0.1,0.2,0.3,0.3,0.5
		c0,0,0,0,0,0.1c0.1,0.1,0.1,0.3,0.2,0.4c0,0,0,0.1,0.1,0.1c0.1,0.1,0.1,0.3,0.2,0.4c0,0,0,0,0,0.1c0.1,0.2,0.1,0.3,0.2,0.5
		c0,0,0,0.1,0,0.1c0,0.1,0.1,0.2,0.1,0.4c0,0.1,0,0.1,0.1,0.2c0,0.1,0.1,0.2,0.1,0.3c0,0.1,0,0.1,0.1,0.2c0,0,0,0.1,0,0.1
		c0,0.2,0.1,0.3,0.1,0.5c0,0.1,0,0.1,0,0.2c0,0.1,0,0.2,0,0.3c0,0.1,0,0.3,0,0.4v0l-0.1,40.3c0,0.2,0,0.3,0,0.4c0,0.1,0,0.2,0,0.3
		c0,0.1,0,0.2,0,0.3c0,0.2-0.1,0.3-0.1,0.5c0,0.1,0,0.1-0.1,0.2c0,0.1,0,0.1-0.1,0.2c-0.1,0.2-0.2,0.4-0.4,0.6
		c-0.1,0.1-0.1,0.1-0.2,0.2c0,0,0,0-0.1,0.1c-0.1,0.1-0.2,0.1-0.2,0.2l0.1,0L88.8,73c0.3-0.2,0.5-0.4,0.8-0.7
		c0.3-0.5,0.5-1.2,0.5-2.1l0.1-40.3c0-0.3,0-0.5,0-0.8c0,0,0-0.1,0-0.1c0,0,0-0.1,0-0.1c0-0.1,0-0.2-0.1-0.3c0-0.1,0-0.1,0-0.2
		c0,0,0-0.1,0-0.1c0-0.1,0-0.1-0.1-0.2c0-0.1,0-0.1,0-0.2c0,0,0-0.1,0-0.1c0-0.1,0-0.1-0.1-0.2c0,0,0-0.1,0-0.2c0-0.1,0-0.1-0.1-0.2
		c0,0,0-0.1,0-0.1c0,0,0,0,0-0.1c0-0.1-0.1-0.3-0.2-0.4c0,0,0,0,0,0c0,0,0,0,0-0.1c0-0.1-0.1-0.2-0.1-0.3c0,0,0-0.1-0.1-0.1
		c0,0,0-0.1-0.1-0.1c0,0,0-0.1-0.1-0.1c0-0.1-0.1-0.2-0.1-0.3c0,0,0,0,0-0.1c0,0,0,0,0,0c-0.1-0.1-0.1-0.2-0.2-0.4c0,0,0,0,0-0.1
		c0,0-0.1-0.1-0.1-0.1c0-0.1-0.1-0.1-0.1-0.2c0,0-0.1-0.1-0.1-0.1c0-0.1-0.1-0.1-0.1-0.2c0,0-0.1-0.1-0.1-0.1c0,0-0.1-0.1-0.1-0.1
		c-0.1-0.1-0.1-0.1-0.2-0.2c0,0,0-0.1-0.1-0.1c0,0-0.1-0.1-0.1-0.1c-0.1-0.1-0.2-0.2-0.3-0.3c0,0-0.1-0.1-0.1-0.1c0,0,0,0-0.1,0
		c-0.2-0.2-0.4-0.4-0.6-0.5c0,0-0.1-0.1-0.1-0.1c-0.2-0.2-0.5-0.3-0.7-0.5L50.8,2c-0.2-0.1-0.4-0.2-0.5-0.3c0,0,0,0-0.1,0
		c0,0-0.1,0-0.1,0c-0.1,0-0.2-0.1-0.3-0.1c0,0-0.1,0-0.1,0c0,0-0.1,0-0.1,0c-0.1,0-0.1,0-0.2,0c0,0-0.1,0-0.1,0c0,0-0.1,0-0.1,0
		c0,0-0.1,0-0.1,0c0,0,0,0-0.1,0c-0.1,0-0.1,0-0.2,0h-0.1c-0.1,0-0.2,0-0.3,0c0,0,0,0,0,0c0,0-0.1,0-0.1,0c0,0-0.1,0-0.1,0
		c0,0-0.1,0-0.1,0c0,0,0,0-0.1,0c0,0,0,0,0,0c-0.1,0-0.1,0.1-0.2,0.1c0,0,0,0,0,0l-16,9.3l-6.2,3.6L4.3,27z"/>
	<path style="fill:#FFFFFF;" d="M66.7,51.6l-3.9,2.2l7,4l7-12.1L72.9,48l0-5.3c0-0.4,0-0.8-0.1-1.3l0-0.1l0-0.2
		c0-0.2-0.1-0.4-0.1-0.6l0-0.1c0-0.1,0-0.2-0.1-0.3c0-0.1,0-0.2-0.1-0.3c0-0.2-0.1-0.4-0.1-0.5c0-0.1-0.1-0.2-0.1-0.3
		c-0.1-0.2-0.1-0.4-0.2-0.5L72,38.3c-0.1-0.3-0.2-0.5-0.3-0.7l0-0.1c-0.1-0.2-0.2-0.4-0.3-0.6l-0.1-0.2c-0.1-0.2-0.2-0.4-0.3-0.6
		l-0.1-0.1c-0.1-0.2-0.3-0.4-0.4-0.7l-0.1-0.1c-0.1-0.2-0.2-0.4-0.4-0.5l-0.2-0.2c-0.1-0.1-0.2-0.3-0.3-0.4
		c-0.1-0.1-0.2-0.2-0.3-0.3c-0.1-0.1-0.2-0.2-0.3-0.3c-0.1-0.2-0.3-0.3-0.5-0.5c-0.1-0.1-0.1-0.1-0.2-0.2c-0.3-0.3-0.7-0.6-1-0.9
		l-0.2-0.1c-0.4-0.3-0.8-0.6-1.2-0.8L31.7,11l-6.2,3.6L63,36.2c0.1,0.1,0.3,0.2,0.5,0.3l0.1,0.1c0.2,0.1,0.3,0.3,0.5,0.5l0.1,0.1
		c0.1,0.1,0.2,0.2,0.3,0.3l0.1,0.2c0,0.1,0.1,0.1,0.1,0.2c0.1,0.1,0.1,0.1,0.2,0.2l0.1,0.1c0.1,0.1,0.1,0.2,0.2,0.3l0,0.1
		c0.1,0.2,0.2,0.3,0.3,0.5l0,0.1c0.1,0.1,0.1,0.3,0.2,0.4l0.1,0.1c0.1,0.1,0.1,0.3,0.2,0.4l0,0.1c0,0.1,0.1,0.3,0.2,0.4l0,0.1
		c0,0.1,0.1,0.2,0.1,0.3l0,0.2c0,0.1,0,0.2,0.1,0.3l0.1,0.4c0,0.1,0,0.2,0,0.3l0,0.1c0,0.2,0,0.4,0,0.5L66.7,51.6z"/>
	<path style="fill:none;stroke:#000000;stroke-width:0.2971;stroke-miterlimit:10;" d="M4.1,27"/>
</g>
</svg>
