<?xml version="1.0" encoding="utf-8"?>
<!-- Generator: Adobe Illustrator 23.0.1, SVG Export Plug-In . SVG Version: 6.00 Build 0)  -->
<svg version="1.1" id="Layer_1" xmlns="http://www.w3.org/2000/svg" xmlns:xlink="http://www.w3.org/1999/xlink" x="0px" y="0px"
	 viewBox="0 0 100 100" style="enable-background:new 0 0 100 100;" xml:space="preserve">
<style type="text/css">
	.st0{fill:#C1E4EE;}
</style>
<path id="Face_8_" class="st0" d="M43.8,5.3c0.2,1.1-0.1,2-0.3,2.8s-0.4,1.9-2.2,1.8c0,0.2,0.1,0.5,0.3,1c0.3,0.7,1,1.4,0.9,3.2
	c-1.6-0.8-2.6-1.4-3-1.9c-0.5-0.8-1.4-1.1-1.1-2.6s0.3-1.6,0.1-2.5c-0.2-0.8-0.4-1.6,0.3-1.8c0.8-0.2,1.1-0.4,1.6-1
	C41,3.8,43.6,4.2,43.8,5.3z"/>
</svg>
