<?xml version="1.0" encoding="utf-8"?>
<!-- Generator: Adobe Illustrator 23.0.1, SVG Export Plug-In . SVG Version: 6.00 Build 0)  -->
<svg version="1.1" id="Layer_1" xmlns="http://www.w3.org/2000/svg" xmlns:xlink="http://www.w3.org/1999/xlink" x="0px" y="0px"
	 viewBox="0 0 100 100" style="enable-background:new 0 0 100 100;" xml:space="preserve">
<g>
	<path style="fill:#FFFFFF;" d="M79.9,80.4c0,0.1,0,0.2,0,0.4c0,0.2,0,0.3,0,0.4s-0.1,0.2-0.1,0.2s-0.1,0-0.1-0.1s0-0.2,0-0.4
		c0-0.2,0-0.3,0-0.4S79.8,80.3,79.9,80.4L79.9,80.4z M79.8,81.1c0,0,0-0.1,0-0.2s0-0.2,0-0.2s0-0.1,0,0c0,0,0,0,0,0.1
		C79.8,80.8,79.8,80.9,79.8,81.1C79.7,81,79.7,81.1,79.8,81.1C79.7,81.2,79.8,81.2,79.8,81.1C79.8,81.2,79.8,81.2,79.8,81.1"/>
</g>
<linearGradient id="SVGID_1_" gradientUnits="userSpaceOnUse" x1="89" y1="44.3" x2="36.7" y2="44.3" gradientTransform="matrix(1 0 0 -1 0 100)">
	<stop  offset="4.607372e-04" style="stop-color:#385D6D"/>
	<stop  offset="1" style="stop-color:#4180AB"/>
</linearGradient>
<polygon style="opacity:0.3;fill:url(#SVGID_1_);enable-background:new    ;" points="36.9,69.9 55.3,67.6 89,46.7 69.1,44.3 
	67.1,41.5 36.7,66.3 "/>
<g id="usine_1_">
	<g id="usine_4_">
		<g id="house-3_1_">
			<g>
				<g style="enable-background:new    ;">
					<g>
						<polygon style="fill:#B5BDD4;" points="37.6,29.6 63.9,44.8 77.2,43.1 50.8,27.9 						"/>
					</g>
					<g>
						
							<linearGradient id="SVGID_2_" gradientUnits="userSpaceOnUse" x1="70.5" y1="41.1427" x2="70.5" y2="56.9094" gradientTransform="matrix(1 0 0 -1 0 100)">
							<stop  offset="0" style="stop-color:#4489C8"/>
							<stop  offset="0.3758" style="stop-color:#259FD9"/>
							<stop  offset="0.7681" style="stop-color:#0AB1E8"/>
							<stop  offset="1" style="stop-color:#00B8ED"/>
						</linearGradient>
						<polygon style="fill:url(#SVGID_2_);" points="63.8,58.9 77.1,51.2 77.2,43.1 63.9,44.8 						"/>
					</g>
					<g>
						
							<linearGradient id="SVGID_3_" gradientUnits="userSpaceOnUse" x1="37.5" y1="55.75" x2="63.9" y2="55.75" gradientTransform="matrix(1 0 0 -1 0 100)">
							<stop  offset="0.1028" style="stop-color:#8AC6ED"/>
							<stop  offset="0.1968" style="stop-color:#8FC8EE"/>
							<stop  offset="0.3075" style="stop-color:#9DD0EF"/>
							<stop  offset="0.4268" style="stop-color:#B5DBF2"/>
							<stop  offset="0.5512" style="stop-color:#D6EBF5"/>
							<stop  offset="0.5814" style="stop-color:#DFF0F6"/>
							<stop  offset="0.7033" style="stop-color:#D9EEF6"/>
							<stop  offset="0.8609" style="stop-color:#C9E7F7"/>
							<stop  offset="1" style="stop-color:#B5DEF7"/>
						</linearGradient>
						<polygon style="fill:url(#SVGID_3_);" points="63.8,58.9 63.9,44.8 37.6,29.6 37.5,43.7 						"/>
					</g>
					<polygon style="fill:#F4B740;" points="53.8,53.1 53.8,47.9 44,42.2 43.9,47.4 					"/>
					<g>
						<polygon style="fill:#0E60A9;" points="46.2,38.7 46.2,36.4 44.2,35.3 44.2,37.5 						"/>
						<polygon style="fill:#0E60A9;" points="48.9,40.2 48.9,38 46.9,36.8 46.9,39.1 						"/>
						<polygon style="fill:#0E60A9;" points="51.5,41.7 51.5,39.5 49.5,38.4 49.5,40.6 						"/>
						<polygon style="fill:#0E60A9;" points="43.5,37.1 43.5,34.9 41.6,33.8 41.6,36 						"/>
						<polygon style="fill:#0E60A9;" points="54.2,43.3 54.2,41.1 52.2,39.9 52.2,42.1 						"/>
						<polygon style="fill:#0E60A9;" points="40.9,35.6 40.9,33.4 39,32.3 39,34.5 						"/>
						<polygon style="fill:#0E60A9;" points="62.1,47.8 62.1,45.6 60.2,44.5 60.2,46.8 						"/>
						<polygon style="fill:#0E60A9;" points="59.5,46.4 59.5,44.1 57.5,43 57.5,45.2 						"/>
						<polygon style="fill:#0E60A9;" points="56.9,44.8 56.9,42.6 54.9,41.5 54.9,43.7 						"/>
						<polygon style="fill:#0E60A9;" points="42.7,44 42.7,41.8 40.9,40.7 40.9,42.9 						"/>
						<polygon style="fill:#0E60A9;" points="57.4,51.9 57.4,49.7 55.5,48.6 55.5,50.8 						"/>
					</g>
					<g>
						<polygon style="fill:#B5BDD4;" points="36.5,29.3 64.3,45.3 78.2,43.4 50.5,27.3 						"/>
					</g>
					<g>
						
							<linearGradient id="SVGID_4_" gradientUnits="userSpaceOnUse" x1="36.5" y1="64.4" x2="78.2" y2="64.4" gradientTransform="matrix(1 0 0 -1 0 100)">
							<stop  offset="5.376340e-03" style="stop-color:#32BDEF"/>
							<stop  offset="1" style="stop-color:#315CA7"/>
						</linearGradient>
						<polygon style="fill:url(#SVGID_4_);" points="36.5,28.6 64.3,44.6 78.2,42.6 50.5,26.6 						"/>
					</g>
					
						<linearGradient id="SVGID_5_" gradientUnits="userSpaceOnUse" x1="78.2229" y1="56.05" x2="64.2546" y2="56.05" gradientTransform="matrix(1 0 0 -1 0 100)">
						<stop  offset="5.376340e-03" style="stop-color:#76CAEB"/>
						<stop  offset="1" style="stop-color:#315CA7"/>
					</linearGradient>
					<polygon style="fill:url(#SVGID_5_);" points="64.3,45.3 78.2,43.4 78.2,42.6 64.3,44.6 					"/>
					
						<linearGradient id="SVGID_6_" gradientUnits="userSpaceOnUse" x1="36.5" y1="63.05" x2="64.2538" y2="63.05" gradientTransform="matrix(1 0 0 -1 0 100)">
						<stop  offset="5.376340e-03" style="stop-color:#76CAEB"/>
						<stop  offset="1" style="stop-color:#315CA7"/>
					</linearGradient>
					<polygon style="fill:url(#SVGID_6_);" points="64.3,45.3 64.3,44.6 36.5,28.6 36.5,29.3 					"/>
					<g>
						<polygon style="fill:#E5AB39;" points="44.4,47.6 44.4,42.4 44.2,42.4 44.2,47.6 						"/>
						<polygon style="fill:#E5AB39;" points="45.4,48.2 45.4,43 45.3,42.9 45.3,48.1 						"/>
						<polygon style="fill:#E5AB39;" points="46.4,48.8 46.4,43.6 46.3,43.5 46.3,48.7 						"/>
						<polygon style="fill:#E5AB39;" points="47.4,49.4 47.4,44.2 47.3,44.1 47.3,49.3 						"/>
						<polygon style="fill:#E5AB39;" points="48.4,50 48.4,44.8 48.3,44.7 48.3,49.9 						"/>
						<polygon style="fill:#E5AB39;" points="49.4,50.6 49.4,45.4 49.3,45.3 49.3,50.5 						"/>
						<polygon style="fill:#E5AB39;" points="50.4,51.1 50.4,45.9 50.3,45.9 50.3,51.1 						"/>
						<polygon style="fill:#E5AB39;" points="51.5,51.7 51.5,46.5 51.3,46.5 51.3,51.7 						"/>
						<polygon style="fill:#E5AB39;" points="52.5,52.3 52.5,47.1 52.3,47 52.3,52.2 						"/>
						<polygon style="fill:#E5AB39;" points="53.5,52.9 53.5,47.7 53.4,47.6 53.4,52.8 						"/>
					</g>
				</g>
			</g>
			<g>
				<polygon style="fill:#0E60A9;" points="69.2,51 69.2,48.8 67.4,49.9 67.4,52.1 				"/>
				<polygon style="fill:#0E60A9;" points="69.9,50.6 71.9,49.5 71.9,47.3 69.9,48.4 				"/>
				<polygon style="fill:#0E60A9;" points="74.6,47.9 74.6,45.7 72.6,46.9 72.6,49.1 				"/>
			</g>
		</g>
		<g id="house-2_1_">
			<g>
				<g style="enable-background:new    ;">
					<g>
						<polygon style="fill:#B5BDD4;" points="50.7,52.5 63.9,50.8 37.6,35.6 24.3,37.3 						"/>
					</g>
					<g>
						
							<linearGradient id="SVGID_7_" gradientUnits="userSpaceOnUse" x1="57.25" y1="33.4426" x2="57.25" y2="49.2093" gradientTransform="matrix(1 0 0 -1 0 100)">
							<stop  offset="0" style="stop-color:#4489C8"/>
							<stop  offset="0.3758" style="stop-color:#259FD9"/>
							<stop  offset="0.7681" style="stop-color:#0AB1E8"/>
							<stop  offset="1" style="stop-color:#00B8ED"/>
						</linearGradient>
						<polygon style="fill:url(#SVGID_7_);" points="63.8,58.9 63.9,50.8 50.7,52.5 50.6,66.6 						"/>
					</g>
					<g>
						
							<linearGradient id="SVGID_8_" gradientUnits="userSpaceOnUse" x1="24.2351" y1="48.05" x2="50.6502" y2="48.05" gradientTransform="matrix(1 0 0 -1 0 100)">
							<stop  offset="0.1028" style="stop-color:#8AC6ED"/>
							<stop  offset="0.1968" style="stop-color:#8FC8EE"/>
							<stop  offset="0.3075" style="stop-color:#9DD0EF"/>
							<stop  offset="0.4268" style="stop-color:#B5DBF2"/>
							<stop  offset="0.5512" style="stop-color:#D6EBF5"/>
							<stop  offset="0.5814" style="stop-color:#DFF0F6"/>
							<stop  offset="0.7033" style="stop-color:#D9EEF6"/>
							<stop  offset="0.8609" style="stop-color:#C9E7F7"/>
							<stop  offset="1" style="stop-color:#B5DEF7"/>
						</linearGradient>
						<polygon style="fill:url(#SVGID_8_);" points="50.6,66.6 50.7,52.5 24.3,37.3 24.2,51.4 						"/>
					</g>
					<polygon style="fill:#F4B740;" points="40.5,60.8 40.6,55.6 30.7,49.9 30.7,55.1 					"/>
					<g>
						<polygon style="fill:#0E60A9;" points="33,46.4 33,44.1 31,43 31,45.2 						"/>
						<polygon style="fill:#0E60A9;" points="35.6,47.9 35.6,45.7 33.6,44.5 33.6,46.8 						"/>
						<polygon style="fill:#0E60A9;" points="38.3,49.4 38.3,47.2 36.3,46.1 36.3,48.3 						"/>
						<polygon style="fill:#0E60A9;" points="30.3,44.8 30.3,42.6 28.3,41.5 28.3,43.7 						"/>
						<polygon style="fill:#0E60A9;" points="40.9,51 40.9,48.8 39,47.6 39,49.8 						"/>
						<polygon style="fill:#0E60A9;" points="27.6,43.3 27.6,41.1 25.8,40 25.8,42.2 						"/>
						<polygon style="fill:#0E60A9;" points="48.8,55.5 48.8,53.3 46.9,52.2 46.9,54.5 						"/>
						<polygon style="fill:#0E60A9;" points="46.3,54.1 46.3,51.8 44.3,50.7 44.3,52.9 						"/>
						<polygon style="fill:#0E60A9;" points="43.6,52.5 43.6,50.3 41.6,49.2 41.6,51.4 						"/>
						<polygon style="fill:#0E60A9;" points="29.5,51.7 29.5,49.5 27.6,48.4 27.6,50.6 						"/>
						<polygon style="fill:#0E60A9;" points="44.1,59.6 44.1,57.4 42.3,56.3 42.3,58.5 						"/>
					</g>
					<g>
						<polygon style="fill:#B5BDD4;" points="51,53 65,51.1 37.2,35 23.3,37 						"/>
					</g>
					<g>
						
							<linearGradient id="SVGID_9_" gradientUnits="userSpaceOnUse" x1="23.2508" y1="56.7" x2="64.9508" y2="56.7" gradientTransform="matrix(1 0 0 -1 0 100)">
							<stop  offset="5.376340e-03" style="stop-color:#32BDEF"/>
							<stop  offset="1" style="stop-color:#315CA7"/>
						</linearGradient>
						<polygon style="fill:url(#SVGID_9_);" points="51,52.3 65,50.3 37.2,34.3 23.3,36.3 						"/>
					</g>
					
						<linearGradient id="SVGID_10_" gradientUnits="userSpaceOnUse" x1="64.9727" y1="48.35" x2="51.0045" y2="48.35" gradientTransform="matrix(1 0 0 -1 0 100)">
						<stop  offset="5.376340e-03" style="stop-color:#76CAEB"/>
						<stop  offset="1" style="stop-color:#315CA7"/>
					</linearGradient>
					<polygon style="fill:url(#SVGID_10_);" points="65,51.1 65,50.3 51,52.3 51,53 					"/>
					
						<linearGradient id="SVGID_11_" gradientUnits="userSpaceOnUse" x1="23.2508" y1="55.35" x2="51.0045" y2="55.35" gradientTransform="matrix(1 0 0 -1 0 100)">
						<stop  offset="5.376340e-03" style="stop-color:#76CAEB"/>
						<stop  offset="1" style="stop-color:#315CA7"/>
					</linearGradient>
					<polygon style="fill:url(#SVGID_11_);" points="51,53 51,52.3 23.3,36.3 23.3,37 					"/>
					<g>
						<polygon style="fill:#E5AB39;" points="31.1,55.3 31.1,50.1 31,50.1 31,55.3 						"/>
						<polygon style="fill:#E5AB39;" points="32.1,55.9 32.1,50.7 32,50.6 32,55.8 						"/>
						<polygon style="fill:#E5AB39;" points="33.2,56.5 33.2,51.3 33,51.2 33,56.4 						"/>
						<polygon style="fill:#E5AB39;" points="34.2,57.1 34.2,51.9 34,51.8 34,57 						"/>
						<polygon style="fill:#E5AB39;" points="35.2,57.7 35.2,52.5 35,52.4 35,57.6 						"/>
						<polygon style="fill:#E5AB39;" points="36.2,58.3 36.2,53.1 36.1,53 36.1,58.2 						"/>
						<polygon style="fill:#E5AB39;" points="37.2,58.8 37.2,53.6 37.1,53.6 37.1,58.8 						"/>
						<polygon style="fill:#E5AB39;" points="38.2,59.4 38.2,54.2 38.1,54.2 38.1,59.4 						"/>
						<polygon style="fill:#E5AB39;" points="39.2,60 39.2,54.8 39.1,54.7 39.1,59.9 						"/>
						<polygon style="fill:#E5AB39;" points="40.2,60.6 40.2,55.4 40.1,55.3 40.1,60.5 						"/>
					</g>
				</g>
			</g>
		</g>
		<g id="house-1_1_">
			<g>
				<g style="enable-background:new    ;">
					<g>
						<polygon style="fill:#B5BDD4;" points="37.4,60.2 50.6,58.5 24.3,43.3 11.1,45 						"/>
					</g>
					<g>
						
							<linearGradient id="SVGID_12_" gradientUnits="userSpaceOnUse" x1="43.95" y1="25.7449" x2="43.95" y2="41.5116" gradientTransform="matrix(1 0 0 -1 0 100)">
							<stop  offset="0" style="stop-color:#4489C8"/>
							<stop  offset="0.3758" style="stop-color:#259FD9"/>
							<stop  offset="0.7681" style="stop-color:#0AB1E8"/>
							<stop  offset="1" style="stop-color:#00B8ED"/>
						</linearGradient>
						<polygon style="fill:url(#SVGID_12_);" points="50.6,66.6 50.6,58.5 37.4,60.2 37.3,74.3 						"/>
					</g>
					<g>
						
							<linearGradient id="SVGID_13_" gradientUnits="userSpaceOnUse" x1="11" y1="40.35" x2="37.4" y2="40.35" gradientTransform="matrix(1 0 0 -1 0 100)">
							<stop  offset="6.778585e-03" style="stop-color:#92D4F6"/>
							<stop  offset="0.2627" style="stop-color:#A5DBF4"/>
							<stop  offset="0.7343" style="stop-color:#C4E5F1"/>
							<stop  offset="1" style="stop-color:#CFE9F0"/>
						</linearGradient>
						<polygon style="fill:url(#SVGID_13_);" points="11,59.1 37.3,74.3 37.4,60.2 11.1,45 						"/>
					</g>
					<g>
						<polygon style="fill:#0E60A9;" points="19.7,54.1 19.7,51.8 17.7,50.7 17.7,52.9 						"/>
						<polygon style="fill:#0E60A9;" points="22.4,55.6 22.4,53.4 20.4,52.2 20.4,54.5 						"/>
						<polygon style="fill:#0E60A9;" points="15.1,51.4 17,52.5 17,50.3 15.1,49.2 						"/>
						<polygon style="fill:#0E60A9;" points="14.4,51 14.4,48.8 12.5,47.7 12.5,49.9 						"/>
					</g>
					<g>
						<polygon style="fill:#B5BDD4;" points="37.8,60.7 51.7,58.8 24,42.7 10,44.7 						"/>
					</g>
					<g>
						
							<linearGradient id="SVGID_14_" gradientUnits="userSpaceOnUse" x1="10" y1="49" x2="51.7" y2="49" gradientTransform="matrix(1 0 0 -1 0 100)">
							<stop  offset="5.376340e-03" style="stop-color:#32BDEF"/>
							<stop  offset="1" style="stop-color:#315CA7"/>
						</linearGradient>
						<polygon style="fill:url(#SVGID_14_);" points="37.8,60 51.7,58 24,42 10,44 						"/>
					</g>
					
						<linearGradient id="SVGID_15_" gradientUnits="userSpaceOnUse" x1="51.722" y1="40.65" x2="37.7537" y2="40.65" gradientTransform="matrix(1 0 0 -1 0 100)">
						<stop  offset="5.376340e-03" style="stop-color:#76CAEB"/>
						<stop  offset="1" style="stop-color:#315CA7"/>
					</linearGradient>
					<polygon style="fill:url(#SVGID_15_);" points="51.7,58.8 51.7,58 37.8,60 37.8,60.7 					"/>
					
						<linearGradient id="SVGID_16_" gradientUnits="userSpaceOnUse" x1="10" y1="50.4" x2="28.2" y2="50.4" gradientTransform="matrix(1 0 0 -1 0 100)">
						<stop  offset="5.376340e-03" style="stop-color:#76CAEB"/>
						<stop  offset="1" style="stop-color:#315CA7"/>
					</linearGradient>
					<polygon style="fill:url(#SVGID_16_);" points="10,44.7 28.2,55.2 23.9,52 10,44 					"/>
					
						<linearGradient id="SVGID_17_" gradientUnits="userSpaceOnUse" x1="23.8743" y1="43.65" x2="37.7537" y2="43.65" gradientTransform="matrix(1 0 0 -1 0 100)">
						<stop  offset="5.376340e-03" style="stop-color:#76CAEB"/>
						<stop  offset="1" style="stop-color:#315CA7"/>
					</linearGradient>
					<polygon style="fill:url(#SVGID_17_);" points="37.8,60.7 37.8,60 23.9,52 28.2,55.2 					"/>
					<g>
						
							<linearGradient id="SVGID_18_" gradientUnits="userSpaceOnUse" x1="27.75" y1="46.4" x2="27.75" y2="28.3714" gradientTransform="matrix(1 0 0 -1 0 100)">
							<stop  offset="0" style="stop-color:#315CA7"/>
							<stop  offset="0.2599" style="stop-color:#315FA9"/>
							<stop  offset="0.4521" style="stop-color:#3168B0"/>
							<stop  offset="0.6225" style="stop-color:#3178BC"/>
							<stop  offset="0.7803" style="stop-color:#328FCD"/>
							<stop  offset="0.928" style="stop-color:#32ACE2"/>
							<stop  offset="1" style="stop-color:#32BDEF"/>
						</linearGradient>
						<polygon style="fill:url(#SVGID_18_);" points="32.7,71.6 32.7,59.3 22.9,53.6 22.8,66 						"/>
					</g>
				</g>
			</g>
			<g>
				<polygon style="fill:#0E60A9;" points="42.7,66.4 42.7,64.2 40.9,65.3 40.9,67.5 				"/>
				<polygon style="fill:#0E60A9;" points="45.4,64.9 45.4,62.7 43.4,63.8 43.4,66 				"/>
				<polygon style="fill:#0E60A9;" points="48.1,63.3 48.1,61.1 46.1,62.3 46.1,64.5 				"/>
			</g>
		</g>
	</g>
	<g>
		
			<linearGradient id="SVGID_19_" gradientUnits="userSpaceOnUse" x1="59.9429" y1="34.8" x2="74.2383" y2="34.8" gradientTransform="matrix(1 0 0 -1 0 100)">
			<stop  offset="0" style="stop-color:#253672"/>
			<stop  offset="1" style="stop-color:#4674B8;stop-opacity:0"/>
		</linearGradient>
		<path style="opacity:0.5;fill:url(#SVGID_19_);enable-background:new    ;" d="M59.9,68.9l6.8,0.1l7.1-2.2c0.4-0.1,0.5-0.7,0.1-1
			l-7.3-4.4L59.9,68.9z"/>
		<g>
			<g>
				
					<linearGradient id="SVGID_20_" gradientUnits="userSpaceOnUse" x1="954.2579" y1="36.3962" x2="978.3113" y2="38.048" gradientTransform="matrix(-1 0 0 -1 1027.4503 100)">
					<stop  offset="0" style="stop-color:#4489C8"/>
					<stop  offset="0.3758" style="stop-color:#259FD9"/>
					<stop  offset="0.7681" style="stop-color:#0AB1E8"/>
					<stop  offset="1" style="stop-color:#00B8ED"/>
				</linearGradient>
				<path style="fill:url(#SVGID_20_);" d="M59.9,61l7.2-4.1v7.6c0,0.3-0.2,0.5-0.4,0.7l-6.5,3.7l0,0c-0.2,0.1-0.4,0.1-0.6,0
					l-6.1-3.5c-0.2-0.1-0.4-0.4-0.4-0.7v-7.3L59.9,61z"/>
				
					<linearGradient id="SVGID_21_" gradientUnits="userSpaceOnUse" x1="974.5253" y1="51.4959" x2="965.5428" y2="40.7907" gradientTransform="matrix(-1 0 0 -1 1027.4503 100)">
					<stop  offset="6.778585e-03" style="stop-color:#008BB1"/>
					<stop  offset="0.1179" style="stop-color:#1C98BA"/>
					<stop  offset="0.4362" style="stop-color:#68BAD1"/>
					<stop  offset="0.6996" style="stop-color:#A0D4E2"/>
					<stop  offset="0.8946" style="stop-color:#C2E3EC"/>
					<stop  offset="1" style="stop-color:#CFE9F0"/>
				</linearGradient>
				<path style="fill:url(#SVGID_21_);" d="M66.9,57.2l-6.5,3.7c-0.3,0.2-0.8,0.2-1.1,0l-6.2-3.6l7.3-4l6.5,3.3
					C67.1,56.7,67.1,57.1,66.9,57.2z"/>
			</g>
			<g>
				
					<linearGradient id="SVGID_22_" gradientUnits="userSpaceOnUse" x1="60.2" y1="38.8772" x2="60.2" y2="41.4481" gradientTransform="matrix(1 0 0 -1 0 100)">
					<stop  offset="5.376340e-03" style="stop-color:#FFFFFF"/>
					<stop  offset="1" style="stop-color:#FFFFFF"/>
				</linearGradient>
				<path style="fill:url(#SVGID_22_);" d="M64.5,58.6L60.4,61l0,0c-0.4,0.2-0.9,0.2-1.2-0.1l-1.1-0.6L55.9,59l2.2,1.2l1.1,0.6
					c0.3,0.2,0.8,0.3,1.2,0.1l0,0L64.5,58.6z"/>
			</g>
			
				<linearGradient id="SVGID_23_" gradientUnits="userSpaceOnUse" x1="961.0651" y1="33.8369" x2="953.5734" y2="28.1917" gradientTransform="matrix(-1 0 0 -1 1027.4503 100)">
				<stop  offset="0" style="stop-color:#315CA7"/>
				<stop  offset="1" style="stop-color:#32BDEF"/>
			</linearGradient>
			<path style="fill:url(#SVGID_23_);" d="M61.2,68.2l4.8-2.8V60c0-0.1-0.1-0.2-0.3-0.1l-4.1,2.4c-0.3,0.2-0.4,0.4-0.4,0.7
				C61.2,63,61.2,68.2,61.2,68.2z"/>
		</g>
		<g>
			
				<linearGradient id="SVGID_24_" gradientUnits="userSpaceOnUse" x1="61.6204" y1="40.2352" x2="59.2879" y2="34.59" gradientTransform="matrix(1 0 0 -1 0 100)">
				<stop  offset="6.297816e-03" style="stop-color:#7FBF7C"/>
				<stop  offset="1" style="stop-color:#E9F4F3"/>
			</linearGradient>
			<path style="fill:url(#SVGID_24_);" d="M65.5,56.5l-6.2,3.8l-0.2-0.1l0,0c0-0.8,0.5-1.7,1-2l4.3-2.5C65,55.4,65.5,55.8,65.5,56.5
				L65.5,56.5z"/>
			
				<linearGradient id="SVGID_25_" gradientUnits="userSpaceOnUse" x1="62.9444" y1="42.8554" x2="60.1464" y2="36.0835" gradientTransform="matrix(1 0 0 -1 0 100)">
				<stop  offset="0" style="stop-color:#315CA7"/>
				<stop  offset="1" style="stop-color:#32BDEF"/>
			</linearGradient>
			<path style="fill:url(#SVGID_25_);" d="M65.7,56.6l-6.4,3.7l0,0c0-0.8,0.5-1.7,1-2l4.3-2.5C65.2,55.5,65.7,55.9,65.7,56.6
				L65.7,56.6z"/>
		</g>
		
			<linearGradient id="SVGID_26_" gradientUnits="userSpaceOnUse" x1="63.571" y1="44.1097" x2="62.8605" y2="41.9353" gradientTransform="matrix(1 0 0 -1 0 100)">
			<stop  offset="5.376340e-03" style="stop-color:#FFFFFF"/>
			<stop  offset="1" style="stop-color:#FFFFFF;stop-opacity:0"/>
		</linearGradient>
		<polygon style="opacity:0.4;fill:url(#SVGID_26_);enable-background:new    ;" points="63.1,56.7 62.5,58.4 63.1,58.1 63.6,56.4 
					"/>
		
			<linearGradient id="SVGID_27_" gradientUnits="userSpaceOnUse" x1="62.8867" y1="43.5863" x2="62.2453" y2="41.6237" gradientTransform="matrix(1 0 0 -1 0 100)">
			<stop  offset="5.376340e-03" style="stop-color:#FFFFFF"/>
			<stop  offset="1" style="stop-color:#FFFFFF;stop-opacity:0"/>
		</linearGradient>
		<polygon style="opacity:0.4;fill:url(#SVGID_27_);enable-background:new    ;" points="62.6,57 62,58.7 62.3,58.5 62.9,56.8 		"/>
		
			<linearGradient id="SVGID_28_" gradientUnits="userSpaceOnUse" x1="66.2609" y1="39.189" x2="67.1921" y2="38.2579" gradientTransform="matrix(1 0 0 -1 0 100)">
			<stop  offset="5.376340e-03" style="stop-color:#EB6583"/>
			<stop  offset="0.1237" style="stop-color:#ED7588"/>
			<stop  offset="0.5242" style="stop-color:#F5A696"/>
			<stop  offset="0.829" style="stop-color:#F9C5A0"/>
			<stop  offset="1" style="stop-color:#FBD0A3"/>
		</linearGradient>
		<polygon style="fill:url(#SVGID_28_);" points="66.7,61.2 66.4,61.4 66.4,61 66.7,60.8 		"/>
		<polygon style="fill:#314E9C;" points="66.7,61.8 66.4,62 66.4,61.6 66.7,61.4 		"/>
	</g>
	<g id="tapis-sortant_1_">
		
			<linearGradient id="shade_1_" gradientUnits="userSpaceOnUse" x1="76.0231" y1="27.0196" x2="91.8786" y2="26.5709" gradientTransform="matrix(1 0 0 -1 0 100)">
			<stop  offset="0" style="stop-color:#253672"/>
			<stop  offset="1" style="stop-color:#4674B8;stop-opacity:0"/>
		</linearGradient>
		<path id="shade_35_" style="opacity:0.5;fill:url(#shade_1_);enable-background:new    ;" d="M83.1,81.1h1.3c0.5,0,1-0.1,1.4-0.4
			l4.2-2.3L66.8,64.8l-0.7,0.7l-4.8,2.7L83.1,81.1z"/>
		
			<linearGradient id="bande-bas_1_" gradientUnits="userSpaceOnUse" x1="1803.3625" y1="38.7694" x2="1779.8677" y2="6.5266" gradientTransform="matrix(-1 0 0 -1 1869.3042 100)">
			<stop  offset="0" style="stop-color:#4489C8"/>
			<stop  offset="0.2286" style="stop-color:#76AAD7"/>
			<stop  offset="0.4788" style="stop-color:#A6C9E5"/>
			<stop  offset="0.6999" style="stop-color:#C8E0EF"/>
			<stop  offset="0.8812" style="stop-color:#DDEEF6"/>
			<stop  offset="1" style="stop-color:#E5F3F8"/>
		</linearGradient>
		<path id="bande-bas_3_" style="fill:url(#bande-bas_1_);" d="M63,63.6l24.8,14.6c0.2,0.1,0.3,0.1,0.3,0.1l-0.1,0L83.3,81h-0.4
			L61.3,68.2v-3C61.3,64.9,62.8,63.8,63,63.6z"/>
		<g id="bande-Top_1_">
			
				<linearGradient id="SVGID_29_" gradientUnits="userSpaceOnUse" x1="1630.3842" y1="-647.9777" x2="1627.7537" y2="-649.7723" gradientTransform="matrix(-0.866 -0.5 0 -1.1547 1498.9138 143.533)">
				<stop  offset="5.376340e-03" style="stop-color:#23398D"/>
				<stop  offset="0.3102" style="stop-color:#456FA8"/>
				<stop  offset="0.6252" style="stop-color:#64A0C0"/>
				<stop  offset="0.8653" style="stop-color:#78BFCF"/>
				<stop  offset="1" style="stop-color:#7FCAD5"/>
			</linearGradient>
			<path style="fill:url(#SVGID_29_);" d="M87.2,77.3c0,0.3,0.2,0.7,0.5,0.9c0.3,0.2,0.5,0,0.5-0.3S88,77.2,87.7,77
				C87.4,76.9,87.2,77,87.2,77.3z"/>
			<g>
				<path style="fill:none;stroke:#221E20;stroke-width:0.5935;stroke-linecap:round;stroke-miterlimit:10;" d="M82.6,80.6"/>
				
					<linearGradient id="SVGID_30_" gradientUnits="userSpaceOnUse" x1="67.7883" y1="35.2472" x2="91.7393" y2="19.6472" gradientTransform="matrix(1 0 0 -1 0 100)">
					<stop  offset="6.297816e-03" style="stop-color:#7FBF7C"/>
					<stop  offset="1" style="stop-color:#E9F4F3"/>
				</linearGradient>
				<path style="fill:url(#SVGID_30_);" d="M62.4,61.8l25.5,15.1c0,0,0.8,0.7,0.2,1.4c0,0,0.4-0.6-0.6-1.3L62.1,62
					C62.3,61.9,62.4,61.8,62.4,61.8z"/>
				
					<linearGradient id="SVGID_31_" gradientUnits="userSpaceOnUse" x1="47.8045" y1="46.6976" x2="82.1765" y2="22.7739" gradientTransform="matrix(1 0 0 -1 0 100)">
					<stop  offset="0" style="stop-color:#315CA7"/>
					<stop  offset="1" style="stop-color:#32BDEF"/>
				</linearGradient>
				<path style="fill:url(#SVGID_31_);" d="M62.2,61.9l25.4,15c0,0,0.7,0.4,0.7,1.1c0,0.1-0.1,0.2-0.2,0.3L83.4,81
					c0,0,0.5-0.8-0.7-1.4L61.3,66.8v-3.9c0-0.2,0.1-0.5,0.4-0.7L62.2,61.9z"/>
				
					<linearGradient id="SVGID_32_" gradientUnits="userSpaceOnUse" x1="61.7864" y1="32.4304" x2="84.3698" y2="18.8036" gradientTransform="matrix(1 0 0 -1 0 100)">
					<stop  offset="6.297816e-03" style="stop-color:#7FBF7C"/>
					<stop  offset="1" style="stop-color:#E9F4F3"/>
				</linearGradient>
				<path style="fill:url(#SVGID_32_);" d="M61.3,66.8L83,79.7c0,0,0.8,0.5,0.5,1.2c0,0-0.2,0.2-0.4,0.2c0.1-0.1,0.5-0.5-0.3-1.2
					L61.3,67V66.8z"/>
			</g>
		</g>
		<g id="stripes_5_">
			
				<linearGradient id="SVGID_33_" gradientUnits="userSpaceOnUse" x1="1098.1453" y1="594.3393" x2="1101.457" y2="594.3393" gradientTransform="matrix(1 0 0 1 -1029.9265 -525.1893)">
				<stop  offset="5.376340e-03" style="stop-color:#FFFFFF"/>
				<stop  offset="0.2869" style="stop-color:#CFEAF9"/>
				<stop  offset="0.6126" style="stop-color:#9ED5F3"/>
				<stop  offset="0.8607" style="stop-color:#7FC8EF"/>
				<stop  offset="1" style="stop-color:#74C3EE"/>
			</linearGradient>
			
				<line style="fill:none;stroke:url(#SVGID_33_);stroke-width:6.439191e-02;stroke-linecap:round;stroke-linejoin:round;stroke-miterlimit:10;" x1="68.3" y1="70.1" x2="71.5" y2="68.2"/>
			
				<linearGradient id="SVGID_34_" gradientUnits="userSpaceOnUse" x1="1095.7665" y1="592.8393" x2="1099.0782" y2="592.8393" gradientTransform="matrix(1 0 0 1 -1029.9265 -525.1893)">
				<stop  offset="5.376340e-03" style="stop-color:#FFFFFF"/>
				<stop  offset="0.2869" style="stop-color:#CFEAF9"/>
				<stop  offset="0.6126" style="stop-color:#9ED5F3"/>
				<stop  offset="0.8607" style="stop-color:#7FC8EF"/>
				<stop  offset="1" style="stop-color:#74C3EE"/>
			</linearGradient>
			
				<line style="fill:none;stroke:url(#SVGID_34_);stroke-width:6.439191e-02;stroke-linecap:round;stroke-linejoin:round;stroke-miterlimit:10;" x1="65.9" y1="68.6" x2="69.1" y2="66.7"/>
			
				<linearGradient id="SVGID_35_" gradientUnits="userSpaceOnUse" x1="1100.8585" y1="595.9393" x2="1104.1703" y2="595.9393" gradientTransform="matrix(1 0 0 1 -1029.9265 -525.1893)">
				<stop  offset="5.376340e-03" style="stop-color:#FFFFFF"/>
				<stop  offset="0.2869" style="stop-color:#CFEAF9"/>
				<stop  offset="0.6126" style="stop-color:#9ED5F3"/>
				<stop  offset="0.8607" style="stop-color:#7FC8EF"/>
				<stop  offset="1" style="stop-color:#74C3EE"/>
			</linearGradient>
			
				<line style="fill:none;stroke:url(#SVGID_35_);stroke-width:6.439191e-02;stroke-linecap:round;stroke-linejoin:round;stroke-miterlimit:10;" x1="71" y1="71.7" x2="74.2" y2="69.8"/>
			
				<linearGradient id="SVGID_36_" gradientUnits="userSpaceOnUse" x1="1103.7651" y1="597.6393" x2="1107.0769" y2="597.6393" gradientTransform="matrix(1 0 0 1 -1029.9265 -525.1893)">
				<stop  offset="5.376340e-03" style="stop-color:#FFFFFF"/>
				<stop  offset="0.2869" style="stop-color:#CFEAF9"/>
				<stop  offset="0.6126" style="stop-color:#9ED5F3"/>
				<stop  offset="0.8607" style="stop-color:#7FC8EF"/>
				<stop  offset="1" style="stop-color:#74C3EE"/>
			</linearGradient>
			
				<line style="fill:none;stroke:url(#SVGID_36_);stroke-width:6.439191e-02;stroke-linecap:round;stroke-linejoin:round;stroke-miterlimit:10;" x1="73.9" y1="73.4" x2="77.1" y2="71.5"/>
			
				<linearGradient id="SVGID_37_" gradientUnits="userSpaceOnUse" x1="1106.4783" y1="599.2393" x2="1109.79" y2="599.2393" gradientTransform="matrix(1 0 0 1 -1029.9265 -525.1893)">
				<stop  offset="5.376340e-03" style="stop-color:#FFFFFF"/>
				<stop  offset="0.2869" style="stop-color:#CFEAF9"/>
				<stop  offset="0.6126" style="stop-color:#9ED5F3"/>
				<stop  offset="0.8607" style="stop-color:#7FC8EF"/>
				<stop  offset="1" style="stop-color:#74C3EE"/>
			</linearGradient>
			
				<line style="fill:none;stroke:url(#SVGID_37_);stroke-width:6.439191e-02;stroke-linecap:round;stroke-linejoin:round;stroke-miterlimit:10;" x1="76.6" y1="75" x2="79.8" y2="73.1"/>
			
				<linearGradient id="SVGID_38_" gradientUnits="userSpaceOnUse" x1="1109.1807" y1="600.7893" x2="1112.4924" y2="600.7893" gradientTransform="matrix(1 0 0 1 -1029.9265 -525.1893)">
				<stop  offset="5.376340e-03" style="stop-color:#FFFFFF"/>
				<stop  offset="0.2869" style="stop-color:#CFEAF9"/>
				<stop  offset="0.6126" style="stop-color:#9ED5F3"/>
				<stop  offset="0.8607" style="stop-color:#7FC8EF"/>
				<stop  offset="1" style="stop-color:#74C3EE"/>
			</linearGradient>
			
				<line style="fill:none;stroke:url(#SVGID_38_);stroke-width:6.439191e-02;stroke-linecap:round;stroke-linejoin:round;stroke-miterlimit:10;" x1="79.3" y1="76.5" x2="82.5" y2="74.7"/>
			
				<linearGradient id="SVGID_39_" gradientUnits="userSpaceOnUse" x1="1111.8943" y1="602.9893" x2="1113.1143" y2="602.9893" gradientTransform="matrix(1 0 0 1 -1029.9265 -525.1893)">
				<stop  offset="5.376340e-03" style="stop-color:#FFFFFF"/>
				<stop  offset="0.2869" style="stop-color:#CFEAF9"/>
				<stop  offset="0.6126" style="stop-color:#9ED5F3"/>
				<stop  offset="0.8607" style="stop-color:#7FC8EF"/>
				<stop  offset="1" style="stop-color:#74C3EE"/>
			</linearGradient>
			
				<line style="fill:none;stroke:url(#SVGID_39_);stroke-width:6.439191e-02;stroke-linecap:round;stroke-linejoin:round;stroke-miterlimit:10;" x1="82" y1="78.1" x2="83.2" y2="77.5"/>
			<g>
				
					<linearGradient id="SVGID_40_" gradientUnits="userSpaceOnUse" x1="743.993" y1="34.4" x2="747.3048" y2="34.4" gradientTransform="matrix(-1 0 0 -1 809.7136 100)">
					<stop  offset="5.376340e-03" style="stop-color:#FFFFFF"/>
					<stop  offset="0.2869" style="stop-color:#CFEAF9"/>
					<stop  offset="0.6126" style="stop-color:#9ED5F3"/>
					<stop  offset="0.8607" style="stop-color:#7FC8EF"/>
					<stop  offset="1" style="stop-color:#74C3EE"/>
				</linearGradient>
				
					<line style="fill:none;stroke:url(#SVGID_40_);stroke-width:6.439191e-02;stroke-linecap:round;stroke-linejoin:round;stroke-miterlimit:10;" x1="65.7" y1="64.7" x2="62.4" y2="66.5"/>
			</g>
			<g style="opacity:0.5;">
				
					<linearGradient id="SVGID_41_" gradientUnits="userSpaceOnUse" x1="1255.6388" y1="21.35" x2="1258.9506" y2="21.35" gradientTransform="matrix(-1 0 0 -1 1342.871 100)">
					<stop  offset="5.376340e-03" style="stop-color:#FFFFFF"/>
					<stop  offset="0.2869" style="stop-color:#CFEAF9"/>
					<stop  offset="0.6126" style="stop-color:#9ED5F3"/>
					<stop  offset="0.8607" style="stop-color:#7FC8EF"/>
					<stop  offset="1" style="stop-color:#74C3EE"/>
				</linearGradient>
				
					<line style="fill:none;stroke:url(#SVGID_41_);stroke-width:6.439191e-02;stroke-linecap:round;stroke-linejoin:round;stroke-miterlimit:10;" x1="87.2" y1="77.7" x2="84" y2="79.6"/>
			</g>
		</g>
	</g>
	<g id="tapis-entrant_1_">
		
			<linearGradient id="bande-bas_4_" gradientUnits="userSpaceOnUse" x1="380.3642" y1="34.4466" x2="365.4674" y2="14.0032" gradientTransform="matrix(1 0 0 -1 -350.3779 100)">
			<stop  offset="0" style="stop-color:#4489C8"/>
			<stop  offset="0.2286" style="stop-color:#76AAD7"/>
			<stop  offset="0.4788" style="stop-color:#A6C9E5"/>
			<stop  offset="0.6999" style="stop-color:#C8E0EF"/>
			<stop  offset="0.8812" style="stop-color:#DDEEF6"/>
			<stop  offset="1" style="stop-color:#E5F3F8"/>
		</linearGradient>
		<path id="bande-bas_2_" style="fill:url(#bande-bas_4_);" d="M31,66.9l-15.4,8.8c-0.2,0.1-0.3,0.1-0.3,0.1l0.1,0.1l4.7,2.7h0.4
			l12.3-7v-3.9L31,66.9"/>
		
			<linearGradient id="shade-bande_2_" gradientUnits="userSpaceOnUse" x1="23.1238" y1="31.9073" x2="28.5081" y2="21.6244" gradientTransform="matrix(1 0 0 -1 0 100)">
			<stop  offset="0" style="stop-color:#253672"/>
			<stop  offset="1" style="stop-color:#4674B8;stop-opacity:0"/>
		</linearGradient>
		<path id="shade-bande_1_" style="opacity:0.5;fill:url(#shade-bande_2_);enable-background:new    ;" d="M20.2,78.6h1.2
			c0.6,0,1.2-0.2,1.8-0.5l10.5-5.9l-1.1-0.6L20.2,78.6z"/>
		<g id="bande-top_3_">
			<path style="fill:none;stroke:#221E20;stroke-width:0.5935;stroke-linecap:round;stroke-miterlimit:10;" d="M20.7,78.1"/>
			
				<linearGradient id="SVGID_42_" gradientUnits="userSpaceOnUse" x1="29.4603" y1="33.9371" x2="12.5646" y2="22.7882" gradientTransform="matrix(1 0 0 -1 0 100)">
				<stop  offset="6.297816e-03" style="stop-color:#7FBF7C"/>
				<stop  offset="1" style="stop-color:#E9F4F3"/>
			</linearGradient>
			<path style="fill:url(#SVGID_42_);" d="M32.7,64.5l-17.3,9.9c0,0-0.8,0.7-0.2,1.4c0,0-0.4-0.6,0.6-1.3l17-9.7L32.7,64.5z"/>
			
				<linearGradient id="SVGID_43_" gradientUnits="userSpaceOnUse" x1="41.6447" y1="36.8737" x2="16.9376" y2="23.194" gradientTransform="matrix(1 0 0 -1 0 100)">
				<stop  offset="0" style="stop-color:#315CA7"/>
				<stop  offset="1" style="stop-color:#32BDEF"/>
			</linearGradient>
			<path style="fill:url(#SVGID_43_);" d="M32.7,64.8l-17,9.7c0,0-0.7,0.4-0.7,1.1c0,0.1,0.1,0.2,0.2,0.3l4.6,2.6
				c0,0-0.5-0.8,0.7-1.4l12.1-6.9L32.7,64.8z"/>
			
				<linearGradient id="SVGID_44_" gradientUnits="userSpaceOnUse" x1="32.3612" y1="30.0324" x2="16.0818" y2="19.0166" gradientTransform="matrix(1 0 0 -1 0 100)">
				<stop  offset="6.297816e-03" style="stop-color:#7FBF7C"/>
				<stop  offset="1" style="stop-color:#E9F4F3"/>
			</linearGradient>
			<path style="fill:url(#SVGID_44_);" d="M32.7,70.2l-12.4,7.1c0,0-0.8,0.5-0.5,1.2c0,0,0.2,0.2,0.4,0.2c-0.1-0.1-0.5-0.5,0.3-1.2
				l12.3-7L32.7,70.2L32.7,70.2z"/>
		</g>
		<g id="stripes_4_">
			
				<linearGradient id="SVGID_45_" gradientUnits="userSpaceOnUse" x1="17.6977" y1="24.8" x2="21.0095" y2="24.8" gradientTransform="matrix(1 0 0 -1 0 100)">
				<stop  offset="5.376340e-03" style="stop-color:#FFFFFF"/>
				<stop  offset="0.2869" style="stop-color:#CFEAF9"/>
				<stop  offset="0.6126" style="stop-color:#9ED5F3"/>
				<stop  offset="0.8607" style="stop-color:#7FC8EF"/>
				<stop  offset="1" style="stop-color:#74C3EE"/>
			</linearGradient>
			
				<line style="fill:none;stroke:url(#SVGID_45_);stroke-width:6.439191e-02;stroke-linecap:round;stroke-linejoin:round;stroke-miterlimit:10;" x1="17.7" y1="74.3" x2="21" y2="76.1"/>
			
				<linearGradient id="SVGID_46_" gradientUnits="userSpaceOnUse" x1="20.411" y1="26.45" x2="23.7227" y2="26.45" gradientTransform="matrix(1 0 0 -1 0 100)">
				<stop  offset="5.376340e-03" style="stop-color:#FFFFFF"/>
				<stop  offset="0.2869" style="stop-color:#CFEAF9"/>
				<stop  offset="0.6126" style="stop-color:#9ED5F3"/>
				<stop  offset="0.8607" style="stop-color:#7FC8EF"/>
				<stop  offset="1" style="stop-color:#74C3EE"/>
			</linearGradient>
			
				<line style="fill:none;stroke:url(#SVGID_46_);stroke-width:6.439191e-02;stroke-linecap:round;stroke-linejoin:round;stroke-miterlimit:10;" x1="20.4" y1="72.6" x2="23.7" y2="74.5"/>
			
				<linearGradient id="SVGID_47_" gradientUnits="userSpaceOnUse" x1="23.3175" y1="28.15" x2="26.6293" y2="28.15" gradientTransform="matrix(1 0 0 -1 0 100)">
				<stop  offset="5.376340e-03" style="stop-color:#FFFFFF"/>
				<stop  offset="0.2869" style="stop-color:#CFEAF9"/>
				<stop  offset="0.6126" style="stop-color:#9ED5F3"/>
				<stop  offset="0.8607" style="stop-color:#7FC8EF"/>
				<stop  offset="1" style="stop-color:#74C3EE"/>
			</linearGradient>
			
				<line style="fill:none;stroke:url(#SVGID_47_);stroke-width:6.439191e-02;stroke-linecap:round;stroke-linejoin:round;stroke-miterlimit:10;" x1="23.3" y1="70.9" x2="26.6" y2="72.8"/>
			
				<linearGradient id="SVGID_48_" gradientUnits="userSpaceOnUse" x1="26.0307" y1="29.75" x2="29.3425" y2="29.75" gradientTransform="matrix(1 0 0 -1 0 100)">
				<stop  offset="5.376340e-03" style="stop-color:#FFFFFF"/>
				<stop  offset="0.2869" style="stop-color:#CFEAF9"/>
				<stop  offset="0.6126" style="stop-color:#9ED5F3"/>
				<stop  offset="0.8607" style="stop-color:#7FC8EF"/>
				<stop  offset="1" style="stop-color:#74C3EE"/>
			</linearGradient>
			
				<line style="fill:none;stroke:url(#SVGID_48_);stroke-width:6.439191e-02;stroke-linecap:round;stroke-linejoin:round;stroke-miterlimit:10;" x1="26.1" y1="69.3" x2="29.3" y2="71.2"/>
			
				<linearGradient id="SVGID_49_" gradientUnits="userSpaceOnUse" x1="28.733" y1="31.25" x2="32.0448" y2="31.25" gradientTransform="matrix(1 0 0 -1 0 100)">
				<stop  offset="5.376340e-03" style="stop-color:#FFFFFF"/>
				<stop  offset="0.2869" style="stop-color:#CFEAF9"/>
				<stop  offset="0.6126" style="stop-color:#9ED5F3"/>
				<stop  offset="0.8607" style="stop-color:#7FC8EF"/>
				<stop  offset="1" style="stop-color:#74C3EE"/>
			</linearGradient>
			
				<line style="fill:none;stroke:url(#SVGID_49_);stroke-width:6.439191e-02;stroke-linecap:round;stroke-linejoin:round;stroke-miterlimit:10;" x1="28.8" y1="67.8" x2="32" y2="69.7"/>
			
				<linearGradient id="SVGID_50_" gradientUnits="userSpaceOnUse" x1="31.4463" y1="33.45" x2="32.6663" y2="33.45" gradientTransform="matrix(1 0 0 -1 0 100)">
				<stop  offset="5.376340e-03" style="stop-color:#FFFFFF"/>
				<stop  offset="0.2869" style="stop-color:#CFEAF9"/>
				<stop  offset="0.6126" style="stop-color:#9ED5F3"/>
				<stop  offset="0.8607" style="stop-color:#7FC8EF"/>
				<stop  offset="1" style="stop-color:#74C3EE"/>
			</linearGradient>
			
				<line style="fill:none;stroke:url(#SVGID_50_);stroke-width:6.439191e-02;stroke-linecap:round;stroke-linejoin:round;stroke-miterlimit:10;" x1="31.5" y1="66.2" x2="32.6" y2="66.9"/>
		</g>
		<g id="engrenage_1_">
			
				<linearGradient id="SVGID_51_" gradientUnits="userSpaceOnUse" x1="1.804" y1="57.3562" x2="-0.8265" y2="55.5617" gradientTransform="matrix(0.866 -0.5 0 -1.1547 20.0125 143.533)">
				<stop  offset="5.376340e-03" style="stop-color:#23398D"/>
				<stop  offset="0.3102" style="stop-color:#456FA8"/>
				<stop  offset="0.6252" style="stop-color:#64A0C0"/>
				<stop  offset="0.8653" style="stop-color:#78BFCF"/>
				<stop  offset="1" style="stop-color:#7FCAD5"/>
			</linearGradient>
			<path style="fill:url(#SVGID_51_);" d="M21,77.7c0,0.3-0.2,0.7-0.5,0.9c-0.3,0.2-0.5,0-0.5-0.3s0.2-0.7,0.5-0.9
				C20.7,77.2,21,77.4,21,77.7z"/>
			
				<linearGradient id="SVGID_52_" gradientUnits="userSpaceOnUse" x1="1.3846" y1="57.0701" x2="-0.3705" y2="55.8728" gradientTransform="matrix(0.866 -0.5 0 -1.1547 20.0125 143.533)">
				<stop  offset="6.297816e-03" style="stop-color:#7FBF7C"/>
				<stop  offset="1" style="stop-color:#E9F4F3"/>
			</linearGradient>
			<path style="fill:url(#SVGID_52_);" d="M20.8,77.8c0,0.2-0.2,0.5-0.3,0.6c-0.2,0.1-0.3,0-0.3-0.2s0.2-0.5,0.3-0.6
				C20.6,77.5,20.8,77.6,20.8,77.8z"/>
		</g>
	</g>
</g>
</svg>
