<?xml version="1.0" encoding="utf-8"?>
<!-- Generator: Adobe Illustrator 23.0.1, SVG Export Plug-In . SVG Version: 6.00 Build 0)  -->
<svg version="1.1" id="Layer_1" xmlns="http://www.w3.org/2000/svg" xmlns:xlink="http://www.w3.org/1999/xlink" x="0px" y="0px"
	 viewBox="0 0 100 100" style="enable-background:new 0 0 100 100;" xml:space="preserve">
<g>
	<path style="fill:#FFFFFF;" d="M79.9,80.4c0,0.1,0,0.2,0,0.4c0,0.2,0,0.3,0,0.4c0,0.1-0.1,0.2-0.1,0.2s-0.1,0-0.1-0.1
		c0-0.1,0-0.2,0-0.4c0-0.2,0-0.3,0-0.4c0-0.1,0.1-0.2,0.1-0.2S79.9,80.4,79.9,80.4z M79.8,81.1c0,0,0-0.1,0-0.2c0-0.1,0-0.2,0-0.2
		c0,0,0-0.1,0,0c0,0,0,0,0,0.1c0,0,0,0.1,0,0.2C79.7,81,79.7,81.1,79.8,81.1C79.7,81.2,79.8,81.2,79.8,81.1
		C79.8,81.2,79.8,81.2,79.8,81.1"/>
</g>
<g id="worker_1_">
	
		<linearGradient id="shade_1_" gradientUnits="userSpaceOnUse" x1="738.3471" y1="84.5839" x2="757.0478" y2="84.5839" gradientTransform="matrix(1 0 0 1 -697.9749 0)">
		<stop  offset="0" style="stop-color:#253672"/>
		<stop  offset="1" style="stop-color:#4674B8;stop-opacity:0"/>
	</linearGradient>
	<path id="shade_34_" style="fill:url(#shade_1_);" d="M56.3,80.8c3.7,2.1,3.7,5.5,0,7.7c-3.6,2.1-9.6,2.1-13.2,0
		c-3.7-2.1-3.7-5.5,0-7.7C46.7,78.6,52.6,78.6,56.3,80.8z"/>
	
		<linearGradient id="SVGID_1_" gradientUnits="userSpaceOnUse" x1="753.4756" y1="37.8935" x2="756.7748" y2="37.8935" gradientTransform="matrix(1 0 0 1 -697.9749 0)">
		<stop  offset="0" style="stop-color:#E2E5F4"/>
		<stop  offset="0.2383" style="stop-color:#E4E0ED"/>
		<stop  offset="0.5769" style="stop-color:#EBD1DB"/>
		<stop  offset="0.9741" style="stop-color:#F5BABC"/>
		<stop  offset="1" style="stop-color:#F6B8BA"/>
	</linearGradient>
	<path style="fill:url(#SVGID_1_);" d="M58.8,28.3c0,0-0.8,6.7-0.8,7.6c0,0.9-0.6,8.5-0.9,9.4c-0.2,0.9-1.5,2.9-1.6,2.3
		c-0.1-0.6,0.5-1.5,0.3-2.1c-0.1-0.2,0.3-1,0.3-1.7c-0.1-2.6-0.3-7.3-0.3-8.2c0-1.1,0.3-7.4,0.3-7.4L58.8,28.3z"/>
	
		<linearGradient id="left-arm_1_" gradientUnits="userSpaceOnUse" x1="752.9816" y1="26.6204" x2="757.6026" y2="26.6204" gradientTransform="matrix(1 0 0 1 -697.9749 0)">
		<stop  offset="0" style="stop-color:#4674B8"/>
		<stop  offset="1" style="stop-color:#2A2760"/>
	</linearGradient>
	<path id="left-arm_13_" style="fill:url(#left-arm_1_);" d="M56.7,20.8c0,0,1.7,0,2.4,2.1c0.8,2.1,0.4,8,0.4,8s-1.2,1.4-3.7,1.6
		c0,0-0.6-6.4-0.8-8.2C54.9,22.6,55.4,21.2,56.7,20.8z"/>
	<path id="right-foot_4_" style="fill:#FFFFFF;" d="M43.1,84.3c0,0-0.4,1-0.3,1.3c0.3,0.7,2.8,1.8,3.9,1.6c1-0.2,0.7-1.2-0.1-1.3
		c-0.7-0.1-1.6-1.4-1.6-1.4S44,84.5,43.1,84.3z"/>
	<path id="left-foot_4_" style="fill:#FFFFFF;" d="M53,81.3c0,0-0.4,1-0.3,1.3c0.3,0.7,2.8,1.8,3.9,1.6c1-0.2,0.7-1.2-0.1-1.3
		c-0.7-0.1-1.6-1.4-1.6-1.4S53.9,81.5,53,81.3z"/>
	
		<linearGradient id="suit_2_" gradientUnits="userSpaceOnUse" x1="740.9728" y1="52.8077" x2="756.0051" y2="52.8077" gradientTransform="matrix(1 0 0 1 -697.9749 0)">
		<stop  offset="0" style="stop-color:#E95281"/>
		<stop  offset="1" style="stop-color:#BF3D62"/>
	</linearGradient>
	<path id="suit_1_" style="fill:url(#suit_2_);" d="M56.1,66.6c-0.4,1.9-1.2,14.9-1.2,14.9c-0.6,0.8-2,0.1-2,0.1S51.3,70,52.1,66.5
		c0.6-2.8-0.6-13.1-0.6-13.1s-1.9,10.9-3.4,14.2c-1.3,2.8-3,17.2-3,17.2c-1.5,0.4-2-0.5-2-0.5c0.2-3.2-0.7-13.5,0.8-17.7
		c1.1-3.1,0.3-11.2,0-14.4c-0.3-3.2,0-7.4,0.6-10.1c0.6-2.7,0-8.5-0.6-11.2c-0.6-2.7-0.3-4.6,0.8-5.3c0.3-0.2,0.8-0.5,1.3-0.8
		c1.4-0.9,3.1-2.1,3.1-2.1s4.5-1.5,7.1-1.9c0.3,0,0.5-0.1,0.7-0.1c2.4-0.1,0.7,7,0.6,11.3c-0.1,4.3,0.4,8.8,0.7,12.8
		C58.3,48.8,56.6,64.7,56.1,66.6z"/>
	<g id="right-arm_11_">
		
			<linearGradient id="SVGID_2_" gradientUnits="userSpaceOnUse" x1="741.4296" y1="42.0092" x2="755.6945" y2="42.0092" gradientTransform="matrix(1 0 0 1 -697.9749 0)">
			<stop  offset="0" style="stop-color:#E2E5F4"/>
			<stop  offset="0.2383" style="stop-color:#E4E0ED"/>
			<stop  offset="0.5769" style="stop-color:#EBD1DB"/>
			<stop  offset="0.9741" style="stop-color:#F5BABC"/>
			<stop  offset="1" style="stop-color:#F6B8BA"/>
		</linearGradient>
		<path style="fill:url(#SVGID_2_);" d="M43.5,35.1c0,0,1.1,5.8,2.3,6.8c1.1,0.9,7.8,5.3,8.8,5.6c1.6,0.4,2.1,2.6,2.7,2.3
			c0.9-0.4,0.2-2-0.1-2.5C57,47,55.9,46.8,55,46.2s-6.8-5.4-6.8-5.4l-2.1-6.6L43.5,35.1z"/>
		
			<linearGradient id="right-arm_1_" gradientUnits="userSpaceOnUse" x1="739.3304" y1="31.7691" x2="745.6435" y2="31.7691" gradientTransform="matrix(1 0 0 1 -697.9749 0)">
			<stop  offset="0" style="stop-color:#4674B8"/>
			<stop  offset="1" style="stop-color:#2A2760"/>
		</linearGradient>
		<path id="right-arm_12_" style="fill:url(#right-arm_1_);" d="M44.5,25.6c-1.4,0.8-2.9,2.1-3.1,3.3s1.3,8.6,1.3,8.6s2.2,1.3,5-0.7
			c0,0-1.3-6.2-1.5-8C46.1,26.9,44.5,25.6,44.5,25.6z"/>
	</g>
	
		<linearGradient id="middle-tee_2_" gradientUnits="userSpaceOnUse" x1="743.7573" y1="27.2097" x2="754.4795" y2="27.2097" gradientTransform="matrix(1 0 0 1 -697.9749 0)">
		<stop  offset="0" style="stop-color:#4674B8"/>
		<stop  offset="1" style="stop-color:#2A2760"/>
	</linearGradient>
	<path id="middle-tee_1_" style="fill:url(#middle-tee_2_);" d="M56.1,30.4c-1.6,3.6-7.7,3.2-7.7,3.2s-0.4-2.3-0.6-4.5
		c-0.3-2.9-1.3-3.8-2-4.4c1.4-0.9,3.1-2.1,3.1-2.1s4.5-1.5,7.1-1.9C57.1,23,56.1,30.4,56.1,30.4z"/>
	
		<linearGradient id="face_1_" gradientUnits="userSpaceOnUse" x1="744.4991" y1="19.1313" x2="753.7943" y2="19.1313" gradientTransform="matrix(1 0 0 1 -697.9749 0)">
		<stop  offset="0" style="stop-color:#E2E5F4"/>
		<stop  offset="0.2383" style="stop-color:#E4E0ED"/>
		<stop  offset="0.5769" style="stop-color:#EBD1DB"/>
		<stop  offset="0.9741" style="stop-color:#F5BABC"/>
		<stop  offset="1" style="stop-color:#F6B8BA"/>
	</linearGradient>
	<path id="face_9_" style="fill:url(#face_1_);" d="M48.3,23.1c0,0,1,2.8,3,3.1c2.4,0.3,2.5-0.7,1.9-2.6c0,0,0.9,0.1,1.4-0.1
		c0.5-0.2,0.8-2,1-2.9s0.3-2,0-3c-0.3-1,0.2-2.7-0.4-3.4c-0.6-0.7-3.1-2.9-5.5-1.8c-2.4,1.1-3.6,3.2-3.1,5.5
		c0.3,1.8,1.9,2.7,1.9,2.7S49,22.1,48.3,23.1z"/>
	<path id="hair_9_" style="fill:#1D1D1B;" d="M49.6,17.9c0,0-0.4-0.9,0-1.5c0.4-0.6,1.1-0.8,1.1-0.8s4.3,0.6,4.9-1.2
		c0.6-1.8-0.4-2.2-1.3-2.3c-1-0.1-7.8,4-7.8,4s-0.6,1,0.4,2.6c0,0-0.1-1.5,1.1-1.3c0.7,0.1,1.4,1.1,1.5,1.4
		C49.5,18.9,49.8,18.6,49.6,17.9z"/>
	<g id="hat_5_">
		
			<linearGradient id="SVGID_3_" gradientUnits="userSpaceOnUse" x1="746.8595" y1="17.4693" x2="757.4922" y2="17.4693" gradientTransform="matrix(1 0 0 1 -697.9749 0)">
			<stop  offset="0" style="stop-color:#4674B8"/>
			<stop  offset="1" style="stop-color:#2A2760"/>
		</linearGradient>
		<path style="fill:url(#SVGID_3_);" d="M56.9,15.5c0,0,1.8,0.9,2.3,1.3c1.2,0.9-1.6,3.1-3.9,2.6c-2.6-0.6-5-1.4-6.5-2.5
			C50.5,15.7,56.9,15.5,56.9,15.5z"/>
		
			<linearGradient id="SVGID_4_" gradientUnits="userSpaceOnUse" x1="744.3007" y1="13.8344" x2="754.9146" y2="13.8344" gradientTransform="matrix(1 0 0 1 -697.9749 0)">
			<stop  offset="0" style="stop-color:#4674B8"/>
			<stop  offset="1" style="stop-color:#2A2760"/>
		</linearGradient>
		<path style="fill:url(#SVGID_4_);" d="M46.5,16.1c0,0.1,4.1,2.3,7.7,1.4c1.1-0.3,2.9-1,2.8-2.3c-0.2-2.9-0.9-5-5.6-5.2
			C48.1,9.9,45.8,12.7,46.5,16.1z"/>
	</g>
</g>
</svg>
