<?xml version="1.0" encoding="utf-8"?>
<!-- Generator: Adobe Illustrator 23.0.1, SVG Export Plug-In . SVG Version: 6.00 Build 0)  -->
<svg version="1.1" id="Layer_1" xmlns="http://www.w3.org/2000/svg" xmlns:xlink="http://www.w3.org/1999/xlink" x="0px" y="0px"
	 viewBox="0 0 100 100" style="enable-background:new 0 0 100 100;" xml:space="preserve">
<g id="shoes_8_">
	<g id="shoes_9_">
		<g id="_x32__14_">
			<linearGradient id="SVGID_1_" gradientUnits="userSpaceOnUse" x1="75.8623" y1="59.7" x2="76.6514" y2="59.7">
				<stop  offset="5.618000e-03" style="stop-color:#000000"/>
				<stop  offset="1" style="stop-color:#4E4D4D"/>
			</linearGradient>
			<path style="fill:url(#SVGID_1_);" d="M76.7,58c-0.1,0.1-0.2,0.3-0.4,0.4l0,0c-0.2,0.5-0.4,3-0.4,3s0.2,0,0.3-0.4
				C76.2,60.7,76.4,58.8,76.7,58z"/>
			<linearGradient id="SVGID_2_" gradientUnits="userSpaceOnUse" x1="75.4678" y1="60.05" x2="76.2899" y2="60.05">
				<stop  offset="5.618000e-03" style="stop-color:#000000"/>
				<stop  offset="1" style="stop-color:#4E4D4D"/>
			</linearGradient>
			<path style="fill:url(#SVGID_2_);" d="M76.3,58.5c-0.2,0.2-0.3,0.5-0.5,0.7l0,0c0,0-0.2,1.6-0.3,2l0.4,0.4
				C75.9,61.5,76.1,58.9,76.3,58.5z"/>
			<linearGradient id="SVGID_3_" gradientUnits="userSpaceOnUse" x1="70.3495" y1="59.2391" x2="77.0457" y2="59.2391">
				<stop  offset="0" style="stop-color:#E95281"/>
				<stop  offset="1" style="stop-color:#BF3D62"/>
			</linearGradient>
			<path style="fill:url(#SVGID_3_);" d="M76.3,58.5c0.1-0.2,0.3-0.3,0.4-0.4c0.3-0.3,0.3-0.5,0.4-0.8c0-0.3-0.1-1-0.5-1.4
				c-0.1-0.2-0.3-0.3-0.5-0.4C74.9,55,74,56.2,74,56.2s-0.3,0.3-0.5,1.2c-0.2,0.8-0.7,2-1.2,2.8c-0.3,0.4-1.5,1.3-1.8,1.8
				c-0.3,0.6,0.3,1.1,1.8,1.1s2.4-1,2.5-1.2c0.2-0.2,0.5-1.3,0.6-1.6c0.1-0.2,0.2-0.6,0.4-1.1C75.9,58.9,76.1,58.7,76.3,58.5
				L76.3,58.5z"/>
			<linearGradient id="SVGID_4_" gradientUnits="userSpaceOnUse" x1="73.8569" y1="56.2796" x2="76.5053" y2="56.2796">
				<stop  offset="0" style="stop-color:#E95281"/>
				<stop  offset="1" style="stop-color:#BF3D62"/>
			</linearGradient>
			<path style="fill:url(#SVGID_4_);" d="M75.3,56.7c-0.4,0-0.8,0.6-1.3,0.5c-0.4-0.1-0.2-0.8,0-1c0.4-0.6,1.3-1,1.9-0.8
				c0.2,0.1,0.4,0.2,0.5,0.4C76.6,56.1,76.5,56.7,75.3,56.7z"/>
		</g>
		<g id="_x31__16_">
			<linearGradient id="SVGID_5_" gradientUnits="userSpaceOnUse" x1="78.3968" y1="60.6" x2="78.7274" y2="60.6">
				<stop  offset="5.618000e-03" style="stop-color:#000000"/>
				<stop  offset="1" style="stop-color:#4E4D4D"/>
			</linearGradient>
			<path style="fill:url(#SVGID_5_);" d="M78.7,58.8c-0.1,0.1-0.2,0.3-0.3,0.5l0,0c-0.1,0.5,0.1,3.1,0.1,3.1s0.2-0.1,0.2-0.5
				C78.7,61.5,78.5,59.6,78.7,58.8z"/>
			<linearGradient id="SVGID_6_" gradientUnits="userSpaceOnUse" x1="78.0735" y1="60.85" x2="78.5242" y2="60.85">
				<stop  offset="5.618000e-03" style="stop-color:#000000"/>
				<stop  offset="1" style="stop-color:#4E4D4D"/>
			</linearGradient>
			<path style="fill:url(#SVGID_6_);" d="M78.4,59.3c-0.1,0.3-0.3,0.5-0.3,0.8l0,0c0,0,0,1.6,0,2l0.5,0.3
				C78.5,62.3,78.3,59.7,78.4,59.3z"/>
			<linearGradient id="SVGID_7_" gradientUnits="userSpaceOnUse" x1="73.2174" y1="60.4656" x2="78.9442" y2="60.4656">
				<stop  offset="0" style="stop-color:#E95281"/>
				<stop  offset="1" style="stop-color:#BF3D62"/>
			</linearGradient>
			<path style="fill:url(#SVGID_7_);" d="M78.4,59.3c0.1-0.2,0.2-0.4,0.3-0.5c0.2-0.4,0.3-0.5,0.2-0.8c0-0.3-0.3-0.9-0.7-1.3
				c-0.2-0.2-0.4-0.3-0.6-0.3c-1.2-0.2-1.9,1.1-1.9,1.1s-0.2,0.4-0.3,1.2c0,0.8-0.3,2.1-0.7,2.9c-0.2,0.4-1.2,1.5-1.5,2.1
				c-0.2,0.6,0.5,1,1.9,0.8s2.2-1.4,2.3-1.6c0.1-0.3,0.3-1.4,0.3-1.7c0-0.2,0.1-0.7,0.2-1.2C78.2,59.8,78.3,59.5,78.4,59.3
				L78.4,59.3z"/>
			<linearGradient id="SVGID_8_" gradientUnits="userSpaceOnUse" x1="75.7414" y1="57.4" x2="78.2089" y2="57.4">
				<stop  offset="0" style="stop-color:#E95281"/>
				<stop  offset="1" style="stop-color:#BF3D62"/>
			</linearGradient>
			<path style="fill:url(#SVGID_8_);" d="M77.2,57.7c-0.4,0.1-0.7,0.8-1.1,0.8s-0.3-0.7-0.2-1c0.3-0.7,1.1-1.2,1.7-1.2
				c0.2,0,0.4,0.1,0.6,0.3C78.3,56.9,78.3,57.5,77.2,57.7z"/>
		</g>
	</g>
</g>
</svg>
