<?xml version="1.0" encoding="utf-8"?>
<!-- Generator: Adobe Illustrator 23.0.1, SVG Export Plug-In . SVG Version: 6.00 Build 0)  -->
<svg version="1.1" id="Layer_1" xmlns="http://www.w3.org/2000/svg" xmlns:xlink="http://www.w3.org/1999/xlink" x="0px" y="0px"
	 viewBox="0 0 100 100" style="enable-background:new 0 0 100 100;" xml:space="preserve">
<g id="shoes_10_">
	<g id="base_40_">
		<g style="opacity:0.24;">
			
				<linearGradient id="SVGID_1_" gradientUnits="userSpaceOnUse" x1="1056.6851" y1="53.4113" x2="1053.4178" y2="47.7523" gradientTransform="matrix(1 0 0 -1 -980.212 100)">
				<stop  offset="0" style="stop-color:#6485C3;stop-opacity:0"/>
				<stop  offset="0.2111" style="stop-color:#6A8BC6;stop-opacity:0.1266"/>
				<stop  offset="0.4949" style="stop-color:#7A9CCF;stop-opacity:0.297"/>
				<stop  offset="0.8189" style="stop-color:#95B8DE;stop-opacity:0.4913"/>
				<stop  offset="1" style="stop-color:#A7CBE8;stop-opacity:0.6"/>
			</linearGradient>
			<path style="fill:url(#SVGID_1_);" d="M80.7,49c0.4,0.2,0.4,0.5,0,0.8l-5.2,3c-0.4,0.2-0.9,0.2-1.3,0l-5.2-3
				c-0.4-0.2-0.4-0.5,0-0.8l5.2-3c0.4-0.2,0.9-0.2,1.3,0L80.7,49z"/>
		</g>
		<g>
			
				<linearGradient id="SVGID_2_" gradientUnits="userSpaceOnUse" x1="1048.8851" y1="52.8" x2="1061.1852" y2="52.8" gradientTransform="matrix(1 0 0 -1 -980.212 100)">
				<stop  offset="0" style="stop-color:#FFFFFF"/>
				<stop  offset="0.3662" style="stop-color:#FCFDFE"/>
				<stop  offset="0.6134" style="stop-color:#F3F8FD"/>
				<stop  offset="0.8248" style="stop-color:#E4EFFA"/>
				<stop  offset="1" style="stop-color:#D1E4F6"/>
			</linearGradient>
			<path style="fill:url(#SVGID_2_);" d="M80.7,46.8c0.4,0.2,0.4,0.5,0,0.8l-5.2,3c-0.4,0.2-0.9,0.2-1.3,0l-5.2-3
				c-0.4-0.2-0.4-0.5,0-0.8l5.2-3c0.4-0.2,0.9-0.2,1.3,0L80.7,46.8z"/>
		</g>
		<g>
			
				<linearGradient id="SVGID_3_" gradientUnits="userSpaceOnUse" x1="1049.424" y1="52.8" x2="1060.649" y2="52.8" gradientTransform="matrix(1 0 0 -1 -980.212 100)">
				<stop  offset="0" style="stop-color:#315CA7"/>
				<stop  offset="1" style="stop-color:#32BDEF"/>
			</linearGradient>
			<path style="fill:url(#SVGID_3_);" d="M74.8,50.3c-0.2,0-0.3,0-0.4-0.1l-5.2-3l5.2-3c0.1-0.1,0.3-0.1,0.4-0.1
				c0.2,0,0.3,0,0.4,0.1l5.2,3l-5.2,3C75.2,50.2,75,50.3,74.8,50.3z"/>
		</g>
		
			<linearGradient id="SVGID_4_" gradientUnits="userSpaceOnUse" x1="1048.882" y1="50.9" x2="1061.1884" y2="50.9" gradientTransform="matrix(1 0 0 -1 -980.212 100)">
			<stop  offset="0" style="stop-color:#315CA7"/>
			<stop  offset="1" style="stop-color:#32BDEF"/>
		</linearGradient>
		<path style="fill:url(#SVGID_4_);" d="M81,47.2L81,47.2L81,47.2C81,47.2,81,47.3,81,47.2C81,47.3,81,47.3,81,47.2L81,47.2L81,47.2
			L81,47.2L81,47.2L81,47.2L81,47.2L81,47.2L81,47.2L81,47.2L81,47.2L81,47.2l-5.2,3.1h-0.1l0,0c0,0,0,0-0.1,0l0,0l0,0l0,0
			c0,0,0,0-0.1,0l0,0h-0.1l0,0c0,0,0,0-0.1,0l0,0c0,0,0,0-0.1,0l0,0l0,0l0,0l0,0l0,0l0,0l0,0c0,0,0,0-0.1,0l0,0H75l0,0
			c0,0-0.1,0-0.1-0.1l-5.2-3c-0.2-0.1-0.3-0.2-0.3-0.4v1.1c0,0.1,0.1,0.3,0.3,0.4l5.2,3c0,0,0.1,0,0.1,0.1l0,0l0,0h0.1l0,0l0,0
			c0,0,0,0,0.1,0l0,0l0,0l0,0l0,0l0,0l0,0l0,0l0,0l0,0l0,0l0,0c0,0,0,0,0.1,0l0,0l0,0c0,0,0,0,0.1,0l0,0l0,0h0.1l0,0l0,0
			c0,0,0,0,0.1,0l0,0l0,0l0,0l0,0c0,0,0,0,0.1,0l0,0h0.1l5.2-3l0,0l0,0l0,0l0,0l0,0l0,0l0,0l0,0l0,0l0,0l0,0l0,0l0,0l0,0l0,0l0,0
			l0,0l0,0l0,0l0,0l0,0l0,0l0,0V47.2z"/>
	</g>
	<g id="shoes_11_">
		<g id="shoe_3_">
			
				<linearGradient id="SVGID_5_" gradientUnits="userSpaceOnUse" x1="1051.1364" y1="54.2843" x2="1057.2007" y2="54.2843" gradientTransform="matrix(1 0 0 -1 -980.212 100)">
				<stop  offset="5.618000e-03" style="stop-color:#FAFCFF"/>
				<stop  offset="1" style="stop-color:#E5E8F5"/>
			</linearGradient>
			<path style="fill:url(#SVGID_5_);" d="M77,44.7c-0.1,0.1-0.2,0.4-0.7,0.4c-0.8,0.1-1.2,0.3-1.5,0.6s-0.9,0.7-1.6,0.7
				c-0.1,0-0.1,0-0.2,0c-0.7-0.1-1.5-0.3-1.8-0.7c-0.1-0.2-0.2-0.4-0.2-0.6l0,0c0,0-0.5,0.9,0.5,1.3c1,0.4,1.7,0.4,2.2,0.2
				s1.1-0.7,1.4-0.9c0.3-0.1,1.1-0.2,1.4-0.3C76.9,45.4,77,45.2,77,44.7L77,44.7z"/>
			
				<linearGradient id="SVGID_6_" gradientUnits="userSpaceOnUse" x1="1051.238" y1="56.2" x2="1057.2328" y2="56.2" gradientTransform="matrix(1 0 0 -1 -980.212 100)">
				<stop  offset="0" style="stop-color:#E95281"/>
				<stop  offset="1" style="stop-color:#BF3D62"/>
			</linearGradient>
			<path style="fill:url(#SVGID_6_);" d="M77,44.7L77,44.7c-0.1,0.2-0.3,0.4-0.8,0.5c-0.8,0.1-1.2,0.3-1.5,0.6s-0.9,0.7-1.6,0.7
				c-0.1,0-0.1,0-0.2,0c-0.7-0.1-1.5-0.3-1.8-0.7c-0.1-0.2-0.2-0.4-0.2-0.6l0,0c0-0.2,0.2-0.5,0.7-0.6c0.1,0,0.2,0,0.3-0.1H72
				c0.6-0.1,1.2-0.3,1.5-0.7c0.4-0.5,0.9-1.6,0.9-2.7c0,0,1.1,0.2,1.6,0.1c0.5-0.2,0.7,0.2,0.6,0.5l0,0c-0.1,0.3-0.1,1.3,0.1,1.9
				C77.1,44.2,77,44.7,77,44.7z"/>
			
				<linearGradient id="SVGID_7_" gradientUnits="userSpaceOnUse" x1="1054.9813" y1="58.358" x2="1056.9995" y2="58.358" gradientTransform="matrix(1 0 0 -1 -980.212 100)">
				<stop  offset="5.618000e-03" style="stop-color:#FAFCFF"/>
				<stop  offset="1" style="stop-color:#E5E8F5"/>
			</linearGradient>
			<path style="fill:url(#SVGID_7_);" d="M76.8,41.6c0,0.1-0.2,0.3-0.3,0.4c-0.4,0.3-1.2-0.3-1.2-0.3l-0.5-0.5c0,0,0.9,0.3,1.4,0.1
				C76.6,41.1,76.8,41.3,76.8,41.6z"/>
			
				<linearGradient id="SVGID_8_" gradientUnits="userSpaceOnUse" x1="1052.3813" y1="56.75" x2="1055.4403" y2="56.75" gradientTransform="matrix(1 0 0 -1 -980.212 100)">
				<stop  offset="5.618000e-03" style="stop-color:#FAFCFF"/>
				<stop  offset="1" style="stop-color:#E5E8F5"/>
			</linearGradient>
			<path style="fill:url(#SVGID_8_);" d="M75.2,41.7c0-0.1-0.2-0.4-0.6-0.5c0,1.2-0.5,2.2-0.9,2.7c-0.4,0.4-0.9,0.5-1.5,0.7
				c0.2,0.1,0.5,0.2,0.8,0.7c0.3-0.1,1.2-0.5,1.6-1.2C74.9,43.1,75.2,41.8,75.2,41.7z"/>
			
				<linearGradient id="SVGID_9_" gradientUnits="userSpaceOnUse" x1="1051.2377" y1="54.55" x2="1053.4156" y2="54.55" gradientTransform="matrix(1 0 0 -1 -980.212 100)">
				<stop  offset="5.618000e-03" style="stop-color:#FAFCFF"/>
				<stop  offset="1" style="stop-color:#E5E8F5"/>
			</linearGradient>
			<path style="fill:url(#SVGID_9_);" d="M72.2,44.5c-0.2,0-0.3,0.1-0.5,0.1c-0.8,0.2-0.8,0.8-0.5,1.1c0.3,0.4,1.1,0.6,1.8,0.7
				c0.1,0,0.1,0,0.2,0c0-0.3,0-0.7-0.2-1.2c0,0,0,0,0-0.1C72.7,44.8,72.4,44.6,72.2,44.5z"/>
			<g>
				<path d="M73.1,44.9L73.1,44.9c0-0.1,0.1-0.2,0.1-0.4c0.2,0,0.2,0.1,0.2,0.1l0,0l0,0c0-0.1,0-0.2,0-0.3c0.1,0,0.2,0,0.3,0.1l0,0
					l0,0c0-0.1,0-0.2,0-0.4c0.2,0,0.3,0,0.3,0l0,0l0,0c0-0.1,0-0.2,0-0.3c0.1,0,0.2-0.1,0.3-0.1l0,0l0,0c0,0,0-0.2-0.1-0.3
					c0.1,0,0.2-0.1,0.3-0.1l0,0l0,0c0-0.1-0.1-0.2-0.1-0.3c0.1-0.1,0.2-0.1,0.3-0.1l0,0l0,0c0,0-0.3-0.3-0.3-0.5l0,0l0,0
					c0,0,0,0.4,0,0.7c-0.1,0.1-0.2,0.1-0.2,0.1l0,0c0,0.1,0,0.2,0,0.3c-0.1,0-0.2,0.1-0.2,0.1l0,0c0,0-0.1,0.1-0.1,0.3
					c-0.1,0-0.2,0.1-0.2,0.1l0,0c0,0,0,0.1,0,0.2c-0.1,0-0.2,0-0.3,0.1l0,0c0,0,0,0.1-0.1,0.2c-0.1,0-0.3,0-0.3,0l0,0l0,0v0.1
					c-0.1,0-0.2,0-0.3,0l0,0l0,0L73.1,44.9L73.1,44.9L73.1,44.9z M73.1,44.6c0,0.1,0,0.2,0,0.2l-0.2-0.2C73,44.6,73,44.6,73.1,44.6z
					 M73.2,44.5L73.2,44.5c0.1-0.1,0.1-0.1,0.2-0.1c0,0.1,0,0.1,0,0.2C73.4,44.5,73.3,44.5,73.2,44.5L73.2,44.5z M73.5,44.3
					c0-0.1,0-0.1,0-0.2c0.1,0,0.1,0,0.2-0.1c0,0.1,0,0.2,0,0.3C73.7,44.3,73.7,44.3,73.5,44.3C73.6,44.3,73.6,44.3,73.5,44.3z
					 M74.1,43.7c0,0.1,0,0.1,0,0.2c-0.1,0-0.1,0-0.2,0c0-0.1,0-0.1,0-0.1C73.9,43.8,74,43.8,74.1,43.7z M74.4,43.3
					c0,0.1,0,0.2,0.1,0.3c-0.1,0-0.2,0-0.2,0.1c0-0.1,0-0.2,0.1-0.2C74.2,43.4,74.3,43.3,74.4,43.3z M74.5,42.9c0,0.1,0,0.2,0.1,0.2
					c0,0-0.1,0-0.2,0.1C74.4,43.1,74.4,43,74.5,42.9C74.4,42.9,74.5,42.9,74.5,42.9z M74.8,42.6c-0.1,0-0.1,0.1-0.2,0.1
					c0-0.1,0-0.3,0-0.4C74.7,42.5,74.7,42.6,74.8,42.6z"/>
			</g>
			<path d="M75.1,43c0,0.1-0.1,0.2-0.2,0.2c0,0.1,0,0.2-0.1,0.2c-0.2,0.3-0.1,0.7-0.1,0.7l0,0l0,0l0,0c0,0-0.1-0.4,0.1-0.7v-0.1
				c0,0,0,0-0.1,0c0,0-0.1,0-0.1-0.1c-0.1-0.1-0.2-0.3-0.2-0.6c-0.2,0.4-0.3,0.6-0.5,0.7c-0.3,0.1-0.2,0.3-0.2,0.3s0,0,0,0.1
				c0,0,0,0-0.1,0c0,0-0.1-0.3,0.3-0.4c0.2-0.1,0.4-0.5,0.5-0.9v-0.1c0,0.1-0.1,0.1-0.1,0.2c-0.1,0.1-0.2,0.3-0.2,0.3
				c-0.1,0.1-0.1,0.1-0.2,0.1c0,0-0.1,0-0.1-0.1c-0.1-0.1-0.1-0.2,0-0.4c0.2-0.4,0.8-0.5,0.8-0.5l0,0l0,0l0,0l0,0l0,0l0,0l0,0l0,0
				l0,0l0,0l0,0l0,0l0,0l0,0l0,0l0,0l0,0C74.8,41.8,75.3,42.6,75.1,43z M74.7,41.9c-0.2,0.1-0.5,0.2-0.7,0.4c-0.1,0.1-0.1,0.2,0,0.3
				c0.1,0,0.2,0.1,0.2,0c0,0,0.1-0.2,0.2-0.3C74.5,42.2,74.6,42,74.7,41.9z M74.9,43.2c0-0.4-0.1-0.9-0.1-1.2c0,0.1-0.1,0.2-0.1,0.3
				c-0.1,0.4,0,0.7,0.1,0.8C74.8,43.2,74.8,43.2,74.9,43.2z M74.9,42.1c0.1,0.3,0.1,0.7,0.1,1l0.1-0.1C75.1,42.7,75,42.4,74.9,42.1z
				"/>
		</g>
		<g id="shoe_2_">
			
				<linearGradient id="SVGID_10_" gradientUnits="userSpaceOnUse" x1="1053.208" y1="53.3258" x2="1059.0881" y2="53.3258" gradientTransform="matrix(1 0 0 -1 -980.212 100)">
				<stop  offset="5.618000e-03" style="stop-color:#FAFCFF"/>
				<stop  offset="1" style="stop-color:#E5E8F5"/>
			</linearGradient>
			<path style="fill:url(#SVGID_10_);" d="M78.9,45.4c0,0.1-0.2,0.4-0.7,0.5c-0.8,0.2-1.2,0.5-1.4,0.8c-0.2,0.3-0.8,0.8-1.4,0.9
				c-0.1,0-0.1,0-0.2,0c-0.7,0-1.5,0-1.9-0.4C73.1,47,73,46.8,73,46.6l0,0c0,0-0.3,0.9,0.7,1.2s1.7,0.1,2.2-0.2s1-0.9,1.3-1.1
				c0.3-0.2,1.1-0.3,1.3-0.5C78.8,46,78.9,45.8,78.9,45.4L78.9,45.4z"/>
			
				<linearGradient id="SVGID_11_" gradientUnits="userSpaceOnUse" x1="1053.2568" y1="55.2392" x2="1059.0883" y2="55.2392" gradientTransform="matrix(1 0 0 -1 -980.212 100)">
				<stop  offset="0" style="stop-color:#E95281"/>
				<stop  offset="1" style="stop-color:#BF3D62"/>
			</linearGradient>
			<path style="fill:url(#SVGID_11_);" d="M78.9,45.3L78.9,45.3c-0.1,0.2-0.2,0.4-0.7,0.6c-0.8,0.2-1.2,0.5-1.4,0.8
				c-0.2,0.3-0.8,0.8-1.4,0.9c-0.1,0-0.1,0-0.2,0c-0.7,0-1.5,0-1.9-0.4C73.1,47,73,46.8,73,46.6l0,0c0-0.2,0.2-0.5,0.6-0.6
				c0.1,0,0.2-0.1,0.3-0.1H74c0.6-0.2,1.1-0.5,1.4-0.9c0.4-0.5,0.6-1.7,0.5-2.8c0,0,1.1,0,1.6-0.2c0.4-0.2,0.7,0,0.7,0.4l0,0
				c-0.1,0.3,0.1,1.3,0.3,1.9C78.9,44.8,78.9,45.3,78.9,45.3z"/>
			
				<linearGradient id="SVGID_12_" gradientUnits="userSpaceOnUse" x1="1056.3507" y1="57.5962" x2="1058.4077" y2="57.5962" gradientTransform="matrix(1 0 0 -1 -980.212 100)">
				<stop  offset="5.618000e-03" style="stop-color:#FAFCFF"/>
				<stop  offset="1" style="stop-color:#E5E8F5"/>
			</linearGradient>
			<path style="fill:url(#SVGID_12_);" d="M78.2,42.3c0,0.1-0.1,0.3-0.3,0.4c-0.3,0.3-1.3-0.1-1.3-0.1l-0.5-0.4c0,0,0.9,0.1,1.4-0.1
				C78,41.9,78.2,42,78.2,42.3z"/>
			
				<linearGradient id="SVGID_13_" gradientUnits="userSpaceOnUse" x1="1054.2825" y1="55.65" x2="1056.8824" y2="55.65" gradientTransform="matrix(1 0 0 -1 -980.212 100)">
				<stop  offset="5.618000e-03" style="stop-color:#FAFCFF"/>
				<stop  offset="1" style="stop-color:#E5E8F5"/>
			</linearGradient>
			<path style="fill:url(#SVGID_13_);" d="M76.7,42.6c0-0.1-0.3-0.4-0.7-0.4c0.1,1.2-0.1,2.3-0.5,2.8c-0.3,0.4-0.8,0.7-1.4,0.9
				c0.2,0,0.6,0.2,0.9,0.6c0.3-0.2,1.1-0.7,1.4-1.5C76.6,44,76.7,42.7,76.7,42.6z"/>
			
				<linearGradient id="SVGID_14_" gradientUnits="userSpaceOnUse" x1="1053.2563" y1="53.2" x2="1055.5731" y2="53.2" gradientTransform="matrix(1 0 0 -1 -980.212 100)">
				<stop  offset="5.618000e-03" style="stop-color:#FAFCFF"/>
				<stop  offset="1" style="stop-color:#E5E8F5"/>
			</linearGradient>
			<path style="fill:url(#SVGID_14_);" d="M74.1,45.9C74,46,73.8,46,73.7,46.1c-0.8,0.3-0.7,0.9-0.3,1.2c0.3,0.3,1.2,0.4,1.9,0.4
				c0.1,0,0.1,0,0.2,0c0-0.3-0.1-0.7-0.4-1.1c0,0,0,0,0-0.1C74.6,46.1,74.3,45.9,74.1,45.9z"/>
			<g>
				<path d="M75.1,46.1L75.1,46.1c0-0.1,0-0.2,0-0.4c0.2,0,0.2,0.1,0.2,0.1s0,0,0.1,0l0,0c0-0.1,0-0.2,0-0.3c0.1,0,0.2,0,0.3,0l0,0
					l0,0c0-0.1,0-0.2,0-0.4c0.1,0,0.3,0,0.3,0l0,0l0,0c0-0.1-0.1-0.2-0.1-0.3c0.1-0.1,0.2-0.1,0.3-0.1l0,0l0,0c0,0-0.1-0.2-0.1-0.3
					c0.1-0.1,0.2-0.1,0.2-0.1l0,0l0,0c-0.1-0.1-0.1-0.1-0.1-0.2c0.1-0.1,0.2-0.1,0.2-0.2l0,0l0,0c0,0-0.3-0.2-0.4-0.5l0,0l0,0
					c0,0,0,0.4,0.1,0.7C76,44.2,76,44.2,76,44.2l0,0c0,0.1,0,0.2,0,0.3c-0.1,0.1-0.1,0.1-0.2,0.2l0,0c0,0,0,0.1,0,0.3
					c-0.1,0.1-0.2,0.1-0.2,0.1l0,0c0,0,0,0.1,0,0.2c-0.1,0-0.2,0.1-0.3,0.1l0,0c0,0,0,0.1,0,0.2c-0.1,0-0.3,0.1-0.3,0.1l0,0l0,0v0.1
					c-0.1,0-0.2,0-0.3,0.1l0,0l0,0L75.1,46.1C75,46.1,75,46.1,75.1,46.1C75,46.1,75,46.1,75.1,46.1z M75,45.8c0,0.1,0,0.2,0,0.2
					l-0.2-0.2C74.9,45.8,74.9,45.8,75,45.8z M75.1,45.7L75.1,45.7c0.1-0.1,0.1-0.1,0.2-0.1c0,0.1,0,0.1,0,0.2
					C75.3,45.7,75.2,45.7,75.1,45.7L75.1,45.7z M75.4,45.4c0-0.1,0-0.2,0-0.2c0.1,0,0.1-0.1,0.2-0.1c0,0.1,0,0.2,0,0.3
					C75.6,45.4,75.5,45.4,75.4,45.4L75.4,45.4z M75.8,44.8c0,0.1,0,0.1,0.1,0.2c-0.1,0-0.1,0-0.2,0c0-0.1,0-0.1,0-0.1
					C75.7,44.9,75.8,44.9,75.8,44.8z M76,44.4c0,0.1,0.1,0.2,0.1,0.3c-0.1,0-0.2,0.1-0.2,0.1c0-0.1,0-0.2,0-0.2
					C75.9,44.4,76,44.4,76,44.4z M76.2,43.9c0,0.1,0.1,0.1,0.1,0.2c0,0-0.1,0.1-0.2,0.1C76.1,44.1,76.1,44,76.2,43.9
					C76.1,44,76.1,43.9,76.2,43.9z M76.4,43.6c-0.1,0-0.1,0.1-0.2,0.1c0-0.1-0.1-0.3-0.1-0.4C76.2,43.5,76.3,43.6,76.4,43.6z"/>
			</g>
			<path d="M76.8,43.9c0,0.1-0.1,0.2-0.1,0.2c0,0.1,0,0.2,0,0.2c-0.1,0.4,0,0.7,0,0.7s0,0,0,0.1l0,0l0,0c0,0-0.1-0.4,0-0.8
				c0,0,0-0.1,0-0.2c0,0,0,0-0.1,0c0,0-0.1,0-0.1-0.1c-0.1-0.1-0.2-0.3-0.3-0.6c-0.1,0.4-0.2,0.7-0.4,0.7c-0.3,0.1-0.2,0.4-0.2,0.4
				s0,0,0,0.1c0,0,0,0-0.1,0c0,0-0.1-0.3,0.2-0.5c0.2-0.1,0.3-0.5,0.4-0.9c0,0,0-0.1,0-0.2c0,0.1-0.1,0.1-0.1,0.2
				c-0.1,0.2-0.1,0.3-0.1,0.3c0,0.1-0.1,0.1-0.2,0.1h-0.1c-0.1-0.1-0.2-0.2-0.1-0.4c0.2-0.4,0.7-0.6,0.7-0.6l0,0l0,0l0,0l0,0l0,0
				l0,0l0,0l0,0l0,0l0,0l0,0l0,0l0,0l0,0l0,0l0,0l0,0C76.3,42.8,76.8,43.5,76.8,43.9z M76.1,42.9c-0.2,0.1-0.5,0.3-0.6,0.5
				c-0.1,0.1-0.1,0.2,0,0.3c0.1,0,0.2,0,0.2-0.1c0,0,0.1-0.2,0.1-0.3C76,43.2,76.1,43,76.1,42.9z M76.6,44.1c0-0.4-0.2-0.9-0.3-1.2
				c0,0.1,0,0.2-0.1,0.4c0,0.4,0.1,0.7,0.2,0.8C76.5,44.1,76.5,44.1,76.6,44.1z M76.4,43.1c0.1,0.3,0.2,0.7,0.3,1c0,0,0-0.1,0.1-0.1
				C76.7,43.7,76.5,43.3,76.4,43.1z"/>
		</g>
	</g>
</g>
</svg>
