<?xml version="1.0" encoding="utf-8"?>
<!-- Generator: Adobe Illustrator 23.0.1, SVG Export Plug-In . SVG Version: 6.00 Build 0)  -->
<svg version="1.1" id="Layer_1" xmlns="http://www.w3.org/2000/svg" xmlns:xlink="http://www.w3.org/1999/xlink" x="0px" y="0px"
	 viewBox="0 0 100 100" style="enable-background:new 0 0 100 100;" xml:space="preserve">
<style type="text/css">
	.st0{opacity:0.4;}
	.st1{fill:url(#SVGID_1_);}
	.st2{fill:url(#SVGID_2_);}
	.st3{fill:#FFFFFF;}
	.st4{fill:url(#SVGID_3_);}
	.st5{fill:none;stroke:#000000;stroke-width:5.844820e-02;stroke-miterlimit:10;}
</style>
<g id="box_29_">
	<g class="st0">
		
			<linearGradient id="SVGID_1_" gradientUnits="userSpaceOnUse" x1="-225.8151" y1="540.1091" x2="-225.8151" y2="529.3597" gradientTransform="matrix(-0.7862 -1.3425 1.1734 -0.6871 -752.4895 135.8318)">
			<stop  offset="0" style="stop-color:#252F62"/>
			<stop  offset="0.1575" style="stop-color:#263467;stop-opacity:0.8425"/>
			<stop  offset="0.3432" style="stop-color:#294275;stop-opacity:0.6568"/>
			<stop  offset="0.5431" style="stop-color:#2F598D;stop-opacity:0.4569"/>
			<stop  offset="0.7531" style="stop-color:#3679AE;stop-opacity:0.2469"/>
			<stop  offset="0.9689" style="stop-color:#3FA1D8;stop-opacity:3.109598e-02"/>
			<stop  offset="1" style="stop-color:#41A8DF;stop-opacity:0"/>
		</linearGradient>
		<path class="st1" d="M61.9,75.2c0.5,0.3,0.5,0.8,0.1,1l-6.6,3.9c-0.5,0.3-1.2,0.2-1.7-0.1l-7.1-4.4c-0.5-0.3-0.5-0.8-0.1-1
			L53.1,61c0.5-0.3,1.2-0.2,1.7,0.1L61.9,75.2z"/>
	</g>
	<g>
		
			<linearGradient id="SVGID_2_" gradientUnits="userSpaceOnUse" x1="-861.8825" y1="43.4964" x2="-861.8825" y2="19.7228" gradientTransform="matrix(-1 0 0 -1 -804.3325 100)">
			<stop  offset="0" style="stop-color:#4489C8"/>
			<stop  offset="0.3758" style="stop-color:#259FD9"/>
			<stop  offset="0.7681" style="stop-color:#0AB1E8"/>
			<stop  offset="1" style="stop-color:#00B8ED"/>
		</linearGradient>
		<path class="st2" d="M61,56.6c0.5-0.3,0.9-0.1,0.9,0.5v17.6c0,0.5-0.4,1.2-0.9,1.5l-6.9,4c-0.5,0.3-0.9,0.1-0.9-0.5V62.1
			c0-0.5,0.4-1.2,0.9-1.5L61,56.6z"/>
	</g>
	<polygon class="st3" points="54.1,61.6 55.6,60.7 55.6,62.5 54.1,63.4 	"/>
	<polygon class="st3" points="55.9,60.6 57.5,59.7 57.5,61.5 55.9,62.4 	"/>
	
		<linearGradient id="SVGID_3_" gradientUnits="userSpaceOnUse" x1="-857.6325" y1="19.781" x2="-857.6325" y2="48.4733" gradientTransform="matrix(-1 0 0 -1 -804.3325 100)">
		<stop  offset="6.778585e-03" style="stop-color:#92D4F6"/>
		<stop  offset="0.2627" style="stop-color:#A5DBF4"/>
		<stop  offset="0.7343" style="stop-color:#C4E5F1"/>
		<stop  offset="1" style="stop-color:#CFE9F0"/>
	</linearGradient>
	<path class="st4" d="M61.6,56.5C61.6,56.5,61.5,56.5,61.6,56.5C61.5,56.5,61.5,56.5,61.6,56.5C61.5,56.5,61.5,56.5,61.6,56.5
		C61.5,56.5,61.5,56.5,61.6,56.5C61.5,56.5,61.5,56.5,61.6,56.5C61.5,56.5,61.5,56.5,61.6,56.5L61.6,56.5L61.6,56.5L61.6,56.5
		L61.6,56.5c-0.1,0-0.1,0-0.2,0l0,0l0,0l0,0l0,0l0,0c0,0,0,0-0.1,0l0,0c0,0,0,0-0.1,0c0,0,0,0-0.1,0l-6.9,4c0,0,0,0-0.1,0
		c0,0,0,0-0.1,0l0,0l0,0c0,0,0,0-0.1,0l0,0c0,0,0,0-0.1,0.1l0,0c0,0,0,0-0.1,0.1l0,0l0,0l0,0l0,0l0,0c0,0,0,0,0,0.1l0,0
		c0,0,0,0.1-0.1,0.1l0,0V61l0,0v0.1l0,0v0.1l0,0c0,0,0,0,0,0.1l0,0c0,0,0,0,0,0.1l0,0l0,0v0.1l0,0c0,0,0,0,0,0.1v0.1l0,0v17.6v0.1
		c0,0,0,0,0,0.1c0,0,0,0,0,0.1v0.1l0,0l0,0c0,0,0,0.1,0.1,0.1l0,0l0,0l0,0l0,0l-8.5-5c-0.1,0-0.1-0.1-0.1-0.1
		C45,74.6,45,74.5,45,74.3V56.7c0,0,0-0.1,0-0.2l0,0l0,0c0,0,0,0,0-0.1l0,0l0,0l0,0l0,0l0,0l0,0l0,0l0,0l0,0l0,0v-0.1l0,0l0,0
		c0,0,0,0,0-0.1l0,0l0,0l0,0c0,0,0,0,0-0.1l0,0l0,0c0,0,0,0,0-0.1l0,0l0,0l0,0l0,0l0,0l0,0l0,0l0,0l0,0l0,0c0,0,0,0,0.1-0.1l0,0l0,0
		l0.1-0.1l0,0l0.1-0.1l6.9-4c0,0,0.1,0,0.1-0.1l0,0l0,0c0,0,0,0,0.1,0l0,0l0,0l0,0l0,0l0,0l0,0l0,0l0,0l0,0c0,0,0,0,0.1,0l0,0l0,0
		l0,0l0,0l0,0l0,0l0,0l0,0l3.1,1.8l1.2,0.7L61.6,56.5z"/>
	<path class="st3" d="M51.6,57.5l0.8,0.4v-1.6h-2.7l0.8,0.4l-0.9,0.5c-0.1,0-0.1,0.1-0.2,0.1l0,0l0,0c0,0-0.1,0-0.1,0.1l0,0l0,0l0,0
		l-0.1,0.1l0,0c0,0,0,0.1-0.1,0.1l0,0L49,57.7l0,0l-0.1,0.1l0,0c0,0,0,0.1-0.1,0.1l0,0c0,0,0,0.1-0.1,0.1l0,0c0,0,0,0.1-0.1,0.1v0.1
		v0.1v0.1c0,0,0,0,0,0.1v0.1c0,0,0,0,0,0.1s0,0.2-0.1,0.3l0,0c0,0.1,0,0.2,0,0.3v17.5l1.2,0.7V59.3v-0.1l0,0v-0.1l0,0c0,0,0,0,0-0.1
		l0,0l0,0c0,0,0,0,0-0.1l0,0c0,0,0,0,0-0.1l0,0v-0.1l0,0c0,0,0,0,0-0.1l0,0c0,0,0,0,0-0.1l0,0c0,0,0,0,0.1-0.1l0,0l0,0l0,0l0,0
		l0.1-0.1l0,0l0,0c0,0,0.1,0,0.1-0.1L51.6,57.5z"/>
	<path class="st5" d="M61.6,56.6"/>
</g>
</svg>
