<?xml version="1.0" encoding="utf-8"?>
<!-- Generator: Adobe Illustrator 23.0.1, SVG Export Plug-In . SVG Version: 6.00 Build 0)  -->
<svg version="1.1" id="Layer_1" xmlns="http://www.w3.org/2000/svg" xmlns:xlink="http://www.w3.org/1999/xlink" x="0px" y="0px"
	 viewBox="0 0 100 100" style="enable-background:new 0 0 100 100;" xml:space="preserve">
<g id="box_34_">
	<g style="opacity:0.4;">
		
			<linearGradient id="SVGID_1_" gradientUnits="userSpaceOnUse" x1="-5.1494" y1="14.517" x2="-5.1494" y2="27.8488" gradientTransform="matrix(-0.7862 -1.3425 -1.1734 0.6871 59.8657 65.4664)">
			<stop  offset="0" style="stop-color:#252F62"/>
			<stop  offset="0.1575" style="stop-color:#263467;stop-opacity:0.8425"/>
			<stop  offset="0.3432" style="stop-color:#294275;stop-opacity:0.6568"/>
			<stop  offset="0.5431" style="stop-color:#2F598D;stop-opacity:0.4569"/>
			<stop  offset="0.7531" style="stop-color:#3679AE;stop-opacity:0.2469"/>
			<stop  offset="0.9689" style="stop-color:#3FA1D8;stop-opacity:3.109598e-02"/>
			<stop  offset="1" style="stop-color:#41A8DF;stop-opacity:0"/>
		</linearGradient>
		<path style="fill:url(#SVGID_1_);" d="M50.4,91.2c0.6,0.4,0.6,1,0.1,1.3l-8.2,4.6c-0.6,0.3-1.5,0.3-2.2-0.1l-8.5-5.1
			c-0.6-0.4-0.6-1-0.1-1.3L40,74.2c0.6-0.3,1.5-0.3,2.2,0.1L50.4,91.2z"/>
	</g>
	<g>
		
			<linearGradient id="SVGID_2_" gradientUnits="userSpaceOnUse" x1="-153.4343" y1="68.4612" x2="-153.4343" y2="97.8237" gradientTransform="matrix(-1 0 0 1 -108.3577 0)">
			<stop  offset="0" style="stop-color:#4489C8"/>
			<stop  offset="0.3758" style="stop-color:#259FD9"/>
			<stop  offset="0.7681" style="stop-color:#0AB1E8"/>
			<stop  offset="1" style="stop-color:#00B8ED"/>
		</linearGradient>
		<path style="fill:url(#SVGID_2_);" d="M49.4,68.6c0.6-0.3,1.1-0.1,1.1,0.6l0,21.5c0,0.7-0.5,1.5-1.1,1.9l-8.7,5
			c-0.6,0.3-1.1,0.1-1.1-0.6l0-21.5c0-0.7,0.5-1.5,1.1-1.9L49.4,68.6z"/>
	</g>
	
		<linearGradient id="SVGID_3_" gradientUnits="userSpaceOnUse" x1="-147.831" y1="97.7501" x2="-147.831" y2="62.1704" gradientTransform="matrix(-1 0 0 1 -108.3577 0)">
		<stop  offset="6.778585e-03" style="stop-color:#92D4F6"/>
		<stop  offset="0.2627" style="stop-color:#A5DBF4"/>
		<stop  offset="0.7343" style="stop-color:#C4E5F1"/>
		<stop  offset="1" style="stop-color:#CFE9F0"/>
	</linearGradient>
	<path style="fill:url(#SVGID_3_);" d="M50.2,68.5C50.1,68.5,50.1,68.5,50.2,68.5C50.1,68.5,50.1,68.5,50.2,68.5
		C50.1,68.5,50.1,68.5,50.2,68.5c-0.1,0-0.1,0-0.1,0c0,0,0,0,0,0c0,0,0,0,0,0c0,0,0,0,0,0c0,0,0,0-0.1,0c0,0,0,0,0,0h0
		c0,0-0.1,0-0.1,0c0,0,0,0,0,0c0,0,0,0-0.1,0c0,0,0,0,0,0c0,0,0,0,0,0c0,0,0,0,0,0c0,0-0.1,0-0.1,0c0,0,0,0,0,0c0,0-0.1,0-0.1,0
		c0,0,0,0-0.1,0l-8.7,5c0,0-0.1,0-0.1,0.1c0,0-0.1,0-0.1,0.1c0,0,0,0,0,0c0,0,0,0,0,0c0,0,0,0-0.1,0.1c0,0,0,0,0,0c0,0,0,0-0.1,0.1
		l0,0c0,0,0,0-0.1,0.1c0,0,0,0,0,0c0,0,0,0,0,0c0,0,0,0,0,0.1c0,0,0,0,0,0.1c0,0,0,0,0,0c0,0,0,0.1-0.1,0.1c0,0,0,0,0,0
		c0,0,0,0.1-0.1,0.1c0,0,0,0,0,0c0,0,0,0.1-0.1,0.1c0,0,0,0,0,0c0,0,0,0.1,0,0.1c0,0,0,0,0,0c0,0,0,0.1,0,0.1c0,0,0,0,0,0
		c0,0,0,0.1,0,0.1c0,0,0,0,0,0c0,0,0,0.1,0,0.1c0,0,0,0,0,0.1c0,0,0,0,0,0c0,0,0,0.1,0,0.1c0,0,0,0,0,0c0,0,0,0,0,0.1
		c0,0,0,0.1,0,0.1v0l0,21.5c0,0,0,0.1,0,0.1c0,0,0,0.1,0,0.1c0,0,0,0,0,0.1c0,0,0,0.1,0,0.1c0,0,0,0,0,0c0,0,0,0,0,0
		c0,0.1,0.1,0.1,0.1,0.1c0,0,0,0,0,0c0,0,0,0,0,0c0,0,0,0,0.1,0l0,0l-10.8-6.3c-0.1,0-0.1-0.1-0.2-0.2c-0.1-0.1-0.1-0.3-0.1-0.5
		l0-21.5c0-0.1,0-0.1,0-0.2c0,0,0,0,0,0c0,0,0,0,0,0c0,0,0-0.1,0-0.1c0,0,0,0,0,0c0,0,0,0,0,0c0,0,0,0,0-0.1c0,0,0,0,0-0.1
		c0,0,0,0,0,0c0,0,0,0,0,0c0,0,0,0,0,0c0,0,0,0,0,0c0,0,0,0,0,0c0,0,0,0,0,0c0,0,0-0.1,0-0.1c0,0,0,0,0,0c0,0,0,0,0,0
		c0,0,0-0.1,0-0.1c0,0,0,0,0,0c0,0,0,0,0,0c0,0,0,0,0,0c0,0,0,0,0-0.1c0,0,0,0,0,0c0,0,0,0,0,0c0,0,0-0.1,0.1-0.1c0,0,0,0,0,0
		c0,0,0,0,0,0c0,0,0,0,0,0c0,0,0,0,0,0c0,0,0,0,0,0c0,0,0,0,0,0c0,0,0,0,0,0c0,0,0,0,0-0.1c0,0,0,0,0,0c0,0,0,0,0,0
		c0,0,0-0.1,0.1-0.1c0,0,0,0,0,0c0,0,0,0,0,0c0,0,0.1-0.1,0.2-0.1c0,0,0,0,0,0c0.1,0,0.1-0.1,0.2-0.1l8.7-5c0,0,0.1,0,0.1-0.1
		c0,0,0,0,0,0c0,0,0,0,0,0c0,0,0.1,0,0.1,0c0,0,0,0,0,0c0,0,0,0,0,0c0,0,0,0,0,0c0,0,0,0,0,0c0,0,0,0,0,0c0,0,0,0,0,0c0,0,0,0,0,0
		c0,0,0,0,0.1,0h0c0,0,0,0,0.1,0c0,0,0,0,0,0c0,0,0,0,0,0c0,0,0,0,0,0c0,0,0,0,0,0c0,0,0,0,0,0c0,0,0,0,0,0c0,0,0,0,0.1,0
		c0,0,0,0,0,0l4,2.3l1.5,0.9L50.2,68.5z"/>
	<linearGradient id="SVGID_4_" gradientUnits="userSpaceOnUse" x1="30.2589" y1="67.9387" x2="48.7858" y2="67.9387">
		<stop  offset="0" style="stop-color:#4489C8"/>
		<stop  offset="0.3758" style="stop-color:#259FD9"/>
		<stop  offset="0.7681" style="stop-color:#0AB1E8"/>
		<stop  offset="1" style="stop-color:#00B8ED"/>
	</linearGradient>
	<polygon style="fill:url(#SVGID_4_);" points="40.2,73.2 48.8,68.3 39,62.7 30.3,67.7 	"/>
</g>
</svg>
