<?xml version="1.0" encoding="utf-8"?>
<!-- Generator: Adobe Illustrator 23.0.1, SVG Export Plug-In . SVG Version: 6.00 Build 0)  -->
<svg version="1.1" id="Layer_1" xmlns="http://www.w3.org/2000/svg" xmlns:xlink="http://www.w3.org/1999/xlink" x="0px" y="0px"
	 viewBox="0 0 100 100" style="enable-background:new 0 0 100 100;" xml:space="preserve">
<g id="jeans_1_">
	<g id="base_42_">
		<g style="opacity:0.24;">
			
				<linearGradient id="SVGID_1_" gradientUnits="userSpaceOnUse" x1="1037.0176" y1="64.7676" x2="1033.7504" y2="59.1086" gradientTransform="matrix(1 0 0 -1 -980.212 100)">
				<stop  offset="0" style="stop-color:#6485C3;stop-opacity:0"/>
				<stop  offset="0.2111" style="stop-color:#6A8BC6;stop-opacity:0.1266"/>
				<stop  offset="0.4949" style="stop-color:#7A9CCF;stop-opacity:0.297"/>
				<stop  offset="0.8189" style="stop-color:#95B8DE;stop-opacity:0.4913"/>
				<stop  offset="1" style="stop-color:#A7CBE8;stop-opacity:0.6"/>
			</linearGradient>
			<path style="fill:url(#SVGID_1_);" d="M61,37.7c0.4,0.2,0.4,0.5,0,0.8l-5.2,3c-0.4,0.2-0.9,0.2-1.3,0l-5.2-3
				c-0.4-0.2-0.4-0.5,0-0.8l5.2-3c0.4-0.2,0.9-0.2,1.3,0L61,37.7z"/>
		</g>
		<g>
			
				<linearGradient id="SVGID_2_" gradientUnits="userSpaceOnUse" x1="1029.2119" y1="64.2" x2="1041.512" y2="64.2" gradientTransform="matrix(1 0 0 -1 -980.212 100)">
				<stop  offset="0" style="stop-color:#74C7F0"/>
				<stop  offset="0.3181" style="stop-color:#A1D9F5"/>
				<stop  offset="1" style="stop-color:#FFFFFF"/>
			</linearGradient>
			<path style="fill:url(#SVGID_2_);" d="M61,35.4c0.4,0.2,0.4,0.5,0,0.8l-5.2,3c-0.4,0.2-0.9,0.2-1.3,0l-5.2-3
				c-0.4-0.2-0.4-0.5,0-0.8l5.2-3c0.4-0.2,0.9-0.2,1.3,0L61,35.4z"/>
		</g>
		<g>
			
				<linearGradient id="SVGID_3_" gradientUnits="userSpaceOnUse" x1="1029.7523" y1="64.2" x2="1040.9774" y2="64.2" gradientTransform="matrix(1 0 0 -1 -980.212 100)">
				<stop  offset="0" style="stop-color:#315CA7"/>
				<stop  offset="1" style="stop-color:#32BDEF"/>
			</linearGradient>
			<path style="fill:url(#SVGID_3_);" d="M55.2,38.9c-0.2,0-0.3,0-0.4-0.1l-5.2-3l5.2-3c0.1-0.1,0.3-0.1,0.4-0.1
				c0.2,0,0.3,0,0.4,0.1l5.2,3l-5.2,3C55.5,38.9,55.3,38.9,55.2,38.9z"/>
		</g>
		
			<linearGradient id="SVGID_4_" gradientUnits="userSpaceOnUse" x1="1029.2119" y1="61.9" x2="1041.512" y2="61.9" gradientTransform="matrix(1 0 0 -1 -980.212 100)">
			<stop  offset="0" style="stop-color:#315CA7"/>
			<stop  offset="1" style="stop-color:#32BDEF"/>
		</linearGradient>
		<path style="fill:url(#SVGID_4_);" d="M61.3,35.8L61.3,35.8C61.3,35.9,61.3,35.9,61.3,35.8C61.3,35.9,61.3,35.9,61.3,35.8
			C61.3,35.9,61.3,35.9,61.3,35.8L61.3,35.8L61.3,35.8L61.3,35.8L61.3,35.8L61.3,35.8L61.3,35.8L61.3,35.8L61.3,35.8L61.3,35.8
			L61.3,35.8L61.3,35.8l-5.2,3.1H56l0,0c0,0,0,0-0.1,0l0,0l0,0l0,0c0,0,0,0-0.1,0l0,0h-0.1l0,0c0,0,0,0-0.1,0l0,0c0,0,0,0-0.1,0l0,0
			l0,0l0,0l0,0l0,0l0,0l0,0c0,0,0,0-0.1,0l0,0h-0.1l0,0c0,0-0.1,0-0.1-0.1l-5.2-3c-0.9,0.3-1,0.2-1,0v1.1c0,0.1,0.1,0.3,0.3,0.4
			l5.2,3c0,0,0.1,0,0.1,0.1l0,0l0,0h0.1l0,0l0,0c0,0,0,0,0.1,0l0,0l0,0l0,0l0,0l0,0l0,0l0,0l0,0l0,0l0,0l0,0c0,0,0,0,0.1,0l0,0l0,0
			c0,0,0,0,0.1,0l0,0l0,0h0.1l0,0l0,0c0,0,0,0,0.1,0l0,0l0,0l0,0l0,0c0,0,0,0,0.1,0l0,0h0.1l5.2-3l0,0l0,0l0,0l0,0l0,0l0,0l0,0l0,0
			l0,0l0,0l0,0l0,0l0,0l0,0l0,0l0,0l0,0l0,0l0,0l0,0l0,0l0,0l0,0L61.3,35.8z"/>
	</g>
	<g id="jean_1_">
		
			<linearGradient id="SVGID_5_" gradientUnits="userSpaceOnUse" x1="528.2699" y1="76.9829" x2="528.2699" y2="63.3114" gradientTransform="matrix(1 0 0 -1 -473.5406 100)">
			<stop  offset="0" style="stop-color:#E95281"/>
			<stop  offset="1" style="stop-color:#BF3D62"/>
		</linearGradient>
		<path style="fill:url(#SVGID_5_);" d="M57.3,26.2c0,0.1,0,0.2,0,0.3l0,0L57.2,36c-0.6,0.2-1.1,0.2-1.5,0.1
			c-0.3-0.1-0.5-0.2-0.5-0.2L55,28.7v-0.2l-0.5,7.9c-1.3,0.7-2.1-0.2-2.1-0.2v-6.7c0,0,0-1-0.2-2.2v-0.1c0-0.1,0-0.2,0-0.2
			c-0.1-0.7,0-1.5,0.1-1.9V25c0-0.1,0-0.1,0-0.2l0,0l0,0c0-0.2,0-0.3,0-0.3c0.4-0.9,1.1-1.1,2.6-1.4c1.4-0.3,2.2,0.8,2.2,0.8v0.7
			C57.3,25,57.3,25.7,57.3,26.2z"/>
		
			<linearGradient id="SVGID_6_" gradientUnits="userSpaceOnUse" x1="528.2906" y1="76.4859" x2="528.2906" y2="74.4823" gradientTransform="matrix(1 0 0 -1 -473.5406 100)">
			<stop  offset="0" style="stop-color:#E95281"/>
			<stop  offset="1" style="stop-color:#BF3D62"/>
		</linearGradient>
		<path style="fill:url(#SVGID_6_);" d="M54.6,25.5c1,0,2-0.7,2.4-1.3c-0.3-0.3-1.1-0.9-2.1-0.7c-1.3,0.3-1.9,0.5-2.4,1.2
			C52.8,25.1,53.4,25.5,54.6,25.5z"/>
		<g>
			
				<linearGradient id="SVGID_7_" gradientUnits="userSpaceOnUse" x1="526.2047" y1="69.1" x2="526.4799" y2="69.1" gradientTransform="matrix(1 0 0 -1 -473.5406 100)">
				<stop  offset="5.618000e-03" style="stop-color:#FAFCFF"/>
				<stop  offset="1" style="stop-color:#E5E8F5"/>
			</linearGradient>
			<path style="fill:url(#SVGID_7_);" d="M52.8,36.5c0-0.4,0-0.9,0-1.5c0-2.4,0.1-6.1,0-7.1c-0.2-1.3,0.1-2.7,0.1-2.7H53
				c0,0-0.3,1.4-0.1,2.7c0.2,0.9,0.1,4.6,0,7.1C52.9,35.6,52.9,36.2,52.8,36.5L52.8,36.5z"/>
		</g>
		
			<linearGradient id="SVGID_8_" gradientUnits="userSpaceOnUse" x1="529.7354" y1="74.15" x2="530.8354" y2="74.15" gradientTransform="matrix(1 0 0 -1 -473.5406 100)">
			<stop  offset="5.618000e-03" style="stop-color:#FAFCFF"/>
			<stop  offset="1" style="stop-color:#E5E8F5"/>
		</linearGradient>
		<path style="fill:url(#SVGID_8_);" d="M57.3,26.2c0,0.1,0,0.2,0,0.3c-0.9-0.4-1.1-1.2-1.1-1.2l0.2-0.1
			C56.6,25.5,56.9,25.9,57.3,26.2z"/>
		
			<linearGradient id="SVGID_9_" gradientUnits="userSpaceOnUse" x1="526.2689" y1="73.7" x2="527.785" y2="73.7" gradientTransform="matrix(1 0 0 -1 -473.5406 100)">
			<stop  offset="5.618000e-03" style="stop-color:#FAFCFF"/>
			<stop  offset="1" style="stop-color:#E5E8F5"/>
		</linearGradient>
		<path style="fill:url(#SVGID_9_);" d="M54.2,25.6c0,0-0.3,1.1-1.5,1.4v-0.2c0.5-0.1,1.1-0.6,1.3-1.2L54.2,25.6z"/>
		
			<linearGradient id="SVGID_10_" gradientUnits="userSpaceOnUse" x1="525.8605" y1="75.1908" x2="530.7387" y2="75.1908" gradientTransform="matrix(1 0 0 -1 -473.5406 100)">
			<stop  offset="5.618000e-03" style="stop-color:#FAFCFF"/>
			<stop  offset="1" style="stop-color:#E5E8F5"/>
		</linearGradient>
		<path style="fill:url(#SVGID_10_);" d="M57.2,23.9v0.7c-0.7,0.9-2.1,1.2-3.2,1.1c-0.9-0.1-1.5-0.5-1.7-0.6V25c0-0.1,0-0.1,0-0.2
			l0,0l0,0v-0.3c0.3,0.3,0.9,0.6,1.7,0.7C54.9,25.3,56.5,24.9,57.2,23.9z"/>
		
			<linearGradient id="SVGID_11_" gradientUnits="userSpaceOnUse" x1="528.5822" y1="69" x2="529.2708" y2="69" gradientTransform="matrix(1 0 0 -1 -473.5406 100)">
			<stop  offset="0" style="stop-color:#1A1A1A;stop-opacity:0.6"/>
			<stop  offset="0.1968" style="stop-color:#1D1E2B;stop-opacity:0.4812"/>
			<stop  offset="0.5859" style="stop-color:#252957;stop-opacity:0.2463"/>
			<stop  offset="0.9939" style="stop-color:#2F358B;stop-opacity:0"/>
		</linearGradient>
		<path style="fill:url(#SVGID_11_);" d="M55.7,36.1c-0.3-0.1-0.5-0.2-0.5-0.2L55,28.7c0-0.1,0-0.2,0-0.2s0-0.6,0.3-1.1
			c0.1-0.2,0.1-1,0.1-1.5c0,0,0.2,0.9,0.1,1.5c0,0.1-0.2,0.9-0.1,1.6C55.4,30.9,55.6,34.9,55.7,36.1z"/>
	</g>
</g>
</svg>
