<?xml version="1.0" encoding="utf-8"?>
<!-- Generator: Adobe Illustrator 23.0.1, SVG Export Plug-In . SVG Version: 6.00 Build 0)  -->
<svg version="1.1" id="Layer_1" xmlns="http://www.w3.org/2000/svg" xmlns:xlink="http://www.w3.org/1999/xlink" x="0px" y="0px"
	 viewBox="0 0 100 100" style="enable-background:new 0 0 100 100;" xml:space="preserve">
<style type="text/css">
	.st0{fill:#FFFFFF;}
	.st1{fill:url(#SVGID_1_);}
</style>
<g>
	<path class="st0" d="M79.9,80.4c0,0.1,0,0.2,0,0.4c0,0.2,0,0.3,0,0.4s-0.1,0.2-0.1,0.2s-0.1,0-0.1-0.1s0-0.2,0-0.4
		c0-0.2,0-0.3,0-0.4S79.8,80.3,79.9,80.4L79.9,80.4z M79.8,81.1c0,0,0-0.1,0-0.2s0-0.2,0-0.2s0-0.1,0,0c0,0,0,0,0,0.1
		C79.8,80.8,79.8,80.9,79.8,81.1C79.7,81,79.7,81.1,79.8,81.1C79.7,81.2,79.8,81.2,79.8,81.1C79.8,81.2,79.8,81.2,79.8,81.1"/>
</g>
<linearGradient id="SVGID_1_" gradientUnits="userSpaceOnUse" x1="753.4756" y1="62.0448" x2="756.7748" y2="62.0448" gradientTransform="matrix(1 0 0 -1 -697.9749 100)">
	<stop  offset="0" style="stop-color:#E2E5F4"/>
	<stop  offset="0.2383" style="stop-color:#E4E0ED"/>
	<stop  offset="0.5769" style="stop-color:#EBD1DB"/>
	<stop  offset="0.9741" style="stop-color:#F5BABC"/>
	<stop  offset="1" style="stop-color:#F6B8BA"/>
</linearGradient>
<path class="st1" d="M58.8,28.3c0,0-0.8,6.7-0.8,7.6c0,0.9-0.6,8.5-0.9,9.4c-0.2,0.9-1.5,2.9-1.6,2.3c-0.1-0.6,0.5-1.5,0.3-2.1
	c-0.1-0.2,0.3-1,0.3-1.7c-0.1-2.6-0.3-7.3-0.3-8.2c0-1.1,0.3-7.4,0.3-7.4L58.8,28.3z"/>
</svg>
