<?xml version="1.0" encoding="utf-8"?>
<!-- Generator: Adobe Illustrator 23.0.1, SVG Export Plug-In . SVG Version: 6.00 Build 0)  -->
<svg version="1.1" id="Layer_1" xmlns="http://www.w3.org/2000/svg" xmlns:xlink="http://www.w3.org/1999/xlink" x="0px" y="0px"
	 viewBox="0 0 100 100" style="enable-background:new 0 0 100 100;" xml:space="preserve">
<g id="upper-body_1_">
	
		<linearGradient id="SVGID_1_" gradientUnits="userSpaceOnUse" x1="-608.9182" y1="56.1135" x2="-599.3544" y2="56.1135" gradientTransform="matrix(-1 0 0 -1 -566.8593 100)">
		<stop  offset="0" style="stop-color:#E95281"/>
		<stop  offset="1" style="stop-color:#BF3D62"/>
	</linearGradient>
	<path style="fill:url(#SVGID_1_);" d="M32.5,46.8c0,1.6,0,3.2,0.1,3.9c0.3,1.6,4.5,2,7.2,1.5c0.1,0,0.2,0,0.3-0.1
		c0.7-0.1,1.3-0.4,1.6-0.6c0.5-0.4,0.2-3.4,0.1-4.6c-0.1-1.4,0.1-4.4,0.2-6.6c0.1-1.3,0.1-2,0-2.2c-0.1-0.6-0.7-1.6-3.5-2.5
		c-1.9-0.6-5.1,0.1-5.7,0.7c-0.3,0.4-0.3,1.3-0.3,1.9C32.4,39.3,32.5,45.8,32.5,46.8z"/>
</g>
</svg>
