<?xml version="1.0" encoding="utf-8"?>
<!-- Generator: Adobe Illustrator 23.0.1, SVG Export Plug-In . SVG Version: 6.00 Build 0)  -->
<svg version="1.1" id="Layer_1" xmlns="http://www.w3.org/2000/svg" xmlns:xlink="http://www.w3.org/1999/xlink" x="0px" y="0px"
	 viewBox="0 0 100 100" style="enable-background:new 0 0 100 100;" xml:space="preserve">
<g id="tee_7_">
	<g>
		<linearGradient id="SVGID_1_" gradientUnits="userSpaceOnUse" x1="50.0907" y1="54.8147" x2="53.1556" y2="49.5061">
			<stop  offset="0" style="stop-color:#E95281"/>
			<stop  offset="1" style="stop-color:#BF3D62"/>
		</linearGradient>
		<path style="fill:url(#SVGID_1_);" d="M51.7,48.7c-0.8,0.1-1.5,1.4-1.7,2.6c-0.2,0.8-0.2,2.1-0.3,3.3c0,0,0.9,1,3,0
			C52.5,53.5,52.8,50.9,51.7,48.7z"/>
		<g>
			<linearGradient id="SVGID_2_" gradientUnits="userSpaceOnUse" x1="50.6409" y1="60.8918" x2="56.7579" y2="50.2968">
				<stop  offset="0" style="stop-color:#E95281"/>
				<stop  offset="1" style="stop-color:#BF3D62"/>
			</linearGradient>
			<path style="fill:url(#SVGID_2_);" d="M50.2,59.9c0,0,0.5,1.5,2.8,2.1c0.2,0,0.4,0.1,0.5,0.1c1.7,0.2,3.5-0.3,3.6-1.2
				c0,0-0.3-2.6,0.3-5.2c0.2-0.8,0.3-1.7,0.4-2.5c0-0.2,0-0.4,0-0.5c0-0.8-0.2-1.5-0.6-1.9c-0.1-0.1-0.2-0.2-0.3-0.3
				c-0.2-0.1-0.4-0.3-0.7-0.5c-0.1,0-0.2-0.1-0.2-0.1c-0.9-0.5-2-1-3-1.2c-0.1,0-0.2,0-0.3-0.1c-0.1,0-0.2,0-0.3-0.1
				c-1.7-0.3-2.1,1.9-2.1,2.9c0.1,1,0.2,3.6,0.2,5C50.5,57.5,50.2,59.9,50.2,59.9z"/>
		</g>
		<linearGradient id="SVGID_3_" gradientUnits="userSpaceOnUse" x1="53.7281" y1="62.2257" x2="58.8734" y2="53.3137">
			<stop  offset="0" style="stop-color:#E95281"/>
			<stop  offset="1" style="stop-color:#BF3D62"/>
		</linearGradient>
		<path style="fill:url(#SVGID_3_);" d="M53.6,62.2c1.7,0.2,3.5-0.3,3.6-1.2c0,0-0.3-2.6,0.3-5.2c0.2-0.8,0.3-1.7,0.4-2.5
			c0-0.2,0-0.4,0-0.5l-2.2,1.1c0,0-0.3,5.2-0.6,6.6C55,61.4,54.7,62,53.6,62.2z"/>
		<linearGradient id="SVGID_4_" gradientUnits="userSpaceOnUse" x1="55.9606" y1="56.9248" x2="58.9199" y2="51.799">
			<stop  offset="0" style="stop-color:#E95281"/>
			<stop  offset="1" style="stop-color:#BF3D62"/>
		</linearGradient>
		<path style="fill:url(#SVGID_4_);" d="M57.4,50.9c-0.3-0.1-1.1,0.1-1.5,1.2c-0.3,0.8-0.2,3.4-0.2,4.7c0,0,1.9,1,3.4-0.3
			C58.9,55.3,58.7,52.3,57.4,50.9z"/>
		<linearGradient id="SVGID_5_" gradientUnits="userSpaceOnUse" x1="53.9303" y1="50.4341" x2="54.6951" y2="49.1093">
			<stop  offset="0" style="stop-color:#E95281"/>
			<stop  offset="1" style="stop-color:#BF3D62"/>
		</linearGradient>
		<path style="fill:url(#SVGID_5_);" d="M53.7,50.3c-0.7-0.3-0.9-1-0.7-1.4c0-0.1,0-0.1,0.1-0.2l0,0c1,0.2,2.2,0.7,3,1.2l0,0
			c0,0-0.1,0-0.2,0.1C55.5,50.2,54.5,50.6,53.7,50.3z"/>
		<path style="fill:#FFFFFF;" d="M53.7,50.6c1,0.4,2.3-0.3,2.6-0.5c-0.1,0-0.2-0.1-0.2-0.1l0,0c-0.9-0.5-2-1-3-1.2l0,0l0,0
			c-0.1,0-0.2,0-0.3-0.1C52.6,49.2,52.7,50.2,53.7,50.6z M53,48.9c0.9,0.2,2.4,0.9,2.9,1.1c-0.4,0.2-1.4,0.6-2.1,0.3
			C53.1,50,52.9,49.4,53,48.9z"/>
	</g>
</g>
</svg>
