<?xml version="1.0" encoding="utf-8"?>
<!-- Generator: Adobe Illustrator 23.0.1, SVG Export Plug-In . SVG Version: 6.00 Build 0)  -->
<svg version="1.1" id="Layer_1" xmlns="http://www.w3.org/2000/svg" xmlns:xlink="http://www.w3.org/1999/xlink" x="0px" y="0px"
	 viewBox="0 0 100 100" style="enable-background:new 0 0 100 100;" xml:space="preserve">
<style type="text/css">
	.st0{fill:#FFFFFF;}
	.st1{opacity:0.2;}
	.st2{fill:url(#SVGID_1_);}
	.st3{enable-background:new    ;}
	.st4{fill:url(#SVGID_2_);}
	.st5{clip-path:url(#SVGID_4_);enable-background:new    ;}
	.st6{fill:#ADADAD;}
	.st7{fill:#A7A7A7;}
	.st8{fill:#A3A3A3;}
	.st9{fill:#9F9F9F;}
	.st10{fill:#9A9A9A;}
	.st11{fill:#969596;}
	.st12{fill:url(#SVGID_5_);}
	.st13{fill:url(#SVGID_6_);}
	.st14{fill:url(#SVGID_7_);}
	.st15{fill:#5C5B5C;}
	.st16{fill:#535252;}
	.st17{fill:#3A60A9;}
	.st18{fill:url(#SVGID_8_);}
	.st19{fill:url(#SVGID_9_);}
	.st20{fill:url(#SVGID_10_);}
	.st21{fill:url(#SVGID_11_);}
	.st22{fill:#1E4C9B;}
	.st23{fill:url(#SVGID_12_);}
	.st24{fill:url(#SVGID_13_);}
	.st25{fill:url(#SVGID_14_);}
	.st26{fill:url(#SVGID_15_);}
	.st27{fill:#848585;}
	.st28{fill:url(#SVGID_16_);}
	.st29{fill:url(#SVGID_17_);}
	.st30{fill:url(#SVGID_18_);}
	.st31{fill:url(#SVGID_19_);}
</style>
<g>
	<path class="st0" d="M79.9,80.4c0,0.1,0,0.2,0,0.4c0,0.2,0,0.3,0,0.4s-0.1,0.2-0.1,0.2s-0.1,0-0.1-0.1s0-0.2,0-0.4
		c0-0.2,0-0.3,0-0.4S79.8,80.3,79.9,80.4L79.9,80.4z M79.8,81.1c0,0,0-0.1,0-0.2s0-0.2,0-0.2s0-0.1,0,0c0,0,0,0,0,0.1
		C79.8,80.8,79.8,80.9,79.8,81.1C79.7,81,79.7,81.1,79.8,81.1C79.7,81.2,79.8,81.2,79.8,81.1C79.8,81.2,79.8,81.2,79.8,81.1"/>
</g>
<g id="fenwick-with-worker_1_">
	<g class="st1">
		
			<linearGradient id="SVGID_1_" gradientUnits="userSpaceOnUse" x1="747.6749" y1="21.2" x2="786.4227" y2="21.2" gradientTransform="matrix(1 0 0 -1 -697.9749 100)">
			<stop  offset="2.096873e-02" style="stop-color:#41A8DF;stop-opacity:0"/>
			<stop  offset="0.1827" style="stop-color:#40A3DB;stop-opacity:0.1652"/>
			<stop  offset="0.3734" style="stop-color:#3D95CE;stop-opacity:0.3599"/>
			<stop  offset="0.5786" style="stop-color:#387DB9;stop-opacity:0.5696"/>
			<stop  offset="0.7927" style="stop-color:#315C9B;stop-opacity:0.7882"/>
			<stop  offset="1" style="stop-color:#283578"/>
		</linearGradient>
		<path class="st2" d="M50.3,78c-0.8,0.4-0.8,1.2,0,1.6l17.3,10.1c0.8,0.4,2,0.4,2.8,0l17.4-10.1c0.8-0.4,0.8-1.2,0-1.6L70.5,67.9
			c-0.8-0.4-2-0.4-2.8,0L50.3,78z"/>
	</g>
	<g id="controls_1_">
		<g class="st3">
			
				<linearGradient id="SVGID_2_" gradientUnits="userSpaceOnUse" x1="739.3262" y1="41.2875" x2="747.9182" y2="41.2875" gradientTransform="matrix(1 0 0 -1 -697.9749 100)">
				<stop  offset="0" style="stop-color:#315CA7"/>
				<stop  offset="1" style="stop-color:#32BDEF"/>
			</linearGradient>
			<path class="st4" d="M48.6,56.3C48.6,56.2,48.5,56.2,48.6,56.3C48.5,56.2,48.5,56.2,48.6,56.3C48.5,56.2,48.5,56.2,48.6,56.3
				C48.5,56.2,48.5,56.2,48.6,56.3C48.5,56.2,48.5,56.2,48.6,56.3C48.5,56.2,48.5,56.2,48.6,56.3C48.5,56.2,48.5,56.2,48.6,56.3
				C48.5,56.3,48.5,56.3,48.6,56.3L48.6,56.3L48.6,56.3L48.6,56.3L48.6,56.3l-7.2,4.1l0,0l0,0l0,0c0,0,0,0,0.1,0l0,0c0,0,0,0,0.1,0
				l1.4,0.8l7.1-4.1L48.6,56.3z"/>
			<g class="st3">
				<g>
					<defs>
						<path id="SVGID_3_" d="M44.4,33.9l-7,4.1c0,0,0,0,0.1,0L44.4,33.9C44.5,33.9,44.5,33.9,44.4,33.9z"/>
					</defs>
					<clipPath id="SVGID_4_">
						<use xlink:href="#SVGID_3_"  style="overflow:visible;"/>
					</clipPath>
					<g class="st5">
						<path class="st6" d="M37.4,38l7.1-4.1l0,0L37.4,38L37.4,38"/>
						<path class="st7" d="M37.4,38l7.1-4.1l0,0L37.4,38L37.4,38"/>
						<polyline class="st8" points="37.4,38 44.5,33.9 44.5,33.9 37.4,38 37.4,38 						"/>
						<polyline class="st9" points="37.4,38 44.5,33.9 44.5,33.9 37.4,38 37.4,38 						"/>
						<polyline class="st10" points="37.4,38 44.5,33.9 44.4,33.9 37.4,38 37.4,38 						"/>
						<polyline class="st11" points="37.4,38 44.4,33.9 44.4,33.9 37.4,38 37.4,38 						"/>
					</g>
				</g>
			</g>
			<g>
				
					<linearGradient id="SVGID_5_" gradientUnits="userSpaceOnUse" x1="741.8382" y1="62.8877" x2="740.5914" y2="65.0474" gradientTransform="matrix(1 0 0 -1 -697.9749 100)">
					<stop  offset="0" style="stop-color:#315CA7"/>
					<stop  offset="1" style="stop-color:#32BDEF"/>
				</linearGradient>
				<polygon class="st12" points="42,38.2 49.1,34.1 44.5,33.9 37.4,38 				"/>
			</g>
			<g>
				<polygon class="st0" points="42.3,37.6 47.4,34.6 44.1,34.5 39.1,37.4 				"/>
			</g>
			<g>
				
					<linearGradient id="SVGID_6_" gradientUnits="userSpaceOnUse" x1="735.2826" y1="50.15" x2="741.2826" y2="50.15" gradientTransform="matrix(1 0 0 -1 -697.9749 100)">
					<stop  offset="0" style="stop-color:#315CA7"/>
					<stop  offset="1" style="stop-color:#32BDEF"/>
				</linearGradient>
				<path class="st13" d="M42,38.2L37.4,38c-0.1,0-0.1,0.1-0.1,0.2c0,0.1,0.1,0.2,0.2,0.2h0.1l4.4,0.2c0.2,0.2,0.5,0.4,0.6,0.7
					c0.2,0.3,0.3,0.6,0.3,0.9l-0.1,20.9l-1.4-0.8c-0.1-0.1-0.2,0-0.2,0.1s0.1,0.3,0.2,0.3l1.8,1l0.1-21.3
					C43.3,39.7,42.7,38.6,42,38.2z"/>
			</g>
			
				<linearGradient id="SVGID_7_" gradientUnits="userSpaceOnUse" x1="744.0249" y1="65.9103" x2="744.0249" y2="38.1791" gradientTransform="matrix(1 0 0 -1 -697.9749 100)">
				<stop  offset="0" style="stop-color:#4489C8"/>
				<stop  offset="0.2286" style="stop-color:#76AAD7"/>
				<stop  offset="0.4788" style="stop-color:#A6C9E5"/>
				<stop  offset="0.6999" style="stop-color:#C8E0EF"/>
				<stop  offset="0.8812" style="stop-color:#DDEEF6"/>
				<stop  offset="1" style="stop-color:#E5F3F8"/>
			</linearGradient>
			<path class="st14" d="M43.3,40.2L43.3,40.2c0-0.1,0-0.2-0.1-0.3l0,0c0-0.1-0.1-0.2-0.1-0.3l0,0c0-0.1-0.1-0.2-0.2-0.3l0,0
				c-0.1-0.1-0.1-0.2-0.2-0.3l0,0c-0.1-0.1-0.1-0.2-0.2-0.2l0,0c-0.1-0.1-0.1-0.1-0.2-0.2c0,0-0.1,0-0.1-0.1
				c-0.1-0.1-0.2-0.1-0.3-0.2l7.1-4.1c0.1,0,0.2,0.1,0.3,0.2c0,0,0.1,0,0.1,0.1l0.1,0.1c0,0,0,0,0.1,0.1l0,0c0,0,0,0,0.1,0.1
				l0.1,0.1l0,0l0,0l0,0l0.1,0.1c0,0,0,0.1,0.1,0.1l0,0l0,0c0,0,0,0.1,0.1,0.1c0,0,0,0.1,0.1,0.1v0.1l0,0l0,0v0.1v0.1c0,0,0,0,0,0.1
				l0,0l0,0c0,0.1,0,0.1,0,0.2V36l0,0l0,0c0,0.1,0,0.2,0,0.3l-0.1,21.3L43,61.7l0.1-21.3C43.3,40.4,43.3,40.3,43.3,40.2z"/>
		</g>
	</g>
	<g id="fourche_1_">
		<g>
			<g class="st3">
				<g>
					<polygon class="st15" points="61.4,66.3 60.4,65.7 58.4,66.8 59.5,67.4 					"/>
				</g>
				<g>
					<polygon class="st16" points="61.4,63.7 60.4,63.1 60.4,65.7 61.4,66.3 					"/>
				</g>
				<g>
					<polygon class="st15" points="61.4,63.7 60.4,63.1 58.4,64.2 59.5,64.8 					"/>
				</g>
				<g>
					<polygon class="st17" points="59.5,60.5 58.4,59.9 58.4,64.2 59.5,64.8 					"/>
				</g>
				<g>
					<polygon class="st15" points="61.4,59.3 60.4,58.7 58.4,59.9 59.5,60.5 					"/>
				</g>
				<g>
					<polygon class="st16" points="61.4,56.7 60.4,56.1 60.4,58.7 61.4,59.3 					"/>
				</g>
				<g>
					<polygon class="st15" points="61.4,56.7 60.4,56.1 58.4,57.2 59.5,57.8 					"/>
				</g>
				<g>
					<polygon class="st17" points="59.5,53.5 58.4,52.9 58.4,57.2 59.5,57.8 					"/>
				</g>
				<g>
					<polygon class="st15" points="61.4,52.4 60.4,51.7 58.4,52.9 59.5,53.5 					"/>
				</g>
				<g>
					<polygon class="st16" points="61.4,49.7 60.4,49.1 60.4,51.7 61.4,52.4 					"/>
				</g>
				<g>
					<polygon class="st15" points="61.4,49.7 60.4,49.1 58.4,50.3 59.4,50.9 					"/>
				</g>
				<g>
					<polygon class="st15" points="45.6,75.4 44.5,74.8 42.6,76 43.6,76.6 					"/>
				</g>
				<g>
					
						<linearGradient id="SVGID_8_" gradientUnits="userSpaceOnUse" x1="742.5016" y1="31.5" x2="757.4624" y2="31.5" gradientTransform="matrix(1 0 0 -1 -697.9749 100)">
						<stop  offset="0" style="stop-color:#4489C8"/>
						<stop  offset="0.3376" style="stop-color:#55A2C8"/>
						<stop  offset="0.7477" style="stop-color:#66BAC9"/>
						<stop  offset="1" style="stop-color:#6CC3C9"/>
					</linearGradient>
					<polygon class="st18" points="59.5,64.8 58.4,64.2 44.5,72.2 45.6,72.8 					"/>
				</g>
				<g>
					<polygon class="st15" points="45.6,72.8 44.5,72.2 42.6,73.3 43.6,73.9 					"/>
				</g>
				<g>
					<polygon class="st16" points="43.6,73.9 42.6,73.3 42.6,76 43.6,76.6 					"/>
				</g>
				<g>
					<polygon class="st15" points="45.6,68.5 44.5,67.9 42.6,69 43.6,69.6 					"/>
				</g>
				<g>
					
						<linearGradient id="SVGID_9_" gradientUnits="userSpaceOnUse" x1="742.4749" y1="38.45" x2="757.4357" y2="38.45" gradientTransform="matrix(1 0 0 -1 -697.9749 100)">
						<stop  offset="0" style="stop-color:#4489C8"/>
						<stop  offset="0.3376" style="stop-color:#55A2C8"/>
						<stop  offset="0.7477" style="stop-color:#66BAC9"/>
						<stop  offset="1" style="stop-color:#6CC3C9"/>
					</linearGradient>
					<polygon class="st19" points="59.5,57.8 58.4,57.2 44.5,65.3 45.6,65.9 					"/>
				</g>
				<g>
					<polygon class="st15" points="45.6,65.9 44.5,65.3 42.6,66.4 43.6,67 					"/>
				</g>
				<g>
					<polygon class="st16" points="43.6,67 42.6,66.4 42.6,69 43.6,69.6 					"/>
				</g>
				<g>
					<polygon class="st15" points="45.5,61.5 44.5,60.9 42.5,62 43.6,62.6 					"/>
				</g>
				<g>
					
						<linearGradient id="SVGID_10_" gradientUnits="userSpaceOnUse" x1="742.4749" y1="45.4" x2="757.4356" y2="45.4" gradientTransform="matrix(1 0 0 -1 -697.9749 100)">
						<stop  offset="0" style="stop-color:#4489C8"/>
						<stop  offset="0.3376" style="stop-color:#55A2C8"/>
						<stop  offset="0.7477" style="stop-color:#66BAC9"/>
						<stop  offset="1" style="stop-color:#6CC3C9"/>
					</linearGradient>
					<polygon class="st20" points="59.4,50.9 58.4,50.3 44.5,58.3 45.5,58.9 					"/>
				</g>
				<g>
					<polygon class="st15" points="45.5,58.9 44.5,58.3 42.5,59.4 43.6,60 					"/>
				</g>
				<g>
					<polygon class="st16" points="43.6,60 42.5,59.4 42.5,62 43.6,62.6 					"/>
				</g>
				
					<linearGradient id="SVGID_11_" gradientUnits="userSpaceOnUse" x1="750.4749" y1="23.2" x2="750.4749" y2="70.9672" gradientTransform="matrix(1 0 0 -1 -697.9749 100)">
					<stop  offset="0" style="stop-color:#4489C8"/>
					<stop  offset="0.2286" style="stop-color:#76AAD7"/>
					<stop  offset="0.4788" style="stop-color:#A6C9E5"/>
					<stop  offset="0.6999" style="stop-color:#C8E0EF"/>
					<stop  offset="0.8812" style="stop-color:#DDEEF6"/>
					<stop  offset="1" style="stop-color:#E5F3F8"/>
				</linearGradient>
				<path class="st21" d="M43.3,76.8l0.3-0.2l0,0l1.9-1.1l13.9-8l2.3-1.3l-0.1-36.3c0-0.7-0.5-1-1.1-0.7c-0.6,0.4-1.1,1.2-1.1,2
					l0.1,19.7l-13.9,8l-0.1-19.8c0-0.7-0.5-1-1.1-0.7c-0.6,0.4-1.1,1.2-1.1,2L43.3,76.8z M59.5,53.5v4.4l-13.9,8v-4.4L59.5,53.5z
					 M45.6,72.8v-4.3l13.9-8v4.3L45.6,72.8z"/>
			</g>
		</g>
		<g>
			<path class="st22" d="M72.7,74.1c0,0,0.1,0.1,0.2,0.1l0,0H73l0,0h0.1c0,0,0,0,0.1,0h0.1c0,0,0,0,0.1,0s0.1,0,0.2,0c0,0,0,0,0.1,0
				h0.1c0,0,0,0,0.1,0H74c0,0,0,0,0.1,0h0.1c0,0,0,0,0.1,0h0.1c0,0,0,0,0.1,0h0.1c0,0,0,0,0.1,0h0.1c0,0,0,0,0.1,0s0.1,0,0.2-0.1
				l0,0c0.1,0,0.2-0.1,0.2-0.1c0.2-0.1,0.3-0.3,0.4-0.4c0-0.1,0.1-0.2,0.1-0.3v1c0,0.2-0.2,0.5-0.5,0.7c-0.1,0-0.1,0.1-0.2,0.1l0,0
				l0,0c-0.1,0-0.1,0-0.2,0.1l0,0l0,0h-0.1l0,0l0,0h-0.1l0,0l0,0h-0.1l0,0l0,0h-0.1l0,0l0,0h-0.1l0,0l0,0h-0.1l0,0l0,0
				c-0.1,0-0.1,0-0.2,0l0,0c0,0,0,0-0.1,0h-0.1c0,0,0,0-0.1,0h-0.1l0,0l0,0h-0.1l0,0c-0.1,0-0.1,0-0.2-0.1l-11-6.4v-1L72.7,74.1z"/>
			<g>
				<polygon class="st22" points="47.9,75.8 47.9,76.8 61.8,68.7 61.8,67.7 				"/>
			</g>
			<path class="st22" d="M56.5,83.4c0,0,0.1,0.1,0.2,0.1l0,0h0.1l0,0h0.1c0,0,0,0,0.1,0h0.1c0,0,0,0,0.1,0s0.1,0,0.2,0
				c0,0,0,0,0.1,0h0.1c0,0,0,0,0.1,0h0.1c0,0,0,0,0.1,0H58c0,0,0,0,0.1,0h0.1c0,0,0,0,0.1,0h0.1c0,0,0,0,0.1,0h0.1c0,0,0,0,0.1,0
				s0.1,0,0.2-0.1l0,0c0.1,0,0.2-0.1,0.2-0.1c0.3-0.2,0.5-0.4,0.5-0.7v1c0,0.2-0.2,0.5-0.5,0.7c-0.1,0-0.1,0.1-0.2,0.1l0,0l0,0
				c-0.1,0-0.1,0-0.2,0.1l0,0l0,0h-0.1l0,0l0,0h-0.1l0,0l0,0h-0.1l0,0l0,0h-0.1l0,0l0,0h-0.1l0,0l0,0h-0.1l0,0l0,0
				c-0.1,0-0.1,0-0.2,0l0,0c0,0,0,0-0.1,0h-0.1c0,0,0,0-0.1,0h-0.1l0,0l0,0h-0.1l0,0c-0.1,0-0.1,0-0.2-0.1L44,76.7v-1L56.5,83.4z"/>
			<g>
				<path class="st17" d="M43.3,75.8l13.2,7.7c0.6,0.4,1.6,0.4,2.3,0c0.6-0.4,0.6-1,0-1.3l-10.9-6.3l13.9-8l11,6.4
					c0.6,0.4,1.6,0.4,2.3,0c0.6-0.4,0.6-1,0-1.3l-13.2-7.7l-0.3,0.2l-1.9,1.1l-13.9,8l-2,1.1L43.3,75.8z"/>
			</g>
		</g>
	</g>
	<g id="palette_3_">
		<g>
			<g class="st3">
				<g>
					
						<linearGradient id="SVGID_12_" gradientUnits="userSpaceOnUse" x1="740.7155" y1="23.4" x2="779.4633" y2="23.4" gradientTransform="matrix(1 0 0 -1 -697.9749 100)">
						<stop  offset="6.778585e-03" style="stop-color:#92D4F6"/>
						<stop  offset="0.2627" style="stop-color:#A5DBF4"/>
						<stop  offset="0.7343" style="stop-color:#C4E5F1"/>
						<stop  offset="1" style="stop-color:#CFE9F0"/>
					</linearGradient>
					<path class="st23" d="M43.3,75.8c-0.8,0.4-0.8,1.2,0,1.6l17.3,10.1c0.8,0.4,2,0.4,2.8,0l17.4-10.1c0.8-0.4,0.8-1.2,0-1.6
						L63.6,65.7c-0.8-0.4-2-0.4-2.8,0L43.3,75.8z"/>
				</g>
				
					<linearGradient id="SVGID_13_" gradientUnits="userSpaceOnUse" x1="760.0124" y1="23.3778" x2="760.0124" y2="11.505" gradientTransform="matrix(1 0 0 -1 -697.9749 100)">
					<stop  offset="5.376340e-03" style="stop-color:#23398D"/>
					<stop  offset="0.3102" style="stop-color:#456FA8"/>
					<stop  offset="0.6252" style="stop-color:#64A0C0"/>
					<stop  offset="0.8653" style="stop-color:#78BFCF"/>
					<stop  offset="1" style="stop-color:#7FCAD5"/>
				</linearGradient>
				<path class="st24" d="M42.8,76.8C42.8,76.8,42.8,76.9,42.8,76.8c0,0.1,0.1,0.1,0.1,0.2l0,0c0,0.1,0.1,0.1,0.2,0.2l0.1,0.1
					l0.1,0.1l17.3,10.1c0.1,0.1,0.3,0.1,0.4,0.2h0.1c0.1,0,0.1,0,0.2,0c0.1,0,0.2,0,0.2,0s0,0,0.1,0s0.2,0,0.3,0c0,0,0,0,0.1,0
					s0.2,0,0.3,0l0,0c0.1,0,0.2,0,0.3-0.1c0,0,0,0,0.1,0s0.2-0.1,0.3-0.1l0,0c0.1,0,0.2-0.1,0.3-0.1l17.4-10.1
					c0.4-0.2,0.6-0.5,0.6-0.8v0.6c0,0.3-0.2,0.6-0.6,0.8L63.5,88.2c-0.1,0.1-0.2,0.1-0.3,0.1l0,0l0,0c-0.1,0-0.1,0-0.2,0.1h-0.1
					c0,0,0,0-0.1,0c0,0,0,0-0.1,0s-0.1,0-0.2,0c0,0,0,0-0.1,0l0,0c0,0,0,0-0.1,0s-0.1,0-0.2,0c0,0,0,0-0.1,0c0,0,0,0-0.1,0h-0.1
					c-0.1,0-0.1,0-0.2,0l0,0c0,0,0,0-0.1,0s-0.1,0-0.2,0c0,0,0,0-0.1,0s-0.1,0-0.2,0h-0.1l0,0c-0.1,0-0.3-0.1-0.4-0.2L43.3,78.1l0,0
					c0,0-0.1,0-0.1-0.1l-0.1-0.1l0,0L43,77.8l0,0l0,0c0,0,0,0,0-0.1c0,0,0-0.1-0.1-0.1l0,0l0,0c0,0,0,0,0-0.1v-0.1l0,0v-0.6
					C42.7,76.7,42.8,76.8,42.8,76.8z"/>
			</g>
		</g>
		<g>
			<g class="st3">
				<g>
					
						<linearGradient id="SVGID_14_" gradientUnits="userSpaceOnUse" x1="775.8506" y1="21.95" x2="777.1898" y2="21.95" gradientTransform="matrix(1 0 0 -1 -697.9749 100)">
						<stop  offset="0" style="stop-color:#4489C8"/>
						<stop  offset="0.2523" style="stop-color:#4A92C8"/>
						<stop  offset="0.6624" style="stop-color:#5BAAC9"/>
						<stop  offset="1" style="stop-color:#6CC3C9"/>
					</linearGradient>
					<polygon class="st25" points="77.9,77.7 77.9,79.2 79.2,78.4 79.2,76.9 					"/>
				</g>
				<g>
					
						<linearGradient id="SVGID_15_" gradientUnits="userSpaceOnUse" x1="764.6232" y1="24.85" x2="775.855" y2="24.85" gradientTransform="matrix(1 0 0 -1 -697.9749 100)">
						<stop  offset="0" style="stop-color:#4489C8"/>
						<stop  offset="0.2523" style="stop-color:#4A92C8"/>
						<stop  offset="0.6624" style="stop-color:#5BAAC9"/>
						<stop  offset="1" style="stop-color:#6CC3C9"/>
					</linearGradient>
					<polygon class="st26" points="77.9,77.7 66.6,71.1 66.7,72.7 77.9,79.2 					"/>
				</g>
				<g>
					<polygon class="st27" points="79.2,76.9 68,70.4 66.6,71.1 77.9,77.7 					"/>
				</g>
			</g>
		</g>
		<g>
			<g class="st3">
				<g>
					
						<linearGradient id="SVGID_16_" gradientUnits="userSpaceOnUse" x1="762.5987" y1="14.35" x2="763.9377" y2="14.35" gradientTransform="matrix(1 0 0 -1 -697.9749 100)">
						<stop  offset="0" style="stop-color:#4489C8"/>
						<stop  offset="0.2523" style="stop-color:#4A92C8"/>
						<stop  offset="0.6624" style="stop-color:#5BAAC9"/>
						<stop  offset="1" style="stop-color:#6CC3C9"/>
					</linearGradient>
					<polygon class="st28" points="64.6,85.3 64.6,86.8 66,86.1 66,84.5 					"/>
				</g>
				<g>
					
						<linearGradient id="SVGID_17_" gradientUnits="userSpaceOnUse" x1="751.3749" y1="17.2" x2="762.6068" y2="17.2" gradientTransform="matrix(1 0 0 -1 -697.9749 100)">
						<stop  offset="0" style="stop-color:#4489C8"/>
						<stop  offset="0.2523" style="stop-color:#4A92C8"/>
						<stop  offset="0.6624" style="stop-color:#5BAAC9"/>
						<stop  offset="1" style="stop-color:#6CC3C9"/>
					</linearGradient>
					<polygon class="st29" points="64.6,85.3 53.4,78.8 53.4,80.3 64.6,86.8 					"/>
				</g>
				<g>
					<polygon class="st27" points="66,84.5 54.7,78 53.4,78.8 64.6,85.3 					"/>
				</g>
			</g>
		</g>
		<g>
			<g class="st3">
				<g>
					
						<linearGradient id="SVGID_18_" gradientUnits="userSpaceOnUse" x1="740.7155" y1="25.5" x2="779.4633" y2="25.5" gradientTransform="matrix(1 0 0 -1 -697.9749 100)">
						<stop  offset="0" style="stop-color:#4489C8"/>
						<stop  offset="0.2286" style="stop-color:#76AAD7"/>
						<stop  offset="0.4788" style="stop-color:#A6C9E5"/>
						<stop  offset="0.6999" style="stop-color:#C8E0EF"/>
						<stop  offset="0.8812" style="stop-color:#DDEEF6"/>
						<stop  offset="1" style="stop-color:#E5F3F8"/>
					</linearGradient>
					<path class="st30" d="M43.3,73.7c-0.8,0.4-0.8,1.2,0,1.6l17.3,10.1c0.8,0.4,2,0.4,2.8,0l17.4-10.1c0.8-0.4,0.8-1.2,0-1.6
						L63.6,63.6c-0.8-0.4-2-0.4-2.8,0L43.3,73.7z"/>
				</g>
				
					<linearGradient id="SVGID_19_" gradientUnits="userSpaceOnUse" x1="760.0124" y1="25.5288" x2="760.0124" y2="13.656" gradientTransform="matrix(1 0 0 -1 -697.9749 100)">
					<stop  offset="5.376340e-03" style="stop-color:#23398D"/>
					<stop  offset="0.3102" style="stop-color:#456FA8"/>
					<stop  offset="0.6252" style="stop-color:#64A0C0"/>
					<stop  offset="0.8653" style="stop-color:#78BFCF"/>
					<stop  offset="1" style="stop-color:#7FCAD5"/>
				</linearGradient>
				<path class="st31" d="M42.8,74.7L42.8,74.7c0,0.1,0.1,0.1,0.1,0.2l0,0c0,0.1,0.1,0.1,0.2,0.2l0.1,0.1l0.1,0.1l17.3,10.1
					c0.1,0.1,0.3,0.1,0.4,0.2h0.1c0.1,0,0.1,0,0.2,0c0.1,0,0.2,0,0.2,0s0,0,0.1,0s0.2,0,0.3,0c0,0,0,0,0.1,0s0.2,0,0.3,0l0,0
					c0.1,0,0.2,0,0.3-0.1c0,0,0,0,0.1,0s0.2-0.1,0.3-0.1l0,0c0.1,0,0.2-0.1,0.3-0.1l17.4-10.1c0.4-0.2,0.6-0.5,0.6-0.8V75
					c0,0.3-0.2,0.6-0.6,0.8L63.5,86c-0.1,0.1-0.2,0.1-0.3,0.1l0,0l0,0c-0.1,0-0.1,0-0.2,0.1h-0.1c0,0,0,0-0.1,0c0,0,0,0-0.1,0
					s-0.1,0-0.2,0c0,0,0,0-0.1,0l0,0c0,0,0,0-0.1,0s-0.1,0-0.2,0c0,0,0,0-0.1,0c0,0,0,0-0.1,0h-0.1c-0.1,0-0.1,0-0.2,0l0,0
					c0,0,0,0-0.1,0s-0.1,0-0.2,0c0,0,0,0-0.1,0s-0.1,0-0.2,0h-0.1l0,0c-0.1,0-0.3-0.1-0.4-0.2L43.3,75.9l0,0c0,0-0.1,0-0.1-0.1
					l-0.1-0.1l0,0L43,75.6l0,0l0,0c0,0,0,0,0-0.1c0,0,0-0.1-0.1-0.1l0,0l0,0c0,0,0,0,0-0.1v-0.1l0,0v-0.6
					C42.7,74.6,42.8,74.6,42.8,74.7z"/>
			</g>
		</g>
	</g>
</g>
</svg>
