<?xml version="1.0" encoding="utf-8"?>
<!-- Generator: Adobe Illustrator 23.0.1, SVG Export Plug-In . SVG Version: 6.00 Build 0)  -->
<svg version="1.1" id="Layer_1" xmlns="http://www.w3.org/2000/svg" xmlns:xlink="http://www.w3.org/1999/xlink" x="0px" y="0px"
	 viewBox="0 0 100 100" style="enable-background:new 0 0 100 100;" xml:space="preserve">
<style type="text/css">
	.st0{fill:#1D1D1B;}
</style>
<path id="Hair_10_" class="st0" d="M43.7,6.1c0.8-1.1,0.7-1.9-0.3-2.3c-0.2-0.8-0.7-1.3-1.7-1.5c-1.4-0.4-4,0.1-4.6,2.1
	c-0.6,2,0.5,4.3,1.7,4.5C39.6,9,41.2,8.1,43.7,6.1z"/>
<path id="Hair_9_" class="st0" d="M43.8,4.7c-0.5,1.8-2.3,2.8-5.3,2.9c-0.6-0.7-0.9-1.3-0.9-1.9c0-0.9,1.2-2.6,3.7-2.6
	C43,3.2,43.8,3.7,43.8,4.7z"/>
<path id="Hair-tail_2_" class="st0" d="M37.9,6.6c-1-0.5-1.5-0.3-1.5,0.6c0,1.4,0.7,2.9-2,3.9c0.7-1.1,0.8-2.2,0.4-3.1
	c-0.6-1.4,0.7-3.7,3.2-2l0.3,0.6H37.9z"/>
</svg>
