<?xml version="1.0" encoding="utf-8"?>
<!-- Generator: Adobe Illustrator 23.0.1, SVG Export Plug-In . SVG Version: 6.00 Build 0)  -->
<svg version="1.1" id="Layer_1" xmlns="http://www.w3.org/2000/svg" xmlns:xlink="http://www.w3.org/1999/xlink" x="0px" y="0px"
	 viewBox="0 0 100 100" style="enable-background:new 0 0 100 100;" xml:space="preserve">
<style type="text/css">
	.st0{fill:#FFFFFF;}
	.st1{fill:url(#SVGID_1_);}
	.st2{fill:url(#SVGID_2_);}
</style>
<g>
	<path class="st0" d="M79.9,80.4c0,0.1,0,0.2,0,0.4c0,0.2,0,0.3,0,0.4s-0.1,0.2-0.1,0.2s-0.1,0-0.1-0.1s0-0.2,0-0.4
		c0-0.2,0-0.3,0-0.4S79.8,80.3,79.9,80.4L79.9,80.4z M79.8,81.1c0,0,0-0.1,0-0.2s0-0.2,0-0.2s0-0.1,0,0c0,0,0,0,0,0.1
		C79.8,80.8,79.8,80.9,79.8,81.1C79.7,81,79.7,81.1,79.8,81.1C79.7,81.2,79.8,81.2,79.8,81.1C79.8,81.2,79.8,81.2,79.8,81.1"/>
</g>
<g id="hat_5_">
	
		<linearGradient id="SVGID_1_" gradientUnits="userSpaceOnUse" x1="746.8595" y1="82.5135" x2="757.4922" y2="82.5135" gradientTransform="matrix(1 0 0 -1 -697.9749 100)">
		<stop  offset="0" style="stop-color:#4674B8"/>
		<stop  offset="1" style="stop-color:#2A2760"/>
	</linearGradient>
	<path class="st1" d="M56.9,15.5c0,0,1.8,0.9,2.3,1.3c1.2,0.9-1.6,3.1-3.9,2.6c-2.6-0.6-5-1.4-6.5-2.5
		C50.5,15.7,56.9,15.5,56.9,15.5z"/>
	
		<linearGradient id="SVGID_2_" gradientUnits="userSpaceOnUse" x1="744.3007" y1="86.1434" x2="754.9146" y2="86.1434" gradientTransform="matrix(1 0 0 -1 -697.9749 100)">
		<stop  offset="0" style="stop-color:#4674B8"/>
		<stop  offset="1" style="stop-color:#2A2760"/>
	</linearGradient>
	<path class="st2" d="M46.5,16.1c0,0.1,4.1,2.3,7.7,1.4c1.1-0.3,2.9-1,2.8-2.3c-0.2-2.9-0.9-5-5.6-5.2C48.1,9.9,45.8,12.7,46.5,16.1
		z"/>
</g>
</svg>
