<?xml version="1.0" encoding="utf-8"?>
<!-- Generator: Adobe Illustrator 23.0.1, SVG Export Plug-In . SVG Version: 6.00 Build 0)  -->
<svg version="1.1" id="Layer_1" xmlns="http://www.w3.org/2000/svg" xmlns:xlink="http://www.w3.org/1999/xlink" x="0px" y="0px"
	 viewBox="0 0 100 100" style="enable-background:new 0 0 100 100;" xml:space="preserve">
<style type="text/css">
	.st0{fill:#292C68;}
	.st1{fill:#C1E4EE;}
</style>
<path id="Shoes_16_" class="st0" d="M39.5,47.2c0,0-0.4,0.9-0.4,1.6c0,0.4,0,1,0,1.9h0.2l0.1-0.7c0.3,0.3,0.4,0.7,0.5,1.1
	c0.1,0.6,0.4,1.7,1.7,1.9s1.9,0.3,1.6-0.7c-0.3-1.1-1.4-2.1-2-2.5C40.8,49.2,39.5,47.2,39.5,47.2z"/>
<path id="Foot_12_" class="st1" d="M38.7,38.6c0.3,1.9,0.5,3.5,0.7,5.1c0.2,2.3,0,4.7,0.3,5.2s0.7,1.8,1.1,2.3
	c0.4,0.6,0.9,0.8,1.7,0.6c0.7-0.2-0.4-1.6-0.8-2.3c-0.4-0.7-0.9-2.7-0.6-4.6c0.3-2,0.9-8.7,0.3-9.6C40.9,34.7,40,35.8,38.7,38.6z"/>
</svg>
