<?xml version="1.0" encoding="utf-8"?>
<!-- Generator: Adobe Illustrator 23.0.1, SVG Export Plug-In . SVG Version: 6.00 Build 0)  -->
<svg version="1.1" id="Layer_1" xmlns="http://www.w3.org/2000/svg" xmlns:xlink="http://www.w3.org/1999/xlink" x="0px" y="0px"
	 viewBox="0 0 100 100" style="enable-background:new 0 0 100 100;" xml:space="preserve">
<g style="enable-background:new    ;">
	<g>
		
			<linearGradient id="SVGID_1_" gradientUnits="userSpaceOnUse" x1="-1347.4043" y1="-1516.5271" x2="-1341.0896" y2="-1516.5271" gradientTransform="matrix(0.4918 0.8707 -0.8707 0.4918 -598.7656 1973.2595)">
			<stop  offset="0" style="stop-color:#315CA7"/>
			<stop  offset="1" style="stop-color:#32BDEF"/>
		</linearGradient>
		<path style="fill:url(#SVGID_1_);" d="M57.6,55c1.5-0.9,4.3-0.9,5.8,0c1.5,0.9,1.4,3.2-0.1,4.1c-1.5,0.9-4,0.8-5.5-0.1
			C56.3,58.1,56.1,55.9,57.6,55z"/>
	</g>
</g>
<g style="enable-background:new    ;">
	<g>
		
			<linearGradient id="SVGID_2_" gradientUnits="userSpaceOnUse" x1="-1347.5031" y1="-1516.7747" x2="-1341.9583" y2="-1516.7747" gradientTransform="matrix(0.4918 0.8707 -0.8707 0.4918 -598.7656 1973.2595)">
			<stop  offset="0" style="stop-color:#315CA7"/>
			<stop  offset="1" style="stop-color:#32BDEF"/>
		</linearGradient>
		<path style="fill:url(#SVGID_2_);" d="M57.8,54.8c1.5-0.9,4-0.8,5.5,0.1c1.5,0.9,1.5,2.3,0,3.2c-1.5,0.9-4,0.8-5.5-0.1
			C56.3,57.1,56.3,55.7,57.8,54.8z"/>
	</g>
</g>
<g>
	
		<linearGradient id="SVGID_3_" gradientUnits="userSpaceOnUse" x1="57.7349" y1="43.55" x2="63.4427" y2="43.55" gradientTransform="matrix(1 0 0 -1 0 100)">
		<stop  offset="0" style="stop-color:#315CA7"/>
		<stop  offset="1" style="stop-color:#32BDEF"/>
	</linearGradient>
	<path style="fill:url(#SVGID_3_);" d="M58.6,57.6c1.1,0.7,2.9,0.7,4,0c1.1-0.6,1.1-1.7,0-2.3c-1.1-0.7-2.9-0.7-4,0
		C57.5,55.9,57.5,56.9,58.6,57.6z"/>
</g>
<g>
	<path style="fill:#FFFFFF;" d="M58.4,55.1c1.2-0.7,3.2-0.7,4.4,0c1.2,0.7,1.2,1.8,0,2.5c-1.2,0.7-3.2,0.7-4.4,0
		C57.2,57,57.2,55.8,58.4,55.1z M62.6,55.3c-1.1-0.7-2.9-0.7-4,0c-1.1,0.6-1.1,1.7,0,2.3c1.1,0.7,2.9,0.7,4,0
		C63.7,57,63.7,55.9,62.6,55.3"/>
</g>
<g>
	<path style="fill:#FFFFFF;" d="M61,56.4c0.3,0.3,0.6,0.6,0.1,0.9c-0.4,0.2-1,0.3-1.6,0l-0.3,0.2l-0.3-0.2l0.3-0.2
		c-0.3-0.2-0.5-0.5-0.5-0.7l0.7-0.1c0,0.2,0.1,0.3,0.3,0.5l0.6-0.3c-0.3-0.3-0.6-0.6-0.1-0.9c0.4-0.2,1-0.2,1.5,0l0.3-0.2l0.3,0.2
		L62,55.8c0.3,0.2,0.4,0.4,0.4,0.6l-0.7,0.1c0-0.1-0.1-0.3-0.2-0.4L61,56.4z M60,57c0.2,0.1,0.4,0.1,0.5,0s0.1-0.2,0-0.3L60,57
		 M60.8,56.1l0.4-0.3c-0.2-0.1-0.4-0.1-0.5,0C60.6,55.9,60.7,56,60.8,56.1"/>
</g>
</svg>
