<?xml version="1.0" encoding="utf-8"?>
<!-- Generator: Adobe Illustrator 23.0.1, SVG Export Plug-In . SVG Version: 6.00 Build 0)  -->
<svg version="1.1" id="Layer_1" xmlns="http://www.w3.org/2000/svg" xmlns:xlink="http://www.w3.org/1999/xlink" x="0px" y="0px"
	 viewBox="0 0 100 100" style="enable-background:new 0 0 100 100;" xml:space="preserve">
<g>
	<path style="fill:#FFFFFF;" d="M79.9,80.4c0,0.1,0,0.2,0,0.4c0,0.2,0,0.3,0,0.4s-0.1,0.2-0.1,0.2s-0.1,0-0.1-0.1s0-0.2,0-0.4
		c0-0.2,0-0.3,0-0.4S79.8,80.3,79.9,80.4L79.9,80.4z M79.8,81.1c0,0,0-0.1,0-0.2s0-0.2,0-0.2s0-0.1,0,0c0,0,0,0,0,0.1
		C79.8,80.8,79.8,80.9,79.8,81.1C79.7,81,79.7,81.1,79.8,81.1C79.7,81.2,79.8,81.2,79.8,81.1C79.8,81.2,79.8,81.2,79.8,81.1"/>
</g>
<g id="chart_3_">
	<g style="opacity:0.75;">
		
			<linearGradient id="SVGID_1_" gradientUnits="userSpaceOnUse" x1="-404.6663" y1="84.7555" x2="-404.6663" y2="15.2445" gradientTransform="matrix(-1 0 0 -1 -354.6663 100)">
			<stop  offset="5.376340e-03" style="stop-color:#76CAEB"/>
			<stop  offset="1" style="stop-color:#315CA7"/>
		</linearGradient>
		<path style="fill:url(#SVGID_1_);" d="M24.3,45.2c-1.3,0.7-2.3,2.5-2.3,4l0.1,33.9c0,1.5,1,2.1,2.3,1.3l51.3-29.6
			c1.3-0.7,2.3-2.5,2.3-4l-0.1-33.9c0-1.5-1-2.1-2.3-1.3L24.3,45.2z"/>
	</g>
</g>
</svg>
