<?xml version="1.0" encoding="utf-8"?>
<!-- Generator: Adobe Illustrator 23.0.1, SVG Export Plug-In . SVG Version: 6.00 Build 0)  -->
<svg version="1.1" id="Layer_1" xmlns="http://www.w3.org/2000/svg" xmlns:xlink="http://www.w3.org/1999/xlink" x="0px" y="0px"
	 viewBox="0 0 100 100" style="enable-background:new 0 0 100 100;" xml:space="preserve">
<linearGradient id="legs_1_" gradientUnits="userSpaceOnUse" x1="1320.5786" y1="21.2414" x2="1320.5786" y2="49.669" gradientTransform="matrix(1 0 0 -1 -1283.2828 100)">
	<stop  offset="0" style="stop-color:#315CA7"/>
	<stop  offset="1" style="stop-color:#32BDEF"/>
</linearGradient>
<path id="legs_3_" style="fill:url(#legs_1_);" d="M41.8,51.6c0,0,0.4,2.6,0.2,5.5s-0.5,8-0.5,9.9c0,1.8-0.7,11.1-0.7,11.1
	s-0.3,1-2.1,0.6c0,0-0.7-10.3-0.7-11.7s-0.3-10-0.7-10.1s-0.5,0.1-0.5,0.6s-0.3,6.2-0.4,6.9c-0.4,2.9-0.6,11.5-0.7,12.2
	c0,0-1.3,1-2.1,0.4c0,0-0.4-10.2-0.5-11.7c-0.1-1.5-1-11.9-0.3-14.3C33.2,49.6,40.1,50.6,41.8,51.6z"/>
</svg>
