<?xml version="1.0" encoding="utf-8"?>
<!-- Generator: Adobe Illustrator 23.0.1, SVG Export Plug-In . SVG Version: 6.00 Build 0)  -->
<svg version="1.1" id="Layer_1" xmlns="http://www.w3.org/2000/svg" xmlns:xlink="http://www.w3.org/1999/xlink" x="0px" y="0px"
	 viewBox="0 0 100 100" style="enable-background:new 0 0 100 100;" xml:space="preserve">
<g>
	<path style="fill:#FFFFFF;" d="M79.9,80.4c0,0.1,0,0.2,0,0.4c0,0.2,0,0.3,0,0.4c0,0.1-0.1,0.2-0.1,0.2s-0.1,0-0.1-0.1
		c0-0.1,0-0.2,0-0.4c0-0.2,0-0.3,0-0.4c0-0.1,0.1-0.2,0.1-0.2S79.9,80.4,79.9,80.4z M79.8,81.1c0,0,0-0.1,0-0.2c0-0.1,0-0.2,0-0.2
		c0,0,0-0.1,0,0c0,0,0,0,0,0.1c0,0,0,0.1,0,0.2C79.7,81,79.7,81.1,79.8,81.1C79.7,81.2,79.8,81.2,79.8,81.1
		C79.8,81.2,79.8,81.2,79.8,81.1"/>
</g>
<linearGradient id="smoke_1_" gradientUnits="userSpaceOnUse" x1="56.6152" y1="91.2818" x2="42.0439" y2="8.6444">
	<stop  offset="0" style="stop-color:#77B1E1"/>
	<stop  offset="1" style="stop-color:#FFFFFF;stop-opacity:0"/>
</linearGradient>
<path id="smoke_11_" style="opacity:0.7;fill:url(#smoke_1_);" d="M16.4,43.2c0-4.9,2.8-9.2,7-11.3c-1.4-2.2-2.1-4.8-2.1-7.5
	c0-7.9,6.4-14.4,14.4-14.4c4.9,0,9.2,2.4,11.8,6.2c2-1.1,4.3-1.7,6.8-1.7c7.9,0,14.4,6.4,14.4,14.4c0,2.2-0.5,4.3-1.4,6.2
	c6.7,0.4,12.1,6,12.1,12.8c0,3-1,5.7-2.7,7.9c4,0.6,7,4,7,8.2c0,3.6-2.3,6.7-5.5,7.8c-0.4,1-0.9,1.9-1.6,2.7
	c1.2,1.2,1.9,2.9,1.9,4.8c0,3.8-3.1,7-7,7c-0.6,0-1.2-0.1-1.8-0.2c-0.5,2.2-2.5,3.8-4.9,3.8c-2.8,0-5-2.2-5-5c0-1.1,0.3-2,0.9-2.8
	c-3.4-0.3-6.3-2.2-8.1-4.9c-0.2,0-0.5,0-0.7,0c-4,0-7.5-2.1-9.5-5.3c-0.8,0.1-1.6,0.2-2.5,0.2c-7.9,0-14.4-6.4-14.4-14.4
	c0-0.7,0.1-1.5,0.2-2.2C20.3,53.9,16.4,49,16.4,43.2z"/>
</svg>
