<?xml version="1.0" encoding="utf-8"?>
<!-- Generator: Adobe Illustrator 23.0.1, SVG Export Plug-In . SVG Version: 6.00 Build 0)  -->
<svg version="1.1" id="Layer_1" xmlns="http://www.w3.org/2000/svg" xmlns:xlink="http://www.w3.org/1999/xlink" x="0px" y="0px"
	 viewBox="0 0 100 100" style="enable-background:new 0 0 100 100;" xml:space="preserve">
<linearGradient id="neck_1_" gradientUnits="userSpaceOnUse" x1="1186.3707" y1="67.5355" x2="1191.2223" y2="67.5355" gradientTransform="matrix(1 0 0 -1 -1166.0406 100)">
	<stop  offset="5.117199e-03" style="stop-color:#F7C6D3"/>
	<stop  offset="1" style="stop-color:#F3A8B2"/>
</linearGradient>
<path id="neck_3_" style="fill:url(#neck_1_);" d="M24.1,33.4L24.1,33.4c0,0-0.2-1,0.2-1.9l-0.8-1.4h-1.3c0,0,0.1,1.5-0.1,2.2
	c-0.7-0.3-1.3-0.6-1.8-0.8c0,1.4,1.2,3.1,2.1,3.3s2.7-0.7,2.7-0.7C24.9,34,24.5,33.7,24.1,33.4z"/>
<linearGradient id="face_1_" gradientUnits="userSpaceOnUse" x1="1187.6814" y1="70.8205" x2="1192.9941" y2="70.8205" gradientTransform="matrix(1 0 0 -1 -1166.0406 100)">
	<stop  offset="5.117199e-03" style="stop-color:#F7C6D3"/>
	<stop  offset="1" style="stop-color:#F3A8B2"/>
</linearGradient>
<path id="face_11_" style="fill:url(#face_1_);" d="M23.6,31.5c0,0,1,1,2,1.1c0,0,0.2-0.9,0.4-1.1c0.2-0.2,0.7-0.9,0.6-1.4
	s0.5-1.4,0.4-1.9s-0.2-1.8-1.8-2.3s-3.1,0.4-3.2,1.6c-0.2,1.2-0.4,2.3-0.1,2.9S23.6,31.5,23.6,31.5z"/>
</svg>
