<svg xmlns="http://www.w3.org/2000/svg" viewBox="0 0 100 100"><linearGradient id="a" gradientUnits="userSpaceOnUse" x1="1467.955" y1="-95.719" x2="1473.77" y2="-95.719" gradientTransform="scale(1 -1) rotate(8.911 440.514 -9300.339)"><stop offset=".005" stop-color="#f7c6d3"/><stop offset="1" stop-color="#f3a8b2"/></linearGradient><path d="M34.4 40s-.2 1.5-.3 2.8c-.1 1.6-2.5 9.7-2.5 9.7s-.1 1.2.2 1.8c0 0-.3.3-1-.5-.6-.8 0-1.5.2-2s.7-8 .8-8.8c.2-1 .3-2.7.3-2.7l2.3-.3z" fill="url(#a)"/><linearGradient id="b" gradientUnits="userSpaceOnUse" x1="-602.049" y1="60.251" x2="-597.888" y2="60.251" gradientTransform="rotate(180 -283.43 50)"><stop offset="0" stop-color="#e95281"/><stop offset="1" stop-color="#bf3d62"/></linearGradient><path d="M32.8 36.5s-.9 2-1.8 5.9c0 0 1.7.8 3.2.6 0 0 1-3.8 1-4.6 0-1.4-1.5-2.1-2.4-1.9z" fill="url(#b)"/></svg>