<?xml version="1.0" encoding="utf-8"?>
<!-- Generator: Adobe Illustrator 23.0.1, SVG Export Plug-In . SVG Version: 6.00 Build 0)  -->
<svg version="1.1" id="Layer_1" xmlns="http://www.w3.org/2000/svg" xmlns:xlink="http://www.w3.org/1999/xlink" x="0px" y="0px"
	 viewBox="0 0 100 100" style="enable-background:new 0 0 100 100;" xml:space="preserve">
<style type="text/css">
	.st0{fill:url(#right-leg_1_);}
</style>
<g id="right-leg_11_">
	<path id="Shoes_15_" d="M82.2,65.6c0,0.4,0,0.6,0,0.8c0,0.2-0.2,0.7-0.8,0.7c-0.7,0-0.9-0.5-0.9-0.9c-0.4-0.3-0.7-0.6-1.1-1
		c-0.5-0.6-0.4-1.2,0.1-1c0.4,0.1,0.7,0.2,1.1,0.3L82.2,65.6z"/>
	
		<linearGradient id="right-leg_1_" gradientUnits="userSpaceOnUse" x1="-318.5827" y1="441.3076" x2="-319.2846" y2="441.5568" gradientTransform="matrix(-17.3356 0 0 -58.6867 -5440.5474 25955.8301)">
		<stop  offset="0" style="stop-color:#E95281"/>
		<stop  offset="0.4393" style="stop-color:#E7517F"/>
		<stop  offset="0.6683" style="stop-color:#DF4D7A"/>
		<stop  offset="0.8482" style="stop-color:#D24670"/>
		<stop  offset="1" style="stop-color:#BF3D62"/>
	</linearGradient>
	<path id="right-leg_12_" class="st0" d="M78.5,56.3c0.5,2.7,0.9,4.4,1,4.9c0.2,0.5,0.5,1.9,0.9,4c0.3,0.4,0.6,0.6,1.1,0.6
		s0.7,0,0.8-0.1c-0.1-1.6-0.2-2.6-0.2-3c0-0.6-0.4-3.3-0.7-4.4c-0.3-1.1,0-5.5,0-6.2c0-0.7-3.3-0.1-3.3,1.5
		C78.1,54.6,78.3,55.5,78.5,56.3z"/>
</g>
</svg>
