<?xml version="1.0" encoding="utf-8"?>
<!-- Generator: Adobe Illustrator 23.0.1, SVG Export Plug-In . SVG Version: 6.00 Build 0)  -->
<svg version="1.1" id="Layer_1" xmlns="http://www.w3.org/2000/svg" xmlns:xlink="http://www.w3.org/1999/xlink" x="0px" y="0px"
	 viewBox="0 0 100 100" style="enable-background:new 0 0 100 100;" xml:space="preserve">
<style type="text/css">
	.st0{opacity:0.6;fill:url(#_x31__6_);enable-background:new    ;}
	.st1{opacity:0.6;fill:url(#_x31__7_);enable-background:new    ;}
	.st2{opacity:0.6;fill:url(#_x31__8_);enable-background:new    ;}
	.st3{opacity:0.6;fill:url(#_x31__9_);enable-background:new    ;}
	.st4{opacity:0.6;fill:url(#_x31__10_);enable-background:new    ;}
	.st5{opacity:0.6;fill:url(#_x31__11_);enable-background:new    ;}
</style>
<linearGradient id="_x31__6_" gradientUnits="userSpaceOnUse" x1="20.6" y1="51.8" x2="20.6" y2="53.993">
	<stop  offset="5.376340e-03" style="stop-color:#76CAEB"/>
	<stop  offset="1" style="stop-color:#315CA7"/>
</linearGradient>
<path id="_x31__14_" class="st0" d="M21.2,51.8C21.2,51.8,21.2,51.8,21.2,51.8l0.1,1.4c0,0,0,0.1-0.1,0.1L20,54c0,0-0.1,0-0.1,0
	l0-1.3c0,0,0-0.1,0.1-0.1L21.2,51.8z"/>
<linearGradient id="_x31__7_" gradientUnits="userSpaceOnUse" x1="39.3" y1="46.4" x2="39.3" y2="48.593" gradientTransform="matrix(-1 0 0 1 78.6 0)">
	<stop  offset="5.376340e-03" style="stop-color:#76CAEB"/>
	<stop  offset="1" style="stop-color:#315CA7"/>
</linearGradient>
<path id="_x31__3_" class="st1" d="M38.7,46.4C38.7,46.4,38.7,46.4,38.7,46.4l-0.1,1.4c0,0,0,0.1,0.1,0.1l1.2,0.7c0,0,0.1,0,0.1,0
	l0-1.3c0,0,0-0.1-0.1-0.1L38.7,46.4z"/>
<linearGradient id="_x31__8_" gradientUnits="userSpaceOnUse" x1="40.3273" y1="59.3" x2="40.3273" y2="61.493" gradientTransform="matrix(-1 0 0 1 95.1273 0)">
	<stop  offset="5.376340e-03" style="stop-color:#76CAEB"/>
	<stop  offset="1" style="stop-color:#315CA7"/>
</linearGradient>
<path id="_x31__1_" class="st2" d="M54.2,59.3C54.2,59.3,54.2,59.3,54.2,59.3l-0.1,1.4c0,0,0,0.1,0.1,0.1l1.2,0.7c0,0,0.1,0,0.1,0
	l0-1.3c0,0,0-0.1-0.1-0.1L54.2,59.3z"/>
<linearGradient id="_x31__9_" gradientUnits="userSpaceOnUse" x1="58.4534" y1="86.3073" x2="58.4534" y2="88.5003" gradientTransform="matrix(-1 0 0 1 95.1273 0)">
	<stop  offset="5.376340e-03" style="stop-color:#76CAEB"/>
	<stop  offset="1" style="stop-color:#315CA7"/>
</linearGradient>
<path id="_x31__4_" class="st3" d="M36.1,86.3C36.1,86.3,36,86.3,36.1,86.3L36,87.7c0,0,0,0.1,0.1,0.1l1.2,0.7c0,0,0.1,0,0.1,0
	l0-1.3c0,0,0-0.1-0.1-0.1L36.1,86.3z"/>
<linearGradient id="_x31__10_" gradientUnits="userSpaceOnUse" x1="45.3386" y1="49.7888" x2="45.3386" y2="52.1015" gradientTransform="matrix(1 0 0 1 15.0614 0)">
	<stop  offset="5.376340e-03" style="stop-color:#76CAEB"/>
	<stop  offset="1" style="stop-color:#315CA7"/>
</linearGradient>
<path id="_x31__2_" class="st4" d="M61,49.8C61,49.8,61,49.8,61,49.8l0.1,1.4c0,0,0,0.1-0.1,0.1l-1.2,0.8c0,0-0.1,0-0.1,0l0-1.3
	c0,0,0-0.1,0.1-0.1L61,49.8z"/>
<linearGradient id="_x31__11_" gradientUnits="userSpaceOnUse" x1="44.6846" y1="67.915" x2="44.6846" y2="70.2276" gradientTransform="matrix(1 0 0 1 15.0614 0)">
	<stop  offset="5.376340e-03" style="stop-color:#76CAEB"/>
	<stop  offset="1" style="stop-color:#315CA7"/>
</linearGradient>
<path id="_x31__5_" class="st5" d="M60.3,67.9C60.4,67.9,60.4,67.9,60.3,67.9l0.1,1.4c0,0,0,0.1-0.1,0.1l-1.2,0.8c0,0-0.1,0-0.1,0
	l0-1.3c0,0,0-0.1,0.1-0.1L60.3,67.9z"/>
</svg>
