<?xml version="1.0" encoding="utf-8"?>
<!-- Generator: Adobe Illustrator 23.0.1, SVG Export Plug-In . SVG Version: 6.00 Build 0)  -->
<svg version="1.1" id="Layer_1" xmlns="http://www.w3.org/2000/svg" xmlns:xlink="http://www.w3.org/1999/xlink" x="0px" y="0px"
	 viewBox="0 0 100 100" style="enable-background:new 0 0 100 100;" xml:space="preserve">
<g id="shoes_8_">
	<g id="base_39_">
		<g style="opacity:0.24;">
			
				<linearGradient id="SVGID_1_" gradientUnits="userSpaceOnUse" x1="341.0616" y1="66.3374" x2="336.5291" y2="74.188" gradientTransform="matrix(-1 0 0 1 413.3527 0)">
				<stop  offset="0" style="stop-color:#6485C3;stop-opacity:0"/>
				<stop  offset="0.2111" style="stop-color:#6A8BC6;stop-opacity:0.1266"/>
				<stop  offset="0.4949" style="stop-color:#7A9CCF;stop-opacity:0.297"/>
				<stop  offset="0.8189" style="stop-color:#95B8DE;stop-opacity:0.4913"/>
				<stop  offset="1" style="stop-color:#A7CBE8;stop-opacity:0.6"/>
			</linearGradient>
			<path style="fill:url(#SVGID_1_);" d="M66.4,69.7c-0.5,0.3-0.5,0.8,0,1.1l7.2,4.2c0.5,0.3,1.3,0.3,1.8,0l7.3-4.2
				c0.5-0.3,0.5-0.8,0-1.1l-7.2-4.2c-0.5-0.3-1.3-0.3-1.8,0L66.4,69.7z"/>
		</g>
		<g>
			
				<linearGradient id="SVGID_2_" gradientUnits="userSpaceOnUse" x1="330.2314" y1="67.15" x2="347.2996" y2="67.15" gradientTransform="matrix(-1 0 0 1 413.3527 0)">
				<stop  offset="0" style="stop-color:#74C7F0"/>
				<stop  offset="0.3181" style="stop-color:#A1D9F5"/>
				<stop  offset="1" style="stop-color:#FFFFFF"/>
			</linearGradient>
			<path style="fill:url(#SVGID_2_);" d="M66.4,66.6c-0.5,0.3-0.5,0.8,0,1.1l7.2,4.2c0.5,0.3,1.3,0.3,1.8,0l7.3-4.2
				c0.5-0.3,0.5-0.8,0-1.1l-7.2-4.2c-0.5-0.3-1.3-0.3-1.8,0L66.4,66.6z"/>
		</g>
		<g>
			
				<linearGradient id="SVGID_3_" gradientUnits="userSpaceOnUse" x1="339.5006" y1="62.9585" x2="338.0227" y2="71.3401" gradientTransform="matrix(-1 0 0 1 413.3527 0)">
				<stop  offset="5.376340e-03" style="stop-color:#32BDEF"/>
				<stop  offset="1" style="stop-color:#315CA7"/>
			</linearGradient>
			<path style="fill:url(#SVGID_3_);" d="M74.6,71.5c0.2,0,0.4,0,0.6-0.1l7.2-4.2L75.2,63c-0.1-0.1-0.4-0.1-0.6-0.1s-0.4,0-0.6,0.1
				l-7.2,4.2l7.2,4.2C74.1,71.4,74.3,71.5,74.6,71.5z"/>
		</g>
		
			<linearGradient id="SVGID_4_" gradientUnits="userSpaceOnUse" x1="330.227" y1="70.1" x2="347.2996" y2="70.1" gradientTransform="matrix(-1 0 0 1 413.3527 0)">
			<stop  offset="6.778585e-03" style="stop-color:#92D4F6"/>
			<stop  offset="0.2627" style="stop-color:#A5DBF4"/>
			<stop  offset="0.7343" style="stop-color:#C4E5F1"/>
			<stop  offset="1" style="stop-color:#CFE9F0"/>
		</linearGradient>
		<path style="fill:url(#SVGID_4_);" d="M66.1,67.2L66.1,67.2L66.1,67.2C66.1,67.3,66.1,67.3,66.1,67.2L66.1,67.2L66.1,67.2
			L66.1,67.2L66.1,67.2L66.1,67.2L66.1,67.2c0,0.1,0,0.1,0.1,0.2l0,0l0,0l0,0l0,0l0,0l7.2,4.2c0,0,0.1,0,0.1,0.1l0,0h0.1l0,0
			c0,0,0,0,0.1,0c0,0,0,0,0.1,0c0,0,0,0,0.1,0l0,0H74l0,0h0.1c0,0,0,0,0.1,0c0,0,0,0,0.1,0c0,0,0,0,0.1,0c0,0,0,0,0.1,0
			c0,0,0,0,0.1,0c0,0,0,0,0.1,0c0,0,0,0,0.1,0c0,0,0,0,0.1,0c0,0,0,0,0.1,0h0.1l0,0h0.1l0,0c0.1,0,0.1-0.1,0.2-0.1l7.3-4.2
			c0.3-0.1,0.4-0.3,0.4-0.5v1.6c0,0.2-0.1,0.4-0.4,0.5l-7.3,4.2c-0.1,0-0.1,0.1-0.2,0.1l0,0l0,0h-0.1l0,0l0,0H75l0,0l0,0
			c0,0,0,0-0.1,0l0,0l0,0c0,0,0,0-0.1,0l0,0l0,0c0,0,0,0-0.1,0l0,0l0,0c0,0,0,0-0.1,0l0,0l0,0h-0.1l0,0l0,0h-0.1l0,0l0,0
			c0,0,0,0-0.1,0c0,0,0,0-0.1,0c0,0,0,0-0.1,0l0,0l0,0H74l0,0c0,0-0.1,0-0.1-0.1L66.7,69l0,0l0,0l0,0l0,0l0,0l0,0l0,0
			c0,0,0,0-0.1-0.1l0,0l0,0l0,0l0,0l0,0l0,0l0,0l0,0l0,0l0,0l0,0l0,0l0,0l0,0l0,0L66.1,67.2z"/>
	</g>
</g>
</svg>
