<?xml version="1.0" encoding="utf-8"?>
<!-- Generator: Adobe Illustrator 23.0.1, SVG Export Plug-In . SVG Version: 6.00 Build 0)  -->
<svg version="1.1" id="Layer_1" xmlns="http://www.w3.org/2000/svg" xmlns:xlink="http://www.w3.org/1999/xlink" x="0px" y="0px"
	 viewBox="0 0 100 100" style="enable-background:new 0 0 100 100;" xml:space="preserve">
<g id="right-leg_13_">
	
		<linearGradient id="SVGID_1_" gradientUnits="userSpaceOnUse" x1="1188.6779" y1="28.1403" x2="1190.6633" y2="28.1403" gradientTransform="matrix(1 0 0 -1 -1166.0406 100)">
		<stop  offset="0" style="stop-color:#28285B"/>
		<stop  offset="0.9944" style="stop-color:#5D4091"/>
	</linearGradient>
	<path style="fill:url(#SVGID_1_);" d="M24.1,71.8L24.1,71.8c0.1,0.1-0.2,0.4-0.3,0.2c-0.2-0.2-0.6-1-0.7-1.1c-0.2,0-0.3,0-0.3,0
		s-0.3,0.4-0.1,0.7c0.2,0.3,0.2,1.1,0.2,1.1H23V72c0,0,0.5,0.7,0.7,0.8s0.7-0.2,0.8-0.6C24.7,71.7,24.5,71.6,24.1,71.8z"/>
	
		<linearGradient id="SVGID_2_" gradientUnits="userSpaceOnUse" x1="1187.6227" y1="35.3364" x2="1190.5396" y2="35.3364" gradientTransform="matrix(1 0 0 -1 -1166.0406 100)">
		<stop  offset="5.117199e-03" style="stop-color:#F7C6D3"/>
		<stop  offset="1" style="stop-color:#F3A8B2"/>
	</linearGradient>
	<path style="fill:url(#SVGID_2_);" d="M23.1,70.9c0.2,0,0.5,0.9,0.7,1.1c0.1,0.1,0.4-0.1,0.3-0.2l0,0c-0.2-0.1-0.5-0.4-0.6-0.8
		c-0.1-0.3,0-1.6,0.2-3.5s0.9-9.4,0.9-9.4l-1.8-0.8c-0.2,0.6-0.7,1.7-1,3.2s0.2,4.7,0.3,5.6c0.2,0.9,0.7,4.8,0.7,4.8
		S22.9,70.9,23.1,70.9z"/>
</g>
</svg>
