<?xml version="1.0" encoding="utf-8"?>
<!-- Generator: Adobe Illustrator 23.0.1, SVG Export Plug-In . SVG Version: 6.00 Build 0)  -->
<svg version="1.1" id="Layer_1" xmlns="http://www.w3.org/2000/svg" xmlns:xlink="http://www.w3.org/1999/xlink" x="0px" y="0px"
	 viewBox="0 0 100 100" style="enable-background:new 0 0 100 100;" xml:space="preserve">
<g id="left-leg_13_">
	
		<linearGradient id="SVGID_1_" gradientUnits="userSpaceOnUse" x1="1186.5614" y1="29.3" x2="1188.5469" y2="29.3" gradientTransform="matrix(1 0 0 -1 -1166.0406 100)">
		<stop  offset="0" style="stop-color:#28285B"/>
		<stop  offset="0.9944" style="stop-color:#5D4091"/>
	</linearGradient>
	<path style="fill:url(#SVGID_1_);" d="M22,70.7L22,70.7c0.1,0.1-0.2,0.4-0.3,0.2c-0.2-0.2-0.6-1-0.7-1.1c-0.2,0-0.3,0-0.3,0
		s-0.3,0.4-0.1,0.7c0.2,0.3,0.2,1.1,0.2,1.1H21v-0.8c0,0,0.5,0.7,0.7,0.8c0.2,0,0.7-0.2,0.8-0.6C22.6,70.6,22.4,70.5,22,70.7z"/>
	
		<linearGradient id="SVGID_2_" gradientUnits="userSpaceOnUse" x1="1185.5062" y1="36.4364" x2="1188.4231" y2="36.4364" gradientTransform="matrix(1 0 0 -1 -1166.0406 100)">
		<stop  offset="5.117199e-03" style="stop-color:#F7C6D3"/>
		<stop  offset="1" style="stop-color:#F3A8B2"/>
	</linearGradient>
	<path style="fill:url(#SVGID_2_);" d="M21,69.8c0.2,0,0.5,0.9,0.7,1.1c0.1,0.1,0.4-0.1,0.3-0.2l0,0c-0.2-0.1-0.5-0.4-0.6-0.8
		c-0.1-0.3,0-1.6,0.2-3.5s0.9-9.4,0.9-9.4l-1.8-0.8c-0.2,0.6-0.7,1.7-1,3.2s0.2,4.7,0.3,5.6c0.2,0.9,0.7,4.8,0.7,4.8
		S20.8,69.7,21,69.8z"/>
</g>
</svg>
