<?xml version="1.0" encoding="utf-8"?>
<!-- Generator: Adobe Illustrator 23.0.1, SVG Export Plug-In . SVG Version: 6.00 Build 0)  -->
<svg version="1.1" id="Layer_1" xmlns="http://www.w3.org/2000/svg" xmlns:xlink="http://www.w3.org/1999/xlink" x="0px" y="0px"
	 viewBox="0 0 100 100" style="enable-background:new 0 0 100 100;" xml:space="preserve">
<linearGradient id="hair_1_" gradientUnits="userSpaceOnUse" x1="1184.9122" y1="68.4104" x2="1193.521" y2="68.4104" gradientTransform="matrix(1 0 0 -1 -1166.0406 100)">
	<stop  offset="5.618000e-03" style="stop-color:#000000"/>
	<stop  offset="1" style="stop-color:#4E4D4D"/>
</linearGradient>
<path id="hair_11_" style="fill:url(#hair_1_);" d="M24.9,30.1c0,0,0-0.9,0.4-1.2s0.6,0.2,0.9-0.2c0.4-0.3,0.4-0.1,0.7-0.3
	c0.3-0.2,0.9-1.6,0.2-2.6c-0.7-0.9-2.5-2-4.2-1.4c-1.7,0.6-1.6,1.8-2.3,2.1c-0.7,0.3-1.3,2.3-0.5,3.4c1,1.5-1.5,1.6-1.2,3.3
	s1,3,0.1,3.7c-0.4,0.3,0,2.4,2,2c1.8-0.4,0.4-1.4,2-1.2c1.7,0.1,1.4-2.3,0.9-2.7c-0.2-0.2-0.3-3.7,0.2-4.1c0,0-0.7-1-0.3-1.3
	C24.3,29.1,24.7,29.4,24.9,30.1z"/>
</svg>
