<?xml version="1.0" encoding="utf-8"?>
<!-- Generator: Adobe Illustrator 23.0.1, SVG Export Plug-In . SVG Version: 6.00 Build 0)  -->
<svg version="1.1" id="Layer_1" xmlns="http://www.w3.org/2000/svg" xmlns:xlink="http://www.w3.org/1999/xlink" x="0px" y="0px"
	 viewBox="0 0 100 100" style="enable-background:new 0 0 100 100;" xml:space="preserve">
<g>
	<path style="fill:#FFFFFF;" d="M79.9,80.4c0,0.1,0,0.2,0,0.4c0,0.2,0,0.3,0,0.4c0,0.1-0.1,0.2-0.1,0.2s-0.1,0-0.1-0.1
		c0-0.1,0-0.2,0-0.4c0-0.2,0-0.3,0-0.4c0-0.1,0.1-0.2,0.1-0.2S79.9,80.4,79.9,80.4z M79.8,81.1c0,0,0-0.1,0-0.2c0-0.1,0-0.2,0-0.2
		c0,0,0-0.1,0,0c0,0,0,0,0,0.1c0,0,0,0.1,0,0.2C79.7,81,79.7,81.1,79.8,81.1C79.7,81.2,79.8,81.2,79.8,81.1
		C79.8,81.2,79.8,81.2,79.8,81.1"/>
</g>
<g id="_x31__12_">
	<g id="ch_9_">
		<path style="fill:#0E60A9;" d="M64.6,69.7L64.6,69.7c8,4.6,7.9,12.2-0.1,16.8c-8,4.6-21,4.6-29,0v0c-8-4.6-7.9-12.2,0.1-16.8
			C43.6,65.1,56.6,65.1,64.6,69.7z"/>
		<linearGradient id="SVGID_1_" gradientUnits="userSpaceOnUse" x1="32.6274" y1="78.1177" x2="67.3728" y2="78.1177">
			<stop  offset="6.778585e-03" style="stop-color:#92D4F6"/>
			<stop  offset="0.2627" style="stop-color:#A5DBF4"/>
			<stop  offset="0.7343" style="stop-color:#C4E5F1"/>
			<stop  offset="1" style="stop-color:#CFE9F0"/>
		</linearGradient>
		<path style="fill:url(#SVGID_1_);" d="M62.3,71L62.3,71c6.8,3.9,6.7,10.3-0.1,14.2c-6.8,3.9-17.8,3.9-24.6,0l0,0
			C30.9,81.3,31,74.9,37.8,71C44.6,67.1,55.6,67.1,62.3,71z"/>
		<linearGradient id="SVGID_2_" gradientUnits="userSpaceOnUse" x1="32.6282" y1="47.7067" x2="67.373" y2="47.7067">
			<stop  offset="6.778585e-03" style="stop-color:#92D4F6"/>
			<stop  offset="0.2627" style="stop-color:#A5DBF4"/>
			<stop  offset="0.7343" style="stop-color:#C4E5F1"/>
			<stop  offset="1" style="stop-color:#CFE9F0"/>
		</linearGradient>
		<polygon style="fill:url(#SVGID_2_);" points="62.6,17.3 67.4,78.1 50,78.1 32.6,78.1 37.4,17.3 50,17.3 		"/>
		<linearGradient id="SVGID_3_" gradientUnits="userSpaceOnUse" x1="37.4043" y1="17.2959" x2="62.5959" y2="17.2959">
			<stop  offset="5.376340e-03" style="stop-color:#76CAEB"/>
			<stop  offset="1" style="stop-color:#315CA7"/>
		</linearGradient>
		<path style="fill:url(#SVGID_3_);" d="M58.9,12.1L58.9,12.1c4.9,2.8,4.9,7.5-0.1,10.3c-4.9,2.8-12.9,2.8-17.8,0h0
			c-4.9-2.8-4.9-7.5,0.1-10.3C46.1,9.3,54,9.3,58.9,12.1z"/>
		<path style="fill:#0E60A9;" d="M50,11.8c3,0,5.9,0.7,8,1.9l0,0c1.7,1,2.7,2.3,2.7,3.6c0,1.3-1,2.6-2.8,3.6c-2.1,1.2-5,1.9-8,1.9
			c0,0,0,0,0,0c-3,0-5.9-0.7-8-1.9c-1.8-1-2.8-2.3-2.8-3.6c0-1.3,1-2.6,2.8-3.6C44.1,12.5,47,11.8,50,11.8z"/>
		<linearGradient id="SVGID_4_" gradientUnits="userSpaceOnUse" x1="36.4674" y1="28.4436" x2="63.5302" y2="28.4436">
			<stop  offset="5.376340e-03" style="stop-color:#76CAEB"/>
			<stop  offset="1" style="stop-color:#315CA7"/>
		</linearGradient>
		<path style="fill:url(#SVGID_4_);" d="M40,26.4L40,26.4c5.5,3.2,14.5,3.2,20,0c1.4-0.8,2.4-1.7,3.1-2.7l0.4,5.6
			c-0.7,0.6-1.5,1.2-2.5,1.7c-6.1,3.2-16.1,3.2-22.2,0l0,0c-1-0.5-1.8-1-2.4-1.6l0.4-5.6C37.6,24.6,38.6,25.6,40,26.4z"/>
	</g>
</g>
</svg>
