<?xml version="1.0" encoding="utf-8"?>
<!-- Generator: Adobe Illustrator 23.0.1, SVG Export Plug-In . SVG Version: 6.00 Build 0)  -->
<svg version="1.1" id="Layer_1" xmlns="http://www.w3.org/2000/svg" xmlns:xlink="http://www.w3.org/1999/xlink" x="0px" y="0px"
	 viewBox="0 0 100 100" style="enable-background:new 0 0 100 100;" xml:space="preserve">
<style type="text/css">
	.st0{fill:url(#Face_1_);}
</style>
<linearGradient id="Face_1_" gradientUnits="userSpaceOnUse" x1="-660.6277" y1="38.9811" x2="-657.3307" y2="38.9811" gradientTransform="matrix(-1 0 0 1 -581.2468 0)">
	<stop  offset="0" style="stop-color:#E2E5F4"/>
	<stop  offset="0.2383" style="stop-color:#E4E0ED"/>
	<stop  offset="0.5769" style="stop-color:#EBD1DB"/>
	<stop  offset="0.9741" style="stop-color:#F5BABC"/>
	<stop  offset="1" style="stop-color:#F6B8BA"/>
</linearGradient>
<path id="Face_7_" class="st0" d="M77.3,40.9c0.8,0.2,1.5,0.1,2.1-0.4l0-0.6c-0.3,0.2-0.6,0.2-0.8,0c-0.4-0.3-0.5-0.9-0.9-0.9
	c-0.3,0-0.6,0-0.7-0.5c-0.1-0.3-0.1-0.7-0.1-1.2c-0.2-0.1-0.3-0.1-0.3-0.3c-0.2,0.2-0.3,0.5-0.3,0.9c0,0.5-0.1,1-0.1,1.4
	s0.1,0.7,0.5,0.8c0.4,0.1,0.6,0.1,0.7,0.3C77.3,40.5,77.3,40.7,77.3,40.9z"/>
</svg>
