<?xml version="1.0" encoding="utf-8"?>
<!-- Generator: Adobe Illustrator 23.0.1, SVG Export Plug-In . SVG Version: 6.00 Build 0)  -->
<svg version="1.1" id="Layer_1" xmlns="http://www.w3.org/2000/svg" xmlns:xlink="http://www.w3.org/1999/xlink" x="0px" y="0px"
	 viewBox="0 0 100 100" style="enable-background:new 0 0 100 100;" xml:space="preserve">
<style type="text/css">
	.st0{fill:url(#XMLID_2_);}
	.st1{fill:url(#XMLID_3_);}
	.st2{fill:url(#XMLID_4_);}
	.st3{fill:url(#SVGID_1_);}
	.st4{fill:url(#SVGID_2_);}
	.st5{fill:url(#SVGID_3_);}
	.st6{fill:url(#SVGID_4_);}
	.st7{fill:url(#SVGID_5_);}
	.st8{fill:#C3DFF6;}
	.st9{fill:#6485C3;}
	.st10{enable-background:new    ;}
	.st11{fill:url(#SVGID_6_);}
	.st12{fill:#53A2DA;}
	.st13{fill:#E52E31;}
	.st14{fill:#7FBB48;}
	.st15{fill:#F2902A;}
	.st16{fill:#FBFBFC;}
</style>
<g id="man-with-computer_1_">
	<g id="computer-control_1_">
		<g id="base_35_">
			<g id="XMLID_1096_">
				
					<linearGradient id="XMLID_2_" gradientUnits="userSpaceOnUse" x1="-1170.2198" y1="67.9391" x2="-1179.2999" y2="46.4675" gradientTransform="matrix(-1 0 0 1 -1104.7064 0)">
					<stop  offset="5.376340e-03" style="stop-color:#32BDEF"/>
					<stop  offset="1" style="stop-color:#315CA7"/>
				</linearGradient>
				<path id="XMLID_1097_" class="st0" d="M67.6,48.3l-0.3,17.4l0,0c0.2,0.1,0.4,0.1,0.6,0l6.3-3.7c0.2-0.1,0.3-0.3,0.3-0.5l0-17.1
					L67.6,48.3z"/>
			</g>
			<g id="XMLID_1094_">
				
					<linearGradient id="XMLID_3_" gradientUnits="userSpaceOnUse" x1="-657.8807" y1="42.4021" x2="-645.3262" y2="55.3277" gradientTransform="matrix(-1 0 0 1 -581.2468 0)">
					<stop  offset="5.376340e-03" style="stop-color:#32BDEF"/>
					<stop  offset="1" style="stop-color:#315CA7"/>
				</linearGradient>
				<path id="XMLID_1095_" class="st1" d="M61.1,44.6l0,17.1c0,0.2,0.1,0.4,0.3,0.5l5.9,3.5c0.1,0.1,0.3,0,0.3-0.2V48.1L61.1,44.6z"
					/>
			</g>
			
				<linearGradient id="XMLID_4_" gradientUnits="userSpaceOnUse" x1="-1181.5359" y1="44.7026" x2="-1161.8696" y2="44.3596" gradientTransform="matrix(-1 0 0 1 -1104.7064 0)">
				<stop  offset="0" style="stop-color:#27367B"/>
				<stop  offset="1" style="stop-color:#3D71B6"/>
			</linearGradient>
			<path id="XMLID_1093_" class="st2" d="M61.2,44.8l6,3.6c0.3,0.2,0.6,0.2,0.9,0l6.3-3.7c0.2-0.1,0.2-0.4,0-0.5L68,40.7
				c-0.3-0.2-0.6-0.1-0.9,0l-5.9,3.7C61,44.5,61,44.7,61.2,44.8z"/>
		</g>
		<g id="computer_6_">
			
				<linearGradient id="SVGID_1_" gradientUnits="userSpaceOnUse" x1="-840.2374" y1="44.8183" x2="-829.9571" y2="44.8183" gradientTransform="matrix(-1 0 0 1 -766.1978 0)">
				<stop  offset="0" style="stop-color:#4489C8"/>
				<stop  offset="0.2286" style="stop-color:#76AAD7"/>
				<stop  offset="0.4788" style="stop-color:#A6C9E5"/>
				<stop  offset="0.6999" style="stop-color:#C8E0EF"/>
				<stop  offset="0.8812" style="stop-color:#DDEEF6"/>
				<stop  offset="1" style="stop-color:#E5F3F8"/>
			</linearGradient>
			<path class="st3" d="M63.9,45.3c-0.1,0.1-0.1,0.2,0,0.3l3.7,2.2c0.1,0.1,0.4,0.1,0.5,0l5.8-3.4c0.1-0.1,0.1-0.2,0-0.3l-3.7-2.2
				c-0.1-0.1-0.4-0.1-0.5,0L63.9,45.3z"/>
			
				<linearGradient id="SVGID_2_" gradientUnits="userSpaceOnUse" x1="-840.2382" y1="46.1415" x2="-829.9571" y2="46.1415" gradientTransform="matrix(-1 0 0 1 -766.1978 0)">
				<stop  offset="0" style="stop-color:#C3DFF6"/>
				<stop  offset="0.4716" style="stop-color:#C1DEF6"/>
				<stop  offset="0.6414" style="stop-color:#BADCF5"/>
				<stop  offset="0.7625" style="stop-color:#AFD9F4"/>
				<stop  offset="0.8603" style="stop-color:#9ED4F3"/>
				<stop  offset="0.9432" style="stop-color:#88CDF2"/>
				<stop  offset="1" style="stop-color:#74C7F0"/>
			</linearGradient>
			<path class="st4" d="M63.8,45.4C63.8,45.4,63.8,45.4,63.8,45.4C63.8,45.4,63.8,45.5,63.8,45.4C63.8,45.5,63.8,45.5,63.8,45.4
				C63.8,45.5,63.8,45.5,63.8,45.4C63.8,45.5,63.8,45.5,63.8,45.4C63.8,45.5,63.8,45.5,63.8,45.4C63.8,45.5,63.8,45.5,63.8,45.4
				C63.8,45.5,63.8,45.5,63.8,45.4C63.8,45.5,63.8,45.5,63.8,45.4C63.8,45.5,63.8,45.5,63.8,45.4C63.8,45.5,63.8,45.5,63.8,45.4
				c0.1,0.1,0.1,0.1,0.1,0.1c0,0,0,0,0,0c0,0,0,0,0,0l3.7,2.2c0,0,0,0,0,0c0,0,0,0,0,0c0,0,0,0,0,0c0,0,0,0,0,0c0,0,0,0,0,0
				c0,0,0,0,0,0c0,0,0,0,0,0c0,0,0,0,0,0c0,0,0,0,0,0c0,0,0,0,0,0c0,0,0,0,0,0c0,0,0,0,0,0c0,0,0,0,0,0c0,0,0,0,0,0c0,0,0,0,0,0
				c0,0,0,0,0,0c0,0,0,0,0,0c0,0,0,0,0,0c0,0,0,0,0,0c0,0,0,0,0,0c0,0,0,0,0,0c0,0,0,0,0,0c0,0,0,0,0,0c0,0,0,0,0,0c0,0,0,0,0,0
				c0,0,0,0,0,0c0,0,0,0,0,0c0,0,0,0,0,0c0,0,0,0,0,0c0,0,0,0,0,0c0,0,0,0,0,0l5.8-3.4c0,0,0.1-0.1,0.1-0.1c0,0,0,0,0,0c0,0,0,0,0,0
				c0,0,0,0,0,0v0v0l0,0.3c0,0.1,0,0.1-0.1,0.2L68.1,48c0,0,0,0,0,0c0,0,0,0,0,0c0,0,0,0,0,0c0,0,0,0,0,0c0,0,0,0,0,0c0,0,0,0,0,0
				c0,0,0,0,0,0c0,0,0,0,0,0c0,0,0,0,0,0c0,0,0,0,0,0c0,0,0,0,0,0c0,0,0,0,0,0c0,0,0,0,0,0c0,0,0,0,0,0c0,0,0,0,0,0c0,0,0,0,0,0
				c0,0,0,0,0,0c0,0,0,0,0,0c0,0,0,0,0,0c0,0,0,0,0,0c0,0,0,0,0,0c0,0,0,0,0,0c0,0,0,0,0,0c0,0,0,0,0,0c0,0,0,0,0,0c0,0,0,0,0,0
				c0,0,0,0,0,0c0,0,0,0,0,0c0,0,0,0,0,0c0,0,0,0,0,0c0,0,0,0,0,0c0,0,0,0,0,0c0,0,0,0,0,0c0,0,0,0,0,0c0,0,0,0,0,0c0,0,0,0,0,0
				c0,0,0,0,0,0c0,0,0,0,0,0c0,0,0,0,0,0c0,0,0,0,0,0c0,0,0,0,0,0l-3.7-2.2c0,0,0,0,0,0c0,0,0,0,0,0c0,0,0,0,0,0c0,0,0,0,0,0
				c0,0,0,0,0,0c0,0,0,0,0,0c0,0,0,0,0,0c0,0,0,0,0,0c0,0,0,0,0,0c0,0,0,0,0,0c0,0,0,0,0,0c0,0,0,0,0,0c0,0,0,0,0,0c0,0,0,0,0,0
				c0,0,0,0,0,0c0,0,0,0,0,0c0,0,0,0,0,0c0,0,0,0,0,0c0,0,0,0,0,0c0,0,0,0,0,0c0,0,0,0,0,0c0,0,0,0,0,0L63.8,45.4
				C63.8,45.4,63.8,45.4,63.8,45.4z"/>
			<g>
				
					<linearGradient id="SVGID_3_" gradientUnits="userSpaceOnUse" x1="-836.0925" y1="41.1818" x2="-829.7316" y2="41.1818" gradientTransform="matrix(-1 0 0 1 -766.1978 0)">
					<stop  offset="0" style="stop-color:#C3DFF6"/>
					<stop  offset="0.4716" style="stop-color:#C1DEF6"/>
					<stop  offset="0.6414" style="stop-color:#BADCF5"/>
					<stop  offset="0.7625" style="stop-color:#AFD9F4"/>
					<stop  offset="0.8603" style="stop-color:#9ED4F3"/>
					<stop  offset="0.9432" style="stop-color:#88CDF2"/>
					<stop  offset="1" style="stop-color:#74C7F0"/>
				</linearGradient>
				<path class="st5" d="M63.8,40.4c-0.1,0.1-0.2,0.3-0.2,0.4l0,4.3c0,0.2,0.1,0.2,0.3,0.1l5.8-3.4c0.1-0.1,0.3-0.3,0.3-0.5l0-4.3
					c0-0.2-0.1-0.2-0.3-0.2L63.8,40.4z M63.8,44.8l0-4.1l5.9-3.4l0,4.1L63.8,44.8"/>
			</g>
			<g>
				
					<linearGradient id="SVGID_4_" gradientUnits="userSpaceOnUse" x1="-835.8677" y1="41.0699" x2="-829.9777" y2="41.0699" gradientTransform="matrix(-1 0 0 1 -766.1978 0)">
					<stop  offset="0" style="stop-color:#2D2D7B"/>
					<stop  offset="1" style="stop-color:#1E1738"/>
				</linearGradient>
				<polygon class="st6" points="63.8,40.7 63.8,44.8 69.7,41.4 69.7,37.3 				"/>
			</g>
			
				<linearGradient id="SVGID_5_" gradientUnits="userSpaceOnUse" x1="-835.834" y1="36.8681" x2="-828.5785" y2="44.1235" gradientTransform="matrix(-1 0 0 1 -766.1978 0)">
				<stop  offset="0" style="stop-color:#C3DFF6"/>
				<stop  offset="0.4716" style="stop-color:#C1DEF6"/>
				<stop  offset="0.6414" style="stop-color:#BADCF5"/>
				<stop  offset="0.7625" style="stop-color:#AFD9F4"/>
				<stop  offset="0.8603" style="stop-color:#9ED4F3"/>
				<stop  offset="0.9432" style="stop-color:#88CDF2"/>
				<stop  offset="1" style="stop-color:#74C7F0"/>
			</linearGradient>
			<path class="st7" d="M63.5,40.8C63.5,40.8,63.5,40.8,63.5,40.8C63.5,40.8,63.5,40.8,63.5,40.8C63.5,40.8,63.5,40.8,63.5,40.8
				C63.5,40.8,63.5,40.8,63.5,40.8C63.5,40.8,63.5,40.8,63.5,40.8C63.5,40.8,63.5,40.7,63.5,40.8C63.5,40.7,63.5,40.7,63.5,40.8
				C63.5,40.7,63.5,40.7,63.5,40.8C63.5,40.7,63.5,40.7,63.5,40.8C63.5,40.7,63.5,40.7,63.5,40.8C63.5,40.7,63.5,40.7,63.5,40.8
				C63.5,40.7,63.5,40.7,63.5,40.8C63.5,40.7,63.5,40.7,63.5,40.8C63.5,40.7,63.5,40.7,63.5,40.8c0-0.1,0-0.1,0-0.1c0,0,0,0,0,0
				c0,0,0,0,0,0c0,0,0,0,0,0c0,0,0,0,0,0c0,0,0,0,0,0c0,0,0,0,0,0c0,0,0,0,0,0c0,0,0,0,0,0c0,0,0,0,0,0c0,0,0,0,0,0c0,0,0,0,0,0
				c0,0,0,0,0,0c0,0,0,0,0,0c0,0,0,0,0,0c0,0,0,0,0,0c0,0,0,0,0,0c0,0,0,0,0,0c0,0,0,0,0,0c0,0,0,0,0,0c0,0,0,0,0,0c0,0,0,0,0,0
				c0,0,0,0,0,0c0,0,0,0,0,0c0,0,0,0,0,0l0,0c0,0,0,0,0,0c0,0,0,0,0,0c0,0,0,0,0,0c0,0,0,0,0,0c0,0,0,0,0,0c0,0,0,0,0,0c0,0,0,0,0,0
				c0,0,0,0,0,0c0,0,0,0,0,0c0,0,0,0,0,0c0,0,0,0,0,0c0,0,0,0,0,0c0,0,0,0,0,0c0,0,0,0,0,0c0,0,0,0,0,0c0,0,0,0,0,0c0,0,0,0,0,0
				c0,0,0,0,0,0c0,0,0,0,0,0c0,0,0,0,0,0c0,0,0,0,0,0c0,0,0,0,0,0c0,0,0,0,0,0c0,0,0,0,0,0l5.8-3.4c0,0,0,0,0,0c0,0,0,0,0,0
				c0,0,0,0,0,0c0,0,0,0,0,0c0,0,0,0,0,0c0,0,0,0,0,0c0,0,0,0,0,0c0,0,0,0,0,0l0,0l0,0c0,0,0,0,0,0c0,0,0,0,0,0c0,0,0,0,0,0
				c0,0,0,0,0,0c0,0,0,0,0,0c0,0,0,0,0,0c0,0,0,0,0,0c0,0,0,0,0,0c0,0,0,0,0,0c0,0,0,0,0,0c0,0,0,0,0,0c0,0,0,0,0,0c0,0,0,0,0,0
				c0,0,0,0,0,0c0,0,0,0,0,0c0,0,0,0,0,0c0,0,0,0,0,0c0,0,0,0,0,0c0,0,0,0,0,0c0,0,0,0,0,0c0,0,0,0,0,0c0,0,0,0,0,0c0,0,0,0,0,0
				c0,0,0,0,0,0c0,0,0,0,0,0l0,0c0,0,0,0,0,0c0,0,0,0,0,0c0,0,0,0,0,0c0,0,0,0,0,0c0,0,0,0,0,0c0,0,0,0,0,0l0,0l0.1,0c0,0,0,0,0,0
				c0,0,0,0,0,0c0,0,0,0,0,0c0,0,0,0,0,0c0,0,0,0,0,0c0,0,0,0,0,0c0,0,0,0,0,0c0,0,0,0,0,0c0,0,0,0,0,0c0,0,0,0,0,0c0,0,0,0,0,0
				c0,0,0,0,0,0c0,0,0,0,0,0c0,0,0,0,0,0c0,0,0,0,0,0c0,0,0,0,0,0c0,0,0,0,0,0c0,0,0,0,0,0c0,0,0,0,0,0c0,0,0,0,0,0c0,0,0,0,0,0
				c0,0,0,0,0,0c0,0,0,0,0,0c0,0,0,0,0,0c0,0,0,0,0,0c0,0,0,0,0,0l-5.8,3.4c0,0,0,0,0,0c0,0,0,0,0,0c0,0,0,0,0,0c0,0,0,0,0,0
				c0,0,0,0,0,0c0,0,0,0,0,0c0,0,0,0,0,0c0,0,0,0,0,0c0,0,0,0,0,0c0,0,0,0,0,0c0,0,0,0,0,0c0,0,0,0,0,0c0,0,0,0,0,0c0,0,0,0,0,0
				c0,0,0,0,0,0c0,0,0,0,0,0c0,0,0,0,0,0c0,0,0,0,0,0c0,0,0,0,0,0c0,0,0,0,0,0c0,0,0,0,0,0c0,0,0,0,0,0
				C63.6,40.7,63.6,40.7,63.5,40.8C63.6,40.7,63.6,40.7,63.5,40.8C63.5,40.7,63.5,40.7,63.5,40.8C63.5,40.8,63.5,40.8,63.5,40.8
				C63.5,40.8,63.5,40.8,63.5,40.8C63.5,40.8,63.5,40.8,63.5,40.8C63.5,40.8,63.5,40.8,63.5,40.8C63.5,40.8,63.5,40.8,63.5,40.8
				C63.5,40.8,63.5,40.8,63.5,40.8l0.1,4.4c0,0,0,0,0,0c0,0,0,0,0,0c0,0,0,0,0,0c0,0,0,0,0,0c0,0,0,0,0,0c0,0,0,0,0,0c0,0,0,0,0,0
				c0,0,0,0,0,0c0,0,0,0,0,0c0,0,0,0,0,0c0,0,0,0,0,0c0,0,0,0,0,0c0,0,0,0,0,0c0,0,0,0,0,0c0,0,0,0,0,0l-0.1,0c0,0,0,0,0,0
				c0,0,0,0,0,0c0,0,0,0,0,0c0,0,0,0,0,0c0,0,0,0,0,0c0,0,0,0,0,0c0,0,0,0,0,0c0,0,0,0,0,0c0,0,0,0,0,0c0,0,0,0,0,0c0,0,0,0,0,0
				c0,0,0,0,0,0c0,0,0,0,0,0c0,0,0,0,0,0c0,0,0,0,0,0c0,0,0,0,0,0c0,0,0,0,0,0c0,0,0,0,0,0c0,0,0,0,0,0c0,0,0,0,0,0c0,0,0,0,0,0
				c0,0,0,0,0,0c0,0,0,0,0,0c0,0,0,0,0,0c0,0,0,0,0,0L63.5,40.8C63.5,40.8,63.5,40.8,63.5,40.8z"/>
			<g>
				<path class="st8" d="M71.8,43.3c0.1,0,0.1,0.1,0,0.1l-5.2,3c-0.1,0-0.2,0-0.2,0l-1.8-1c-0.1,0-0.1-0.1,0-0.1l5.2-3
					c0.1,0,0.2,0,0.2,0L71.8,43.3z"/>
			</g>
			<g>
				<g>
					<g>
						<path class="st9" d="M65.8,44.8C65.8,44.8,65.8,44.9,65.8,44.8L65.6,45c0,0,0,0-0.1,0l-0.1,0c0,0,0,0,0,0l0.2-0.1
							C65.7,44.8,65.7,44.8,65.8,44.8L65.8,44.8z"/>
					</g>
				</g>
				<g>
					<g>
						<path class="st9" d="M66.3,44.9C66.3,45,66.3,45,66.3,44.9L66,45.1c0,0,0,0-0.1,0L65.8,45c0,0,0,0,0,0l0.2-0.1c0,0,0,0,0.1,0
							L66.3,44.9z"/>
					</g>
				</g>
				<g>
					<g>
						<path class="st9" d="M65.9,45.2C65.9,45.2,65.9,45.2,65.9,45.2l-0.2,0.2c0,0,0,0-0.1,0l-0.2-0.1c0,0,0,0,0,0l0.2-0.1
							c0,0,0,0,0.1,0L65.9,45.2z"/>
					</g>
				</g>
				<g>
					<g>
						<path class="st9" d="M65.4,45C65.4,45.1,65.4,45.1,65.4,45l-0.2,0.2c0,0,0,0-0.1,0l-0.1,0c0,0,0,0,0,0l0.2-0.1
							C65.3,45,65.3,45,65.4,45L65.4,45z"/>
					</g>
				</g>
				<g>
					<g>
						<path class="st9" d="M65.1,45.3C65.1,45.3,65.1,45.3,65.1,45.3l-0.2,0.2c0,0,0,0-0.1,0l-0.1,0c0,0,0,0,0,0l0.2-0.1
							C64.9,45.2,65,45.2,65.1,45.3L65.1,45.3z"/>
					</g>
				</g>
				<g>
					<g>
						<path class="st9" d="M66.2,44.6C66.2,44.6,66.2,44.6,66.2,44.6l-0.2,0.2c0,0,0,0-0.1,0l-0.1,0c0,0,0,0,0,0l0.2-0.1
							C66.1,44.6,66.1,44.6,66.2,44.6L66.2,44.6z"/>
					</g>
				</g>
				<g>
					<g>
						<path class="st9" d="M69.9,42.4C69.9,42.4,69.9,42.5,69.9,42.4l-0.2,0.2c0,0,0,0-0.1,0l-0.1,0c0,0,0,0,0,0l0.2-0.1
							C69.8,42.4,69.8,42.4,69.9,42.4L69.9,42.4z"/>
					</g>
				</g>
				<g>
					<g>
						<path class="st9" d="M70.6,42.8C70.6,42.8,70.6,42.8,70.6,42.8L70.4,43c0,0,0,0-0.1,0l-0.2-0.1c0,0,0,0,0,0l0.2-0.1
							c0,0,0,0,0.1,0L70.6,42.8z"/>
					</g>
				</g>
				<g>
					<g>
						<path class="st9" d="M70.2,43C70.2,43,70.2,43.1,70.2,43L70,43.2c0,0,0,0-0.1,0l-0.2-0.1c0,0,0,0,0,0l0.2-0.1c0,0,0,0,0.1,0
							L70.2,43z"/>
					</g>
				</g>
				<g>
					<g>
						<path class="st9" d="M69.8,44.1C69.8,44.1,69.8,44.1,69.8,44.1l-0.2,0.2c0,0,0,0-0.1,0l-0.2-0.1c0,0,0,0,0,0l0.2-0.1
							c0,0,0,0,0.1,0L69.8,44.1z"/>
					</g>
				</g>
				<g class="st10">
					<g>
						<g>
							<path class="st9" d="M69.6,42.6C69.6,42.7,69.6,42.7,69.6,42.6l-0.2,0.2c0,0,0,0-0.1,0l-0.1,0c0,0,0,0,0,0l0.2-0.1
								C69.4,42.6,69.5,42.6,69.6,42.6L69.6,42.6z"/>
						</g>
					</g>
					<g>
						<g>
							<path class="st9" d="M70.3,42.6C70.3,42.6,70.3,42.6,70.3,42.6l-0.5,0.3c0,0,0,0-0.1,0l-0.2-0.1c0,0,0,0,0,0l0.5-0.3
								c0,0,0,0,0.1,0L70.3,42.6z"/>
						</g>
					</g>
					<g>
						<g>
							<path class="st9" d="M69.2,42.9C69.2,42.9,69.2,42.9,69.2,42.9L68.9,43c0,0,0,0-0.1,0l-0.1,0c0,0,0,0,0,0l0.2-0.1
								C69.1,42.8,69.1,42.8,69.2,42.9L69.2,42.9z"/>
						</g>
					</g>
					<g>
						<g>
							<path class="st9" d="M69.7,43C69.7,43,69.7,43,69.7,43l-0.2,0.2c0,0,0,0-0.1,0L69.2,43c0,0,0,0,0,0l0.2-0.1c0,0,0,0,0.1,0
								L69.7,43z"/>
						</g>
					</g>
					<g>
						<g>
							<path class="st9" d="M70.9,43C70.9,43,70.9,43,70.9,43l-0.5,0.3c0,0,0,0-0.1,0l-0.2-0.1c0,0,0,0,0,0l0.5-0.3c0,0,0,0,0.1,0
								L70.9,43z"/>
						</g>
					</g>
					<g>
						<g>
							<path class="st9" d="M69.9,43.2C69.9,43.3,69.9,43.3,69.9,43.2l-0.2,0.2c0,0,0,0-0.1,0l-0.2-0.1c0,0,0,0,0,0l0.2-0.1
								c0,0,0,0,0.1,0L69.9,43.2z"/>
						</g>
					</g>
					<g>
						<g>
							<path class="st9" d="M70.3,43.4C70.3,43.4,70.3,43.4,70.3,43.4l-0.2,0.2c0,0,0,0-0.1,0l-0.2-0.1c0,0,0,0,0,0l0.2-0.1
								c0,0,0,0,0.1,0L70.3,43.4z"/>
						</g>
					</g>
					<g>
						<g>
							<path class="st9" d="M71.3,43.2C71.3,43.2,71.3,43.2,71.3,43.2l-0.6,0.4c0,0,0,0-0.1,0l-0.2-0.1c0,0,0,0,0,0l0.6-0.4
								c0,0,0,0,0.1,0L71.3,43.2z"/>
						</g>
					</g>
					<g>
						<g>
							<path class="st9" d="M69.5,43.5C69.5,43.5,69.5,43.5,69.5,43.5l-0.2,0.2c0,0,0,0-0.1,0L69,43.5c0,0,0,0,0,0l0.2-0.1
								c0,0,0,0,0.1,0L69.5,43.5z"/>
						</g>
					</g>
					<g>
						<g>
							<path class="st9" d="M71.6,43.4C71.6,43.4,71.6,43.4,71.6,43.4l-0.5,0.3c0,0,0,0-0.1,0l-0.2-0.1c0,0,0,0,0,0l0.5-0.3
								c0,0,0,0,0.1,0L71.6,43.4z"/>
						</g>
					</g>
					<g>
						<g>
							<path class="st9" d="M70,43.6C70,43.6,70,43.6,70,43.6l-0.2,0.2c0,0,0,0-0.1,0l-0.2-0.1c0,0,0,0,0,0l0.2-0.1c0,0,0,0,0.1,0
								L70,43.6z"/>
						</g>
					</g>
					<g>
						<g>
							<path class="st9" d="M70.5,43.7C70.5,43.7,70.5,43.7,70.5,43.7l-0.2,0.2c0,0,0,0-0.1,0L70,43.7c0,0,0,0,0,0l0.2-0.1
								c0,0,0,0,0.1,0L70.5,43.7z"/>
						</g>
					</g>
					<g>
						<g>
							<path class="st9" d="M71,43.8C71,43.8,71,43.8,71,43.8L70.7,44c0,0,0,0-0.1,0l-0.2-0.1c0,0,0,0,0,0l0.3-0.2c0,0,0,0,0.1,0
								L71,43.8z"/>
						</g>
					</g>
					<g>
						<g>
							<path class="st9" d="M70.1,43.9C70.2,43.9,70.2,43.9,70.1,43.9L69.9,44c0,0,0,0-0.1,0l-0.2-0.1c0,0,0,0,0,0l0.2-0.1
								c0,0,0,0,0.1,0L70.1,43.9z"/>
						</g>
					</g>
					<g>
						<g>
							<path class="st9" d="M70.5,44C70.5,44,70.5,44,70.5,44l-0.3,0.2c0,0,0,0-0.1,0L70,44.1c0,0,0,0,0,0l0.3-0.2c0,0,0,0,0.1,0
								L70.5,44z"/>
						</g>
					</g>
				</g>
				<g>
					<g>
						<path class="st9" d="M68.8,43.1C68.8,43.1,68.8,43.1,68.8,43.1l-0.2,0.2c0,0,0,0-0.1,0l-0.1,0c0,0,0,0,0,0l0.2-0.1
							C68.7,43,68.7,43,68.8,43.1L68.8,43.1z"/>
					</g>
				</g>
				<g class="st10">
					<g>
						<g>
							<path class="st9" d="M68.9,43.4C68.9,43.4,68.9,43.4,68.9,43.4l-0.2,0.2c0,0,0,0-0.1,0l-0.2-0.1c0,0,0,0,0,0l0.2-0.1
								c0,0,0,0,0.1,0L68.9,43.4z"/>
						</g>
					</g>
					<g>
						<g>
							<path class="st9" d="M69.1,43.7C69.1,43.7,69.1,43.7,69.1,43.7l-0.2,0.2c0,0,0,0-0.1,0l-0.2-0.1c0,0,0,0,0,0l0.2-0.1
								c0,0,0,0,0.1,0L69.1,43.7z"/>
						</g>
					</g>
				</g>
				<g>
					<g>
						<path class="st9" d="M68.4,43.3C68.4,43.3,68.4,43.3,68.4,43.3l-0.2,0.2c0,0,0,0-0.1,0l-0.1,0c0,0,0,0,0,0l0.2-0.1
							C68.3,43.3,68.3,43.3,68.4,43.3L68.4,43.3z"/>
					</g>
				</g>
				<g>
					<g>
						<path class="st9" d="M68.1,43.5C68.1,43.5,68.1,43.5,68.1,43.5l-0.2,0.2c0,0,0,0-0.1,0l-0.1,0c0,0,0,0,0,0l0.2-0.1
							C67.9,43.5,68,43.5,68.1,43.5L68.1,43.5z"/>
					</g>
				</g>
				<g>
					<g>
						<path class="st9" d="M68.6,44.7C68.6,44.7,68.6,44.8,68.6,44.7l-0.2,0.2c0,0,0,0-0.1,0l-0.2-0.1c0,0,0,0,0,0l0.2-0.1
							c0,0,0,0,0.1,0L68.6,44.7z"/>
					</g>
				</g>
				<g class="st10">
					<g>
						<g>
							<path class="st9" d="M67.5,45.4C67.5,45.4,67.5,45.4,67.5,45.4l-0.2,0.2c0,0,0,0-0.1,0L67,45.4c0,0,0,0,0,0l0.2-0.1
								c0,0,0,0,0.1,0L67.5,45.4z"/>
						</g>
					</g>
					<g>
						<g>
							<path class="st9" d="M67.1,45.6C67.1,45.6,67.1,45.6,67.1,45.6l-1,0.6c0,0,0,0-0.1,0l-0.2-0.1c0,0,0,0,0,0l1-0.6
								c0,0,0,0,0.1,0L67.1,45.6z"/>
						</g>
					</g>
				</g>
				<g>
					<g>
						<path class="st9" d="M67.9,45.2C67.9,45.2,67.9,45.2,67.9,45.2l-0.2,0.2c0,0,0,0-0.1,0l-0.2-0.1c0,0,0,0,0,0l0.2-0.1
							c0,0,0,0,0.1,0L67.9,45.2z"/>
					</g>
				</g>
				<g>
					<g>
						<path class="st9" d="M67.9,45.6C67.9,45.6,67.9,45.6,67.9,45.6l-0.3,0.2c0,0,0,0-0.1,0l-0.2-0.1c0,0,0,0,0,0l0.3-0.2
							c0,0,0,0,0.1,0L67.9,45.6z"/>
					</g>
				</g>
				<g class="st10">
					<g>
						<g>
							<path class="st9" d="M69.2,44C69.2,44,69.2,44,69.2,44L69,44.2c0,0,0,0-0.1,0l-0.2-0.1c0,0,0,0,0,0l0.2-0.1c0,0,0,0,0.1,0
								L69.2,44z"/>
						</g>
					</g>
					<g>
						<g>
							<path class="st9" d="M67.8,44.1C67.8,44.1,67.8,44.1,67.8,44.1l-0.2,0.2c0,0,0,0-0.1,0l-0.2-0.1c0,0,0,0,0,0l0.2-0.1
								c0,0,0,0,0.1,0L67.8,44.1z"/>
						</g>
					</g>
					<g>
						<g>
							<path class="st9" d="M68.4,44.1C68.4,44.1,68.4,44.1,68.4,44.1l-0.2,0.2c0,0,0,0-0.1,0l-0.2-0.1c0,0,0,0,0,0l0.2-0.1
								c0,0,0,0,0.1,0L68.4,44.1z"/>
						</g>
					</g>
					<g>
						<g>
							<path class="st9" d="M68.8,44.2C68.8,44.2,68.8,44.3,68.8,44.2l-0.2,0.2c0,0,0,0-0.1,0l-0.2-0.1c0,0,0,0,0,0l0.2-0.1
								c0,0,0,0,0.1,0L68.8,44.2z"/>
						</g>
					</g>
					<g>
						<g>
							<path class="st9" d="M69.4,44.3C69.4,44.3,69.4,44.3,69.4,44.3l-0.2,0.2c0,0,0,0-0.1,0l-0.2-0.1c0,0,0,0,0,0l0.2-0.1
								c0,0,0,0,0.1,0L69.4,44.3z"/>
						</g>
					</g>
					<g>
						<g>
							<path class="st9" d="M68,44.3C68,44.4,68,44.4,68,44.3l-0.2,0.2c0,0,0,0-0.1,0l-0.2-0.1c0,0,0,0,0,0l0.2-0.1c0,0,0,0,0.1,0
								L68,44.3z"/>
						</g>
					</g>
					<g>
						<g>
							<path class="st9" d="M68.5,44.5C68.5,44.5,68.5,44.5,68.5,44.5l-0.2,0.2c0,0,0,0-0.1,0L68,44.5c0,0,0,0,0,0l0.2-0.1
								c0,0,0,0,0.1,0L68.5,44.5z"/>
						</g>
					</g>
					<g>
						<g>
							<path class="st9" d="M69,44.5C69,44.5,69,44.5,69,44.5l-0.2,0.2c0,0,0,0-0.1,0l-0.2-0.1c0,0,0,0,0,0l0.2-0.1c0,0,0,0,0.1,0
								L69,44.5z"/>
						</g>
					</g>
					<g>
						<g>
							<path class="st9" d="M68.1,44.7C68.1,44.7,68.1,44.7,68.1,44.7l-0.2,0.2c0,0,0,0-0.1,0l-0.2-0.1c0,0,0,0,0,0l0.2-0.1
								c0,0,0,0,0.1,0L68.1,44.7z"/>
						</g>
					</g>
					<g>
						<g>
							<path class="st9" d="M68.3,45C68.3,45,68.3,45,68.3,45L68,45.1c0,0,0,0-0.1,0L67.8,45c0,0,0,0,0,0l0.2-0.1c0,0,0,0,0.1,0
								L68.3,45z"/>
						</g>
					</g>
					<g>
						<g>
							<path class="st9" d="M70.1,44.3C70.1,44.3,70.1,44.3,70.1,44.3L68,45.5c0,0,0,0-0.1,0l-0.2-0.1c0,0,0,0,0,0l2.1-1.2
								c0,0,0,0,0.1,0L70.1,44.3z"/>
						</g>
					</g>
				</g>
				<g>
					<g>
						<path class="st9" d="M68.5,43.6C68.5,43.6,68.5,43.7,68.5,43.6l-0.2,0.2c0,0,0,0-0.1,0L68,43.7c0,0,0,0,0,0l0.2-0.1
							c0,0,0,0,0.1,0L68.5,43.6z"/>
					</g>
				</g>
				<g>
					<g>
						<path class="st9" d="M68.1,43.9C68.2,43.9,68.2,43.9,68.1,43.9L67.9,44c0,0,0,0-0.1,0l-0.2-0.1c0,0,0,0,0,0l0.2-0.1
							c0,0,0,0,0.1,0L68.1,43.9z"/>
					</g>
				</g>
				<g>
					<g>
						<path class="st9" d="M67.7,43.7C67.7,43.7,67.7,43.8,67.7,43.7l-0.2,0.2c0,0,0,0-0.1,0l-0.1,0c0,0,0,0,0,0l0.2-0.1
							C67.6,43.7,67.6,43.7,67.7,43.7L67.7,43.7z"/>
					</g>
				</g>
				<g>
					<g>
						<path class="st9" d="M67.3,44C67.3,44,67.3,44,67.3,44l-0.2,0.2c0,0,0,0-0.1,0l-0.1,0c0,0,0,0,0,0l0.2-0.1
							C67.2,43.9,67.2,43.9,67.3,44L67.3,44z"/>
					</g>
				</g>
				<g>
					<g>
						<path class="st9" d="M67.6,44.6C67.6,44.6,67.6,44.6,67.6,44.6l-0.2,0.2c0,0,0,0-0.1,0l-0.2-0.1c0,0,0,0,0,0l0.2-0.1
							c0,0,0,0,0.1,0L67.6,44.6z"/>
					</g>
				</g>
				<g class="st10">
					<g>
						<g>
							<path class="st9" d="M67.2,44.8C67.2,44.8,67.2,44.8,67.2,44.8L67,44.9c0,0,0,0-0.1,0l-0.2-0.1c0,0,0,0,0,0l0.2-0.1
								c0,0,0,0,0.1,0L67.2,44.8z"/>
						</g>
					</g>
					<g>
						<g>
							<path class="st9" d="M67.7,44.9C67.7,44.9,67.7,44.9,67.7,44.9l-0.2,0.2c0,0,0,0-0.1,0l-0.2-0.1c0,0,0,0,0,0l0.2-0.1
								c0,0,0,0,0.1,0L67.7,44.9z"/>
						</g>
					</g>
					<g>
						<g>
							<path class="st9" d="M66.9,45C66.9,45,66.9,45,66.9,45l-0.2,0.2c0,0,0,0-0.1,0L66.4,45c0,0,0,0,0,0l0.2-0.1c0,0,0,0,0.1,0
								L66.9,45z"/>
						</g>
					</g>
					<g>
						<g>
							<path class="st9" d="M67.3,45.1C67.3,45.1,67.3,45.1,67.3,45.1l-0.2,0.2c0,0,0,0-0.1,0l-0.2-0.1c0,0,0,0,0,0l0.2-0.1
								c0,0,0,0,0.1,0L67.3,45.1z"/>
						</g>
					</g>
					<g>
						<g>
							<path class="st9" d="M66.5,45.2C66.5,45.2,66.5,45.2,66.5,45.2l-0.2,0.2c0,0,0,0-0.1,0L66,45.3c0,0,0,0,0,0l0.2-0.1
								c0,0,0,0,0.1,0L66.5,45.2z"/>
						</g>
					</g>
					<g>
						<g>
							<path class="st9" d="M67,45.3C67,45.3,67,45.3,67,45.3l-0.2,0.2c0,0,0,0-0.1,0l-0.2-0.1c0,0,0,0,0,0l0.2-0.1c0,0,0,0,0.1,0
								L67,45.3z"/>
						</g>
					</g>
					<g>
						<g>
							<path class="st9" d="M66.1,45.4C66.1,45.4,66.1,45.5,66.1,45.4l-0.6,0.4c0,0,0,0-0.1,0l-0.2-0.1c0,0,0,0,0,0l0.6-0.4
								c0,0,0,0,0.1,0L66.1,45.4z"/>
						</g>
					</g>
					<g>
						<g>
							<path class="st9" d="M66.6,45.5C66.6,45.6,66.6,45.6,66.6,45.5L65.8,46c0,0,0,0-0.1,0l-0.2-0.1c0,0,0,0,0,0l0.8-0.4
								c0,0,0,0,0.1,0L66.6,45.5z"/>
						</g>
					</g>
				</g>
				<g>
					<g>
						<path class="st9" d="M66.6,44.7C66.7,44.7,66.7,44.8,66.6,44.7l-0.2,0.2c0,0,0,0-0.1,0l-0.2-0.1c0,0,0,0,0,0l0.2-0.1
							c0,0,0,0,0.1,0L66.6,44.7z"/>
					</g>
				</g>
				<g>
					<g>
						<path class="st9" d="M67,44.5C67,44.5,67,44.5,67,44.5l-0.2,0.2c0,0,0,0-0.1,0l-0.2-0.1c0,0,0,0,0,0l0.2-0.1c0,0,0,0,0.1,0
							L67,44.5z"/>
					</g>
				</g>
				<g>
					<g>
						<path class="st9" d="M67.4,44.3C67.4,44.3,67.4,44.3,67.4,44.3l-0.2,0.2c0,0,0,0-0.1,0l-0.2-0.1c0,0,0,0,0,0l0.2-0.1
							c0,0,0,0,0.1,0L67.4,44.3z"/>
					</g>
				</g>
				<g>
					<g>
						<path class="st9" d="M66.9,44.2C66.9,44.2,66.9,44.2,66.9,44.2l-0.2,0.2c0,0,0,0-0.1,0l-0.1,0c0,0,0,0,0,0l0.2-0.1
							C66.8,44.1,66.8,44.1,66.9,44.2L66.9,44.2z"/>
					</g>
				</g>
				<g>
					<g>
						<path class="st9" d="M66.6,44.4C66.6,44.4,66.6,44.4,66.6,44.4l-0.2,0.2c0,0,0,0-0.1,0l-0.1,0c0,0,0,0,0,0l0.2-0.1
							C66.4,44.3,66.5,44.3,66.6,44.4L66.6,44.4z"/>
					</g>
				</g>
				<g>
					<g>
						<path class="st9" d="M65.5,45.4C65.5,45.4,65.5,45.4,65.5,45.4l-0.4,0.2c0,0,0,0-0.1,0l-0.2-0.1c0,0,0,0,0,0l0.4-0.2
							c0,0,0,0,0.1,0L65.5,45.4z"/>
					</g>
				</g>
				<g>
					<g>
						<path class="st9" d="M69.3,43.2C69.3,43.2,69.3,43.2,69.3,43.2L69,43.4c0,0,0,0-0.1,0l-0.2-0.1c0,0,0,0,0,0l0.2-0.1
							c0,0,0,0,0.1,0L69.3,43.2z"/>
					</g>
				</g>
				<g>
					<g>
						<path class="st9" d="M68.7,43.9C68.7,43.9,68.7,43.9,68.7,43.9l-0.2,0.2c0,0,0,0-0.1,0L68.2,44c0,0,0,0,0,0l0.2-0.1
							c0,0,0,0,0.1,0L68.7,43.9z"/>
					</g>
				</g>
				<g>
					<g>
						<path class="st9" d="M69.6,43.8C69.6,43.8,69.6,43.8,69.6,43.8L69.3,44c0,0,0,0-0.1,0l-0.2-0.1c0,0,0,0,0,0l0.2-0.1
							c0,0,0,0,0.1,0L69.6,43.8z"/>
					</g>
				</g>
				<g>
					<g>
						<path class="st9" d="M67,46.1C67,46.1,67,46.1,67,46.1l-0.5,0.3c0,0,0,0-0.1,0l-0.2-0.1c0,0,0,0,0,0l0.5-0.3c0,0,0,0,0.1,0
							L67,46.1z"/>
					</g>
				</g>
				<g>
					<g>
						<path class="st9" d="M67.4,45.8C67.4,45.8,67.4,45.9,67.4,45.8L67.1,46c0,0,0,0-0.1,0l-0.2-0.1c0,0,0,0,0,0l0.3-0.2
							c0,0,0,0,0.1,0L67.4,45.8z"/>
					</g>
				</g>
			</g>
			<g>
				<g>
					<path class="st9" d="M68.9,45.6C68.9,45.7,68.9,45.7,68.9,45.6l0.9,0.6c0,0,0.1,0,0.2,0l1.4-0.8c0,0,0-0.1,0-0.1l-0.9-0.5
						c0,0-0.1,0-0.2,0L68.9,45.6z"/>
				</g>
			</g>
			<g id="screen_4_">
				
					<linearGradient id="SVGID_6_" gradientUnits="userSpaceOnUse" x1="-829.9785" y1="41.2066" x2="-835.8677" y2="41.2066" gradientTransform="matrix(-1 0 0 1 -766.1978 0)">
					<stop  offset="0" style="stop-color:#315CA7"/>
					<stop  offset="1" style="stop-color:#32BDEF"/>
				</linearGradient>
				<path class="st11" d="M69.7,37.6L63.8,41l0,3.8l5.9-3.4L69.7,37.6z"/>
				<polygon class="st12" points="69.7,37.3 63.8,40.7 63.8,41 69.7,37.6 				"/>
				<g>
					<path class="st13" d="M69.5,37.5c0,0-0.1,0.1-0.1,0.1s0,0.1,0.1,0C69.6,37.6,69.6,37.5,69.5,37.5
						C69.6,37.5,69.6,37.4,69.5,37.5z"/>
				</g>
				<g>
					<path class="st14" d="M69.3,37.6c0,0-0.1,0.1-0.1,0.1s0,0.1,0.1,0C69.3,37.7,69.4,37.7,69.3,37.6
						C69.4,37.6,69.3,37.6,69.3,37.6z"/>
				</g>
				<g>
					<path class="st15" d="M69.1,37.7c0,0-0.1,0.1-0.1,0.1s0,0.1,0.1,0C69.1,37.8,69.2,37.8,69.1,37.7
						C69.2,37.7,69.1,37.7,69.1,37.7z"/>
				</g>
			</g>
			<g id="light_13_">
				<g class="st10">
					<g>
						<path class="st16" d="M67.5,40.9C67.6,40.9,67.6,40.9,67.5,40.9l0,0.2c0,0.5-0.3,1-0.7,1.2c0,0-0.1,0-0.1,0c0,0,0,0,0,0
							c0,0,0,0,0-0.1c0,0,0,0,0,0c0,0,0.1,0,0.1,0c0.4-0.2,0.6-0.7,0.6-1.1L67.5,40.9C67.5,41,67.5,40.9,67.5,40.9z"/>
					</g>
					<g>
						<path class="st16" d="M67.2,41.2C67.3,41.2,67.3,41.2,67.2,41.2L67.2,41.2c0,0.4-0.1,0.7-0.4,0.8c0,0-0.1,0-0.1,0c0,0,0,0,0,0
							c0,0,0,0,0-0.1c0,0,0,0,0,0c0,0,0.1,0,0.1,0c0.2-0.1,0.3-0.4,0.3-0.6L67.2,41.2C67.2,41.2,67.2,41.2,67.2,41.2z"/>
					</g>
					<g>
						<path class="st16" d="M66.4,42C66.4,42,66.4,42,66.4,42c0.1,0.1,0.1,0.1,0.2,0.1c0.1,0,0.2,0,0.3-0.1c0.1,0,0.1-0.1,0.2-0.2
							c0,0,0,0,0,0c0,0,0,0,0,0c0,0,0,0,0,0.1c-0.1,0.1-0.2,0.1-0.2,0.2c-0.1,0.1-0.2,0.1-0.3,0.1C66.5,42.2,66.4,42.2,66.4,42
							C66.3,42.1,66.3,42.1,66.4,42C66.4,42,66.4,42,66.4,42z"/>
					</g>
					<g>
						<path class="st16" d="M66.8,41.2C66.8,41.2,66.8,41.2,66.8,41.2l0,0.4c0,0.1,0.1,0.1,0.1,0.1c0.1,0,0.1-0.1,0.1-0.2l0-0.2
							c0,0,0-0.1,0-0.1c0,0,0,0,0,0l0,0.2c0,0.1-0.1,0.3-0.2,0.3c-0.1,0.1-0.2,0-0.2-0.1L66.8,41.2C66.7,41.2,66.7,41.2,66.8,41.2z"
							/>
					</g>
					<g>
						<path class="st16" d="M67.3,40.1C67.3,40.1,67.3,40.1,67.3,40.1c0.1,0.1,0.1,0.2,0.1,0.3l0,0.7c0,0.2-0.1,0.4-0.2,0.6
							c0,0,0,0,0,0c0,0,0,0,0,0c0,0,0,0,0-0.1c0.1-0.2,0.2-0.4,0.2-0.5l0-0.7C67.3,40.4,67.3,40.3,67.3,40.1
							C67.2,40.2,67.2,40.2,67.3,40.1C67.3,40.1,67.3,40.1,67.3,40.1z"/>
					</g>
					<g>
						<path class="st16" d="M66.8,40.7C66.8,40.7,66.8,40.6,66.8,40.7c0.1,0,0.1,0,0.1,0.1l0,0.8c0,0,0,0.1,0,0.1c0,0,0,0,0,0l0-0.8
							C66.9,40.7,66.9,40.7,66.8,40.7C66.8,40.7,66.8,40.7,66.8,40.7c0,0.1,0,0.1,0,0.1c0,0,0,0,0,0l0,0.2c0,0,0,0.1,0,0.1
							c0,0,0,0,0,0l0-0.2C66.7,40.8,66.7,40.8,66.8,40.7C66.8,40.7,66.8,40.7,66.8,40.7z"/>
					</g>
					<g>
						<path class="st16" d="M66.5,41.2C66.5,41.2,66.5,41.2,66.5,41.2l0,0.5c0,0.1,0.1,0.2,0.2,0.2c0,0,0,0,0,0c0,0,0,0,0,0
							c0,0,0,0,0,0c-0.1,0-0.2-0.1-0.2-0.3L66.5,41.2C66.4,41.3,66.4,41.2,66.5,41.2z"/>
					</g>
					<g>
						<path class="st16" d="M67.1,40.1C67.1,40.1,67.1,40.1,67.1,40.1c0,0,0.1,0,0.1,0c0,0,0,0,0,0.1C67.2,40.1,67.2,40.1,67.1,40.1
							C67.1,40.1,67.1,40.2,67.1,40.1C67.1,40.1,67.1,40.1,67.1,40.1C67,40.1,67,40.1,67.1,40.1C67,40.1,67.1,40.1,67.1,40.1z"/>
					</g>
					<g>
						<path class="st16" d="M66.8,40.5C66.8,40.5,66.8,40.5,66.8,40.5c0.2-0.1,0.3,0,0.3,0.2l0,0.4c0,0,0,0.1,0,0.1c0,0,0,0,0,0
							l0-0.4C67,40.6,67,40.5,66.8,40.5C66.8,40.6,66.8,40.6,66.8,40.5c-0.1,0.1-0.1,0.2-0.1,0.2c0,0.1-0.1,0.1-0.1,0.2l0,0.7
							c0,0,0,0.1,0,0.1c0,0,0,0,0,0l0-0.7c0-0.1,0-0.2,0.1-0.3C66.7,40.6,66.8,40.5,66.8,40.5z"/>
					</g>
					<g>
						<path class="st16" d="M66.5,41C66.5,41,66.5,41,66.5,41l0,0.1c0,0,0,0.1,0,0.1c0,0,0,0,0,0L66.5,41C66.4,41,66.4,41,66.5,41z"
							/>
					</g>
					<g>
						<path class="st16" d="M66.8,40.3c0.2-0.1,0.4,0,0.4,0.2l0,0.5c0,0,0,0.1,0,0.1c0,0,0,0,0,0l0-0.5C67.2,40.4,67,40.3,66.8,40.3
							c-0.1,0.2-0.2,0.3-0.3,0.4c0,0,0,0,0,0c0,0,0,0,0,0c0,0,0,0,0-0.1C66.6,40.5,66.7,40.4,66.8,40.3z"/>
					</g>
					<g>
						<path class="st16" d="M66.8,40.1C66.9,40.1,66.9,40.1,66.8,40.1c0.1-0.1,0.1,0,0.1,0C67,40.1,67,40.2,66.8,40.1
							C66.9,40.2,66.9,40.2,66.8,40.1C66.9,40.2,66.9,40.2,66.8,40.1c-0.3,0.2-0.5,0.6-0.5,0.9l0,0.7c0,0,0,0.1,0,0.1c0,0,0,0,0,0
							l0-0.7C66.3,40.8,66.5,40.3,66.8,40.1z"/>
					</g>
					<g>
						<path class="st16" d="M66.8,40c0.4-0.2,0.7,0,0.7,0.4l0,0.4c0,0,0,0.1,0,0.1c0,0,0,0,0,0l0-0.4C67.5,40,67.2,39.8,66.8,40
							c-0.1,0.2-0.3,0.3-0.4,0.5c-0.1,0.2-0.2,0.3-0.2,0.5c0,0,0,0,0,0c0,0,0,0,0,0c0,0,0,0,0,0c0-0.2,0.1-0.4,0.3-0.6
							C66.5,40.2,66.7,40,66.8,40z"/>
					</g>
				</g>
				<g>
					<path class="st16" d="M66.2,41.1C66.2,41.1,66.2,41.1,66.2,41.1C66.2,41.1,66.2,41.1,66.2,41.1l0,0.8c0,0.2,0.1,0.4,0.3,0.4
						c0,0,0,0,0,0.1c0,0,0,0,0,0c0,0,0,0,0,0c-0.1,0-0.2-0.1-0.2-0.2c-0.1-0.1-0.1-0.2-0.1-0.3l0-0.7C66.1,41.2,66.1,41.2,66.2,41.1
						C66.1,41.1,66.1,41.1,66.2,41.1z"/>
				</g>
				<g>
					<path class="st16" d="M66.6,42.4C66.6,42.4,66.6,42.4,66.6,42.4C66.6,42.3,66.6,42.3,66.6,42.4c0.1,0,0.1,0,0.1,0
						C66.7,42.4,66.6,42.4,66.6,42.4C66.6,42.4,66.6,42.4,66.6,42.4C66.6,42.4,66.6,42.4,66.6,42.4C66.5,42.4,66.5,42.4,66.6,42.4
						C66.5,42.4,66.5,42.4,66.6,42.4z"/>
				</g>
			</g>
		</g>
	</g>
</g>
</svg>
