<?xml version="1.0" encoding="utf-8"?>
<!-- Generator: Adobe Illustrator 23.0.1, SVG Export Plug-In . SVG Version: 6.00 Build 0)  -->
<svg version="1.1" id="Layer_1" xmlns="http://www.w3.org/2000/svg" xmlns:xlink="http://www.w3.org/1999/xlink" x="0px" y="0px"
	 viewBox="0 0 100 100" style="enable-background:new 0 0 100 100;" xml:space="preserve">
<g>
	<path style="fill:#FFFFFF;" d="M79.9,80.4c0,0.1,0,0.2,0,0.4c0,0.2,0,0.3,0,0.4s-0.1,0.2-0.1,0.2s-0.1,0-0.1-0.1s0-0.2,0-0.4
		c0-0.2,0-0.3,0-0.4S79.8,80.3,79.9,80.4L79.9,80.4z M79.8,81.1c0,0,0-0.1,0-0.2s0-0.2,0-0.2s0-0.1,0,0c0,0,0,0,0,0.1
		C79.8,80.8,79.8,80.9,79.8,81.1C79.7,81,79.7,81.1,79.8,81.1C79.7,81.2,79.8,81.2,79.8,81.1C79.8,81.2,79.8,81.2,79.8,81.1"/>
</g>
<g id="box_31_">
	<g style="opacity:0.4;">
		
			<linearGradient id="SVGID_1_" gradientUnits="userSpaceOnUse" x1="-3.465" y1="-20.3166" x2="-3.465" y2="32.0927" gradientTransform="matrix(-0.7862 -1.3425 -1.1734 0.6871 59.8657 65.4664)">
			<stop  offset="0" style="stop-color:#252F62"/>
			<stop  offset="0.1575" style="stop-color:#263467;stop-opacity:0.8425"/>
			<stop  offset="0.3432" style="stop-color:#294275;stop-opacity:0.6568"/>
			<stop  offset="0.5431" style="stop-color:#2F598D;stop-opacity:0.4569"/>
			<stop  offset="0.7531" style="stop-color:#3679AE;stop-opacity:0.2469"/>
			<stop  offset="0.9689" style="stop-color:#3FA1D8;stop-opacity:3.109598e-02"/>
			<stop  offset="1" style="stop-color:#41A8DF;stop-opacity:0"/>
		</linearGradient>
		<path style="fill:url(#SVGID_1_);" d="M95.6,73c2.5,1.6,2.7,4,0.3,5.4L61.4,98.7c-2.4,1.4-6.4,1.3-8.9-0.3l-36.7-23
			c-2.5-1.6-2.7-4-0.3-5.4l34.4-20.3c2.4-1.4,6.4-1.3,8.9,0.3L95.6,73z"/>
	</g>
	<g>
		
			<linearGradient id="SVGID_2_" gradientUnits="userSpaceOnUse" x1="-177.7058" y1="26.2019" x2="-177.7058" y2="99.5389" gradientTransform="matrix(-1 0 0 1 -108.3577 0)">
			<stop  offset="0" style="stop-color:#4489C8"/>
			<stop  offset="0.3758" style="stop-color:#259FD9"/>
			<stop  offset="0.7681" style="stop-color:#0AB1E8"/>
			<stop  offset="1" style="stop-color:#00B8ED"/>
		</linearGradient>
		<path style="fill:url(#SVGID_2_);" d="M87.2,26.8c2.5-1.4,4.5-0.3,4.5,2.6l0.1,41.1c0,2.8-2,6.3-4.5,7.7L51.5,98.9
			c-2.5,1.4-4.5,0.3-4.5-2.6l-0.1-41.1c0-2.8,2-6.3,4.5-7.7L87.2,26.8z"/>
	</g>
	<polygon style="fill:#FFFFFF;" points="51.4,52.7 59.5,48.1 59.5,57.4 51.4,62.1 	"/>
	<polygon style="fill:#FFFFFF;" points="61,47.3 69.1,42.6 69.1,52 61,56.7 	"/>
	
		<linearGradient id="SVGID_3_" gradientUnits="userSpaceOnUse" x1="-154.6884" y1="99.2366" x2="-154.6884" y2="0.3605" gradientTransform="matrix(-1 0 0 1 -108.3577 0)">
		<stop  offset="6.778585e-03" style="stop-color:#92D4F6"/>
		<stop  offset="0.2627" style="stop-color:#A5DBF4"/>
		<stop  offset="0.7343" style="stop-color:#C4E5F1"/>
		<stop  offset="1" style="stop-color:#CFE9F0"/>
	</linearGradient>
	<path style="fill:url(#SVGID_3_);" d="M90.2,26.4c-0.1,0-0.1,0-0.2-0.1c0,0-0.1,0-0.1,0c-0.1,0-0.1,0-0.2-0.1c0,0,0,0-0.1,0
		c0,0,0,0,0,0c0,0,0,0-0.1,0c0,0-0.1,0-0.1,0c-0.1,0-0.2,0-0.2,0c0,0,0,0,0,0h-0.1c-0.1,0-0.2,0-0.3,0c0,0-0.1,0-0.1,0
		c-0.1,0-0.1,0-0.2,0c0,0,0,0,0,0c-0.1,0-0.1,0-0.2,0c-0.1,0-0.1,0-0.2,0.1c-0.1,0-0.2,0.1-0.3,0.1c0,0-0.1,0-0.1,0
		c-0.1,0-0.2,0.1-0.3,0.1c-0.1,0.1-0.2,0.1-0.3,0.2L51.4,47.5c-0.1,0.1-0.2,0.2-0.4,0.2c-0.1,0.1-0.2,0.2-0.3,0.2
		c0,0-0.1,0.1-0.1,0.1c0,0,0,0,0,0c-0.1,0.1-0.2,0.2-0.3,0.2c0,0,0,0,0,0c-0.1,0.1-0.2,0.2-0.3,0.3l-0.2,0.2
		c-0.1,0.1-0.2,0.2-0.3,0.3c0,0,0,0,0,0c-0.1,0.1-0.1,0.1-0.2,0.2c-0.1,0.1-0.1,0.1-0.2,0.2c-0.1,0.1-0.1,0.2-0.2,0.3
		c0,0.1-0.1,0.1-0.1,0.2c-0.1,0.1-0.2,0.2-0.2,0.3c0,0-0.1,0.1-0.1,0.1c-0.1,0.2-0.2,0.3-0.3,0.5c0,0,0,0.1,0,0.1
		C48.1,51,48,51.2,48,51.3c0,0-0.1,0.1-0.1,0.1c-0.1,0.1-0.1,0.3-0.2,0.4c0,0,0,0,0,0.1c-0.1,0.2-0.1,0.3-0.2,0.5c0,0,0,0.1-0.1,0.1
		c0,0.1-0.1,0.2-0.1,0.4c0,0.1,0,0.1-0.1,0.2c0,0.1-0.1,0.2-0.1,0.3c0,0.1,0,0.2-0.1,0.2c0,0,0,0.1,0,0.1c0,0.2-0.1,0.3-0.1,0.5
		c0,0.1,0,0.1,0,0.2c0,0.1,0,0.2,0,0.3c0,0.2,0,0.3,0,0.4v0L47,96.4c0,0.2,0,0.3,0,0.5c0,0.1,0,0.2,0,0.3c0,0.1,0,0.2,0.1,0.3
		c0,0.2,0.1,0.3,0.1,0.5c0,0.1,0,0.1,0.1,0.2c0,0.1,0.1,0.1,0.1,0.2c0.1,0.2,0.2,0.4,0.4,0.6c0.1,0.1,0.1,0.1,0.2,0.2
		c0,0,0,0,0.1,0.1c0.1,0.1,0.2,0.1,0.3,0.2l-0.1,0L3.9,73.4c-0.3-0.2-0.6-0.4-0.8-0.7c-0.3-0.5-0.5-1.2-0.5-2.1L2.4,29.4
		c0-0.3,0-0.5,0.1-0.8c0,0,0-0.1,0-0.1c0,0,0-0.1,0-0.1c0-0.1,0-0.2,0.1-0.4c0-0.1,0-0.1,0-0.2c0,0,0-0.1,0-0.1c0-0.1,0-0.2,0.1-0.2
		c0-0.1,0-0.1,0.1-0.2c0,0,0-0.1,0-0.1c0-0.1,0-0.1,0.1-0.2c0-0.1,0-0.1,0-0.2c0-0.1,0.1-0.1,0.1-0.2c0-0.1,0-0.1,0.1-0.1
		c0,0,0-0.1,0-0.1c0.1-0.1,0.1-0.3,0.2-0.4c0,0,0,0,0,0c0,0,0,0,0-0.1c0-0.1,0.1-0.2,0.1-0.3c0,0,0-0.1,0.1-0.1c0,0,0-0.1,0.1-0.1
		c0,0,0-0.1,0.1-0.1c0.1-0.1,0.1-0.2,0.2-0.3c0,0,0-0.1,0-0.1c0,0,0,0,0,0c0.1-0.1,0.2-0.3,0.2-0.4c0,0,0,0,0-0.1
		c0,0,0.1-0.1,0.1-0.1c0.1-0.1,0.1-0.1,0.1-0.2c0,0,0.1-0.1,0.1-0.1c0-0.1,0.1-0.1,0.1-0.2c0,0,0.1-0.1,0.1-0.1
		c0-0.1,0.1-0.1,0.1-0.1c0.1-0.1,0.1-0.1,0.2-0.2c0,0,0.1-0.1,0.1-0.1c0,0,0.1-0.1,0.1-0.1c0.1-0.1,0.2-0.2,0.3-0.3
		c0,0,0.1-0.1,0.1-0.1c0,0,0,0,0.1-0.1c0.2-0.2,0.4-0.4,0.6-0.5c0,0,0.1-0.1,0.1-0.1c0.2-0.2,0.5-0.3,0.7-0.5L42.7,1
		c0.2-0.1,0.4-0.2,0.6-0.3c0,0,0,0,0.1,0c0,0,0.1,0,0.1,0c0.1,0,0.2-0.1,0.3-0.1c0,0,0.1,0,0.1,0c0,0,0.1,0,0.1,0c0.1,0,0.1,0,0.2,0
		c0,0,0.1,0,0.1,0c0,0,0.1,0,0.1,0c0,0,0.1,0,0.1,0c0,0,0.1,0,0.1,0c0.1,0,0.1,0,0.2,0h0.1c0.1,0,0.2,0,0.3,0c0,0,0,0,0,0
		c0,0,0.1,0,0.1,0c0,0,0.1,0,0.1,0c0,0,0.1,0,0.1,0c0,0,0.1,0,0.1,0c0,0,0,0,0,0c0.1,0,0.2,0.1,0.2,0.1c0,0,0,0,0,0l16.3,9.5
		l6.3,3.7L90.2,26.4z"/>
	<path style="fill:#FFFFFF;" d="M38.4,31.4l4,2.3l0-8.2l-14.2,0l4,2.3l-4.7,2.7c-0.3,0.2-0.7,0.4-1.1,0.7l-0.1,0L26,31.4
		c-0.2,0.1-0.3,0.3-0.5,0.4l-0.1,0.1c-0.1,0.1-0.2,0.1-0.2,0.2c-0.1,0.1-0.2,0.2-0.2,0.2c-0.1,0.1-0.3,0.3-0.4,0.4
		c-0.1,0.1-0.1,0.1-0.2,0.2c-0.1,0.1-0.3,0.3-0.4,0.4l-0.1,0.2c-0.2,0.2-0.3,0.4-0.5,0.6l-0.1,0.1c-0.1,0.2-0.3,0.4-0.4,0.6
		l-0.1,0.2c-0.1,0.2-0.2,0.4-0.4,0.6l-0.1,0.1c-0.1,0.2-0.3,0.5-0.4,0.7l-0.1,0.2c-0.1,0.2-0.2,0.4-0.3,0.6l-0.1,0.3
		c-0.1,0.2-0.1,0.3-0.2,0.5c-0.1,0.1-0.1,0.3-0.2,0.4c0,0.1-0.1,0.3-0.1,0.4c-0.1,0.2-0.1,0.4-0.2,0.6c0,0.1-0.1,0.2-0.1,0.3
		c-0.1,0.5-0.2,0.9-0.3,1.3l0,0.2c-0.1,0.6-0.1,1-0.1,1.4l0,40.5l6.3,3.6l0-44.1c0-0.2,0-0.4,0-0.6l0-0.1c0-0.2,0.1-0.5,0.1-0.7
		l0-0.2c0-0.1,0.1-0.2,0.1-0.4l0.1-0.2c0-0.1,0.1-0.1,0.1-0.2c0-0.1,0.1-0.2,0.1-0.3l0.1-0.2c0.1-0.1,0.1-0.2,0.2-0.3l0-0.1
		c0.1-0.2,0.2-0.3,0.3-0.5l0-0.1c0.1-0.1,0.2-0.3,0.2-0.4l0.1-0.1c0.1-0.1,0.2-0.2,0.3-0.4l0.1-0.1c0.1-0.1,0.2-0.2,0.3-0.3l0.1-0.1
		c0.1-0.1,0.1-0.2,0.2-0.3l0.1-0.1c0.1-0.1,0.1-0.1,0.2-0.2l0.3-0.3c0.1-0.1,0.1-0.1,0.2-0.2l0.1-0.1c0.2-0.1,0.3-0.2,0.5-0.3
		L38.4,31.4z"/>
	<path style="fill:none;stroke:#000000;stroke-width:0.3035;stroke-miterlimit:10;" d="M90.4,26.5"/>
</g>
</svg>
