<?xml version="1.0" encoding="utf-8"?>
<!-- Generator: Adobe Illustrator 23.0.1, SVG Export Plug-In . SVG Version: 6.00 Build 0)  -->
<svg version="1.1" id="Layer_1" xmlns="http://www.w3.org/2000/svg" xmlns:xlink="http://www.w3.org/1999/xlink" x="0px" y="0px"
	 viewBox="0 0 100 100" style="enable-background:new 0 0 100 100;" xml:space="preserve">
<style type="text/css">
	.st0{fill:#C1E4EE;}
</style>
<path id="Hand_10_" class="st0" d="M33.9,16.4l-1.4,5.7c0.1,0.5,0.7,1,1.8,1.5c1.7,0.7,3.8,1.8,4.4,2.4c0.7,0.5,1.6,0.8,2.2,0.4
	c0.6-0.4,0.8-1.5,0.7-2s-0.5-0.3-0.7,0c-0.2,0.3-1,0.4-1.3,0.2c-0.1-0.1-0.1-0.2,0.2-0.4c0.1-0.3,0.1-0.5,0.1-0.7
	c-0.5,0.4-1.2,0.5-2.2,0.1c-1.6-0.6-3-1.9-3-2.5c0-0.4,0.4-1.9,1.3-4.4C35.2,16.8,34.4,16.7,33.9,16.4z"/>
</svg>
