<?xml version="1.0" encoding="utf-8"?>
<!-- Generator: Adobe Illustrator 23.0.1, SVG Export Plug-In . SVG Version: 6.00 Build 0)  -->
<svg version="1.1" id="Layer_1" xmlns="http://www.w3.org/2000/svg" xmlns:xlink="http://www.w3.org/1999/xlink" x="0px" y="0px"
	 viewBox="0 0 100 100" style="enable-background:new 0 0 100 100;" xml:space="preserve">
<g>
	<path style="fill:#FFFFFF;" d="M79.9,80.4c0,0.1,0,0.2,0,0.4c0,0.2,0,0.3,0,0.4s-0.1,0.2-0.1,0.2s-0.1,0-0.1-0.1s0-0.2,0-0.4
		c0-0.2,0-0.3,0-0.4S79.8,80.3,79.9,80.4L79.9,80.4z M79.8,81.1c0,0,0-0.1,0-0.2s0-0.2,0-0.2s0-0.1,0,0c0,0,0,0,0,0.1
		C79.8,80.8,79.8,80.9,79.8,81.1C79.7,81,79.7,81.1,79.8,81.1C79.7,81.2,79.8,81.2,79.8,81.1C79.8,81.2,79.8,81.2,79.8,81.1"/>
</g>
<g id="chart_3_">
	<g>
		<g>
			<g>
				
					<linearGradient id="SVGID_1_" gradientUnits="userSpaceOnUse" x1="-384.3442" y1="18.1131" x2="-384.3442" y2="56.8323" gradientTransform="matrix(-1 0 0 -1 -354.6663 100)">
					<stop  offset="6.778585e-03" style="stop-color:#92D4F6"/>
					<stop  offset="0.2627" style="stop-color:#A5DBF4"/>
					<stop  offset="0.7343" style="stop-color:#C4E5F1"/>
					<stop  offset="1" style="stop-color:#CFE9F0"/>
				</linearGradient>
				<polygon style="fill:url(#SVGID_1_);" points="22.9,51 22.9,81.9 36.5,74.1 36.5,43.1 				"/>
			</g>
		</g>
	</g>
</g>
</svg>
