<?xml version="1.0" encoding="utf-8"?>
<!-- Generator: Adobe Illustrator 23.0.1, SVG Export Plug-In . SVG Version: 6.00 Build 0)  -->
<svg version="1.1" id="Layer_1" xmlns="http://www.w3.org/2000/svg" xmlns:xlink="http://www.w3.org/1999/xlink" x="0px" y="0px"
	 viewBox="0 0 100 100" style="enable-background:new 0 0 100 100;" xml:space="preserve">
<g id="hat_3_">
	
		<linearGradient id="SVGID_1_" gradientUnits="userSpaceOnUse" x1="224.0657" y1="76.724" x2="228.6812" y2="76.724" gradientTransform="matrix(0.917 -0.3988 0.3988 0.917 -224.511 36.5898)">
		<stop  offset="0" style="stop-color:#48A7C1"/>
		<stop  offset="0.9995" style="stop-color:#225C69"/>
	</linearGradient>
	<path style="fill:url(#SVGID_1_);" d="M14.4,15.4c0,0,0.9,0.1,1.1,0.1c0.6,0.2-0.1,1.5-1.1,1.7c-1.1,0.2-2.2,0.3-3,0.1
		C11.9,16.6,14.4,15.4,14.4,15.4z"/>
	
		<linearGradient id="SVGID_2_" gradientUnits="userSpaceOnUse" x1="222.9549" y1="75.1461" x2="227.5623" y2="75.1461" gradientTransform="matrix(0.917 -0.3988 0.3988 0.917 -224.511 36.5898)">
		<stop  offset="0" style="stop-color:#48A7C1"/>
		<stop  offset="0.9995" style="stop-color:#225C69"/>
	</linearGradient>
	<path style="fill:url(#SVGID_2_);" d="M10.4,17.5c0,0,2,0.2,3.3-0.8c0.4-0.3,1-0.9,0.7-1.4c-0.6-1.1-1.2-1.8-3.1-1.1
		C9.9,14.7,9.5,16.2,10.4,17.5z"/>
</g>
</svg>
