<?xml version="1.0" encoding="utf-8"?>
<!-- Generator: Adobe Illustrator 23.0.1, SVG Export Plug-In . SVG Version: 6.00 Build 0)  -->
<svg version="1.1" id="Layer_1" xmlns="http://www.w3.org/2000/svg" xmlns:xlink="http://www.w3.org/1999/xlink" x="0px" y="0px"
	 viewBox="0 0 100 100" style="enable-background:new 0 0 100 100;" xml:space="preserve">
<g id="right-arm_8_">
	<path id="Hand_2_" style="fill:#C3DFC0;" d="M55.5,57.4c0.1-0.3,0.2-0.5,0.4-0.6c0.3-0.2,0.5-0.4,0.6-0.6c0.1-0.2,0.3-0.2,0.4-0.1
		c0.1,0.1-0.1,0.5-0.2,0.7c-0.1,0.1-0.1,0.2-0.2,0.2c0.4-0.3,0.8-0.5,0.9-0.7c0.2-0.2,0.3-0.3,0.4-0.5c0,0.2,0,0.4,0,0.6
		c-0.1,0.3,0,0.8-0.3,1c-0.3,0.2-1.3,0.9-1.8,0.9C55.5,58.5,55.4,58.1,55.5,57.4z"/>
	
		<linearGradient id="Arm_1_" gradientUnits="userSpaceOnUse" x1="-270.0435" y1="431.7998" x2="-270.7408" y2="432.0986" gradientTransform="matrix(-17.7143 0 0 -24.7535 -4735.3857 10748.3506)">
		<stop  offset="0" style="stop-color:#48A7C1"/>
		<stop  offset="0.9995" style="stop-color:#225C69"/>
	</linearGradient>
	<path id="Arm_3_" style="fill:url(#Arm_1_);" d="M56.1,58.6c-1.5,1.1-2.5,1.8-3.1,2c-0.9,0.3-1.8,0.4-1.8-0.7
		c0-1.2-0.2-4.7,0.2-5.4c0.5-0.8,1.4-0.7,1.5,0.4c0.1,0.7,0.1,1.9,0.2,3.6l1.7-1c0.5-0.2,0.8-0.2,1,0.1C56,57.8,56.1,58.1,56.1,58.6
		z"/>
</g>
</svg>
