<?xml version="1.0" encoding="utf-8"?>
<!-- Generator: Adobe Illustrator 23.0.1, SVG Export Plug-In . SVG Version: 6.00 Build 0)  -->
<svg version="1.1" id="Layer_1" xmlns="http://www.w3.org/2000/svg" xmlns:xlink="http://www.w3.org/1999/xlink" x="0px" y="0px"
	 viewBox="0 0 100 100" style="enable-background:new 0 0 100 100;" xml:space="preserve">
<g id="plane_1_">
	<g id="jet_3_">
		<g>
			<g style="enable-background:new    ;">
				
					<linearGradient id="SVGID_1_" gradientUnits="userSpaceOnUse" x1="-2835.0769" y1="1300.1968" x2="-2857.2761" y2="1298.4414" gradientTransform="matrix(-0.9998 1.886641e-02 -1.886641e-02 -0.9998 -2780.7585 1407.2781)">
					<stop  offset="4.836310e-03" style="stop-color:#9ED7F6"/>
					<stop  offset="1" style="stop-color:#48A7C1"/>
				</linearGradient>
				<path style="fill:url(#SVGID_1_);" d="M29.5,52.1c0,0.1,0,0.3,0,0.4c0,0.1,0,0.1,0,0.2c0,0,0,0.1,0,0.1c0,0,0,0.1,0,0.1
					c0,0.1,0,0.3,0.1,0.4c0,0.1,0,0.3,0.1,0.4c0,0,0,0,0,0c0,0,0,0,0,0c0,0.1,0,0.3,0.1,0.4c0,0.1,0.1,0.3,0.1,0.4
					c0,0.1,0,0.1,0,0.2c0,0,0,0.1,0,0.1c0,0.1,0,0.1,0,0.2c0,0.1,0.1,0.3,0.1,0.4c0,0.1,0.1,0.2,0.1,0.3c0,0,0,0,0,0.1
					c0,0,0,0,0,0.1c0,0.1,0.1,0.3,0.1,0.4c0.1,0.1,0.1,0.3,0.2,0.4c0,0,0,0.1,0,0.1c0,0,0,0,0,0.1c0,0.1,0.1,0.2,0.1,0.3
					c0.1,0.1,0.1,0.3,0.2,0.4c0,0.1,0.1,0.2,0.1,0.3c0,0,0,0,0,0.1c0,0,0,0,0,0.1c0.1,0.1,0.1,0.3,0.2,0.4c0.1,0.1,0.1,0.3,0.2,0.4
					c0,0,0,0,0,0.1c0,0,0,0.1,0,0.1c0.1,0.1,0.1,0.2,0.2,0.3c0.1,0.1,0.2,0.3,0.2,0.4c0,0.1,0.1,0.1,0.1,0.2c0,0,0,0.1,0.1,0.1
					c0.1,0.1,0.2,0.2,0.2,0.4c0.1,0.2,0.2,0.4,0.3,0.5c0,0,0,0.1,0.1,0.1c0.2,0.3,0.4,0.5,0.5,0.7c0.1,0.2,0.3,0.3,0.4,0.5
					c0.1,0.1,0.2,0.3,0.3,0.4c0,0,0,0,0,0c0,0,0,0,0,0c0.1,0.1,0.2,0.2,0.3,0.4c0.1,0.1,0.2,0.2,0.3,0.4c0,0,0,0,0.1,0.1
					c0,0,0,0,0.1,0.1c0.1,0.1,0.2,0.2,0.2,0.2c0.1,0.1,0.2,0.2,0.4,0.3c0,0,0.1,0.1,0.1,0.1c0,0,0.1,0.1,0.1,0.1
					c0.1,0.1,0.1,0.1,0.2,0.2c0.1,0.1,0.3,0.2,0.4,0.3c0.1,0,0.1,0.1,0.2,0.1c0,0,0.1,0,0.1,0.1c0,0,0.1,0.1,0.1,0.1
					c0.1,0.1,0.2,0.2,0.4,0.3c0.1,0.1,0.2,0.1,0.3,0.2c0,0,0,0,0,0c0,0,0,0,0,0c0.1,0.1,0.2,0.2,0.4,0.2c0.1,0.1,0.2,0.1,0.4,0.2
					c0,0,0.1,0,0.1,0c0.1,0,0.2,0.1,0.3,0.1c0.1,0.1,0.2,0.1,0.3,0.2c0.1,0,0.1,0.1,0.2,0.1c0,0,0,0,0.1,0c0,0,0,0,0.1,0
					c0.1,0,0.2,0.1,0.3,0.1c0.1,0,0.2,0.1,0.3,0.1c0,0,0,0,0.1,0c0,0,0,0,0.1,0c0.1,0,0.2,0,0.2,0.1c0.1,0,0.2,0.1,0.3,0.1
					c0.1,0,0.1,0,0.2,0c0,0,0,0,0.1,0c0,0,0.1,0,0.1,0c0.1,0,0.2,0,0.4,0.1c0.1,0,0.1,0,0.2,0c0,0,0.1,0,0.1,0c0,0,0.1,0,0.1,0
					c0.1,0,0.3,0,0.4,0c0.1,0,0.1,0,0.2,0c0,0,0.1,0,0.1,0c0,0,0.1,0,0.1,0c0.2,0,0.3,0,0.5-0.1c0,0,0,0,0,0c0,0,0.1,0,0.1,0
					c0.2,0,0.3-0.1,0.5-0.1c0,0,0,0,0,0c0.2-0.1,0.4-0.2,0.6-0.3c0,0,0,0,0,0l7.1-4.3c-0.2,0.1-0.4,0.2-0.6,0.3
					c-0.2,0.1-0.3,0.1-0.5,0.2c0,0-0.1,0-0.1,0c-0.2,0-0.4,0.1-0.6,0.1c0,0-0.1,0-0.1,0c-0.2,0-0.4,0-0.6,0c0,0-0.1,0-0.1,0
					c-0.2,0-0.5,0-0.7-0.1c0,0,0,0-0.1,0c-0.2,0-0.5-0.1-0.7-0.2c0,0,0,0-0.1,0c-0.3-0.1-0.5-0.2-0.8-0.3c0,0,0,0-0.1,0
					c-0.3-0.1-0.6-0.3-0.8-0.4c-0.3-0.2-0.6-0.3-0.8-0.5c0,0,0,0-0.1,0c-0.3-0.2-0.5-0.4-0.8-0.6c0,0-0.1,0-0.1-0.1
					c-0.2-0.2-0.5-0.4-0.7-0.6c0,0-0.1-0.1-0.1-0.1c-0.2-0.2-0.5-0.4-0.7-0.7c0,0,0,0-0.1-0.1c-0.2-0.3-0.5-0.5-0.7-0.8c0,0,0,0,0,0
					c-0.2-0.3-0.5-0.6-0.7-0.9c0,0,0,0,0,0c-0.2-0.3-0.4-0.5-0.6-0.8c-0.1-0.2-0.2-0.3-0.3-0.5c-0.1-0.1-0.2-0.3-0.3-0.4
					c0-0.1-0.1-0.1-0.1-0.2c-0.1-0.3-0.3-0.5-0.4-0.8c0,0,0-0.1,0-0.1c-0.2-0.3-0.3-0.6-0.5-1c0,0,0,0,0-0.1c-0.1-0.3-0.3-0.6-0.4-1
					c0,0,0,0,0-0.1c-0.1-0.3-0.2-0.7-0.4-1c0,0,0,0,0-0.1c-0.1-0.3-0.2-0.6-0.3-1c0,0,0-0.1,0-0.1c-0.1-0.3-0.2-0.7-0.2-1
					c0,0,0,0,0,0c-0.1-0.3-0.1-0.7-0.1-1c0,0,0-0.1,0-0.1c0-0.3-0.1-0.6-0.1-1c0-0.3,0-0.6,0-0.9c0,0,0-0.1,0-0.1
					c0-0.3,0.1-0.5,0.1-0.8c0,0,0-0.1,0-0.1c0-0.2,0.1-0.5,0.2-0.7c0,0,0-0.1,0-0.1c0.1-0.2,0.1-0.4,0.2-0.6c0,0,0,0,0-0.1
					c0.1-0.2,0.2-0.4,0.3-0.6c0,0,0,0,0-0.1c0.1-0.2,0.2-0.3,0.3-0.4c0,0,0.1-0.1,0.1-0.1c0.1-0.1,0.2-0.2,0.3-0.3
					c0,0,0.1-0.1,0.1-0.1c0.2-0.1,0.3-0.2,0.5-0.3l-7.1,4.3c-0.2,0.1-0.3,0.2-0.5,0.3c0,0-0.1,0.1-0.1,0.1c-0.1,0.1-0.2,0.2-0.3,0.3
					c0,0-0.1,0.1-0.1,0.1c-0.1,0.1-0.2,0.3-0.3,0.4c0,0,0,0,0,0.1c0,0,0,0,0,0c-0.1,0.2-0.2,0.4-0.3,0.6c0,0,0,0,0,0c0,0,0,0,0,0.1
					c-0.1,0.1-0.1,0.3-0.2,0.4c0,0.1,0,0.1-0.1,0.2c0,0,0,0.1,0,0.1c0,0,0,0.1,0,0.1c0,0.1-0.1,0.3-0.1,0.4c0,0.1,0,0.1,0,0.2
					c0,0,0,0.1,0,0.1c0,0.1,0,0.1,0,0.2c0,0.1,0,0.3-0.1,0.4c0,0.1,0,0.2,0,0.2c0,0,0,0.1,0,0.1c0,0,0,0.1,0,0.1c0,0.1,0,0.3,0,0.4
					c0,0.1,0,0.3,0,0.4c0,0,0,0,0,0C29.4,51.8,29.4,51.9,29.5,52.1z"/>
			</g>
		</g>
		
			<linearGradient id="SVGID_2_" gradientUnits="userSpaceOnUse" x1="-3021.5312" y1="1317.7611" x2="-3003.9951" y2="1317.7611" gradientTransform="matrix(-0.9993 3.808209e-02 -3.808209e-02 -0.9993 -2923.4309 1487.7295)">
			<stop  offset="0" style="stop-color:#FFFFFF"/>
			<stop  offset="1" style="stop-color:#D1E4F6"/>
		</linearGradient>
		<path style="fill:url(#SVGID_2_);" d="M28.1,54.4c0,0.1,0,0.2,0,0.3c0,0.1,0,0.1,0,0.2c0,0,0,0,0,0.1c0,0,0,0.1,0,0.1
			c0,0.1,0,0.2,0,0.3c0,0.1,0,0.2,0.1,0.3c0,0,0,0,0,0c0,0,0,0,0,0c0,0.1,0,0.2,0.1,0.3c0,0.1,0.1,0.2,0.1,0.4c0,0,0,0.1,0,0.1
			c0,0,0,0.1,0,0.1c0,0.1,0,0.1,0,0.2c0,0.1,0.1,0.2,0.1,0.4c0,0.1,0.1,0.2,0.1,0.3c0,0,0,0,0,0c0,0,0,0,0,0c0,0.1,0.1,0.2,0.1,0.3
			c0,0.1,0.1,0.2,0.1,0.3c0,0,0,0,0,0.1c0,0,0,0,0,0.1c0,0.1,0.1,0.1,0.1,0.2c0,0.1,0.1,0.2,0.1,0.3c0,0.1,0.1,0.2,0.1,0.2
			c0,0,0,0,0,0c0,0,0,0,0,0c0.1,0.1,0.1,0.2,0.2,0.3c0.1,0.1,0.1,0.2,0.2,0.4c0,0,0,0,0,0.1c0,0,0,0,0,0.1c0.1,0.1,0.1,0.2,0.2,0.3
			c0.1,0.1,0.1,0.2,0.2,0.3c0,0.1,0.1,0.1,0.1,0.2c0,0,0,0,0,0.1c0.1,0.1,0.1,0.2,0.2,0.3c0.1,0.1,0.2,0.3,0.3,0.4c0,0,0,0,0,0.1
			c0.1,0.2,0.3,0.4,0.5,0.6c0,0,0,0,0,0l0,0c0.1,0.1,0.2,0.3,0.3,0.4c0.1,0.1,0.2,0.2,0.3,0.3c0,0,0,0,0,0c0,0,0,0,0,0
			c0.1,0.1,0.2,0.2,0.3,0.3c0.1,0.1,0.2,0.2,0.3,0.3c0,0,0,0,0,0c0,0,0,0,0,0c0.1,0.1,0.1,0.1,0.2,0.2c0.1,0.1,0.2,0.2,0.3,0.3
			c0,0,0.1,0.1,0.1,0.1c0,0,0,0,0.1,0.1c0,0,0.1,0.1,0.1,0.1c0.1,0.1,0.2,0.2,0.3,0.3c0,0,0.1,0.1,0.1,0.1c0,0,0,0,0.1,0.1
			c0,0,0.1,0.1,0.1,0.1c0.1,0.1,0.2,0.1,0.3,0.2c0.1,0.1,0.1,0.1,0.2,0.1c0,0,0,0,0,0c0,0,0,0,0,0c0.1,0.1,0.2,0.1,0.3,0.2
			c0.1,0.1,0.2,0.1,0.3,0.2c0,0,0,0,0.1,0c0.1,0,0.1,0.1,0.2,0.1c0.1,0,0.2,0.1,0.3,0.1c0.1,0,0.1,0.1,0.2,0.1c0,0,0,0,0,0
			c0,0,0,0,0.1,0c0.1,0,0.2,0.1,0.3,0.1c0.1,0,0.2,0.1,0.3,0.1c0,0,0,0,0,0c0,0,0,0,0,0c0.1,0,0.1,0,0.2,0.1c0.1,0,0.2,0,0.3,0.1
			c0,0,0.1,0,0.1,0c0,0,0,0,0.1,0c0,0,0.1,0,0.1,0c0.1,0,0.2,0,0.3,0c0.1,0,0.1,0,0.2,0c0,0,0,0,0.1,0c0,0,0,0,0.1,0
			c0.1,0,0.2,0,0.3,0c0,0,0.1,0,0.1,0c0,0,0.1,0,0.1,0c0,0,0.1,0,0.1,0c0.1,0,0.3,0,0.4-0.1c0,0,0,0,0,0c0,0,0.1,0,0.1,0
			c0.1,0,0.3-0.1,0.4-0.1c0,0,0,0,0,0c0.2-0.1,0.4-0.2,0.5-0.3l5.8-3.7c-0.2,0.1-0.3,0.2-0.5,0.3c-0.1,0.1-0.3,0.1-0.4,0.1
			c0,0-0.1,0-0.1,0c-0.2,0-0.3,0.1-0.5,0.1c0,0-0.1,0-0.1,0c-0.2,0-0.3,0-0.5,0c0,0,0,0-0.1,0c-0.2,0-0.4,0-0.6-0.1c0,0,0,0-0.1,0
			c-0.2,0-0.4-0.1-0.6-0.1c0,0,0,0,0,0c-0.2-0.1-0.4-0.1-0.7-0.2c0,0,0,0,0,0c-0.2-0.1-0.5-0.2-0.7-0.3c-0.2-0.1-0.5-0.3-0.7-0.4
			c0,0,0,0,0,0c-0.2-0.1-0.4-0.3-0.6-0.4c0,0,0,0-0.1-0.1c-0.2-0.2-0.4-0.3-0.6-0.5c0,0,0,0-0.1-0.1c-0.2-0.2-0.4-0.4-0.6-0.5
			c0,0,0,0,0,0c-0.2-0.2-0.4-0.4-0.6-0.6c0,0,0,0,0,0c-0.2-0.2-0.4-0.5-0.6-0.7c0,0,0,0,0,0c-0.2-0.2-0.3-0.4-0.5-0.7
			c-0.1-0.1-0.2-0.3-0.3-0.4c-0.1-0.1-0.2-0.2-0.2-0.4c0-0.1-0.1-0.1-0.1-0.2c-0.1-0.2-0.2-0.4-0.4-0.6c0,0,0,0,0-0.1
			c-0.1-0.3-0.3-0.5-0.4-0.8c0,0,0,0,0,0c-0.1-0.3-0.2-0.5-0.3-0.8c0,0,0,0,0-0.1c-0.1-0.3-0.2-0.5-0.3-0.8c0,0,0,0,0,0
			c-0.1-0.3-0.2-0.5-0.2-0.8c0,0,0,0,0-0.1c-0.1-0.3-0.1-0.5-0.2-0.8c0,0,0,0,0,0c-0.1-0.3-0.1-0.5-0.1-0.8c0,0,0,0,0-0.1
			c0-0.3-0.1-0.5-0.1-0.8c0-0.3,0-0.5,0-0.7c0,0,0,0,0-0.1c0-0.2,0-0.4,0.1-0.6c0,0,0-0.1,0-0.1c0-0.2,0.1-0.4,0.1-0.6
			c0,0,0-0.1,0-0.1c0.1-0.2,0.1-0.3,0.2-0.5c0,0,0,0,0-0.1c0.1-0.2,0.2-0.3,0.3-0.5c0,0,0,0,0-0.1c0.1-0.1,0.2-0.2,0.3-0.4
			c0,0,0.1-0.1,0.1-0.1c0.1-0.1,0.2-0.2,0.2-0.3c0,0,0.1-0.1,0.1-0.1c0.1-0.1,0.2-0.2,0.4-0.3l0,0l0,0l0,0l-5.8,3.7
			c-0.1,0.1-0.3,0.2-0.4,0.3c0,0-0.1,0.1-0.1,0.1c-0.1,0.1-0.2,0.2-0.2,0.3c0,0-0.1,0.1-0.1,0.1c-0.1,0.1-0.2,0.2-0.3,0.4
			c0,0,0,0,0,0.1c0,0,0,0,0,0c-0.1,0.1-0.2,0.3-0.2,0.5c0,0,0,0,0,0c0,0,0,0,0,0.1c0,0.1-0.1,0.2-0.1,0.3c0,0.1,0,0.1,0,0.2
			c0,0,0,0.1,0,0.1c0,0,0,0.1,0,0.1c0,0.1-0.1,0.2-0.1,0.4c0,0,0,0.1,0,0.1c0,0,0,0.1,0,0.1c0,0,0,0.1,0,0.1c0,0.1,0,0.2,0,0.3
			c0,0.1,0,0.1,0,0.2c0,0,0,0,0,0.1c0,0,0,0.1,0,0.1c0,0.1,0,0.2,0,0.3c0,0.1,0,0.2,0,0.3c0,0,0,0,0,0
			C28.1,54.2,28.1,54.3,28.1,54.4z"/>
		<g>
			
				<linearGradient id="SVGID_3_" gradientUnits="userSpaceOnUse" x1="1024.8538" y1="2226.9307" x2="1024.8538" y2="2179.6406" gradientTransform="matrix(0.5156 0.8568 0.8568 -0.5156 -2393.6721 323.1796)">
				<stop  offset="0" style="stop-color:#48A7C1"/>
				<stop  offset="4.041848e-03" style="stop-color:#3D92A8"/>
				<stop  offset="1.059190e-02" style="stop-color:#2E7586"/>
				<stop  offset="1.599067e-02" style="stop-color:#256371"/>
				<stop  offset="1.953125e-02" style="stop-color:#225C69"/>
				<stop  offset="9.980003e-02" style="stop-color:#386D79"/>
				<stop  offset="0.3362" style="stop-color:#759CA6"/>
				<stop  offset="0.5529" style="stop-color:#A5C2C9"/>
				<stop  offset="0.7426" style="stop-color:#C8DDE3"/>
				<stop  offset="0.8981" style="stop-color:#DDEDF2"/>
				<stop  offset="1" style="stop-color:#E5F3F8"/>
			</linearGradient>
			<path style="fill:url(#SVGID_3_);" d="M5.5,64.7c-4.4,2.7-5.9,8.5-3.2,12.9s8.5,5.9,12.9,3.2L47.6,61l-9.4-15.6L5.5,64.7z"/>
			
				<linearGradient id="SVGID_4_" gradientUnits="userSpaceOnUse" x1="-2877.8376" y1="1345.3409" x2="-2884.3257" y2="1334.103" gradientTransform="matrix(-1 -8.147060e-04 8.147060e-04 -1 -2852.8237 1398.4983)">
				<stop  offset="5.227065e-03" style="stop-color:#48A7C1"/>
				<stop  offset="1" style="stop-color:#225C69"/>
			</linearGradient>
			<path style="fill:url(#SVGID_4_);" d="M14.9,69.4L14.9,69.4L14.9,69.4c7.7,0.5,15.3-1.3,21.9-5.1l6.9-4c0.8-0.5,1.3-1.5,1.3-3
				c0-2.9-2-6.5-4.6-7.9c-1.3-0.7-2.4-0.8-3.2-0.3l0,0l-6.9,4C23.7,56.9,18.3,62.6,14.9,69.4z"/>
		</g>
		
			<linearGradient id="SVGID_5_" gradientUnits="userSpaceOnUse" x1="-194.4192" y1="161.4446" x2="-176.9438" y2="161.4446" gradientTransform="matrix(0.9989 -4.792158e-02 4.792158e-02 0.9989 216.2664 -114.2796)">
			<stop  offset="4.836310e-03" style="stop-color:#9ED7F6"/>
			<stop  offset="1" style="stop-color:#48A7C1"/>
		</linearGradient>
		<path style="fill:url(#SVGID_5_);" d="M47.4,57.6c0-0.1,0-0.2,0-0.3c0,0,0-0.1,0-0.1c0,0,0,0,0-0.1c0,0,0-0.1,0-0.1
			c0-0.1,0-0.2-0.1-0.3c0-0.1,0-0.2-0.1-0.3c0,0,0,0,0,0c0,0,0,0,0,0c0-0.1,0-0.2-0.1-0.3c0-0.1-0.1-0.2-0.1-0.4c0,0,0-0.1,0-0.1
			c0,0,0,0,0-0.1c0-0.1,0-0.1,0-0.2c0-0.1-0.1-0.2-0.1-0.4c0-0.1-0.1-0.2-0.1-0.3c0,0,0,0,0,0c0,0,0,0,0,0c0-0.1-0.1-0.2-0.1-0.3
			c0-0.1-0.1-0.2-0.1-0.3c0,0,0,0,0-0.1c0,0,0,0,0-0.1c0-0.1-0.1-0.1-0.1-0.2c0-0.1-0.1-0.2-0.1-0.3c0-0.1-0.1-0.2-0.1-0.2
			c0,0,0,0,0,0c0,0,0,0,0,0c-0.1-0.1-0.1-0.2-0.2-0.3c-0.1-0.1-0.1-0.2-0.2-0.3c0,0,0,0,0-0.1c0,0,0,0,0-0.1
			c-0.1-0.1-0.1-0.2-0.2-0.3c-0.1-0.1-0.1-0.2-0.2-0.3c0-0.1-0.1-0.1-0.1-0.2c0,0,0,0,0-0.1c-0.1-0.1-0.1-0.2-0.2-0.3
			c-0.1-0.1-0.2-0.3-0.3-0.4c0,0,0,0,0-0.1c-0.1-0.2-0.3-0.4-0.5-0.6c0,0,0,0,0,0l0,0c-0.1-0.1-0.2-0.3-0.3-0.4
			c-0.1-0.1-0.2-0.2-0.3-0.3c0,0,0,0,0,0c0,0,0,0,0,0c-0.1-0.1-0.2-0.2-0.3-0.3c-0.1-0.1-0.2-0.2-0.3-0.3c0,0,0,0,0,0c0,0,0,0,0,0
			c-0.1-0.1-0.1-0.1-0.2-0.2c-0.1-0.1-0.2-0.2-0.3-0.3c0,0-0.1-0.1-0.1-0.1c0,0,0,0-0.1-0.1c0,0-0.1-0.1-0.1-0.1
			c-0.1-0.1-0.2-0.2-0.3-0.2c0,0-0.1-0.1-0.1-0.1c0,0,0,0-0.1-0.1c0,0-0.1-0.1-0.1-0.1c-0.1-0.1-0.2-0.1-0.3-0.2
			c-0.1,0-0.1-0.1-0.2-0.1c0,0,0,0,0,0c0,0,0,0,0,0c-0.1-0.1-0.2-0.1-0.3-0.2c-0.1-0.1-0.2-0.1-0.3-0.2c0,0,0,0-0.1,0
			c-0.1,0-0.1-0.1-0.2-0.1c-0.1,0-0.2-0.1-0.3-0.1c-0.1,0-0.1-0.1-0.2-0.1c0,0,0,0,0,0c0,0,0,0-0.1,0c-0.1,0-0.2-0.1-0.3-0.1
			c-0.1,0-0.2-0.1-0.3-0.1c0,0,0,0,0,0c0,0,0,0,0,0c-0.1,0-0.1,0-0.2-0.1c-0.1,0-0.2,0-0.3-0.1c0,0-0.1,0-0.1,0c0,0,0,0-0.1,0
			c0,0-0.1,0-0.1,0c-0.1,0-0.2,0-0.3,0c-0.1,0-0.1,0-0.2,0c0,0,0,0-0.1,0c0,0,0,0-0.1,0c-0.1,0-0.2,0-0.3,0c0,0-0.1,0-0.1,0
			c0,0-0.1,0-0.1,0c0,0-0.1,0-0.1,0c-0.1,0-0.3,0-0.4,0.1c0,0,0,0,0,0c0,0-0.1,0-0.1,0c-0.1,0-0.3,0.1-0.4,0.1c0,0,0,0,0,0
			c-0.2,0.1-0.3,0.2-0.5,0.3L29.5,50c0.2-0.1,0.3-0.2,0.5-0.3c0.1-0.1,0.3-0.1,0.4-0.1c0,0,0.1,0,0.1,0c0.2,0,0.3-0.1,0.5-0.1
			c0,0,0.1,0,0.1,0c0.2,0,0.3,0,0.5,0c0,0,0,0,0.1,0c0.2,0,0.4,0,0.6,0.1c0,0,0,0,0.1,0c0.2,0,0.4,0.1,0.6,0.1c0,0,0,0,0,0
			c0.2,0.1,0.4,0.1,0.7,0.2c0,0,0,0,0,0c0.2,0.1,0.5,0.2,0.7,0.3c0.2,0.1,0.5,0.3,0.7,0.4c0,0,0,0,0,0c0.2,0.1,0.4,0.3,0.6,0.4
			c0,0,0,0,0.1,0.1c0.2,0.2,0.4,0.3,0.6,0.5c0,0,0,0,0.1,0.1c0.2,0.2,0.4,0.3,0.6,0.5c0,0,0,0,0,0c0.2,0.2,0.4,0.4,0.6,0.6
			c0,0,0,0,0,0c0.2,0.2,0.4,0.4,0.6,0.7c0,0,0,0,0,0c0.2,0.2,0.3,0.4,0.5,0.7c0.1,0.1,0.2,0.3,0.3,0.4c0.1,0.1,0.2,0.2,0.2,0.4
			c0,0.1,0.1,0.1,0.1,0.2c0.1,0.2,0.3,0.4,0.4,0.6c0,0,0,0,0,0.1c0.1,0.3,0.3,0.5,0.4,0.8c0,0,0,0,0,0c0.1,0.3,0.2,0.5,0.4,0.8
			c0,0,0,0,0,0.1c0.1,0.3,0.2,0.5,0.3,0.8c0,0,0,0,0,0c0.1,0.3,0.2,0.5,0.2,0.8c0,0,0,0,0,0.1c0.1,0.3,0.1,0.5,0.2,0.8c0,0,0,0,0,0
			c0.1,0.3,0.1,0.5,0.1,0.8c0,0,0,0,0,0.1c0,0.3,0.1,0.5,0.1,0.8c0,0.3,0,0.5,0,0.7c0,0,0,0,0,0.1c0,0.2,0,0.4-0.1,0.6
			c0,0,0,0.1,0,0.1c0,0.2-0.1,0.4-0.1,0.6c0,0,0,0.1,0,0.1c0,0.2-0.1,0.3-0.2,0.5c0,0,0,0,0,0.1c-0.1,0.2-0.2,0.3-0.2,0.5
			c0,0,0,0,0,0.1c-0.1,0.1-0.2,0.2-0.2,0.4c0,0-0.1,0.1-0.1,0.1c-0.1,0.1-0.2,0.2-0.2,0.3c0,0-0.1,0.1-0.1,0.1
			c-0.1,0.1-0.2,0.2-0.4,0.3l0,0l0,0l0,0l5.7-3.7c0.1-0.1,0.3-0.2,0.4-0.3c0,0,0.1-0.1,0.1-0.1c0.1-0.1,0.2-0.2,0.2-0.3
			c0,0,0.1-0.1,0.1-0.1c0.1-0.1,0.2-0.2,0.2-0.4c0,0,0,0,0-0.1c0,0,0,0,0,0c0.1-0.1,0.2-0.3,0.2-0.5c0,0,0,0,0,0c0,0,0,0,0-0.1
			c0-0.1,0.1-0.2,0.1-0.3c0-0.1,0-0.1,0-0.2c0,0,0-0.1,0-0.1c0,0,0-0.1,0-0.1c0-0.1,0.1-0.2,0.1-0.4c0,0,0-0.1,0-0.1
			c0,0,0-0.1,0-0.1c0,0,0-0.1,0-0.1c0-0.1,0-0.2,0-0.3c0-0.1,0-0.1,0-0.2c0,0,0,0,0-0.1c0,0,0-0.1,0-0.1c0-0.1,0-0.2,0-0.3
			c0-0.1,0-0.2,0-0.3c0,0,0,0,0,0C47.4,57.8,47.4,57.7,47.4,57.6z"/>
		<g style="enable-background:new    ;">
			
				<linearGradient id="SVGID_6_" gradientUnits="userSpaceOnUse" x1="-56.6171" y1="79.1218" x2="-35.154" y2="79.1218" gradientTransform="matrix(0.9998 -2.118405e-02 2.118405e-02 0.9998 86.7197 -26.1548)">
				<stop  offset="5.376340e-03" style="stop-color:#225C69"/>
				<stop  offset="0.4452" style="stop-color:#368397"/>
				<stop  offset="0.8006" style="stop-color:#439DB6"/>
				<stop  offset="1" style="stop-color:#48A7C1"/>
			</linearGradient>
			<path style="fill:url(#SVGID_6_);" d="M53.3,56.3c0-0.1,0-0.3,0-0.4c0-0.1,0-0.1,0-0.2c0,0,0-0.1,0-0.1c0,0,0-0.1,0-0.1
				c0-0.1,0-0.3-0.1-0.4c0-0.1,0-0.3-0.1-0.4c0,0,0,0,0,0c0,0,0,0,0,0c0-0.1,0-0.3-0.1-0.4c0-0.1-0.1-0.3-0.1-0.4c0-0.1,0-0.1,0-0.2
				c0,0,0-0.1,0-0.1c0-0.1,0-0.1,0-0.2c0-0.1-0.1-0.3-0.1-0.4c0-0.1-0.1-0.2-0.1-0.3c0,0,0,0,0-0.1c0,0,0,0,0-0.1
				c0-0.1-0.1-0.3-0.1-0.4c-0.1-0.1-0.1-0.3-0.2-0.4c0,0,0-0.1,0-0.1c0,0,0,0,0-0.1c0-0.1-0.1-0.2-0.1-0.3C52,51.1,52,51,51.9,50.9
				c0-0.1-0.1-0.2-0.1-0.3c0,0,0,0,0-0.1c0,0,0,0,0-0.1c-0.1-0.1-0.1-0.3-0.2-0.4c-0.1-0.1-0.1-0.3-0.2-0.4c0,0,0,0,0-0.1
				c0,0,0-0.1,0-0.1c-0.1-0.1-0.1-0.2-0.2-0.3c-0.1-0.1-0.2-0.3-0.2-0.4c0-0.1-0.1-0.1-0.1-0.2c0,0,0-0.1-0.1-0.1
				c-0.1-0.1-0.2-0.2-0.2-0.4c-0.1-0.2-0.2-0.4-0.3-0.5c0,0,0-0.1-0.1-0.1c-0.2-0.3-0.4-0.5-0.5-0.7c-0.1-0.2-0.3-0.3-0.4-0.5
				c-0.1-0.1-0.2-0.3-0.3-0.4c0,0,0,0,0,0c0,0,0,0,0,0c-0.1-0.1-0.2-0.2-0.3-0.4c-0.1-0.1-0.2-0.2-0.3-0.4c0,0,0,0-0.1-0.1
				c0,0,0,0-0.1-0.1c-0.1-0.1-0.2-0.2-0.2-0.2c-0.1-0.1-0.2-0.2-0.4-0.3c0,0-0.1-0.1-0.1-0.1c0,0-0.1-0.1-0.1-0.1
				c-0.1-0.1-0.1-0.1-0.2-0.2c-0.1-0.1-0.3-0.2-0.4-0.3c-0.1,0-0.1-0.1-0.2-0.1c0,0-0.1,0-0.1-0.1c0,0-0.1-0.1-0.1-0.1
				c-0.1-0.1-0.2-0.2-0.4-0.3c-0.1-0.1-0.2-0.1-0.3-0.2c0,0,0,0-0.1,0c0,0,0,0,0,0c-0.1-0.1-0.2-0.2-0.4-0.2
				c-0.1-0.1-0.2-0.1-0.4-0.2c0,0-0.1,0-0.1,0c-0.1,0-0.2-0.1-0.3-0.1c-0.1-0.1-0.2-0.1-0.3-0.2c-0.1,0-0.1-0.1-0.2-0.1
				c0,0,0,0-0.1,0c0,0,0,0-0.1,0c-0.1,0-0.2-0.1-0.3-0.1c-0.1,0-0.2-0.1-0.3-0.1c0,0,0,0-0.1,0c0,0,0,0-0.1,0c-0.1,0-0.2,0-0.2-0.1
				c-0.1,0-0.2-0.1-0.3-0.1c-0.1,0-0.1,0-0.2,0c0,0,0,0-0.1,0c0,0-0.1,0-0.1,0c-0.1,0-0.2,0-0.4-0.1c-0.1,0-0.1,0-0.2,0
				c0,0-0.1,0-0.1,0c0,0-0.1,0-0.1,0c-0.1,0-0.3,0-0.4,0c-0.1,0-0.1,0-0.2,0c0,0-0.1,0-0.1,0c0,0-0.1,0-0.1,0c-0.2,0-0.3,0-0.5,0.1
				c0,0,0,0,0,0c0,0-0.1,0-0.1,0c-0.2,0-0.3,0.1-0.5,0.1c0,0,0,0,0,0c-0.2,0.1-0.4,0.2-0.6,0.3c0,0,0,0,0,0l-7.1,4.4
				c0.2-0.1,0.4-0.2,0.6-0.3c0.2-0.1,0.3-0.1,0.5-0.2c0,0,0.1,0,0.1,0c0.2,0,0.4-0.1,0.6-0.1c0,0,0.1,0,0.1,0c0.2,0,0.4,0,0.6,0
				c0,0,0.1,0,0.1,0c0.2,0,0.5,0,0.7,0.1c0,0,0,0,0.1,0c0.2,0,0.5,0.1,0.7,0.2c0,0,0,0,0.1,0c0.3,0.1,0.5,0.2,0.8,0.3c0,0,0,0,0.1,0
				c0.3,0.1,0.6,0.3,0.8,0.4c0.3,0.2,0.6,0.3,0.8,0.5c0,0,0,0,0.1,0c0.3,0.2,0.5,0.4,0.8,0.6c0,0,0.1,0,0.1,0.1
				c0.2,0.2,0.5,0.4,0.7,0.6c0,0,0.1,0.1,0.1,0.1c0.2,0.2,0.5,0.4,0.7,0.7c0,0,0,0,0.1,0.1c0.2,0.3,0.5,0.5,0.7,0.8c0,0,0,0,0,0
				c0.2,0.3,0.5,0.6,0.7,0.9c0,0,0,0,0,0c0.2,0.3,0.4,0.5,0.6,0.8c0.1,0.2,0.2,0.3,0.3,0.5c0.1,0.1,0.2,0.3,0.3,0.4
				c0,0.1,0.1,0.1,0.1,0.2c0.2,0.3,0.3,0.5,0.4,0.8c0,0,0,0.1,0,0.1c0.2,0.3,0.3,0.6,0.5,1c0,0,0,0,0,0.1c0.1,0.3,0.3,0.6,0.4,1
				c0,0,0,0,0,0.1c0.1,0.3,0.2,0.7,0.4,1c0,0,0,0,0,0.1c0.1,0.3,0.2,0.6,0.3,1c0,0,0,0.1,0,0.1c0.1,0.3,0.2,0.7,0.2,1c0,0,0,0,0,0
				c0.1,0.3,0.1,0.7,0.1,1c0,0,0,0.1,0,0.1c0,0.3,0.1,0.6,0.1,1c0,0.3,0,0.6,0,0.9c0,0,0,0.1,0,0.1c0,0.3-0.1,0.5-0.1,0.8
				c0,0,0,0.1,0,0.1c0,0.2-0.1,0.5-0.2,0.7c0,0,0,0.1,0,0.1c-0.1,0.2-0.1,0.4-0.2,0.6c0,0,0,0,0,0.1c-0.1,0.2-0.2,0.4-0.3,0.6
				c0,0,0,0,0,0.1c-0.1,0.2-0.2,0.3-0.3,0.4c0,0-0.1,0.1-0.1,0.1c-0.1,0.1-0.2,0.2-0.3,0.3c0,0-0.1,0.1-0.1,0.1
				c-0.2,0.1-0.3,0.2-0.5,0.3l7.1-4.4c0.2-0.1,0.3-0.2,0.5-0.3c0,0,0.1-0.1,0.1-0.1c0.1-0.1,0.2-0.2,0.3-0.3c0,0,0.1-0.1,0.1-0.1
				c0.1-0.1,0.2-0.3,0.3-0.4c0,0,0,0,0-0.1c0,0,0,0,0,0c0.1-0.2,0.2-0.4,0.3-0.6c0,0,0,0,0,0c0,0,0,0,0-0.1c0.1-0.1,0.1-0.3,0.2-0.4
				c0-0.1,0-0.1,0.1-0.2c0,0,0-0.1,0-0.1c0,0,0-0.1,0-0.1c0-0.1,0.1-0.3,0.1-0.4c0-0.1,0-0.1,0-0.2c0,0,0-0.1,0-0.1
				c0-0.1,0-0.1,0-0.2c0-0.1,0-0.3,0.1-0.4c0-0.1,0-0.2,0-0.2c0,0,0-0.1,0-0.1c0,0,0-0.1,0-0.1c0-0.1,0-0.3,0-0.4c0-0.1,0-0.3,0-0.4
				c0,0,0,0,0,0C53.3,56.6,53.3,56.4,53.3,56.3z"/>
		</g>
	</g>
</g>
</svg>
