<?xml version="1.0" encoding="utf-8"?>
<!-- Generator: Adobe Illustrator 23.0.1, SVG Export Plug-In . SVG Version: 6.00 Build 0)  -->
<svg version="1.1" id="Layer_1" xmlns="http://www.w3.org/2000/svg" xmlns:xlink="http://www.w3.org/1999/xlink" x="0px" y="0px"
	 viewBox="0 0 100 100" style="enable-background:new 0 0 100 100;" xml:space="preserve">
<g id="left-leg_7_">
	<path id="Foot_4_" style="fill:#C1E4EE;" d="M47.2,70.1c0,0-0.2,1.5-0.5,2.6c-0.3,1.1,0,3,0.1,4.3c0.2,1.3,0.2,2.6,0,3.2
		c-0.1,0.4,0.5,0.6,1.8,0.5c-0.2-1.5-0.3-2.7-0.2-3.5c0.2-1.2,0.8-4.6,0.5-6.5C48.7,69,47.2,70.1,47.2,70.1z"/>
	<path id="Shoes_9_" d="M48.8,80.9c-0.3-1-0.6-1.5-1-1.5c-0.6,0-1.1,0.2-1.1,1c0,0.9,0.5,1.6,0.6,2.2c0.1,0.4,0.2,0.8,0.2,1.1h0.3
		v-1.1l0.8,0.4l0.3-1.5L48.8,80.9z"/>
</g>
</svg>
