<?xml version="1.0" encoding="utf-8"?>
<!-- Generator: Adobe Illustrator 23.0.1, SVG Export Plug-In . SVG Version: 6.00 Build 0)  -->
<svg version="1.1" id="Layer_1" xmlns="http://www.w3.org/2000/svg" xmlns:xlink="http://www.w3.org/1999/xlink" x="0px" y="0px"
	 viewBox="0 0 100 100" style="enable-background:new 0 0 100 100;" xml:space="preserve">
<g id="middle_1_">
	<g>
		<g>
			<path style="fill:#F1F1F1;" d="M68.1,29.6c0.5,0.3,0.9,0.9,0.9,1.5c0,0.5-0.4,0.8-0.9,0.5l-12.7-7.4c-0.5-0.3-0.9-0.9-0.9-1.5
				c0-0.5,0.4-0.8,0.9-0.5L68.1,29.6z"/>
		</g>
		<g style="enable-background:new    ;">
			<g>
				<path style="fill:#F1F1F1;" d="M61.6,63.3c0.5,0.3,0.9,0.9,0.9,1.5c0,0.5-0.4,0.8-0.9,0.5l-6.3-3.6c-0.5-0.3-0.9-0.9-0.9-1.5
					c0-0.5,0.4-0.8,0.9-0.5L61.6,63.3z"/>
			</g>
			<g>
				<path style="fill:#F1F1F1;" d="M68,64.1c0.5,0.3,0.9,0.9,0.9,1.5c0,0.5-0.4,0.8-0.9,0.5l-12.7-7.4c-0.5-0.3-0.9-0.9-0.9-1.5
					c0-0.5,0.4-0.8,0.9-0.5L68,64.1z"/>
			</g>
		</g>
	</g>
	<g>
		<linearGradient id="SVGID_1_" gradientUnits="userSpaceOnUse" x1="60.054" y1="47.0476" x2="65.6324" y2="37.3854">
			<stop  offset="0" style="stop-color:#48A7C1"/>
			<stop  offset="1" style="stop-color:#7AC8D1"/>
		</linearGradient>
		<path style="fill:url(#SVGID_1_);" d="M65.1,37.1l2.1,1.7l3,4.8l-2,1.5l-1-1.3l0,7.4l-3.6-2.1L60,47l0-7.4l-1,0.1l-2-3.8l3-1.3
			l2,0.7c0.1,0.1,1.1,1.8,1.6,2.1C64,37.6,65,37.1,65.1,37.1z"/>
	</g>
</g>
</svg>
