<?xml version="1.0" encoding="utf-8"?>
<!-- Generator: Adobe Illustrator 23.0.1, SVG Export Plug-In . SVG Version: 6.00 Build 0)  -->
<svg version="1.1" id="Layer_1" xmlns="http://www.w3.org/2000/svg" xmlns:xlink="http://www.w3.org/1999/xlink" x="0px" y="0px"
	 viewBox="0 0 100 100" style="enable-background:new 0 0 100 100;" xml:space="preserve">
<g id="left-leg_8_">
	<path id="Shoes_11_" style="fill:#1C1A3A;" d="M13.6,46.3c0,0.6,0,0.9-0.1,1.2c-0.1,0.2-0.2,0.4-0.2,0.6c0.5,0.2,1,0.3,1.6,0.3
		l0-0.1c0.4,0,0.8,0.2,1.1,0.4c0.5,0.3,1.5,0.6,2.1,0.4c0.6-0.2,0.5-0.7,0.2-1s-1.5-0.8-2-1c-0.4-0.1-0.8-0.7-1.3-1.7L13.6,46.3z"/>
	
		<linearGradient id="Foot_1_" gradientUnits="userSpaceOnUse" x1="-247.2851" y1="441.5672" x2="-247.915" y2="441.8446" gradientTransform="matrix(-17.8538 0 0 -59.9808 -4401.5923 26525.4805)">
		<stop  offset="0" style="stop-color:#48A7C1"/>
		<stop  offset="0.9995" style="stop-color:#225C69"/>
	</linearGradient>
	<path id="Foot_9_" style="fill:url(#Foot_1_);" d="M12.9,37.3c0.5,6.1,0.8,9.3,0.8,9.6c0,0.4,1.4,0.7,2.4,0.3
		c-0.1-3.2-0.1-5.5,0-7.1c0.2-2.4,0.8-5.6,0.4-7.8c-0.3-1.4-1.8-1.7-4.8-0.9L12.9,37.3z"/>
</g>
</svg>
