<?xml version="1.0" encoding="utf-8"?>
<!-- Generator: Adobe Illustrator 23.0.1, SVG Export Plug-In . SVG Version: 6.00 Build 0)  -->
<svg version="1.1" id="Layer_1" xmlns="http://www.w3.org/2000/svg" xmlns:xlink="http://www.w3.org/1999/xlink" x="0px" y="0px"
	 viewBox="0 0 100 100" style="enable-background:new 0 0 100 100;" xml:space="preserve">
<g id="right-leg_7_">
	<path id="Foot_3_" style="fill:#C1E4EE;" d="M49.8,72.1c0,0.6-0.1,1.3-0.3,1.8c-0.3,0.9-0.3,3.3-0.3,4.6s-0.2,2-0.3,2.3
		c-0.2,0.3,0.3,2,1,2.6c0.7,0.6,1.2,0.8,1.8,0.7c0.6-0.1,0.7-0.1,0.6-0.3c0-0.2-0.2-0.3-0.4-0.5c-0.7-0.1-1-0.8-1.1-2.1
		c-0.2-2,0.5-5.2,1.1-6.5c0.6-1.4,1.4-4.2,0.8-4.9C52.2,69.3,51.2,70.1,49.8,72.1z"/>
	<path id="Shoes_6_" d="M48.7,84.7H49v-1.8c0.3,0.6,0.6,0.9,0.7,1.2c0.2,0.3,0.9,0.6,2.1,0.3c1.2-0.3,1.2-0.8,0.5-1
		c-0.4-0.1-0.7-0.2-0.8-0.2c0.3,0.2,0.3,0.3,0.1,0.4c-0.3,0.2-1.2,0.3-1.6-0.7c-0.4-1-1.1-2.9-1.4-2.1c-0.4,0.8-0.4,1.5-0.2,2.1
		C48.6,83.3,48.6,83.9,48.7,84.7z"/>
</g>
</svg>
