<?xml version="1.0" encoding="utf-8"?>
<!-- Generator: Adobe Illustrator 23.0.1, SVG Export Plug-In . SVG Version: 6.00 Build 0)  -->
<svg version="1.1" id="Layer_1" xmlns="http://www.w3.org/2000/svg" xmlns:xlink="http://www.w3.org/1999/xlink" x="0px" y="0px"
	 viewBox="0 0 100 100" style="enable-background:new 0 0 100 100;" xml:space="preserve">
<g id="plane_1_">
	<g id="jet_3_">
		<g>
			<g style="enable-background:new    ;">
				
					<linearGradient id="SVGID_1_" gradientUnits="userSpaceOnUse" x1="-2835.0837" y1="-1200.2828" x2="-2857.283" y2="-1198.5275" gradientTransform="matrix(-0.9998 1.886641e-02 1.886641e-02 0.9998 -2782.6453 1307.2981)">
					<stop  offset="4.836310e-03" style="stop-color:#9ED7F6"/>
					<stop  offset="1" style="stop-color:#48A7C1"/>
				</linearGradient>
				<path style="fill:url(#SVGID_1_);" d="M29.5,52.1c0,0.1,0,0.3,0,0.4c0,0.1,0,0.1,0,0.2v0.1v0.1c0,0.1,0,0.3,0.1,0.4
					c0,0.1,0,0.3,0.1,0.4l0,0l0,0c0,0.1,0,0.3,0.1,0.4c0,0.1,0.1,0.3,0.1,0.4c0,0.1,0,0.1,0,0.2v0.1c0,0.1,0,0.1,0,0.2
					c0,0.1,0.1,0.3,0.1,0.4c0,0.1,0.1,0.2,0.1,0.3c0,0,0,0,0,0.1c0,0,0,0,0,0.1s0.1,0.3,0.1,0.4c0.1,0.1,0.1,0.3,0.2,0.4v0.1
					c0,0,0,0,0,0.1s0.1,0.2,0.1,0.3c0.1,0.1,0.1,0.3,0.2,0.4c0,0.1,0.1,0.2,0.1,0.3c0,0,0,0,0,0.1c0,0,0,0,0,0.1
					c0.1,0.1,0.1,0.3,0.2,0.4c0.1,0.1,0.1,0.3,0.2,0.4c0,0,0,0,0,0.1v0.1c0.1,0.1,0.1,0.2,0.2,0.3s0.2,0.3,0.2,0.4
					c0,0.1,0.1,0.1,0.1,0.2c0,0,0,0.1,0.1,0.1c0.1,0.1,0.2,0.2,0.2,0.4c0.1,0.2,0.2,0.4,0.3,0.5c0,0,0,0.1,0.1,0.1
					c0.2,0.3,0.4,0.5,0.5,0.7s0.3,0.3,0.4,0.5c0.1,0.1,0.2,0.3,0.3,0.4l0,0l0,0c0.1,0.1,0.2,0.2,0.3,0.4c0.1,0.1,0.2,0.2,0.3,0.4
					c0,0,0,0,0.1,0.1c0,0,0,0,0.1,0.1s0.2,0.2,0.2,0.2c0.1,0.1,0.2,0.2,0.4,0.3l0.1,0.1l0.1,0.1c0.1,0.1,0.1,0.1,0.2,0.2
					c0.1,0.1,0.3,0.2,0.4,0.3c0.1,0,0.1,0.1,0.2,0.1c0,0,0.1,0,0.1,0.1l0.1,0.1c0.1,0.1,0.2,0.2,0.4,0.3c0.1,0.1,0.2,0.1,0.3,0.2
					l0,0l0,0c0.1,0.1,0.2,0.2,0.4,0.2c0.1,0.1,0.2,0.1,0.4,0.2h0.1c0.1,0,0.2,0.1,0.3,0.1c0.1,0.1,0.2,0.1,0.3,0.2
					c0.1,0,0.1,0.1,0.2,0.1c0,0,0,0,0.1,0c0,0,0,0,0.1,0s0.2,0.1,0.3,0.1s0.2,0.1,0.3,0.1c0,0,0,0,0.1,0c0,0,0,0,0.1,0
					s0.2,0,0.2,0.1c0.1,0,0.2,0.1,0.3,0.1s0.1,0,0.2,0c0,0,0,0,0.1,0h0.1c0.1,0,0.2,0,0.4,0.1c0.1,0,0.1,0,0.2,0h0.1h0.1
					c0.1,0,0.3,0,0.4,0c0.1,0,0.1,0,0.2,0H42h0.1c0.2,0,0.3,0,0.5-0.1l0,0h0.1c0.2,0,0.3-0.1,0.5-0.1l0,0c0.2-0.1,0.4-0.2,0.6-0.3
					l0,0l7.1-4.3c-0.2,0.1-0.4,0.2-0.6,0.3c-0.2,0.1-0.3,0.1-0.5,0.2h-0.1c-0.2,0-0.4,0.1-0.6,0.1H49c-0.2,0-0.4,0-0.6,0h-0.1
					c-0.2,0-0.5,0-0.7-0.1c0,0,0,0-0.1,0c-0.2,0-0.5-0.1-0.7-0.2c0,0,0,0-0.1,0c-0.3-0.1-0.5-0.2-0.8-0.3c0,0,0,0-0.1,0
					c-0.3-0.1-0.6-0.3-0.8-0.4c-0.3-0.2-0.6-0.3-0.8-0.5c0,0,0,0-0.1,0c-0.3-0.2-0.5-0.4-0.8-0.6c0,0-0.1,0-0.1-0.1
					c-0.2-0.2-0.5-0.4-0.7-0.6l-0.1-0.1c-0.2-0.2-0.5-0.4-0.7-0.7c0,0,0,0-0.1-0.1c-0.2-0.3-0.5-0.5-0.7-0.8l0,0
					c-0.2-0.3-0.5-0.6-0.7-0.9l0,0c-0.2-0.3-0.4-0.5-0.6-0.8c-0.1-0.2-0.2-0.3-0.3-0.5c-0.1-0.1-0.2-0.3-0.3-0.4
					c0-0.1-0.1-0.1-0.1-0.2c-0.1-0.3-0.3-0.5-0.4-0.8v-0.1c-0.2-0.3-0.3-0.6-0.5-1c0,0,0,0,0-0.1c-0.1-0.3-0.3-0.6-0.4-1
					c0,0,0,0,0-0.1c-0.1-0.3-0.2-0.7-0.4-1c0,0,0,0,0-0.1c-0.1-0.3-0.2-0.6-0.3-1v-0.1c-0.1-0.3-0.2-0.7-0.2-1l0,0
					c-0.1-0.3-0.1-0.7-0.1-1v-0.1c0-0.3-0.1-0.6-0.1-1c0-0.3,0-0.6,0-0.9v-0.1c0-0.3,0.1-0.5,0.1-0.8v-0.1c0-0.2,0.1-0.5,0.2-0.7
					v-0.1c0.1-0.2,0.1-0.4,0.2-0.6c0,0,0,0,0-0.1c0.1-0.2,0.2-0.4,0.3-0.6c0,0,0,0,0-0.1c0.1-0.2,0.2-0.3,0.3-0.4l0.1-0.1
					c0.1-0.1,0.2-0.2,0.3-0.3l0.1-0.1c0.2-0.1,0.3-0.2,0.5-0.3l-7.1,4.3c-0.2,0.1-0.3,0.2-0.5,0.3l-0.1,0.1
					c-0.1,0.1-0.2,0.2-0.3,0.3l-0.1,0.1c-0.1,0.1-0.2,0.3-0.3,0.4c0,0,0,0,0,0.1l0,0c-0.1,0.2-0.2,0.4-0.3,0.6l0,0c0,0,0,0,0,0.1
					c-0.1,0.1-0.1,0.3-0.2,0.4c0,0.1,0,0.1-0.1,0.2v0.1v0.1c0,0.1-0.1,0.3-0.1,0.4c0,0.1,0,0.1,0,0.2v0.1c0,0.1,0,0.1,0,0.2
					c0,0.1,0,0.3-0.1,0.4c0,0.1,0,0.2,0,0.2v0.1v0.1c0,0.1,0,0.3,0,0.4c0,0.1,0,0.3,0,0.4l0,0C29.4,51.8,29.4,51.9,29.5,52.1z"/>
			</g>
		</g>
		
			<linearGradient id="SVGID_2_" gradientUnits="userSpaceOnUse" x1="-3021.5312" y1="-1217.9258" x2="-3003.9951" y2="-1217.9258" gradientTransform="matrix(-0.9993 3.808209e-02 3.808209e-02 0.9993 -2927.239 1387.7994)">
			<stop  offset="0" style="stop-color:#FFFFFF"/>
			<stop  offset="1" style="stop-color:#D1E4F6"/>
		</linearGradient>
		<path style="fill:url(#SVGID_2_);" d="M28.1,54.4c0,0.1,0,0.2,0,0.3s0,0.1,0,0.2c0,0,0,0,0,0.1v0.1c0,0.1,0,0.2,0,0.3
			s0,0.2,0.1,0.3l0,0l0,0c0,0.1,0,0.2,0.1,0.3c0,0.1,0.1,0.2,0.1,0.4v0.1v0.1c0,0.1,0,0.1,0,0.2c0,0.1,0.1,0.2,0.1,0.4
			c0,0.1,0.1,0.2,0.1,0.3l0,0l0,0c0,0.1,0.1,0.2,0.1,0.3s0.1,0.2,0.1,0.3c0,0,0,0,0,0.1c0,0,0,0,0,0.1s0.1,0.1,0.1,0.2
			c0,0.1,0.1,0.2,0.1,0.3s0.1,0.2,0.1,0.2l0,0l0,0c0.1,0.1,0.1,0.2,0.2,0.3s0.1,0.2,0.2,0.4c0,0,0,0,0,0.1c0,0,0,0,0,0.1
			c0.1,0.1,0.1,0.2,0.2,0.3s0.1,0.2,0.2,0.3c0,0.1,0.1,0.1,0.1,0.2c0,0,0,0,0,0.1c0.1,0.1,0.1,0.2,0.2,0.3s0.2,0.3,0.3,0.4
			c0,0,0,0,0,0.1c0.1,0.2,0.3,0.4,0.5,0.6l0,0l0,0c0.1,0.1,0.2,0.3,0.3,0.4c0.1,0.1,0.2,0.2,0.3,0.3l0,0l0,0
			c0.1,0.1,0.2,0.2,0.3,0.3s0.2,0.2,0.3,0.3l0,0l0,0c0.1,0.1,0.1,0.1,0.2,0.2c0.1,0.1,0.2,0.2,0.3,0.3l0.1,0.1c0,0,0,0,0.1,0.1
			l0.1,0.1c0.1,0.1,0.2,0.2,0.3,0.3l0.1,0.1c0,0,0,0,0.1,0.1l0.1,0.1c0.1,0.1,0.2,0.1,0.3,0.2s0.1,0.1,0.2,0.1l0,0l0,0
			c0.1,0.1,0.2,0.1,0.3,0.2s0.2,0.1,0.3,0.2c0,0,0,0,0.1,0s0.1,0.1,0.2,0.1c0.1,0,0.2,0.1,0.3,0.1s0.1,0.1,0.2,0.1l0,0
			c0,0,0,0,0.1,0s0.2,0.1,0.3,0.1s0.2,0.1,0.3,0.1l0,0l0,0c0.1,0,0.1,0,0.2,0.1c0.1,0,0.2,0,0.3,0.1h0.1c0,0,0,0,0.1,0H37
			c0.1,0,0.2,0,0.3,0s0.1,0,0.2,0c0,0,0,0,0.1,0c0,0,0,0,0.1,0s0.2,0,0.3,0h0.1h0.1h0.1c0.1,0,0.3,0,0.4-0.1l0,0h0.1
			c0.1,0,0.3-0.1,0.4-0.1l0,0c0.2-0.1,0.4-0.2,0.5-0.3l5.8-3.7c-0.2,0.1-0.3,0.2-0.5,0.3c-0.1,0.1-0.3,0.1-0.4,0.1h-0.1
			c-0.2,0-0.3,0.1-0.5,0.1h-0.1c-0.2,0-0.3,0-0.5,0c0,0,0,0-0.1,0c-0.2,0-0.4,0-0.6-0.1c0,0,0,0-0.1,0c-0.2,0-0.4-0.1-0.6-0.1l0,0
			c-0.2-0.1-0.4-0.1-0.7-0.2l0,0c-0.2-0.1-0.5-0.2-0.7-0.3s-0.5-0.3-0.7-0.4l0,0c-0.2-0.1-0.4-0.3-0.6-0.4c0,0,0,0-0.1-0.1
			c-0.2-0.2-0.4-0.3-0.6-0.5c0,0,0,0-0.1-0.1c-0.2-0.2-0.4-0.4-0.6-0.5l0,0c-0.2-0.2-0.4-0.4-0.6-0.6l0,0c-0.2-0.2-0.4-0.5-0.6-0.7
			l0,0c-0.2-0.2-0.3-0.4-0.5-0.7c-0.1-0.1-0.2-0.3-0.3-0.4c-0.1-0.1-0.2-0.2-0.2-0.4c0-0.1-0.1-0.1-0.1-0.2
			c-0.1-0.2-0.2-0.4-0.4-0.6c0,0,0,0,0-0.1c-0.1-0.3-0.3-0.5-0.4-0.8l0,0c-0.1-0.3-0.2-0.5-0.3-0.8c0,0,0,0,0-0.1
			c-0.1-0.3-0.2-0.5-0.3-0.8l0,0c-0.1-0.3-0.2-0.5-0.2-0.8c0,0,0,0,0-0.1c-0.1-0.3-0.1-0.5-0.2-0.8l0,0c-0.1-0.3-0.1-0.5-0.1-0.8
			c0,0,0,0,0-0.1c0-0.3-0.1-0.5-0.1-0.8s0-0.5,0-0.7c0,0,0,0,0-0.1c0-0.2,0-0.4,0.1-0.6v-0.1c0-0.2,0.1-0.4,0.1-0.6v-0.1
			c0.1-0.2,0.1-0.3,0.2-0.5c0,0,0,0,0-0.1c0.1-0.2,0.2-0.3,0.3-0.5c0,0,0,0,0-0.1c0.1-0.1,0.2-0.2,0.3-0.4l0.1-0.1
			c0.1-0.1,0.2-0.2,0.2-0.3L35,46c0.1-0.1,0.2-0.2,0.4-0.3l0,0l0,0l0,0l-5.8,3.7c-0.1,0.1-0.3,0.2-0.4,0.3l-0.1,0.1
			c-0.1,0.1-0.2,0.2-0.2,0.3l-0.1,0.1c-0.1,0.1-0.2,0.2-0.3,0.4c0,0,0,0,0,0.1l0,0c-0.1,0.1-0.2,0.3-0.2,0.5l0,0c0,0,0,0,0,0.1
			s-0.1,0.2-0.1,0.3s0,0.1,0,0.2v0.1V52c0,0.1-0.1,0.2-0.1,0.4v0.1v0.1v0.1c0,0.1,0,0.2,0,0.3s0,0.1,0,0.2c0,0,0,0,0,0.1v0.1
			c0,0.1,0,0.2,0,0.3s0,0.2,0,0.3l0,0C28.1,54.2,28.1,54.3,28.1,54.4z"/>
		<g>
			
				<linearGradient id="SVGID_3_" gradientUnits="userSpaceOnUse" x1="1024.9976" y1="-2126.9739" x2="1024.9976" y2="-2079.6838" gradientTransform="matrix(0.5156 0.8568 -0.8568 0.5156 -2307.9922 271.6196)">
				<stop  offset="0" style="stop-color:#48A7C1"/>
				<stop  offset="4.041848e-03" style="stop-color:#3D92A8"/>
				<stop  offset="1.059190e-02" style="stop-color:#2E7586"/>
				<stop  offset="1.599067e-02" style="stop-color:#256371"/>
				<stop  offset="1.953125e-02" style="stop-color:#225C69"/>
				<stop  offset="9.980002e-02" style="stop-color:#386D79"/>
				<stop  offset="0.3362" style="stop-color:#759CA6"/>
				<stop  offset="0.5529" style="stop-color:#A5C2C9"/>
				<stop  offset="0.7426" style="stop-color:#C8DDE3"/>
				<stop  offset="0.8981" style="stop-color:#DDEDF2"/>
				<stop  offset="1" style="stop-color:#E5F3F8"/>
			</linearGradient>
			<path style="fill:url(#SVGID_3_);" d="M5.5,64.7c-4.4,2.7-5.9,8.5-3.2,12.9s8.5,5.9,12.9,3.2L47.6,61l-9.4-15.6L5.5,64.7z"/>
		</g>
		
			<linearGradient id="SVGID_4_" gradientUnits="userSpaceOnUse" x1="-194.4145" y1="-61.756" x2="-176.9391" y2="-61.756" gradientTransform="matrix(0.9989 -4.792158e-02 -4.792158e-02 -0.9989 221.0586 -14.3896)">
			<stop  offset="4.836310e-03" style="stop-color:#9ED7F6"/>
			<stop  offset="1" style="stop-color:#48A7C1"/>
		</linearGradient>
		<path style="fill:url(#SVGID_4_);" d="M47.4,57.6c0-0.1,0-0.2,0-0.3v-0.1c0,0,0,0,0-0.1V57c0-0.1,0-0.2-0.1-0.3
			c0-0.1,0-0.2-0.1-0.3l0,0l0,0c0-0.1,0-0.2-0.1-0.3c0-0.1-0.1-0.2-0.1-0.4v-0.1c0,0,0,0,0-0.1s0-0.1,0-0.2c0-0.1-0.1-0.2-0.1-0.4
			c0-0.1-0.1-0.2-0.1-0.3l0,0l0,0c0-0.1-0.1-0.2-0.1-0.3s-0.1-0.2-0.1-0.3c0,0,0,0,0-0.1c0,0,0,0,0-0.1s-0.1-0.1-0.1-0.2
			c0-0.1-0.1-0.2-0.1-0.3s-0.1-0.2-0.1-0.2l0,0l0,0c-0.1-0.1-0.1-0.2-0.2-0.3c-0.1-0.1-0.1-0.2-0.2-0.3c0,0,0,0,0-0.1c0,0,0,0,0-0.1
			c-0.1-0.1-0.1-0.2-0.2-0.3c-0.1-0.1-0.1-0.2-0.2-0.3c0-0.1-0.1-0.1-0.1-0.2c0,0,0,0,0-0.1c-0.1-0.1-0.1-0.2-0.2-0.3
			c-0.1-0.1-0.2-0.3-0.3-0.4c0,0,0,0,0-0.1c-0.1-0.2-0.3-0.4-0.5-0.6l0,0l0,0c-0.1-0.1-0.2-0.3-0.3-0.4c-0.1-0.1-0.2-0.2-0.3-0.3
			l0,0l0,0c-0.1-0.1-0.2-0.2-0.3-0.3s-0.2-0.2-0.3-0.3l0,0l0,0c-0.1-0.1-0.1-0.1-0.2-0.2c-0.1-0.1-0.2-0.2-0.3-0.3l-0.1-0.1
			c0,0,0,0-0.1-0.1l-0.1-0.1c-0.1-0.1-0.2-0.2-0.3-0.2L42,47.6c0,0,0,0-0.1-0.1l-0.1-0.1c-0.1-0.1-0.2-0.1-0.3-0.2
			c-0.1,0-0.1-0.1-0.2-0.1l0,0l0,0C41.2,47,41.1,47,41,46.9c-0.1-0.1-0.2-0.1-0.3-0.2c0,0,0,0-0.1,0s-0.1-0.1-0.2-0.1
			c-0.1,0-0.2-0.1-0.3-0.1s-0.1-0.1-0.2-0.1l0,0c0,0,0,0-0.1,0s-0.2-0.1-0.3-0.1s-0.2-0.1-0.3-0.1l0,0l0,0c-0.1,0-0.1,0-0.2-0.1
			c-0.1,0-0.2,0-0.3-0.1h-0.1c0,0,0,0-0.1,0h-0.1c-0.1,0-0.2,0-0.3,0s-0.1,0-0.2,0c0,0,0,0-0.1,0c0,0,0,0-0.1,0s-0.2,0-0.3,0h-0.1
			h-0.1h-0.1c-0.1,0-0.3,0-0.4,0.1l0,0h-0.1c-0.1,0-0.3,0.1-0.4,0.1l0,0c-0.2,0.1-0.3,0.2-0.5,0.3L29.5,50c0.2-0.1,0.3-0.2,0.5-0.3
			c0.1-0.1,0.3-0.1,0.4-0.1h0.1c0.2,0,0.3-0.1,0.5-0.1h0.1c0.2,0,0.3,0,0.5,0c0,0,0,0,0.1,0c0.2,0,0.4,0,0.6,0.1c0,0,0,0,0.1,0
			c0.2,0,0.4,0.1,0.6,0.1l0,0c0.2,0.1,0.4,0.1,0.7,0.2l0,0c0.2,0.1,0.5,0.2,0.7,0.3s0.5,0.3,0.7,0.4l0,0c0.2,0.1,0.4,0.3,0.6,0.4
			c0,0,0,0,0.1,0.1c0.2,0.2,0.4,0.3,0.6,0.5c0,0,0,0,0.1,0.1c0.2,0.2,0.4,0.3,0.6,0.5l0,0c0.2,0.2,0.4,0.4,0.6,0.6l0,0
			c0.2,0.2,0.4,0.4,0.6,0.7l0,0c0.2,0.2,0.3,0.4,0.5,0.7c0.1,0.1,0.2,0.3,0.3,0.4c0.1,0.1,0.2,0.2,0.2,0.4c0,0.1,0.1,0.1,0.1,0.2
			c0.1,0.2,0.3,0.4,0.4,0.6c0,0,0,0,0,0.1c0.1,0.3,0.3,0.5,0.4,0.8l0,0c0.1,0.3,0.2,0.5,0.4,0.8c0,0,0,0,0,0.1
			c0.1,0.3,0.2,0.5,0.3,0.8l0,0c0.1,0.3,0.2,0.5,0.2,0.8c0,0,0,0,0,0.1c0.1,0.3,0.1,0.5,0.2,0.8l0,0c0.1,0.3,0.1,0.5,0.1,0.8
			c0,0,0,0,0,0.1c0,0.3,0.1,0.5,0.1,0.8s0,0.5,0,0.7c0,0,0,0,0,0.1c0,0.2,0,0.4-0.1,0.6v0.1c0,0.2-0.1,0.4-0.1,0.6V64
			c0,0.2-0.1,0.3-0.2,0.5c0,0,0,0,0,0.1c-0.1,0.2-0.2,0.3-0.2,0.5c0,0,0,0,0,0.1c-0.1,0.1-0.2,0.2-0.2,0.4l-0.1,0.1
			c-0.1,0.1-0.2,0.2-0.2,0.3l-0.1,0.1c-0.1,0.1-0.2,0.2-0.4,0.3l0,0l0,0l0,0l5.7-3.7c0.1-0.1,0.3-0.2,0.4-0.3l0.1-0.1
			c0.1-0.1,0.2-0.2,0.2-0.3l0.1-0.1c0.1-0.1,0.2-0.2,0.2-0.4c0,0,0,0,0-0.1l0,0c0.1-0.1,0.2-0.3,0.2-0.5l0,0c0,0,0,0,0-0.1
			s0.1-0.2,0.1-0.3s0-0.1,0-0.2v-0.1v-0.1c0-0.1,0.1-0.2,0.1-0.4v-0.1v-0.1v-0.1c0-0.1,0-0.2,0-0.3s0-0.1,0-0.2c0,0,0,0,0-0.1v-0.1
			c0-0.1,0-0.2,0-0.3s0-0.2,0-0.3l0,0C47.4,57.8,47.4,57.7,47.4,57.6z"/>
		<g style="enable-background:new    ;">
			
				<linearGradient id="SVGID_5_" gradientUnits="userSpaceOnUse" x1="-56.6171" y1="20.6601" x2="-35.154" y2="20.6601" gradientTransform="matrix(0.9998 -2.118405e-02 -2.118405e-02 -0.9998 88.8381 73.8252)">
				<stop  offset="5.376340e-03" style="stop-color:#225C69"/>
				<stop  offset="0.4452" style="stop-color:#368397"/>
				<stop  offset="0.8006" style="stop-color:#439DB6"/>
				<stop  offset="1" style="stop-color:#48A7C1"/>
			</linearGradient>
			<path style="fill:url(#SVGID_5_);" d="M53.3,56.3c0-0.1,0-0.3,0-0.4c0-0.1,0-0.1,0-0.2v-0.1v-0.1c0-0.1,0-0.3-0.1-0.4
				c0-0.1,0-0.3-0.1-0.4l0,0l0,0c0-0.1,0-0.3-0.1-0.4c0-0.1-0.1-0.3-0.1-0.4c0-0.1,0-0.1,0-0.2v-0.1c0-0.1,0-0.1,0-0.2
				c0-0.1-0.1-0.3-0.1-0.4c0-0.1-0.1-0.2-0.1-0.3c0,0,0,0,0-0.1c0,0,0,0,0-0.1s-0.1-0.3-0.1-0.4c-0.1-0.1-0.1-0.3-0.2-0.4v-0.1
				c0,0,0,0,0-0.1s-0.1-0.2-0.1-0.3C52,51.1,52,51,51.9,50.9c0-0.1-0.1-0.2-0.1-0.3c0,0,0,0,0-0.1c0,0,0,0,0-0.1
				c-0.1-0.1-0.1-0.3-0.2-0.4c-0.1-0.1-0.1-0.3-0.2-0.4c0,0,0,0,0-0.1v-0.1c-0.1-0.1-0.1-0.2-0.2-0.3C51.1,49,51,48.8,51,48.7
				c0-0.1-0.1-0.1-0.1-0.2c0,0,0-0.1-0.1-0.1c-0.1-0.1-0.2-0.2-0.2-0.4c-0.1-0.2-0.2-0.4-0.3-0.5c0,0,0-0.1-0.1-0.1
				c-0.2-0.3-0.4-0.5-0.5-0.7s-0.3-0.3-0.4-0.5c-0.1-0.1-0.2-0.3-0.3-0.4l0,0l0,0c-0.1-0.1-0.2-0.2-0.3-0.4
				c-0.1-0.1-0.2-0.2-0.3-0.4c0,0,0,0-0.1-0.1c0,0,0,0-0.1-0.1S48,44.6,48,44.6c-0.1-0.1-0.2-0.2-0.4-0.3l-0.1-0.1l-0.1-0.1
				c-0.1-0.1-0.1-0.1-0.2-0.2c-0.1-0.1-0.3-0.2-0.4-0.3c-0.1,0-0.1-0.1-0.2-0.1c0,0-0.1,0-0.1-0.1l-0.1-0.1
				c-0.1-0.1-0.2-0.2-0.4-0.3c-0.1-0.1-0.2-0.1-0.3-0.2c0,0,0,0-0.1,0l0,0c-0.1-0.1-0.2-0.2-0.4-0.2c-0.1-0.1-0.2-0.1-0.4-0.2h-0.1
				c-0.1,0-0.2-0.1-0.3-0.1c-0.1-0.1-0.2-0.1-0.3-0.2C44,42.1,44,42,43.9,42c0,0,0,0-0.1,0c0,0,0,0-0.1,0s-0.2-0.1-0.3-0.1
				s-0.2-0.1-0.3-0.1c0,0,0,0-0.1,0c0,0,0,0-0.1,0s-0.2,0-0.2-0.1c-0.1,0-0.2-0.1-0.3-0.1s-0.1,0-0.2,0c0,0,0,0-0.1,0H42
				c-0.1,0-0.2,0-0.4-0.1c-0.1,0-0.1,0-0.2,0h-0.1h-0.1c-0.1,0-0.3,0-0.4,0c-0.1,0-0.1,0-0.2,0h-0.1h-0.1c-0.2,0-0.3,0-0.5,0.1l0,0
				h-0.1c-0.2,0-0.3,0.1-0.5,0.1l0,0c-0.2,0.1-0.4,0.2-0.6,0.3l0,0l-7.1,4.4c0.2-0.1,0.4-0.2,0.6-0.3s0.3-0.1,0.5-0.2h0.1
				c0.2,0,0.4-0.1,0.6-0.1h0.1c0.2,0,0.4,0,0.6,0h0.1c0.2,0,0.5,0,0.7,0.1c0,0,0,0,0.1,0c0.2,0,0.5,0.1,0.7,0.2c0,0,0,0,0.1,0
				c0.3,0.1,0.5,0.2,0.8,0.3c0,0,0,0,0.1,0c0.3,0.1,0.6,0.3,0.8,0.4c0.3,0.2,0.6,0.3,0.8,0.5c0,0,0,0,0.1,0c0.3,0.2,0.5,0.4,0.8,0.6
				c0,0,0.1,0,0.1,0.1c0.2,0.2,0.5,0.4,0.7,0.6l0.1,0.1c0.2,0.2,0.5,0.4,0.7,0.7c0,0,0,0,0.1,0.1c0.2,0.3,0.5,0.5,0.7,0.8l0,0
				c0.2,0.3,0.5,0.6,0.7,0.9l0,0c0.2,0.3,0.4,0.5,0.6,0.8c0.1,0.2,0.2,0.3,0.3,0.5c0.1,0.1,0.2,0.3,0.3,0.4c0,0.1,0.1,0.1,0.1,0.2
				c0.2,0.3,0.3,0.5,0.4,0.8V54c0.2,0.3,0.3,0.6,0.5,1c0,0,0,0,0,0.1c0.1,0.3,0.3,0.6,0.4,1c0,0,0,0,0,0.1c0.1,0.3,0.2,0.7,0.4,1
				c0,0,0,0,0,0.1c0.1,0.3,0.2,0.6,0.3,1v0.1c0.1,0.3,0.2,0.7,0.2,1l0,0c0.1,0.3,0.1,0.7,0.1,1v0.1c0,0.3,0.1,0.6,0.1,1
				c0,0.3,0,0.6,0,0.9v0.1c0,0.3-0.1,0.5-0.1,0.8v0.1c0,0.2-0.1,0.5-0.2,0.7v0.1c-0.1,0.2-0.1,0.4-0.2,0.6c0,0,0,0,0,0.1
				c-0.1,0.2-0.2,0.4-0.3,0.6c0,0,0,0,0,0.1c-0.1,0.2-0.2,0.3-0.3,0.4l-0.1,0.1c-0.1,0.1-0.2,0.2-0.3,0.3l-0.1,0.1
				c-0.2,0.1-0.3,0.2-0.5,0.3l7.1-4.4c0.2-0.1,0.3-0.2,0.5-0.3l0.1-0.1c0.1-0.1,0.2-0.2,0.3-0.3l0.1-0.1c0.1-0.1,0.2-0.3,0.3-0.4
				c0,0,0,0,0-0.1l0,0c0.1-0.2,0.2-0.4,0.3-0.6l0,0c0,0,0,0,0-0.1c0.1-0.1,0.1-0.3,0.2-0.4c0-0.1,0-0.1,0.1-0.2v-0.1v-0.1
				c0-0.1,0.1-0.3,0.1-0.4c0-0.1,0-0.1,0-0.2v-0.1c0-0.1,0-0.1,0-0.2c0-0.1,0-0.3,0.1-0.4c0-0.1,0-0.2,0-0.2V58v-0.1
				c0-0.1,0-0.3,0-0.4c0-0.1,0-0.3,0-0.4l0,0C53.3,56.6,53.3,56.4,53.3,56.3z"/>
		</g>
	</g>
</g>
</svg>
