<?xml version="1.0" encoding="utf-8"?>
<!-- Generator: Adobe Illustrator 23.0.1, SVG Export Plug-In . SVG Version: 6.00 Build 0)  -->
<svg version="1.1" id="Layer_1" xmlns="http://www.w3.org/2000/svg" xmlns:xlink="http://www.w3.org/1999/xlink" x="0px" y="0px"
	 viewBox="0 0 100 100" style="enable-background:new 0 0 100 100;" xml:space="preserve">
<g>
	<g style="enable-background:new    ;">
		<g style="enable-background:new    ;">
			<defs>
				<path id="SVGID_1_" style="enable-background:new    ;" d="M45.4,45.1l-0.8-0.2c1.6,0.4,3.4,0.4,5.3-0.1l0.8,0.2
					C48.8,45.5,47,45.5,45.4,45.1z"/>
			</defs>
			<clipPath id="SVGID_2_">
				<use xlink:href="#SVGID_1_"  style="overflow:visible;"/>
			</clipPath>
			<g style="clip-path:url(#SVGID_2_);enable-background:new    ;">
				<path style="fill:#46798B;" d="M45.4,45.1l-0.8-0.2C44.9,44.9,45.1,45,45.4,45.1l0.7,0.2C45.9,45.2,45.7,45.1,45.4,45.1"/>
				<path style="fill:#497D8F;" d="M46.1,45.2L45.4,45c0.5,0.1,1,0.1,1.5,0.1l0.8,0.2C47.1,45.4,46.6,45.3,46.1,45.2"/>
				<path style="fill:#4B8194;" d="M47.7,45.4l-0.8-0.2c0.6,0,1.1,0,1.7-0.1l0.8,0.2C48.8,45.3,48.2,45.4,47.7,45.4"/>
				<path style="fill:#4D8598;" d="M49.4,45.2L48.6,45c0.4-0.1,0.8-0.2,1.3-0.3l0.8,0.2C50.2,45.1,49.8,45.2,49.4,45.2"/>
			</g>
		</g>
		<g style="enable-background:new    ;">
			<defs>
				<path id="SVGID_3_" style="enable-background:new    ;" d="M54.6,7.8l0.8,0.2c5,1.4,8.6,6.9,8.7,14.6
					c0.2,10.2-5.8,20.2-13.4,22.3l-0.8-0.2c7.6-2.2,13.6-12.2,13.4-22.3C63.2,14.8,59.6,9.2,54.6,7.8z"/>
			</defs>
			<clipPath id="SVGID_4_">
				<use xlink:href="#SVGID_3_"  style="overflow:visible;"/>
			</clipPath>
			<g style="clip-path:url(#SVGID_4_);enable-background:new    ;">
				<path style="fill:#4D8598;" d="M50.7,45l-0.8-0.2c0.3-0.1,0.6-0.2,0.9-0.3l0.8,0.2C51.3,44.8,51,44.9,50.7,45"/>
				<path style="fill:#50899D;" d="M51.6,44.7l-0.8-0.2c3-1.1,5.8-3.5,7.9-6.7l0.8,0.2C57.3,41.1,54.6,43.5,51.6,44.7"/>
				<path style="fill:#4D8598;" d="M59.5,38l-0.8-0.2c0.5-0.8,1-1.6,1.5-2.5l0.8,0.2C60.5,36.4,60,37.2,59.5,38"/>
				<path style="fill:#4B8194;" d="M61,35.5l-0.8-0.2c0.4-0.7,0.7-1.4,1-2.2l0.8,0.2C61.7,34.1,61.4,34.8,61,35.5"/>
				<path style="fill:#497D8F;" d="M62,33.3l-0.8-0.2c0.3-0.7,0.5-1.4,0.8-2.1l0.8,0.2C62.5,31.9,62.3,32.6,62,33.3"/>
				<path style="fill:#46798B;" d="M62.8,31.2L62,31c0.2-0.7,0.4-1.4,0.6-2.1l0.8,0.2C63.2,29.9,63,30.6,62.8,31.2"/>
				<path style="fill:#447586;" d="M63.3,29.2L62.6,29c0.2-0.7,0.3-1.4,0.4-2.1l0.8,0.2C63.7,27.7,63.5,28.5,63.3,29.2"/>
				<path style="fill:#427181;" d="M63.8,27L63,26.8c0.1-0.8,0.2-1.6,0.3-2.4l0.8,0.2C64,25.4,63.9,26.2,63.8,27"/>
				<path style="fill:#3F6D7D;" d="M64,24.7l-0.8-0.2c0-0.7,0.1-1.3,0-2c0-0.3,0-0.6,0-0.8l0.8,0.2c0,0.3,0,0.6,0,0.8
					C64.1,23.3,64.1,24,64,24.7"/>
				<path style="fill:#3D6978;" d="M64,21.8l-0.8-0.2c-0.4-7.2-3.9-12.4-8.7-13.7l0.8,0.2C60.2,9.4,63.7,14.6,64,21.8"/>
			</g>
		</g>
		<g style="enable-background:new    ;">
			<defs>
				<path id="SVGID_5_" style="enable-background:new    ;" d="M44.6,44.8c-1.7-0.5-3.2-1.4-4.5-2.7c0.3,0.1,0.5,0.1,0.8,0.2
					c1.3,1.3,2.8,2.3,4.5,2.7C45.2,45,44.9,44.9,44.6,44.8z"/>
			</defs>
			<clipPath id="SVGID_6_">
				<use xlink:href="#SVGID_5_"  style="overflow:visible;"/>
			</clipPath>
			<g style="clip-path:url(#SVGID_6_);enable-background:new    ;">
				<path style="fill:#203B41;" d="M45.4,45.1l-0.8-0.2c-4.8-1.3-8.3-6.5-8.7-13.7l0.8,0.2C37.1,38.5,40.6,43.8,45.4,45.1"/>
			</g>
		</g>
		<g style="enable-background:new    ;">
			<defs>
				<path id="SVGID_7_" style="enable-background:new    ;" d="M55.7,3.9l0.8,0.2c-2-0.5-4.1-0.5-6.4,0.1L49.3,4
					C51.5,3.4,53.7,3.4,55.7,3.9z"/>
			</defs>
			<clipPath id="SVGID_8_">
				<use xlink:href="#SVGID_7_"  style="overflow:visible;"/>
			</clipPath>
			<g style="clip-path:url(#SVGID_8_);enable-background:new    ;">
				<path style="fill:#4D8598;" d="M50,4.2L49.3,4c0.5-0.2,1-0.3,1.6-0.3l0.8,0.2C51.1,4,50.6,4.1,50,4.2"/>
				<path style="fill:#4B8194;" d="M51.6,3.9l-0.8-0.2c0.7-0.1,1.4-0.2,2.1-0.2l0.8,0.2C53,3.7,52.3,3.8,51.6,3.9"/>
				<path style="fill:#497D8F;" d="M53.7,3.7l-0.8-0.2c0.6,0,1.3,0.1,1.9,0.2l0.8,0.2C55,3.8,54.3,3.7,53.7,3.7"/>
				<path style="fill:#46798B;" d="M55.6,3.9l-0.8-0.2c0.3,0.1,0.6,0.1,0.9,0.2l0.8,0.2C56.2,4,55.9,4,55.6,3.9"/>
			</g>
		</g>
		<g style="enable-background:new    ;">
			<defs>
				<path id="SVGID_9_" style="enable-background:new    ;" d="M36.7,30.5c-0.2-10.1,5.8-20.2,13.4-22.3l0.2,3.2
					c-6.2,1.8-11.2,10.1-11.1,18.5c0.1,8.4,5.3,13.8,11.6,12c6.3-1.8,11.2-10.1,11.1-18.5c-0.1-8.4-5.3-13.8-11.6-12l-0.2-3.2
					c7.6-2.2,13.8,4.3,14,14.5c0,1.2,0,2.4-0.2,3.5c-0.3,2-0.9,6.1-3.6,10.6c-2.7,4.5-5.6,6.3-7,7.1c-0.8,0.5-1.7,0.8-2.6,1.1
					c0,0,0,0,0,0C43.1,47.1,36.9,40.6,36.7,30.5z"/>
			</defs>
			<clipPath id="SVGID_10_">
				<use xlink:href="#SVGID_9_"  style="overflow:visible;"/>
			</clipPath>
			<g style="clip-path:url(#SVGID_10_);enable-background:new    ;">
				<path style="fill:#35616C;" d="M50.3,11.4l-0.2-3.2c3.1-0.9,6-0.3,8.3,1.4l-1.2,3C55.3,11.1,52.9,10.6,50.3,11.4"/>
				<path style="fill:#345F69;" d="M57.3,12.5l1.2-3c2,1.5,3.6,3.8,4.6,6.6L61,18C60.2,15.6,58.9,13.7,57.3,12.5"/>
				<path style="fill:#335D67;" d="M61,18l2-1.8c0.6,1.9,1,4.1,1,6.4c0,1.3-0.1,2.5-0.2,3.8l-2.1,0.1c0.1-1,0.2-2.1,0.2-3.1
					C61.9,21.4,61.6,19.6,61,18"/>
				<path style="fill:#325A64;" d="M61.7,26.5l2.1-0.1c-1.1,8.8-6.6,16.7-13.2,18.6c-2.8,0.8-5.4,0.4-7.6-0.9l1.4-2.9
					c1.8,1.1,4,1.4,6.3,0.8C56.3,40.3,60.8,33.7,61.7,26.5"/>
				<path style="fill:#335D67;" d="M44.5,41.1L43,44c-2.2-1.3-3.9-3.6-5-6.5l2.3-1.8C41.2,38.1,42.7,40,44.5,41.1"/>
				<path style="fill:#345F69;" d="M40.3,35.7L38,37.5c-0.8-2.1-1.2-4.4-1.3-7.1c0-0.7,0-1.4,0.1-2.1l2.5-0.3c0,0.6-0.1,1.2,0,1.7
					C39.3,32,39.6,34,40.3,35.7"/>
				<path style="fill:#35616C;" d="M39.3,28.1l-2.5,0.3c0.4-5.6,2.5-10.9,5.7-14.8l1.5,2.3C41.4,19.1,39.6,23.5,39.3,28.1"/>
				<path style="fill:#37636E;" d="M44,15.9l-1.5-2.3c1.4-1.7,2.9-3,4.5-4.1l0.8,3C46.4,13.3,45.1,14.5,44,15.9"/>
				<path style="fill:#35616C;" d="M47.7,12.5l-0.8-3c1-0.6,2.1-1.1,3.1-1.4l0.2,3.2C49.4,11.6,48.6,12,47.7,12.5"/>
			</g>
		</g>
		<g>
			<path style="fill:#67B0CA;" d="M50.3,7.4c7.9-2.3,14.4,4.5,14.6,15.1c0.2,10.6-6.1,21-14,23.3c-7.9,2.3-14.4-4.5-14.6-15.1
				C36.1,20.1,42.4,9.7,50.3,7.4z M50.9,48.1c8.8-2.5,15.9-14.2,15.7-26.1C66.4,10.1,59.1,2.5,50.2,5.1
				c-8.8,2.5-15.9,14.3-15.7,26.1C34.7,43.1,42.1,50.7,50.9,48.1"/>
		</g>
		<g>
			<path style="fill:#36636E;" d="M50.3,11.4c6.3-1.8,11.5,3.6,11.6,12c0.1,8.4-4.9,16.7-11.1,18.5c-6.2,1.8-11.4-3.6-11.6-12
				C39.1,21.5,44.1,13.1,50.3,11.4z"/>
		</g>
		<g style="enable-background:new    ;">
			<defs>
				<path id="SVGID_11_" style="enable-background:new    ;" d="M50.9,48.1L50.7,45c7.6-2.2,13.6-12.2,13.4-22.3
					C63.9,12.5,57.7,6,50.1,8.2c-7.5,2.2-13.5,12.2-13.4,22.3c0.2,10.2,6.4,16.6,13.9,14.5L50.9,48.1c-8.8,2.5-16.1-5.1-16.3-16.9
					C34.4,19.3,41.4,7.6,50.2,5.1c8.8-2.5,16.2,5.1,16.3,16.9C66.8,33.9,59.7,45.6,50.9,48.1z"/>
			</defs>
			<clipPath id="SVGID_12_">
				<use xlink:href="#SVGID_11_"  style="overflow:visible;"/>
			</clipPath>
			<g style="clip-path:url(#SVGID_12_);enable-background:new    ;">
				<path style="fill:#65ADC7;" d="M50.9,48.1L50.7,45c1.1-0.3,2.1-0.8,3.2-1.4l0.8,3C53.4,47.2,52.2,47.8,50.9,48.1"/>
				<path style="fill:#67B1CB;" d="M54.6,46.5l-0.8-3c1.7-1,3.2-2.4,4.5-4l1.5,2.3C58.3,43.7,56.5,45.3,54.6,46.5"/>
				<path style="fill:#65ADC7;" d="M59.9,41.8l-1.5-2.3c3.1-3.9,5.3-9.2,5.7-14.8l2.5-0.3C66.1,31,63.6,37.2,59.9,41.8"/>
				<path style="fill:#62A9C2;" d="M66.5,24.5L64,24.7c0-0.7,0.1-1.4,0.1-2.1c0-2.6-0.5-5-1.3-7.1l2.3-1.8c0.9,2.4,1.4,5.2,1.5,8.3
					C66.6,22.8,66.6,23.7,66.5,24.5"/>
				<path style="fill:#60A5BD;" d="M65.1,13.7l-2.3,1.8c-1.1-2.9-2.9-5.2-5-6.5l1.4-2.9C61.8,7.7,63.8,10.3,65.1,13.7"/>
				<path style="fill:#5EA1B9;" d="M59.2,6.2l-1.4,2.9c-2.2-1.3-4.8-1.7-7.7-0.9c-6.6,1.9-12,9.8-13.2,18.6l-2.1,0.1
					c1.3-10.2,7.7-19.5,15.4-21.7C53.5,4.1,56.6,4.6,59.2,6.2"/>
				<path style="fill:#60A5BD;" d="M34.8,26.8l2.1-0.1c-0.2,1.2-0.2,2.5-0.2,3.7c0,2.4,0.4,4.5,1,6.5l-2,1.8
					c-0.7-2.2-1.2-4.8-1.2-7.6C34.5,29.7,34.6,28.3,34.8,26.8"/>
				<path style="fill:#62A9C2;" d="M35.8,38.7l2-1.8c1,2.9,2.6,5.2,4.6,6.6l-1.2,3C38.8,44.8,36.9,42.1,35.8,38.7"/>
				<path style="fill:#65ADC7;" d="M41.1,46.5l1.2-3c2.3,1.7,5.2,2.3,8.3,1.4l0.2,3.2C47.2,49.2,43.9,48.5,41.1,46.5"/>
			</g>
		</g>
		<g style="enable-background:new    ;">
			<defs>
				<path id="SVGID_13_" style="enable-background:new    ;" d="M50.3,7.4L50,4.2c9.2-2.6,16.8,5.2,17,17.5s-7.1,24.5-16.3,27.1
					c-9.2,2.6-16.7-5.2-16.9-17.6S40.9,6.9,50,4.2L50.3,7.4c-7.9,2.3-14.1,12.7-14,23.3c0.2,10.6,6.7,17.4,14.6,15.1
					c7.9-2.3,14.1-12.7,14-23.3C64.7,11.9,58.2,5.2,50.3,7.4z"/>
			</defs>
			<clipPath id="SVGID_14_">
				<use xlink:href="#SVGID_13_"  style="overflow:visible;"/>
			</clipPath>
			<g style="clip-path:url(#SVGID_14_);enable-background:new    ;">
				<path style="fill:#65ADC7;" d="M50.3,7.4L50,4.2c3.8-1.1,7.3-0.4,10.1,1.7l-1.2,3C56.6,7.1,53.5,6.5,50.3,7.4"/>
				<path style="fill:#62A9C2;" d="M59,8.9l1.2-3c2.4,1.8,4.4,4.5,5.5,8l-2,1.8C62.7,12.8,61.1,10.4,59,8.9"/>
				<path style="fill:#60A5BD;" d="M63.8,15.8l2-1.8c0.8,2.3,1.2,4.9,1.3,7.8c0,1.5-0.1,3.1-0.3,4.6l-2.1,0.1
					c0.2-1.3,0.2-2.6,0.2-3.9C64.8,20,64.4,17.8,63.8,15.8"/>
				<path style="fill:#5EA1B9;" d="M64.6,26.4l2.1-0.1c-1.4,10.6-8,20.2-16,22.5c-3.4,1-6.6,0.5-9.3-1.1l1.4-2.9c2.3,1.4,5,1.8,8,1
					C57.8,43.8,63.4,35.6,64.6,26.4"/>
				<path style="fill:#60A5BD;" d="M42.9,44.8l-1.4,2.9c-2.6-1.6-4.8-4.3-6.1-7.9l2.3-1.8C38.8,41.1,40.6,43.5,42.9,44.8"/>
				<path style="fill:#62A9C2;" d="M37.6,38.1l-2.3,1.8c-0.9-2.5-1.5-5.4-1.5-8.6c0-0.9,0-1.7,0.1-2.6l2.5-0.3
					c0,0.7-0.1,1.5-0.1,2.2C36.3,33.4,36.8,35.9,37.6,38.1"/>
				<path style="fill:#65ADC7;" d="M36.4,28.5l-2.5,0.3c0.5-6.7,3-13.2,6.9-17.9l1.5,2.3C39,17.1,36.7,22.7,36.4,28.5"/>
				<path style="fill:#67B1CB;" d="M42.3,13.1l-1.5-2.3c1.6-2,3.5-3.7,5.5-4.9L47,8.9C45.3,9.9,43.7,11.4,42.3,13.1"/>
				<path style="fill:#65ADC7;" d="M47,8.9l-0.8-2.9c1.2-0.7,2.5-1.3,3.8-1.7l0.2,3.2C49.1,7.8,48,8.3,47,8.9"/>
			</g>
		</g>
		<g style="enable-background:new    ;">
			<defs>
				<path id="SVGID_15_" style="enable-background:new    ;" d="M44.3,49l-0.8-0.2c-6.1-1.6-10.4-8.4-10.5-17.7
					C32.8,18.8,40.1,6.7,49.3,4L50,4.2C40.9,6.9,33.6,19,33.8,31.3C33.9,40.6,38.3,47.4,44.3,49z"/>
			</defs>
			<clipPath id="SVGID_16_">
				<use xlink:href="#SVGID_15_"  style="overflow:visible;"/>
			</clipPath>
			<g style="clip-path:url(#SVGID_16_);enable-background:new    ;">
				<path style="fill:#3D6978;" d="M44.3,49l-0.8-0.2c-5.8-1.6-10.1-7.9-10.5-16.7l0.8,0.2C34.3,41.1,38.5,47.4,44.3,49"/>
				<path style="fill:#3F6D7D;" d="M33.8,32.4L33,32.1c0-0.3,0-0.7,0-1c0-0.8,0-1.6,0.1-2.5l0.8,0.2c-0.1,0.8-0.1,1.6-0.1,2.5
					C33.8,31.7,33.8,32,33.8,32.4"/>
				<path style="fill:#427181;" d="M33.8,28.9l-0.8-0.2c0.1-1,0.2-1.9,0.3-2.9l0.8,0.2C34,26.9,33.9,27.9,33.8,28.9"/>
				<path style="fill:#447586;" d="M34.2,26l-0.8-0.2c0.1-0.9,0.3-1.7,0.5-2.6l0.8,0.2C34.5,24.2,34.3,25.1,34.2,26"/>
				<path style="fill:#46798B;" d="M34.7,23.4l-0.8-0.2c0.2-0.8,0.4-1.7,0.7-2.5l0.8,0.2C35.1,21.7,34.9,22.5,34.7,23.4"/>
				<path style="fill:#497D8F;" d="M35.4,20.9l-0.8-0.2c0.3-0.9,0.6-1.7,0.9-2.5l0.8,0.2C36,19.2,35.6,20,35.4,20.9"/>
				<path style="fill:#4B8194;" d="M36.3,18.3l-0.8-0.2c0.4-0.9,0.8-1.8,1.2-2.6l0.8,0.2C37.1,16.6,36.7,17.4,36.3,18.3"/>
				<path style="fill:#4D8598;" d="M37.5,15.7l-0.8-0.2c0.6-1.1,1.2-2.1,1.8-3l0.8,0.2C38.7,13.6,38.1,14.7,37.5,15.7"/>
				<path style="fill:#50899D;" d="M39.3,12.7l-0.8-0.2c2.6-3.8,5.9-6.7,9.6-8.1l0.8,0.2C45.3,6,41.9,8.9,39.3,12.7"/>
				<path style="fill:#4D8598;" d="M48.9,4.6l-0.8-0.2c0.4-0.1,0.7-0.3,1.1-0.4L50,4.2C49.7,4.4,49.3,4.5,48.9,4.6"/>
			</g>
		</g>
	</g>
</g>
</svg>
