<?xml version="1.0" encoding="utf-8"?>
<!-- Generator: Adobe Illustrator 23.0.1, SVG Export Plug-In . SVG Version: 6.00 Build 0)  -->
<svg version="1.1" id="Layer_1" xmlns="http://www.w3.org/2000/svg" xmlns:xlink="http://www.w3.org/1999/xlink" x="0px" y="0px"
	 viewBox="0 0 100 100" style="enable-background:new 0 0 100 100;" xml:space="preserve">
<g>
	<g style="enable-background:new    ;">
		<g>
			<polygon style="fill:#3B6675;" points="60.1,21.7 59.5,21.4 60.5,21.1 61.1,21.4 			"/>
		</g>
		<g>
			<polygon style="fill:#3B6675;" points="60.3,20 59.7,19.7 60.6,19.4 61.1,19.7 			"/>
		</g>
		<g>
			<polygon style="fill:#74C8E6;" points="61.4,17.9 61.3,19.3 60.3,19.5 60.3,20 61.1,19.7 61,21 60.2,21.2 60.1,21.7 61.1,21.4 
				61,22.8 58.6,23.4 59,18.6 			"/>
		</g>
		<g>
			<polygon style="fill:#427283;" points="58.6,23.4 58.1,23.2 58.5,18.3 59,18.6 			"/>
		</g>
		<g>
			<polygon style="fill:#3B6675;" points="59,18.6 58.5,18.3 60.8,17.6 61.4,17.9 			"/>
		</g>
	</g>
	<g style="enable-background:new    ;">
		<g>
			<polygon style="fill:#406F7F;" points="56.9,23.9 56.4,23.7 55.8,21.6 56.3,21.9 			"/>
		</g>
		<g>
			<polygon style="fill:#427283;" points="57.2,21.3 56.6,21.1 56.8,18.8 57.4,19 			"/>
		</g>
		<g>
			<polygon style="fill:#3B6675;" points="57.4,19 56.8,18.8 58.2,18.4 58.8,18.6 			"/>
		</g>
		<g>
			<polygon style="fill:#74C8E6;" points="58.8,18.6 58.3,23.5 56.9,23.9 56.3,21.9 56.1,24.2 54.8,24.5 55.2,19.7 56.6,19.3 
				57.2,21.3 57.4,19 			"/>
		</g>
		<g>
			<polygon style="fill:#427283;" points="54.8,24.5 54.2,24.3 54.6,19.4 55.2,19.7 			"/>
		</g>
		<g>
			<polygon style="fill:#3B6675;" points="55.2,19.7 54.6,19.4 56,19 56.6,19.3 			"/>
		</g>
	</g>
	<g style="enable-background:new    ;">
		<g>
			<polygon style="fill:#417081;" points="53.2,25 52.6,24.7 52.5,24 53.1,24.3 			"/>
		</g>
		<g>
			<polygon style="fill:#3B6675;" points="52.5,23.3 51.9,23 52.4,22.9 52.9,23.1 			"/>
		</g>
		<g>
			<polygon style="fill:#417081;" points="52.9,23.1 52.4,22.9 52.3,21.9 52.8,22.2 			"/>
		</g>
		<g>
			<path style="fill:#74C8E6;" d="M53.7,20.1l0.9,4.5L53.2,25l-0.1-0.7l-0.9,0.3l-0.2,0.8l-1.3,0.4l1.7-5.3L53.7,20.1z M52.5,23.3
				l0.4-0.1l-0.1-0.9L52.5,23.3"/>
		</g>
		<g>
			<polygon style="fill:#3B6675;" points="52.3,20.5 51.8,20.2 53.1,19.8 53.7,20.1 			"/>
		</g>
		<g>
			<polygon style="fill:#427182;" points="50.6,25.7 50,25.5 51.8,20.2 52.3,20.5 			"/>
		</g>
		<g style="enable-background:new    ;">
			<defs>
				<path id="SVGID_1_" style="enable-background:new    ;" d="M48.9,24.8l-0.6-0.3c0.1,0,0.1,0,0.2,0c0.1,0,0.2-0.1,0.3-0.2
					c0.1-0.1,0.1-0.2,0.1-0.4l0.6,0.3c0,0.2-0.1,0.3-0.1,0.4c-0.1,0.1-0.2,0.2-0.3,0.2C49,24.9,48.9,24.9,48.9,24.8z"/>
			</defs>
			<clipPath id="SVGID_2_">
				<use xlink:href="#SVGID_1_"  style="overflow:visible;"/>
			</clipPath>
			<g style="clip-path:url(#SVGID_2_);enable-background:new    ;">
				<path style="fill:#3D6978;" d="M48.9,24.8l-0.6-0.3c0.1,0,0.1,0,0.2,0c0.1,0,0.2-0.1,0.3-0.2c0.1-0.1,0.1-0.2,0.1-0.3l0.6,0.3
					c0,0.1-0.1,0.2-0.1,0.3c-0.1,0.1-0.2,0.2-0.3,0.2C49,24.9,48.9,24.9,48.9,24.8"/>
				<path style="fill:#3F6D7D;" d="M49.5,24.3l-0.6-0.3c0,0,0-0.1,0-0.1l0.6,0.3C49.5,24.3,49.5,24.3,49.5,24.3"/>
			</g>
		</g>
		<g>
			<polygon style="fill:#3B6675;" points="49.8,21.2 49.2,21 50.6,20.6 51.1,20.8 			"/>
		</g>
		<g>
			<polygon style="fill:#427283;" points="49.5,24.2 48.9,24 49.2,21 49.8,21.2 			"/>
		</g>
		<g style="enable-background:new    ;">
			<defs>
				<path id="SVGID_3_" style="enable-background:new    ;" d="M48,26.3L47.4,26c-0.1,0-0.2-0.1-0.3-0.2c-0.3-0.3-0.4-0.7-0.3-1.3
					l0.6,0.3c-0.1,0.6,0.1,1,0.3,1.3C47.8,26.2,47.9,26.3,48,26.3z"/>
			</defs>
			<clipPath id="SVGID_4_">
				<use xlink:href="#SVGID_3_"  style="overflow:visible;"/>
			</clipPath>
			<g style="clip-path:url(#SVGID_4_);enable-background:new    ;">
				<path style="fill:#3D6978;" d="M48,26.3L47.4,26c-0.1,0-0.2-0.1-0.3-0.2c-0.2-0.2-0.3-0.4-0.3-0.7l0.6,0.3
					c0,0.3,0.1,0.5,0.3,0.7C47.8,26.2,47.9,26.3,48,26.3"/>
				<path style="fill:#3F6D7D;" d="M47.4,25.4l-0.6-0.3c0-0.2,0-0.4,0-0.6l0.6,0.3C47.4,25,47.4,25.2,47.4,25.4"/>
			</g>
		</g>
		<g>
			<path style="fill:#74C8E6;" d="M51.1,20.8l-0.3,3c-0.1,0.6-0.2,1.1-0.6,1.6c-0.3,0.5-0.8,0.8-1.3,0.9c-0.6,0.2-1,0.1-1.2-0.2
				c-0.3-0.3-0.4-0.7-0.3-1.3l0.3-3l1.4-0.4l-0.3,3c0,0.2,0,0.3,0.1,0.4c0.1,0.1,0.1,0.1,0.3,0s0.2-0.1,0.3-0.2
				c0.1-0.1,0.1-0.2,0.1-0.4l0.3-3L51.1,20.8z"/>
		</g>
		<g>
			<polygon style="fill:#3B6675;" points="47.6,21.8 47.1,21.6 48.4,21.2 49,21.4 			"/>
		</g>
		<g>
			<polygon style="fill:#427283;" points="47.4,24.8 46.8,24.5 47.1,21.6 47.6,21.8 			"/>
		</g>
	</g>
	<g style="enable-background:new    ;">
		<g style="enable-background:new    ;">
			<defs>
				<path id="SVGID_5_" style="enable-background:new    ;" d="M44.7,26l-0.6-0.3c0.1,0,0.2,0,0.3,0c0.2-0.1,0.4-0.2,0.5-0.4
					l0.6,0.3C45.4,25.8,45.2,26,45,26C44.9,26,44.8,26,44.7,26z"/>
			</defs>
			<clipPath id="SVGID_6_">
				<use xlink:href="#SVGID_5_"  style="overflow:visible;"/>
			</clipPath>
			<g style="clip-path:url(#SVGID_6_);enable-background:new    ;">
				<path style="fill:#3D6978;" d="M44.7,26l-0.6-0.3c0.1,0,0.2,0,0.3,0c0.2-0.1,0.4-0.2,0.5-0.4l0.6,0.3C45.4,25.8,45.2,26,45,26
					C44.9,26,44.8,26,44.7,26"/>
			</g>
		</g>
		<g style="enable-background:new    ;">
			<defs>
				<path id="SVGID_7_" style="enable-background:new    ;" d="M44.9,23.6l0.6,0.3c0.1,0,0.1,0.1,0.2,0.1c0.1,0.2,0.1,0.4,0.1,0.7
					c0,0.3-0.1,0.6-0.2,0.8l-0.6-0.3c0.1-0.2,0.2-0.5,0.2-0.8c0-0.3,0-0.5-0.1-0.7C45,23.7,45,23.6,44.9,23.6z"/>
			</defs>
			<clipPath id="SVGID_8_">
				<use xlink:href="#SVGID_7_"  style="overflow:visible;"/>
			</clipPath>
			<g style="clip-path:url(#SVGID_8_);enable-background:new    ;">
				<path style="fill:#3D6978;" d="M45.5,25.6l-0.6-0.3c0.1-0.2,0.2-0.4,0.2-0.6l0.6,0.3C45.7,25.2,45.6,25.4,45.5,25.6"/>
				<path style="fill:#3F6D7D;" d="M45.7,25l-0.6-0.3c0-0.1,0-0.2,0-0.3c0-0.2,0-0.3,0-0.4l0.6,0.3c0,0.1,0,0.3,0,0.4
					C45.7,24.8,45.7,24.9,45.7,25"/>
				<path style="fill:#3D6978;" d="M45.7,24.3l-0.6-0.3c0-0.1-0.1-0.2-0.1-0.3c0-0.1-0.1-0.1-0.2-0.1l0.6,0.3c0.1,0,0.1,0.1,0.2,0.1
					C45.7,24.1,45.7,24.2,45.7,24.3"/>
			</g>
		</g>
		<g style="enable-background:new    ;">
			<defs>
				<path id="SVGID_9_" style="enable-background:new    ;" d="M43.8,27.4l-0.6-0.3c-0.1-0.1-0.3-0.2-0.4-0.3l0.6,0.3
					C43.5,27.3,43.7,27.4,43.8,27.4z"/>
			</defs>
			<clipPath id="SVGID_10_">
				<use xlink:href="#SVGID_9_"  style="overflow:visible;"/>
			</clipPath>
			<g style="clip-path:url(#SVGID_10_);enable-background:new    ;">
				<path style="fill:#3D6978;" d="M43.8,27.4l-0.6-0.3c-0.1-0.1-0.3-0.2-0.4-0.3l0.6,0.3C43.5,27.3,43.7,27.4,43.8,27.4"/>
			</g>
		</g>
		<g style="enable-background:new    ;">
			<defs>
				<path id="SVGID_11_" style="enable-background:new    ;" d="M45.8,22.2l0.6,0.3c-0.1,0-0.1-0.1-0.2-0.1c-0.2-0.1-0.5,0-0.8,0
					c-0.3,0.1-0.6,0.2-0.9,0.4c-0.3,0.2-0.5,0.4-0.7,0.7l-0.6-0.3c0.2-0.3,0.4-0.5,0.7-0.7c0.3-0.2,0.6-0.4,0.9-0.4
					c0.3-0.1,0.6-0.1,0.8,0C45.7,22.1,45.7,22.1,45.8,22.2z"/>
			</defs>
			<clipPath id="SVGID_12_">
				<use xlink:href="#SVGID_11_"  style="overflow:visible;"/>
			</clipPath>
			<g style="clip-path:url(#SVGID_12_);enable-background:new    ;">
				<path style="fill:#3D6978;" d="M43.8,23.6l-0.6-0.3c0.2-0.3,0.4-0.5,0.7-0.7c0.3-0.2,0.6-0.4,0.9-0.4c0.3-0.1,0.6-0.1,0.8,0
					c0.1,0,0.2,0,0.2,0.1l0.6,0.3c-0.1,0-0.1-0.1-0.2-0.1c-0.2-0.1-0.5,0-0.8,0c-0.3,0.1-0.6,0.2-0.9,0.4
					C44.2,23.1,43.9,23.3,43.8,23.6"/>
			</g>
		</g>
		<g style="enable-background:new    ;">
			<defs>
				<path id="SVGID_13_" style="enable-background:new    ;" d="M43.4,27.2l-0.6-0.3c-0.1-0.2-0.3-0.4-0.3-0.7
					c-0.1-0.3-0.1-0.6-0.1-1c0-0.3,0.1-0.7,0.2-1l0.6,0.3c-0.1,0.3-0.2,0.7-0.2,1c0,0.4,0,0.7,0.1,1C43.2,26.8,43.3,27,43.4,27.2z"
					/>
			</defs>
			<clipPath id="SVGID_14_">
				<use xlink:href="#SVGID_13_"  style="overflow:visible;"/>
			</clipPath>
			<g style="clip-path:url(#SVGID_14_);enable-background:new    ;">
				<path style="fill:#3D6978;" d="M43.4,27.2l-0.6-0.3c-0.1-0.2-0.3-0.4-0.3-0.7c0-0.1,0-0.1,0-0.2l0.6,0.3c0,0.1,0,0.1,0,0.2
					C43.2,26.8,43.3,27,43.4,27.2"/>
				<path style="fill:#3F6D7D;" d="M43.1,26.3L42.5,26c0-0.2,0-0.5,0-0.8c0-0.1,0-0.3,0.1-0.4l0.6,0.3c0,0.1,0,0.3-0.1,0.4
					C43,25.8,43,26,43.1,26.3"/>
				<path style="fill:#3D6978;" d="M43.1,25.1l-0.6-0.3c0-0.2,0.1-0.4,0.2-0.6l0.6,0.3C43.2,24.7,43.2,24.9,43.1,25.1"/>
			</g>
		</g>
		<g>
			<path style="fill:#74C8E6;" d="M47.1,23.4c0.1,0.3,0.1,0.6,0.1,0.9c0,0.4-0.1,0.7-0.2,1c-0.1,0.3-0.3,0.6-0.5,0.9
				c-0.2,0.3-0.4,0.5-0.7,0.7c-0.3,0.2-0.6,0.3-0.9,0.4c-0.3,0.1-0.6,0.1-0.8,0.1c-0.2-0.1-0.4-0.2-0.6-0.4
				c-0.1-0.2-0.3-0.4-0.3-0.7c-0.1-0.3-0.1-0.6-0.1-1c0-0.3,0.1-0.7,0.2-1c0.1-0.3,0.3-0.6,0.5-0.9c0.2-0.3,0.4-0.5,0.7-0.7
				c0.3-0.2,0.6-0.4,0.9-0.4c0.3-0.1,0.6-0.1,0.8,0c0.2,0.1,0.4,0.2,0.6,0.4C46.9,22.9,47,23.1,47.1,23.4z M45.5,25.6
				c0.1-0.2,0.2-0.5,0.2-0.8c0-0.3,0-0.5-0.1-0.7c-0.1-0.2-0.3-0.2-0.5-0.2c-0.2,0.1-0.4,0.2-0.5,0.4c-0.1,0.2-0.2,0.5-0.2,0.8
				c0,0.3,0,0.6,0.1,0.7c0.1,0.2,0.3,0.2,0.5,0.2C45.2,26,45.4,25.8,45.5,25.6"/>
		</g>
		<g style="enable-background:new    ;">
			<defs>
				<path id="SVGID_15_" style="enable-background:new    ;" d="M43.3,24.5l-0.6-0.3c0.1-0.3,0.3-0.6,0.5-0.9l0.6,0.3
					C43.6,23.8,43.4,24.2,43.3,24.5z"/>
			</defs>
			<clipPath id="SVGID_16_">
				<use xlink:href="#SVGID_15_"  style="overflow:visible;"/>
			</clipPath>
			<g style="clip-path:url(#SVGID_16_);enable-background:new    ;">
				<path style="fill:#3D6978;" d="M43.3,24.5l-0.6-0.3c0.1-0.3,0.3-0.6,0.5-0.9l0.6,0.3C43.6,23.8,43.4,24.2,43.3,24.5"/>
			</g>
		</g>
	</g>
	<g style="enable-background:new    ;">
		<g style="enable-background:new    ;">
			<defs>
				<path id="SVGID_17_" style="enable-background:new    ;" d="M40.8,27.2l-0.6-0.3c0.2-0.1,0.4-0.2,0.5-0.4l0.6,0.3
					C41.2,27,41,27.1,40.8,27.2z"/>
			</defs>
			<clipPath id="SVGID_18_">
				<use xlink:href="#SVGID_17_"  style="overflow:visible;"/>
			</clipPath>
			<g style="clip-path:url(#SVGID_18_);enable-background:new    ;">
				<path style="fill:#3D6978;" d="M40.8,27.2l-0.6-0.3c0.2-0.1,0.4-0.2,0.5-0.4l0.6,0.3C41.2,27,41,27.1,40.8,27.2"/>
			</g>
		</g>
		<g>
			<polygon style="fill:#3B6675;" points="40.8,27.2 40.2,26.9 40.3,26.9 40.8,27.2 			"/>
		</g>
		<g style="enable-background:new    ;">
			<defs>
				<path id="SVGID_19_" style="enable-background:new    ;" d="M41.1,23.7l-0.6-0.3c0.4-0.1,0.8-0.1,1.1,0l0.6,0.3
					C41.8,23.6,41.5,23.6,41.1,23.7z"/>
			</defs>
			<clipPath id="SVGID_20_">
				<use xlink:href="#SVGID_19_"  style="overflow:visible;"/>
			</clipPath>
			<g style="clip-path:url(#SVGID_20_);enable-background:new    ;">
				<path style="fill:#3D6978;" d="M41.1,23.7l-0.6-0.3c0.4-0.1,0.8-0.1,1.1,0l0.6,0.3C41.8,23.6,41.5,23.6,41.1,23.7"/>
			</g>
		</g>
		<g style="enable-background:new    ;">
			<defs>
				<path id="SVGID_21_" style="enable-background:new    ;" d="M41.7,23.5l0.6,0.3c0,0-0.1,0-0.1,0l-0.6-0.3
					C41.6,23.4,41.6,23.5,41.7,23.5z"/>
			</defs>
			<clipPath id="SVGID_22_">
				<use xlink:href="#SVGID_21_"  style="overflow:visible;"/>
			</clipPath>
			<g style="clip-path:url(#SVGID_22_);enable-background:new    ;">
				<path style="fill:#3D6978;" d="M42.1,23.7l-0.6-0.3c0,0,0.1,0,0.1,0l0.6,0.3C42.2,23.7,42.2,23.7,42.1,23.7"/>
			</g>
		</g>
		<g style="enable-background:new    ;">
			<defs>
				<path id="SVGID_23_" style="enable-background:new    ;" d="M40.8,24.8l0.6,0.3c0.1,0,0.1,0.1,0.1,0.1c0.1,0.1,0.1,0.4,0.1,0.7
					c0,0.3-0.1,0.6-0.2,0.8l-0.6-0.3c0.1-0.2,0.2-0.5,0.2-0.8c0-0.3,0-0.6-0.1-0.7C40.9,24.9,40.8,24.9,40.8,24.8z"/>
			</defs>
			<clipPath id="SVGID_24_">
				<use xlink:href="#SVGID_23_"  style="overflow:visible;"/>
			</clipPath>
			<g style="clip-path:url(#SVGID_24_);enable-background:new    ;">
				<path style="fill:#3D6978;" d="M41.3,26.8l-0.6-0.3c0.1-0.1,0.2-0.3,0.2-0.6l0.6,0.3C41.5,26.4,41.4,26.6,41.3,26.8"/>
				<path style="fill:#3F6D7D;" d="M41.5,26.2L41,26c0-0.1,0-0.2,0-0.3c0-0.2,0-0.3,0-0.4l0.6,0.3c0,0.1,0,0.3,0,0.4
					C41.6,26,41.6,26.1,41.5,26.2"/>
				<path style="fill:#3D6978;" d="M41.6,25.5L41,25.2c0-0.1-0.1-0.2-0.1-0.3c0-0.1-0.1-0.1-0.1-0.1l0.6,0.3c0.1,0,0.1,0.1,0.1,0.1
					C41.5,25.3,41.6,25.4,41.6,25.5"/>
			</g>
		</g>
		<g>
			<path style="fill:#74C8E6;" d="M42.8,24.3c0.1,0.3,0.2,0.7,0.1,1.2c0,0.5-0.2,1-0.4,1.4c-0.2,0.4-0.5,0.8-0.8,1.1
				c-0.3,0.3-0.7,0.5-1.1,0.6L39.3,29l0.4-4.9l1.3-0.4c0.4-0.1,0.8-0.1,1.1,0C42.4,23.8,42.7,24,42.8,24.3z M41.3,26.8
				c0.1-0.2,0.2-0.5,0.2-0.8c0-0.3,0-0.6-0.1-0.7c-0.1-0.1-0.3-0.2-0.5-0.1l-0.1,0l-0.2,2.1l0.1,0C41,27.1,41.2,27,41.3,26.8"/>
		</g>
		<g>
			<polygon style="fill:#3B6675;" points="39.7,24.1 39.2,23.8 40.5,23.4 41.1,23.7 			"/>
		</g>
		<g>
			<polygon style="fill:#427283;" points="39.3,29 38.7,28.7 39.2,23.8 39.7,24.1 			"/>
		</g>
	</g>
</g>
</svg>
