<?xml version="1.0" encoding="utf-8"?>
<!-- Generator: Adobe Illustrator 23.0.1, SVG Export Plug-In . SVG Version: 6.00 Build 0)  -->
<svg version="1.1" id="Layer_1" xmlns="http://www.w3.org/2000/svg" xmlns:xlink="http://www.w3.org/1999/xlink" x="0px" y="0px"
	 viewBox="0 0 100 100" style="enable-background:new 0 0 100 100;" xml:space="preserve">
<path id="Hair_6_" d="M14.6,17.4c0.6-0.2,0.9-0.6,0.7-1.2c-0.2,0.1-0.4,0-0.7-0.3c-0.4-0.5-2-1.8-3.7-0.2c-0.4,0-0.6,0.2-0.6,0.7
	c0.1,0.7,0.5,1.9,0.4,2.6c-0.1,0.7,0.2,0.7,0.7,0.7C11.8,19.6,12.8,18.9,14.6,17.4z"/>
<path id="Face_5_" style="fill:#C1E4EE;" d="M11.1,20.1l0.1-0.7c-0.4-0.3-0.6-0.7-0.5-1c0.1-0.5,0.6,0,0.7,0.1
	c0.1,0.2,0.5,0.3,0.5-0.1c0-0.4-0.1-1.4,0.6-1.2c0.7,0.2,1.6,0.5,2.1,0c0.1,0.6,0.1,1.2,0,1.8c-0.2,0.8-0.2,1.9-0.8,1.9
	c0,0.6-0.3,0.9-0.7,0.8C12.6,21.6,12,21.1,11.1,20.1z"/>
</svg>
