<?xml version="1.0" encoding="utf-8"?>
<!-- Generator: Adobe Illustrator 23.0.1, SVG Export Plug-In . SVG Version: 6.00 Build 0)  -->
<svg version="1.1" id="Layer_1" xmlns="http://www.w3.org/2000/svg" xmlns:xlink="http://www.w3.org/1999/xlink" x="0px" y="0px"
	 viewBox="0 0 100 100" style="enable-background:new 0 0 100 100;" xml:space="preserve">
<style type="text/css">
	.st0{fill:url(#SVGID_1_);}
	.st1{fill:url(#SVGID_2_);}
	.st2{fill:url(#SVGID_3_);}
	.st3{fill:url(#SVGID_4_);}
	.st4{fill:url(#SVGID_5_);}
	.st5{fill:url(#SVGID_6_);}
	.st6{fill:url(#SVGID_7_);}
	.st7{fill:url(#SVGID_8_);}
	.st8{fill:url(#SVGID_9_);}
	.st9{fill:url(#SVGID_10_);}
	.st10{fill:url(#SVGID_11_);}
	.st11{fill:url(#SVGID_12_);}
	.st12{fill:url(#SVGID_13_);}
</style>
<g id="light-weight-truck_1_">
	<g id="front_2_">
		<g id="truck_2_">
			<linearGradient id="SVGID_1_" gradientUnits="userSpaceOnUse" x1="16.6165" y1="32.1884" x2="30.1259" y2="32.1884">
				<stop  offset="5.376340e-03" style="stop-color:#225C69"/>
				<stop  offset="0.4452" style="stop-color:#368397"/>
				<stop  offset="0.8006" style="stop-color:#439DB6"/>
				<stop  offset="1" style="stop-color:#48A7C1"/>
			</linearGradient>
			<polygon class="st0" points="30.1,35.3 30,19.8 16.6,27.3 16.6,44.6 			"/>
			
				<linearGradient id="SVGID_2_" gradientUnits="userSpaceOnUse" x1="-3.7407" y1="50.3761" x2="3.8588" y2="50.3761" gradientTransform="matrix(0.9999 1.354366e-02 -1.354366e-02 0.9999 10.2539 -9.3449)">
				<stop  offset="5.618000e-03" style="stop-color:#000000"/>
				<stop  offset="1" style="stop-color:#4E4D4D"/>
			</linearGradient>
			<polygon class="st1" points="9.6,43.3 13.4,41.1 9.5,38.8 5.8,41 			"/>
			
				<linearGradient id="SVGID_3_" gradientUnits="userSpaceOnUse" x1="47.5376" y1="-11.9532" x2="69.2021" y2="-11.9532" gradientTransform="matrix(0.9988 -4.963174e-02 4.963174e-02 0.9988 -38.4104 36.9794)">
				<stop  offset="5.376340e-03" style="stop-color:#225C69"/>
				<stop  offset="0.4452" style="stop-color:#368397"/>
				<stop  offset="0.8006" style="stop-color:#439DB6"/>
				<stop  offset="1" style="stop-color:#48A7C1"/>
			</linearGradient>
			<path class="st2" d="M30,19.8l-3.1-1.9c-1.2-0.7-3.3-1.1-5.2-0.9L8.6,25c2.3-0.3,4.2,0.2,5.4,0.9l2.6,1.4L30,19.8z"/>
			<linearGradient id="SVGID_4_" gradientUnits="userSpaceOnUse" x1="5.6102" y1="39.955" x2="8.9186" y2="39.955">
				<stop  offset="5.376340e-03" style="stop-color:#225C69"/>
				<stop  offset="0.4452" style="stop-color:#368397"/>
				<stop  offset="0.8006" style="stop-color:#439DB6"/>
				<stop  offset="1" style="stop-color:#48A7C1"/>
			</linearGradient>
			<path class="st3" d="M7.6,41.9c0.1-0.9,0.3-1.5,1.3-2.2l-3.3-1.8l0.1,3.1l1.9,1.2C7.6,42,7.6,41.9,7.6,41.9z"/>
			<linearGradient id="SVGID_5_" gradientUnits="userSpaceOnUse" x1="13.1689" y1="45.0117" x2="16.6168" y2="45.0117">
				<stop  offset="5.376340e-03" style="stop-color:#225C69"/>
				<stop  offset="0.4452" style="stop-color:#368397"/>
				<stop  offset="0.8006" style="stop-color:#439DB6"/>
				<stop  offset="1" style="stop-color:#48A7C1"/>
			</linearGradient>
			<path class="st4" d="M13.2,42.6c0.2,0.6,0.3,1.1,0.4,1.6c0.1,0.5,0.1,1.1,0.1,1.4l3,1.8v-2.8L13.2,42.6z"/>
			<linearGradient id="SVGID_6_" gradientUnits="userSpaceOnUse" x1="16.6168" y1="34.7324" x2="5.4048" y2="34.7324">
				<stop  offset="4.836310e-03" style="stop-color:#9ED7F6"/>
				<stop  offset="1" style="stop-color:#48A7C1"/>
			</linearGradient>
			<path class="st5" d="M13.9,25.9c-1.2-0.7-2.9-1.2-5.2-0.9c0,0-0.1,0-0.2,0.1c-0.9,0.5-1.6,1.2-2.2,2c-0.6,0.8-0.9,1.9-0.9,2.5
				c0,0.6,0.2,8.7,0.2,8.7l2.9,1.7c0.1-0.1,0.4-0.3,0.5-0.4c0.5-0.3,1.1-0.2,1.8,0.2c1,0.6,1.8,1.7,2.3,2.8l3.4,2V27.3L13.9,25.9z"
				/>
			<g>
				<linearGradient id="SVGID_7_" gradientUnits="userSpaceOnUse" x1="6.8342" y1="31.0413" x2="15.8305" y2="29.476">
					<stop  offset="5.762439e-03" style="stop-color:#71C8E2"/>
					<stop  offset="1" style="stop-color:#EAF6FD"/>
				</linearGradient>
				<path class="st6" d="M6.6,29.4c0-0.5,0.2-1.4,0.7-1.9c0.4-0.6,1-1.1,1.7-1.5c0.1-0.1,0.2-0.1,0.2-0.1c1.8-0.2,3.4,0.2,4.4,0.8
					l2.1,1.1v6.5L6.6,29.4z"/>
				<linearGradient id="SVGID_8_" gradientUnits="userSpaceOnUse" x1="6.4499" y1="31.4053" x2="16.1326" y2="29.7207">
					<stop  offset="6.813359e-03" style="stop-color:#C2DBC8"/>
					<stop  offset="0.9995" style="stop-color:#007458"/>
				</linearGradient>
				<path class="st7" d="M13.5,26.5c-1.1-0.6-2.5-1-4.5-0.8c0,0-0.1,0-0.2,0.1c-0.7,0.4-1.4,1-1.9,1.7c-0.5,0.7-0.7,1.7-0.8,2.2
					l9.6,5.4v-7.3L13.5,26.5z M7.3,27.6c0.4-0.6,1-1.1,1.6-1.5c0.1,0,0.2-0.1,0.2-0.1c0.1,0,0.2,0,0.3,0l0,5l-2.8-1.5
					C6.6,29.1,6.9,28.2,7.3,27.6z M15.3,34.2l-5.5-3L9.8,26c1.5,0,2.8,0.3,3.6,0.8l2,1.1V34.2z"/>
			</g>
			<linearGradient id="SVGID_9_" gradientUnits="userSpaceOnUse" x1="24.5433" y1="44.5253" x2="22.1989" y2="38.084">
				<stop  offset="5.376340e-03" style="stop-color:#225C69"/>
				<stop  offset="0.1309" style="stop-color:#2B6D7D"/>
				<stop  offset="0.3571" style="stop-color:#37869B"/>
				<stop  offset="0.5803" style="stop-color:#4198B0"/>
				<stop  offset="0.797" style="stop-color:#46A3BD"/>
				<stop  offset="1" style="stop-color:#48A7C1"/>
			</linearGradient>
			<polygon class="st8" points="30.1,35.2 30.1,37.9 16.6,47.4 16.6,44.6 			"/>
		</g>
		<g id="tyre_3_">
			<linearGradient id="SVGID_10_" gradientUnits="userSpaceOnUse" x1="14.6256" y1="43.3647" x2="8.488" y2="43.3647">
				<stop  offset="5.376340e-03" style="stop-color:#225C69"/>
				<stop  offset="0.4452" style="stop-color:#368397"/>
				<stop  offset="0.8006" style="stop-color:#439DB6"/>
				<stop  offset="1" style="stop-color:#48A7C1"/>
			</linearGradient>
			<path class="st9" d="M13,45.5c0-1.7-1.2-3.8-2.7-4.6c-0.7-0.4-1.4-0.5-1.9-0.2l0,0l1.6-0.9l0,0c0.5-0.2,1.1-0.2,1.9,0.2
				c1.5,0.9,2.7,2.9,2.7,4.6c0,0.9-0.3,1.5-0.9,1.8l0,0l-1.4,0.8l0,0C12.8,46.8,13,46.3,13,45.5z"/>
			<linearGradient id="SVGID_11_" gradientUnits="userSpaceOnUse" x1="7.6611" y1="43.9616" x2="13.0277" y2="43.9616">
				<stop  offset="6.778585e-03" style="stop-color:#92D4F6"/>
				<stop  offset="0.2627" style="stop-color:#A5DBF4"/>
				<stop  offset="0.7343" style="stop-color:#C4E5F1"/>
				<stop  offset="1" style="stop-color:#CFE9F0"/>
			</linearGradient>
			<path class="st10" d="M8.5,40.7c0.5-0.3,1.1-0.2,1.9,0.2c1.5,0.9,2.7,2.9,2.7,4.6c0,0.8-0.3,1.3-0.7,1.6c-0.5,0.4-1.2,0.4-2-0.1
				c-1.5-0.9-2.7-2.9-2.7-4.6C7.7,41.5,8,40.9,8.5,40.7z"/>
			<linearGradient id="SVGID_12_" gradientUnits="userSpaceOnUse" x1="8.8341" y1="43.9616" x2="11.8547" y2="43.9616">
				<stop  offset="0" style="stop-color:#FFFFFF"/>
				<stop  offset="0.3662" style="stop-color:#FCFDFE"/>
				<stop  offset="0.6134" style="stop-color:#F3F8FD"/>
				<stop  offset="0.8248" style="stop-color:#E4EFFA"/>
				<stop  offset="1" style="stop-color:#D1E4F6"/>
			</linearGradient>
			<path class="st11" d="M9.3,42.1c0.3-0.1,0.6-0.1,1,0.1c0.8,0.5,1.5,1.6,1.5,2.6c0,0.4-0.1,0.7-0.4,0.9c-0.3,0.2-0.7,0.2-1.1-0.1
				c-0.8-0.5-1.5-1.6-1.5-2.6C8.8,42.6,9,42.3,9.3,42.1z"/>
			<linearGradient id="SVGID_13_" gradientUnits="userSpaceOnUse" x1="9.0213" y1="43.9616" x2="11.7638" y2="43.9616">
				<stop  offset="5.376340e-03" style="stop-color:#225C69"/>
				<stop  offset="0.4452" style="stop-color:#368397"/>
				<stop  offset="0.8006" style="stop-color:#439DB6"/>
				<stop  offset="1" style="stop-color:#48A7C1"/>
			</linearGradient>
			<path class="st12" d="M9.1,43.9c0-0.1,0-0.1-0.1-0.2c0.2,0.1,0.4-0.1,0.4-0.3c0-0.3-0.2-0.6-0.4-0.8c0,0,0-0.1,0.1-0.1
				c0.1,0.1,0.2,0.2,0.3,0.2c0.1,0.1,0.3,0.1,0.3,0c0.2-0.1,0.2-0.4,0.1-0.7c0,0,0.1,0,0.1,0c0.1,0.3,0.2,0.6,0.5,0.7
				c0.2,0.1,0.4,0.1,0.5-0.2c0,0,0.1,0.1,0.1,0.2c-0.1,0.2-0.1,0.5,0.1,0.7c0.1,0.2,0.2,0.3,0.3,0.4c0.1,0.1,0.2,0.1,0.3,0.1
				c0,0.1,0,0.1,0.1,0.2c-0.2-0.1-0.4,0.1-0.4,0.3c0,0.3,0.2,0.6,0.4,0.8c0,0,0,0.1-0.1,0.1c-0.1-0.1-0.2-0.2-0.3-0.2
				c-0.1-0.1-0.3-0.1-0.3,0c-0.2,0.1-0.2,0.4-0.1,0.7c0,0-0.1,0-0.1,0c-0.1-0.3-0.2-0.6-0.5-0.7C10.2,45,10,45,9.9,45.3
				c0,0-0.1-0.1-0.1-0.2c0.1-0.2,0.1-0.5-0.1-0.7c-0.1-0.2-0.2-0.3-0.3-0.4C9.3,43.9,9.2,43.9,9.1,43.9"/>
		</g>
	</g>
</g>
</svg>
