<?xml version="1.0" encoding="utf-8"?>
<!-- Generator: Adobe Illustrator 23.0.1, SVG Export Plug-In . SVG Version: 6.00 Build 0)  -->
<svg version="1.1" id="Layer_1" xmlns="http://www.w3.org/2000/svg" xmlns:xlink="http://www.w3.org/1999/xlink" x="0px" y="0px"
	 viewBox="0 0 100 100" style="enable-background:new 0 0 100 100;" xml:space="preserve">
<style type="text/css">
	.st0{opacity:0.2;fill:url(#ombre_2_);}
	.st1{fill:url(#SVGID_1_);}
	.st2{fill:url(#SVGID_2_);}
	.st3{fill:url(#SVGID_3_);}
	.st4{fill:url(#SVGID_4_);}
	.st5{fill:url(#SVGID_5_);}
	.st6{fill:url(#SVGID_6_);}
	.st7{fill:url(#SVGID_7_);}
	.st8{fill:url(#SVGID_8_);}
	.st9{fill:url(#SVGID_9_);}
	.st10{fill:url(#SVGID_10_);}
	.st11{fill:url(#SVGID_11_);}
	.st12{fill:url(#SVGID_12_);}
	.st13{fill:url(#SVGID_13_);}
	.st14{fill:url(#SVGID_14_);}
	.st15{fill:url(#SVGID_15_);}
	.st16{fill:url(#SVGID_16_);}
	.st17{fill:url(#SVGID_17_);}
	.st18{fill:url(#SVGID_18_);}
	.st19{fill:url(#SVGID_19_);}
	.st20{fill:url(#SVGID_20_);}
	.st21{fill:url(#SVGID_21_);}
	.st22{fill:url(#SVGID_22_);}
	.st23{fill:url(#SVGID_23_);}
	.st24{fill:url(#SVGID_24_);}
	.st25{fill:url(#SVGID_25_);}
	.st26{fill:url(#SVGID_26_);}
	.st27{fill:url(#SVGID_27_);}
	.st28{fill:url(#SVGID_28_);}
	.st29{fill:url(#SVGID_29_);}
	.st30{fill:url(#SVGID_30_);}
	.st31{fill:url(#SVGID_31_);}
	.st32{fill:url(#SVGID_32_);}
</style>
<g id="light-weight-truck_1_">
	
		<linearGradient id="ombre_2_" gradientUnits="userSpaceOnUse" x1="786.6588" y1="59.9879" x2="870.1115" y2="59.9879" gradientTransform="matrix(-1 0 0 1 881.254 0)">
		<stop  offset="0" style="stop-color:#465332"/>
		<stop  offset="0.9995" style="stop-color:#009540;stop-opacity:0"/>
	</linearGradient>
	<path id="ombre_1_" class="st0" d="M37,37.6c2-0.9,5.1-0.9,7,0l47,28.8c4.6,2.8,4.2,6.3,2.1,7.7l-17.2,8.3c-2,0.9-5.1,0.9-7,0
		L12.6,50.8c-1.9-0.9-1.9-2.4,0-3.3L37,37.6z"/>
	<g id="back_2_">
		<g id="cargo_4_">
			<linearGradient id="SVGID_1_" gradientUnits="userSpaceOnUse" x1="29.2068" y1="66.0746" x2="75.2767" y2="66.0746">
				<stop  offset="5.618000e-03" style="stop-color:#000000"/>
				<stop  offset="1" style="stop-color:#4E4D4D"/>
			</linearGradient>
			<polygon class="st1" points="29.2,54.3 30.2,52.4 75.3,77.7 75,79.7 72.3,78.5 60,71.6 			"/>
			<linearGradient id="SVGID_2_" gradientUnits="userSpaceOnUse" x1="18.4971" y1="41.2743" x2="89.9192" y2="41.2743">
				<stop  offset="5.376340e-03" style="stop-color:#225C69"/>
				<stop  offset="0.4452" style="stop-color:#368397"/>
				<stop  offset="0.8006" style="stop-color:#439DB6"/>
				<stop  offset="1" style="stop-color:#48A7C1"/>
			</linearGradient>
			<polygon class="st2" points="75.8,61.6 89.9,53.4 32.6,21 18.5,29.1 			"/>
			<linearGradient id="SVGID_3_" gradientUnits="userSpaceOnUse" x1="18.5032" y1="53.5005" x2="75.8171" y2="53.5005">
				<stop  offset="4.836310e-03" style="stop-color:#9ED7F6"/>
				<stop  offset="1" style="stop-color:#48A7C1"/>
			</linearGradient>
			<polygon class="st3" points="75.8,77.9 75.8,61.6 18.5,29.1 18.5,45.4 			"/>
			<linearGradient id="SVGID_4_" gradientUnits="userSpaceOnUse" x1="75.8133" y1="65.6387" x2="89.9263" y2="65.6387">
				<stop  offset="5.376340e-03" style="stop-color:#225C69"/>
				<stop  offset="0.4452" style="stop-color:#368397"/>
				<stop  offset="0.8006" style="stop-color:#439DB6"/>
				<stop  offset="1" style="stop-color:#48A7C1"/>
			</linearGradient>
			<polygon class="st4" points="89.9,53.4 89.9,69.7 75.8,77.9 75.8,61.6 			"/>
			<g>
				<linearGradient id="SVGID_5_" gradientUnits="userSpaceOnUse" x1="75.8155" y1="75.1283" x2="89.9297" y2="75.1283">
					<stop  offset="5.376340e-03" style="stop-color:#225C69"/>
					<stop  offset="0.4452" style="stop-color:#368397"/>
					<stop  offset="0.8006" style="stop-color:#439DB6"/>
					<stop  offset="1" style="stop-color:#48A7C1"/>
				</linearGradient>
				<polygon class="st5" points="75.8,77.8 75.8,80.6 89.9,72.4 89.9,69.7 				"/>
			</g>
			<linearGradient id="SVGID_6_" gradientUnits="userSpaceOnUse" x1="25.5645" y1="48.8291" x2="18.5016" y2="48.8291">
				<stop  offset="5.376340e-03" style="stop-color:#225C69"/>
				<stop  offset="0.4452" style="stop-color:#368397"/>
				<stop  offset="0.8006" style="stop-color:#439DB6"/>
				<stop  offset="1" style="stop-color:#48A7C1"/>
			</linearGradient>
			<polygon class="st6" points="25.6,49.4 25.6,52.2 18.5,48.2 18.5,45.4 			"/>
			<linearGradient id="SVGID_7_" gradientUnits="userSpaceOnUse" x1="25.5608" y1="50.8076" x2="27.9206" y2="50.8076">
				<stop  offset="0" style="stop-color:#6485C3"/>
				<stop  offset="1" style="stop-color:#39509D"/>
			</linearGradient>
			<polygon class="st7" points="25.6,50.9 27.9,52.2 27.9,50.8 25.6,49.4 			"/>
			<linearGradient id="SVGID_8_" gradientUnits="userSpaceOnUse" x1="25.5588" y1="50.8576" x2="26.7363" y2="50.8576">
				<stop  offset="0" style="stop-color:#6485C3"/>
				<stop  offset="1" style="stop-color:#39509D"/>
			</linearGradient>
			<polygon class="st8" points="25.6,52.2 26.7,51.5 26.7,50.2 25.6,49.5 			"/>
			<linearGradient id="SVGID_9_" gradientUnits="userSpaceOnUse" x1="75.815" y1="66.3111" x2="89.9279" y2="66.3111">
				<stop  offset="4.836310e-03" style="stop-color:#9ED7F6"/>
				<stop  offset="1" style="stop-color:#48A7C1"/>
			</linearGradient>
			<polygon class="st9" points="89.9,54.1 89.9,70.4 75.8,78.5 75.8,62.2 			"/>
			<linearGradient id="SVGID_10_" gradientUnits="userSpaceOnUse" x1="27.8892" y1="65.6676" x2="75.816" y2="65.6676">
				<stop  offset="5.376340e-03" style="stop-color:#225C69"/>
				<stop  offset="0.4452" style="stop-color:#368397"/>
				<stop  offset="0.8006" style="stop-color:#439DB6"/>
				<stop  offset="1" style="stop-color:#48A7C1"/>
			</linearGradient>
			<path class="st10" d="M27.9,50.8l0,2.8l1.6,0.9l0-0.1c0.2-0.3,0.4-0.5,0.6-0.6c0.6-0.3,1.3-0.2,2.1,0.2c1.2,0.7,2.3,2.1,2.8,3.6
				l0,0l2.5,1.4c0.2-0.3,0.4-0.5,0.6-0.6c0.6-0.3,1.3-0.2,2.1,0.2c1.2,0.7,2.2,2,2.7,3.4l16,9c0,0,0.4-0.5,0.6-0.6
				c0.6-0.3,1.3-0.2,2.1,0.2c1.2,0.7,2.2,2,2.7,3.5l2.1,1.3c0.2-0.3,0.4-0.5,0.7-0.7c0.6-0.3,1.3-0.2,2.1,0.2
				c1.2,0.7,2.3,2.1,2.8,3.6l3.6,2.1v-2.7L27.9,50.8z"/>
			<linearGradient id="SVGID_11_" gradientUnits="userSpaceOnUse" x1="89.9314" y1="75.8007" x2="75.8172" y2="75.8007">
				<stop  offset="5.376340e-03" style="stop-color:#225C69"/>
				<stop  offset="0.4452" style="stop-color:#368397"/>
				<stop  offset="0.8006" style="stop-color:#439DB6"/>
				<stop  offset="1" style="stop-color:#48A7C1"/>
			</linearGradient>
			<polygon class="st11" points="75.8,78.5 75.8,81.2 89.9,73.1 89.9,70.4 			"/>
			<g>
				<linearGradient id="SVGID_12_" gradientUnits="userSpaceOnUse" x1="75.8172" y1="73.0416" x2="89.9314" y2="73.0416">
					<stop  offset="5.376340e-03" style="stop-color:#225C69"/>
					<stop  offset="0.4452" style="stop-color:#368397"/>
					<stop  offset="0.8006" style="stop-color:#439DB6"/>
					<stop  offset="1" style="stop-color:#48A7C1"/>
				</linearGradient>
				<polygon class="st12" points="89.9,70.4 89.9,67.5 75.8,75.7 75.8,78.5 				"/>
				<linearGradient id="SVGID_13_" gradientUnits="userSpaceOnUse" x1="75.8172" y1="59.5795" x2="89.9314" y2="59.5795">
					<stop  offset="5.376340e-03" style="stop-color:#225C69"/>
					<stop  offset="0.4452" style="stop-color:#368397"/>
					<stop  offset="0.8006" style="stop-color:#439DB6"/>
					<stop  offset="1" style="stop-color:#48A7C1"/>
				</linearGradient>
				<polygon class="st13" points="89.9,56.9 89.9,54.1 75.8,62.2 75.8,65.1 				"/>
				<linearGradient id="SVGID_14_" gradientUnits="userSpaceOnUse" x1="82.8757" y1="77.5365" x2="82.8757" y2="68.547">
					<stop  offset="5.762439e-03" style="stop-color:#71C8E2"/>
					<stop  offset="1" style="stop-color:#EAF6FD"/>
				</linearGradient>
				<polygon class="st14" points="77,77.2 76.4,77.5 76.4,76 77,75.7 88.7,68.9 89.3,68.5 89.3,70.1 88.7,70.4 				"/>
			</g>
			<linearGradient id="SVGID_15_" gradientUnits="userSpaceOnUse" x1="78.8308" y1="64.3879" x2="78.8308" y2="59.5755">
				<stop  offset="5.762439e-03" style="stop-color:#71C8E2"/>
				<stop  offset="1" style="stop-color:#EAF6FD"/>
			</linearGradient>
			<polygon class="st15" points="76.3,62.4 76.3,64.4 81.3,61.5 81.3,59.6 			"/>
			<linearGradient id="SVGID_16_" gradientUnits="userSpaceOnUse" x1="87.0562" y1="59.6549" x2="87.0562" y2="54.7942">
				<stop  offset="5.762439e-03" style="stop-color:#71C8E2"/>
				<stop  offset="1" style="stop-color:#EAF6FD"/>
			</linearGradient>
			<polygon class="st16" points="84.6,57.7 84.6,59.7 89.6,56.7 89.5,54.8 			"/>
		</g>
		<g id="tyres_1_">
			<g id="tyre-4_1_">
				
					<linearGradient id="SVGID_17_" gradientUnits="userSpaceOnUse" x1="125.5438" y1="37.1612" x2="119.4063" y2="37.1612" gradientTransform="matrix(0.9978 -6.629153e-02 6.629153e-02 0.9978 -54.4167 48.8345)">
					<stop  offset="5.376340e-03" style="stop-color:#225C69"/>
					<stop  offset="0.4452" style="stop-color:#368397"/>
					<stop  offset="0.8006" style="stop-color:#439DB6"/>
					<stop  offset="1" style="stop-color:#48A7C1"/>
				</linearGradient>
				<path class="st17" d="M71.9,79.8c-0.1-1.7-1.4-3.7-3-4.4C68.1,75,67.5,75,67,75.3l0,0l1.5-1l0,0c0.5-0.3,1.1-0.3,1.9,0.1
					c1.5,0.8,2.9,2.7,3,4.4c0.1,0.9-0.2,1.5-0.8,1.8l0,0l-1.3,0.9l0,0C71.7,81.2,71.9,80.6,71.9,79.8z"/>
				
					<linearGradient id="SVGID_18_" gradientUnits="userSpaceOnUse" x1="118.5793" y1="37.7581" x2="123.9459" y2="37.7581" gradientTransform="matrix(0.9978 -6.629153e-02 6.629153e-02 0.9978 -54.4167 48.8345)">
					<stop  offset="6.778585e-03" style="stop-color:#92D4F6"/>
					<stop  offset="0.2627" style="stop-color:#A5DBF4"/>
					<stop  offset="0.7343" style="stop-color:#C4E5F1"/>
					<stop  offset="1" style="stop-color:#CFE9F0"/>
				</linearGradient>
				<path class="st18" d="M67,75.3c0.5-0.3,1.1-0.3,1.9,0.1c1.5,0.8,2.9,2.7,3,4.4c0,0.8-0.2,1.3-0.5,1.7c-0.5,0.4-1.2,0.4-2,0
					c-1.5-0.8-2.9-2.7-3-4.4C66.2,76.2,66.5,75.6,67,75.3z"/>
				
					<linearGradient id="SVGID_19_" gradientUnits="userSpaceOnUse" x1="119.5423" y1="37.6414" x2="122.5629" y2="37.6414" gradientTransform="matrix(0.9978 -6.629153e-02 6.629153e-02 0.9978 -54.4167 48.8345)">
					<stop  offset="0" style="stop-color:#FFFFFF"/>
					<stop  offset="0.3662" style="stop-color:#FCFDFE"/>
					<stop  offset="0.6134" style="stop-color:#F3F8FD"/>
					<stop  offset="0.8248" style="stop-color:#E4EFFA"/>
					<stop  offset="1" style="stop-color:#D1E4F6"/>
				</linearGradient>
				<path class="st19" d="M67.7,76.6c0.3-0.2,0.6-0.2,1.1,0c0.9,0.4,1.6,1.5,1.7,2.5c0,0.4-0.1,0.8-0.3,0.9c-0.3,0.2-0.7,0.3-1.1,0
					c-0.9-0.4-1.6-1.5-1.7-2.5C67.3,77.1,67.4,76.8,67.7,76.6z"/>
				
					<linearGradient id="SVGID_20_" gradientUnits="userSpaceOnUse" x1="119.7294" y1="37.6414" x2="122.4719" y2="37.6414" gradientTransform="matrix(0.9978 -6.629153e-02 6.629153e-02 0.9978 -54.4167 48.8345)">
					<stop  offset="5.376340e-03" style="stop-color:#225C69"/>
					<stop  offset="0.4452" style="stop-color:#368397"/>
					<stop  offset="0.8006" style="stop-color:#439DB6"/>
					<stop  offset="1" style="stop-color:#48A7C1"/>
				</linearGradient>
				<path class="st20" d="M67.6,78.4c0-0.1-0.1-0.1-0.1-0.2c0.2,0.1,0.4-0.1,0.4-0.4c0-0.3-0.2-0.6-0.4-0.7c0,0,0-0.1,0.1-0.1
					c0.1,0.1,0.2,0.2,0.3,0.2c0.1,0.1,0.3,0.1,0.4,0c0.2-0.1,0.2-0.4,0-0.7c0,0,0.1,0,0.1,0c0.1,0.3,0.3,0.6,0.5,0.7
					c0.2,0.1,0.4,0,0.5-0.2c0.1,0,0.1,0.1,0.2,0.1c-0.1,0.2-0.1,0.5,0.1,0.7c0.1,0.2,0.2,0.3,0.4,0.3c0.1,0,0.2,0.1,0.3,0
					c0,0.1,0.1,0.1,0.1,0.2c-0.2-0.1-0.4,0.1-0.4,0.4c0,0.3,0.2,0.6,0.4,0.7c0,0,0,0.1-0.1,0.1c-0.1-0.1-0.2-0.2-0.3-0.2
					c-0.1-0.1-0.3-0.1-0.4,0c-0.2,0.1-0.2,0.4,0,0.7c0,0-0.1,0-0.1,0c-0.1-0.3-0.3-0.6-0.5-0.7c-0.2-0.1-0.4,0-0.5,0.2
					c-0.1,0-0.1-0.1-0.2-0.1c0.1-0.2,0.1-0.5-0.1-0.7c-0.1-0.2-0.2-0.3-0.4-0.3C67.8,78.4,67.7,78.4,67.6,78.4"/>
			</g>
			<g id="tyre-3_2_">
				
					<linearGradient id="SVGID_21_" gradientUnits="userSpaceOnUse" x1="143.3319" y1="15.0505" x2="137.1943" y2="15.0505" gradientTransform="matrix(0.9953 -9.707180e-02 9.707180e-02 0.9953 -78.3168 72.0862)">
					<stop  offset="5.376340e-03" style="stop-color:#225C69"/>
					<stop  offset="0.4452" style="stop-color:#368397"/>
					<stop  offset="0.8006" style="stop-color:#439DB6"/>
					<stop  offset="1" style="stop-color:#48A7C1"/>
				</linearGradient>
				<path class="st21" d="M64.4,75.4c-0.2-1.7-1.6-3.6-3.1-4.4c-0.8-0.3-1.4-0.3-1.9,0l0,0l1.5-1.1l0,0c0.5-0.3,1.1-0.3,1.9,0
					c1.6,0.7,3,2.7,3.1,4.4c0.1,0.9-0.2,1.6-0.7,1.9l0,0l-1.3,0.9l0,0C64.3,76.8,64.5,76.2,64.4,75.4z"/>
				
					<linearGradient id="SVGID_22_" gradientUnits="userSpaceOnUse" x1="136.3674" y1="15.6474" x2="141.734" y2="15.6474" gradientTransform="matrix(0.9953 -9.707180e-02 9.707180e-02 0.9953 -78.3168 72.0862)">
					<stop  offset="6.778585e-03" style="stop-color:#92D4F6"/>
					<stop  offset="0.2627" style="stop-color:#A5DBF4"/>
					<stop  offset="0.7343" style="stop-color:#C4E5F1"/>
					<stop  offset="1" style="stop-color:#CFE9F0"/>
				</linearGradient>
				<path class="st22" d="M59.4,71.1c0.5-0.3,1.1-0.3,1.9,0c1.6,0.7,3,2.7,3.1,4.4c0.1,0.8-0.1,1.3-0.5,1.7c-0.5,0.4-1.2,0.5-2,0.1
					c-1.6-0.7-3-2.7-3.1-4.4C58.7,72,59,71.4,59.4,71.1z"/>
				
					<linearGradient id="SVGID_23_" gradientUnits="userSpaceOnUse" x1="137.3303" y1="15.5307" x2="140.3509" y2="15.5307" gradientTransform="matrix(0.9953 -9.707180e-02 9.707180e-02 0.9953 -78.3168 72.0862)">
					<stop  offset="0" style="stop-color:#FFFFFF"/>
					<stop  offset="0.3662" style="stop-color:#FCFDFE"/>
					<stop  offset="0.6134" style="stop-color:#F3F8FD"/>
					<stop  offset="0.8248" style="stop-color:#E4EFFA"/>
					<stop  offset="1" style="stop-color:#D1E4F6"/>
				</linearGradient>
				<path class="st23" d="M60.2,72.3c0.3-0.2,0.6-0.2,1.1,0c0.9,0.4,1.7,1.5,1.8,2.4c0,0.4-0.1,0.8-0.3,1C62.4,76,62,76,61.5,75.8
					c-0.9-0.4-1.7-1.5-1.8-2.4C59.7,72.9,59.9,72.5,60.2,72.3z"/>
				
					<linearGradient id="SVGID_24_" gradientUnits="userSpaceOnUse" x1="137.5175" y1="15.5307" x2="140.26" y2="15.5307" gradientTransform="matrix(0.9953 -9.707180e-02 9.707180e-02 0.9953 -78.3168 72.0862)">
					<stop  offset="5.376340e-03" style="stop-color:#225C69"/>
					<stop  offset="0.4452" style="stop-color:#368397"/>
					<stop  offset="0.8006" style="stop-color:#439DB6"/>
					<stop  offset="1" style="stop-color:#48A7C1"/>
				</linearGradient>
				<path class="st24" d="M60.1,74.2c0-0.1-0.1-0.1-0.1-0.2c0.2,0,0.4-0.1,0.3-0.4c0-0.3-0.2-0.6-0.5-0.7c0,0,0-0.1,0-0.1
					c0.1,0.1,0.2,0.2,0.3,0.2c0.1,0.1,0.3,0.1,0.4,0c0.2-0.1,0.2-0.4,0-0.7c0,0,0.1,0,0.1,0c0.1,0.3,0.3,0.6,0.5,0.7s0.4,0,0.5-0.2
					c0.1,0,0.1,0.1,0.2,0.1c-0.1,0.2-0.1,0.5,0.1,0.7c0.1,0.2,0.2,0.3,0.4,0.3c0.1,0,0.2,0.1,0.3,0c0,0.1,0.1,0.1,0.1,0.2
					c-0.2,0-0.4,0.1-0.3,0.4s0.2,0.6,0.5,0.7c0,0,0,0.1,0,0.1c-0.1-0.1-0.2-0.2-0.3-0.2c-0.1-0.1-0.3-0.1-0.4,0
					c-0.2,0.1-0.2,0.4,0,0.7c0,0-0.1,0-0.1,0c-0.1-0.3-0.3-0.6-0.5-0.7s-0.4,0-0.5,0.2c-0.1,0-0.1-0.1-0.2-0.1
					c0.1-0.2,0.1-0.5-0.1-0.7c-0.1-0.2-0.2-0.3-0.4-0.3C60.3,74.2,60.2,74.1,60.1,74.2"/>
			</g>
			<g id="tyre-2_2_">
				
					<linearGradient id="SVGID_25_" gradientUnits="userSpaceOnUse" x1="97.6176" y1="18.8804" x2="91.48" y2="18.8804" gradientTransform="matrix(0.9978 -6.629153e-02 6.629153e-02 0.9978 -54.4167 48.8345)">
					<stop  offset="5.376340e-03" style="stop-color:#225C69"/>
					<stop  offset="0.4452" style="stop-color:#368397"/>
					<stop  offset="0.8006" style="stop-color:#439DB6"/>
					<stop  offset="1" style="stop-color:#48A7C1"/>
				</linearGradient>
				<path class="st25" d="M42.8,63.4c-0.1-1.7-1.4-3.7-3-4.4c-0.7-0.4-1.4-0.4-1.9-0.1l0,0l1.5-1l0,0c0.5-0.3,1.1-0.3,1.9,0.1
					c1.5,0.8,2.9,2.7,3,4.4c0.1,0.9-0.2,1.5-0.8,1.8l0,0l-1.3,0.9l0,0C42.6,64.8,42.8,64.2,42.8,63.4z"/>
				
					<linearGradient id="SVGID_26_" gradientUnits="userSpaceOnUse" x1="90.6531" y1="19.4773" x2="96.0197" y2="19.4773" gradientTransform="matrix(0.9978 -6.629153e-02 6.629153e-02 0.9978 -54.4167 48.8345)">
					<stop  offset="6.778585e-03" style="stop-color:#92D4F6"/>
					<stop  offset="0.2627" style="stop-color:#A5DBF4"/>
					<stop  offset="0.7343" style="stop-color:#C4E5F1"/>
					<stop  offset="1" style="stop-color:#CFE9F0"/>
				</linearGradient>
				<path class="st26" d="M37.9,58.9c0.5-0.3,1.1-0.3,1.9,0.1c1.5,0.8,2.9,2.7,3,4.4c0,0.8-0.2,1.3-0.5,1.7c-0.5,0.4-1.2,0.4-2,0
					c-1.5-0.8-2.9-2.7-3-4.4C37.2,59.8,37.4,59.2,37.9,58.9z"/>
				
					<linearGradient id="SVGID_27_" gradientUnits="userSpaceOnUse" x1="91.6161" y1="19.3606" x2="94.6366" y2="19.3606" gradientTransform="matrix(0.9978 -6.629153e-02 6.629153e-02 0.9978 -54.4167 48.8345)">
					<stop  offset="0" style="stop-color:#FFFFFF"/>
					<stop  offset="0.3662" style="stop-color:#FCFDFE"/>
					<stop  offset="0.6134" style="stop-color:#F3F8FD"/>
					<stop  offset="0.8248" style="stop-color:#E4EFFA"/>
					<stop  offset="1" style="stop-color:#D1E4F6"/>
				</linearGradient>
				<path class="st27" d="M38.6,60.2c0.3-0.2,0.6-0.2,1.1,0c0.9,0.4,1.6,1.5,1.7,2.5c0,0.4-0.1,0.8-0.3,0.9c-0.3,0.2-0.7,0.3-1.1,0
					c-0.9-0.4-1.6-1.5-1.7-2.5C38.2,60.7,38.3,60.4,38.6,60.2z"/>
				
					<linearGradient id="SVGID_28_" gradientUnits="userSpaceOnUse" x1="91.8032" y1="19.3606" x2="94.5457" y2="19.3606" gradientTransform="matrix(0.9978 -6.629153e-02 6.629153e-02 0.9978 -54.4167 48.8345)">
					<stop  offset="5.376340e-03" style="stop-color:#225C69"/>
					<stop  offset="0.4452" style="stop-color:#368397"/>
					<stop  offset="0.8006" style="stop-color:#439DB6"/>
					<stop  offset="1" style="stop-color:#48A7C1"/>
				</linearGradient>
				<path class="st28" d="M38.5,62c0-0.1-0.1-0.1-0.1-0.2c0.2,0.1,0.4-0.1,0.4-0.4s-0.2-0.6-0.4-0.7c0,0,0-0.1,0.1-0.1
					c0.1,0.1,0.2,0.2,0.3,0.2c0.1,0.1,0.3,0.1,0.4,0c0.2-0.1,0.2-0.4,0-0.7c0,0,0.1,0,0.1,0c0.1,0.3,0.3,0.6,0.5,0.7
					c0.2,0.1,0.4,0,0.5-0.2c0.1,0,0.1,0.1,0.2,0.1c-0.1,0.2-0.1,0.5,0.1,0.7c0.1,0.2,0.2,0.3,0.4,0.3c0.1,0,0.2,0.1,0.3,0
					c0,0.1,0.1,0.1,0.1,0.2c-0.2-0.1-0.4,0.1-0.4,0.4c0,0.3,0.2,0.6,0.4,0.7c0,0,0,0.1-0.1,0.1c-0.1-0.1-0.2-0.2-0.3-0.2
					c-0.1-0.1-0.3-0.1-0.4,0c-0.2,0.1-0.2,0.4,0,0.7c0,0-0.1,0-0.1,0c-0.1-0.3-0.3-0.6-0.5-0.7s-0.4,0-0.5,0.2
					c-0.1,0-0.1-0.1-0.2-0.1c0.1-0.2,0.1-0.5-0.1-0.7c-0.1-0.2-0.2-0.3-0.4-0.3C38.7,62,38.6,62,38.5,62"/>
			</g>
			<g id="tyre-1_2_">
				
					<linearGradient id="SVGID_29_" gradientUnits="userSpaceOnUse" x1="115.5394" y1="-4.2967" x2="109.4018" y2="-4.2967" gradientTransform="matrix(0.9953 -9.707180e-02 9.707180e-02 0.9953 -78.3168 72.0862)">
					<stop  offset="5.376340e-03" style="stop-color:#225C69"/>
					<stop  offset="0.4452" style="stop-color:#368397"/>
					<stop  offset="0.8006" style="stop-color:#439DB6"/>
					<stop  offset="1" style="stop-color:#48A7C1"/>
				</linearGradient>
				<path class="st29" d="M34.9,58.9c-0.2-1.7-1.6-3.6-3.1-4.4c-0.8-0.3-1.4-0.3-1.9,0l0,0l1.5-1.1l0,0c0.5-0.3,1.1-0.3,1.9,0
					c1.6,0.7,3,2.7,3.1,4.4c0.1,0.9-0.2,1.6-0.7,1.9l0,0l-1.3,0.9l0,0C34.8,60.2,35,59.7,34.9,58.9z"/>
				
					<linearGradient id="SVGID_30_" gradientUnits="userSpaceOnUse" x1="108.5749" y1="-3.6998" x2="113.9415" y2="-3.6998" gradientTransform="matrix(0.9953 -9.707180e-02 9.707180e-02 0.9953 -78.3168 72.0862)">
					<stop  offset="6.778585e-03" style="stop-color:#92D4F6"/>
					<stop  offset="0.2627" style="stop-color:#A5DBF4"/>
					<stop  offset="0.7343" style="stop-color:#C4E5F1"/>
					<stop  offset="1" style="stop-color:#CFE9F0"/>
				</linearGradient>
				<path class="st30" d="M29.9,54.5c0.5-0.3,1.1-0.3,1.9,0c1.6,0.7,3,2.7,3.1,4.4c0.1,0.8-0.1,1.3-0.5,1.7c-0.5,0.4-1.2,0.5-2,0.1
					c-1.6-0.7-3-2.7-3.1-4.4C29.2,55.5,29.4,54.8,29.9,54.5z"/>
				
					<linearGradient id="SVGID_31_" gradientUnits="userSpaceOnUse" x1="109.5378" y1="-3.8165" x2="112.5584" y2="-3.8165" gradientTransform="matrix(0.9953 -9.707180e-02 9.707180e-02 0.9953 -78.3168 72.0862)">
					<stop  offset="0" style="stop-color:#FFFFFF"/>
					<stop  offset="0.3662" style="stop-color:#FCFDFE"/>
					<stop  offset="0.6134" style="stop-color:#F3F8FD"/>
					<stop  offset="0.8248" style="stop-color:#E4EFFA"/>
					<stop  offset="1" style="stop-color:#D1E4F6"/>
				</linearGradient>
				<path class="st31" d="M30.6,55.8c0.3-0.2,0.6-0.2,1.1,0c0.9,0.4,1.7,1.5,1.8,2.4c0,0.4-0.1,0.8-0.3,1c-0.3,0.2-0.7,0.3-1.1,0.1
					c-0.9-0.4-1.7-1.5-1.8-2.4C30.2,56.3,30.3,55.9,30.6,55.8z"/>
				
					<linearGradient id="SVGID_32_" gradientUnits="userSpaceOnUse" x1="109.725" y1="-3.8165" x2="112.4675" y2="-3.8165" gradientTransform="matrix(0.9953 -9.707180e-02 9.707180e-02 0.9953 -78.3168 72.0862)">
					<stop  offset="5.376340e-03" style="stop-color:#225C69"/>
					<stop  offset="0.4452" style="stop-color:#368397"/>
					<stop  offset="0.8006" style="stop-color:#439DB6"/>
					<stop  offset="1" style="stop-color:#48A7C1"/>
				</linearGradient>
				<path class="st32" d="M30.6,57.6c0-0.1-0.1-0.1-0.1-0.2c0.2,0,0.4-0.1,0.3-0.4c0-0.3-0.2-0.6-0.5-0.7c0,0,0-0.1,0-0.1
					c0.1,0.1,0.2,0.2,0.3,0.2c0.1,0.1,0.3,0.1,0.4,0c0.2-0.1,0.2-0.4,0-0.7c0,0,0.1,0,0.1,0c0.1,0.3,0.3,0.6,0.5,0.7s0.4,0,0.5-0.2
					c0.1,0,0.1,0.1,0.2,0.1c-0.1,0.2-0.1,0.5,0.1,0.7c0.1,0.2,0.2,0.3,0.4,0.3c0.1,0,0.2,0.1,0.3,0c0,0.1,0.1,0.1,0.1,0.2
					c-0.2,0-0.4,0.1-0.3,0.4c0,0.3,0.2,0.6,0.5,0.7c0,0,0,0.1,0,0.1c-0.1-0.1-0.2-0.2-0.3-0.2c-0.1-0.1-0.3-0.1-0.4,0
					c-0.2,0.1-0.2,0.4,0,0.7c0,0-0.1,0-0.1,0c-0.1-0.3-0.3-0.6-0.5-0.7s-0.4,0-0.5,0.2c-0.1,0-0.1-0.1-0.2-0.1
					c0.1-0.2,0.1-0.5-0.1-0.7c-0.1-0.2-0.2-0.3-0.4-0.3C30.7,57.6,30.7,57.6,30.6,57.6"/>
			</g>
		</g>
	</g>
</g>
</svg>
