<?xml version="1.0" encoding="utf-8"?>
<!-- Generator: Adobe Illustrator 23.0.1, SVG Export Plug-In . SVG Version: 6.00 Build 0)  -->
<svg version="1.1" id="Layer_1" xmlns="http://www.w3.org/2000/svg" xmlns:xlink="http://www.w3.org/1999/xlink" x="0px" y="0px"
	 viewBox="0 0 100 100" style="enable-background:new 0 0 100 100;" xml:space="preserve">
<linearGradient id="Arm_1_" gradientUnits="userSpaceOnUse" x1="-248.3935" y1="432.9593" x2="-248.9948" y2="433.1723" gradientTransform="matrix(-22.4433 0 0 -24.9324 -5563.1362 10820.2266)">
	<stop  offset="0" style="stop-color:#48A7C1"/>
	<stop  offset="0.9995" style="stop-color:#225C69"/>
</linearGradient>
<path id="Arm_10_" style="fill:url(#Arm_1_);" d="M18.8,27.2c0.3-0.7,0.1-1.6-0.6-2.6c-1.1-1.5-1.2-1.5-1.7-2.7
	c-0.6-1.2-1.9-1.8-3.2-1.6c-0.9,0.1-0.4,2,1.4,5.5L18.8,27.2z"/>
<path id="Hand_7_" style="fill:#C1E4EE;" d="M14,25.6c-1.3-0.1-2.1,0-2.4,0.3l0.4,1.2h0.7l1.3-0.3V25.6z"/>
<linearGradient id="Arm_2_" gradientUnits="userSpaceOnUse" x1="-110.1957" y1="25.951" x2="-102.6671" y2="25.951" gradientTransform="matrix(-1 0 0 1 -95.0187 0)">
	<stop  offset="0" style="stop-color:#48A7C1"/>
	<stop  offset="0.9995" style="stop-color:#225C69"/>
</linearGradient>
<path id="Arm_9_" style="fill:url(#Arm_2_);" d="M15.2,27.4c-0.8-0.3-1.3-0.5-1.4-0.5c-0.1,0-1,0.3-1,0.3s-0.6-0.4-1.1-1.1
	c-0.5-0.7-1.4-2.6-2.1-3.1c-0.7-0.5-1.5-0.7-1.9,0.5c-0.4,1.2,2.5,4.2,3.1,4.8c0.7,0.6,1.2,1.6,2.4,1C14,28.8,14.6,28.2,15.2,27.4z"
	/>
<path id="Hand_4_" style="fill:#C1E4EE;" d="M15.2,25.7c0.3-0.6,0.7-1,1.1-1.1c0.6-0.1,1.4,0.2,1.4,1.1
	C17.7,26.2,16.8,26.2,15.2,25.7z"/>
<linearGradient id="Arm_3_" gradientUnits="userSpaceOnUse" x1="-113.9493" y1="26.6464" x2="-108.8315" y2="26.6464" gradientTransform="matrix(-1 0 0 1 -95.0187 0)">
	<stop  offset="0" style="stop-color:#48A7C1"/>
	<stop  offset="0.9995" style="stop-color:#225C69"/>
</linearGradient>
<path id="Arm_8_" style="fill:url(#Arm_3_);" d="M18.4,25.5c-0.9-0.2-3.4-0.3-4.6-0.2l0,1.5c1.2,0.5,2.2,0.9,3.2,1
	c1.4,0.2,1.9-0.5,1.9-1.6C18.9,25.9,18.7,25.7,18.4,25.5z"/>
</svg>
