<?xml version="1.0" encoding="utf-8"?>
<!-- Generator: Adobe Illustrator 23.0.1, SVG Export Plug-In . SVG Version: 6.00 Build 0)  -->
<svg version="1.1" id="Layer_1" xmlns="http://www.w3.org/2000/svg" xmlns:xlink="http://www.w3.org/1999/xlink" x="0px" y="0px"
	 viewBox="0 0 100 100" style="enable-background:new 0 0 100 100;" xml:space="preserve">
<g id="shirt_1_">
	<path id="Cloth_1_" style="fill:#48A7C1;" d="M16.3,32.1c-1.7,0.5-3.1,0.7-4.2,0.5c-1.7-0.3-1.6-8.8-1.6-9c0-0.2,0.1-1.2,0.2-3.1
		l0.2-0.3l0.4-0.1l1.9,0.4l1.1,0.2c0.7,1.5,1.2,3.1,1.4,4.7C15.9,26.9,16.1,29.2,16.3,32.1z"/>
	
		<linearGradient id="Neck_1_" gradientUnits="userSpaceOnUse" x1="-109.4914" y1="21.5748" x2="-105.7956" y2="21.5748" gradientTransform="matrix(-1 0 0 1 -95.0187 0)">
		<stop  offset="0" style="stop-color:#48A7C1"/>
		<stop  offset="0.9995" style="stop-color:#225C69"/>
	</linearGradient>
	<path id="Neck_2_" style="fill:url(#Neck_1_);" d="M11.4,21.7c0.6,0.8,1.2,1.2,1.7,1.3l0.4-1.1l0.7,0.8c0.2-0.4,0.2-0.7,0.2-1
		s-0.3-0.8-0.8-1.4l-2.5-0.3l-0.4,0.1L11.4,21.7z"/>
</g>
<g id="suite_1_">
	<g id="Suit_5_" transform="translate(15.139078, 19.967278)">
		<g id="Mask_6_">
			
				<linearGradient id="path-6_1_" gradientUnits="userSpaceOnUse" x1="-264.9132" y1="420.0107" x2="-265.5146" y2="420.2237" gradientTransform="matrix(-26.5551 0 0 -50.6795 -7043.5361 21297.1191)">
				<stop  offset="0" style="stop-color:#48A7C1"/>
				<stop  offset="0.9995" style="stop-color:#225C69"/>
			</linearGradient>
			<path id="path-6_3_" style="fill:url(#path-6_1_);" d="M-1.3,13.8c1.5,0,1.1-1.4,0.9-5.3c0-1.3-1.5-3.2-2.5-5.2
				C-3.5,2-4,0.9-4.3,0.2c-1,0.9-1.6,1.5-2,1.8c-0.5,0.4-1.8,1.1-0.8,3.3c0.4,0.9,1.3,2.7,1.6,5c0.2,1.7-1.1,3.8,1,3.8
				C-3.2,14.1-1.4,13.8-1.3,13.8z"/>
		</g>
		<defs>
			<filter id="Adobe_OpacityMaskFilter" filterUnits="userSpaceOnUse" x="-4.5" y="0.1" width="4" height="7.6">
				<feColorMatrix  type="matrix" values="1 0 0 0 0  0 1 0 0 0  0 0 1 0 0  0 0 0 1 0"/>
			</filter>
		</defs>
		<mask maskUnits="userSpaceOnUse" x="-4.5" y="0.1" width="4" height="7.6" id="mask-7_2_">
			<g style="filter:url(#Adobe_OpacityMaskFilter);">
				<path id="path-6_2_" style="fill:#FFFFFF;" d="M-1.3,13.8c1.5,0,1.1-1.4,0.9-5.3c0-1.3-1.5-3.2-2.5-5.2C-3.5,2-4,0.9-4.3,0.2
					c-1,0.9-1.6,1.5-2,1.8c-0.5,0.4-1.8,1.1-0.8,3.3c0.4,0.9,1.3,2.7,1.6,5c0.2,1.7-1.1,3.8,1,3.8C-3.2,14.1-1.4,13.8-1.3,13.8z"/>
			</g>
		</mask>
		
			<linearGradient id="Path-21_2_" gradientUnits="userSpaceOnUse" x1="-124.7277" y1="3.9252" x2="-120.7618" y2="3.9252" gradientTransform="matrix(-1 0 0 1 -125.2969 0)">
			<stop  offset="0" style="stop-color:#48A7C1"/>
			<stop  offset="0.9995" style="stop-color:#225C69"/>
		</linearGradient>
		<path id="Path-21_1_" style="mask:url(#mask-7_2_);fill:url(#Path-21_2_);" d="M-4.3,0.1c-0.3,1.2-0.3,2.2,0.1,3.2l0.6,0.1
			l-0.5,0.8l3.6,3.6l-0.6-2.9L-3,1.2L-4.3,0.1z"/>
	</g>
	<g id="Suit_3_" transform="translate(6.092918, 20.131507)">
		<g id="Mask_5_">
			
				<linearGradient id="path-9_1_" gradientUnits="userSpaceOnUse" x1="-250.6399" y1="419.5503" x2="-251.1591" y2="419.8487" gradientTransform="matrix(-13.4566 0 0 -48.5919 -3365.3286 20397.5176)">
				<stop  offset="0" style="stop-color:#48A7C1"/>
				<stop  offset="0.9995" style="stop-color:#225C69"/>
			</linearGradient>
			<path id="path-9_5_" style="fill:url(#path-9_1_);" d="M11.3,12.4c-1.9,1-2.8,1.3-2.8,0.9c0-0.8,0.1-2.6,0-3.2
				c-0.2-0.9,0-2.2,0-3.8s0.1-4-0.9-5.8l0.4-0.5c1.2,0,1.9,0.5,2,1.5c0.1,1.5,0.2,5.8,0.5,7.4C10.7,10.1,11,11.2,11.3,12.4z"/>
		</g>
		<defs>
			<filter id="Adobe_OpacityMaskFilter_1_" filterUnits="userSpaceOnUse" x="6.9" y="-0.2" width="2.6" height="8">
				<feColorMatrix  type="matrix" values="1 0 0 0 0  0 1 0 0 0  0 0 1 0 0  0 0 0 1 0"/>
			</filter>
		</defs>
		<mask maskUnits="userSpaceOnUse" x="6.9" y="-0.2" width="2.6" height="8" id="mask-10_2_">
			<g style="filter:url(#Adobe_OpacityMaskFilter_1_);">
				<path id="path-9_2_" style="fill:#FFFFFF;" d="M11.3,12.4c-1.9,1-2.8,1.3-2.8,0.9c0-0.8,0.1-2.6,0-3.2c-0.2-0.9,0-2.2,0-3.8
					s0.1-4-0.9-5.8l0.4-0.5c1.2,0,1.9,0.5,2,1.5c0.1,1.5,0.2,5.8,0.5,7.4C10.7,10.1,11,11.2,11.3,12.4z"/>
			</g>
		</mask>
		
			<linearGradient id="Path-18_2_" gradientUnits="userSpaceOnUse" x1="-116.6995" y1="3.8447" x2="-114.0631" y2="3.8447" gradientTransform="matrix(-1 0 0 1 -107.2045 0)">
			<stop  offset="0" style="stop-color:#48A7C1"/>
			<stop  offset="0.9995" style="stop-color:#225C69"/>
		</linearGradient>
		<path id="Path-18_1_" style="mask:url(#mask-10_2_);fill:url(#Path-18_2_);" d="M8.2-0.2C8.7,1,9.1,1.8,9.3,2.3L9,2.6l0.5,0.2
			c-0.2,2.2-0.6,3.8-1,4.8C8,8.6,7.5,6.5,7,1.4C6.9,0.5,6.9,0.1,6.9,0.1S7.3,0,8.2-0.2z"/>
	</g>
</g>
<path id="Tie_1_" d="M13,22.7l0.6,0.6l0.4,7.6l0.7,0.7l0.8-1.3c-0.5-2.8-0.8-4.7-1-5.4c-0.2-0.8-0.4-1.3-0.5-1.7l0.3-0.8l-0.5-0.7
	L13,21.9V22.7z"/>
</svg>
