<?xml version="1.0" encoding="utf-8"?>
<!-- Generator: Adobe Illustrator 23.0.1, SVG Export Plug-In . SVG Version: 6.00 Build 0)  -->
<svg version="1.1" id="Layer_1" xmlns="http://www.w3.org/2000/svg" xmlns:xlink="http://www.w3.org/1999/xlink" x="0px" y="0px"
	 viewBox="0 0 100 100" style="enable-background:new 0 0 100 100;" xml:space="preserve">
<g id="right_4_">
	<g>
		<g>
			<path style="fill:#F1F1F1;" d="M88,47.3c0.3,0.2,0.6,0.6,0.6,1c0,0.4-0.2,0.5-0.6,0.3l-8.3-4.8c-0.3-0.2-0.6-0.6-0.6-1
				c0-0.4,0.3-0.5,0.6-0.3L88,47.3z"/>
		</g>
		<g style="enable-background:new    ;">
			<g>
				<path style="fill:#F1F1F1;" d="M83.7,69.2c0.3,0.2,0.6,0.6,0.6,1c0,0.4-0.3,0.5-0.6,0.3l-4.1-2.3c-0.3-0.2-0.6-0.6-0.6-1
					c0-0.4,0.3-0.5,0.6-0.3L83.7,69.2z"/>
			</g>
			<g>
				<path style="fill:#F1F1F1;" d="M87.9,69.7c0.3,0.2,0.6,0.6,0.6,1c0,0.4-0.2,0.5-0.6,0.3l-8.3-4.8c-0.3-0.2-0.6-0.6-0.6-1
					c0-0.4,0.3-0.5,0.6-0.3L87.9,69.7z"/>
			</g>
		</g>
	</g>
	<g>
		<linearGradient id="SVGID_1_" gradientUnits="userSpaceOnUse" x1="84.5746" y1="58.3561" x2="87.3724" y2="53.5102">
			<stop  offset="0" style="stop-color:#48A7C1"/>
			<stop  offset="1" style="stop-color:#7AC8D1"/>
		</linearGradient>
		<path style="fill:url(#SVGID_1_);" d="M83.4,51.2C83.4,51.2,83.4,51.2,83.4,51.2c0.2,0.2,0.6,1.2,0.9,2.3c0.3,1.1,0.5,2.2,0.8,3
			c0.3,0.7,0.5,1.2,1,1.5c0,0,0,0,0,0c0.4,0.2,0.6,0,0.9-0.1c0,0,0.8,1.1,0.9,1.2c0.2,0.1,1,1,1.1,1.1c0.1,0.2,0.2,0.5-0.7,0.2
			c-0.5-0.2-1.7-0.8-2.5-1.2c-0.4-0.2-0.6-0.4-0.8-0.5c-0.4-0.4-0.6-0.8-0.8-1.4c-0.1-0.6-0.6-2.2-0.8-2.6c-0.1-0.2-0.2-0.3-0.3-0.4
			c-0.1-0.1-0.2-0.1-0.2,0c-0.1,0.2-0.2,0.8-0.2,1.3c0,0.5,0,1.7,0,1.8l-0.3-0.1c0-0.1,0.1-2.8-0.1-3.5c-0.2-0.8-0.2-1.4-0.1-1.8
			C82.6,51.5,83.2,51.1,83.4,51.2z"/>
	</g>
</g>
</svg>
