<?xml version="1.0" encoding="utf-8"?>
<!-- Generator: Adobe Illustrator 23.0.1, SVG Export Plug-In . SVG Version: 6.00 Build 0)  -->
<svg version="1.1" id="Layer_1" xmlns="http://www.w3.org/2000/svg" xmlns:xlink="http://www.w3.org/1999/xlink" x="0px" y="0px"
	 viewBox="0 0 100 100" style="enable-background:new 0 0 100 100;" xml:space="preserve">
<g id="right-leg_8_">
	<path id="Shoes_10_" style="fill:#1C1A3A;" d="M11.3,49.3c0.2,0.4,0.5,0.8,0.8,1.2c0.5,0.6,1.2,1.6,0.7,2.2s-2.3-0.3-2.6-1
		c-0.2-0.7-0.4-1.1-0.5-1.2l-0.1,0.2c-0.4-0.4-0.6-0.6-0.6-0.8c0-0.1,0-0.7,0-1.8L11.3,49.3z"/>
	
		<linearGradient id="Foot_1_" gradientUnits="userSpaceOnUse" x1="-248.5217" y1="442.1476" x2="-249.4812" y2="442.4389" gradientTransform="matrix(-21.094 0 0 -67.3484 -5234.0811 29821.4863)">
		<stop  offset="0" style="stop-color:#48A7C1"/>
		<stop  offset="0.9995" style="stop-color:#225C69"/>
	</linearGradient>
	<path id="Foot_6_" style="fill:url(#Foot_1_);" d="M9.6,34.6C9.2,42.3,9,46.7,9,47.9c0,1.8,0.8,2.2,1.4,2.2c0.4,0,0.8,0,1.2-0.1
		c0-3.2,0.2-5.7,0.4-7.3c0.4-2.5,1.1-4.6,1.7-7.4c0.4-1.9,0.8-3.1,1.1-3.6l-5.2,1V34.6z"/>
</g>
</svg>
