<?xml version="1.0" encoding="utf-8"?>
<!-- Generator: Adobe Illustrator 23.0.1, SVG Export Plug-In . SVG Version: 6.00 Build 0)  -->
<svg version="1.1" id="Layer_1" xmlns="http://www.w3.org/2000/svg" xmlns:xlink="http://www.w3.org/1999/xlink" x="0px" y="0px"
	 viewBox="0 0 100 100" style="enable-background:new 0 0 100 100;" xml:space="preserve">
<g id="left_4_">
	<g>
		<g>
			<path style="fill:#F1F1F1;" d="M45.8,23c0.3,0.2,0.6,0.6,0.6,1c0,0.4-0.2,0.5-0.6,0.3l-8.3-4.8c-0.3-0.2-0.6-0.6-0.6-1
				c0-0.4,0.3-0.5,0.6-0.3L45.8,23z"/>
		</g>
		<g style="enable-background:new    ;">
			<g>
				<path style="fill:#F1F1F1;" d="M41.6,44.8c0.3,0.2,0.6,0.6,0.6,1c0,0.4-0.3,0.5-0.6,0.3l-4.1-2.3c-0.3-0.2-0.6-0.6-0.6-1
					c0-0.4,0.3-0.5,0.6-0.3L41.6,44.8z"/>
			</g>
			<g>
				<path style="fill:#F1F1F1;" d="M45.7,45.3c0.3,0.2,0.6,0.6,0.6,1c0,0.4-0.2,0.5-0.6,0.3l-8.3-4.8c-0.3-0.2-0.6-0.6-0.6-1
					c0-0.4,0.3-0.5,0.6-0.3L45.7,45.3z"/>
			</g>
		</g>
	</g>
	<g>
		<g>
			
				<linearGradient id="SVGID_1_" gradientUnits="userSpaceOnUse" x1="-221.6664" y1="27.6413" x2="-222.0035" y2="27.0575" gradientTransform="matrix(-1 0 0 1 -178.5803 0)">
				<stop  offset="0" style="stop-color:#48A7C1"/>
				<stop  offset="1" style="stop-color:#7AC8D1"/>
			</linearGradient>
			<path style="fill:url(#SVGID_1_);" d="M41.4,25.9c-0.1-0.1-0.2,0-0.2,0.1l0,0.5l1,0.6l0.7,0.4l0.3,0.2l1,0.6l1,0.6l0-0.5
				c0-0.1-0.1-0.3-0.2-0.4L41.4,25.9z"/>
		</g>
		<g>
			
				<linearGradient id="SVGID_2_" gradientUnits="userSpaceOnUse" x1="-219.6695" y1="27.8435" x2="-220.2563" y2="26.8272" gradientTransform="matrix(-1 0 0 1 -178.5803 0)">
				<stop  offset="0" style="stop-color:#48A7C1"/>
				<stop  offset="1" style="stop-color:#7AC8D1"/>
			</linearGradient>
			<path style="fill:url(#SVGID_2_);" d="M41.1,26.5l0,1.1l0,0.2c0.8,0,1-0.7,1.1-0.7L41.1,26.5z"/>
		</g>
		<g>
			
				<linearGradient id="SVGID_3_" gradientUnits="userSpaceOnUse" x1="-219.9142" y1="36.8774" x2="-224.3516" y2="29.1916" gradientTransform="matrix(-1 0 0 1 -178.5803 0)">
				<stop  offset="0" style="stop-color:#48A7C1"/>
				<stop  offset="1" style="stop-color:#7AC8D1"/>
			</linearGradient>
			<path style="fill:url(#SVGID_3_);" d="M41.1,27.6l-0.3,9l1.3,0.8l1-7.5l1,8.6l1.3,0.8L45.3,30l0,0.2c-0.8-0.9-1-1.9-1-2l-1-0.6
				l0,1.8c-0.3-0.3-0.3-0.7-0.3-0.7l0-1.2l-0.7-0.4c0,0-0.2,0.8-1.1,0.7L41.1,27.6z"/>
		</g>
		<g style="enable-background:new    ;">
			<g>
				
					<linearGradient id="SVGID_4_" gradientUnits="userSpaceOnUse" x1="-223.0442" y1="29.7919" x2="-223.631" y2="28.7755" gradientTransform="matrix(-1 0 0 1 -178.5803 0)">
					<stop  offset="0" style="stop-color:#48A7C1"/>
					<stop  offset="1" style="stop-color:#7AC8D1"/>
				</linearGradient>
				<path style="fill:url(#SVGID_4_);" d="M44.2,28.3c0,0.1,0.2,1,1,2l0-0.2l0-1l0-0.1L44.2,28.3z"/>
			</g>
			<g>
				<linearGradient id="SVGID_5_" gradientUnits="userSpaceOnUse" x1="45.2813" y1="28.9681" x2="45.282" y2="28.9681">
					<stop  offset="0" style="stop-color:#6485C3"/>
					<stop  offset="1" style="stop-color:#39509D"/>
				</linearGradient>
				<polygon style="fill:url(#SVGID_5_);" points="45.3,28.9 45.3,29 45.3,28.9 				"/>
			</g>
		</g>
		<g style="opacity:0.5;">
			
				<linearGradient id="SVGID_6_" gradientUnits="userSpaceOnUse" x1="-222.0373" y1="27.8554" x2="-221.2616" y2="29.1991" gradientTransform="matrix(-1 0 0 1 -178.5803 0)">
				<stop  offset="0" style="stop-color:#4094AB"/>
				<stop  offset="1" style="stop-color:#AEC9D1"/>
			</linearGradient>
			<path style="fill:url(#SVGID_6_);" d="M42.9,27.6l0,1.2c0,0,0,0.5,0.3,0.7l0-1.8L42.9,27.6z"/>
		</g>
	</g>
</g>
</svg>
