<?xml version="1.0" encoding="utf-8"?>
<!-- Generator: Adobe Illustrator 23.0.1, SVG Export Plug-In . SVG Version: 6.00 Build 0)  -->
<svg version="1.1" id="Layer_1" xmlns="http://www.w3.org/2000/svg" xmlns:xlink="http://www.w3.org/1999/xlink" x="0px" y="0px"
	 viewBox="0 0 100 100" style="enable-background:new 0 0 100 100;" xml:space="preserve">
<g id="base-top_4_">
	<g id="XMLID_29_">
		
			<linearGradient id="XMLID_2_" gradientUnits="userSpaceOnUse" x1="1632.4078" y1="57.325" x2="1644.8149" y2="57.325" gradientTransform="matrix(1 0 0 1 -1597.6323 0)">
			<stop  offset="0" style="stop-color:#225C69"/>
			<stop  offset="1" style="stop-color:#A0BEC7"/>
		</linearGradient>
		<path id="XMLID_30_" style="fill:url(#XMLID_2_);" d="M47.7,58.2l0.5,4.4l0,0c-0.3,0.2-0.7,0.2-1,0l-10.4-6.1
			c-0.3-0.2-0.5-0.5-0.5-0.8v-3.8L47.7,58.2z"/>
	</g>
	<g id="XMLID_27_">
		<linearGradient id="XMLID_3_" gradientUnits="userSpaceOnUse" x1="47.657" y1="57.3688" x2="58.339" y2="57.3688">
			<stop  offset="0" style="stop-color:#225C69"/>
			<stop  offset="1" style="stop-color:#A0BEC7"/>
		</linearGradient>
		<path id="XMLID_28_" style="fill:url(#XMLID_3_);" d="M58.3,52.2V56c0,0.3-0.2,0.7-0.5,0.8l-9.7,5.7c-0.2,0.1-0.5,0-0.5-0.3v-4.4
			L58.3,52.2z"/>
	</g>
	<path id="XMLID_26_" style="fill:#48A7C1;" d="M58.2,52.5l-9.9,5.9c-0.4,0.3-1,0.3-1.5,0l-10.4-6.1c-0.3-0.2-0.3-0.6,0-0.8L46.6,46
		c0.5-0.3,1-0.2,1.5,0l10.2,5.9C58.4,52.1,58.4,52.4,58.2,52.5z"/>
	<linearGradient id="XMLID_4_" gradientUnits="userSpaceOnUse" x1="37.8742" y1="52" x2="56.7135" y2="52">
		<stop  offset="0" style="stop-color:#63A9DA"/>
		<stop  offset="1" style="stop-color:#FFFFFF"/>
	</linearGradient>
	<path id="XMLID_25_" style="fill:url(#XMLID_4_);" d="M56.6,52.3l-8.5,5c-0.4,0.2-0.9,0.2-1.2,0l-8.8-5.2c-0.3-0.1-0.2-0.5,0-0.7
		l8.6-4.7c0.4-0.2,0.9-0.2,1.2,0l8.7,5.1C56.8,52,56.8,52.2,56.6,52.3z"/>
	<linearGradient id="SVGID_1_" gradientUnits="userSpaceOnUse" x1="48.723" y1="59.3" x2="49.9068" y2="59.3">
		<stop  offset="0" style="stop-color:#FFFFFF"/>
		<stop  offset="0.2591" style="stop-color:#F4F4F5"/>
		<stop  offset="0.7191" style="stop-color:#D5D7D9"/>
		<stop  offset="0.9935" style="stop-color:#C0C3C6"/>
	</linearGradient>
	<path style="fill:url(#SVGID_1_);" d="M48.7,60c0,0,0.7-0.3,1.1-0.7c0.2-0.2,0.1-0.7-0.3-0.7c-0.2,0-0.4,0-0.8,0.2V60z"/>
	<linearGradient id="SVGID_2_" gradientUnits="userSpaceOnUse" x1="48.3969" y1="59.065" x2="49.2299" y2="59.9769">
		<stop  offset="0" style="stop-color:#000000"/>
		<stop  offset="1" style="stop-color:#000000;stop-opacity:0.2"/>
	</linearGradient>
	<path style="opacity:0.25;fill:url(#SVGID_2_);enable-background:new    ;" d="M48.7,59.1v-0.3c0,0,0.7,0.6,0,1.2V59.1z"/>
	<linearGradient id="SVGID_3_" gradientUnits="userSpaceOnUse" x1="48.6826" y1="59.9883" x2="49.7198" y2="61.4135">
		<stop  offset="0" style="stop-color:#FFFFFF"/>
		<stop  offset="0.2591" style="stop-color:#F4F4F5"/>
		<stop  offset="0.7191" style="stop-color:#D5D7D9"/>
		<stop  offset="0.9935" style="stop-color:#C0C3C6"/>
	</linearGradient>
	<path style="fill:url(#SVGID_3_);" d="M48.7,61.4c0,0,0.7-0.3,1.1-0.7c0.2-0.2,0.1-0.7-0.3-0.7c-0.2,0-0.4,0-0.8,0.2V61.4z"/>
	<linearGradient id="SVGID_4_" gradientUnits="userSpaceOnUse" x1="48.4011" y1="60.4696" x2="49.2341" y2="61.3815">
		<stop  offset="0" style="stop-color:#000000"/>
		<stop  offset="1" style="stop-color:#000000;stop-opacity:0.2"/>
	</linearGradient>
	<path style="opacity:0.25;fill:url(#SVGID_4_);enable-background:new    ;" d="M48.7,60.5v-0.3c0,0,0.7,0.6,0,1.2V60.5z"/>
	
		<linearGradient id="SVGID_5_" gradientUnits="userSpaceOnUse" x1="838.9974" y1="59.3" x2="840.1812" y2="59.3" gradientTransform="matrix(-1 0 0 1 885.3859 0)">
		<stop  offset="0" style="stop-color:#FFFFFF"/>
		<stop  offset="0.2591" style="stop-color:#F4F4F5"/>
		<stop  offset="0.7191" style="stop-color:#D5D7D9"/>
		<stop  offset="0.9935" style="stop-color:#C0C3C6"/>
	</linearGradient>
	<path style="fill:url(#SVGID_5_);" d="M46.4,60c0,0-0.7-0.3-1.1-0.7c-0.2-0.2-0.1-0.7,0.3-0.7c0.2,0,0.4,0,0.8,0.2V60z"/>
	
		<linearGradient id="SVGID_6_" gradientUnits="userSpaceOnUse" x1="838.6828" y1="59.065" x2="839.5158" y2="59.9768" gradientTransform="matrix(-1 0 0 1 885.3859 0)">
		<stop  offset="0" style="stop-color:#000000"/>
		<stop  offset="1" style="stop-color:#000000;stop-opacity:0.2"/>
	</linearGradient>
	<path style="opacity:0.25;fill:url(#SVGID_6_);enable-background:new    ;" d="M46.4,59.1v-0.3c0,0-0.7,0.6,0,1.2V59.1z"/>
	
		<linearGradient id="SVGID_7_" gradientUnits="userSpaceOnUse" x1="838.9974" y1="60.7" x2="840.1812" y2="60.7" gradientTransform="matrix(-1 0 0 1 885.3859 0)">
		<stop  offset="0" style="stop-color:#FFFFFF"/>
		<stop  offset="0.2591" style="stop-color:#F4F4F5"/>
		<stop  offset="0.7191" style="stop-color:#D5D7D9"/>
		<stop  offset="0.9935" style="stop-color:#C0C3C6"/>
	</linearGradient>
	<path style="fill:url(#SVGID_7_);" d="M46.4,61.4c0,0-0.7-0.3-1.1-0.7c-0.2-0.2-0.1-0.7,0.3-0.7c0.2,0,0.4,0,0.8,0.2V61.4z"/>
	
		<linearGradient id="SVGID_8_" gradientUnits="userSpaceOnUse" x1="838.687" y1="60.4696" x2="839.52" y2="61.3815" gradientTransform="matrix(-1 0 0 1 885.3859 0)">
		<stop  offset="0" style="stop-color:#000000"/>
		<stop  offset="1" style="stop-color:#000000;stop-opacity:0.2"/>
	</linearGradient>
	<path style="opacity:0.25;fill:url(#SVGID_8_);enable-background:new    ;" d="M46.4,60.5v-0.3c0,0-0.7,0.6,0,1.2V60.5z"/>
	<g>
		<linearGradient id="SVGID_9_" gradientUnits="userSpaceOnUse" x1="47.3262" y1="60.6334" x2="48.7105" y2="61.6638">
			<stop  offset="0" style="stop-color:#FFFFFF"/>
			<stop  offset="0.2591" style="stop-color:#F4F4F5"/>
			<stop  offset="0.7191" style="stop-color:#D5D7D9"/>
			<stop  offset="0.9935" style="stop-color:#C0C3C6"/>
		</linearGradient>
		<path style="fill:url(#SVGID_9_);" d="M48.9,60.6l-0.6,0.3c-0.4,0.3-1,0.3-1.5,0l-0.6-0.3V61l0.6,0.3c0.4,0.3,1,0.3,1.5,0l0.6-0.3
			V60.6z"/>
	</g>
	<linearGradient id="SVGID_10_" gradientUnits="userSpaceOnUse" x1="46.9202" y1="59.4979" x2="49.5532" y2="59.452">
		<stop  offset="0" style="stop-color:#FFFFFF"/>
		<stop  offset="0.2591" style="stop-color:#F4F4F5"/>
		<stop  offset="0.7191" style="stop-color:#D5D7D9"/>
		<stop  offset="0.9935" style="stop-color:#C0C3C6"/>
	</linearGradient>
	<path style="fill:url(#SVGID_10_);" d="M46.4,59.1l0.4,0.3c0.4,0.3,1,0.3,1.5,0l0.4-0.3l0.1,0.1l-0.5,0.5l-1.1,0.2l-0.5-0.2
		l-0.5-0.4L46.4,59.1z"/>
	<g>
		<linearGradient id="SVGID_11_" gradientUnits="userSpaceOnUse" x1="47.3187" y1="59.2279" x2="48.703" y2="60.2582">
			<stop  offset="0" style="stop-color:#FFFFFF"/>
			<stop  offset="0.2591" style="stop-color:#F4F4F5"/>
			<stop  offset="0.7191" style="stop-color:#D5D7D9"/>
			<stop  offset="0.9935" style="stop-color:#C0C3C6"/>
		</linearGradient>
		<path style="fill:url(#SVGID_11_);" d="M48.9,59.2l-0.6,0.3c-0.4,0.3-1,0.3-1.5,0l-0.6-0.3v0.4l0.6,0.3c0.4,0.3,1,0.3,1.5,0
			l0.6-0.3V59.2z"/>
	</g>
	<linearGradient id="SVGID_12_" gradientUnits="userSpaceOnUse" x1="52.0755" y1="56.75" x2="54.9165" y2="56.75">
		<stop  offset="0" style="stop-color:#FFFFFF"/>
		<stop  offset="0.2591" style="stop-color:#F4F4F5"/>
		<stop  offset="0.7191" style="stop-color:#D5D7D9"/>
		<stop  offset="0.9935" style="stop-color:#C0C3C6"/>
	</linearGradient>
	<polygon style="fill:url(#SVGID_12_);" points="54.9,56.3 52.1,57.9 52.1,57.2 54.9,55.6 	"/>
	<linearGradient id="SVGID_13_" gradientUnits="userSpaceOnUse" x1="52.0755" y1="58.05" x2="54.9165" y2="58.05">
		<stop  offset="0" style="stop-color:#FFFFFF"/>
		<stop  offset="0.2591" style="stop-color:#F4F4F5"/>
		<stop  offset="0.7191" style="stop-color:#D5D7D9"/>
		<stop  offset="0.9935" style="stop-color:#C0C3C6"/>
	</linearGradient>
	<polygon style="fill:url(#SVGID_13_);" points="54.9,57.6 52.1,59.2 52.1,58.5 54.9,56.9 	"/>
	<linearGradient id="SVGID_14_" gradientUnits="userSpaceOnUse" x1="52.886" y1="55.95" x2="57.8019" y2="55.95">
		<stop  offset="0" style="stop-color:#315CA7"/>
		<stop  offset="0.1829" style="stop-color:#3167B0"/>
		<stop  offset="0.5089" style="stop-color:#3286C6"/>
		<stop  offset="0.9373" style="stop-color:#33B7EA"/>
		<stop  offset="0.9946" style="stop-color:#33BEF0"/>
	</linearGradient>
	<polygon style="opacity:0.2;fill:url(#SVGID_14_);enable-background:new    ;" points="54.9,56.3 54.4,55.9 54.9,55.6 	"/>
	<linearGradient id="SVGID_15_" gradientUnits="userSpaceOnUse" x1="52.886" y1="57.25" x2="57.8019" y2="57.25">
		<stop  offset="0" style="stop-color:#315CA7"/>
		<stop  offset="0.1829" style="stop-color:#3167B0"/>
		<stop  offset="0.5089" style="stop-color:#3286C6"/>
		<stop  offset="0.9373" style="stop-color:#33B7EA"/>
		<stop  offset="0.9946" style="stop-color:#33BEF0"/>
	</linearGradient>
	<polygon style="opacity:0.2;fill:url(#SVGID_15_);enable-background:new    ;" points="54.9,57.6 54.4,57.2 54.9,56.9 	"/>
	<linearGradient id="SVGID_16_" gradientUnits="userSpaceOnUse" x1="46.9199" y1="60.8979" x2="49.5529" y2="60.852">
		<stop  offset="0" style="stop-color:#FFFFFF"/>
		<stop  offset="0.2591" style="stop-color:#F4F4F5"/>
		<stop  offset="0.7191" style="stop-color:#D5D7D9"/>
		<stop  offset="0.9935" style="stop-color:#C0C3C6"/>
	</linearGradient>
	<path style="fill:url(#SVGID_16_);" d="M46.4,60.5l0.4,0.3c0.4,0.3,1,0.3,1.5,0l0.4-0.3l0.1,0.1l-0.5,0.5l-1.1,0.2L46.8,61
		l-0.5-0.4L46.4,60.5z"/>
	
		<ellipse id="lights_32_" transform="matrix(0.8633 -0.5047 0.5047 0.8633 -23.0849 27.9806)" style="fill:#48A7C1;" cx="40.1" cy="56.6" rx="0.4" ry="0.6"/>
	
		<ellipse id="lights_31_" transform="matrix(0.8633 -0.5047 0.5047 0.8633 -23.3385 28.852)" style="fill:#53B9A6;" cx="41.6" cy="57.5" rx="0.4" ry="0.6"/>
	
		<ellipse id="lights_30_" transform="matrix(0.8633 -0.5047 0.5047 0.8633 -23.5681 29.7865)" style="fill:#48A7C1;" cx="43.2" cy="58.4" rx="0.4" ry="0.6"/>
</g>
</svg>
