<?xml version="1.0" encoding="utf-8"?>
<!-- Generator: Adobe Illustrator 23.0.1, SVG Export Plug-In . SVG Version: 6.00 Build 0)  -->
<svg version="1.1" id="Layer_1" xmlns="http://www.w3.org/2000/svg" xmlns:xlink="http://www.w3.org/1999/xlink" x="0px" y="0px"
	 viewBox="0 0 100 100" style="enable-background:new 0 0 100 100;" xml:space="preserve">
<g id="water_1_">
	<path id="XMLID_1042_" style="opacity:0.5;fill:#223466;enable-background:new    ;" d="M19.1,84.9C19,84.9,19,84.9,19.1,84.9
		l-13-7.1C6,77.8,6,77.7,6,77.6s0.1-0.1,0.2-0.1l12.9,7.1c0.1,0,0.1,0.1,0.1,0.2C19.2,84.9,19.1,84.9,19.1,84.9z"/>
	<path id="XMLID_1041_" style="opacity:0.5;fill:#223466;enable-background:new    ;" d="M32.8,86.4L32.8,86.4l-13-7.1
		c-0.1,0-0.1-0.1-0.1-0.2s0.1-0.1,0.2-0.1l12.9,7.1C32.9,86.1,32.9,86.2,32.8,86.4C32.9,86.4,32.9,86.4,32.8,86.4z"/>
	<path id="XMLID_1040_" style="opacity:0.5;fill:#223466;enable-background:new    ;" d="M43.7,80.3C43.6,80.3,43.6,80.3,43.7,80.3
		l-13-7.1c-0.1,0-0.1-0.1-0.1-0.2s0.1-0.1,0.2-0.1L43.7,80c0.1,0,0.1,0.1,0.1,0.2C43.8,80.3,43.7,80.3,43.7,80.3z"/>
	<path id="XMLID_1039_" style="opacity:0.5;fill:#223466;enable-background:new    ;" d="M66.1,70.6C66.1,70.6,66,70.6,66.1,70.6
		l-13-7.1c-0.1,0-0.1-0.1-0.1-0.2c0-0.1,0.1-0.1,0.2-0.1l12.9,7.1C66.2,70.3,66.2,70.4,66.1,70.6C66.2,70.6,66.1,70.6,66.1,70.6z"/>
	<path id="XMLID_1038_" style="opacity:0.5;fill:#223466;enable-background:new    ;" d="M75.8,65.7C75.8,65.7,75.7,65.7,75.8,65.7
		l-13-7.1c-0.1,0-0.1-0.1-0.1-0.2c0-0.1,0.1-0.1,0.2-0.1l12.9,7.1C75.9,65.4,75.9,65.5,75.8,65.7C75.9,65.7,75.8,65.7,75.8,65.7z"/>
	<path id="XMLID_1037_" style="opacity:0.5;fill:#223466;enable-background:new    ;" d="M86.4,56.7C86.4,56.7,86.3,56.6,86.4,56.7
		l-13-7.1c-0.1,0-0.1-0.1-0.1-0.2c0-0.1,0.1-0.1,0.2-0.1l12.9,7.1C86.5,56.4,86.5,56.5,86.4,56.7C86.5,56.6,86.4,56.7,86.4,56.7z"/>
	<path id="XMLID_1036_" style="opacity:0.5;fill:#223466;enable-background:new    ;" d="M98.7,54.7C98.7,54.7,98.6,54.7,98.7,54.7
		l-13-7.1c-0.1,0-0.1-0.1-0.1-0.2c0-0.1,0.1-0.1,0.2-0.1l12.9,7.1C98.8,54.4,98.8,54.5,98.7,54.7C98.8,54.7,98.7,54.7,98.7,54.7z"/>
	<path id="XMLID_1035_" style="opacity:0.5;fill:#223466;enable-background:new    ;" d="M68.8,46.9L68.8,46.9l-13-7.1
		c-0.1,0-0.1-0.1-0.1-0.2c0-0.1,0.1-0.1,0.2-0.1l12.9,7.1C68.9,46.6,68.9,46.7,68.8,46.9C68.9,46.9,68.9,46.9,68.8,46.9z"/>
	<path id="XMLID_1034_" style="opacity:0.5;fill:#223466;enable-background:new    ;" d="M71.7,51C71.7,51,71.6,51,71.7,51l-13-7.1
		c-0.1,0-0.1-0.1-0.1-0.2c0-0.1,0.1-0.1,0.2-0.1l12.9,7.1C71.8,50.7,71.8,50.8,71.7,51C71.8,51,71.7,51,71.7,51z"/>
	<path id="XMLID_1033_" style="opacity:0.5;fill:#223466;enable-background:new    ;" d="M79.9,41.5L79.9,41.5l-13-7.1
		c-0.1,0-0.1-0.1-0.1-0.2c0-0.1,0.1-0.1,0.2-0.1l13,7.1c0.1,0,0.1,0.1,0.1,0.2C80,41.5,80,41.5,79.9,41.5z"/>
	<path id="XMLID_1032_" style="opacity:0.5;fill:#223466;enable-background:new    ;" d="M94.2,44.5L94.2,44.5l-13-7.1
		c-0.1,0-0.1-0.1-0.1-0.2c0-0.1,0.1-0.1,0.2-0.1l12.9,7.1C94.3,44.2,94.3,44.3,94.2,44.5C94.3,44.5,94.3,44.5,94.2,44.5z"/>
	<path id="XMLID_1031_" style="opacity:0.5;fill:#223466;enable-background:new    ;" d="M82.8,45.6C82.8,45.6,82.7,45.6,82.8,45.6
		l-13-7.1c-0.1,0-0.1-0.1-0.1-0.2c0-0.1,0.1-0.1,0.2-0.1l12.9,7.1C82.9,45.3,82.9,45.4,82.8,45.6C82.9,45.6,82.9,45.6,82.8,45.6z"/>
	<path id="XMLID_1030_" style="opacity:0.5;fill:#223466;enable-background:new    ;" d="M49.3,55.8C49.2,55.8,49.2,55.8,49.3,55.8
		l-13-7.1c-0.1,0-0.1-0.1-0.1-0.2c0-0.1,0.1-0.1,0.2-0.1l12.9,7.1c0.1,0,0.1,0.1,0.1,0.2C49.4,55.8,49.3,55.8,49.3,55.8z"/>
	<path id="XMLID_1029_" style="opacity:0.5;fill:#223466;enable-background:new    ;" d="M57.8,54.4L57.8,54.4l-13-7.1
		c-0.1,0-0.1-0.1-0.1-0.2c0-0.1,0.1-0.1,0.2-0.1l12.9,7.1c0.1,0,0.1,0.1,0.1,0.2C57.9,54.4,57.9,54.4,57.8,54.4z"/>
	<path id="XMLID_1028_" style="opacity:0.5;fill:#223466;enable-background:new    ;" d="M52.9,74C52.8,74,52.8,74,52.9,74l-13-7.1
		c-0.1,0-0.1-0.1-0.1-0.2s0.1-0.1,0.2-0.1l12.9,7.1C53,73.7,53,73.8,52.9,74C53,74,52.9,74,52.9,74z"/>
	<path id="XMLID_1027_" style="opacity:0.5;fill:#223466;enable-background:new    ;" d="M35.7,64.5L35.7,64.5l-13-7.1
		c-0.1,0-0.1-0.1-0.1-0.2c0-0.1,0.1-0.1,0.2-0.1l12.9,7.1C35.8,64.2,35.8,64.3,35.7,64.5C35.8,64.5,35.8,64.5,35.7,64.5z"/>
	<path id="XMLID_1026_" style="opacity:0.5;fill:#223466;enable-background:new    ;" d="M39.2,64.2C39.2,64.2,39.2,64.1,39.2,64.2
		l-13-7.1c-0.1,0-0.1-0.1-0.1-0.2c0-0.1,0.1-0.1,0.2-0.1l12.9,7.1C39.3,63.9,39.3,64,39.2,64.2C39.3,64.1,39.3,64.2,39.2,64.2z"/>
	<path id="XMLID_1025_" style="opacity:0.5;fill:#223466;enable-background:new    ;" d="M21.1,74L21.1,74l-13-7.1
		C8,66.9,8,66.8,8,66.7s0.1-0.1,0.2-0.1l12.9,7.1c0.1,0,0.1,0.1,0.1,0.2C21.2,74,21.2,74,21.1,74z"/>
</g>
</svg>
