<?xml version="1.0" encoding="utf-8"?>
<!-- Generator: Adobe Illustrator 23.0.1, SVG Export Plug-In . SVG Version: 6.00 Build 0)  -->
<svg version="1.1" id="Layer_1" xmlns="http://www.w3.org/2000/svg" xmlns:xlink="http://www.w3.org/1999/xlink" x="0px" y="0px"
	 viewBox="0 0 100 100" style="enable-background:new 0 0 100 100;" xml:space="preserve">
<g id="base-top_5_">
	<g id="XMLID_42_">
		
			<linearGradient id="XMLID_2_" gradientUnits="userSpaceOnUse" x1="1608.3254" y1="56.675" x2="1620.7325" y2="56.675" gradientTransform="matrix(1 0 0 -1 -1597.6323 100)">
			<stop  offset="0" style="stop-color:#225C69"/>
			<stop  offset="1" style="stop-color:#A0BEC7"/>
		</linearGradient>
		<path id="XMLID_43_" style="fill:url(#XMLID_2_);" d="M23.6,44.2l0.5,4.4l0,0c-0.3,0.2-0.7,0.2-1,0l-10.4-6.1
			c-0.3-0.2-0.5-0.5-0.5-0.8v-3.8L23.6,44.2z"/>
	</g>
	<g id="XMLID_39_">
		
			<linearGradient id="XMLID_3_" gradientUnits="userSpaceOnUse" x1="39.065" y1="56.6312" x2="19.6886" y2="56.6312" gradientTransform="matrix(1 0 0 -1 0 100)">
			<stop  offset="0" style="stop-color:#225C69"/>
			<stop  offset="1" style="stop-color:#A0BEC7"/>
		</linearGradient>
		<path id="XMLID_41_" style="fill:url(#XMLID_3_);" d="M34.3,38.2V42c0,0.3-0.2,0.7-0.5,0.8l-9.7,5.7c-0.2,0.1-0.5,0-0.5-0.3v-4.4
			L34.3,38.2z"/>
	</g>
	<path id="XMLID_37_" style="fill:#48A7C1;" d="M34.1,38.5l-9.9,5.9c-0.4,0.3-1,0.3-1.5,0l-10.4-6.1c-0.3-0.2-0.3-0.6,0-0.8L22.5,32
		c0.5-0.3,1-0.2,1.5,0l10.1,6C34.3,38.1,34.3,38.4,34.1,38.5z"/>
	
		<linearGradient id="XMLID_4_" gradientUnits="userSpaceOnUse" x1="13.7918" y1="61.95" x2="32.6311" y2="61.95" gradientTransform="matrix(1 0 0 -1 0 100)">
		<stop  offset="0.1246" style="stop-color:#63A9DA"/>
		<stop  offset="1" style="stop-color:#FFFFFF"/>
	</linearGradient>
	<path id="XMLID_36_" style="fill:url(#XMLID_4_);" d="M32.5,38.3l-8.5,5c-0.4,0.2-0.9,0.2-1.2,0L14,38.2c-0.3-0.1-0.2-0.5,0-0.7
		l8.6-4.7c0.4-0.2,0.9-0.2,1.2,0l8.7,5.1C32.7,38,32.7,38.2,32.5,38.3z"/>
	
		<linearGradient id="SVGID_1_" gradientUnits="userSpaceOnUse" x1="24.6406" y1="54.7" x2="25.8245" y2="54.7" gradientTransform="matrix(1 0 0 -1 0 100)">
		<stop  offset="0" style="stop-color:#FFFFFF"/>
		<stop  offset="0.2591" style="stop-color:#F4F4F5"/>
		<stop  offset="0.7191" style="stop-color:#D5D7D9"/>
		<stop  offset="0.9935" style="stop-color:#C0C3C6"/>
	</linearGradient>
	<path style="fill:url(#SVGID_1_);" d="M24.6,46c0,0,0.7-0.3,1.1-0.7c0.2-0.2,0.1-0.7-0.3-0.7c-0.2,0-0.4,0-0.8,0.2
		C24.6,44.8,24.6,46,24.6,46z"/>
	
		<linearGradient id="SVGID_2_" gradientUnits="userSpaceOnUse" x1="24.3105" y1="54.9201" x2="25.1435" y2="54.0083" gradientTransform="matrix(1 0 0 -1 0 100)">
		<stop  offset="0" style="stop-color:#000000"/>
		<stop  offset="1" style="stop-color:#000000;stop-opacity:0.2"/>
	</linearGradient>
	<path style="opacity:0.25;fill:url(#SVGID_2_);enable-background:new    ;" d="M24.6,45.1v-0.3c0,0,0.7,0.6,0,1.2V45.1z"/>
	
		<linearGradient id="SVGID_3_" gradientUnits="userSpaceOnUse" x1="24.594" y1="53.996" x2="25.6312" y2="52.5707" gradientTransform="matrix(1 0 0 -1 0 100)">
		<stop  offset="0" style="stop-color:#FFFFFF"/>
		<stop  offset="0.2591" style="stop-color:#F4F4F5"/>
		<stop  offset="0.7191" style="stop-color:#D5D7D9"/>
		<stop  offset="0.9935" style="stop-color:#C0C3C6"/>
	</linearGradient>
	<path style="fill:url(#SVGID_3_);" d="M24.6,47.4c0,0,0.7-0.3,1.1-0.7c0.2-0.2,0.1-0.7-0.3-0.7c-0.2,0-0.4,0-0.8,0.2
		C24.6,46.2,24.6,47.4,24.6,47.4z"/>
	
		<linearGradient id="SVGID_4_" gradientUnits="userSpaceOnUse" x1="24.3147" y1="53.5154" x2="25.1477" y2="52.6036" gradientTransform="matrix(1 0 0 -1 0 100)">
		<stop  offset="0" style="stop-color:#000000"/>
		<stop  offset="1" style="stop-color:#000000;stop-opacity:0.2"/>
	</linearGradient>
	<path style="opacity:0.25;fill:url(#SVGID_4_);enable-background:new    ;" d="M24.6,46.5v-0.3c0,0,0.7,0.6,0,1.2V46.5z"/>
	
		<linearGradient id="SVGID_5_" gradientUnits="userSpaceOnUse" x1="863.0798" y1="54.7" x2="864.2636" y2="54.7" gradientTransform="matrix(-1 0 0 -1 885.3859 100)">
		<stop  offset="0" style="stop-color:#FFFFFF"/>
		<stop  offset="0.2591" style="stop-color:#F4F4F5"/>
		<stop  offset="0.7191" style="stop-color:#D5D7D9"/>
		<stop  offset="0.9935" style="stop-color:#C0C3C6"/>
	</linearGradient>
	<path style="fill:url(#SVGID_5_);" d="M22.3,46c0,0-0.7-0.3-1.1-0.7c-0.2-0.2-0.1-0.7,0.3-0.7c0.2,0,0.4,0,0.8,0.2
		C22.3,44.8,22.3,46,22.3,46z"/>
	
		<linearGradient id="SVGID_6_" gradientUnits="userSpaceOnUse" x1="862.7804" y1="54.9377" x2="863.6134" y2="54.0258" gradientTransform="matrix(-1 0 0 -1 885.3859 100)">
		<stop  offset="0" style="stop-color:#000000"/>
		<stop  offset="1" style="stop-color:#000000;stop-opacity:0.2"/>
	</linearGradient>
	<path style="opacity:0.25;fill:url(#SVGID_6_);enable-background:new    ;" d="M22.3,45.1v-0.3c0,0-0.7,0.6,0,1.2V45.1z"/>
	
		<linearGradient id="SVGID_7_" gradientUnits="userSpaceOnUse" x1="863.0798" y1="53.3" x2="864.2636" y2="53.3" gradientTransform="matrix(-1 0 0 -1 885.3859 100)">
		<stop  offset="0" style="stop-color:#FFFFFF"/>
		<stop  offset="0.2591" style="stop-color:#F4F4F5"/>
		<stop  offset="0.7191" style="stop-color:#D5D7D9"/>
		<stop  offset="0.9935" style="stop-color:#C0C3C6"/>
	</linearGradient>
	<path style="fill:url(#SVGID_7_);" d="M22.3,47.4c0,0-0.7-0.3-1.1-0.7C21,46.5,21.1,46,21.5,46c0.2,0,0.4,0,0.8,0.2V47.4z"/>
	
		<linearGradient id="SVGID_8_" gradientUnits="userSpaceOnUse" x1="862.7846" y1="53.533" x2="863.6176" y2="52.6211" gradientTransform="matrix(-1 0 0 -1 885.3859 100)">
		<stop  offset="0" style="stop-color:#000000"/>
		<stop  offset="1" style="stop-color:#000000;stop-opacity:0.2"/>
	</linearGradient>
	<path style="opacity:0.25;fill:url(#SVGID_8_);enable-background:new    ;" d="M22.3,46.5v-0.3c0,0-0.7,0.6,0,1.2V46.5z"/>
	
		<linearGradient id="SVGID_9_" gradientUnits="userSpaceOnUse" x1="22.8373" y1="53.1024" x2="25.4703" y2="53.1483" gradientTransform="matrix(1 0 0 -1 0 100)">
		<stop  offset="0" style="stop-color:#FFFFFF"/>
		<stop  offset="0.2591" style="stop-color:#F4F4F5"/>
		<stop  offset="0.7191" style="stop-color:#D5D7D9"/>
		<stop  offset="0.9935" style="stop-color:#C0C3C6"/>
	</linearGradient>
	<path style="fill:url(#SVGID_9_);" d="M22.3,46.5l0.4,0.3c0.4,0.3,1,0.3,1.5,0l0.4-0.3l0.1,0.1l-0.5,0.5l-1.1,0.2L22.7,47
		L22.3,46.5L22.3,46.5z"/>
	<g>
		
			<linearGradient id="SVGID_10_" gradientUnits="userSpaceOnUse" x1="23.2429" y1="53.3541" x2="24.6272" y2="52.3238" gradientTransform="matrix(1 0 0 -1 0 100)">
			<stop  offset="0" style="stop-color:#FFFFFF"/>
			<stop  offset="0.2591" style="stop-color:#F4F4F5"/>
			<stop  offset="0.7191" style="stop-color:#D5D7D9"/>
			<stop  offset="0.9935" style="stop-color:#C0C3C6"/>
		</linearGradient>
		<path style="fill:url(#SVGID_10_);" d="M24.8,46.6l-0.6,0.3c-0.4,0.3-1,0.3-1.5,0l-0.6-0.3V47l0.6,0.3c0.4,0.3,1,0.3,1.5,0
			l0.6-0.3V46.6z"/>
	</g>
	
		<linearGradient id="SVGID_11_" gradientUnits="userSpaceOnUse" x1="22.8376" y1="54.5024" x2="25.4706" y2="54.5483" gradientTransform="matrix(1 0 0 -1 0 100)">
		<stop  offset="0" style="stop-color:#FFFFFF"/>
		<stop  offset="0.2591" style="stop-color:#F4F4F5"/>
		<stop  offset="0.7191" style="stop-color:#D5D7D9"/>
		<stop  offset="0.9935" style="stop-color:#C0C3C6"/>
	</linearGradient>
	<path style="fill:url(#SVGID_11_);" d="M22.3,45.1l0.4,0.3c0.4,0.3,1,0.3,1.5,0l0.4-0.3l0.1,0.1l-0.5,0.5l-1.1,0.2l-0.5-0.2
		l-0.5-0.4L22.3,45.1z"/>
	<g>
		
			<linearGradient id="SVGID_12_" gradientUnits="userSpaceOnUse" x1="23.2354" y1="54.7597" x2="24.6197" y2="53.7293" gradientTransform="matrix(1 0 0 -1 0 100)">
			<stop  offset="0" style="stop-color:#FFFFFF"/>
			<stop  offset="0.2591" style="stop-color:#F4F4F5"/>
			<stop  offset="0.7191" style="stop-color:#D5D7D9"/>
			<stop  offset="0.9935" style="stop-color:#C0C3C6"/>
		</linearGradient>
		<path style="fill:url(#SVGID_12_);" d="M24.8,45.2l-0.6,0.3c-0.4,0.3-1,0.3-1.5,0l-0.6-0.3v0.4l0.6,0.3c0.4,0.3,1,0.3,1.5,0
			l0.6-0.3V45.2z"/>
	</g>
	
		<linearGradient id="SVGID_13_" gradientUnits="userSpaceOnUse" x1="27.9931" y1="57.25" x2="30.8341" y2="57.25" gradientTransform="matrix(1 0 0 -1 0 100)">
		<stop  offset="0" style="stop-color:#FFFFFF"/>
		<stop  offset="0.2591" style="stop-color:#F4F4F5"/>
		<stop  offset="0.7191" style="stop-color:#D5D7D9"/>
		<stop  offset="0.9935" style="stop-color:#C0C3C6"/>
	</linearGradient>
	<polygon style="fill:url(#SVGID_13_);" points="30.8,42.3 28,43.9 28,43.2 30.8,41.6 	"/>
	
		<linearGradient id="SVGID_14_" gradientUnits="userSpaceOnUse" x1="27.9931" y1="55.95" x2="30.8341" y2="55.95" gradientTransform="matrix(1 0 0 -1 0 100)">
		<stop  offset="0" style="stop-color:#FFFFFF"/>
		<stop  offset="0.2591" style="stop-color:#F4F4F5"/>
		<stop  offset="0.7191" style="stop-color:#D5D7D9"/>
		<stop  offset="0.9935" style="stop-color:#C0C3C6"/>
	</linearGradient>
	<polygon style="fill:url(#SVGID_14_);" points="30.8,43.6 28,45.2 28,44.5 30.8,42.9 	"/>
	
		<linearGradient id="SVGID_15_" gradientUnits="userSpaceOnUse" x1="28.8036" y1="58.05" x2="33.7195" y2="58.05" gradientTransform="matrix(1 0 0 -1 0 100)">
		<stop  offset="0" style="stop-color:#315CA7"/>
		<stop  offset="0.1829" style="stop-color:#3167B0"/>
		<stop  offset="0.5089" style="stop-color:#3286C6"/>
		<stop  offset="0.9373" style="stop-color:#33B7EA"/>
		<stop  offset="0.9946" style="stop-color:#33BEF0"/>
	</linearGradient>
	<polygon style="opacity:0.2;fill:url(#SVGID_15_);enable-background:new    ;" points="30.8,42.3 30.3,41.9 30.8,41.6 	"/>
	
		<linearGradient id="SVGID_16_" gradientUnits="userSpaceOnUse" x1="28.8036" y1="56.75" x2="33.7195" y2="56.75" gradientTransform="matrix(1 0 0 -1 0 100)">
		<stop  offset="0" style="stop-color:#FFFFFF"/>
		<stop  offset="0.2591" style="stop-color:#F4F4F5"/>
		<stop  offset="0.7191" style="stop-color:#D5D7D9"/>
		<stop  offset="0.9935" style="stop-color:#C0C3C6"/>
	</linearGradient>
	<polygon style="fill:url(#SVGID_16_);" points="30.8,43.6 30.3,43.2 30.8,42.9 	"/>
	
		<ellipse id="lights_38_" transform="matrix(0.8633 -0.5047 0.5047 0.8633 -19.314 13.8983)" style="fill:#48A7C1;" cx="16" cy="42.6" rx="0.4" ry="0.6"/>
	
		<ellipse id="lights_37_" transform="matrix(0.8633 -0.5047 0.5047 0.8633 -19.5494 14.8319)" style="fill:#53B9A6;" cx="17.6" cy="43.5" rx="0.4" ry="0.6"/>
	
		<ellipse id="lights_36_" transform="matrix(0.8633 -0.5047 0.5047 0.8633 -19.7961 15.709)" style="fill:#48A7C1;" cx="19.1" cy="44.4" rx="0.4" ry="0.6"/>
</g>
</svg>
