<?xml version="1.0" encoding="utf-8"?>
<!-- Generator: Adobe Illustrator 23.0.1, SVG Export Plug-In . SVG Version: 6.00 Build 0)  -->
<svg version="1.1" id="Layer_1" xmlns="http://www.w3.org/2000/svg" xmlns:xlink="http://www.w3.org/1999/xlink" x="0px" y="0px"
	 viewBox="0 0 100 100" style="enable-background:new 0 0 100 100;" xml:space="preserve">
<g>
	<g style="enable-background:new    ;">
		<g style="enable-background:new    ;">
			<g>
				<defs>
					<path id="SVGID_1_" d="M56,44l-0.9,0.3c-1.6,0.5-3.3,0.5-5.1,0.1l0.9-0.3C52.7,44.5,54.4,44.5,56,44z"/>
				</defs>
				<clipPath id="SVGID_2_">
					<use xlink:href="#SVGID_1_"  style="overflow:visible;"/>
				</clipPath>
				<g style="clip-path:url(#SVGID_2_);enable-background:new    ;">
					<path style="fill:#223A43;" d="M50,44.3l0.9-0.3c1.8,0.5,3.5,0.4,5.1-0.1l-0.9,0.3C53.6,44.7,51.8,44.8,50,44.3"/>
				</g>
			</g>
		</g>
		<g style="enable-background:new    ;">
			<g>
				<defs>
					<path id="SVGID_3_" d="M44,7.1l0.9-0.3c-5,1.5-8.4,7.3-8.2,15.2c0.3,10.3,6.6,20.2,14.2,22.1L50,44.3
						c-7.6-1.9-14-11.8-14.2-22.1C35.6,14.4,39,8.6,44,7.1z"/>
				</defs>
				<clipPath id="SVGID_4_">
					<use xlink:href="#SVGID_3_"  style="overflow:visible;"/>
				</clipPath>
				<g style="clip-path:url(#SVGID_4_);enable-background:new    ;">
					<path style="fill:#25404A;" d="M44,7.1l0.9-0.3c-0.4,0.1-0.8,0.3-1.2,0.5l-0.9,0.3C43.2,7.4,43.6,7.2,44,7.1"/>
					<path style="fill:#223A43;" d="M42.8,7.5l0.9-0.3c-4.3,2-7.2,7.5-7,14.7C37,32.2,43.3,42.1,50.9,44L50,44.3
						c-7.6-1.9-14-11.8-14.2-22.1C35.6,15,38.5,9.5,42.8,7.5"/>
				</g>
			</g>
		</g>
		<g style="enable-background:new    ;">
			<g>
				<defs>
					<path id="SVGID_5_" d="M42.7,2.8l0.9-0.3c1.9-0.6,4-0.6,6.3-0.1L49,2.8C46.8,2.2,44.7,2.2,42.7,2.8z"/>
				</defs>
				<clipPath id="SVGID_6_">
					<use xlink:href="#SVGID_5_"  style="overflow:visible;"/>
				</clipPath>
				<g style="clip-path:url(#SVGID_6_);enable-background:new    ;">
					<path style="fill:#223A43;" d="M42.7,2.8l0.9-0.3c1.9-0.6,4-0.6,6.3-0.1L49,2.8C46.8,2.2,44.7,2.2,42.7,2.8"/>
				</g>
			</g>
		</g>
		<g style="enable-background:new    ;">
			<g>
				<defs>
					<path id="SVGID_7_" d="M49,10.5L49.1,7c7.6,1.9,14,11.8,14.2,22.1c0.3,10.3-5.7,17.1-13.3,15.2S36,32.5,35.8,22.2
						C35.6,12,41.5,5.1,49.1,7L49,10.5c-6.2-1.5-11.1,4-10.9,12.4c0.2,8.4,5.4,16.5,11.6,18s11.1-4,10.9-12.4S55.2,12,49,10.5z"/>
				</defs>
				<clipPath id="SVGID_8_">
					<use xlink:href="#SVGID_7_"  style="overflow:visible;"/>
				</clipPath>
				<g style="clip-path:url(#SVGID_8_);enable-background:new    ;">
					<path style="fill:#55828D;" d="M49,10.5L49.1,7h0.1L49,10.5L49,10.5"/>
					<path style="fill:#5F8993;" d="M49.1,10.5L49.2,7c1.6,0.4,3.1,1.2,4.5,2.2l-1,3.1C51.6,11.5,50.4,10.9,49.1,10.5"/>
					<path style="fill:#668F98;" d="M52.8,12.3l1-3.1c1.3,0.9,2.5,2.1,3.6,3.4L55.8,15C54.8,14,53.8,13.1,52.8,12.3"/>
					<path style="fill:#6C939C;" d="M55.7,15.1l1.6-2.4c1.2,1.4,2.2,3,3,4.7L58.2,19C57.5,17.6,56.7,16.3,55.7,15.1"/>
					<path style="fill:#7297A0;" d="M58.2,19l2.2-1.6c1.3,2.5,2.2,5.3,2.6,8.3l-2.7,0.1C60,23.3,59.2,21,58.2,19"/>
					<path style="fill:#779BA3;" d="M60.4,25.7l2.7-0.1c0.2,1.1,0.3,2.3,0.3,3.5c0.1,2.1-0.2,4.1-0.6,5.9l-2.6-1.6
						c0.4-1.4,0.5-3.1,0.5-4.8C60.6,27.6,60.5,26.7,60.4,25.7"/>
					<path style="fill:#7297A0;" d="M60.1,33.3l2.6,1.6c-0.7,2.8-1.9,5.1-3.5,6.7l-2-2.9C58.6,37.5,59.6,35.6,60.1,33.3"/>
					<path style="fill:#6C939C;" d="M57.3,38.8l2,2.9c-1.2,1.3-2.7,2.2-4.3,2.6L53.8,41C55.1,40.6,56.3,39.9,57.3,38.8"/>
					<path style="fill:#668F98;" d="M53.8,41l1.2,3.4c-1.5,0.4-3.2,0.4-4.9,0c-0.2-0.1-0.4-0.1-0.6-0.2l-0.2-3.3
						c0.2,0.1,0.3,0.1,0.5,0.1C51.2,41.3,52.5,41.3,53.8,41"/>
					<path style="fill:#5F8993;" d="M49.2,40.8l0.2,3.3c-2.5-0.8-4.9-2.4-6.9-4.6l1.1-2.5C45.3,38.9,47.2,40.2,49.2,40.8"/>
					<path style="fill:#55828D;" d="M43.6,37l-1.1,2.5c-3.1-3.5-5.5-8.3-6.4-13.6h2.3C39.1,30.2,41.1,34.2,43.6,37"/>
					<path style="fill:#3E717D;" d="M38.4,26h-2.3c-0.2-1.2-0.3-2.5-0.4-3.7c-0.2-7.1,2.6-12.5,6.8-14.6l1.1,3.4
						c-3.4,1.7-5.7,6.2-5.5,11.9C38.2,24,38.3,25,38.4,26"/>
					<path style="fill:#55828D;" d="M43.7,11l-1.1-3.4c1.9-1,4.1-1.2,6.5-0.6L49,10.5C47.1,10,45.2,10.2,43.7,11"/>
				</g>
			</g>
		</g>
		<g style="enable-background:new    ;">
			<g>
				<defs>
					<path id="SVGID_9_" d="M64.2,28.9C64.4,36.7,61,42.5,56,44l-0.9,0.3c5-1.5,8.4-7.3,8.2-15.2C63.6,29,63.9,28.9,64.2,28.9
						c-0.3,0.1-0.6,0.2-0.9,0.3C63.1,18.8,56.7,8.9,49.1,7L50,6.8C57.6,8.7,63.9,18.6,64.2,28.9z"/>
				</defs>
				<clipPath id="SVGID_10_">
					<use xlink:href="#SVGID_9_"  style="overflow:visible;"/>
				</clipPath>
				<g style="clip-path:url(#SVGID_10_);enable-background:new    ;">
					<path style="fill:#122124;" d="M49.1,7L50,6.8c7.6,1.9,14,11.8,14.2,22.1c0.2,7.2-2.7,12.7-7,14.7l-0.9,0.3
						c4.3-2,7.2-7.5,7-14.7C63.1,18.8,56.7,8.9,49.1,7"/>
					<path style="fill:#142428;" d="M56.3,43.8l0.9-0.3c-0.4,0.2-0.8,0.3-1.2,0.5l-0.9,0.3C55.5,44.1,55.9,44,56.3,43.8"/>
				</g>
			</g>
		</g>
		<g style="enable-background:new    ;">
			<g>
				<defs>
					<path id="SVGID_11_" d="M49.9,47.8l0.1-3.5c7.6,1.9,13.6-4.9,13.3-15.2C63.1,18.8,56.7,8.9,49.1,7s-13.5,5-13.3,15.3
						c0.3,10.3,6.6,20.2,14.2,22.1L49.9,47.8c-9-2.2-16.5-14-16.8-26.1c-0.3-12.2,6.8-20.3,15.7-18c9,2.2,16.5,14,16.8,26.1
						C66,42,58.9,50,49.9,47.8z"/>
				</defs>
				<clipPath id="SVGID_12_">
					<use xlink:href="#SVGID_11_"  style="overflow:visible;"/>
				</clipPath>
				<g style="clip-path:url(#SVGID_12_);enable-background:new    ;">
					<path style="fill:#86CFEA;" d="M49.9,47.8l0.1-3.5c2.4,0.6,4.6,0.3,6.5-0.6l1.1,3.4C55.4,48.2,52.7,48.5,49.9,47.8"/>
					<path style="fill:#75C9E7;" d="M57.6,47.1l-1.1-3.4c4.2-2.1,6.9-7.5,6.8-14.6c0-1.3-0.2-2.5-0.4-3.7h2.3
						c0.2,1.5,0.4,2.9,0.4,4.4C65.9,38.1,62.6,44.6,57.6,47.1"/>
					<path style="fill:#86CFEA;" d="M65.2,25.4h-2.3c-0.9-5.2-3.2-10.1-6.4-13.6l1.1-2.5C61.4,13.4,64.2,19.2,65.2,25.4"/>
					<path style="fill:#8CD2EB;" d="M57.7,9.4l-1.1,2.5c-2-2.2-4.4-3.9-6.9-4.6L49.5,4C52.5,4.8,55.3,6.7,57.7,9.4"/>
					<path style="fill:#92D4EC;" d="M49.6,3.9l0.2,3.3c-0.2-0.1-0.4-0.1-0.6-0.2c-1.7-0.4-3.4-0.4-4.9,0L43,3.7
						c1.8-0.5,3.7-0.5,5.8,0C49.1,3.7,49.3,3.8,49.6,3.9"/>
					<path style="fill:#96D6ED;" d="M43,3.7L44.2,7c-1.6,0.4-3.1,1.3-4.3,2.6l-2-2.9C39.4,5.3,41.1,4.2,43,3.7"/>
					<path style="fill:#9AD7ED;" d="M37.9,6.8l2,2.9c-1.6,1.7-2.8,4-3.5,6.7l-2.6-1.6C34.6,11.5,36,8.7,37.9,6.8"/>
					<path style="fill:#9ED9EE;" d="M33.8,14.7l2.6,1.6c-0.4,1.8-0.6,3.7-0.6,5.9c0,1.2,0.1,2.3,0.3,3.4l-2.7,0.1
						c-0.2-1.3-0.3-2.7-0.4-4.1C33,19.2,33.3,16.8,33.8,14.7"/>
					<path style="fill:#9AD7ED;" d="M33.5,25.7l2.7-0.1c0.5,2.9,1.4,5.7,2.6,8.3l-2.2,1.6C35.1,32.5,34,29.2,33.5,25.7"/>
					<path style="fill:#96D6ED;" d="M36.6,35.5l2.2-1.6c0.9,1.7,1.9,3.3,3,4.7L40.2,41C38.8,39.4,37.6,37.6,36.6,35.5"/>
					<path style="fill:#92D4EC;" d="M40.2,41.1l1.6-2.4c1.1,1.3,2.3,2.5,3.6,3.4l-1,3.1C42.9,44.1,41.5,42.7,40.2,41.1"/>
					<path style="fill:#8CD2EB;" d="M44.4,45.2l1-3.1c1.4,1,2.9,1.8,4.5,2.2l-0.1,3.5C47.9,47.3,46.1,46.4,44.4,45.2"/>
					<path style="fill:#86CFEA;" d="M49.8,47.8l0.1-3.5H50L49.8,47.8C49.9,47.8,49.8,47.8,49.8,47.8"/>
				</g>
			</g>
		</g>
		<g style="enable-background:new    ;">
			<g>
				<defs>
					<path id="SVGID_13_" d="M48.9,6.2L49,2.8C58.3,5.1,66.2,17.3,66.5,30s-7,21-16.4,18.7C40.8,46.3,33,34.1,32.6,21.5
						c-0.3-12.7,7-21,16.4-18.7L48.9,6.2C41,4.2,34.7,11.4,35,22.1c0.3,10.8,6.9,21.1,14.9,23.1c7.9,2,14.2-5.1,13.9-15.9
						C63.5,18.6,56.8,8.2,48.9,6.2z"/>
				</defs>
				<clipPath id="SVGID_14_">
					<use xlink:href="#SVGID_13_"  style="overflow:visible;"/>
				</clipPath>
				<g style="clip-path:url(#SVGID_14_);enable-background:new    ;">
					<path style="fill:#86CFEA;" d="M48.9,6.2L49,2.8c0.1,0,0.1,0,0.2,0L49,6.3L48.9,6.2"/>
					<path style="fill:#8CD2EB;" d="M49,6.3l0.1-3.5c1.9,0.5,3.8,1.4,5.5,2.7l-1,3.1C52.3,7.5,50.7,6.7,49,6.3"/>
					<path style="fill:#92D4EC;" d="M53.7,8.6l1-3.1c1.6,1.1,3.1,2.6,4.4,4.2l-1.6,2.4C56.4,10.7,55.1,9.5,53.7,8.6"/>
					<path style="fill:#96D6ED;" d="M57.5,12.1l1.6-2.4c1.4,1.7,2.7,3.7,3.7,5.8l-2.2,1.6C59.8,15.3,58.7,13.6,57.5,12.1"/>
					<path style="fill:#9AD7ED;" d="M60.7,17.1l2.2-1.6c1.6,3.1,2.7,6.6,3.2,10.1l-2.7,0.1C63,22.7,62,19.7,60.7,17.1"/>
					<path style="fill:#9ED9EE;" d="M63.4,25.7l2.7-0.1c0.2,1.4,0.3,2.8,0.4,4.2c0.1,2.6-0.2,5-0.7,7.2l-2.6-1.6
						c0.5-1.9,0.7-3.9,0.6-6.1C63.7,28.1,63.6,26.9,63.4,25.7"/>
					<path style="fill:#9AD7ED;" d="M63.2,35.5l2.6,1.6c-0.8,3.4-2.3,6.2-4.3,8.2l-2-2.9C61.2,40.7,62.4,38.3,63.2,35.5"/>
					<path style="fill:#96D6ED;" d="M59.5,42.5l2,2.9c-1.5,1.6-3.3,2.7-5.3,3.2L55,45.2C56.7,44.8,58.2,43.8,59.5,42.5"/>
					<path style="fill:#92D4EC;" d="M55,45.2l1.2,3.4c-1.9,0.5-3.9,0.5-6,0c-0.3-0.1-0.5-0.1-0.8-0.2L49.2,45
						c0.2,0.1,0.4,0.1,0.6,0.2C51.7,45.7,53.4,45.7,55,45.2"/>
					<path style="fill:#8CD2EB;" d="M49.2,45l0.2,3.3c-3.1-1-6-3-8.5-5.7l1.1-2.5C44.1,42.5,46.6,44.2,49.2,45"/>
					<path style="fill:#86CFEA;" d="M42,40.2l-1.1,2.5C37,38.4,34.1,32.4,33.1,26h2.3C36.2,31.5,38.7,36.5,42,40.2"/>
					<path style="fill:#75C9E7;" d="M35.3,26H33c-0.2-1.5-0.4-3-0.4-4.6C32.4,12.8,35.8,6.1,41,3.5l1.1,3.4
						c-4.4,2.2-7.3,7.9-7.1,15.3C35,23.5,35.1,24.8,35.3,26"/>
					<path style="fill:#86CFEA;" d="M42.1,6.9L41,3.5c2.4-1.2,5.1-1.5,8-0.8l-0.1,3.5C46.4,5.6,44.1,5.9,42.1,6.9"/>
				</g>
			</g>
		</g>
		<g>
			<path style="fill:#6BB7D3;" d="M48.9,6.2c7.9,2,14.6,12.3,14.9,23.1s-6,17.9-13.9,15.9S35.3,32.9,35,22.1
				C34.7,11.4,40.9,4.2,48.9,6.2z M49.9,47.8c9,2.2,16-5.8,15.7-18C65.4,17.6,57.8,5.9,48.8,3.7s-16,5.8-15.7,18
				C33.4,33.8,40.9,45.6,49.9,47.8"/>
		</g>
		<g>
			<path style="fill:#396772;" d="M49,10.5c6.2,1.5,11.4,9.6,11.6,18c0.2,8.4-4.7,14-10.9,12.4c-6.2-1.5-11.4-9.6-11.6-18
				S42.8,9,49,10.5z"/>
		</g>
		<g style="enable-background:new    ;">
			<g>
				<defs>
					<path id="SVGID_15_" d="M57.3,48.3l-0.9,0.3c6.1-1.8,10.3-9,10.1-18.6C66.2,17.2,58.4,5.1,49,2.8l0.9-0.3
						C59.2,4.8,67,17,67.4,29.6C67.6,39.3,63.4,46.4,57.3,48.3z"/>
				</defs>
				<clipPath id="SVGID_16_">
					<use xlink:href="#SVGID_15_"  style="overflow:visible;"/>
				</clipPath>
				<g style="clip-path:url(#SVGID_16_);enable-background:new    ;">
					<path style="fill:#223A43;" d="M49,2.8l0.9-0.3C59.2,4.8,67,17,67.4,29.6c0.2,8.8-3.3,15.6-8.6,18.1L57.9,48
						c5.3-2.5,8.8-9.2,8.6-18.1C66.2,17.2,58.4,5.1,49,2.8"/>
					<path style="fill:#25404A;" d="M57.9,48l0.9-0.3c-0.5,0.2-1,0.4-1.5,0.6l-0.9,0.3C56.9,48.4,57.4,48.2,57.9,48"/>
				</g>
			</g>
		</g>
	</g>
</g>
</svg>
