<?xml version="1.0" encoding="utf-8"?>
<!-- Generator: Adobe Illustrator 23.0.1, SVG Export Plug-In . SVG Version: 6.00 Build 0)  -->
<svg version="1.1" id="Layer_1" xmlns="http://www.w3.org/2000/svg" xmlns:xlink="http://www.w3.org/1999/xlink" x="0px" y="0px"
	 viewBox="0 0 100 100" style="enable-background:new 0 0 100 100;" xml:space="preserve">
<g id="left-wing_5_">
	<g>
		<g>
			
				<linearGradient id="SVGID_1_" gradientUnits="userSpaceOnUse" x1="-690.7563" y1="46.9295" x2="-686.9247" y2="46.9295" gradientTransform="matrix(-1 0 0 1 -614.5101 0)">
				<stop  offset="0" style="stop-color:#FFFFFF"/>
				<stop  offset="0.2469" style="stop-color:#FCFEFF"/>
				<stop  offset="0.4135" style="stop-color:#F3FAFE"/>
				<stop  offset="0.5565" style="stop-color:#E4F4FC"/>
				<stop  offset="0.6862" style="stop-color:#CFECFA"/>
				<stop  offset="0.8069" style="stop-color:#B3E0F7"/>
				<stop  offset="0.9192" style="stop-color:#91D3F3"/>
				<stop  offset="1" style="stop-color:#74C7F0"/>
			</linearGradient>
			<path style="fill:url(#SVGID_1_);" d="M72.4,47.8C72.4,47.8,72.4,47.8,72.4,47.8C72.4,47.8,72.4,47.8,72.4,47.8
				C72.4,47.8,72.4,47.8,72.4,47.8C72.4,47.8,72.4,47.8,72.4,47.8C72.4,47.8,72.4,47.8,72.4,47.8c0-0.1,0-0.2,0-0.2l0,0c0,0,0,0,0,0
				l0,0c0,0,0,0,0,0l0-0.1c0,0,0-0.1,0-0.1c0,0,0,0,0,0c0,0,0,0,0,0c0,0,0,0,0,0c0,0,0,0,0,0c0,0,0-0.1,0-0.1l0-0.1c0,0,0,0,0,0l0,0
				c0,0,0-0.1,0-0.1c0,0,0,0,0,0c0,0,0,0,0,0l0,0c0,0,0,0,0,0l0,0c0,0,0-0.1,0-0.1l0,0c0,0,0,0,0,0c0.1-0.3,0.3-0.6,0.5-0.9
				c0,0,0,0,0,0c0-0.1,0.1-0.1,0.1-0.2c0,0,0,0,0,0l0-0.1c0,0,0,0,0-0.1l0,0l0,0c0,0,0,0,0,0c0,0,0.1-0.1,0.1-0.1c0,0,0,0,0,0l0,0
				c0,0,0.1-0.1,0.1-0.1l0,0c0,0,0,0,0,0c0,0,0,0,0,0c0,0,0.1,0,0.1-0.1c0,0,0,0,0.1,0l0,0c0,0,0,0,0,0l0.1-0.1c0,0,0.1-0.1,0.1-0.1
				c0,0,0,0,0.1,0c0,0,0,0,0,0l0.1,0c0,0,0,0,0,0c0,0,0,0,0,0c0,0,0,0,0,0c0,0,0,0,0,0l0,0l0.1-0.1l0,0c0,0,0.1,0,0.1,0l0.1,0
				c0.1,0,0.1,0,0.2-0.1l0.1,0v0c0,0,0,0,0,0c0,0,0,0-0.1,0c0,0,0,0,0.1,0l0,0c0,0,0,0,0.1,0l0.2,0c0,0,0,0,0,0l0,0c0,0,0,0,0,0l0,0
				v0c0,0,0,0,0,0c0,0,0.1,0,0.1,0c0,0,0,0,0,0c0,0,0,0,0,0c0,0,0,0,0,0l0,0c0,0,0.1,0,0.1,0l0,0c0,0,0,0,0.1,0l0.1,0c0,0,0,0,0,0
				c0,0,0,0,0,0c0,0,0,0,0,0c0,0,0.1,0,0.1,0c0,0,0.1,0,0.1,0l0.1,0c0,0,0,0,0,0c0,0,0.1,0,0.1,0c0.1,0,0.1,0,0.2,0.1
				c0,0,0.1,0,0.1,0c-0.1,0-0.2,0-0.2-0.1c0,0,0,0,0,0c0,0,0,0,0,0c0,0,0,0,0,0c0,0,0,0,0,0c0,0,0,0,0,0c0,0,0,0,0,0c0,0,0,0,0,0
				c0,0-0.1,0-0.1,0c0,0,0,0,0,0c0,0,0,0,0,0c0,0,0,0,0,0c0,0-0.1,0-0.2,0c0,0,0,0,0,0c0,0,0,0-0.1,0c0,0,0,0-0.1,0
				c-0.1,0-0.1,0-0.2,0.1c0,0,0,0-0.1,0c0,0-0.1,0-0.1,0.1c-0.1,0.1-0.2,0.1-0.3,0.2c0,0,0,0,0,0c0,0,0,0,0,0c0,0,0,0,0,0
				c0,0,0,0,0,0c0,0,0,0,0,0c-0.1,0.1-0.1,0.1-0.2,0.2c0,0-0.1,0.1-0.1,0.1c-0.1,0.1-0.1,0.2-0.2,0.2c0,0-0.1,0.1-0.1,0.1
				c-0.1,0.1-0.2,0.2-0.3,0.3c-0.1,0.1-0.1,0.2-0.2,0.3c0,0-0.1,0.1-0.1,0.1c0,0,0,0.1-0.1,0.1c0,0,0,0.1-0.1,0.1
				c0,0.1-0.1,0.2-0.1,0.3c0,0.1,0,0.1-0.1,0.2c0,0,0,0,0,0.1c0,0.1-0.1,0.2-0.1,0.2c0,0,0,0.1,0,0.1c0,0,0,0.1,0,0.1
				c0,0.1,0,0.2-0.1,0.2c0,0,0,0,0,0c0,0,0,0,0,0c0,0,0,0,0,0c0,0,0,0,0,0c0,0,0,0,0,0c0,0,0,0,0,0c0,0,0,0,0,0c0,0.1,0,0.3,0,0.4
				c0,0,0,0.1,0,0.1c0,0,0,0,0,0c0,0.1,0,0.2,0,0.2c0,0,0,0.1,0,0.1c0,0,0,0.1,0,0.1c0,0,0,0,0,0c0,0.1,0,0.1,0,0.2c0,0,0,0,0,0.1
				c0,0,0,0,0,0.1c0,0,0,0,0,0.1l0,0c0,0.1,0.1,0.1,0.1,0.2c0,0,0,0,0,0c0,0,0,0,0,0c0,0,0,0,0,0c0,0,0,0,0,0c0,0,0,0,0,0
				c0,0,0,0,0,0c0.1,0.1,0.1,0.1,0.2,0.2c0,0-0.1-0.1-0.2-0.1l-0.1-0.1c0,0,0,0,0,0c0,0,0,0,0,0c0,0-0.1-0.1-0.1-0.1l0-0.1
				c0,0,0,0,0,0c0,0,0,0,0,0l0,0c0,0,0,0,0,0c0,0,0,0,0,0c0,0,0,0,0,0c0,0,0-0.1-0.1-0.1c0,0,0-0.1,0-0.1c0,0,0,0,0,0l-0.1-0.1
				c0,0,0-0.1,0-0.1c0,0,0,0,0,0c0,0,0,0,0-0.1c0,0,0,0,0,0c0,0,0-0.1,0-0.1c0,0,0,0,0,0l0,0c0,0,0,0,0,0l0-0.1c0,0,0-0.1,0-0.1
				l0,0.1l0,0c0,0,0,0,0,0l0,0c0-0.1,0-0.2,0-0.2L72.4,47.8C72.4,47.8,72.4,47.8,72.4,47.8z"/>
			<path style="fill:#404040;" d="M74.3,44.6C74.3,44.6,74.3,44.6,74.3,44.6C74.3,44.6,74.3,44.6,74.3,44.6
				C74.3,44.6,74.3,44.6,74.3,44.6z"/>
			<path style="fill:#404040;" d="M75.3,44.2C75.3,44.2,75.3,44.2,75.3,44.2C75.3,44.2,75.3,44.2,75.3,44.2z"/>
			<path style="fill:#404040;" d="M75.5,44.2L75.5,44.2C75.5,44.2,75.5,44.2,75.5,44.2C75.5,44.2,75.5,44.2,75.5,44.2
				C75.5,44.2,75.5,44.2,75.5,44.2z"/>
			<path style="fill:#404040;" d="M75.8,44.3C75.8,44.3,75.8,44.3,75.8,44.3C75.8,44.3,75.8,44.3,75.8,44.3
				C75.8,44.3,75.8,44.3,75.8,44.3z"/>
			<path style="fill:#404040;" d="M76.1,44.3c0,0,0.1,0,0.1,0C76.2,44.4,76.2,44.4,76.1,44.3C76.2,44.3,76.2,44.3,76.1,44.3z"/>
		</g>
		
			<linearGradient id="SVGID_2_" gradientUnits="userSpaceOnUse" x1="-697.072" y1="49.1083" x2="-687.1957" y2="49.1083" gradientTransform="matrix(-1 0 0 1 -614.5101 0)">
			<stop  offset="5.376340e-03" style="stop-color:#223A8E"/>
			<stop  offset="0.3064" style="stop-color:#456FA9"/>
			<stop  offset="0.6232" style="stop-color:#65A0C2"/>
			<stop  offset="0.8646" style="stop-color:#79BFD1"/>
			<stop  offset="1" style="stop-color:#80CAD7"/>
		</linearGradient>
		<path style="fill:url(#SVGID_2_);" d="M72.7,48.3c0,0,0-0.1,0-0.1c0,0,0-0.1,0-0.1c0,0,0,0,0,0c0,0,0,0,0,0c0,0,0,0,0-0.1
			c0,0,0-0.1,0-0.1c0,0,0,0,0-0.1c0,0,0,0,0,0c0,0,0,0,0,0c0,0,0-0.1,0-0.1c0,0,0-0.1,0-0.1c0,0,0,0,0,0c0,0,0,0,0,0
			c0,0,0-0.1,0-0.1c0,0,0-0.1,0-0.1c0,0,0,0,0,0c0,0,0,0,0,0c0,0,0-0.1,0-0.1c0,0,0-0.1,0-0.1c0,0,0,0,0,0c0,0,0,0,0,0
			c0-0.1,0-0.1,0.1-0.2c0,0,0,0,0-0.1c0,0,0,0,0-0.1c0,0,0,0,0-0.1c0,0,0-0.1,0.1-0.1c0,0,0-0.1,0-0.1c0,0,0,0,0,0c0,0,0,0,0,0
			c0.1-0.1,0.1-0.2,0.2-0.3c0,0,0-0.1,0-0.1c0.1-0.1,0.1-0.2,0.2-0.3c0,0,0,0,0,0c0,0,0.1-0.1,0.1-0.1c0,0,0.1-0.1,0.1-0.1
			c0,0,0,0,0,0c0-0.1,0.1-0.1,0.1-0.2c0,0,0,0,0,0c0,0,0,0,0,0c0,0,0-0.1,0.1-0.1c0,0,0.1-0.1,0.1-0.1c0,0,0,0,0,0c0,0,0,0,0,0
			c0,0,0.1-0.1,0.1-0.1c0,0,0,0,0.1-0.1c0,0,0,0,0,0c0,0,0,0,0,0c0,0,0.1-0.1,0.1-0.1c0,0,0.1,0,0.1-0.1c0,0,0,0,0,0c0,0,0,0,0,0
			c0,0,0.1,0,0.1-0.1c0,0,0.1,0,0.1-0.1c0,0,0,0,0,0c0,0,0,0,0.1,0c0,0,0.1,0,0.1,0c0,0,0,0,0,0c0,0,0,0,0,0c0,0,0,0,0,0
			c0,0,0.1,0,0.1,0c0,0,0,0,0,0c0,0,0,0,0,0c0,0,0,0,0,0c0,0,0.1,0,0.1,0c0,0,0,0,0,0c0,0,0,0,0,0c0,0,0,0,0,0c0,0,0.1,0,0.1,0
			c0,0,0,0,0,0c0,0,0,0,0,0c0,0,0,0,0.1,0c0,0,0.1,0,0.1,0c0,0,0,0,0,0c0,0,0,0,0,0c0,0,0.1,0,0.1,0c0,0,0,0,0,0c0,0,0,0,0,0
			c0,0,0,0,0.1,0c0,0,0,0,0,0c0,0,0.1,0,0.1,0c0,0,0,0,0,0c0,0,0,0,0,0c2.1,0.8,4.2,1.6,6.3,2.4c0,0-0.1,0-0.1,0c0,0-0.1,0-0.1,0
			c0,0-0.1,0-0.1,0c0,0,0,0-0.1,0c-0.1,0-0.1,0-0.2,0c0,0,0,0,0,0c-0.1,0-0.1,0-0.2,0c0,0,0,0,0,0c-0.1,0-0.1,0-0.2,0c0,0,0,0,0,0
			c-0.1,0-0.1,0-0.2,0.1c0,0,0,0,0,0c-0.1,0-0.1,0.1-0.2,0.1c0,0,0,0,0,0c-0.1,0-0.2,0.1-0.2,0.1c-0.1,0.1-0.2,0.1-0.3,0.2
			c0,0,0,0,0,0c-0.1,0.1-0.2,0.1-0.3,0.2c0,0,0,0,0,0c-0.1,0.1-0.2,0.1-0.3,0.2c0,0,0,0,0,0c-0.1,0.1-0.2,0.1-0.2,0.2c0,0,0,0,0,0
			c-0.1,0.1-0.2,0.2-0.2,0.3c0,0-0.1,0.1-0.1,0.1c0,0.1-0.1,0.1-0.1,0.2c-0.1,0.1-0.2,0.3-0.3,0.4c0,0,0,0.1-0.1,0.1
			c-0.1,0.1-0.1,0.2-0.2,0.4c0,0,0,0.1-0.1,0.1c0,0,0,0.1-0.1,0.1c0,0.1-0.1,0.1-0.1,0.2c0,0,0,0.1,0,0.1c0,0.1-0.1,0.2-0.1,0.3
			c0,0,0,0,0,0c0,0.1-0.1,0.2-0.1,0.3c0,0,0,0,0,0c0,0.1-0.1,0.2-0.1,0.4c0,0,0,0,0,0c0,0.1-0.1,0.2-0.1,0.4c0,0,0,0,0,0
			c0,0.1,0,0.2,0,0.3c0,0,0,0,0,0c0,0.1,0,0.2,0,0.3c0,0.1,0,0.2,0,0.3c0,0,0,0,0,0c0,0.1,0,0.2,0,0.3c0,0,0,0,0,0
			c0,0.1,0,0.2,0,0.2c0,0,0,0,0,0c0,0.1,0,0.1,0.1,0.2c0,0,0,0,0,0.1c0,0,0,0.1,0.1,0.1c0,0,0,0.1,0.1,0.1c0,0,0,0.1,0.1,0.1
			c0,0,0.1,0.1,0.1,0.1c0,0,0,0,0,0.1c0.1,0.1,0.1,0.1,0.2,0.2c-1.7-1.4-3.5-2.9-5.2-4.3c0,0-0.1-0.1-0.1-0.1c0,0,0,0,0,0
			c0,0-0.1-0.1-0.1-0.1c0,0,0,0,0,0c0,0,0,0,0,0c0,0,0-0.1,0-0.1c0,0,0,0,0,0c0,0,0,0,0-0.1c0,0,0,0,0,0c0,0,0,0,0,0
			c0,0,0-0.1,0-0.1c0,0,0,0,0,0c0,0,0,0,0,0c0,0,0,0,0-0.1c0,0,0-0.1,0-0.1c0,0,0,0,0,0c0,0,0,0,0,0c0,0,0-0.1,0-0.1
			c0,0,0-0.1,0-0.1c0,0,0,0,0,0c0,0,0,0,0,0c0,0,0-0.1,0-0.1C72.7,48.3,72.7,48.3,72.7,48.3C72.7,48.3,72.7,48.3,72.7,48.3z"/>
		<g>
			
				<linearGradient id="SVGID_3_" gradientUnits="userSpaceOnUse" x1="-699.1393" y1="51.5016" x2="-694.8091" y2="51.5016" gradientTransform="matrix(-1 0 0 1 -614.5101 0)">
				<stop  offset="5.376340e-03" style="stop-color:#223A8E"/>
				<stop  offset="0.3064" style="stop-color:#456FA9"/>
				<stop  offset="0.6232" style="stop-color:#65A0C2"/>
				<stop  offset="0.8646" style="stop-color:#79BFD1"/>
				<stop  offset="1" style="stop-color:#80CAD7"/>
			</linearGradient>
			<path style="fill:url(#SVGID_3_);" d="M80.3,52.7c0,0.3,0,0.6,0.1,0.8c0.3,0.8,1.1,1,2,0.5c1.2-0.7,2.2-2.3,2.2-3.7
				c0-1.1-0.6-1.7-1.5-1.5c-0.2,0-0.4,0.1-0.6,0.2C81.3,49.7,80.3,51.3,80.3,52.7z"/>
		</g>
		<g>
			
				<linearGradient id="SVGID_4_" gradientUnits="userSpaceOnUse" x1="-697.7231" y1="51.1236" x2="-694.8091" y2="51.1236" gradientTransform="matrix(-1 0 0 1 -614.5101 0)">
				<stop  offset="0" style="stop-color:#315CA7"/>
				<stop  offset="1" style="stop-color:#32BDEF"/>
			</linearGradient>
			<path style="fill:url(#SVGID_4_);" d="M80.3,52.7c0,0.3,0,0.6,0.1,0.8c0.2,0,0.4-0.1,0.6-0.2c1.2-0.7,2.2-2.3,2.2-3.7
				c0-0.3,0-0.6-0.1-0.8c-0.2,0-0.4,0.1-0.6,0.2C81.3,49.7,80.3,51.3,80.3,52.7z"/>
		</g>
		<g>
			
				<linearGradient id="SVGID_5_" gradientUnits="userSpaceOnUse" x1="-697.4376" y1="50.8401" x2="-693.6564" y2="50.8401" gradientTransform="matrix(-1 0 0 1 -614.5101 0)">
				<stop  offset="0" style="stop-color:#FFFFFF"/>
				<stop  offset="0.6819" style="stop-color:#A1D9F5"/>
				<stop  offset="1" style="stop-color:#74C7F0"/>
			</linearGradient>
			<path style="fill:url(#SVGID_5_);" d="M79.1,52.3c0-0.4,0.3-0.9,0.6-1.1l0.5-0.3l-0.8-0.5c0.1-0.2,0.3-0.4,0.5-0.5
				c0.2-0.1,0.3-0.1,0.5,0l0.3,0.2l0-1.3c0.4-0.2,0.6,0,0.6,0.4l0,0.5l0.8-1.4c0.3,0.1,0.3,0.6,0,1L81.8,50l1.1-0.6
				c0,0.4-0.3,0.9-0.6,1.1l-0.5,0.3l0.8,0.5c-0.1,0.2-0.3,0.4-0.5,0.5c-0.2,0.1-0.3,0.1-0.5,0l-0.3-0.2l0,1.3
				c-0.4,0.2-0.6,0-0.6-0.4l0-0.5l-0.8,1.4c-0.3-0.1-0.3-0.6,0-1l0.3-0.6L79.1,52.3z"/>
			
				<linearGradient id="SVGID_6_" gradientUnits="userSpaceOnUse" x1="-696.0474" y1="50.8401" x2="-695.0466" y2="50.8401" gradientTransform="matrix(-1 0 0 1 -614.5101 0)">
				<stop  offset="0" style="stop-color:#315CA7"/>
				<stop  offset="1" style="stop-color:#32BDEF"/>
			</linearGradient>
			<path style="fill:url(#SVGID_6_);" d="M81.5,50.6c0,0.3-0.2,0.7-0.5,0.9c-0.3,0.2-0.5,0-0.5-0.3c0-0.3,0.2-0.7,0.5-0.9
				C81.3,50.1,81.5,50.2,81.5,50.6z"/>
			
				<linearGradient id="SVGID_7_" gradientUnits="userSpaceOnUse" x1="-695.8093" y1="50.84" x2="-695.287" y2="50.84" gradientTransform="matrix(-1 0 0 1 -614.5101 0)">
				<stop  offset="0" style="stop-color:#FFFFFF"/>
				<stop  offset="0.3662" style="stop-color:#FCFDFE"/>
				<stop  offset="0.6134" style="stop-color:#F3F8FD"/>
				<stop  offset="0.8248" style="stop-color:#E4EFFA"/>
				<stop  offset="1" style="stop-color:#D1E4F6"/>
			</linearGradient>
			<path style="fill:url(#SVGID_7_);" d="M81,50.5c-0.1,0.1-0.3,0.3-0.3,0.5c0,0.2,0.1,0.2,0.3,0.1c0.1-0.1,0.3-0.3,0.3-0.5
				C81.3,50.5,81.2,50.5,81,50.5z"/>
		</g>
		
			<linearGradient id="SVGID_8_" gradientUnits="userSpaceOnUse" x1="-699.2651" y1="50.6543" x2="-692.2499" y2="50.6543" gradientTransform="matrix(-1 0 0 1 -614.5101 0)">
			<stop  offset="0" style="stop-color:#FFFFFF"/>
			<stop  offset="0.3662" style="stop-color:#FCFDFE"/>
			<stop  offset="0.6134" style="stop-color:#F3F8FD"/>
			<stop  offset="0.8248" style="stop-color:#E4EFFA"/>
			<stop  offset="1" style="stop-color:#D1E4F6"/>
		</linearGradient>
		<path style="fill:url(#SVGID_8_);" d="M77.7,52.3C77.7,52.4,77.7,52.4,77.7,52.3L77.7,52.3C77.7,52.4,77.7,52.4,77.7,52.3
			C77.7,52.4,77.7,52.4,77.7,52.3c0,0.1,0,0.1,0,0.1c0,0,0,0,0,0.1l0,0c0,0,0,0,0,0c0,0,0,0,0,0c0,0,0,0.1,0,0.1c0,0,0,0,0,0l0,0
			c0,0,0,0,0,0c0,0,0,0,0,0c0,0,0,0,0,0c0,0,0,0.1,0,0.1c0,0,0,0,0,0c0,0,0,0,0,0c0,0,0,0.1,0,0.1c0,0,0,0,0,0c0,0,0,0,0,0
			c0,0,0,0,0,0l0,0l0,0c0,0,0,0,0,0c0,0,0,0,0,0c0,0,0,0,0,0.1c0,0,0,0,0,0c0,0,0,0,0,0.1l0,0c0,0,0,0,0,0c0,0,0,0,0,0c0,0,0,0,0,0
			c0,0,0,0,0,0c0,0,0,0,0,0c0,0,0,0,0,0c0,0,0,0,0,0c0,0,0,0,0,0c0,0,0,0,0,0c0,0,0,0,0,0c0,0,0,0,0,0c0,0,0,0,0,0c0,0,0,0,0,0
			c0,0,0,0,0,0c0,0,0,0,0,0c0,0,0,0,0,0c0,0,0,0,0,0c0,0,0,0,0,0c0,0,0,0,0,0c0,0,0,0,0,0c0,0,0,0,0,0c0,0,0,0,0,0c0,0,0,0,0,0
			c0,0,0,0,0,0c0,0,0,0,0,0c0,0,0,0,0,0c0,0,0,0,0,0c0,0,0,0,0,0c0,0,0,0,0,0c0,0,0,0,0,0c0,0,0,0,0,0c0,0,0,0,0,0c0,0,0,0,0,0
			c0,0,0,0,0,0c0,0,0,0,0,0c0,0,0,0,0,0c0,0,0,0,0,0c0,0,0,0,0,0c0,0,0,0,0,0c0,0,0.1,0.1,0.1,0.1c0,0,0.1,0.1,0.1,0.1
			c0,0,0,0,0.1,0c0.1,0,0.1,0.1,0.2,0.1c0,0,0,0,0,0l0,0c0,0,0.1,0,0.1,0.1l0,0c0,0,0,0,0,0c0.1,0,0.1,0.1,0.2,0.1c0,0,0,0,0,0
			l0.2,0.1c0.1,0,0.1,0,0.2,0.1c0,0,0,0,0.1,0c0.3,0.1,0.6,0.1,0.9,0.1c0,0,0,0,0,0c0.1,0,0.1,0,0.2,0c0,0,0.1,0,0.1,0l0.2,0
			c0,0,0,0,0,0c0,0,0,0,0.1,0c0.1,0,0.2,0,0.2,0l0.2-0.1c0,0,0,0,0,0c0.1,0,0.1,0,0.2-0.1c0,0,0,0,0,0c0.1-0.1,0.3-0.1,0.4-0.2
			c0.1,0,0.1-0.1,0.2-0.1c0.1,0,0.2-0.1,0.2-0.1l0,0c0.1-0.1,0.1-0.1,0.2-0.1c0.1-0.1,0.1-0.1,0.2-0.2l0.2-0.2c0,0,0,0,0,0
			c0,0,0-0.1,0.1-0.1c0,0,0.1-0.1,0.1-0.1l0.2-0.2c0-0.1,0.1-0.1,0.2-0.2l0,0c0.1-0.1,0.2-0.2,0.2-0.4c0,0,0,0,0,0l0-0.1
			c0,0,0,0,0-0.1l0.1-0.1c0-0.1,0.1-0.2,0.1-0.2l0,0c0-0.1,0.1-0.2,0.2-0.4c0,0,0,0,0,0l0,0c0,0,0-0.1,0-0.1l0-0.1
			c0-0.1,0-0.1,0.1-0.2c0,0,0,0,0,0c0,0,0,0,0,0l0.1-0.2c0-0.1,0-0.2,0-0.2l0-0.2c0,0,0,0,0,0l0-0.1c0-0.1,0-0.2,0-0.3l0,0
			c0,0,0,0,0,0l0-0.1c0,0,0-0.1,0-0.1c0,0,0-0.1,0-0.1c0,0,0,0,0-0.1c0,0,0-0.1,0-0.1c0,0,0,0,0,0c0,0,0-0.1,0-0.1c0,0,0,0,0,0
			c0,0,0,0,0-0.1l-0.1-0.2c0,0,0,0,0-0.1c0,0,0-0.1,0-0.1c0-0.1-0.1-0.1-0.1-0.2l-0.1-0.1c0,0,0-0.1,0-0.1c0-0.1-0.1-0.1-0.1-0.2
			L84.1,48c0-0.1-0.1-0.1-0.1-0.2l-0.1-0.1l0,0l-0.1-0.1c0,0-0.1-0.1-0.1-0.1c0,0,0,0,0,0c0,0,0,0,0,0l-0.1-0.1c0,0-0.1-0.1-0.1-0.1
			c0,0-0.1,0-0.1-0.1l-0.1-0.1c0,0-0.1,0-0.1-0.1c0,0,0,0,0,0c0,0,0,0-0.1,0l0,0c0,0-0.1-0.1-0.1-0.1l0,0c0,0,0,0,0,0
			c-0.1-0.1-0.2-0.1-0.3-0.1c0,0-0.1,0-0.1,0c0,0,0,0,0,0c0,0-0.1,0-0.1,0c0,0,0,0,0,0c0,0,0,0,0,0c0,0,0,0,0,0c0,0,0,0,0,0
			c0,0,0,0,0,0c0,0,0,0,0,0c0,0,0,0,0,0c0,0,0,0,0,0c0,0,0,0,0,0c0,0,0,0,0,0c0,0,0,0,0,0c0,0,0,0,0,0c0,0,0,0,0,0c0,0,0,0,0,0
			c0,0,0,0,0,0c0,0,0,0,0,0c0,0,0,0,0,0c0,0,0,0,0,0c0,0,0,0,0,0c0,0,0,0,0,0c0,0,0,0,0,0c0,0,0,0,0,0c0,0,0,0,0,0c0,0,0,0,0,0
			c0,0,0,0,0,0c0,0,0,0,0,0c0,0,0,0,0,0c0,0,0,0,0,0l0,0c0,0,0,0,0,0c0,0,0,0,0,0l0,0l0,0c0,0,0,0,0,0c0,0,0,0,0,0c0,0,0,0,0,0
			c0,0,0,0-0.1,0c0,0,0,0,0,0c0,0,0,0,0,0c0,0,0,0,0,0l0,0c0,0,0,0,0,0c0,0,0,0,0,0c0,0,0,0,0,0c0,0,0,0,0,0c0,0,0,0,0,0l0,0l0,0
			c0,0,0,0,0,0c0,0,0,0,0,0c0,0,0,0-0.1,0c0,0,0,0,0,0c0,0,0,0,0,0l0,0c0,0,0,0,0,0c0,0,0,0,0,0c0,0,0,0,0,0c0,0,0,0,0,0
			c0,0,0,0,0,0c0,0,0,0,0,0c0,0-0.1,0-0.1,0c0,0,0,0,0,0l0,0l0,0c0,0,0,0,0,0c0,0,0,0,0,0c0,0,0,0,0,0c0,0,0,0,0,0c0,0,0,0,0,0l0,0
			c0,0,0,0-0.1,0c0,0,0,0,0,0c0,0,0,0,0,0c0,0,0,0,0,0l0,0c0,0,0,0,0,0c0,0,0,0-0.1,0c0,0,0,0,0,0c0,0,0,0,0,0c0,0,0,0,0,0
			c0,0-0.1,0-0.1,0c0,0,0,0,0,0c0,0-0.1,0-0.1,0.1c-0.1,0-0.1,0.1-0.2,0.1c0,0,0,0,0,0c0,0-0.1,0-0.1,0.1c0,0,0,0,0,0c0,0,0,0,0,0
			c0,0,0,0,0,0h0c0,0,0,0,0,0c0,0,0,0,0,0c0,0,0,0,0,0c0,0,0,0,0,0c0,0,0,0,0,0c0,0,0,0,0,0l0,0c0,0,0,0,0,0c0,0,0,0,0,0
			c0,0,0,0-0.1,0c0,0,0,0,0,0c0,0,0,0,0,0c0,0,0,0,0,0c0,0,0,0,0,0c0,0,0,0,0,0c0,0,0,0-0.1,0c0,0,0,0,0,0l0,0c0,0,0,0,0,0
			c0,0,0,0,0,0c0,0,0,0,0,0c0,0,0,0,0,0c0,0,0,0,0,0c0,0,0,0,0,0c0,0,0,0,0,0c0,0,0,0,0,0c0,0,0,0,0,0c0,0,0,0-0.1,0.1l0,0
			c0,0,0,0,0,0c0,0,0,0,0,0c0,0,0,0,0,0c0,0,0,0,0,0c0,0,0,0-0.1,0.1c0,0,0,0,0,0l0,0c0,0,0,0,0,0c0,0,0,0,0,0c0,0-0.1,0.1-0.1,0.1
			c0,0,0,0,0,0c0,0,0,0,0,0c0,0,0,0,0,0c0,0-0.1,0.1-0.1,0.1c0,0-0.1,0.1-0.1,0.1c0,0,0,0,0,0c0,0,0,0,0,0c0,0,0,0.1-0.1,0.1
			c0,0,0,0.1-0.1,0.1c-0.1,0.1-0.1,0.2-0.2,0.3c0,0,0,0,0,0c-0.1,0.1-0.1,0.2-0.2,0.3c0,0,0,0,0,0c0,0,0,0,0,0.1
			c0,0.1-0.1,0.1-0.1,0.2c0,0.1-0.1,0.1-0.1,0.2c0,0,0,0.1-0.1,0.1c0,0,0,0,0,0c0,0,0,0.1-0.1,0.1c0,0,0,0.1-0.1,0.1c0,0,0,0,0,0
			c0,0,0,0,0,0c0,0,0,0,0,0c0,0,0,0,0,0c0,0,0,0,0,0c0,0.1-0.1,0.1-0.1,0.2c0,0,0,0,0,0c0,0,0,0,0,0c0,0,0,0,0,0c0,0,0,0,0,0.1
			c0,0,0,0,0,0c0,0,0,0,0,0.1c0,0,0,0,0,0c0,0,0,0,0,0.1c0,0,0,0,0,0c0,0,0,0.1,0,0.1c0,0,0,0,0,0c0,0,0,0,0,0c0,0,0,0,0,0
			c0,0,0,0,0,0c0,0,0,0,0,0c0,0,0,0,0,0c0,0,0,0.1,0,0.1c0,0,0,0,0,0c0,0,0,0,0,0c0,0,0,0,0,0.1c0,0,0,0,0,0.1l0,0c0,0,0,0,0,0
			c0,0,0,0,0,0c0,0,0,0,0,0c0,0,0,0,0,0c0,0,0,0,0,0c0,0,0,0,0,0l0,0c0,0,0,0,0,0c0,0,0,0,0,0c0,0,0,0,0,0c0,0,0,0,0,0c0,0,0,0,0,0
			c0,0,0,0,0,0l0,0c0,0,0,0,0,0c0,0,0,0,0,0.1c0,0,0,0,0,0.1c0,0,0,0,0,0l0,0c0,0,0,0,0,0c0,0,0,0,0,0c0,0,0,0,0,0c0,0,0,0,0,0
			c0,0,0,0,0,0l0,0c0,0,0,0,0,0c0,0,0,0,0,0c0,0,0,0,0,0c0,0,0,0,0,0c0,0,0,0,0,0c0,0,0,0,0,0l0,0c0,0,0,0,0,0c0,0,0,0,0,0
			c0,0,0,0,0,0c0,0,0,0,0,0c0,0,0,0,0,0c0,0,0,0,0,0c0,0,0,0,0,0c0,0,0,0,0,0c0,0,0,0,0,0l0,0c0,0.1,0,0.1,0,0.1c0,0,0,0,0,0
			c0,0,0,0.1,0,0.1c0,0,0,0,0,0l0,0C77.7,52.2,77.7,52.2,77.7,52.3C77.7,52.3,77.7,52.3,77.7,52.3C77.7,52.3,77.7,52.3,77.7,52.3z
			 M82.4,54c-1.2,0.7-2.2,0.1-2.1-1.3c0-1.4,1-3,2.2-3.7c0.2-0.1,0.4-0.2,0.7-0.3c0.9-0.1,1.5,0.4,1.4,1.6
			C84.6,51.7,83.6,53.3,82.4,54z"/>
	</g>
	<g>
		<g style="enable-background:new    ;">
			<g>
				
					<linearGradient id="SVGID_9_" gradientUnits="userSpaceOnUse" x1="-683.9245" y1="51.7746" x2="-694.6924" y2="33.1241" gradientTransform="matrix(-1 0 0 1 -614.5101 0)">
					<stop  offset="5.376340e-03" style="stop-color:#297787"/>
					<stop  offset="0.1994" style="stop-color:#468C9B"/>
					<stop  offset="0.5652" style="stop-color:#77AFBC"/>
					<stop  offset="0.8437" style="stop-color:#96C5D0"/>
					<stop  offset="1" style="stop-color:#A1CDD8"/>
				</linearGradient>
				<path style="fill:url(#SVGID_9_);" d="M61.6,47.2l10.2,5.9l13.7-11.9c2.2-1.6,1.9-3.9-0.6-5.4c-0.7-0.4-1.8-0.4-2.5,0L61.6,47.2
					z"/>
			</g>
			<g>
				
					<linearGradient id="SVGID_10_" gradientUnits="userSpaceOnUse" x1="-686.3003" y1="50.8625" x2="-676.1072" y2="50.8625" gradientTransform="matrix(-1 0 0 1 -614.5101 0)">
					<stop  offset="0" style="stop-color:#39509D"/>
					<stop  offset="0.2266" style="stop-color:#425DA7"/>
					<stop  offset="0.4381" style="stop-color:#4764AC"/>
					<stop  offset="0.8826" style="stop-color:#6485C3"/>
				</linearGradient>
				<polygon style="fill:url(#SVGID_10_);" points="61.6,47.2 61.6,48.6 71.8,54.5 71.8,53.1 				"/>
			</g>
			
				<linearGradient id="SVGID_11_" gradientUnits="userSpaceOnUse" x1="-701.5112" y1="46.6217" x2="-686.2964" y2="46.6217" gradientTransform="matrix(-1 0 0 1 -614.5101 0)">
				<stop  offset="0" style="stop-color:#FFFFFF"/>
				<stop  offset="3.824025e-02" style="stop-color:#F8FBFE"/>
				<stop  offset="0.1594" style="stop-color:#E6F1FA"/>
				<stop  offset="0.3072" style="stop-color:#DAE9F8"/>
				<stop  offset="0.5083" style="stop-color:#D3E5F6"/>
				<stop  offset="1" style="stop-color:#D1E4F6"/>
			</linearGradient>
			<path style="fill:url(#SVGID_11_);" d="M85.5,41.3c1-0.7,1.5-1.6,1.5-2.5l0,1.4c0,0.9-0.5,1.8-1.5,2.5L71.8,54.5l0-1.4L85.5,41.3
				z"/>
		</g>
	</g>
</g>
<g id="box_20_">
	<g>
		
			<linearGradient id="SVGID_12_" gradientUnits="userSpaceOnUse" x1="-663.4219" y1="72.445" x2="-663.4219" y2="43.4445" gradientTransform="matrix(-1 0 0 1 -614.5101 0)">
			<stop  offset="5.376340e-03" style="stop-color:#297787"/>
			<stop  offset="0.1994" style="stop-color:#468C9B"/>
			<stop  offset="0.5652" style="stop-color:#77AFBC"/>
			<stop  offset="0.8437" style="stop-color:#96C5D0"/>
			<stop  offset="1" style="stop-color:#A1CDD8"/>
		</linearGradient>
		<path style="fill:url(#SVGID_12_);" d="M41.9,43.7c-1-0.6-1.8-0.1-1.8,1L40,61c0,1.1,0.8,2.5,1.8,3.1L56,72.2c1,0.6,1.8,0.1,1.8-1
			l0-16.3c0-1.1-0.8-2.5-1.8-3.1L41.9,43.7z"/>
	</g>
	
		<linearGradient id="SVGID_13_" gradientUnits="userSpaceOnUse" x1="-668.9286" y1="52.0843" x2="-668.9286" y2="57.6409" gradientTransform="matrix(-1 0 0 1 -614.5101 0)">
		<stop  offset="0" style="stop-color:#FFFFFF"/>
		<stop  offset="0.3662" style="stop-color:#FCFDFE"/>
		<stop  offset="0.6134" style="stop-color:#F3F8FD"/>
		<stop  offset="0.8248" style="stop-color:#E4EFFA"/>
		<stop  offset="1" style="stop-color:#D1E4F6"/>
	</linearGradient>
	<polygon style="fill:url(#SVGID_13_);" points="56,53.9 52.8,52.1 52.8,55.8 56,57.6 	"/>
	
		<linearGradient id="SVGID_14_" gradientUnits="userSpaceOnUse" x1="-665.1063" y1="49.9384" x2="-665.1063" y2="55.495" gradientTransform="matrix(-1 0 0 1 -614.5101 0)">
		<stop  offset="0" style="stop-color:#FFFFFF"/>
		<stop  offset="0.3662" style="stop-color:#FCFDFE"/>
		<stop  offset="0.6134" style="stop-color:#F3F8FD"/>
		<stop  offset="0.8248" style="stop-color:#E4EFFA"/>
		<stop  offset="1" style="stop-color:#D1E4F6"/>
	</linearGradient>
	<polygon style="fill:url(#SVGID_14_);" points="52.2,51.8 49,49.9 49,53.6 52.2,55.5 	"/>
	
		<linearGradient id="SVGID_15_" gradientUnits="userSpaceOnUse" x1="-672.5239" y1="72.3255" x2="-672.5239" y2="33.2258" gradientTransform="matrix(-1 0 0 1 -614.5101 0)">
		<stop  offset="5.227065e-03" style="stop-color:#48A7C1"/>
		<stop  offset="1" style="stop-color:#225C69"/>
	</linearGradient>
	<path style="fill:url(#SVGID_15_);" d="M40.7,43.5C40.7,43.5,40.7,43.5,40.7,43.5C40.7,43.5,40.7,43.5,40.7,43.5
		c0.1,0,0.1-0.1,0.2-0.1c0,0,0,0,0,0c0,0,0,0,0,0c0,0,0,0,0,0c0,0,0,0,0,0c0,0,0.1,0,0.1,0c0,0,0,0,0,0h0c0,0,0.1,0,0.1,0
		c0,0,0,0,0,0c0,0,0.1,0,0.1,0c0,0,0,0,0,0c0,0,0,0,0.1,0c0,0,0.1,0,0.1,0c0,0,0.1,0,0.1,0c0,0,0,0,0,0c0,0,0.1,0,0.1,0.1
		c0,0,0.1,0,0.1,0.1L56,51.9c0,0,0.1,0.1,0.1,0.1c0,0,0.1,0.1,0.1,0.1c0,0,0,0,0,0c0,0,0,0,0,0c0,0,0.1,0.1,0.1,0.1c0,0,0,0,0,0
		c0,0,0.1,0.1,0.1,0.1l0.1,0.1c0,0,0.1,0.1,0.1,0.1c0,0,0,0,0,0c0,0,0,0,0.1,0.1c0,0,0,0.1,0.1,0.1c0,0,0.1,0.1,0.1,0.1
		c0,0,0,0,0,0.1c0,0,0.1,0.1,0.1,0.1c0,0,0,0,0,0c0,0.1,0.1,0.1,0.1,0.2c0,0,0,0,0,0c0,0.1,0.1,0.1,0.1,0.2c0,0,0,0,0,0.1
		c0,0.1,0.1,0.1,0.1,0.2c0,0,0,0,0,0c0,0.1,0.1,0.1,0.1,0.2c0,0,0,0,0,0.1c0,0,0,0.1,0,0.1c0,0,0,0,0,0.1c0,0,0,0.1,0,0.1
		c0,0,0,0.1,0,0.1c0,0,0,0,0,0c0,0.1,0,0.1,0,0.2c0,0,0,0,0,0.1c0,0,0,0.1,0,0.1c0,0.1,0,0.1,0,0.2v0l0,16.3c0,0.1,0,0.1,0,0.2
		c0,0,0,0.1,0,0.1c0,0,0,0.1,0,0.1c0,0.1,0,0.1-0.1,0.2c0,0,0,0.1,0,0.1c0,0,0,0,0,0.1c0,0.1-0.1,0.2-0.2,0.2c0,0,0,0-0.1,0.1
		c0,0,0,0,0,0c0,0-0.1,0-0.1,0.1l0,0l17.6-10.2c0.1-0.1,0.2-0.2,0.3-0.3c0.1-0.2,0.2-0.5,0.2-0.8l0-16.3c0-0.1,0-0.2,0-0.3
		c0,0,0,0,0,0c0,0,0,0,0,0c0,0,0-0.1,0-0.1c0,0,0,0,0-0.1c0,0,0,0,0,0c0,0,0-0.1,0-0.1c0,0,0-0.1,0-0.1c0,0,0,0,0,0c0,0,0,0,0-0.1
		c0,0,0,0,0-0.1c0,0,0-0.1,0-0.1c0,0,0,0,0-0.1c0,0,0,0,0,0c0-0.1,0-0.1-0.1-0.2c0,0,0,0,0,0c0,0,0,0,0,0c0,0,0-0.1-0.1-0.1
		c0,0,0,0,0,0c0,0,0,0,0-0.1c0,0,0,0,0,0c0,0,0-0.1-0.1-0.1c0,0,0,0,0,0c0,0,0,0,0,0c0,0-0.1-0.1-0.1-0.1c0,0,0,0,0,0c0,0,0,0,0,0
		c0,0,0-0.1-0.1-0.1c0,0,0,0,0,0c0,0,0,0,0-0.1c0,0,0,0,0,0c0,0,0,0,0-0.1c0,0,0-0.1-0.1-0.1c0,0,0,0,0,0c0,0,0,0,0,0
		c0,0-0.1-0.1-0.1-0.1c0,0,0,0,0,0c0,0,0,0,0,0c-0.1-0.1-0.2-0.1-0.2-0.2c0,0,0,0,0,0c-0.1-0.1-0.2-0.1-0.3-0.2l-14.2-8.2
		c-0.1,0-0.1-0.1-0.2-0.1c0,0,0,0,0,0c0,0,0,0,0,0c0,0-0.1,0-0.1,0c0,0,0,0,0,0c0,0,0,0,0,0c0,0,0,0-0.1,0c0,0,0,0,0,0c0,0,0,0,0,0
		c0,0,0,0-0.1,0c0,0,0,0,0,0c0,0-0.1,0-0.1,0h0c0,0-0.1,0-0.1,0c0,0,0,0,0,0c0,0,0,0,0,0c0,0,0,0-0.1,0c0,0,0,0,0,0c0,0,0,0,0,0
		c0,0,0,0,0,0c0,0-0.1,0-0.1,0c0,0,0,0,0,0l-6.5,3.8l-2.5,1.4L40.7,43.5z"/>
	
		<linearGradient id="SVGID_16_" gradientUnits="userSpaceOnUse" x1="-684.4418" y1="46.5471" x2="-663.7548" y2="46.5471" gradientTransform="matrix(-1 0 0 1 -614.5101 0)">
		<stop  offset="0" style="stop-color:#FFFFFF"/>
		<stop  offset="0.3662" style="stop-color:#FCFDFE"/>
		<stop  offset="0.6134" style="stop-color:#F3F8FD"/>
		<stop  offset="0.8248" style="stop-color:#E4EFFA"/>
		<stop  offset="1" style="stop-color:#D1E4F6"/>
	</linearGradient>
	<path style="fill:url(#SVGID_16_);" d="M65.9,53.5l-1.6,0.9l2.8,1.6l2.8-4.9L68.4,52l0-2.2c0-0.2,0-0.3,0-0.5l0,0l0-0.1
		c0-0.1,0-0.2,0-0.2l0,0c0,0,0-0.1,0-0.1c0,0,0-0.1,0-0.1c0-0.1,0-0.1-0.1-0.2c0,0,0-0.1,0-0.1c0-0.1,0-0.1-0.1-0.2l0-0.1
		c0-0.1-0.1-0.2-0.1-0.3l0,0c0-0.1-0.1-0.2-0.1-0.2l0-0.1c0-0.1-0.1-0.2-0.1-0.2l0,0c0-0.1-0.1-0.2-0.2-0.3l0-0.1
		c-0.1-0.1-0.1-0.1-0.1-0.2l-0.1-0.1c0-0.1-0.1-0.1-0.1-0.2c0,0-0.1-0.1-0.1-0.1c0,0-0.1-0.1-0.1-0.1c-0.1-0.1-0.1-0.1-0.2-0.2
		c0,0-0.1-0.1-0.1-0.1c-0.1-0.1-0.3-0.2-0.4-0.3l-0.1,0c-0.2-0.1-0.3-0.2-0.5-0.3l-13.9-8l-2.5,1.4l15.1,8.7c0.1,0,0.1,0.1,0.2,0.1
		l0,0c0.1,0.1,0.1,0.1,0.2,0.2l0,0c0,0,0.1,0.1,0.1,0.1l0.1,0.1c0,0,0,0,0.1,0.1c0,0,0,0.1,0.1,0.1l0,0.1c0,0,0.1,0.1,0.1,0.1l0,0
		c0,0.1,0.1,0.1,0.1,0.2l0,0c0,0.1,0.1,0.1,0.1,0.2l0,0c0,0.1,0,0.1,0.1,0.2l0,0c0,0,0,0.1,0.1,0.2l0,0c0,0,0,0.1,0,0.1l0,0.1
		c0,0,0,0.1,0,0.1l0,0.2c0,0,0,0.1,0,0.1l0,0.1c0,0.1,0,0.2,0,0.2L65.9,53.5z"/>
	<linearGradient id="SVGID_17_" gradientUnits="userSpaceOnUse" x1="40.6007" y1="43.5638" x2="40.6007" y2="43.5638">
		<stop  offset="0" style="stop-color:#48A7C1"/>
		<stop  offset="1" style="stop-color:#7AC8D1"/>
	</linearGradient>
	<path style="fill:url(#SVGID_17_);" d="M40.6,43.6"/>
	<path style="fill:none;" d="M47,37.2L47,37.2L47,37.2C47,37.3,47,37.3,47,37.2L47,37.2z"/>
</g>
<g id="right-wing_5_">
	<g>
		<g>
			
				<linearGradient id="SVGID_18_" gradientUnits="userSpaceOnUse" x1="-656.0822" y1="66.9246" x2="-652.2505" y2="66.9246" gradientTransform="matrix(-1 0 0 1 -614.5101 0)">
				<stop  offset="0" style="stop-color:#FFFFFF"/>
				<stop  offset="0.2469" style="stop-color:#FCFEFF"/>
				<stop  offset="0.4135" style="stop-color:#F3FAFE"/>
				<stop  offset="0.5565" style="stop-color:#E4F4FC"/>
				<stop  offset="0.6862" style="stop-color:#CFECFA"/>
				<stop  offset="0.8069" style="stop-color:#B3E0F7"/>
				<stop  offset="0.9192" style="stop-color:#91D3F3"/>
				<stop  offset="1" style="stop-color:#74C7F0"/>
			</linearGradient>
			<path style="fill:url(#SVGID_18_);" d="M37.7,67.8C37.7,67.8,37.7,67.8,37.7,67.8C37.7,67.8,37.7,67.8,37.7,67.8
				C37.7,67.8,37.7,67.8,37.7,67.8C37.7,67.8,37.7,67.8,37.7,67.8C37.7,67.8,37.7,67.8,37.7,67.8c0-0.1,0-0.2,0-0.2l0,0c0,0,0,0,0,0
				l0,0c0,0,0,0,0,0l0-0.1c0,0,0-0.1,0-0.1c0,0,0,0,0,0c0,0,0,0,0,0c0,0,0,0,0,0c0,0,0,0,0,0c0,0,0-0.1,0-0.1l0-0.1c0,0,0,0,0,0l0,0
				c0,0,0-0.1,0-0.1c0,0,0,0,0,0c0,0,0,0,0,0l0,0c0,0,0,0,0,0l0,0c0,0,0-0.1,0-0.1l0,0c0,0,0,0,0,0c0.1-0.3,0.3-0.6,0.5-0.9
				c0,0,0,0,0,0c0-0.1,0.1-0.1,0.1-0.2c0,0,0,0,0,0l0-0.1c0,0,0,0,0-0.1l0,0l0,0c0,0,0,0,0,0c0,0,0.1-0.1,0.1-0.1c0,0,0,0,0,0l0,0
				c0,0,0.1-0.1,0.1-0.1l0,0c0,0,0,0,0,0c0,0,0,0,0,0c0,0,0.1,0,0.1-0.1c0,0,0,0,0.1,0l0,0c0,0,0,0,0,0l0.1-0.1c0,0,0.1-0.1,0.1-0.1
				c0,0,0,0,0.1,0c0,0,0,0,0,0l0.1,0c0,0,0,0,0,0c0,0,0,0,0,0c0,0,0,0,0,0c0,0,0,0,0,0l0,0l0.1-0.1l0,0c0,0,0.1,0,0.1,0l0.1,0
				c0.1,0,0.1,0,0.2-0.1l0.1,0v0c0,0,0,0,0,0c0,0,0,0-0.1,0c0,0,0,0,0.1,0l0,0c0,0,0,0,0.1,0l0.2,0c0,0,0,0,0,0l0,0c0,0,0,0,0,0l0,0
				v0c0,0,0,0,0,0c0,0,0.1,0,0.1,0c0,0,0,0,0,0c0,0,0,0,0,0c0,0,0,0,0,0c0,0,0,0,0,0c0,0,0.1,0,0.1,0l0,0c0,0,0,0,0.1,0l0.1,0
				c0,0,0,0,0,0c0,0,0,0,0,0c0,0,0,0,0,0c0,0,0.1,0,0.1,0c0,0,0.1,0,0.1,0l0.1,0c0,0,0,0,0,0c0,0,0.1,0,0.1,0c0.1,0,0.1,0,0.2,0.1
				c0,0,0.1,0,0.1,0c-0.1,0-0.2,0-0.2-0.1c0,0,0,0,0,0c0,0,0,0,0,0c0,0,0,0,0,0c0,0,0,0,0,0c0,0,0,0,0,0c0,0,0,0,0,0c0,0,0,0,0,0
				c0,0-0.1,0-0.1,0c0,0,0,0,0,0c0,0,0,0,0,0c0,0,0,0,0,0c0,0-0.1,0-0.2,0c0,0,0,0,0,0c0,0,0,0-0.1,0c0,0,0,0-0.1,0
				c-0.1,0-0.1,0-0.2,0.1c0,0,0,0-0.1,0c0,0-0.1,0-0.1,0.1c-0.1,0.1-0.2,0.1-0.3,0.2c0,0,0,0,0,0c0,0,0,0,0,0c0,0,0,0,0,0
				c0,0,0,0,0,0c0,0,0,0,0,0c-0.1,0.1-0.1,0.1-0.2,0.2c0,0-0.1,0.1-0.1,0.1c-0.1,0.1-0.1,0.2-0.2,0.2c0,0-0.1,0.1-0.1,0.1
				c-0.1,0.1-0.2,0.2-0.3,0.3c-0.1,0.1-0.1,0.2-0.2,0.3c0,0-0.1,0.1-0.1,0.1c0,0,0,0.1-0.1,0.1c0,0,0,0.1-0.1,0.1
				c0,0.1-0.1,0.2-0.1,0.3c0,0.1,0,0.1-0.1,0.2c0,0,0,0,0,0.1c0,0.1-0.1,0.2-0.1,0.2c0,0,0,0.1,0,0.1c0,0,0,0.1,0,0.1
				c0,0.1,0,0.2-0.1,0.2c0,0,0,0,0,0c0,0,0,0,0,0c0,0,0,0,0,0c0,0,0,0,0,0c0,0,0,0,0,0c0,0,0,0,0,0c0,0,0,0,0,0c0,0.1,0,0.3,0,0.4
				c0,0,0,0.1,0,0.1c0,0,0,0,0,0c0,0.1,0,0.2,0,0.2c0,0,0,0.1,0,0.1c0,0,0,0.1,0,0.1c0,0,0,0,0,0c0,0.1,0,0.1,0,0.2c0,0,0,0,0,0.1
				c0,0,0,0,0,0.1c0,0,0,0,0,0.1c0,0,0,0,0,0c0,0.1,0.1,0.1,0.1,0.2c0,0,0,0,0,0c0,0,0,0,0,0c0,0,0,0,0,0c0,0,0,0,0,0c0,0,0,0,0,0
				c0,0,0,0,0,0c0.1,0.1,0.1,0.1,0.2,0.2c0,0-0.1-0.1-0.2-0.1l-0.1-0.1c0,0,0,0,0,0c0,0,0,0,0,0c0,0-0.1-0.1-0.1-0.1l0-0.1
				c0,0,0,0,0,0c0,0,0,0,0,0l0,0c0,0,0,0,0,0c0,0,0,0,0,0c0,0,0,0,0,0c0,0,0-0.1-0.1-0.1c0,0,0-0.1,0-0.1c0,0,0,0,0,0l-0.1-0.1
				c0,0,0-0.1,0-0.1c0,0,0,0,0,0c0,0,0,0,0-0.1c0,0,0,0,0,0c0,0,0-0.1,0-0.1c0,0,0,0,0,0l0,0c0,0,0,0,0,0l0-0.1c0,0,0-0.1,0-0.1
				l0,0.1l0,0c0,0,0,0,0,0l0,0c0-0.1,0-0.2,0-0.2L37.7,67.8C37.7,67.8,37.7,67.8,37.7,67.8z"/>
			<path style="fill:#404040;" d="M39.6,64.6C39.6,64.6,39.6,64.6,39.6,64.6C39.6,64.6,39.6,64.6,39.6,64.6
				C39.6,64.6,39.6,64.6,39.6,64.6z"/>
			<path style="fill:#404040;" d="M40.6,64.2C40.6,64.2,40.6,64.2,40.6,64.2C40.6,64.2,40.6,64.2,40.6,64.2z"/>
			<path style="fill:#404040;" d="M40.8,64.2L40.8,64.2C40.8,64.2,40.8,64.2,40.8,64.2C40.8,64.2,40.8,64.2,40.8,64.2
				C40.8,64.2,40.8,64.2,40.8,64.2z"/>
			<path style="fill:#404040;" d="M41.1,64.3C41.1,64.3,41.1,64.3,41.1,64.3C41.1,64.3,41.1,64.2,41.1,64.3
				C41.1,64.2,41.1,64.2,41.1,64.3z"/>
			<path style="fill:#404040;" d="M41.5,64.3c0,0,0.1,0,0.1,0C41.6,64.4,41.5,64.4,41.5,64.3C41.5,64.3,41.5,64.3,41.5,64.3z"/>
		</g>
		
			<linearGradient id="SVGID_19_" gradientUnits="userSpaceOnUse" x1="-662.3978" y1="69.1034" x2="-652.5215" y2="69.1034" gradientTransform="matrix(-1 0 0 1 -614.5101 0)">
			<stop  offset="5.376340e-03" style="stop-color:#223A8E"/>
			<stop  offset="0.3064" style="stop-color:#456FA9"/>
			<stop  offset="0.6232" style="stop-color:#65A0C2"/>
			<stop  offset="0.8646" style="stop-color:#79BFD1"/>
			<stop  offset="1" style="stop-color:#80CAD7"/>
		</linearGradient>
		<path style="fill:url(#SVGID_19_);" d="M38,68.3c0,0,0-0.1,0-0.1c0,0,0-0.1,0-0.1c0,0,0,0,0,0c0,0,0,0,0,0c0,0,0,0,0-0.1
			c0,0,0-0.1,0-0.1c0,0,0,0,0-0.1c0,0,0,0,0,0c0,0,0,0,0,0c0,0,0-0.1,0-0.1c0,0,0-0.1,0-0.1l0,0c0,0,0,0,0,0c0,0,0-0.1,0-0.1
			c0,0,0-0.1,0-0.1c0,0,0,0,0,0c0,0,0,0,0,0c0,0,0-0.1,0-0.1c0,0,0-0.1,0-0.1c0,0,0,0,0,0c0,0,0,0,0,0c0-0.1,0-0.1,0.1-0.2
			c0,0,0,0,0-0.1c0,0,0,0,0-0.1c0,0,0,0,0-0.1c0,0,0-0.1,0.1-0.1c0,0,0-0.1,0-0.1c0,0,0,0,0,0c0,0,0,0,0,0c0.1-0.1,0.1-0.2,0.2-0.3
			c0,0,0-0.1,0-0.1c0.1-0.1,0.1-0.2,0.2-0.3c0,0,0,0,0,0c0,0,0.1-0.1,0.1-0.1c0,0,0.1-0.1,0.1-0.1c0,0,0,0,0,0
			c0-0.1,0.1-0.1,0.1-0.2c0,0,0,0,0,0c0,0,0,0,0,0c0,0,0-0.1,0.1-0.1c0,0,0.1-0.1,0.1-0.1c0,0,0,0,0,0c0,0,0,0,0,0
			c0,0,0.1-0.1,0.1-0.1c0,0,0,0,0.1-0.1c0,0,0,0,0,0c0,0,0,0,0,0c0,0,0.1-0.1,0.1-0.1c0,0,0.1,0,0.1-0.1c0,0,0,0,0,0c0,0,0,0,0,0
			c0,0,0.1,0,0.1-0.1c0,0,0.1,0,0.1-0.1c0,0,0,0,0,0c0,0,0,0,0.1,0c0,0,0.1,0,0.1,0c0,0,0,0,0,0c0,0,0,0,0,0c0,0,0,0,0,0
			c0,0,0.1,0,0.1,0c0,0,0,0,0,0c0,0,0,0,0,0c0,0,0,0,0,0c0,0,0.1,0,0.1,0c0,0,0,0,0,0c0,0,0,0,0,0c0,0,0,0,0,0c0,0,0.1,0,0.1,0
			c0,0,0,0,0,0c0,0,0,0,0,0c0,0,0,0,0.1,0c0,0,0.1,0,0.1,0c0,0,0,0,0,0c0,0,0,0,0,0c0,0,0.1,0,0.1,0c0,0,0,0,0,0c0,0,0,0,0,0
			c0,0,0,0,0.1,0c0,0,0,0,0,0c0,0,0.1,0,0.1,0c0,0,0,0,0,0c0,0,0,0,0,0c2.1,0.8,4.2,1.6,6.3,2.4c0,0-0.1,0-0.1,0c0,0-0.1,0-0.1,0
			c0,0-0.1,0-0.1,0c0,0,0,0-0.1,0c-0.1,0-0.1,0-0.2,0c0,0,0,0,0,0c-0.1,0-0.1,0-0.2,0c0,0,0,0,0,0c-0.1,0-0.1,0-0.2,0c0,0,0,0,0,0
			c-0.1,0-0.1,0-0.2,0.1c0,0,0,0,0,0c-0.1,0-0.1,0.1-0.2,0.1c0,0,0,0,0,0c-0.1,0-0.2,0.1-0.2,0.1c-0.1,0.1-0.2,0.1-0.3,0.2
			c0,0,0,0,0,0c-0.1,0.1-0.2,0.1-0.3,0.2c0,0,0,0,0,0c-0.1,0.1-0.2,0.1-0.3,0.2c0,0,0,0,0,0c-0.1,0.1-0.2,0.1-0.2,0.2c0,0,0,0,0,0
			c-0.1,0.1-0.2,0.2-0.2,0.3c0,0-0.1,0.1-0.1,0.1c0,0.1-0.1,0.1-0.1,0.2c-0.1,0.1-0.2,0.3-0.3,0.4c0,0,0,0.1-0.1,0.1
			c-0.1,0.1-0.1,0.2-0.2,0.4c0,0,0,0.1-0.1,0.1c0,0,0,0.1-0.1,0.1c0,0.1-0.1,0.1-0.1,0.2c0,0,0,0.1,0,0.1c0,0.1-0.1,0.2-0.1,0.3
			c0,0,0,0,0,0c0,0.1-0.1,0.2-0.1,0.3c0,0,0,0,0,0c0,0.1-0.1,0.2-0.1,0.4c0,0,0,0,0,0c0,0.1-0.1,0.2-0.1,0.4c0,0,0,0,0,0
			c0,0.1,0,0.2,0,0.3c0,0,0,0,0,0c0,0.1,0,0.2,0,0.3c0,0.1,0,0.2,0,0.3c0,0,0,0,0,0c0,0.1,0,0.2,0,0.3c0,0,0,0,0,0
			c0,0.1,0,0.2,0,0.2c0,0,0,0,0,0c0,0.1,0,0.1,0.1,0.2c0,0,0,0,0,0.1c0,0,0,0.1,0.1,0.1c0,0,0,0.1,0.1,0.1c0,0,0,0.1,0.1,0.1
			c0,0,0.1,0.1,0.1,0.1c0,0,0,0,0,0.1c0.1,0.1,0.1,0.1,0.2,0.2c-1.7-1.4-3.5-2.9-5.2-4.3c0,0-0.1-0.1-0.1-0.1c0,0,0,0,0,0
			c0,0-0.1-0.1-0.1-0.1c0,0,0,0,0,0c0,0,0,0,0,0c0,0,0-0.1,0-0.1c0,0,0,0,0,0c0,0,0,0,0-0.1c0,0,0,0,0,0c0,0,0,0,0,0
			c0,0,0-0.1,0-0.1c0,0,0,0,0,0c0,0,0,0,0,0c0,0,0,0,0-0.1c0,0,0-0.1,0-0.1c0,0,0,0,0,0c0,0,0,0,0,0c0,0,0-0.1,0-0.1
			c0,0,0-0.1,0-0.1c0,0,0,0,0,0c0,0,0,0,0,0c0,0,0-0.1,0-0.1C38,68.3,38,68.3,38,68.3C38,68.3,38,68.3,38,68.3z"/>
		<g>
			
				<linearGradient id="SVGID_20_" gradientUnits="userSpaceOnUse" x1="-664.4651" y1="71.4967" x2="-660.1349" y2="71.4967" gradientTransform="matrix(-1 0 0 1 -614.5101 0)">
				<stop  offset="5.376340e-03" style="stop-color:#223A8E"/>
				<stop  offset="0.3064" style="stop-color:#456FA9"/>
				<stop  offset="0.6232" style="stop-color:#65A0C2"/>
				<stop  offset="0.8646" style="stop-color:#79BFD1"/>
				<stop  offset="1" style="stop-color:#80CAD7"/>
			</linearGradient>
			<path style="fill:url(#SVGID_20_);" d="M45.6,72.7c0,0.3,0,0.6,0.1,0.8c0.3,0.8,1.1,1,2,0.5c1.2-0.7,2.2-2.3,2.2-3.7
				c0-1.1-0.6-1.7-1.5-1.5c-0.2,0-0.4,0.1-0.6,0.2C46.6,69.7,45.6,71.3,45.6,72.7z"/>
		</g>
		<g>
			
				<linearGradient id="SVGID_21_" gradientUnits="userSpaceOnUse" x1="-663.0489" y1="71.1186" x2="-660.1349" y2="71.1186" gradientTransform="matrix(-1 0 0 1 -614.5101 0)">
				<stop  offset="0" style="stop-color:#315CA7"/>
				<stop  offset="1" style="stop-color:#32BDEF"/>
			</linearGradient>
			<path style="fill:url(#SVGID_21_);" d="M45.6,72.7c0,0.3,0,0.6,0.1,0.8c0.2,0,0.4-0.1,0.6-0.2c1.2-0.7,2.2-2.3,2.2-3.7
				c0-0.3,0-0.6-0.1-0.8c-0.2,0-0.4,0.1-0.6,0.2C46.6,69.7,45.6,71.3,45.6,72.7z"/>
		</g>
		<g>
			
				<linearGradient id="SVGID_22_" gradientUnits="userSpaceOnUse" x1="-662.7634" y1="70.8352" x2="-658.9822" y2="70.8352" gradientTransform="matrix(-1 0 0 1 -614.5101 0)">
				<stop  offset="0" style="stop-color:#FFFFFF"/>
				<stop  offset="0.6819" style="stop-color:#A1D9F5"/>
				<stop  offset="1" style="stop-color:#74C7F0"/>
			</linearGradient>
			<path style="fill:url(#SVGID_22_);" d="M44.5,72.3c0-0.4,0.3-0.9,0.6-1.1l0.5-0.3l-0.8-0.5c0.1-0.2,0.3-0.4,0.5-0.5
				c0.2-0.1,0.3-0.1,0.5,0l0.3,0.2l0-1.3c0.4-0.2,0.6,0,0.6,0.4l0,0.5l0.8-1.4c0.3,0.1,0.3,0.6,0,1L47.1,70l1.1-0.6
				c0,0.4-0.3,0.9-0.6,1.1l-0.5,0.3l0.8,0.5c-0.1,0.2-0.3,0.4-0.5,0.5c-0.2,0.1-0.3,0.1-0.5,0l-0.3-0.2l0,1.3
				c-0.4,0.2-0.6,0-0.6-0.4l0-0.5l-0.8,1.4c-0.3-0.1-0.3-0.6,0-1l0.3-0.6L44.5,72.3z"/>
			
				<linearGradient id="SVGID_23_" gradientUnits="userSpaceOnUse" x1="-661.3732" y1="70.8352" x2="-660.3724" y2="70.8352" gradientTransform="matrix(-1 0 0 1 -614.5101 0)">
				<stop  offset="0" style="stop-color:#315CA7"/>
				<stop  offset="1" style="stop-color:#32BDEF"/>
			</linearGradient>
			<path style="fill:url(#SVGID_23_);" d="M46.9,70.5c0,0.3-0.2,0.7-0.5,0.9c-0.3,0.2-0.5,0-0.5-0.3c0-0.3,0.2-0.7,0.5-0.9
				C46.6,70.1,46.9,70.2,46.9,70.5z"/>
			
				<linearGradient id="SVGID_24_" gradientUnits="userSpaceOnUse" x1="-661.1351" y1="70.8351" x2="-660.6129" y2="70.8351" gradientTransform="matrix(-1 0 0 1 -614.5101 0)">
				<stop  offset="0" style="stop-color:#FFFFFF"/>
				<stop  offset="0.3662" style="stop-color:#FCFDFE"/>
				<stop  offset="0.6134" style="stop-color:#F3F8FD"/>
				<stop  offset="0.8248" style="stop-color:#E4EFFA"/>
				<stop  offset="1" style="stop-color:#D1E4F6"/>
			</linearGradient>
			<path style="fill:url(#SVGID_24_);" d="M46.4,70.5c-0.1,0.1-0.3,0.3-0.3,0.5c0,0.2,0.1,0.2,0.3,0.1c0.1-0.1,0.3-0.3,0.3-0.5
				C46.6,70.5,46.5,70.5,46.4,70.5z"/>
		</g>
		
			<linearGradient id="SVGID_25_" gradientUnits="userSpaceOnUse" x1="-664.5909" y1="70.6494" x2="-657.5757" y2="70.6494" gradientTransform="matrix(-1 0 0 1 -614.5101 0)">
			<stop  offset="0" style="stop-color:#FFFFFF"/>
			<stop  offset="0.3662" style="stop-color:#FCFDFE"/>
			<stop  offset="0.6134" style="stop-color:#F3F8FD"/>
			<stop  offset="0.8248" style="stop-color:#E4EFFA"/>
			<stop  offset="1" style="stop-color:#D1E4F6"/>
		</linearGradient>
		<path style="fill:url(#SVGID_25_);" d="M43.1,72.3C43.1,72.4,43.1,72.4,43.1,72.3L43.1,72.3C43.1,72.4,43.1,72.4,43.1,72.3
			C43.1,72.4,43.1,72.4,43.1,72.3c0,0.1,0,0.1,0,0.1c0,0,0,0,0,0.1l0,0c0,0,0,0,0,0c0,0,0,0,0,0c0,0,0,0.1,0,0.1c0,0,0,0,0,0l0,0
			c0,0,0,0,0,0c0,0,0,0,0,0c0,0,0,0,0,0c0,0,0,0.1,0,0.1c0,0,0,0,0,0c0,0,0,0,0,0c0,0,0,0.1,0,0.1c0,0,0,0,0,0c0,0,0,0,0,0
			c0,0,0,0,0,0l0,0l0,0c0,0,0,0,0,0c0,0,0,0,0,0c0,0,0,0,0,0.1c0,0,0,0,0,0c0,0,0,0,0,0.1l0,0c0,0,0,0,0,0c0,0,0,0,0,0c0,0,0,0,0,0
			c0,0,0,0,0,0c0,0,0,0,0,0c0,0,0,0,0,0c0,0,0,0,0,0l0,0c0,0,0,0,0,0c0,0,0,0,0,0c0,0,0,0,0,0c0,0,0,0,0,0c0,0,0,0,0,0c0,0,0,0,0,0
			c0,0,0,0,0,0c0,0,0,0,0,0c0,0,0,0,0,0c0,0,0,0,0,0c0,0,0,0,0,0c0,0,0,0,0,0c0,0,0,0,0,0c0,0,0,0,0,0c0,0,0,0,0,0c0,0,0,0,0,0
			c0,0,0,0,0,0c0,0,0,0,0,0c0,0,0,0,0,0c0,0,0,0,0,0c0,0,0,0,0,0c0,0,0,0,0,0c0,0,0,0,0,0c0,0,0,0,0,0c0,0,0,0,0,0c0,0,0,0,0,0
			c0,0,0,0,0,0c0,0,0,0,0,0c0,0,0,0,0,0c0,0,0,0,0,0c0,0,0,0,0,0c0,0,0.1,0.1,0.1,0.1c0,0,0.1,0.1,0.1,0.1c0,0,0,0,0.1,0
			c0.1,0,0.1,0.1,0.2,0.1c0,0,0,0,0,0l0,0c0,0,0.1,0,0.1,0.1l0,0l0,0c0.1,0,0.1,0.1,0.2,0.1c0,0,0,0,0,0l0.2,0.1
			c0.1,0,0.1,0,0.2,0.1c0,0,0,0,0.1,0c0.3,0.1,0.6,0.1,0.9,0.1c0,0,0,0,0,0c0.1,0,0.1,0,0.2,0c0,0,0.1,0,0.1,0l0.2,0c0,0,0,0,0,0
			c0,0,0,0,0.1,0c0.1,0,0.2,0,0.2,0l0.2-0.1c0,0,0,0,0,0c0.1,0,0.1,0,0.2-0.1c0,0,0,0,0,0c0.1-0.1,0.3-0.1,0.4-0.2
			c0.1,0,0.1-0.1,0.2-0.1c0.1,0,0.2-0.1,0.2-0.1l0,0c0.1-0.1,0.1-0.1,0.2-0.1c0.1-0.1,0.1-0.1,0.2-0.2l0.2-0.2c0,0,0,0,0,0
			c0,0,0-0.1,0.1-0.1c0,0,0.1-0.1,0.1-0.1l0.2-0.2c0-0.1,0.1-0.1,0.2-0.2l0,0c0.1-0.1,0.2-0.2,0.2-0.4c0,0,0,0,0,0l0-0.1
			c0,0,0,0,0-0.1l0.1-0.1c0-0.1,0.1-0.2,0.1-0.2l0,0c0-0.1,0.1-0.2,0.2-0.4c0,0,0,0,0,0l0,0c0,0,0-0.1,0-0.1l0-0.1
			c0-0.1,0-0.1,0.1-0.2c0,0,0,0,0,0c0,0,0,0,0,0l0.1-0.2c0-0.1,0-0.2,0-0.2l0-0.2c0,0,0,0,0,0l0-0.1c0-0.1,0-0.2,0-0.3l0,0
			c0,0,0,0,0,0l0-0.1c0,0,0-0.1,0-0.1c0,0,0-0.1,0-0.1c0,0,0,0,0-0.1c0,0,0-0.1,0-0.1c0,0,0,0,0,0c0,0,0-0.1,0-0.1c0,0,0,0,0,0
			c0,0,0,0,0-0.1l-0.1-0.2c0,0,0,0,0-0.1c0,0,0-0.1,0-0.1c0-0.1-0.1-0.1-0.1-0.2l-0.1-0.1c0,0,0-0.1,0-0.1c0-0.1-0.1-0.1-0.1-0.2
			L49.4,68c0-0.1-0.1-0.1-0.1-0.2l-0.1-0.1l0,0l-0.1-0.1c0,0-0.1-0.1-0.1-0.1c0,0,0,0,0,0c0,0,0,0,0,0l-0.1-0.1c0,0-0.1-0.1-0.1-0.1
			c0,0-0.1,0-0.1-0.1l-0.1-0.1c0,0-0.1,0-0.1-0.1c0,0,0,0,0,0c0,0,0,0-0.1,0l0,0c0,0-0.1-0.1-0.1-0.1l0,0c0,0,0,0,0,0
			c-0.1-0.1-0.2-0.1-0.3-0.1c0,0-0.1,0-0.1,0c0,0,0,0,0,0c0,0-0.1,0-0.1,0c0,0,0,0,0,0c0,0,0,0,0,0c0,0,0,0,0,0c0,0,0,0,0,0
			c0,0,0,0,0,0c0,0,0,0,0,0c0,0,0,0,0,0c0,0,0,0,0,0c0,0,0,0,0,0c0,0,0,0,0,0c0,0,0,0,0,0c0,0,0,0,0,0c0,0,0,0,0,0c0,0,0,0,0,0
			c0,0,0,0,0,0c0,0,0,0,0,0c0,0,0,0,0,0c0,0,0,0,0,0c0,0,0,0,0,0c0,0,0,0,0,0c0,0,0,0,0,0c0,0,0,0,0,0c0,0,0,0,0,0c0,0,0,0,0,0
			c0,0,0,0,0,0c0,0,0,0,0,0c0,0,0,0,0,0c0,0,0,0,0,0l0,0c0,0,0,0,0,0c0,0,0,0,0,0l0,0l0,0c0,0,0,0,0,0c0,0,0,0,0,0c0,0,0,0,0,0
			c0,0,0,0-0.1,0c0,0,0,0,0,0c0,0,0,0,0,0c0,0,0,0,0,0l0,0c0,0,0,0,0,0c0,0,0,0,0,0c0,0,0,0,0,0c0,0,0,0,0,0c0,0,0,0,0,0l0,0l0,0
			c0,0,0,0,0,0c0,0,0,0,0,0c0,0,0,0-0.1,0c0,0,0,0,0,0c0,0,0,0,0,0c0,0,0,0,0,0c0,0,0,0,0,0c0,0,0,0,0,0c0,0,0,0,0,0c0,0,0,0,0,0
			c0,0,0,0,0,0c0,0,0,0,0,0c0,0-0.1,0-0.1,0c0,0,0,0,0,0l0,0l0,0c0,0,0,0,0,0c0,0,0,0,0,0c0,0,0,0,0,0c0,0,0,0,0,0c0,0,0,0,0,0l0,0
			c0,0,0,0-0.1,0c0,0,0,0,0,0c0,0,0,0,0,0c0,0,0,0,0,0l0,0c0,0,0,0,0,0c0,0,0,0-0.1,0c0,0,0,0,0,0l0,0c0,0,0,0,0,0c0,0-0.1,0-0.1,0
			c0,0,0,0,0,0c0,0-0.1,0-0.1,0.1c-0.1,0-0.1,0.1-0.2,0.1c0,0,0,0,0,0c0,0-0.1,0-0.1,0.1c0,0,0,0,0,0c0,0,0,0,0,0c0,0,0,0,0,0h0
			c0,0,0,0,0,0c0,0,0,0,0,0c0,0,0,0,0,0c0,0,0,0,0,0c0,0,0,0,0,0c0,0,0,0,0,0l0,0c0,0,0,0,0,0c0,0,0,0,0,0c0,0,0,0-0.1,0
			c0,0,0,0,0,0c0,0,0,0,0,0c0,0,0,0,0,0c0,0,0,0,0,0c0,0,0,0,0,0c0,0,0,0-0.1,0c0,0,0,0,0,0l0,0c0,0,0,0,0,0c0,0,0,0,0,0
			c0,0,0,0,0,0c0,0,0,0,0,0c0,0,0,0,0,0c0,0,0,0,0,0c0,0,0,0,0,0c0,0,0,0,0,0c0,0,0,0,0,0c0,0,0,0-0.1,0.1l0,0c0,0,0,0,0,0
			c0,0,0,0,0,0c0,0,0,0,0,0c0,0,0,0,0,0c0,0,0,0-0.1,0.1c0,0,0,0,0,0l0,0c0,0,0,0,0,0c0,0,0,0,0,0c0,0-0.1,0.1-0.1,0.1c0,0,0,0,0,0
			c0,0,0,0,0,0c0,0,0,0,0,0c0,0-0.1,0.1-0.1,0.1c0,0-0.1,0.1-0.1,0.1c0,0,0,0,0,0c0,0,0,0,0,0c0,0,0,0.1-0.1,0.1c0,0,0,0.1-0.1,0.1
			c-0.1,0.1-0.1,0.2-0.2,0.3c0,0,0,0,0,0c-0.1,0.1-0.1,0.2-0.2,0.3c0,0,0,0,0,0c0,0,0,0,0,0.1c0,0.1-0.1,0.1-0.1,0.2
			c0,0.1-0.1,0.1-0.1,0.2c0,0,0,0.1-0.1,0.1c0,0,0,0,0,0c0,0,0,0.1-0.1,0.1c0,0,0,0.1-0.1,0.1c0,0,0,0,0,0c0,0,0,0,0,0c0,0,0,0,0,0
			c0,0,0,0,0,0c0,0,0,0,0,0c0,0.1-0.1,0.1-0.1,0.2c0,0,0,0,0,0c0,0,0,0,0,0c0,0,0,0,0,0c0,0,0,0,0,0.1c0,0,0,0,0,0c0,0,0,0,0,0.1
			c0,0,0,0,0,0c0,0,0,0,0,0.1c0,0,0,0,0,0c0,0,0,0.1,0,0.1c0,0,0,0,0,0c0,0,0,0,0,0c0,0,0,0,0,0c0,0,0,0,0,0c0,0,0,0,0,0
			c0,0,0,0,0,0c0,0,0,0.1,0,0.1c0,0,0,0,0,0c0,0,0,0,0,0c0,0,0,0,0,0.1c0,0,0,0,0,0.1l0,0c0,0,0,0,0,0c0,0,0,0,0,0c0,0,0,0,0,0
			c0,0,0,0,0,0c0,0,0,0,0,0c0,0,0,0,0,0l0,0c0,0,0,0,0,0c0,0,0,0,0,0c0,0,0,0,0,0c0,0,0,0,0,0c0,0,0,0,0,0c0,0,0,0,0,0l0,0
			c0,0,0,0,0,0c0,0,0,0,0,0.1c0,0,0,0,0,0.1c0,0,0,0,0,0l0,0c0,0,0,0,0,0c0,0,0,0,0,0c0,0,0,0,0,0c0,0,0,0,0,0c0,0,0,0,0,0
			c0,0,0,0,0,0c0,0,0,0,0,0c0,0,0,0,0,0c0,0,0,0,0,0c0,0,0,0,0,0c0,0,0,0,0,0c0,0,0,0,0,0l0,0c0,0,0,0,0,0c0,0,0,0,0,0c0,0,0,0,0,0
			c0,0,0,0,0,0c0,0,0,0,0,0c0,0,0,0,0,0c0,0,0,0,0,0c0,0,0,0,0,0c0,0,0,0,0,0l0,0c0,0.1,0,0.1,0,0.1c0,0,0,0,0,0c0,0,0,0.1,0,0.1
			c0,0,0,0,0,0l0,0C43.1,72.2,43.1,72.2,43.1,72.3C43.1,72.3,43.1,72.3,43.1,72.3C43.1,72.3,43.1,72.3,43.1,72.3z M47.8,74
			c-1.2,0.7-2.2,0.1-2.1-1.3c0-1.4,1-3,2.2-3.7c0.2-0.1,0.4-0.2,0.7-0.3c0.9-0.1,1.5,0.4,1.4,1.6C49.9,71.7,49,73.3,47.8,74z"/>
	</g>
	<g>
		<g style="enable-background:new    ;">
			
				<linearGradient id="SVGID_26_" gradientUnits="userSpaceOnUse" x1="-668.9604" y1="67.8599" x2="-635.5235" y2="67.8599" gradientTransform="matrix(-1 0 0 1 -614.5101 0)">
				<stop  offset="0" style="stop-color:#FFFFFF"/>
				<stop  offset="3.824025e-02" style="stop-color:#F8FBFE"/>
				<stop  offset="0.1594" style="stop-color:#E6F1FA"/>
				<stop  offset="0.3072" style="stop-color:#DAE9F8"/>
				<stop  offset="0.5083" style="stop-color:#D3E5F6"/>
				<stop  offset="1" style="stop-color:#D1E4F6"/>
			</linearGradient>
			<path style="fill:url(#SVGID_26_);" d="M21,70C21,70,21.1,70,21,70c0,0.1,0.1,0.1,0.1,0.2c0,0,0,0,0,0c0,0.1,0.1,0.1,0.2,0.2
				c0,0,0.1,0.1,0.1,0.1c0,0,0.1,0.1,0.1,0.1c0.2,0.1,0.5,0.3,0.7,0.4c0.1,0,0.1,0.1,0.2,0.1c0.3,0.1,0.5,0.2,0.8,0.3c0,0,0,0,0,0
				c0.2,0.1,0.4,0.1,0.6,0.2c0.1,0,0.2,0,0.2,0.1c0.2,0,0.3,0.1,0.5,0.1c0.1,0,0.1,0,0.2,0c0.2,0,0.5,0.1,0.7,0.1c0.1,0,0.1,0,0.2,0
				c0.3,0,0.5,0,0.8,0.1c0,0,0.1,0,0.1,0c0.2,0,0.4,0,0.6,0c0.1,0,0.2,0,0.3,0c0.1,0,0.3,0,0.4,0c0.1,0,0.2,0,0.3,0
				c0.1,0,0.3,0,0.4,0c0.1,0,0.2,0,0.3,0c0.1,0,0.3,0,0.4-0.1c0.1,0,0.2,0,0.3-0.1c0.2,0,0.4-0.1,0.6-0.1c0.1,0,0.1,0,0.2,0
				c0.3-0.1,0.6-0.2,0.8-0.3c0.2-0.1,0.3-0.1,0.5-0.2l22.7-8.7l0,1.5l-22.7,8.7c-0.1,0.1-0.2,0.1-0.4,0.2c0,0-0.1,0-0.1,0
				c-0.3,0.1-0.5,0.2-0.8,0.3c0,0,0,0,0,0c0,0-0.1,0-0.2,0c-0.2,0-0.4,0.1-0.6,0.1c0,0-0.1,0-0.1,0c-0.1,0-0.1,0-0.2,0
				c-0.1,0-0.3,0.1-0.4,0.1c-0.1,0-0.1,0-0.2,0c0,0-0.1,0-0.1,0c-0.1,0-0.3,0-0.4,0c-0.1,0-0.1,0-0.2,0c0,0-0.1,0-0.1,0
				c-0.1,0-0.3,0-0.4,0c-0.1,0-0.1,0-0.2,0c0,0,0,0-0.1,0c-0.2,0-0.4,0-0.6,0c0,0-0.1,0-0.1,0c0,0,0,0,0,0c-0.3,0-0.5,0-0.8-0.1
				c0,0,0,0-0.1,0c0,0-0.1,0-0.1,0c-0.3,0-0.5-0.1-0.7-0.1c0,0-0.1,0-0.1,0c0,0-0.1,0-0.1,0c-0.2,0-0.3-0.1-0.5-0.1
				c-0.1,0-0.2,0-0.2-0.1c-0.2-0.1-0.4-0.1-0.6-0.2c0,0,0,0,0,0c0,0,0,0,0,0c-0.3-0.1-0.5-0.2-0.8-0.3c-0.1,0-0.1-0.1-0.2-0.1
				c-0.3-0.1-0.5-0.2-0.7-0.4c0,0,0,0,0,0c0,0-0.1,0-0.1-0.1c0,0-0.1-0.1-0.1-0.1c0,0,0,0,0,0c0,0-0.1-0.1-0.1-0.1c0,0,0,0,0,0
				c0,0,0,0,0,0c0,0,0,0,0-0.1c0,0,0-0.1-0.1-0.1c0,0,0,0,0,0c0,0,0,0,0,0c0,0,0,0,0-0.1c0,0,0-0.1,0-0.1c0,0,0,0,0,0l0-1.5
				C21,69.9,21,70,21,70z"/>
			<g>
				
					<linearGradient id="SVGID_27_" gradientUnits="userSpaceOnUse" x1="-668.9561" y1="63.8533" x2="-635.5234" y2="63.8533" gradientTransform="matrix(-1 0 0 1 -614.5101 0)">
					<stop  offset="5.376340e-03" style="stop-color:#297787"/>
					<stop  offset="0.1994" style="stop-color:#468C9B"/>
					<stop  offset="0.5652" style="stop-color:#77AFBC"/>
					<stop  offset="0.8437" style="stop-color:#96C5D0"/>
					<stop  offset="1" style="stop-color:#A1CDD8"/>
				</linearGradient>
				<path style="fill:url(#SVGID_27_);" d="M43.2,55.8L21.5,69c-0.7,0.4-0.7,1.1,0,1.6c2.7,1.6,7.1,1.8,10.2,0.4l22.7-8.7L43.2,55.8
					z"/>
			</g>
		</g>
	</g>
</g>
</svg>
