<?xml version="1.0" encoding="utf-8"?>
<!-- Generator: Adobe Illustrator 23.0.1, SVG Export Plug-In . SVG Version: 6.00 Build 0)  -->
<svg version="1.1" id="Layer_1" xmlns="http://www.w3.org/2000/svg" xmlns:xlink="http://www.w3.org/1999/xlink" x="0px" y="0px"
	 viewBox="0 0 100 100" style="enable-background:new 0 0 100 100;" xml:space="preserve">
<g id="base_28_">
	<linearGradient id="SVGID_1_" gradientUnits="userSpaceOnUse" x1="28.3368" y1="57.3629" x2="85.1563" y2="54.1419">
		<stop  offset="5.227065e-03" style="stop-color:#48A7C1"/>
		<stop  offset="1" style="stop-color:#225C69"/>
	</linearGradient>
	<polygon style="opacity:0.2;fill:url(#SVGID_1_);" points="43.5,76.6 93.6,59.6 42.4,36.5 	"/>
	
		<linearGradient id="XMLID_2_" gradientUnits="userSpaceOnUse" x1="933.5543" y1="57.8321" x2="1027.2468" y2="56.1979" gradientTransform="matrix(-1 0 0 1 1019.6564 0)">
		<stop  offset="0" style="stop-color:#4489C8"/>
		<stop  offset="0.2286" style="stop-color:#76AAD7"/>
		<stop  offset="0.4788" style="stop-color:#A6C9E5"/>
		<stop  offset="0.6999" style="stop-color:#C8E0EF"/>
		<stop  offset="0.8812" style="stop-color:#DDEEF6"/>
		<stop  offset="1" style="stop-color:#E5F3F8"/>
	</linearGradient>
	<path id="XMLID_101_" style="fill:url(#XMLID_2_);" d="M11.5,58.3l28.7,17c1.3,0.8,2.9,0.8,4.2,0l30-17.6c0.8-0.5,0.8-1.7,0-2.2
		L44,38.8c-1.3-0.7-2.9-0.7-4.2,0.1L11.4,56.7C10.8,57.1,10.9,58,11.5,58.3z"/>
	<linearGradient id="XMLID_3_" gradientUnits="userSpaceOnUse" x1="13.2677" y1="32.3531" x2="81.6061" y2="87.5142">
		<stop  offset="0" style="stop-color:#48A7C1"/>
		<stop  offset="0.9995" style="stop-color:#225C69"/>
	</linearGradient>
	<path id="XMLID_100_" style="fill:url(#XMLID_3_);" d="M45.4,76.1l29.3-17.3c1.2-0.7,0.3-4.6,0.2-4.8L42.8,37.5L11.2,55.3
		c0,0-0.3,3.3,0.7,4.1l28.5,16.7C41.9,77,43.8,77,45.4,76.1z"/>
	<path id="XMLID_99_" style="fill:#66C5E0;" d="M11.6,56.3l29.3,17c1.3,0.8,2.9,0.8,4.2,0l29.3-17.6c0.8-0.5,0.8-1.7,0-2.2
		L44.1,36.8c-1.3-0.7-2.9-0.7-4.2,0.1L11.6,54.7C11,55.1,11,56,11.6,56.3z"/>
</g>
</svg>
