<?xml version="1.0" encoding="utf-8"?>
<!-- Generator: Adobe Illustrator 23.0.1, SVG Export Plug-In . SVG Version: 6.00 Build 0)  -->
<svg version="1.1" id="Layer_1" xmlns="http://www.w3.org/2000/svg" xmlns:xlink="http://www.w3.org/1999/xlink" x="0px" y="0px"
	 viewBox="0 0 100 100" style="enable-background:new 0 0 100 100;" xml:space="preserve">
<g id="left-arm_9_">
	<path id="Hand_9_" style="fill:#C1E4EE;" d="M18.9,29.2c0.4-0.1,0.7-0.1,1,0c0.5,0.2,0.8,0.3,1.2,0.1s0.8-0.4,1-0.9s0.2-0.6,0-0.7
		c-0.1,0-0.3,0.4-0.8,0.5c-0.4,0.1-1-0.1-1-0.4c0-0.1,0.2-0.3,0.3-0.3c0.1-0.1,0.2-0.1,0.2-0.3c-0.6,0-0.9,0.1-1.2,0.3
		c-0.2,0.2-0.5,0.3-0.9,0.4L18.9,29.2z"/>
	
		<linearGradient id="Arm_1_" gradientUnits="userSpaceOnUse" x1="-263.1509" y1="-333.8766" x2="-263.371" y2="-334.0248" gradientTransform="matrix(-23.7877 3.3431 4.3805 31.1687 -4782.5107 11312.999)">
		<stop  offset="0" style="stop-color:#48A7C1"/>
		<stop  offset="0.9995" style="stop-color:#225C69"/>
	</linearGradient>
	<path id="Arm_12_" style="fill:url(#Arm_1_);" d="M19.1,27.6c-2.4,0.2-3.8,0.3-4.3,0.3c-0.4-2.7-0.7-4.5-0.9-5.3
		c-0.4-1.2-1.9-1.8-2.1,0.1s0.8,4.7,1.2,5.7s0.6,1.6,2.1,1.5c1,0,2.4-0.2,4.2-0.5L19.1,27.6z"/>
</g>
<polygon id="Paper_1_" style="fill:#66C5E0;" points="19.5,31.3 22,24.5 26.9,25.2 25.2,32.6 "/>
</svg>
