<?xml version="1.0" encoding="utf-8"?>
<!-- Generator: Adobe Illustrator 23.0.1, SVG Export Plug-In . SVG Version: 6.00 Build 0)  -->
<svg version="1.1" id="Layer_1" xmlns="http://www.w3.org/2000/svg" xmlns:xlink="http://www.w3.org/1999/xlink" x="0px" y="0px"
	 viewBox="0 0 100 100" style="enable-background:new 0 0 100 100;" xml:space="preserve">
<g id="left_5_">
	<g>
		<g>
			<path style="fill:#F1F1F1;" d="M45.4,56.3c0.3,0.2,0.5,0.5,0.5,0.8s-0.2,0.4-0.5,0.3l-7.1-4.1c-0.3-0.2-0.5-0.5-0.5-0.8
				s0.2-0.4,0.5-0.3L45.4,56.3z"/>
		</g>
		<g style="enable-background:new    ;">
			<g>
				<path style="fill:#F1F1F1;" d="M41.7,75c0.3,0.2,0.5,0.5,0.5,0.8s-0.2,0.4-0.5,0.3l-3.5-2c-0.3-0.2-0.5-0.5-0.5-0.8
					s0.2-0.4,0.5-0.3L41.7,75z"/>
			</g>
			<g>
				<path style="fill:#F1F1F1;" d="M45.3,75.5c0.3,0.2,0.5,0.5,0.5,0.8s-0.2,0.4-0.5,0.3l-7.1-4.1c-0.3-0.2-0.5-0.5-0.5-0.8
					s0.2-0.4,0.5-0.3L45.3,75.5z"/>
			</g>
		</g>
	</g>
	<g>
		<g>
			
				<linearGradient id="SVGID_1_" gradientUnits="userSpaceOnUse" x1="-223.6004" y1="39.6963" x2="-223.8889" y2="40.196" gradientTransform="matrix(-1 0 0 -1 -180.5803 100)">
				<stop  offset="0" style="stop-color:#48A7C1"/>
				<stop  offset="1" style="stop-color:#7AC8D1"/>
			</linearGradient>
			<path style="fill:url(#SVGID_1_);" d="M41.6,58.8c-0.1-0.1-0.2,0-0.2,0.1v0.4l0.9,0.5l0.6,0.4l0.2,0.1l0.9,0.5l0.9,0.5v-0.4
				c0-0.1-0.1-0.3-0.2-0.3L41.6,58.8z"/>
		</g>
		<g>
			
				<linearGradient id="SVGID_2_" gradientUnits="userSpaceOnUse" x1="-221.9207" y1="39.5062" x2="-222.4229" y2="40.3761" gradientTransform="matrix(-1 0 0 -1 -180.5803 100)">
				<stop  offset="0" style="stop-color:#48A7C1"/>
				<stop  offset="1" style="stop-color:#7AC8D1"/>
			</linearGradient>
			<path style="fill:url(#SVGID_2_);" d="M41.4,59.3v1v0.2c0.7,0,0.9-0.6,0.9-0.6L41.4,59.3z"/>
		</g>
		<g>
			
				<linearGradient id="SVGID_3_" gradientUnits="userSpaceOnUse" x1="-222.0635" y1="31.813" x2="-225.8613" y2="38.391" gradientTransform="matrix(-1 0 0 -1 -180.5803 100)">
				<stop  offset="0" style="stop-color:#48A7C1"/>
				<stop  offset="1" style="stop-color:#7AC8D1"/>
			</linearGradient>
			<path style="fill:url(#SVGID_3_);" d="M41.4,60.3L41.1,68l1.1,0.6l0.9-6.4l0.8,7.4l1.1,0.6l-0.2-7.9v0.2
				c-0.7-0.8-0.9-1.6-0.9-1.7L43,60.3v1.5c-0.2-0.2-0.2-0.6-0.2-0.6v-1l-0.6-0.4c0,0-0.2,0.7-0.9,0.6L41.4,60.3z"/>
		</g>
		<g style="enable-background:new    ;">
			<g>
				
					<linearGradient id="SVGID_4_" gradientUnits="userSpaceOnUse" x1="-224.7968" y1="37.8457" x2="-225.2991" y2="38.7156" gradientTransform="matrix(-1 0 0 -1 -180.5803 100)">
					<stop  offset="0" style="stop-color:#48A7C1"/>
					<stop  offset="1" style="stop-color:#7AC8D1"/>
				</linearGradient>
				<path style="fill:url(#SVGID_4_);" d="M44,60.9c0,0,0.2,0.9,0.9,1.7v-0.2v-0.8v-0.1L44,60.9z"/>
			</g>
			<g>
				
					<linearGradient id="SVGID_5_" gradientUnits="userSpaceOnUse" x1="44.9" y1="38.55" x2="44.9" y2="38.55" gradientTransform="matrix(1 0 0 -1 0 100)">
					<stop  offset="0" style="stop-color:#6485C3"/>
					<stop  offset="1" style="stop-color:#39509D"/>
				</linearGradient>
				<path style="fill:url(#SVGID_5_);" d="M44.9,61.4L44.9,61.4L44.9,61.4z"/>
			</g>
		</g>
		<g>
			
				<linearGradient id="SVGID_6_" gradientUnits="userSpaceOnUse" x1="-223.2229" y1="38.381" x2="-223.8868" y2="39.531" gradientTransform="matrix(-1 0 0 -1 -180.5803 100)">
				<stop  offset="0" style="stop-color:#48A7C1"/>
				<stop  offset="1" style="stop-color:#7AC8D1"/>
			</linearGradient>
			<path style="fill:url(#SVGID_6_);" d="M42.9,60.2v1c0,0,0,0.4,0.2,0.6v-1.5L42.9,60.2z"/>
		</g>
	</g>
</g>
</svg>
