<?xml version="1.0" encoding="utf-8"?>
<!-- Generator: Adobe Illustrator 23.0.1, SVG Export Plug-In . SVG Version: 6.00 Build 0)  -->
<svg version="1.1" id="Layer_1" xmlns="http://www.w3.org/2000/svg" xmlns:xlink="http://www.w3.org/1999/xlink" x="0px" y="0px"
	 viewBox="0 0 100 100" style="enable-background:new 0 0 100 100;" xml:space="preserve">
<path id="Hair_7_" d="M12,18c0.6-0.2,0.9-0.6,0.7-1.2c-0.2,0.1-0.4,0-0.7-0.3c-0.4-0.5-2-1.8-3.8-0.2c-0.4,0-0.6,0.2-0.6,0.7
	c0.1,0.7,0.5,1.9,0.4,2.6c-0.1,0.7,0.2,0.7,0.7,0.7C9.1,20.2,10.2,19.4,12,18z"/>
<path id="Face_6_" style="fill:#C1E4EE;" d="M8.4,20.7L8.5,20c-0.4-0.3-0.6-0.7-0.5-1c0.1-0.5,0.6,0,0.8,0.1
	c0.1,0.2,0.5,0.3,0.5-0.1s-0.1-1.4,0.6-1.2c0.7,0.2,1.6,0.5,2.2,0c0.1,0.6,0.1,1.2,0,1.8c-0.2,0.8-0.2,1.9-0.8,1.9
	c0,0.6-0.3,0.9-0.7,0.8C10,22.2,9.3,21.7,8.4,20.7z"/>
</svg>
