<?xml version="1.0" encoding="utf-8"?>
<!-- Generator: Adobe Illustrator 23.0.1, SVG Export Plug-In . SVG Version: 6.00 Build 0)  -->
<svg version="1.1" id="Layer_1" xmlns="http://www.w3.org/2000/svg" xmlns:xlink="http://www.w3.org/1999/xlink" x="0px" y="0px"
	 viewBox="0 0 100 100" style="enable-background:new 0 0 100 100;" xml:space="preserve">
<linearGradient id="shade_1_" gradientUnits="userSpaceOnUse" x1="40.002" y1="60.8194" x2="25.2063" y2="43.1865">
	<stop  offset="5.227065e-03" style="stop-color:#48A7C1"/>
	<stop  offset="1" style="stop-color:#225C69"/>
</linearGradient>
<path id="shade_22_" style="opacity:0.2;fill:url(#shade_1_);enable-background:new    ;" d="M23.3,54.5h6.6c1,0,2-0.3,2.9-0.8
	l8.6-4.8l-10.6-6.4L23.3,54.5z"/>
<g id="base-bottom_5_">
	
		<linearGradient id="XMLID_2_" gradientUnits="userSpaceOnUse" x1="1608.3254" y1="49.225" x2="1620.7325" y2="49.225" gradientTransform="matrix(1 0 0 1 -1597.6323 0)">
		<stop  offset="0" style="stop-color:#225C69"/>
		<stop  offset="1" style="stop-color:#A0BEC7"/>
	</linearGradient>
	<path id="XMLID_46_" style="fill:url(#XMLID_2_);" d="M23.6,50.1l0.5,4.4l0,0c-0.3,0.2-0.7,0.2-1,0l-10.4-6.1
		c-0.3-0.2-0.5-0.5-0.5-0.8v-3.8L23.6,50.1z"/>
	<linearGradient id="XMLID_3_" gradientUnits="userSpaceOnUse" x1="34.2566" y1="49.2687" x2="23.5746" y2="49.2687">
		<stop  offset="0" style="stop-color:#225C69"/>
		<stop  offset="1" style="stop-color:#A0BEC7"/>
	</linearGradient>
	<path id="XMLID_45_" style="fill:url(#XMLID_3_);" d="M34.3,44.1v3.8c0,0.3-0.2,0.7-0.5,0.8l-9.7,5.7c-0.2,0.1-0.5,0-0.5-0.3v-4.4
		L34.3,44.1z"/>
	<path id="XMLID_44_" style="fill:#48A7C1;" d="M34.1,44.4l-9.9,5.9c-0.4,0.3-1,0.3-1.5,0l-10.4-6.1c-0.3-0.2-0.3-0.6,0-0.8
		l10.1-5.6c0.5-0.3,1-0.2,1.5,0l10.2,5.9C34.3,44,34.3,44.3,34.1,44.4z"/>
	<linearGradient id="SVGID_1_" gradientUnits="userSpaceOnUse" x1="24.7509" y1="51.2" x2="25.9348" y2="51.2">
		<stop  offset="0" style="stop-color:#FFFFFF"/>
		<stop  offset="0.2591" style="stop-color:#F4F4F5"/>
		<stop  offset="0.7191" style="stop-color:#D5D7D9"/>
		<stop  offset="0.9935" style="stop-color:#C0C3C6"/>
	</linearGradient>
	<path style="fill:url(#SVGID_1_);" d="M24.8,51.9c0,0,0.7-0.3,1.1-0.7c0.2-0.2,0.1-0.7-0.3-0.7c-0.2,0-0.4,0-0.8,0.2
		C24.8,50.7,24.8,51.9,24.8,51.9z"/>
	<linearGradient id="SVGID_2_" gradientUnits="userSpaceOnUse" x1="24.4919" y1="50.9595" x2="25.3249" y2="51.8714">
		<stop  offset="0" style="stop-color:#FFFFFF"/>
		<stop  offset="0.2591" style="stop-color:#F4F4F5"/>
		<stop  offset="0.7191" style="stop-color:#D5D7D9"/>
		<stop  offset="0.9935" style="stop-color:#C0C3C6"/>
	</linearGradient>
	<path style="fill:url(#SVGID_2_);" d="M24.8,51v-0.3c0,0,0.7,0.6,0,1.2V51z"/>
	<linearGradient id="SVGID_3_" gradientUnits="userSpaceOnUse" x1="24.7509" y1="52.6" x2="25.9348" y2="52.6">
		<stop  offset="0" style="stop-color:#FFFFFF"/>
		<stop  offset="0.2591" style="stop-color:#F4F4F5"/>
		<stop  offset="0.7191" style="stop-color:#D5D7D9"/>
		<stop  offset="0.9935" style="stop-color:#C0C3C6"/>
	</linearGradient>
	<path style="fill:url(#SVGID_3_);" d="M24.8,53.3c0,0,0.7-0.3,1.1-0.7c0.2-0.2,0.1-0.7-0.3-0.7c-0.2,0-0.4,0-0.8,0.2
		C24.8,52.1,24.8,53.3,24.8,53.3z"/>
	<linearGradient id="SVGID_4_" gradientUnits="userSpaceOnUse" x1="24.4463" y1="52.4096" x2="25.2793" y2="53.3215">
		<stop  offset="0" style="stop-color:#FFFFFF"/>
		<stop  offset="0.2591" style="stop-color:#F4F4F5"/>
		<stop  offset="0.7191" style="stop-color:#D5D7D9"/>
		<stop  offset="0.9935" style="stop-color:#C0C3C6"/>
	</linearGradient>
	<path style="fill:url(#SVGID_4_);" d="M24.8,52.5v-0.3c0,0,0.7,0.6,0,1.2V52.5z"/>
	
		<linearGradient id="SVGID_5_" gradientUnits="userSpaceOnUse" x1="862.9765" y1="51.2" x2="864.1603" y2="51.2" gradientTransform="matrix(-1 0 0 1 885.3859 0)">
		<stop  offset="0" style="stop-color:#FFFFFF"/>
		<stop  offset="0.2591" style="stop-color:#F4F4F5"/>
		<stop  offset="0.7191" style="stop-color:#D5D7D9"/>
		<stop  offset="0.9935" style="stop-color:#C0C3C6"/>
	</linearGradient>
	<path style="fill:url(#SVGID_5_);" d="M22.4,51.9c0,0-0.7-0.3-1.1-0.7c-0.2-0.2-0.1-0.7,0.3-0.7c0.2,0,0.4,0,0.8,0.2
		C22.4,50.7,22.4,51.9,22.4,51.9z"/>
	
		<linearGradient id="SVGID_6_" gradientUnits="userSpaceOnUse" x1="862.6512" y1="51.0304" x2="863.4842" y2="51.9422" gradientTransform="matrix(-1 0 0 1 885.3859 0)">
		<stop  offset="0" style="stop-color:#FFFFFF"/>
		<stop  offset="0.2591" style="stop-color:#F4F4F5"/>
		<stop  offset="0.7191" style="stop-color:#D5D7D9"/>
		<stop  offset="0.9935" style="stop-color:#C0C3C6"/>
	</linearGradient>
	<path style="fill:url(#SVGID_6_);" d="M22.4,51.1v-0.3c0,0-0.7,0.6,0,1.2V51.1z"/>
	
		<linearGradient id="SVGID_7_" gradientUnits="userSpaceOnUse" x1="862.9765" y1="52.6" x2="864.1603" y2="52.6" gradientTransform="matrix(-1 0 0 1 885.3859 0)">
		<stop  offset="0" style="stop-color:#FFFFFF"/>
		<stop  offset="0.2591" style="stop-color:#F4F4F5"/>
		<stop  offset="0.7191" style="stop-color:#D5D7D9"/>
		<stop  offset="0.9935" style="stop-color:#C0C3C6"/>
	</linearGradient>
	<path style="fill:url(#SVGID_7_);" d="M22.4,53.3c0,0-0.7-0.3-1.1-0.7c-0.2-0.2-0.1-0.7,0.3-0.7c0.2,0,0.4,0,0.8,0.2
		C22.4,52.1,22.4,53.3,22.4,53.3z"/>
	
		<linearGradient id="SVGID_8_" gradientUnits="userSpaceOnUse" x1="862.6555" y1="52.4351" x2="863.4884" y2="53.3469" gradientTransform="matrix(-1 0 0 1 885.3859 0)">
		<stop  offset="0" style="stop-color:#FFFFFF"/>
		<stop  offset="0.2591" style="stop-color:#F4F4F5"/>
		<stop  offset="0.7191" style="stop-color:#D5D7D9"/>
		<stop  offset="0.9935" style="stop-color:#C0C3C6"/>
	</linearGradient>
	<path style="fill:url(#SVGID_8_);" d="M22.4,52.5v-0.3c0,0-0.7,0.6,0,1.2V52.5z"/>
	<linearGradient id="SVGID_9_" gradientUnits="userSpaceOnUse" x1="22.9484" y1="52.8483" x2="25.5813" y2="52.8024">
		<stop  offset="0" style="stop-color:#FFFFFF"/>
		<stop  offset="0.2591" style="stop-color:#F4F4F5"/>
		<stop  offset="0.7191" style="stop-color:#D5D7D9"/>
		<stop  offset="0.9935" style="stop-color:#C0C3C6"/>
	</linearGradient>
	<path style="fill:url(#SVGID_9_);" d="M22.4,52.5l0.4,0.3c0.4,0.3,1,0.3,1.5,0l0.4-0.3l0.1,0.1L24.4,53l-1.1,0.2L22.8,53l-0.5-0.4
		L22.4,52.5z"/>
	<linearGradient id="SVGID_10_" gradientUnits="userSpaceOnUse" x1="23.338" y1="52.5922" x2="24.7223" y2="53.6225">
		<stop  offset="0" style="stop-color:#FFFFFF"/>
		<stop  offset="0.2591" style="stop-color:#F4F4F5"/>
		<stop  offset="0.7191" style="stop-color:#D5D7D9"/>
		<stop  offset="0.9935" style="stop-color:#C0C3C6"/>
	</linearGradient>
	<path style="fill:url(#SVGID_10_);" d="M24.9,52.5l-0.6,0.3c-0.4,0.3-1,0.3-1.5,0l-0.6-0.3V53l0.6,0.3c0.4,0.3,1,0.3,1.5,0l0.6-0.3
		V52.5z"/>
	<linearGradient id="SVGID_11_" gradientUnits="userSpaceOnUse" x1="22.9478" y1="51.3974" x2="25.5807" y2="51.3515">
		<stop  offset="0" style="stop-color:#FFFFFF"/>
		<stop  offset="0.2591" style="stop-color:#F4F4F5"/>
		<stop  offset="0.7191" style="stop-color:#D5D7D9"/>
		<stop  offset="0.9935" style="stop-color:#C0C3C6"/>
	</linearGradient>
	<path style="fill:url(#SVGID_11_);" d="M22.4,51l0.4,0.3c0.4,0.3,1,0.3,1.5,0l0.4-0.3l0.1,0.1l-0.5,0.5l-1.1,0.2l-0.5-0.2l-0.5-0.4
		L22.4,51z"/>
	<linearGradient id="SVGID_12_" gradientUnits="userSpaceOnUse" x1="23.3545" y1="51.1545" x2="24.7388" y2="52.1849">
		<stop  offset="0" style="stop-color:#FFFFFF"/>
		<stop  offset="0.2591" style="stop-color:#F4F4F5"/>
		<stop  offset="0.7191" style="stop-color:#D5D7D9"/>
		<stop  offset="0.9935" style="stop-color:#C0C3C6"/>
	</linearGradient>
	<path style="fill:url(#SVGID_12_);" d="M24.9,51.1l-0.6,0.3c-0.4,0.3-1,0.3-1.5,0l-0.6-0.3v0.4l0.6,0.3c0.4,0.3,1,0.3,1.5,0
		l0.6-0.3V51.1z"/>
	<linearGradient id="SVGID_13_" gradientUnits="userSpaceOnUse" x1="28.1" y1="48.5" x2="30.941" y2="48.5">
		<stop  offset="0" style="stop-color:#FFFFFF"/>
		<stop  offset="0.2591" style="stop-color:#F4F4F5"/>
		<stop  offset="0.7191" style="stop-color:#D5D7D9"/>
		<stop  offset="0.9935" style="stop-color:#C0C3C6"/>
	</linearGradient>
	<polygon style="fill:url(#SVGID_13_);" points="30.9,48 28.1,49.7 28.1,49 30.9,47.3 	"/>
	<linearGradient id="SVGID_14_" gradientUnits="userSpaceOnUse" x1="28.1" y1="49.8" x2="30.941" y2="49.8">
		<stop  offset="0" style="stop-color:#FFFFFF"/>
		<stop  offset="0.2591" style="stop-color:#F4F4F5"/>
		<stop  offset="0.7191" style="stop-color:#D5D7D9"/>
		<stop  offset="0.9935" style="stop-color:#C0C3C6"/>
	</linearGradient>
	<polygon style="fill:url(#SVGID_14_);" points="30.9,49.3 28.1,51 28.1,50.3 30.9,48.6 	"/>
	<linearGradient id="SVGID_15_" gradientUnits="userSpaceOnUse" x1="28.9111" y1="47.65" x2="33.827" y2="47.65">
		<stop  offset="0" style="stop-color:#315CA7"/>
		<stop  offset="0.1829" style="stop-color:#3167B0"/>
		<stop  offset="0.5089" style="stop-color:#3286C6"/>
		<stop  offset="0.9373" style="stop-color:#33B7EA"/>
		<stop  offset="0.9946" style="stop-color:#33BEF0"/>
	</linearGradient>
	<polygon style="opacity:0.2;fill:url(#SVGID_15_);enable-background:new    ;" points="30.9,48 30.4,47.6 30.9,47.3 	"/>
	<linearGradient id="SVGID_16_" gradientUnits="userSpaceOnUse" x1="28.9111" y1="48.95" x2="33.827" y2="48.95">
		<stop  offset="0" style="stop-color:#315CA7"/>
		<stop  offset="0.1829" style="stop-color:#3167B0"/>
		<stop  offset="0.5089" style="stop-color:#3286C6"/>
		<stop  offset="0.9373" style="stop-color:#33B7EA"/>
		<stop  offset="0.9946" style="stop-color:#33BEF0"/>
	</linearGradient>
	<polygon style="opacity:0.2;fill:url(#SVGID_16_);enable-background:new    ;" points="30.9,49.3 30.4,49 30.9,48.6 	"/>
	
		<ellipse id="lights_41_" transform="matrix(0.8633 -0.5047 0.5047 0.8633 -22.1626 14.5626)" style="fill:#48A7C1;" cx="15.8" cy="48.2" rx="0.4" ry="0.6"/>
	
		<ellipse id="lights_40_" transform="matrix(0.8633 -0.5047 0.5047 0.8633 -22.4162 15.4339)" style="fill:#48A7C1;" cx="17.3" cy="49.1" rx="0.4" ry="0.6"/>
	
		<ellipse id="lights_39_" transform="matrix(0.8633 -0.5047 0.5047 0.8633 -22.7063 16.3923)" style="fill:#53B9A6;" cx="18.9" cy="50.1" rx="0.4" ry="0.6"/>
</g>
</svg>
