<?xml version="1.0" encoding="utf-8"?>
<!-- Generator: Adobe Illustrator 23.0.1, SVG Export Plug-In . SVG Version: 6.00 Build 0)  -->
<svg version="1.1" id="Layer_1" xmlns="http://www.w3.org/2000/svg" xmlns:xlink="http://www.w3.org/1999/xlink" x="0px" y="0px"
	 viewBox="0 0 100 100" style="enable-background:new 0 0 100 100;" xml:space="preserve">
<g id="stars_2_">
	<polygon style="fill:#63A9DA;" points="71.2,47.1 71.8,48.3 73,48.5 72.1,49.3 72.3,50.6 71.2,50 70.1,50.6 70.3,49.3 69.4,48.5 
		70.7,48.3 	"/>
	<polygon style="fill:#63A9DA;" points="71.4,63.9 72,65.1 73.2,65.2 72.3,66.1 72.5,67.4 71.4,66.8 70.3,67.4 70.5,66.1 69.6,65.2 
		70.9,65.1 	"/>
	<polygon style="fill:#63A9DA;" points="79.7,55.6 80.2,56.7 81.5,56.9 80.6,57.8 80.8,59.1 79.7,58.5 78.6,59.1 78.8,57.8 
		77.9,56.9 79.1,56.7 	"/>
	<polygon style="fill:#63A9DA;" points="62.9,55.6 63.5,56.7 64.7,56.9 63.8,57.8 64,59.1 62.9,58.5 61.8,59.1 62,57.8 61.1,56.9 
		62.3,56.7 	"/>
	<polygon style="fill:#63A9DA;" points="67.1,48.4 67.7,49.6 68.9,49.8 68,50.6 68.3,51.9 67.1,51.3 66,51.9 66.2,50.6 65.3,49.8 
		66.6,49.6 	"/>
	<polygon style="fill:#63A9DA;" points="78.6,59.8 79.2,60.9 80.4,61.1 79.5,62 79.7,63.2 78.6,62.7 77.5,63.2 77.7,62 76.8,61.1 
		78,60.9 	"/>
	<polygon style="fill:#63A9DA;" points="75.5,48.4 76,49.5 77.3,49.7 76.4,50.6 76.6,51.8 75.5,51.2 74.3,51.8 74.5,50.6 73.6,49.7 
		74.9,49.5 	"/>
	<polygon style="fill:#63A9DA;" points="64,59.9 64.6,61 65.8,61.2 64.9,62 65.2,63.3 64,62.7 62.9,63.3 63.1,62 62.2,61.2 63.5,61 
			"/>
	<polygon style="fill:#63A9DA;" points="78.7,51.4 79.2,52.6 80.5,52.7 79.6,53.6 79.8,54.9 78.7,54.3 77.5,54.9 77.8,53.6 
		76.8,52.7 78.1,52.6 	"/>
	<polygon style="fill:#63A9DA;" points="67.2,62.7 67.7,63.9 69,64.1 68.1,64.9 68.3,66.2 67.2,65.6 66.1,66.2 66.3,64.9 65.4,64.1 
		66.6,63.9 	"/>
	<polygon style="fill:#63A9DA;" points="75.5,63 76.1,64.1 77.3,64.3 76.4,65.1 76.6,66.4 75.5,65.8 74.4,66.4 74.6,65.1 73.7,64.3 
		74.9,64.1 	"/>
	<polygon style="fill:#63A9DA;" points="64.1,51.4 64.6,52.6 65.9,52.7 65,53.6 65.2,54.9 64.1,54.3 63,54.9 63.2,53.6 62.3,52.7 
		63.5,52.6 	"/>
</g>
</svg>
