<?xml version="1.0" encoding="utf-8"?>
<!-- Generator: Adobe Illustrator 23.0.1, SVG Export Plug-In . SVG Version: 6.00 Build 0)  -->
<svg version="1.1" id="Layer_1" xmlns="http://www.w3.org/2000/svg" xmlns:xlink="http://www.w3.org/1999/xlink" x="0px" y="0px"
	 viewBox="0 0 100 100" style="enable-background:new 0 0 100 100;" xml:space="preserve">
<g id="right-arm_9_">
	<path id="Hand_8_" style="fill:#C1E4EE;" d="M7.5,34.3c0.5,0.5,0.8,0.9,0.9,1.1c0.1,0.3,0.6,1.2,0.3,1.2S8.1,36,7.9,36
		c-0.3,0-0.3,0.7,0.1,1c0.4,0.4,0.7,0.6,0.2,0.6c-0.6,0-1.2-0.4-1.5-0.8c-0.2-0.3-0.3-1.1-0.3-2.4L7.5,34.3L7.5,34.3z"/>
	
		<linearGradient id="Arm_1_" gradientUnits="userSpaceOnUse" x1="-281.1961" y1="-338.2922" x2="-281.6027" y2="-338.5501" gradientTransform="matrix(-9.9776 0 0 45.8324 -2800.1938 15536.6309)">
		<stop  offset="0" style="stop-color:#48A7C1"/>
		<stop  offset="0.9995" style="stop-color:#225C69"/>
	</linearGradient>
	<path id="Arm_11_" style="fill:url(#Arm_1_);" d="M7.7,34.5L6,34.9c-0.5-2.6-0.8-4.7-0.9-6.2c-0.3-2.3-0.3-4.9,0.5-6s1.7-0.6,2,1.2
		c0.4,1.8-0.3,3.6-0.3,4.6C7.3,29.2,7.4,31.2,7.7,34.5z"/>
</g>
</svg>
