<?xml version="1.0" encoding="utf-8"?>
<!-- Generator: Adobe Illustrator 23.0.1, SVG Export Plug-In . SVG Version: 6.00 Build 0)  -->
<svg version="1.1" id="Layer_1" xmlns="http://www.w3.org/2000/svg" xmlns:xlink="http://www.w3.org/1999/xlink" x="0px" y="0px"
	 viewBox="0 0 100 100" style="enable-background:new 0 0 100 100;" xml:space="preserve">
<g id="heavy-weight-truck_1_">
	<g id="truckload_1_">
		
			<linearGradient id="shade_1_" gradientUnits="userSpaceOnUse" x1="855.4194" y1="33.6379" x2="836.793" y2="65.8997" gradientTransform="matrix(-1 0 0 1 879.254 0)">
			<stop  offset="5.227065e-03" style="stop-color:#48A7C1"/>
			<stop  offset="1" style="stop-color:#225C69"/>
		</linearGradient>
		<path id="shade_27_" style="opacity:0.2;fill:url(#shade_1_);" d="M22.1,35c1.1-0.6,3-0.6,4.1,0l33.5,18.7c1.1,0.6,1.1,1.6,0,2.3
			l-15.5,8.6c-1.1,0.6-3,0.6-4.1,0L6.6,45.9c-1.1-0.6-1.1-1.6,0-2.3L22.1,35z"/>
		<g id="cargo_7_">
			<g id="tyre-3_3_">
				<linearGradient id="SVGID_1_" gradientUnits="userSpaceOnUse" x1="8.4702" y1="41.4548" x2="13.6738" y2="41.4548">
					<stop  offset="5.376340e-03" style="stop-color:#223A8E"/>
					<stop  offset="0.3064" style="stop-color:#456FA9"/>
					<stop  offset="0.6232" style="stop-color:#65A0C2"/>
					<stop  offset="0.8646" style="stop-color:#79BFD1"/>
					<stop  offset="1" style="stop-color:#80CAD7"/>
				</linearGradient>
				<path style="fill:url(#SVGID_1_);" d="M12.3,43.3c0-1.4-1-3.2-2.3-3.9C9.4,39,8.9,39,8.5,39.2l0,0l1.4-0.8l0,0
					c0.4-0.2,1-0.2,1.6,0.2c1.3,0.7,2.3,2.5,2.3,3.9c0,0.8-0.3,1.3-0.8,1.5l0,0l-1.2,0.7l0,0C12.1,44.4,12.3,43.9,12.3,43.3z"/>
				<linearGradient id="SVGID_2_" gradientUnits="userSpaceOnUse" x1="7.7691" y1="41.9609" x2="12.3191" y2="41.9609">
					<stop  offset="6.778585e-03" style="stop-color:#92D4F6"/>
					<stop  offset="0.2627" style="stop-color:#A5DBF4"/>
					<stop  offset="0.7343" style="stop-color:#C4E5F1"/>
					<stop  offset="1" style="stop-color:#CFE9F0"/>
				</linearGradient>
				<path style="fill:url(#SVGID_2_);" d="M8.5,39.2c0.4-0.2,1-0.2,1.6,0.2c1.3,0.7,2.3,2.5,2.3,3.9c0,0.7-0.2,1.1-0.6,1.4
					c-0.4,0.3-1,0.3-1.7-0.1c-1.3-0.7-2.3-2.5-2.3-3.9C7.8,39.9,8,39.4,8.5,39.2z"/>
				<linearGradient id="SVGID_3_" gradientUnits="userSpaceOnUse" x1="8.7636" y1="41.9609" x2="11.3246" y2="41.9609">
					<stop  offset="0" style="stop-color:#FFFFFF"/>
					<stop  offset="0.3662" style="stop-color:#FCFDFE"/>
					<stop  offset="0.6134" style="stop-color:#F3F8FD"/>
					<stop  offset="0.8248" style="stop-color:#E4EFFA"/>
					<stop  offset="1" style="stop-color:#D1E4F6"/>
				</linearGradient>
				<path style="fill:url(#SVGID_3_);" d="M9.2,40.4c0.2-0.1,0.5-0.1,0.9,0.1c0.7,0.4,1.3,1.4,1.3,2.2c0,0.4-0.1,0.6-0.3,0.8
					c-0.2,0.2-0.6,0.2-1,0C9.3,43,8.8,42,8.8,41.2C8.8,40.8,8.9,40.5,9.2,40.4z"/>
				<linearGradient id="SVGID_4_" gradientUnits="userSpaceOnUse" x1="8.9223" y1="41.9609" x2="11.2475" y2="41.9609">
					<stop  offset="0" style="stop-color:#4489C8"/>
					<stop  offset="0.2286" style="stop-color:#76AAD7"/>
					<stop  offset="0.4788" style="stop-color:#A6C9E5"/>
					<stop  offset="0.6999" style="stop-color:#C8E0EF"/>
					<stop  offset="0.8812" style="stop-color:#DDEEF6"/>
					<stop  offset="1" style="stop-color:#E5F3F8"/>
				</linearGradient>
				<path style="fill:url(#SVGID_4_);" d="M9,41.9c0-0.1,0-0.1-0.1-0.2c0.2,0.1,0.3-0.1,0.3-0.3c0-0.2-0.1-0.5-0.3-0.7
					c0,0,0-0.1,0.1-0.1c0.1,0.1,0.1,0.2,0.2,0.2c0.1,0.1,0.2,0.1,0.3,0c0.1-0.1,0.2-0.3,0.1-0.6c0,0,0.1,0,0.1,0
					c0,0.2,0.2,0.5,0.4,0.6s0.4,0.1,0.4-0.1c0,0,0.1,0.1,0.1,0.1c-0.1,0.1-0.1,0.4,0.1,0.6c0.1,0.1,0.2,0.2,0.3,0.3
					c0.1,0,0.2,0.1,0.2,0.1c0,0.1,0,0.1,0.1,0.2c-0.2-0.1-0.3,0.1-0.3,0.3c0,0.2,0.1,0.5,0.3,0.7c0,0,0,0.1-0.1,0.1
					C11.1,43.1,11,43.1,11,43c-0.1-0.1-0.2-0.1-0.3,0c-0.1,0.1-0.2,0.3-0.1,0.6c0,0-0.1,0-0.1,0c0-0.2-0.2-0.5-0.4-0.6
					c-0.2-0.1-0.4-0.1-0.4,0.1c0,0-0.1-0.1-0.1-0.1c0.1-0.1,0.1-0.4-0.1-0.6C9.4,42.2,9.3,42,9.2,42C9.1,41.9,9,41.9,9,41.9"/>
			</g>
			<g id="tyre-2_3_">
				<linearGradient id="SVGID_5_" gradientUnits="userSpaceOnUse" x1="24.659" y1="51.611" x2="29.8627" y2="51.611">
					<stop  offset="5.376340e-03" style="stop-color:#223A8E"/>
					<stop  offset="0.3064" style="stop-color:#456FA9"/>
					<stop  offset="0.6232" style="stop-color:#65A0C2"/>
					<stop  offset="0.8646" style="stop-color:#79BFD1"/>
					<stop  offset="1" style="stop-color:#80CAD7"/>
				</linearGradient>
				<path style="fill:url(#SVGID_5_);" d="M28.5,53.4c0-1.4-1-3.2-2.3-3.9c-0.6-0.4-1.2-0.4-1.6-0.2l0,0l1.4-0.8l0,0
					c0.4-0.2,1-0.2,1.6,0.2c1.3,0.7,2.3,2.5,2.3,3.9c0,0.8-0.3,1.3-0.8,1.5l0,0l-1.2,0.7l0,0C28.3,54.6,28.5,54.1,28.5,53.4z"/>
				<linearGradient id="SVGID_6_" gradientUnits="userSpaceOnUse" x1="23.9579" y1="52.1171" x2="28.5079" y2="52.1171">
					<stop  offset="6.778585e-03" style="stop-color:#92D4F6"/>
					<stop  offset="0.2627" style="stop-color:#A5DBF4"/>
					<stop  offset="0.7343" style="stop-color:#C4E5F1"/>
					<stop  offset="1" style="stop-color:#CFE9F0"/>
				</linearGradient>
				<path style="fill:url(#SVGID_6_);" d="M24.7,49.3c0.4-0.2,1-0.2,1.6,0.2c1.3,0.7,2.3,2.5,2.3,3.9c0,0.7-0.2,1.1-0.6,1.4
					c-0.4,0.3-1,0.3-1.7-0.1C25,54,24,52.2,24,50.8C24,50.1,24.2,49.6,24.7,49.3z"/>
				<linearGradient id="SVGID_7_" gradientUnits="userSpaceOnUse" x1="24.9524" y1="52.1171" x2="27.5134" y2="52.1171">
					<stop  offset="0" style="stop-color:#FFFFFF"/>
					<stop  offset="0.3662" style="stop-color:#FCFDFE"/>
					<stop  offset="0.6134" style="stop-color:#F3F8FD"/>
					<stop  offset="0.8248" style="stop-color:#E4EFFA"/>
					<stop  offset="1" style="stop-color:#D1E4F6"/>
				</linearGradient>
				<path style="fill:url(#SVGID_7_);" d="M25.3,50.5c0.2-0.1,0.5-0.1,0.9,0.1c0.7,0.4,1.3,1.4,1.3,2.2c0,0.4-0.1,0.6-0.3,0.8
					c-0.2,0.2-0.6,0.2-1,0c-0.7-0.4-1.3-1.4-1.3-2.2C25,51,25.1,50.7,25.3,50.5z"/>
				<linearGradient id="SVGID_8_" gradientUnits="userSpaceOnUse" x1="25.1111" y1="52.1171" x2="27.4363" y2="52.1171">
					<stop  offset="0" style="stop-color:#4489C8"/>
					<stop  offset="0.2286" style="stop-color:#76AAD7"/>
					<stop  offset="0.4788" style="stop-color:#A6C9E5"/>
					<stop  offset="0.6999" style="stop-color:#C8E0EF"/>
					<stop  offset="0.8812" style="stop-color:#DDEEF6"/>
					<stop  offset="1" style="stop-color:#E5F3F8"/>
				</linearGradient>
				<path style="fill:url(#SVGID_8_);" d="M25.2,52.1c0-0.1,0-0.1-0.1-0.2c0.2,0.1,0.3-0.1,0.3-0.3c0-0.2-0.1-0.5-0.3-0.7
					c0,0,0-0.1,0.1-0.1c0.1,0.1,0.1,0.2,0.2,0.2c0.1,0.1,0.2,0.1,0.3,0c0.1-0.1,0.2-0.3,0.1-0.6c0,0,0.1,0,0.1,0
					c0,0.2,0.2,0.5,0.4,0.6s0.4,0.1,0.4-0.1c0,0,0.1,0.1,0.1,0.1c-0.1,0.1-0.1,0.4,0.1,0.6c0.1,0.1,0.2,0.2,0.3,0.3
					c0.1,0,0.2,0.1,0.2,0.1c0,0.1,0,0.1,0.1,0.2c-0.2-0.1-0.3,0.1-0.3,0.3c0,0.2,0.1,0.5,0.3,0.7c0,0,0,0.1-0.1,0.1
					c-0.1-0.1-0.1-0.2-0.2-0.2c-0.1-0.1-0.2-0.1-0.3,0c-0.1,0.1-0.2,0.3-0.1,0.6c0,0-0.1,0-0.1,0c0-0.2-0.2-0.5-0.4-0.6
					s-0.4-0.1-0.4,0.1c0,0-0.1-0.1-0.1-0.1c0.1-0.1,0.1-0.4-0.1-0.6c-0.1-0.1-0.2-0.2-0.3-0.3C25.3,52.1,25.2,52.1,25.2,52.1"/>
			</g>
			<g id="tyre-1_3_">
				<linearGradient id="SVGID_9_" gradientUnits="userSpaceOnUse" x1="33.1024" y1="56.7162" x2="38.306" y2="56.7162">
					<stop  offset="5.376340e-03" style="stop-color:#223A8E"/>
					<stop  offset="0.3064" style="stop-color:#456FA9"/>
					<stop  offset="0.6232" style="stop-color:#65A0C2"/>
					<stop  offset="0.8646" style="stop-color:#79BFD1"/>
					<stop  offset="1" style="stop-color:#80CAD7"/>
				</linearGradient>
				<path style="fill:url(#SVGID_9_);" d="M37,58.5c0-1.4-1-3.2-2.3-3.9c-0.6-0.4-1.2-0.4-1.6-0.2l0,0l1.4-0.8l0,0
					c0.4-0.2,1-0.2,1.6,0.2c1.3,0.7,2.3,2.5,2.3,3.9c0,0.8-0.3,1.3-0.8,1.5l0,0l-1.2,0.7l0,0C36.7,59.7,36.9,59.2,37,58.5z"/>
				<linearGradient id="SVGID_10_" gradientUnits="userSpaceOnUse" x1="32.4013" y1="57.2223" x2="36.9512" y2="57.2223">
					<stop  offset="6.778585e-03" style="stop-color:#92D4F6"/>
					<stop  offset="0.2627" style="stop-color:#A5DBF4"/>
					<stop  offset="0.7343" style="stop-color:#C4E5F1"/>
					<stop  offset="1" style="stop-color:#CFE9F0"/>
				</linearGradient>
				<path style="fill:url(#SVGID_10_);" d="M33.1,54.4c0.4-0.2,1-0.2,1.6,0.2c1.3,0.7,2.3,2.5,2.3,3.9c0,0.7-0.2,1.1-0.6,1.4
					c-0.4,0.3-1,0.3-1.7-0.1c-1.3-0.7-2.3-2.5-2.3-3.9C32.4,55.2,32.7,54.7,33.1,54.4z"/>
				<linearGradient id="SVGID_11_" gradientUnits="userSpaceOnUse" x1="33.3958" y1="57.2223" x2="35.9567" y2="57.2223">
					<stop  offset="0" style="stop-color:#FFFFFF"/>
					<stop  offset="0.3662" style="stop-color:#FCFDFE"/>
					<stop  offset="0.6134" style="stop-color:#F3F8FD"/>
					<stop  offset="0.8248" style="stop-color:#E4EFFA"/>
					<stop  offset="1" style="stop-color:#D1E4F6"/>
				</linearGradient>
				<path style="fill:url(#SVGID_11_);" d="M33.8,55.7c0.2-0.1,0.5-0.1,0.9,0.1c0.7,0.4,1.3,1.4,1.3,2.2c0,0.4-0.1,0.6-0.3,0.8
					c-0.2,0.2-0.6,0.2-1,0c-0.7-0.4-1.3-1.4-1.3-2.2C33.4,56.1,33.5,55.8,33.8,55.7z"/>
				<linearGradient id="SVGID_12_" gradientUnits="userSpaceOnUse" x1="33.5544" y1="57.2223" x2="35.8796" y2="57.2223">
					<stop  offset="0" style="stop-color:#4489C8"/>
					<stop  offset="0.2286" style="stop-color:#76AAD7"/>
					<stop  offset="0.4788" style="stop-color:#A6C9E5"/>
					<stop  offset="0.6999" style="stop-color:#C8E0EF"/>
					<stop  offset="0.8812" style="stop-color:#DDEEF6"/>
					<stop  offset="1" style="stop-color:#E5F3F8"/>
				</linearGradient>
				<path style="fill:url(#SVGID_12_);" d="M33.6,57.2c0-0.1,0-0.1-0.1-0.2c0.2,0.1,0.3-0.1,0.3-0.3c0-0.2-0.1-0.5-0.3-0.7
					c0,0,0-0.1,0.1-0.1c0.1,0.1,0.1,0.2,0.2,0.2c0.1,0.1,0.2,0.1,0.3,0c0.1-0.1,0.2-0.3,0.1-0.6c0,0,0.1,0,0.1,0
					c0,0.2,0.2,0.5,0.4,0.6c0.2,0.1,0.4,0.1,0.4-0.1c0,0,0.1,0.1,0.1,0.1c-0.1,0.1-0.1,0.4,0.1,0.6c0.1,0.1,0.2,0.2,0.3,0.3
					c0.1,0,0.2,0.1,0.2,0.1c0,0.1,0,0.1,0.1,0.2c-0.2-0.1-0.3,0.1-0.3,0.3c0,0.2,0.1,0.5,0.3,0.7c0,0,0,0.1-0.1,0.1
					c-0.1-0.1-0.1-0.2-0.2-0.2c-0.1-0.1-0.2-0.1-0.3,0c-0.1,0.1-0.2,0.3-0.1,0.6c0,0-0.1,0-0.1,0c0-0.2-0.2-0.5-0.4-0.6
					c-0.2-0.1-0.4-0.1-0.4,0.1c0,0-0.1-0.1-0.1-0.1c0.1-0.1,0.1-0.4-0.1-0.6c-0.1-0.1-0.2-0.2-0.3-0.3
					C33.8,57.2,33.7,57.2,33.6,57.2"/>
			</g>
			<linearGradient id="SVGID_13_" gradientUnits="userSpaceOnUse" x1="48.4502" y1="59.4574" x2="60.5621" y2="59.4574">
				<stop  offset="0" style="stop-color:#315CA7"/>
				<stop  offset="1" style="stop-color:#32BDEF"/>
			</linearGradient>
			<polygon style="fill:url(#SVGID_13_);" points="48.5,64.5 60.6,56.8 60.6,54.5 48.6,61.4 			"/>
			<g>
				<linearGradient id="SVGID_14_" gradientUnits="userSpaceOnUse" x1="5.6784" y1="41.6368" x2="48.5937" y2="41.6368">
					<stop  offset="4.836310e-03" style="stop-color:#9ED7F6"/>
					<stop  offset="1" style="stop-color:#48A7C1"/>
				</linearGradient>
				<polygon style="fill:url(#SVGID_14_);" points="48.6,61.4 48.6,47.5 5.7,21.9 5.7,35.7 				"/>
				<linearGradient id="SVGID_15_" gradientUnits="userSpaceOnUse" x1="60.5577" y1="31.2752" x2="5.681" y2="31.2752">
					<stop  offset="5.376340e-03" style="stop-color:#225C69"/>
					<stop  offset="0.4452" style="stop-color:#368397"/>
					<stop  offset="0.8006" style="stop-color:#439DB6"/>
					<stop  offset="1" style="stop-color:#48A7C1"/>
				</linearGradient>
				<polygon style="fill:url(#SVGID_15_);" points="48.6,47.5 60.6,40.6 17.6,15 5.7,21.9 				"/>
				<linearGradient id="SVGID_16_" gradientUnits="userSpaceOnUse" x1="48.5928" y1="50.9941" x2="60.5582" y2="50.9941">
					<stop  offset="5.376340e-03" style="stop-color:#225C69"/>
					<stop  offset="0.4452" style="stop-color:#368397"/>
					<stop  offset="0.8006" style="stop-color:#439DB6"/>
					<stop  offset="1" style="stop-color:#48A7C1"/>
				</linearGradient>
				<polygon style="fill:url(#SVGID_16_);" points="60.6,40.6 60.6,54.4 48.6,61.4 48.6,47.5 				"/>
			</g>
			<g>
				<linearGradient id="SVGID_17_" gradientUnits="userSpaceOnUse" x1="48.5366" y1="50.0114" x2="5.6773" y2="50.0114">
					<stop  offset="4.836310e-03" style="stop-color:#9ED7F6"/>
					<stop  offset="1" style="stop-color:#48A7C1"/>
				</linearGradient>
				<path style="fill:url(#SVGID_17_);" d="M33.3,54.2c0.5-0.2,1.1-0.2,1.8,0.2c1,0.6,1.9,1.8,2.3,3.1l11,6.9l0.1-3.1L15.6,41.5v0
					l-10-5.8V38l2.3,1.3c0.1-0.2,0.3-0.4,0.5-0.5c0.5-0.3,1.1-0.2,1.8,0.2c1,0.6,1.9,1.8,2.3,3l11.9,7.4c0.1-0.2,0.3-0.3,0.5-0.4
					c0.5-0.2,1.1-0.2,1.8,0.2c1,0.6,1.9,1.8,2.3,3.1l3.7,2.3C32.9,54.4,33.1,54.3,33.3,54.2z"/>
			</g>
		</g>
	</g>
</g>
</svg>
