<?xml version="1.0" encoding="utf-8"?>
<!-- Generator: Adobe Illustrator 23.0.1, SVG Export Plug-In . SVG Version: 6.00 Build 0)  -->
<svg version="1.1" id="Layer_1" xmlns="http://www.w3.org/2000/svg" xmlns:xlink="http://www.w3.org/1999/xlink" x="0px" y="0px"
	 viewBox="0 0 100 100" style="enable-background:new 0 0 100 100;" xml:space="preserve">
<g id="heavy-weight-truck_1_">
	<g id="truck_3_">
		
			<linearGradient id="shade_1_" gradientUnits="userSpaceOnUse" x1="814.7589" y1="60.7074" x2="799.662" y2="86.8559" gradientTransform="matrix(-1 0 0 1 879.254 0)">
			<stop  offset="5.227065e-03" style="stop-color:#48A7C1"/>
			<stop  offset="1" style="stop-color:#225C69"/>
		</linearGradient>
		<path id="shade_26_" style="opacity:0.2;fill:url(#shade_1_);" d="M63.2,61.4c0.9-0.5,2.4-0.5,3.3,0L93.3,77
			c0.9,0.5,0.9,1.4,0,1.9l-12.4,7.2c-0.9,0.5-2.4,0.5-3.3,0L50.8,70.5c-0.9-0.5-0.9-1.4,0-1.9L63.2,61.4z"/>
		<g id="back_3_">
			<g id="tyre_5_">
				<linearGradient id="SVGID_1_" gradientUnits="userSpaceOnUse" x1="52.8238" y1="67.9942" x2="58.0275" y2="67.9942">
					<stop  offset="5.376340e-03" style="stop-color:#223A8E"/>
					<stop  offset="0.3064" style="stop-color:#456FA9"/>
					<stop  offset="0.6232" style="stop-color:#65A0C2"/>
					<stop  offset="0.8646" style="stop-color:#79BFD1"/>
					<stop  offset="1" style="stop-color:#80CAD7"/>
				</linearGradient>
				<path style="fill:url(#SVGID_1_);" d="M56.7,69.8c0-1.4-1-3.2-2.3-3.9c-0.6-0.4-1.2-0.4-1.6-0.2l0,0l1.4-0.8l0,0
					c0.4-0.2,1-0.2,1.6,0.2C57,65.8,58,67.6,58,69c0,0.8-0.3,1.3-0.8,1.5l0,0l-1.2,0.7l0,0C56.5,70.9,56.7,70.5,56.7,69.8z"/>
				<linearGradient id="SVGID_2_" gradientUnits="userSpaceOnUse" x1="52.1228" y1="68.5003" x2="56.6727" y2="68.5003">
					<stop  offset="6.778585e-03" style="stop-color:#92D4F6"/>
					<stop  offset="0.2627" style="stop-color:#A5DBF4"/>
					<stop  offset="0.7343" style="stop-color:#C4E5F1"/>
					<stop  offset="1" style="stop-color:#CFE9F0"/>
				</linearGradient>
				<path style="fill:url(#SVGID_2_);" d="M52.8,65.7c0.4-0.2,1-0.2,1.6,0.2c1.3,0.7,2.3,2.5,2.3,3.9c0,0.7-0.2,1.1-0.6,1.4
					c-0.4,0.3-1,0.3-1.7-0.1c-1.3-0.7-2.3-2.5-2.3-3.9C52.1,66.4,52.4,65.9,52.8,65.7z"/>
				<linearGradient id="SVGID_3_" gradientUnits="userSpaceOnUse" x1="53.1173" y1="68.5003" x2="55.6782" y2="68.5003">
					<stop  offset="0" style="stop-color:#FFFFFF"/>
					<stop  offset="0.3662" style="stop-color:#FCFDFE"/>
					<stop  offset="0.6134" style="stop-color:#F3F8FD"/>
					<stop  offset="0.8248" style="stop-color:#E4EFFA"/>
					<stop  offset="1" style="stop-color:#D1E4F6"/>
				</linearGradient>
				<path style="fill:url(#SVGID_3_);" d="M53.5,66.9c0.2-0.1,0.5-0.1,0.9,0.1c0.7,0.4,1.3,1.4,1.3,2.2c0,0.4-0.1,0.6-0.3,0.8
					c-0.2,0.2-0.6,0.2-1,0c-0.7-0.4-1.3-1.4-1.3-2.2C53.1,67.3,53.3,67.1,53.5,66.9z"/>
				<linearGradient id="SVGID_4_" gradientUnits="userSpaceOnUse" x1="53.2759" y1="68.5003" x2="55.6011" y2="68.5003">
					<stop  offset="0" style="stop-color:#4489C8"/>
					<stop  offset="0.2286" style="stop-color:#76AAD7"/>
					<stop  offset="0.4788" style="stop-color:#A6C9E5"/>
					<stop  offset="0.6999" style="stop-color:#C8E0EF"/>
					<stop  offset="0.8812" style="stop-color:#DDEEF6"/>
					<stop  offset="1" style="stop-color:#E5F3F8"/>
				</linearGradient>
				<path style="fill:url(#SVGID_4_);" d="M53.3,68.5c0-0.1,0-0.1-0.1-0.2c0.2,0.1,0.3-0.1,0.3-0.3c0-0.2-0.1-0.5-0.3-0.7
					c0,0,0-0.1,0.1-0.1c0.1,0.1,0.1,0.2,0.2,0.2c0.1,0.1,0.2,0.1,0.3,0c0.1-0.1,0.2-0.3,0.1-0.6c0,0,0.1,0,0.1,0
					c0,0.2,0.2,0.5,0.4,0.6c0.2,0.1,0.4,0.1,0.4-0.1c0,0,0.1,0.1,0.1,0.1c-0.1,0.1-0.1,0.4,0.1,0.6c0.1,0.1,0.2,0.2,0.3,0.3
					c0.1,0,0.2,0.1,0.2,0.1c0,0.1,0,0.1,0.1,0.2c-0.2-0.1-0.3,0.1-0.3,0.3s0.1,0.5,0.3,0.7c0,0,0,0.1-0.1,0.1
					c-0.1-0.1-0.1-0.2-0.2-0.2c-0.1-0.1-0.2-0.1-0.3,0c-0.1,0.1-0.2,0.3-0.1,0.6c0,0-0.1,0-0.1,0c0-0.2-0.2-0.5-0.4-0.6
					c-0.2-0.1-0.4-0.1-0.4,0.1c0,0-0.1-0.1-0.1-0.1c0.1-0.1,0.1-0.4-0.1-0.6c-0.1-0.1-0.2-0.2-0.3-0.3
					C53.5,68.5,53.4,68.5,53.3,68.5"/>
			</g>
			<g id="cargo_6_">
				<linearGradient id="SVGID_5_" gradientUnits="userSpaceOnUse" x1="67.9804" y1="72.0582" x2="61.9968" y2="72.0582">
					<stop  offset="4.836310e-03" style="stop-color:#9ED7F6"/>
					<stop  offset="1" style="stop-color:#48A7C1"/>
				</linearGradient>
				<polygon style="fill:url(#SVGID_5_);" points="68,72.6 68,74.9 62,71.5 62,69.2 				"/>
				<linearGradient id="SVGID_6_" gradientUnits="userSpaceOnUse" x1="67.9804" y1="73.2093" x2="69.9737" y2="73.2093">
					<stop  offset="6.778585e-03" style="stop-color:#92D4F6"/>
					<stop  offset="0.2627" style="stop-color:#A5DBF4"/>
					<stop  offset="0.7343" style="stop-color:#C4E5F1"/>
					<stop  offset="1" style="stop-color:#CFE9F0"/>
				</linearGradient>
				<polygon style="fill:url(#SVGID_6_);" points="68,74.9 70,73.8 70,71.5 68,72.6 				"/>
				<g>
					<linearGradient id="SVGID_7_" gradientUnits="userSpaceOnUse" x1="50.032" y1="60.5454" x2="67.9804" y2="60.5454">
						<stop  offset="4.836310e-03" style="stop-color:#9ED7F6"/>
						<stop  offset="1" style="stop-color:#48A7C1"/>
					</linearGradient>
					<polygon style="fill:url(#SVGID_7_);" points="68,72.6 68,58.8 50,48.5 50,62.3 					"/>
					<linearGradient id="SVGID_8_" gradientUnits="userSpaceOnUse" x1="50.0347" y1="50.1838" x2="79.9444" y2="50.1838">
						<stop  offset="5.376340e-03" style="stop-color:#225C69"/>
						<stop  offset="0.4452" style="stop-color:#368397"/>
						<stop  offset="0.8006" style="stop-color:#439DB6"/>
						<stop  offset="1" style="stop-color:#48A7C1"/>
					</linearGradient>
					<polygon style="fill:url(#SVGID_8_);" points="68,58.8 79.9,51.9 62,41.5 50,48.5 					"/>
					<linearGradient id="SVGID_9_" gradientUnits="userSpaceOnUse" x1="67.9795" y1="62.272" x2="79.9449" y2="62.272">
						<stop  offset="5.376340e-03" style="stop-color:#225C69"/>
						<stop  offset="0.4452" style="stop-color:#368397"/>
						<stop  offset="0.8006" style="stop-color:#439DB6"/>
						<stop  offset="1" style="stop-color:#48A7C1"/>
					</linearGradient>
					<polygon style="fill:url(#SVGID_9_);" points="79.9,51.9 79.9,65.7 68,72.6 68,58.8 					"/>
				</g>
				<linearGradient id="SVGID_10_" gradientUnits="userSpaceOnUse" x1="60.0023" y1="66.3016" x2="50.032" y2="66.3016">
					<stop  offset="4.836310e-03" style="stop-color:#9ED7F6"/>
					<stop  offset="1" style="stop-color:#48A7C1"/>
				</linearGradient>
				<path style="fill:url(#SVGID_10_);" d="M60,68v2.3l-3-1.7c-0.4-1.2-1.3-2.4-2.3-3c-0.7-0.4-1.3-0.5-1.8-0.2
					c-0.2,0.1-0.4,0.3-0.5,0.5L50,64.6v-2.3L60,68z"/>
				<linearGradient id="SVGID_11_" gradientUnits="userSpaceOnUse" x1="60.0023" y1="69.1796" x2="61.999" y2="69.1796">
					<stop  offset="0" style="stop-color:#6485C3"/>
					<stop  offset="1" style="stop-color:#39509D"/>
				</linearGradient>
				<polygon style="fill:url(#SVGID_11_);" points="60,69.2 62,70.3 62,69.2 60,68 				"/>
				<linearGradient id="SVGID_12_" gradientUnits="userSpaceOnUse" x1="60.0023" y1="69.1796" x2="61.0007" y2="69.1796">
					<stop  offset="0" style="stop-color:#6485C3"/>
					<stop  offset="1" style="stop-color:#39509D"/>
				</linearGradient>
				<polygon style="fill:url(#SVGID_12_);" points="60,70.3 61,69.8 61,68.6 60,68 				"/>
			</g>
		</g>
		<g id="front_3_">
			<g id="tyre_4_">
				<linearGradient id="SVGID_13_" gradientUnits="userSpaceOnUse" x1="73.4338" y1="79.318" x2="78.6374" y2="79.318">
					<stop  offset="5.376340e-03" style="stop-color:#223A8E"/>
					<stop  offset="0.3064" style="stop-color:#456FA9"/>
					<stop  offset="0.6232" style="stop-color:#65A0C2"/>
					<stop  offset="0.8646" style="stop-color:#79BFD1"/>
					<stop  offset="1" style="stop-color:#80CAD7"/>
				</linearGradient>
				<path style="fill:url(#SVGID_13_);" d="M77.3,81.1c0-1.4-1-3.2-2.3-3.9c-0.6-0.4-1.2-0.4-1.6-0.2l0,0l1.4-0.8l0,0
					c0.4-0.2,1-0.2,1.6,0.2c1.3,0.7,2.3,2.5,2.3,3.9c0,0.8-0.3,1.3-0.8,1.5l0,0l-1.2,0.7l0,0C77.1,82.3,77.3,81.8,77.3,81.1z"/>
				<linearGradient id="SVGID_14_" gradientUnits="userSpaceOnUse" x1="72.7327" y1="79.824" x2="77.2826" y2="79.824">
					<stop  offset="6.778585e-03" style="stop-color:#92D4F6"/>
					<stop  offset="0.2627" style="stop-color:#A5DBF4"/>
					<stop  offset="0.7343" style="stop-color:#C4E5F1"/>
					<stop  offset="1" style="stop-color:#CFE9F0"/>
				</linearGradient>
				<path style="fill:url(#SVGID_14_);" d="M73.4,77c0.4-0.2,1-0.2,1.6,0.2c1.3,0.7,2.3,2.5,2.3,3.9c0,0.7-0.2,1.1-0.6,1.4
					c-0.4,0.3-1,0.3-1.7-0.1c-1.3-0.7-2.3-2.5-2.3-3.9C72.7,77.8,73,77.3,73.4,77z"/>
				<linearGradient id="SVGID_15_" gradientUnits="userSpaceOnUse" x1="73.7272" y1="79.824" x2="76.2881" y2="79.824">
					<stop  offset="0" style="stop-color:#FFFFFF"/>
					<stop  offset="0.3662" style="stop-color:#FCFDFE"/>
					<stop  offset="0.6134" style="stop-color:#F3F8FD"/>
					<stop  offset="0.8248" style="stop-color:#E4EFFA"/>
					<stop  offset="1" style="stop-color:#D1E4F6"/>
				</linearGradient>
				<path style="fill:url(#SVGID_15_);" d="M74.1,78.3c0.2-0.1,0.5-0.1,0.9,0.1c0.7,0.4,1.3,1.4,1.3,2.2c0,0.4-0.1,0.6-0.3,0.8
					c-0.2,0.2-0.6,0.2-1,0c-0.7-0.4-1.3-1.4-1.3-2.2C73.7,78.7,73.9,78.4,74.1,78.3z"/>
				<linearGradient id="SVGID_16_" gradientUnits="userSpaceOnUse" x1="73.8858" y1="79.824" x2="76.211" y2="79.824">
					<stop  offset="0" style="stop-color:#4489C8"/>
					<stop  offset="0.2286" style="stop-color:#76AAD7"/>
					<stop  offset="0.4788" style="stop-color:#A6C9E5"/>
					<stop  offset="0.6999" style="stop-color:#C8E0EF"/>
					<stop  offset="0.8812" style="stop-color:#DDEEF6"/>
					<stop  offset="1" style="stop-color:#E5F3F8"/>
				</linearGradient>
				<path style="fill:url(#SVGID_16_);" d="M73.9,79.8c0-0.1,0-0.1-0.1-0.2c0.2,0.1,0.3-0.1,0.3-0.3c0-0.2-0.1-0.5-0.3-0.7
					c0,0,0-0.1,0.1-0.1c0.1,0.1,0.1,0.2,0.2,0.2c0.1,0.1,0.2,0.1,0.3,0c0.1-0.1,0.2-0.3,0.1-0.6c0,0,0.1,0,0.1,0
					c0,0.2,0.2,0.5,0.4,0.6c0.2,0.1,0.4,0.1,0.4-0.1c0,0,0.1,0.1,0.1,0.1c-0.1,0.1-0.1,0.4,0.1,0.6c0.1,0.1,0.2,0.2,0.3,0.3
					c0.1,0,0.2,0.1,0.2,0.1c0,0.1,0,0.1,0.1,0.2c-0.2-0.1-0.3,0.1-0.3,0.3c0,0.2,0.1,0.5,0.3,0.7c0,0,0,0.1-0.1,0.1
					c-0.1-0.1-0.1-0.2-0.2-0.2c-0.1-0.1-0.2-0.1-0.3,0c-0.1,0.1-0.2,0.3-0.1,0.6c0,0-0.1,0-0.1,0c0-0.2-0.2-0.5-0.4-0.6
					c-0.2-0.1-0.4-0.1-0.4,0.1c0,0-0.1-0.1-0.1-0.1c0.1-0.1,0.1-0.4-0.1-0.6c-0.1-0.1-0.2-0.2-0.3-0.3C74.1,79.8,74,79.8,73.9,79.8"
					/>
			</g>
			<g id="cargo_5_">
				<linearGradient id="SVGID_17_" gradientUnits="userSpaceOnUse" x1="69.9737" y1="61.8947" x2="91.2202" y2="61.8947">
					<stop  offset="5.376340e-03" style="stop-color:#225C69"/>
					<stop  offset="0.4452" style="stop-color:#368397"/>
					<stop  offset="0.8006" style="stop-color:#439DB6"/>
					<stop  offset="1" style="stop-color:#48A7C1"/>
				</linearGradient>
				<path style="fill:url(#SVGID_17_);" d="M79.3,68.4c-0.8-1-1.8-1.8-2.9-2.5L70,62.3l0,0l12-6.9l6.4,3.7c1.1,0.7,2.1,1.5,2.9,2.5
					l-9.3,5.4L79.3,68.4z"/>
				<g>
					<linearGradient id="SVGID_18_" gradientUnits="userSpaceOnUse" x1="69.9737" y1="72.6329" x2="81.9377" y2="72.6329">
						<stop  offset="4.836310e-03" style="stop-color:#9ED7F6"/>
						<stop  offset="1" style="stop-color:#48A7C1"/>
					</linearGradient>
					<path style="fill:url(#SVGID_18_);" d="M70,62.3l0,12.6v1.3l2.9,1.7v0c0-0.4,0.1-0.8,0.3-1.1c0.1-0.2,0.3-0.4,0.5-0.5
						c0.5-0.3,1.2-0.2,1.9,0.2c1.1,0.6,2,1.8,2.4,3.1c0,0,0,0.1,0,0.1c0.2,0.4,0.2,0.9,0.3,1.3l3.6,2.1v-7.3c0-0.6-0.1-1.3-0.2-1.9
						c-0.1-0.6-0.3-1.3-0.5-1.9c-0.2-0.7-0.5-1.3-0.9-1.9c-0.3-0.6-0.7-1.1-1.2-1.6c-0.8-1-1.8-1.8-2.9-2.5L70,62.3L70,62.3z"/>
					<linearGradient id="SVGID_19_" gradientUnits="userSpaceOnUse" x1="78.0106" y1="81.2351" x2="81.9377" y2="81.2351">
						<stop  offset="4.836310e-03" style="stop-color:#9ED7F6"/>
						<stop  offset="1" style="stop-color:#48A7C1"/>
					</linearGradient>
					<path style="fill:url(#SVGID_19_);" d="M78,79.5c0,0,0,0.1,0,0.1c0.2,0.4,0.2,0.9,0.3,1.3l3.6,2.1v-1.3L78,79.5z"/>
					<linearGradient id="SVGID_20_" gradientUnits="userSpaceOnUse" x1="69.9762" y1="76.2824" x2="73.1804" y2="76.2824">
						<stop  offset="4.836310e-03" style="stop-color:#9ED7F6"/>
						<stop  offset="1" style="stop-color:#48A7C1"/>
					</linearGradient>
					<path style="fill:url(#SVGID_20_);" d="M70,74.8v1.3l2.9,1.7c0-0.4,0.1-0.8,0.3-1.1L70,74.8z"/>
					<linearGradient id="SVGID_21_" gradientUnits="userSpaceOnUse" x1="71.9678" y1="69.9771" x2="81.1872" y2="69.9771">
						<stop  offset="0" style="stop-color:#4674B8"/>
						<stop  offset="1" style="stop-color:#2A2760"/>
					</linearGradient>
					<path style="fill:url(#SVGID_21_);" d="M72,70.3l9.2,5.3c0-0.6-0.1-1.1-0.2-1.7c-0.1-0.6-0.3-1.2-0.5-1.7
						c-0.2-0.6-0.5-1.2-0.8-1.8c-0.3-0.5-0.7-1.1-1.1-1.5c-0.8-0.9-1.7-1.7-2.7-2.3l-4-2.3L72,70.3z M77.9,68.7
						c0.2,0.2,0.3,0.3,0.4,0.5c0.4,0.4,0.7,0.9,1,1.5c0.3,0.5,0.6,1.1,0.8,1.7c0.2,0.5,0.3,1.1,0.4,1.7c0,0.3,0.1,0.5,0.1,0.7
						l-2.8-1.6V68.7z M72.5,70l0-4.9l3.2,1.9c0.6,0.3,1.2,0.8,1.7,1.2v4.6L72.5,70z"/>
					<linearGradient id="SVGID_22_" gradientUnits="userSpaceOnUse" x1="77.8605" y1="71.755" x2="80.6434" y2="71.755">
						<stop  offset="6.297816e-03" style="stop-color:#7FBF7C"/>
						<stop  offset="1" style="stop-color:#E9F4F3"/>
					</linearGradient>
					<path style="fill:url(#SVGID_22_);" d="M79.3,70.7c0.3,0.5,0.6,1.1,0.8,1.7c0.2,0.5,0.3,1.1,0.4,1.7c0,0.3,0.1,0.5,0.1,0.7
						l-2.8-1.6v-4.4c0.2,0.2,0.3,0.3,0.4,0.5C78.7,69.7,79,70.2,79.3,70.7z"/>
					<linearGradient id="SVGID_23_" gradientUnits="userSpaceOnUse" x1="72.468" y1="69.0184" x2="77.3602" y2="69.0184">
						<stop  offset="6.297816e-03" style="stop-color:#7FBF7C"/>
						<stop  offset="1" style="stop-color:#E9F4F3"/>
					</linearGradient>
					<path style="fill:url(#SVGID_23_);" d="M75.7,67c0.6,0.3,1.2,0.8,1.7,1.2v4.6L72.5,70l0-4.9L75.7,67z"/>
					<g>
						<path d="M80.9,75.3c0.1,0,0.1-0.1,0.1-0.1c0-0.1-0.1-0.1-0.1-0.1l-1.5,0v-3.4l0.7,0c0.1,0,0.1-0.1,0.1-0.1
							c0-0.1-0.1-0.1-0.1-0.1h0l-0.8,0c-0.1,0-0.1,0.1-0.1,0.1v3.6c0,0.1,0.1,0.1,0.1,0.1L80.9,75.3L80.9,75.3z"/>
					</g>
					<linearGradient id="SVGID_24_" gradientUnits="userSpaceOnUse" x1="78.6374" y1="73.3583" x2="79.6379" y2="73.3583">
						<stop  offset="5.618000e-03" style="stop-color:#000000"/>
						<stop  offset="1" style="stop-color:#4E4D4D"/>
					</linearGradient>
					<path style="fill:url(#SVGID_24_);" d="M78.9,74.7h0.5c0.1,0,0.3-0.1,0.3-0.3v-2.1c0-0.1-0.1-0.3-0.3-0.3h-0.5
						c-0.1,0-0.3,0.1-0.3,0.3v2.1C78.6,74.5,78.8,74.7,78.9,74.7z"/>
				</g>
				<g>
					<linearGradient id="SVGID_25_" gradientUnits="userSpaceOnUse" x1="81.9377" y1="76.0873" x2="93.9042" y2="76.0873">
						<stop  offset="4.836310e-03" style="stop-color:#9ED7F6"/>
						<stop  offset="1" style="stop-color:#48A7C1"/>
					</linearGradient>
					<polygon style="fill:url(#SVGID_25_);" points="81.9,81.7 81.9,83 93.9,76.1 93.9,74.8 93.9,69.2 81.9,76.1 					"/>
					<linearGradient id="SVGID_26_" gradientUnits="userSpaceOnUse" x1="79.2566" y1="68.8021" x2="93.9042" y2="68.8021">
						<stop  offset="0" style="stop-color:#6485C3"/>
						<stop  offset="1" style="stop-color:#39509D"/>
					</linearGradient>
					<path style="fill:url(#SVGID_26_);" d="M81.3,72L81.3,72c-0.5-1.3-1.2-2.5-2-3.5l2.7-1.5l9.3-5.4c0.9,1,1.6,2.2,2,3.5
						c0.2,0.6,0.4,1.2,0.5,1.9c0.1,0.6,0.2,1.3,0.2,1.9v0.4l-6,3.5l-6,3.5l0,0l0-0.4C81.9,74.4,81.7,73.2,81.3,72z"/>
					<linearGradient id="SVGID_27_" gradientUnits="userSpaceOnUse" x1="81.9377" y1="78.9063" x2="93.9042" y2="78.9063">
						<stop  offset="4.836310e-03" style="stop-color:#9ED7F6"/>
						<stop  offset="1" style="stop-color:#48A7C1"/>
					</linearGradient>
					<polygon style="fill:url(#SVGID_27_);" points="81.9,81.7 81.9,83 93.9,76.1 93.9,74.8 					"/>
					<linearGradient id="SVGID_28_" gradientUnits="userSpaceOnUse" x1="79.6379" y1="68.7474" x2="93.6541" y2="68.7474">
						<stop  offset="6.297816e-03" style="stop-color:#7FBF7C"/>
						<stop  offset="1" style="stop-color:#E9F4F3"/>
					</linearGradient>
					<path style="fill:url(#SVGID_28_);" d="M93.7,69v-0.2c0-0.6-0.1-1.3-0.2-1.9c-0.1-0.6-0.3-1.2-0.5-1.8c-0.4-1.2-1-2.3-1.9-3.3
						l-9.1,5.3l-2.4,1.4c0.8,1,1.5,2.2,1.9,3.4c0.4,1.2,0.7,2.5,0.7,3.8L93.7,69z"/>
					<linearGradient id="SVGID_29_" gradientUnits="userSpaceOnUse" x1="81.9377" y1="75.967" x2="93.9042" y2="75.967">
						<stop  offset="0" style="stop-color:#6485C3"/>
						<stop  offset="1" style="stop-color:#39509D"/>
					</linearGradient>
					<polygon style="fill:url(#SVGID_29_);" points="93.9,73.7 93.9,71.3 81.9,78.2 81.9,80.6 					"/>
					<linearGradient id="SVGID_30_" gradientUnits="userSpaceOnUse" x1="85.9379" y1="75.4701" x2="90.2471" y2="75.4701">
						<stop  offset="5.618000e-03" style="stop-color:#000000"/>
						<stop  offset="1" style="stop-color:#4E4D4D"/>
					</linearGradient>
					<polygon style="fill:url(#SVGID_30_);" points="90.2,73.8 89.9,75.6 87.3,77.1 85.9,76.3 					"/>
					<linearGradient id="SVGID_31_" gradientUnits="userSpaceOnUse" x1="82.448" y1="78.2207" x2="86.7003" y2="78.2207">
						<stop  offset="6.297816e-03" style="stop-color:#7FBF7C"/>
						<stop  offset="1" style="stop-color:#E9F4F3"/>
					</linearGradient>
					<polygon style="fill:url(#SVGID_31_);" points="82.4,78.5 82.4,79.8 83,79.5 86.7,77.3 85.6,76.7 83,78.2 					"/>
					<linearGradient id="SVGID_32_" gradientUnits="userSpaceOnUse" x1="90.4223" y1="73.6633" x2="93.3964" y2="73.6633">
						<stop  offset="6.297816e-03" style="stop-color:#7FBF7C"/>
						<stop  offset="1" style="stop-color:#E9F4F3"/>
					</linearGradient>
					<polygon style="fill:url(#SVGID_32_);" points="90.4,75.2 92.9,73.7 93.4,73.4 93.4,72.2 92.9,72.4 90.7,73.7 					"/>
				</g>
			</g>
		</g>
	</g>
</g>
</svg>
