<?xml version="1.0" encoding="utf-8"?>
<!-- Generator: Adobe Illustrator 23.0.1, SVG Export Plug-In . SVG Version: 6.00 Build 0)  -->
<svg version="1.1" id="Layer_1" xmlns="http://www.w3.org/2000/svg" xmlns:xlink="http://www.w3.org/1999/xlink" x="0px" y="0px"
	 viewBox="0 0 100 100" style="enable-background:new 0 0 100 100;" xml:space="preserve">
<g id="jet_5_">
	<g>
		
			<linearGradient id="SVGID_1_" gradientUnits="userSpaceOnUse" x1="-659.61" y1="62.165" x2="-627.5056" y2="62.165" gradientTransform="matrix(-1 0 0 -1 -614.5101 100)">
			<stop  offset="0" style="stop-color:#48A7C1"/>
			<stop  offset="4.041848e-03" style="stop-color:#3D92A8"/>
			<stop  offset="1.059190e-02" style="stop-color:#2E7586"/>
			<stop  offset="1.599067e-02" style="stop-color:#256371"/>
			<stop  offset="1.953125e-02" style="stop-color:#225C69"/>
			<stop  offset="9.980002e-02" style="stop-color:#386D79"/>
			<stop  offset="0.3362" style="stop-color:#759CA6"/>
			<stop  offset="0.5529" style="stop-color:#A5C2C9"/>
			<stop  offset="0.7426" style="stop-color:#C8DDE3"/>
			<stop  offset="0.8981" style="stop-color:#DDEDF2"/>
			<stop  offset="1" style="stop-color:#E5F3F8"/>
		</linearGradient>
		<path style="fill:url(#SVGID_1_);" d="M13.9,28.8L13.9,28.8c1.9-3.3,6.1-4.5,9.5-2.5L43.7,38l0,0c0.9,0.5,1.4,1.6,1.4,3.2
			c0,3.1-2.2,6.9-4.9,8.5c-1.4,0.8-2.6,0.8-3.5,0.3l0,0L16.5,38.3C13.2,36.4,12,32.2,13.9,28.8z"/>
	</g>
	<g>
		<g style="enable-background:new    ;">
			<g>
				
					<ellipse transform="matrix(0.5025 -0.8646 0.8646 0.5025 -18.0916 61.8936)" style="fill:#818282;" cx="44.7" cy="46.7" rx="7.2" ry="4.2"/>
			</g>
			
				<linearGradient id="SVGID_2_" gradientUnits="userSpaceOnUse" x1="-662.8154" y1="54.4" x2="-649.6539" y2="54.4" gradientTransform="matrix(-1 0 0 -1 -614.5101 100)">
				<stop  offset="0" style="stop-color:#FFFFFF"/>
				<stop  offset="1" style="stop-color:#D1E4F6"/>
			</linearGradient>
			<path style="fill:url(#SVGID_2_);" d="M35.1,46.8c0-0.1,0-0.2,0-0.2v-0.1l0,0v-0.1c0-0.1,0-0.2,0-0.3s0-0.2,0-0.3l0,0l0,0
				c0-0.1,0-0.2,0-0.2c0-0.1,0-0.2,0.1-0.3v-0.1c0,0,0,0,0-0.1V45c0-0.1,0-0.2,0.1-0.3c0-0.1,0-0.1,0.1-0.2l0,0l0,0
				c0-0.1,0.1-0.2,0.1-0.3s0.1-0.2,0.1-0.3l0,0l0,0c0-0.1,0-0.1,0.1-0.2c0-0.1,0.1-0.2,0.1-0.2c0-0.1,0.1-0.1,0.1-0.2l0,0l0,0
				c0-0.1,0.1-0.2,0.1-0.2c0-0.1,0.1-0.2,0.1-0.3l0,0c0,0,0,0,0-0.1s0.1-0.1,0.1-0.2c0-0.1,0.1-0.2,0.1-0.3c0,0,0-0.1,0.1-0.1
				c0,0,0,0,0-0.1s0.1-0.1,0.1-0.2c0.1-0.1,0.1-0.2,0.2-0.3c0,0,0,0,0-0.1c0.1-0.2,0.2-0.3,0.3-0.5l0,0l0,0c0.1-0.1,0.2-0.2,0.2-0.3
				c0.1-0.1,0.1-0.2,0.2-0.2l0,0l0,0c0.1-0.1,0.1-0.2,0.2-0.2c0.1-0.1,0.1-0.1,0.2-0.2l0,0l0,0l0.1-0.1c0.1-0.1,0.1-0.1,0.2-0.2
				c0,0,0,0,0.1-0.1c0,0,0,0,0.1,0l0.1-0.1c0.1-0.1,0.2-0.1,0.2-0.2l0.1-0.1c0,0,0,0,0.1,0c0,0,0.1,0,0.1-0.1C39,39,39,39,39.1,38.9
				c0.1,0,0.1-0.1,0.2-0.1l0,0l0,0c0.1,0,0.1-0.1,0.2-0.1c0.1,0,0.1-0.1,0.2-0.1c0,0,0,0,0.1,0s0.1-0.1,0.2-0.1
				c0.1,0,0.1-0.1,0.2-0.1c0,0,0.1,0,0.1-0.1l0,0l0,0c0.1,0,0.1-0.1,0.2-0.1c0.1,0,0.1-0.1,0.2-0.1l0,0l0,0h0.1c0.1,0,0.1,0,0.2-0.1
				h0.1l0,0c0,0,0,0,0.1,0s0.1,0,0.2,0h0.1l0,0l0,0c0.1,0,0.2,0,0.2,0h0.1h0.1H42c0.1,0,0.2,0,0.3,0l0,0c0,0,0,0,0.1,0
				s0.2,0,0.3,0.1l0,0c0.1,0,0.3,0.1,0.4,0.2l4.4,2.6c-0.1-0.1-0.3-0.1-0.4-0.2c-0.1,0-0.2-0.1-0.3-0.1c0,0,0,0-0.1,0s-0.3,0-0.4,0
				h-0.1c-0.1,0-0.3,0-0.4,0l0,0c-0.1,0-0.3,0-0.4,0.1l0,0c-0.1,0-0.3,0.1-0.5,0.1l0,0c-0.2,0.1-0.3,0.1-0.5,0.2l0,0
				c-0.2,0.1-0.3,0.2-0.5,0.3s-0.3,0.2-0.5,0.3l0,0c-0.2,0.1-0.3,0.2-0.5,0.3c0,0,0,0-0.1,0c-0.1,0.1-0.3,0.2-0.4,0.4c0,0,0,0-0.1,0
				c-0.1,0.1-0.3,0.3-0.4,0.4l0,0c-0.1,0.2-0.3,0.3-0.4,0.5l0,0c-0.1,0.2-0.3,0.4-0.4,0.5l0,0c-0.1,0.2-0.2,0.3-0.4,0.5
				c-0.1,0.1-0.1,0.2-0.2,0.3c-0.1,0.1-0.1,0.2-0.2,0.3l-0.1,0.1c-0.1,0.2-0.2,0.3-0.3,0.5c0,0,0,0,0,0.1c-0.1,0.2-0.2,0.4-0.3,0.6
				l0,0c-0.1,0.2-0.2,0.4-0.2,0.6l0,0c-0.1,0.2-0.1,0.4-0.2,0.6l0,0c-0.1,0.2-0.1,0.4-0.2,0.6c0,0,0,0,0,0.1c0,0.2-0.1,0.4-0.1,0.6
				l0,0c0,0.2-0.1,0.4-0.1,0.6l0,0c0,0.2,0,0.4,0,0.6c0,0.2,0,0.4,0,0.6l0,0c0,0.2,0,0.3,0.1,0.5c0,0,0,0,0,0.1s0.1,0.3,0.1,0.4v0.1
				c0,0.1,0.1,0.2,0.1,0.4l0,0c0.1,0.1,0.1,0.3,0.2,0.4l0,0c0.1,0.1,0.1,0.2,0.2,0.3l0.1,0.1c0.1,0.1,0.1,0.1,0.2,0.2
				c0,0,0.1,0,0.1,0.1c0.1,0.1,0.2,0.1,0.3,0.2l0,0l0,0l0,0l-4.4-2.6c-0.1-0.1-0.2-0.1-0.3-0.2c0,0-0.1,0-0.1-0.1
				c-0.1-0.1-0.1-0.1-0.2-0.2L35.1,50c-0.1-0.1-0.1-0.2-0.2-0.3l0,0l0,0c-0.1-0.1-0.1-0.2-0.2-0.3l0,0l0,0c0-0.1-0.1-0.2-0.1-0.2
				v-0.1c0,0,0,0,0-0.1c0,0,0,0,0-0.1s0-0.2-0.1-0.3v-0.1c0,0,0,0,0-0.1v-0.1c0-0.1,0-0.2,0-0.2V48l0,0c0,0,0,0,0-0.1s0-0.2,0-0.2
				c0-0.1,0-0.2,0-0.2l0,0C35.1,47,35.1,46.9,35.1,46.8z"/>
		</g>
	</g>
	<g>
		<g style="enable-background:new    ;">
			
				<linearGradient id="SVGID_3_" gradientUnits="userSpaceOnUse" x1="-668.7017" y1="52.15" x2="-652.5369" y2="52.15" gradientTransform="matrix(-1 0 0 -1 -614.5101 100)">
				<stop  offset="5.376340e-03" style="stop-color:#223A8E"/>
				<stop  offset="0.3064" style="stop-color:#456FA9"/>
				<stop  offset="0.6232" style="stop-color:#65A0C2"/>
				<stop  offset="0.8646" style="stop-color:#79BFD1"/>
				<stop  offset="1" style="stop-color:#80CAD7"/>
			</linearGradient>
			<path style="fill:url(#SVGID_3_);" d="M38,49.7c0-0.1,0-0.2,0-0.3v-0.1c0,0,0,0,0-0.1v-0.1c0-0.1,0-0.2,0-0.3s0-0.2,0-0.3l0,0
				l0,0c0-0.1,0-0.2,0.1-0.3c0-0.1,0-0.2,0.1-0.3v-0.1c0,0,0,0,0-0.1v-0.1c0-0.1,0.1-0.2,0.1-0.3s0-0.2,0.1-0.2l0,0l0,0
				c0-0.1,0.1-0.2,0.1-0.3s0.1-0.2,0.1-0.3c0,0,0,0,0-0.1l0,0c0-0.1,0-0.1,0.1-0.2c0-0.1,0.1-0.2,0.1-0.3s0.1-0.1,0.1-0.2l0,0l0,0
				c0-0.1,0.1-0.2,0.1-0.3c0.1-0.1,0.1-0.2,0.2-0.3l0,0c0,0,0,0,0-0.1s0.1-0.2,0.1-0.3c0.1-0.1,0.1-0.2,0.2-0.3
				c0-0.1,0.1-0.1,0.1-0.2c0,0,0,0,0-0.1c0.1-0.1,0.1-0.2,0.2-0.3c0.1-0.1,0.2-0.3,0.3-0.4c0,0,0,0,0-0.1c0.1-0.2,0.3-0.4,0.4-0.6
				c0.1-0.1,0.2-0.2,0.3-0.4c0.1-0.1,0.2-0.2,0.2-0.3l0,0l0,0c0.1-0.1,0.2-0.2,0.2-0.3c0.1-0.1,0.2-0.2,0.2-0.3l0,0l0,0
				C41.9,41.1,42,41,42,41c0.1-0.1,0.2-0.2,0.3-0.3l0.1-0.1c0,0,0,0,0.1-0.1l0.1-0.1c0.1-0.1,0.2-0.2,0.3-0.2l0.1-0.1
				c0,0,0,0,0.1-0.1l0.1-0.1c0.1-0.1,0.2-0.1,0.3-0.2c0.1,0,0.1-0.1,0.2-0.1l0,0l0,0c0.1-0.1,0.2-0.1,0.3-0.2
				c0.1-0.1,0.2-0.1,0.3-0.2c0,0,0,0,0.1,0s0.1-0.1,0.2-0.1c0.1,0,0.2-0.1,0.3-0.1s0.1-0.1,0.2-0.1l0,0l0,0c0.1,0,0.2-0.1,0.3-0.1
				s0.2-0.1,0.3-0.1l0,0l0,0c0.1,0,0.1,0,0.2-0.1c0.1,0,0.2-0.1,0.3-0.1h0.1c0,0,0,0,0.1,0h0.1c0.1,0,0.2,0,0.3,0s0.1,0,0.2,0
				c0,0,0,0,0.1,0c0,0,0,0,0.1,0s0.2,0,0.3,0h0.1h0.1h0.1c0.1,0,0.2,0,0.4,0.1l0,0h0.1c0.1,0,0.2,0.1,0.4,0.1l0,0
				c0.2,0.1,0.3,0.1,0.5,0.2l0,0l5.4,3.2c-0.2-0.1-0.3-0.2-0.5-0.2c-0.1,0-0.3-0.1-0.4-0.1c0,0,0,0-0.1,0c-0.2,0-0.3,0-0.5-0.1H53
				c-0.2,0-0.3,0-0.5,0c0,0,0,0-0.1,0c-0.2,0-0.3,0-0.5,0.1c0,0,0,0-0.1,0c-0.2,0-0.4,0.1-0.6,0.2l0,0c-0.2,0.1-0.4,0.1-0.6,0.2l0,0
				c-0.2,0.1-0.4,0.2-0.6,0.3c-0.2,0.1-0.4,0.3-0.6,0.4l0,0c-0.2,0.1-0.4,0.3-0.6,0.4c0,0,0,0-0.1,0.1c-0.2,0.1-0.4,0.3-0.5,0.5
				c0,0,0,0-0.1,0.1c-0.2,0.2-0.4,0.3-0.5,0.5l0,0c-0.2,0.2-0.4,0.4-0.5,0.6l0,0c-0.2,0.2-0.3,0.4-0.5,0.7l0,0
				c-0.2,0.2-0.3,0.4-0.4,0.6c-0.1,0.1-0.2,0.3-0.3,0.4c-0.1,0.1-0.1,0.2-0.2,0.3c0,0.1-0.1,0.1-0.1,0.2c-0.1,0.2-0.2,0.4-0.3,0.6
				c0,0,0,0,0,0.1c-0.1,0.2-0.2,0.5-0.3,0.7l0,0c-0.1,0.2-0.2,0.5-0.3,0.7l0,0c-0.1,0.2-0.2,0.5-0.3,0.7l0,0
				c-0.1,0.2-0.1,0.5-0.2,0.7c0,0,0,0,0,0.1c-0.1,0.2-0.1,0.5-0.1,0.7l0,0c0,0.2-0.1,0.5-0.1,0.7c0,0,0,0,0,0.1c0,0.2,0,0.5,0,0.7
				s0,0.5,0,0.7c0,0,0,0,0,0.1c0,0.2,0,0.4,0.1,0.6c0,0,0,0,0,0.1c0,0.2,0.1,0.4,0.1,0.5v0.1c0.1,0.2,0.1,0.3,0.2,0.4l0,0
				c0.1,0.2,0.2,0.3,0.3,0.5c0,0,0,0,0,0.1c0.1,0.1,0.2,0.2,0.2,0.3l0.1,0.1c0.1,0.1,0.2,0.2,0.2,0.2l0.1,0.1
				c0.1,0.1,0.2,0.2,0.4,0.3L40.3,54c-0.1-0.1-0.2-0.2-0.4-0.3l-0.1-0.1c-0.1-0.1-0.2-0.1-0.2-0.2l-0.1-0.1
				c-0.1-0.1-0.2-0.2-0.2-0.3c0,0,0,0,0-0.1l0,0c-0.1-0.1-0.2-0.3-0.2-0.4l0,0l0,0c0-0.1-0.1-0.2-0.1-0.3s0-0.1-0.1-0.2v-0.1v-0.1
				c0-0.1-0.1-0.2-0.1-0.3v-0.1c0,0,0,0,0-0.1v-0.1c0-0.1,0-0.2,0-0.3s0-0.1,0-0.2c0,0,0,0,0-0.1c0,0,0,0,0-0.1s0-0.2,0-0.3
				s0-0.2,0-0.3l0,0C38,49.9,38,49.8,38,49.7z"/>
			<g>
				
					<linearGradient id="SVGID_4_" gradientUnits="userSpaceOnUse" x1="-670.5325" y1="50.4322" x2="-657.9781" y2="50.4322" gradientTransform="matrix(-1 0 0 -1 -614.5101 100)">
					<stop  offset="0.1174" style="stop-color:#6485C3"/>
					<stop  offset="0.5619" style="stop-color:#4764AC"/>
					<stop  offset="0.7734" style="stop-color:#425DA7"/>
					<stop  offset="1" style="stop-color:#39509D"/>
				</linearGradient>
				<path style="fill:url(#SVGID_4_);" d="M49.7,42.4c-3.5,2-6.3,6.9-6.3,10.8s2.8,5.6,6.3,3.6S56,49.9,56,45.9
					C56,42,53.2,40.3,49.7,42.4z"/>
			</g>
		</g>
	</g>
</g>
</svg>
