<?xml version="1.0" encoding="utf-8"?>
<!-- Generator: Adobe Illustrator 23.0.1, SVG Export Plug-In . SVG Version: 6.00 Build 0)  -->
<svg version="1.1" id="Layer_1" xmlns="http://www.w3.org/2000/svg" xmlns:xlink="http://www.w3.org/1999/xlink" x="0px" y="0px"
	 viewBox="0 0 100 100" style="enable-background:new 0 0 100 100;" xml:space="preserve">
<g id="sign_7_">
	<path style="fill:#63A9DA;" d="M16.3,26c0.1,0.5,0.3,0.9,0.5,1.4c0.1,0.2,0.2,0.4,0.3,0.6c0.2,0.4,0.5,0.8,0.8,1.1
		c0.2,0.2,0.3,0.3,0.5,0.5c0.3,0.3,0.6,0.5,0.9,0.7s0.7,0.4,1,0.6c0.7,0.3,1.5,0.5,2.1,0.5c0.1,0,0.1,0,0.2,0c0-1.1,0-2.3,0-3.4
		c-0.3,0-0.6-0.1-0.9-0.2c-0.5-0.2-0.9-0.5-1.2-0.8c-0.3-0.3-0.6-0.7-0.8-1.2c-0.2-0.4-0.3-0.8-0.3-1.2c-0.1-1.1,0.3-2.1,1-2.9
		c0.6-0.6,1.3-1,2.2-1.2c0,0,0,0,0.1-0.1c0-1.1,0-2.2,0-3.4c-0.1,0-0.1,0.1-0.2,0.1s-0.1,0-0.2,0s-0.2,0-0.2,0
		c-0.1,0.1-0.2,0-0.3,0.1c-0.3,0.1-0.7,0.2-1,0.3c-0.1,0-0.2,0.1-0.3,0.1c-0.3,0.1-0.5,0.2-0.7,0.3c-0.3,0.2-0.6,0.4-0.9,0.6
		c-0.2,0.2-0.5,0.4-0.7,0.6c-0.2,0.3-0.5,0.4-0.6,0.7c-0.2,0.3-0.4,0.5-0.5,0.8c-0.2,0.3-0.3,0.7-0.5,1c-0.1,0.2-0.1,0.4-0.1,0.5
		c-0.1,0.2-0.1,0.4-0.1,0.7c0,0.2-0.1,0.5-0.1,0.7c0,0.5-0.1,1,0,1.6C16.2,25.5,16.2,25.7,16.3,26z"/>
	<path style="fill:#63A9DA;" d="M24.4,31.4c0.1-0.1,0.3,0,0.4-0.1c0.4,0,0.8-0.2,1.2-0.4c0.7-0.3,1.3-0.7,1.9-1.1
		c0.5-0.4,0.9-0.9,1.2-1.4c0.2-0.2,0.3-0.5,0.5-0.8c0.1-0.3,0.3-0.6,0.4-0.9c0.1-0.2,0.1-0.4,0.1-0.5c0.1-0.2,0.1-0.5,0.1-0.7
		c0.1-0.1,0-0.3,0.1-0.4c0-0.1,0.1-0.3,0.1-0.4c0-0.4,0-0.8,0-1.1c-0.1-0.3-0.1-0.6-0.1-0.9c-0.1-0.4-0.2-0.8-0.4-1.2
		c-0.3-0.7-0.7-1.3-1.1-1.9c-0.4-0.4-0.8-0.9-1.3-1.2c-0.5-0.4-1.1-0.7-1.7-0.9c-0.5-0.2-1.1-0.4-1.6-0.4c-0.1,0-0.1,0-0.1,0
		c0,1.1,0,2.3,0,3.4c0.6,0.1,1.1,0.3,1.6,0.7c0.3,0.2,0.9,0.8,1.2,1.3c0.3,0.5,0.4,1.1,0.4,1.6c0,0.4-0.1,0.7-0.1,1.1
		c-0.1,0.3-0.2,0.6-0.3,0.8c-0.1,0.2-0.2,0.4-0.4,0.6c-0.3,0.4-0.7,0.7-1.2,1c-0.2,0.1-0.3,0.2-0.5,0.2C24.4,28,24.2,28,24,28.1
		c0,1.1,0,2.2,0,3.3C24.1,31.4,24.3,31.4,24.4,31.4z"/>
	<path style="fill:#63A9DA;" d="M11.7,25.6c0.1,0.3,0.1,0.6,0.1,0.9s0.2,0.7,0.2,1c0.2,0.5,0.4,1,0.6,1.5c0.2,0.5,0.5,1,0.8,1.5
		c0.4,0.7,1,1.3,1.5,1.9c0.2,0.2,0.4,0.4,0.6,0.6c0.3,0.3,0.7,0.6,1,0.8c0.4,0.3,0.8,0.5,1.2,0.8c0.5,0.3,1,0.5,1.5,0.7
		c0.3,0.1,0.7,0.2,1,0.3c0.2,0.1,0.5,0.2,0.7,0.1c0.1,0.1,0.2,0,0.3,0.1c0.4,0.2,0.7,0.4,1,0.7c0.2,0.2,0.3,0.3,0.4,0.6
		c0.2,0.3,0.4,0.6,0.4,1c0,0.1,0,0.1,0.1,0.2c0,0.1,0,0.2,0.1,0.2c0-0.3,0-0.5,0.1-0.7c0.1-0.5,0.4-0.8,0.7-1.2
		c0.1-0.1,0.3-0.2,0.4-0.3c0.4-0.3,0.6-0.4,1.1-0.5c0.1,0,0.3,0,0.4-0.1c0.3-0.1,0.6-0.2,0.9-0.2c0.4-0.1,0.8-0.3,1.1-0.4
		c0.3-0.1,0.7-0.3,1-0.5c0.1-0.1,0.2-0.1,0.3-0.2c0.2-0.1,0.5-0.3,0.7-0.4c0.4-0.3,0.8-0.5,1.1-0.9c0.4-0.4,0.8-0.8,1.2-1.3
		c0.2-0.2,0.4-0.4,0.6-0.7c0.3-0.5,0.6-0.9,0.8-1.4s0.5-1,0.7-1.5c0.2-0.4,0.3-0.9,0.4-1.4c0.1-0.1,0-0.3,0.1-0.4s0-0.3,0-0.4
		c0.1-0.2,0-0.3,0.1-0.4v-0.1c0.1-0.1,0.1-0.2,0.1-0.4c0-0.1,0-0.3,0-0.4s0-0.3,0-0.4c-1.1,0-2.1,0-3.2,0c0,0.2,0,0.4,0,0.6
		s0,0.4-0.1,0.6c0,0.2,0,0.3-0.1,0.5s-0.1,0.5-0.2,0.7s-0.1,0.5-0.3,0.7c-0.1,0.5-0.4,0.9-0.6,1.3c-0.3,0.6-0.7,1-1.2,1.5
		c-0.2,0.2-0.5,0.4-0.7,0.7c-0.2,0.2-0.4,0.3-0.6,0.4c-0.3,0.2-0.7,0.4-1.1,0.6c-0.3,0.2-0.7,0.3-1,0.5c-0.3,0-0.6,0.2-1,0.2
		c-0.4,0.2-0.8,0.1-1.1,0.2c-0.6,0.1-1.1,0-1.7-0.1c0,0,0,0-0.1,0c-0.2-0.1-0.5-0.1-0.7-0.2c-0.6-0.1-1.1-0.3-1.6-0.6
		c-0.3-0.1-0.6-0.3-0.9-0.5c-0.2-0.1-0.4-0.2-0.6-0.4c-0.3-0.2-0.5-0.4-0.7-0.7c-0.1-0.1-0.2-0.2-0.3-0.3c-0.1-0.1-0.2-0.2-0.3-0.3
		c-0.1-0.1-0.1-0.2-0.3-0.3v-0.1c-0.2-0.3-0.3-0.5-0.4-0.7c-0.2-0.3-0.3-0.7-0.6-1c0-0.2-0.2-0.4-0.2-0.6s-0.1-0.4-0.2-0.6
		C15.1,26,15,25.6,15,25.3c0-0.3-0.1-0.7-0.1-1c-1.1,0-2.2,0-3.3,0c0,0.3,0.1,0.5,0.1,0.8C11.7,25.1,11.7,25.4,11.7,25.6z"/>
</g>
</svg>
