<?xml version="1.0" encoding="utf-8"?>
<!-- Generator: Adobe Illustrator 23.0.1, SVG Export Plug-In . SVG Version: 6.00 Build 0)  -->
<svg version="1.1" id="Layer_1" xmlns="http://www.w3.org/2000/svg" xmlns:xlink="http://www.w3.org/1999/xlink" x="0px" y="0px"
	 viewBox="0 0 100 100" style="enable-background:new 0 0 100 100;" xml:space="preserve">
<g id="base-top_3_">
	<g id="XMLID_17_">
		
			<linearGradient id="XMLID_2_" gradientUnits="userSpaceOnUse" x1="1656.8845" y1="71.625" x2="1669.2916" y2="71.625" gradientTransform="matrix(1 0 0 1 -1597.6323 0)">
			<stop  offset="0" style="stop-color:#225C69"/>
			<stop  offset="1" style="stop-color:#A0BEC7"/>
		</linearGradient>
		<path id="XMLID_18_" style="fill:url(#XMLID_2_);" d="M72.1,72.5l0.5,4.4l0,0c-0.3,0.2-0.7,0.2-1,0l-10.4-6.1
			c-0.3-0.2-0.5-0.5-0.5-0.8v-3.8L72.1,72.5z"/>
	</g>
	<g id="XMLID_15_">
		<linearGradient id="XMLID_3_" gradientUnits="userSpaceOnUse" x1="72.1338" y1="71.6688" x2="82.8157" y2="71.6688">
			<stop  offset="0" style="stop-color:#225C69"/>
			<stop  offset="1" style="stop-color:#A0BEC7"/>
		</linearGradient>
		<path id="XMLID_16_" style="fill:url(#XMLID_3_);" d="M82.8,66.5v3.8c0,0.3-0.2,0.7-0.5,0.8l-9.7,5.7c-0.2,0.1-0.5,0-0.5-0.3v-4.4
			L82.8,66.5z"/>
	</g>
	<path id="XMLID_14_" style="fill:#48A7C1;" d="M82.7,66.8l-9.9,5.9c-0.4,0.3-1,0.3-1.5,0l-10.4-6.1c-0.3-0.2-0.3-0.6,0-0.8L71,60.3
		c0.5-0.3,1-0.2,1.5,0l10.2,5.9C82.9,66.4,82.9,66.7,82.7,66.8z"/>
	<linearGradient id="XMLID_4_" gradientUnits="userSpaceOnUse" x1="62.351" y1="66.4" x2="81.1943" y2="66.4">
		<stop  offset="0" style="stop-color:#63A9DA"/>
		<stop  offset="1" style="stop-color:#FFFFFF"/>
	</linearGradient>
	<path id="XMLID_13_" style="fill:url(#XMLID_4_);" d="M81.1,66.7l-8.5,5c-0.4,0.2-0.9,0.2-1.2,0l-8.8-5.2c-0.3-0.1-0.2-0.5,0-0.7
		l8.6-4.7c0.4-0.2,0.9-0.2,1.2,0l8.7,5.1C81.2,66.3,81.2,66.6,81.1,66.7z"/>
	<linearGradient id="SVGID_1_" gradientUnits="userSpaceOnUse" x1="73.2" y1="73.6" x2="74.3838" y2="73.6">
		<stop  offset="0" style="stop-color:#FFFFFF"/>
		<stop  offset="0.2591" style="stop-color:#F4F4F5"/>
		<stop  offset="0.7191" style="stop-color:#D5D7D9"/>
		<stop  offset="0.9935" style="stop-color:#C0C3C6"/>
	</linearGradient>
	<path style="fill:url(#SVGID_1_);" d="M73.2,74.3c0,0,0.7-0.3,1.1-0.7c0.2-0.2,0.1-0.7-0.3-0.7c-0.2,0-0.4,0-0.8,0.2
		C73.2,73.1,73.2,74.3,73.2,74.3z"/>
	<linearGradient id="SVGID_2_" gradientUnits="userSpaceOnUse" x1="72.9106" y1="73.38" x2="73.7436" y2="74.2919">
		<stop  offset="0" style="stop-color:#000000"/>
		<stop  offset="1" style="stop-color:#000000;stop-opacity:0.2"/>
	</linearGradient>
	<path style="opacity:0.25;fill:url(#SVGID_2_);enable-background:new    ;" d="M73.2,73.4v-0.3c0,0,0.7,0.6,0,1.2V73.4z"/>
	<linearGradient id="SVGID_3_" gradientUnits="userSpaceOnUse" x1="73.1978" y1="74.3091" x2="74.2349" y2="75.7344">
		<stop  offset="0" style="stop-color:#FFFFFF"/>
		<stop  offset="0.2591" style="stop-color:#F4F4F5"/>
		<stop  offset="0.7191" style="stop-color:#D5D7D9"/>
		<stop  offset="0.9935" style="stop-color:#C0C3C6"/>
	</linearGradient>
	<path style="fill:url(#SVGID_3_);" d="M73.2,75.7c0,0,0.7-0.3,1.1-0.7c0.2-0.2,0.1-0.7-0.3-0.7c-0.2,0-0.4,0-0.8,0.2
		C73.2,74.5,73.2,75.7,73.2,75.7z"/>
	<linearGradient id="SVGID_4_" gradientUnits="userSpaceOnUse" x1="72.9149" y1="74.7848" x2="73.7479" y2="75.6965">
		<stop  offset="0" style="stop-color:#000000"/>
		<stop  offset="1" style="stop-color:#000000;stop-opacity:0.2"/>
	</linearGradient>
	<path style="opacity:0.25;fill:url(#SVGID_4_);enable-background:new    ;" d="M73.2,74.8v-0.3c0,0,0.7,0.6,0,1.2V74.8z"/>
	
		<linearGradient id="SVGID_5_" gradientUnits="userSpaceOnUse" x1="814.5207" y1="73.6" x2="815.7045" y2="73.6" gradientTransform="matrix(-1 0 0 1 885.3859 0)">
		<stop  offset="0" style="stop-color:#FFFFFF"/>
		<stop  offset="0.2591" style="stop-color:#F4F4F5"/>
		<stop  offset="0.7191" style="stop-color:#D5D7D9"/>
		<stop  offset="0.9935" style="stop-color:#C0C3C6"/>
	</linearGradient>
	<path style="fill:url(#SVGID_5_);" d="M70.9,74.3c0,0-0.7-0.3-1.1-0.7c-0.2-0.2-0.1-0.7,0.3-0.7c0.2,0,0.4,0,0.8,0.2
		C70.9,73.1,70.9,74.3,70.9,74.3z"/>
	
		<linearGradient id="SVGID_6_" gradientUnits="userSpaceOnUse" x1="814.2177" y1="73.4032" x2="815.0507" y2="74.315" gradientTransform="matrix(-1 0 0 1 885.3859 0)">
		<stop  offset="0" style="stop-color:#000000"/>
		<stop  offset="1" style="stop-color:#000000;stop-opacity:0.2"/>
	</linearGradient>
	<path style="opacity:0.25;fill:url(#SVGID_6_);enable-background:new    ;" d="M70.9,73.4v-0.3c0,0-0.7,0.6,0,1.2V73.4z"/>
	
		<linearGradient id="SVGID_7_" gradientUnits="userSpaceOnUse" x1="814.5207" y1="75" x2="815.7045" y2="75" gradientTransform="matrix(-1 0 0 1 885.3859 0)">
		<stop  offset="0" style="stop-color:#FFFFFF"/>
		<stop  offset="0.2591" style="stop-color:#F4F4F5"/>
		<stop  offset="0.7191" style="stop-color:#D5D7D9"/>
		<stop  offset="0.9935" style="stop-color:#C0C3C6"/>
	</linearGradient>
	<path style="fill:url(#SVGID_7_);" d="M70.9,75.7c0,0-0.7-0.3-1.1-0.7c-0.2-0.2-0.1-0.7,0.3-0.7c0.2,0,0.4,0,0.8,0.2
		C70.9,74.5,70.9,75.7,70.9,75.7z"/>
	
		<linearGradient id="SVGID_8_" gradientUnits="userSpaceOnUse" x1="814.1721" y1="74.8533" x2="815.0051" y2="75.7652" gradientTransform="matrix(-1 0 0 1 885.3859 0)">
		<stop  offset="0" style="stop-color:#000000"/>
		<stop  offset="1" style="stop-color:#000000;stop-opacity:0.2"/>
	</linearGradient>
	<path style="opacity:0.25;fill:url(#SVGID_8_);enable-background:new    ;" d="M70.9,74.9v-0.3c0,0-0.7,0.6,0,1.2V74.9z"/>
	<linearGradient id="SVGID_9_" gradientUnits="userSpaceOnUse" x1="71.3976" y1="75.2983" x2="74.0305" y2="75.2524">
		<stop  offset="0" style="stop-color:#FFFFFF"/>
		<stop  offset="0.2591" style="stop-color:#F4F4F5"/>
		<stop  offset="0.7191" style="stop-color:#D5D7D9"/>
		<stop  offset="0.9935" style="stop-color:#C0C3C6"/>
	</linearGradient>
	<path style="fill:url(#SVGID_9_);" d="M70.9,74.9l0.4,0.3c0.4,0.3,1,0.3,1.5,0l0.4-0.3l0.1,0.1l-0.5,0.5l-1.1,0.2l-0.5-0.2
		l-0.5-0.4L70.9,74.9z"/>
	<g>
		<linearGradient id="SVGID_10_" gradientUnits="userSpaceOnUse" x1="71.799" y1="74.9876" x2="73.1833" y2="76.018">
			<stop  offset="0" style="stop-color:#FFFFFF"/>
			<stop  offset="0.2591" style="stop-color:#F4F4F5"/>
			<stop  offset="0.7191" style="stop-color:#D5D7D9"/>
			<stop  offset="0.9935" style="stop-color:#C0C3C6"/>
		</linearGradient>
		<path style="fill:url(#SVGID_10_);" d="M73.3,74.9l-0.6,0.3c-0.4,0.3-1,0.3-1.5,0l-0.6-0.3v0.4l0.6,0.3c0.4,0.3,1,0.3,1.5,0
			l0.6-0.3V74.9z"/>
	</g>
	<linearGradient id="SVGID_11_" gradientUnits="userSpaceOnUse" x1="71.397" y1="73.8483" x2="74.0299" y2="73.8023">
		<stop  offset="0" style="stop-color:#FFFFFF"/>
		<stop  offset="0.2591" style="stop-color:#F4F4F5"/>
		<stop  offset="0.7191" style="stop-color:#D5D7D9"/>
		<stop  offset="0.9935" style="stop-color:#C0C3C6"/>
	</linearGradient>
	<path style="fill:url(#SVGID_11_);" d="M70.9,73.5l0.4,0.3c0.4,0.3,1,0.3,1.5,0l0.4-0.3l0.1,0.1L72.8,74l-1.1,0.2L71.2,74l-0.5-0.4
		L70.9,73.5z"/>
	<g>
		<linearGradient id="SVGID_12_" gradientUnits="userSpaceOnUse" x1="71.7676" y1="73.6142" x2="73.1519" y2="74.6446">
			<stop  offset="0" style="stop-color:#FFFFFF"/>
			<stop  offset="0.2591" style="stop-color:#F4F4F5"/>
			<stop  offset="0.7191" style="stop-color:#D5D7D9"/>
			<stop  offset="0.9935" style="stop-color:#C0C3C6"/>
		</linearGradient>
		<path style="fill:url(#SVGID_12_);" d="M73.3,73.5l-0.6,0.3c-0.4,0.3-1,0.3-1.5,0l-0.6-0.3V74l0.6,0.3c0.4,0.3,1,0.3,1.5,0
			l0.6-0.3V73.5z"/>
	</g>
	<linearGradient id="SVGID_13_" gradientUnits="userSpaceOnUse" x1="76.5522" y1="71.05" x2="79.3932" y2="71.05">
		<stop  offset="0" style="stop-color:#FFFFFF"/>
		<stop  offset="0.2591" style="stop-color:#F4F4F5"/>
		<stop  offset="0.7191" style="stop-color:#D5D7D9"/>
		<stop  offset="0.9935" style="stop-color:#C0C3C6"/>
	</linearGradient>
	<polygon style="fill:url(#SVGID_13_);" points="79.4,70.6 76.6,72.2 76.6,71.6 79.4,69.9 	"/>
	<linearGradient id="SVGID_14_" gradientUnits="userSpaceOnUse" x1="76.5522" y1="72.4" x2="79.3932" y2="72.4">
		<stop  offset="0" style="stop-color:#FFFFFF"/>
		<stop  offset="0.2591" style="stop-color:#F4F4F5"/>
		<stop  offset="0.7191" style="stop-color:#D5D7D9"/>
		<stop  offset="0.9935" style="stop-color:#C0C3C6"/>
	</linearGradient>
	<polygon style="fill:url(#SVGID_14_);" points="79.4,71.9 76.6,73.6 76.6,72.9 79.4,71.2 	"/>
	<linearGradient id="SVGID_15_" gradientUnits="userSpaceOnUse" x1="77.3627" y1="70.25" x2="82.2786" y2="70.25">
		<stop  offset="0" style="stop-color:#315CA7"/>
		<stop  offset="0.1829" style="stop-color:#3167B0"/>
		<stop  offset="0.5089" style="stop-color:#3286C6"/>
		<stop  offset="0.9373" style="stop-color:#33B7EA"/>
		<stop  offset="0.9946" style="stop-color:#33BEF0"/>
	</linearGradient>
	<polygon style="opacity:0.2;fill:url(#SVGID_15_);enable-background:new    ;" points="79.4,70.6 78.8,70.2 79.4,69.9 	"/>
	<linearGradient id="SVGID_16_" gradientUnits="userSpaceOnUse" x1="77.3627" y1="71.55" x2="82.2786" y2="71.55">
		<stop  offset="0" style="stop-color:#315CA7"/>
		<stop  offset="0.1829" style="stop-color:#3167B0"/>
		<stop  offset="0.5089" style="stop-color:#3286C6"/>
		<stop  offset="0.9373" style="stop-color:#33B7EA"/>
		<stop  offset="0.9946" style="stop-color:#33BEF0"/>
	</linearGradient>
	<polygon style="opacity:0.2;fill:url(#SVGID_16_);enable-background:new    ;" points="79.4,71.9 78.8,71.5 79.4,71.2 	"/>
	
		<ellipse id="lights_26_" transform="matrix(0.8633 -0.5047 0.5047 0.8633 -26.9455 42.298)" style="fill:#48A7C1;" cx="64.6" cy="70.9" rx="0.4" ry="0.6"/>
	
		<ellipse id="lights_25_" transform="matrix(0.8633 -0.5047 0.5047 0.8633 -27.1992 43.1695)" style="fill:#53B9A6;" cx="66.1" cy="71.8" rx="0.4" ry="0.6"/>
	
		<ellipse id="lights_24_" transform="matrix(0.8633 -0.5047 0.5047 0.8633 -27.4892 44.1278)" style="fill:#48A7C1;" cx="67.7" cy="72.8" rx="0.4" ry="0.6"/>
</g>
</svg>
