<?xml version="1.0" encoding="utf-8"?>
<!-- Generator: Adobe Illustrator 23.0.1, SVG Export Plug-In . SVG Version: 6.00 Build 0)  -->
<svg version="1.1" id="Layer_1" xmlns="http://www.w3.org/2000/svg" xmlns:xlink="http://www.w3.org/1999/xlink" x="0px" y="0px"
	 viewBox="0 0 100 100" style="enable-background:new 0 0 100 100;" xml:space="preserve">
<linearGradient id="shade_1_" gradientUnits="userSpaceOnUse" x1="86.9869" y1="87.9014" x2="72.1912" y2="70.2685">
	<stop  offset="5.227065e-03" style="stop-color:#48A7C1"/>
	<stop  offset="1" style="stop-color:#225C69"/>
</linearGradient>
<path id="shade_20_" style="opacity:0.2;fill:url(#shade_1_);enable-background:new    ;" d="M70.3,81.6h6.6c1,0,2-0.3,2.9-0.8
	l8.6-4.8l-10.6-6.4L70.3,81.6z"/>
<g id="base-bottom_3_">
	<g id="XMLID_23_">
		
			<linearGradient id="XMLID_2_" gradientUnits="userSpaceOnUse" x1="1656.8845" y1="77.525" x2="1669.2916" y2="77.525" gradientTransform="matrix(1 0 0 1 -1597.6323 0)">
			<stop  offset="0" style="stop-color:#225C69"/>
			<stop  offset="1" style="stop-color:#A0BEC7"/>
		</linearGradient>
		<path id="XMLID_24_" style="fill:url(#XMLID_2_);" d="M72.1,78.4l0.5,4.4l0,0c-0.3,0.2-0.7,0.2-1,0l-10.4-6.1
			c-0.3-0.2-0.5-0.5-0.5-0.8v-3.8L72.1,78.4z"/>
	</g>
	<g id="XMLID_21_">
		<linearGradient id="XMLID_3_" gradientUnits="userSpaceOnUse" x1="72.1338" y1="77.5688" x2="82.8157" y2="77.5688">
			<stop  offset="0" style="stop-color:#225C69"/>
			<stop  offset="1" style="stop-color:#A0BEC7"/>
		</linearGradient>
		<path id="XMLID_22_" style="fill:url(#XMLID_3_);" d="M82.8,72.4v3.8c0,0.3-0.2,0.7-0.5,0.8l-9.7,5.7c-0.2,0.1-0.5,0-0.5-0.3V78
			L82.8,72.4z"/>
	</g>
	<path id="XMLID_19_" style="fill:#48A7C1;" d="M82.7,72.7l-9.9,5.9c-0.4,0.3-1,0.3-1.5,0l-10.4-6.1c-0.3-0.2-0.3-0.6,0-0.8L71,66.2
		c0.5-0.3,1-0.2,1.5,0l10.2,5.9C82.9,72.3,82.9,72.6,82.7,72.7z"/>
	<linearGradient id="SVGID_1_" gradientUnits="userSpaceOnUse" x1="73.3101" y1="79.6" x2="74.4939" y2="79.6">
		<stop  offset="0" style="stop-color:#FFFFFF"/>
		<stop  offset="0.2591" style="stop-color:#F4F4F5"/>
		<stop  offset="0.7191" style="stop-color:#D5D7D9"/>
		<stop  offset="0.9935" style="stop-color:#C0C3C6"/>
	</linearGradient>
	<path style="fill:url(#SVGID_1_);" d="M73.3,80.3c0,0,0.7-0.3,1.1-0.7c0.2-0.2,0.1-0.7-0.3-0.7c-0.2,0-0.4,0-0.8,0.2
		C73.3,79.1,73.3,80.3,73.3,80.3z"/>
	<linearGradient id="SVGID_2_" gradientUnits="userSpaceOnUse" x1="73.3101" y1="81" x2="74.4939" y2="81">
		<stop  offset="0" style="stop-color:#FFFFFF"/>
		<stop  offset="0.2591" style="stop-color:#F4F4F5"/>
		<stop  offset="0.7191" style="stop-color:#D5D7D9"/>
		<stop  offset="0.9935" style="stop-color:#C0C3C6"/>
	</linearGradient>
	<path style="fill:url(#SVGID_2_);" d="M73.3,81.7c0,0,0.7-0.3,1.1-0.7c0.2-0.2,0.1-0.7-0.3-0.7c-0.2,0-0.4,0-0.8,0.2
		C73.3,80.5,73.3,81.7,73.3,81.7z"/>
	
		<linearGradient id="SVGID_3_" gradientUnits="userSpaceOnUse" x1="814.4174" y1="79.6" x2="815.6012" y2="79.6" gradientTransform="matrix(-1 0 0 1 885.3859 0)">
		<stop  offset="0" style="stop-color:#FFFFFF"/>
		<stop  offset="0.2591" style="stop-color:#F4F4F5"/>
		<stop  offset="0.7191" style="stop-color:#D5D7D9"/>
		<stop  offset="0.9935" style="stop-color:#C0C3C6"/>
	</linearGradient>
	<path style="fill:url(#SVGID_3_);" d="M71,80.3c0,0-0.7-0.3-1.1-0.7c-0.2-0.2-0.1-0.7,0.3-0.7c0.2,0,0.4,0,0.8,0.2
		C71,79.1,71,80.3,71,80.3z"/>
	
		<linearGradient id="SVGID_4_" gradientUnits="userSpaceOnUse" x1="814.4174" y1="81" x2="815.6012" y2="81" gradientTransform="matrix(-1 0 0 1 885.3859 0)">
		<stop  offset="0" style="stop-color:#FFFFFF"/>
		<stop  offset="0.2591" style="stop-color:#F4F4F5"/>
		<stop  offset="0.7191" style="stop-color:#D5D7D9"/>
		<stop  offset="0.9935" style="stop-color:#C0C3C6"/>
	</linearGradient>
	<path style="fill:url(#SVGID_4_);" d="M71,81.7c0,0-0.7-0.3-1.1-0.7c-0.2-0.2-0.1-0.7,0.3-0.7c0.2,0,0.4,0,0.8,0.2
		C71,80.5,71,81.7,71,81.7z"/>
	<linearGradient id="SVGID_5_" gradientUnits="userSpaceOnUse" x1="76.6597" y1="76.85" x2="79.5008" y2="76.85">
		<stop  offset="0" style="stop-color:#FFFFFF"/>
		<stop  offset="0.2591" style="stop-color:#F4F4F5"/>
		<stop  offset="0.7191" style="stop-color:#D5D7D9"/>
		<stop  offset="0.9935" style="stop-color:#C0C3C6"/>
	</linearGradient>
	<polygon style="fill:url(#SVGID_5_);" points="79.5,76.4 76.7,78 76.7,77.3 79.5,75.7 	"/>
	<linearGradient id="SVGID_6_" gradientUnits="userSpaceOnUse" x1="76.6597" y1="78.15" x2="79.5008" y2="78.15">
		<stop  offset="0" style="stop-color:#FFFFFF"/>
		<stop  offset="0.2591" style="stop-color:#F4F4F5"/>
		<stop  offset="0.7191" style="stop-color:#D5D7D9"/>
		<stop  offset="0.9935" style="stop-color:#C0C3C6"/>
	</linearGradient>
	<polygon style="fill:url(#SVGID_6_);" points="79.5,77.7 76.7,79.3 76.7,78.6 79.5,77 	"/>
	<linearGradient id="SVGID_7_" gradientUnits="userSpaceOnUse" x1="77.4702" y1="76.05" x2="82.3861" y2="76.05">
		<stop  offset="0" style="stop-color:#315CA7"/>
		<stop  offset="0.1829" style="stop-color:#3167B0"/>
		<stop  offset="0.5089" style="stop-color:#3286C6"/>
		<stop  offset="0.9373" style="stop-color:#33B7EA"/>
		<stop  offset="0.9946" style="stop-color:#33BEF0"/>
	</linearGradient>
	<polygon style="opacity:0.2;fill:url(#SVGID_7_);enable-background:new    ;" points="79.5,76.4 79,76 79.5,75.7 	"/>
	<linearGradient id="SVGID_8_" gradientUnits="userSpaceOnUse" x1="77.4702" y1="77.35" x2="82.3861" y2="77.35">
		<stop  offset="0" style="stop-color:#315CA7"/>
		<stop  offset="0.1829" style="stop-color:#3167B0"/>
		<stop  offset="0.5089" style="stop-color:#3286C6"/>
		<stop  offset="0.9373" style="stop-color:#33B7EA"/>
		<stop  offset="0.9946" style="stop-color:#33BEF0"/>
	</linearGradient>
	<polygon style="opacity:0.2;fill:url(#SVGID_8_);enable-background:new    ;" points="79.5,77.7 79,77.3 79.5,77 	"/>
	<g>
		<linearGradient id="SVGID_9_" gradientUnits="userSpaceOnUse" x1="72.9877" y1="79.3549" x2="73.8207" y2="80.2667">
			<stop  offset="0" style="stop-color:#FFFFFF"/>
			<stop  offset="0.2591" style="stop-color:#F4F4F5"/>
			<stop  offset="0.7191" style="stop-color:#D5D7D9"/>
			<stop  offset="0.9935" style="stop-color:#C0C3C6"/>
		</linearGradient>
		<path style="fill:url(#SVGID_9_);" d="M73.3,79.4v-0.3c0,0,0.7,0.6,0,1.2V79.4z"/>
		<linearGradient id="SVGID_10_" gradientUnits="userSpaceOnUse" x1="72.9919" y1="80.7596" x2="73.8249" y2="81.6715">
			<stop  offset="0" style="stop-color:#FFFFFF"/>
			<stop  offset="0.2591" style="stop-color:#F4F4F5"/>
			<stop  offset="0.7191" style="stop-color:#D5D7D9"/>
			<stop  offset="0.9935" style="stop-color:#C0C3C6"/>
		</linearGradient>
		<path style="fill:url(#SVGID_10_);" d="M73.3,80.8v-0.3c0,0,0.7,0.6,0,1.2V80.8z"/>
		
			<linearGradient id="SVGID_11_" gradientUnits="userSpaceOnUse" x1="814.0887" y1="79.3715" x2="814.9219" y2="80.2834" gradientTransform="matrix(-1 0 0 1 885.3859 0)">
			<stop  offset="0" style="stop-color:#FFFFFF"/>
			<stop  offset="0.2591" style="stop-color:#F4F4F5"/>
			<stop  offset="0.7191" style="stop-color:#D5D7D9"/>
			<stop  offset="0.9935" style="stop-color:#C0C3C6"/>
		</linearGradient>
		<path style="fill:url(#SVGID_11_);" d="M71,79.4v-0.3c0,0-0.7,0.6,0,1.2V79.4z"/>
		
			<linearGradient id="SVGID_12_" gradientUnits="userSpaceOnUse" x1="814.0928" y1="80.7759" x2="814.9258" y2="81.6877" gradientTransform="matrix(-1 0 0 1 885.3859 0)">
			<stop  offset="0" style="stop-color:#FFFFFF"/>
			<stop  offset="0.2591" style="stop-color:#F4F4F5"/>
			<stop  offset="0.7191" style="stop-color:#D5D7D9"/>
			<stop  offset="0.9935" style="stop-color:#C0C3C6"/>
		</linearGradient>
		<path style="fill:url(#SVGID_12_);" d="M71,80.8v-0.3c0,0-0.7,0.6,0,1.2V80.8z"/>
	</g>
	<g>
		<linearGradient id="SVGID_13_" gradientUnits="userSpaceOnUse" x1="71.9057" y1="80.9182" x2="73.29" y2="81.9486">
			<stop  offset="0" style="stop-color:#FFFFFF"/>
			<stop  offset="0.2591" style="stop-color:#F4F4F5"/>
			<stop  offset="0.7191" style="stop-color:#D5D7D9"/>
			<stop  offset="0.9935" style="stop-color:#C0C3C6"/>
		</linearGradient>
		<path style="fill:url(#SVGID_13_);" d="M73.5,80.9l-0.6,0.3c-0.4,0.3-1,0.3-1.5,0l-0.6-0.3v0.4l0.6,0.3c0.4,0.3,1,0.3,1.5,0
			l0.6-0.3V80.9z"/>
	</g>
	<g>
		<linearGradient id="SVGID_14_" gradientUnits="userSpaceOnUse" x1="71.9462" y1="79.4483" x2="73.3305" y2="80.4787">
			<stop  offset="0" style="stop-color:#FFFFFF"/>
			<stop  offset="0.2591" style="stop-color:#F4F4F5"/>
			<stop  offset="0.7191" style="stop-color:#D5D7D9"/>
			<stop  offset="0.9935" style="stop-color:#C0C3C6"/>
		</linearGradient>
		<path style="fill:url(#SVGID_14_);" d="M73.5,79.4l-0.6,0.3c-0.4,0.3-1,0.3-1.5,0l-0.6-0.3v0.4l0.6,0.3c0.4,0.3,1,0.3,1.5,0
			l0.6-0.3V79.4z"/>
	</g>
	<linearGradient id="SVGID_15_" gradientUnits="userSpaceOnUse" x1="71.5077" y1="81.1981" x2="74.1407" y2="81.1522">
		<stop  offset="0" style="stop-color:#FFFFFF"/>
		<stop  offset="0.2591" style="stop-color:#F4F4F5"/>
		<stop  offset="0.7191" style="stop-color:#D5D7D9"/>
		<stop  offset="0.9935" style="stop-color:#C0C3C6"/>
	</linearGradient>
	<path style="fill:url(#SVGID_15_);" d="M71,80.8l0.4,0.3c0.4,0.3,1,0.3,1.5,0l0.4-0.3l0.1,0.1l-0.5,0.5l-1.1,0.2l-0.5-0.2L70.8,81
		L71,80.8z"/>
	<linearGradient id="SVGID_16_" gradientUnits="userSpaceOnUse" x1="71.508" y1="79.7981" x2="74.141" y2="79.7521">
		<stop  offset="0" style="stop-color:#FFFFFF"/>
		<stop  offset="0.2591" style="stop-color:#F4F4F5"/>
		<stop  offset="0.7191" style="stop-color:#D5D7D9"/>
		<stop  offset="0.9935" style="stop-color:#C0C3C6"/>
	</linearGradient>
	<path style="fill:url(#SVGID_16_);" d="M71,79.4l0.4,0.3c0.4,0.3,1,0.3,1.5,0l0.4-0.3l0.1,0.1L72.9,80l-1.1,0.2L71.3,80l-0.5-0.4
		L71,79.4z"/>
	
		<ellipse id="lights_29_" transform="matrix(0.8633 -0.5047 0.5047 0.8633 -29.8781 42.9235)" style="fill:#48A7C1;" cx="64.3" cy="76.6" rx="0.4" ry="0.6"/>
	
		<ellipse id="lights_28_" transform="matrix(0.8633 -0.5047 0.5047 0.8633 -30.1078 43.8554)" style="fill:#48A7C1;" cx="65.9" cy="77.5" rx="0.4" ry="0.6"/>
	
		<ellipse id="lights_27_" transform="matrix(0.8633 -0.5047 0.5047 0.8633 -30.3374 44.79)" style="fill:#53B9A6;" cx="67.5" cy="78.4" rx="0.4" ry="0.6"/>
</g>
</svg>
