<?xml version="1.0" encoding="utf-8"?>
<!-- Generator: Adobe Illustrator 23.0.1, SVG Export Plug-In . SVG Version: 6.00 Build 0)  -->
<svg version="1.1" id="Layer_1" xmlns="http://www.w3.org/2000/svg" xmlns:xlink="http://www.w3.org/1999/xlink" x="0px" y="0px"
	 viewBox="0 0 100 100" style="enable-background:new 0 0 100 100;" xml:space="preserve">
<style type="text/css">
	.st0{opacity:0.2;fill:url(#shade_1_);}
	.st1{fill:url(#SVGID_1_);}
	.st2{fill:url(#SVGID_2_);}
	.st3{fill:url(#SVGID_3_);}
	.st4{fill:url(#SVGID_4_);}
	.st5{fill:url(#SVGID_5_);}
	.st6{fill:url(#SVGID_6_);}
	.st7{fill:url(#SVGID_7_);}
	.st8{fill:url(#SVGID_8_);}
	.st9{fill:url(#SVGID_9_);}
	.st10{fill:url(#SVGID_10_);}
	.st11{fill:url(#SVGID_11_);}
	.st12{fill:url(#SVGID_12_);}
	.st13{fill:url(#SVGID_13_);}
	.st14{fill:url(#SVGID_14_);}
	.st15{fill:url(#SVGID_15_);}
	.st16{fill:url(#SVGID_16_);}
	.st17{fill:url(#SVGID_17_);}
</style>
<g id="heavy-weight-truck_1_">
	<g id="truckload_1_">
		
			<linearGradient id="shade_1_" gradientUnits="userSpaceOnUse" x1="857.0082" y1="33.2501" x2="837.9601" y2="66.2425" gradientTransform="matrix(-1 0 0 1 881.254 0)">
			<stop  offset="5.227065e-03" style="stop-color:#48A7C1"/>
			<stop  offset="1" style="stop-color:#225C69"/>
		</linearGradient>
		<path id="shade_27_" class="st0" d="M22.5,34.6c1.2-0.6,3-0.6,4.2,0l34.3,19.1c1.2,0.6,1.1,1.7,0,2.3L45,64.9
			c-1.2,0.6-3,0.6-4.2,0L6.6,45.8c-1.2-0.6-1.1-1.7,0-2.3L22.5,34.6z"/>
		<g id="cargo_7_">
			<g id="tyre-3_3_">
				<linearGradient id="SVGID_1_" gradientUnits="userSpaceOnUse" x1="8.5334" y1="41.2441" x2="13.8549" y2="41.2441">
					<stop  offset="5.376340e-03" style="stop-color:#223A8E"/>
					<stop  offset="0.3064" style="stop-color:#456FA9"/>
					<stop  offset="0.6232" style="stop-color:#65A0C2"/>
					<stop  offset="0.8646" style="stop-color:#79BFD1"/>
					<stop  offset="1" style="stop-color:#80CAD7"/>
				</linearGradient>
				<path class="st1" d="M12.5,43.1c0-1.5-1-3.3-2.3-4c-0.6-0.4-1.2-0.4-1.6-0.2l0,0l1.4-0.8l0,0c0.4-0.2,1-0.2,1.6,0.2
					c1.3,0.7,2.3,2.5,2.3,4c0,0.8-0.3,1.3-0.8,1.5l0,0l-1.2,0.7l0,0C12.3,44.3,12.5,43.8,12.5,43.1z"/>
				<linearGradient id="SVGID_2_" gradientUnits="userSpaceOnUse" x1="7.8165" y1="41.7616" x2="12.4695" y2="41.7616">
					<stop  offset="6.778585e-03" style="stop-color:#92D4F6"/>
					<stop  offset="0.2627" style="stop-color:#A5DBF4"/>
					<stop  offset="0.7343" style="stop-color:#C4E5F1"/>
					<stop  offset="1" style="stop-color:#CFE9F0"/>
				</linearGradient>
				<path class="st2" d="M8.5,38.9c0.4-0.2,1-0.2,1.6,0.2c1.3,0.7,2.3,2.5,2.3,4c0,0.7-0.2,1.2-0.6,1.4c-0.4,0.3-1.1,0.3-1.8-0.1
					c-1.3-0.7-2.3-2.5-2.3-4C7.8,39.7,8.1,39.1,8.5,38.9z"/>
				<linearGradient id="SVGID_3_" gradientUnits="userSpaceOnUse" x1="8.8335" y1="41.7616" x2="11.4524" y2="41.7616">
					<stop  offset="0" style="stop-color:#FFFFFF"/>
					<stop  offset="0.3662" style="stop-color:#FCFDFE"/>
					<stop  offset="0.6134" style="stop-color:#F3F8FD"/>
					<stop  offset="0.8248" style="stop-color:#E4EFFA"/>
					<stop  offset="1" style="stop-color:#D1E4F6"/>
				</linearGradient>
				<path class="st3" d="M9.2,40.2c0.2-0.1,0.6-0.1,0.9,0.1c0.7,0.4,1.3,1.4,1.3,2.3c0,0.4-0.1,0.6-0.3,0.8c-0.2,0.2-0.6,0.2-1,0
					c-0.7-0.4-1.3-1.4-1.3-2.3C8.8,40.6,9,40.3,9.2,40.2z"/>
				<linearGradient id="SVGID_4_" gradientUnits="userSpaceOnUse" x1="8.9958" y1="41.7616" x2="11.3736" y2="41.7616">
					<stop  offset="0" style="stop-color:#4489C8"/>
					<stop  offset="0.2286" style="stop-color:#76AAD7"/>
					<stop  offset="0.4788" style="stop-color:#A6C9E5"/>
					<stop  offset="0.6999" style="stop-color:#C8E0EF"/>
					<stop  offset="0.8812" style="stop-color:#DDEEF6"/>
					<stop  offset="1" style="stop-color:#E5F3F8"/>
				</linearGradient>
				<path class="st4" d="M9,41.7c0-0.1,0-0.1-0.1-0.2c0.2,0.1,0.3-0.1,0.3-0.3c0-0.2-0.1-0.5-0.3-0.7c0,0,0-0.1,0.1-0.1
					c0.1,0.1,0.1,0.2,0.2,0.2c0.1,0.1,0.2,0.1,0.3,0c0.1-0.1,0.2-0.3,0.1-0.6c0,0,0.1,0,0.1,0c0,0.2,0.2,0.5,0.4,0.6
					c0.2,0.1,0.4,0.1,0.4-0.1c0,0,0.1,0.1,0.1,0.1c-0.1,0.1-0.1,0.4,0.1,0.6c0.1,0.1,0.2,0.3,0.3,0.3c0.1,0,0.2,0.1,0.2,0.1
					c0,0.1,0,0.1,0.1,0.2C11.2,41.9,11,42,11,42.3c0,0.2,0.1,0.5,0.3,0.7c0,0,0,0.1-0.1,0.1c-0.1-0.1-0.1-0.2-0.2-0.2
					c-0.1-0.1-0.2-0.1-0.3,0c-0.1,0.1-0.2,0.3-0.1,0.6c0,0-0.1,0-0.1,0c0-0.2-0.2-0.5-0.4-0.6c-0.2-0.1-0.4-0.1-0.4,0.1
					c0,0-0.1-0.1-0.1-0.1c0.1-0.1,0.1-0.4-0.1-0.6c-0.1-0.1-0.2-0.3-0.3-0.3C9.2,41.7,9.1,41.7,9,41.7"/>
			</g>
			<g id="tyre-2_3_">
				<linearGradient id="SVGID_5_" gradientUnits="userSpaceOnUse" x1="25.0889" y1="51.6302" x2="30.4103" y2="51.6302">
					<stop  offset="5.376340e-03" style="stop-color:#223A8E"/>
					<stop  offset="0.3064" style="stop-color:#456FA9"/>
					<stop  offset="0.6232" style="stop-color:#65A0C2"/>
					<stop  offset="0.8646" style="stop-color:#79BFD1"/>
					<stop  offset="1" style="stop-color:#80CAD7"/>
				</linearGradient>
				<path class="st5" d="M29,53.5c0-1.5-1-3.3-2.3-4c-0.6-0.4-1.2-0.4-1.6-0.2l0,0l1.4-0.8l0,0c0.4-0.2,1-0.2,1.6,0.2
					c1.3,0.7,2.3,2.5,2.3,4c0,0.8-0.3,1.3-0.8,1.5l0,0l-1.2,0.7l0,0C28.8,54.6,29,54.2,29,53.5z"/>
				<linearGradient id="SVGID_6_" gradientUnits="userSpaceOnUse" x1="24.3719" y1="52.1478" x2="29.0249" y2="52.1478">
					<stop  offset="6.778585e-03" style="stop-color:#92D4F6"/>
					<stop  offset="0.2627" style="stop-color:#A5DBF4"/>
					<stop  offset="0.7343" style="stop-color:#C4E5F1"/>
					<stop  offset="1" style="stop-color:#CFE9F0"/>
				</linearGradient>
				<path class="st6" d="M25.1,49.3c0.4-0.2,1-0.2,1.6,0.2c1.3,0.7,2.3,2.5,2.3,4c0,0.7-0.2,1.2-0.6,1.4c-0.4,0.3-1.1,0.3-1.8-0.1
					c-1.3-0.7-2.3-2.5-2.3-4C24.4,50,24.6,49.5,25.1,49.3z"/>
				<linearGradient id="SVGID_7_" gradientUnits="userSpaceOnUse" x1="25.3889" y1="52.1478" x2="28.0079" y2="52.1478">
					<stop  offset="0" style="stop-color:#FFFFFF"/>
					<stop  offset="0.3662" style="stop-color:#FCFDFE"/>
					<stop  offset="0.6134" style="stop-color:#F3F8FD"/>
					<stop  offset="0.8248" style="stop-color:#E4EFFA"/>
					<stop  offset="1" style="stop-color:#D1E4F6"/>
				</linearGradient>
				<path class="st7" d="M25.8,50.5c0.2-0.1,0.6-0.1,0.9,0.1c0.7,0.4,1.3,1.4,1.3,2.3c0,0.4-0.1,0.6-0.3,0.8c-0.2,0.2-0.6,0.2-1,0
					c-0.7-0.4-1.3-1.4-1.3-2.3C25.4,51,25.5,50.7,25.8,50.5z"/>
				<linearGradient id="SVGID_8_" gradientUnits="userSpaceOnUse" x1="25.5512" y1="52.1478" x2="27.929" y2="52.1478">
					<stop  offset="0" style="stop-color:#4489C8"/>
					<stop  offset="0.2286" style="stop-color:#76AAD7"/>
					<stop  offset="0.4788" style="stop-color:#A6C9E5"/>
					<stop  offset="0.6999" style="stop-color:#C8E0EF"/>
					<stop  offset="0.8812" style="stop-color:#DDEEF6"/>
					<stop  offset="1" style="stop-color:#E5F3F8"/>
				</linearGradient>
				<path class="st8" d="M25.6,52.1c0-0.1,0-0.1-0.1-0.2c0.2,0.1,0.3-0.1,0.3-0.3s-0.1-0.5-0.3-0.7c0,0,0-0.1,0.1-0.1
					c0.1,0.1,0.1,0.2,0.2,0.2c0.1,0.1,0.2,0.1,0.3,0c0.1-0.1,0.2-0.3,0.1-0.6c0,0,0.1,0,0.1,0c0,0.2,0.2,0.5,0.4,0.6
					c0.2,0.1,0.4,0.1,0.4-0.1c0,0,0.1,0.1,0.1,0.1c-0.1,0.1-0.1,0.4,0.1,0.6c0.1,0.1,0.2,0.3,0.3,0.3c0.1,0,0.2,0.1,0.2,0.1
					c0,0.1,0,0.1,0.1,0.2c-0.2-0.1-0.3,0.1-0.3,0.3c0,0.2,0.1,0.5,0.3,0.7c0,0,0,0.1-0.1,0.1c-0.1-0.1-0.1-0.2-0.2-0.2
					c-0.1-0.1-0.2-0.1-0.3,0c-0.1,0.1-0.2,0.3-0.1,0.6c0,0-0.1,0-0.1,0c0-0.2-0.2-0.5-0.4-0.6c-0.2-0.1-0.4-0.1-0.4,0.1
					c0,0-0.1-0.1-0.1-0.1c0.1-0.1,0.1-0.4-0.1-0.6c-0.1-0.1-0.2-0.3-0.3-0.3C25.8,52.1,25.7,52.1,25.6,52.1"/>
			</g>
			<g id="tyre-1_3_">
				<linearGradient id="SVGID_9_" gradientUnits="userSpaceOnUse" x1="33.7234" y1="56.8511" x2="39.0448" y2="56.8511">
					<stop  offset="5.376340e-03" style="stop-color:#223A8E"/>
					<stop  offset="0.3064" style="stop-color:#456FA9"/>
					<stop  offset="0.6232" style="stop-color:#65A0C2"/>
					<stop  offset="0.8646" style="stop-color:#79BFD1"/>
					<stop  offset="1" style="stop-color:#80CAD7"/>
				</linearGradient>
				<path class="st9" d="M37.7,58.7c0-1.5-1-3.3-2.3-4c-0.6-0.4-1.2-0.4-1.6-0.2l0,0l1.4-0.8l0,0c0.4-0.2,1-0.2,1.6,0.2
					c1.3,0.7,2.3,2.5,2.3,4c0,0.8-0.3,1.3-0.8,1.5l0,0l-1.2,0.7l0,0C37.4,59.9,37.7,59.4,37.7,58.7z"/>
				<linearGradient id="SVGID_10_" gradientUnits="userSpaceOnUse" x1="33.0064" y1="57.3686" x2="37.6594" y2="57.3686">
					<stop  offset="6.778585e-03" style="stop-color:#92D4F6"/>
					<stop  offset="0.2627" style="stop-color:#A5DBF4"/>
					<stop  offset="0.7343" style="stop-color:#C4E5F1"/>
					<stop  offset="1" style="stop-color:#CFE9F0"/>
				</linearGradient>
				<path class="st10" d="M33.7,54.5c0.4-0.2,1-0.2,1.6,0.2c1.3,0.7,2.3,2.5,2.3,4c0,0.7-0.2,1.2-0.6,1.4c-0.4,0.3-1.1,0.3-1.8-0.1
					C34,59.3,33,57.5,33,56C33,55.3,33.3,54.7,33.7,54.5z"/>
				<linearGradient id="SVGID_11_" gradientUnits="userSpaceOnUse" x1="34.0234" y1="57.3686" x2="36.6424" y2="57.3686">
					<stop  offset="0" style="stop-color:#FFFFFF"/>
					<stop  offset="0.3662" style="stop-color:#FCFDFE"/>
					<stop  offset="0.6134" style="stop-color:#F3F8FD"/>
					<stop  offset="0.8248" style="stop-color:#E4EFFA"/>
					<stop  offset="1" style="stop-color:#D1E4F6"/>
				</linearGradient>
				<path class="st11" d="M34.4,55.8c0.2-0.1,0.6-0.1,0.9,0.1c0.7,0.4,1.3,1.4,1.3,2.3c0,0.4-0.1,0.6-0.3,0.8c-0.2,0.2-0.6,0.2-1,0
					c-0.7-0.4-1.3-1.4-1.3-2.3C34,56.2,34.2,55.9,34.4,55.8z"/>
				<linearGradient id="SVGID_12_" gradientUnits="userSpaceOnUse" x1="34.1857" y1="57.3686" x2="36.5636" y2="57.3686">
					<stop  offset="0" style="stop-color:#4489C8"/>
					<stop  offset="0.2286" style="stop-color:#76AAD7"/>
					<stop  offset="0.4788" style="stop-color:#A6C9E5"/>
					<stop  offset="0.6999" style="stop-color:#C8E0EF"/>
					<stop  offset="0.8812" style="stop-color:#DDEEF6"/>
					<stop  offset="1" style="stop-color:#E5F3F8"/>
				</linearGradient>
				<path class="st12" d="M34.2,57.3c0-0.1,0-0.1-0.1-0.2c0.2,0.1,0.3-0.1,0.3-0.3c0-0.2-0.1-0.5-0.3-0.7c0,0,0-0.1,0.1-0.1
					c0.1,0.1,0.1,0.2,0.2,0.2c0.1,0.1,0.2,0.1,0.3,0c0.1-0.1,0.2-0.3,0.1-0.6c0,0,0.1,0,0.1,0c0,0.2,0.2,0.5,0.4,0.6
					c0.2,0.1,0.4,0.1,0.4-0.1c0,0,0.1,0.1,0.1,0.1c-0.1,0.1-0.1,0.4,0.1,0.6c0.1,0.1,0.2,0.3,0.3,0.3c0.1,0,0.2,0.1,0.2,0.1
					c0,0.1,0,0.1,0.1,0.2c-0.2-0.1-0.3,0.1-0.3,0.3s0.1,0.5,0.3,0.7c0,0,0,0.1-0.1,0.1c-0.1-0.1-0.1-0.2-0.2-0.2
					c-0.1-0.1-0.2-0.1-0.3,0c-0.1,0.1-0.2,0.3-0.1,0.6c0,0-0.1,0-0.1,0c0-0.2-0.2-0.5-0.4-0.6c-0.2-0.1-0.4-0.1-0.4,0.1
					c0,0-0.1-0.1-0.1-0.1c0.1-0.1,0.1-0.4-0.1-0.6c-0.1-0.1-0.2-0.3-0.3-0.3C34.4,57.4,34.3,57.3,34.2,57.3"/>
			</g>
			<linearGradient id="SVGID_13_" gradientUnits="userSpaceOnUse" x1="49.4188" y1="59.6543" x2="61.8049" y2="59.6543">
				<stop  offset="0" style="stop-color:#315CA7"/>
				<stop  offset="1" style="stop-color:#32BDEF"/>
			</linearGradient>
			<polygon class="st13" points="49.4,64.8 61.8,56.9 61.8,54.5 49.6,61.6 			"/>
			<g>
				<linearGradient id="SVGID_14_" gradientUnits="userSpaceOnUse" x1="5.6784" y1="41.4301" x2="49.5655" y2="41.4301">
					<stop  offset="4.836310e-03" style="stop-color:#9ED7F6"/>
					<stop  offset="1" style="stop-color:#48A7C1"/>
				</linearGradient>
				<polygon class="st14" points="49.6,61.6 49.6,47.5 5.7,21.3 5.7,35.4 				"/>
				<linearGradient id="SVGID_15_" gradientUnits="userSpaceOnUse" x1="61.8004" y1="30.8339" x2="5.6811" y2="30.8339">
					<stop  offset="5.376340e-03" style="stop-color:#225C69"/>
					<stop  offset="0.4452" style="stop-color:#368397"/>
					<stop  offset="0.8006" style="stop-color:#439DB6"/>
					<stop  offset="1" style="stop-color:#48A7C1"/>
				</linearGradient>
				<polygon class="st15" points="49.6,47.5 61.8,40.4 17.9,14.2 5.7,21.3 				"/>
				<linearGradient id="SVGID_16_" gradientUnits="userSpaceOnUse" x1="49.5646" y1="50.9994" x2="61.8009" y2="50.9994">
					<stop  offset="5.376340e-03" style="stop-color:#225C69"/>
					<stop  offset="0.4452" style="stop-color:#368397"/>
					<stop  offset="0.8006" style="stop-color:#439DB6"/>
					<stop  offset="1" style="stop-color:#48A7C1"/>
				</linearGradient>
				<polygon class="st16" points="61.8,40.4 61.8,54.5 49.6,61.6 49.6,47.5 				"/>
			</g>
			<g>
				<linearGradient id="SVGID_17_" gradientUnits="userSpaceOnUse" x1="49.5071" y1="49.9944" x2="5.6773" y2="49.9944">
					<stop  offset="4.836310e-03" style="stop-color:#9ED7F6"/>
					<stop  offset="1" style="stop-color:#48A7C1"/>
				</linearGradient>
				<path class="st17" d="M33.9,54.3c0.5-0.3,1.1-0.2,1.9,0.2c1,0.6,1.9,1.9,2.4,3.1l11.2,7l0.1-3.2L15.9,41.3v0L5.7,35.4v2.4
					L8,39.1c0.1-0.2,0.3-0.4,0.5-0.5c0.5-0.3,1.1-0.2,1.9,0.2c1.1,0.6,2,1.8,2.4,3.1l12.1,7.6c0.1-0.2,0.3-0.3,0.5-0.4
					c0.5-0.3,1.1-0.2,1.9,0.2c1,0.6,1.9,1.8,2.4,3.1l3.8,2.4C33.6,54.5,33.7,54.4,33.9,54.3z"/>
			</g>
		</g>
	</g>
</g>
</svg>
