<?xml version="1.0" encoding="utf-8"?>
<!-- Generator: Adobe Illustrator 23.0.1, SVG Export Plug-In . SVG Version: 6.00 Build 0)  -->
<svg version="1.1" id="Layer_1" xmlns="http://www.w3.org/2000/svg" xmlns:xlink="http://www.w3.org/1999/xlink" x="0px" y="0px"
	 viewBox="0 0 100 100" style="enable-background:new 0 0 100 100;" xml:space="preserve">
<g id="hat_4_">
	
		<linearGradient id="SVGID_1_" gradientUnits="userSpaceOnUse" x1="67.4861" y1="87.1306" x2="72.6704" y2="87.1306" gradientTransform="matrix(0.9839 -0.1789 -0.1789 -0.9839 -41.8124 116.0498)">
		<stop  offset="0" style="stop-color:#48A7C1"/>
		<stop  offset="0.9995" style="stop-color:#225C69"/>
	</linearGradient>
	<path style="fill:url(#SVGID_1_);" d="M12.7,16.6c0,0,0.9,0.3,1.2,0.4c0.7,0.3-0.5,1.6-1.6,1.6c-1.3,0-2.5-0.3-3.3-0.7
		C9.6,17.3,12.7,16.6,12.7,16.6z"/>
	
		<linearGradient id="SVGID_2_" gradientUnits="userSpaceOnUse" x1="66.2385" y1="88.8631" x2="71.4136" y2="88.8631" gradientTransform="matrix(0.9839 -0.1789 -0.1789 -0.9839 -41.8124 116.0498)">
		<stop  offset="0" style="stop-color:#48A7C1"/>
		<stop  offset="0.9995" style="stop-color:#225C69"/>
	</linearGradient>
	<path style="fill:url(#SVGID_2_);" d="M7.7,17.8c0,0.1,2.2,0.8,3.8,0c0.5-0.2,1.3-0.7,1.1-1.3c-0.4-1.4-0.9-2.3-3.1-2
		C7.9,14.7,7.1,16.3,7.7,17.8z"/>
</g>
</svg>
