<?xml version="1.0" encoding="utf-8"?>
<!-- Generator: Adobe Illustrator 23.0.1, SVG Export Plug-In . SVG Version: 6.00 Build 0)  -->
<svg version="1.1" id="Layer_1" xmlns="http://www.w3.org/2000/svg" xmlns:xlink="http://www.w3.org/1999/xlink" x="0px" y="0px"
	 viewBox="0 0 100 100" style="enable-background:new 0 0 100 100;" xml:space="preserve">
<g id="left_6_">
	<g>
		
			<linearGradient id="SVGID_1_" gradientUnits="userSpaceOnUse" x1="-620.4018" y1="67.1776" x2="-624.9363" y2="59.3237" gradientTransform="matrix(-1 0 0 -1 -555.8406 100)">
			<stop  offset="0" style="stop-color:#48A7C1"/>
			<stop  offset="1" style="stop-color:#7AC8D1"/>
		</linearGradient>
		<polygon style="fill:url(#SVGID_1_);" points="64.6,32.8 64.5,38 69.1,40.7 69.1,35.4 		"/>
	</g>
	<g style="opacity:0.6;">
		
			<linearGradient id="SVGID_2_" gradientUnits="userSpaceOnUse" x1="-604.0051" y1="69.85" x2="-591.6588" y2="69.85" gradientTransform="matrix(-1 0 0 -1 -555.8406 100)">
			<stop  offset="0" style="stop-color:#48A7C1"/>
			<stop  offset="1" style="stop-color:#7AC8D1"/>
		</linearGradient>
		<path style="fill:url(#SVGID_2_);" d="M36.4,26.3c-0.3-0.2-0.6,0-0.6,0.3c0,0.4,0.3,0.8,0.6,1L47.6,34c0.3,0.2,0.6,0,0.6-0.3
			c0-0.4-0.3-0.8-0.6-1L36.4,26.3z"/>
	</g>
	<g>
		
			<linearGradient id="SVGID_3_" gradientUnits="userSpaceOnUse" x1="-617.5721" y1="63.35" x2="-611.9649" y2="63.35" gradientTransform="matrix(-1 0 0 -1 -555.8406 100)">
			<stop  offset="0" style="stop-color:#48A7C1"/>
			<stop  offset="1" style="stop-color:#7AC8D1"/>
		</linearGradient>
		<path style="fill:url(#SVGID_3_);" d="M56.7,34.7c-0.3-0.2-0.6,0-0.6,0.3c0,0.4,0.3,0.8,0.6,1l4.5,2.6c0.3,0.2,0.6,0,0.6-0.3
			c0-0.4-0.3-0.8-0.6-1L56.7,34.7z"/>
	</g>
	<g>
		
			<linearGradient id="SVGID_4_" gradientUnits="userSpaceOnUse" x1="-610.8406" y1="69.2" x2="-598.4968" y2="69.2" gradientTransform="matrix(-1 0 0 -1 -555.8406 100)">
			<stop  offset="0" style="stop-color:#48A7C1"/>
			<stop  offset="1" style="stop-color:#7AC8D1"/>
		</linearGradient>
		<path style="fill:url(#SVGID_4_);" d="M43.2,26.9c-0.3-0.2-0.6,0-0.6,0.3c0,0.4,0.3,0.8,0.6,1l11.2,6.5c0.3,0.2,0.6,0,0.6-0.3
			c0-0.4-0.3-0.8-0.6-1L43.2,26.9z"/>
	</g>
	<g>
		
			<linearGradient id="SVGID_5_" gradientUnits="userSpaceOnUse" x1="-606.8899" y1="76.2986" x2="-591.6588" y2="76.2986" gradientTransform="matrix(-1 0 0 -1 -555.8406 100)">
			<stop  offset="0" style="stop-color:#48A7C1"/>
			<stop  offset="1" style="stop-color:#7AC8D1"/>
		</linearGradient>
		<path style="fill:url(#SVGID_5_);" d="M37,18.6c-0.6-0.4-1.1-0.1-1.1,0.7c0,0.7,0.5,1.6,1.1,2l13,7.5c0.6,0.4,1.1,0.1,1.1-0.6
			s-0.5-1.6-1.1-2L37,18.6z"/>
	</g>
	<g>
		
			<linearGradient id="SVGID_6_" gradientUnits="userSpaceOnUse" x1="-597.2636" y1="75.05" x2="-591.6588" y2="75.05" gradientTransform="matrix(-1 0 0 -1 -555.8406 100)">
			<stop  offset="0" style="stop-color:#48A7C1"/>
			<stop  offset="1" style="stop-color:#7AC8D1"/>
		</linearGradient>
		<path style="fill:url(#SVGID_6_);" d="M36.4,23c-0.3-0.2-0.6,0-0.6,0.3c0,0.4,0.3,0.8,0.6,1l4.5,2.6c0.3,0.2,0.6,0,0.6-0.3
			c0-0.4-0.3-0.8-0.6-1L36.4,23z"/>
	</g>
	<g>
		
			<linearGradient id="SVGID_7_" gradientUnits="userSpaceOnUse" x1="-620.3568" y1="51.7556" x2="-624.8925" y2="43.8996" gradientTransform="matrix(-1 0 0 -1 -555.8406 100)">
			<stop  offset="0" style="stop-color:#48A7C1"/>
			<stop  offset="1" style="stop-color:#7AC8D1"/>
		</linearGradient>
		<polygon style="fill:url(#SVGID_7_);" points="64.5,48.2 64.5,53.5 69,56.1 69.1,50.9 		"/>
	</g>
	<g>
		
			<linearGradient id="SVGID_8_" gradientUnits="userSpaceOnUse" x1="-620.3564" y1="59.4563" x2="-624.8909" y2="51.6024" gradientTransform="matrix(-1 0 0 -1 -555.8406 100)">
			<stop  offset="0" style="stop-color:#48A7C1"/>
			<stop  offset="1" style="stop-color:#7AC8D1"/>
		</linearGradient>
		<polygon style="fill:url(#SVGID_8_);" points="64.5,40.5 64.5,45.8 69.1,48.4 69.1,43.2 		"/>
	</g>
	<g>
		<g>
			<polygon style="fill:#828282;" points="45.9,36.9 46.8,37.1 47.5,37.7 47.6,43.2 46.7,42.5 46.6,38.1 46.2,38 			"/>
			<g style="enable-background:new    ;">
				<g>
					<defs>
						<polygon id="SVGID_9_" points="45.9,36.9 46.8,37.1 47.5,37.7 47.6,43.2 46.7,42.5 46.6,38.1 46.2,38 						"/>
					</defs>
					<clipPath id="SVGID_10_">
						<use xlink:href="#SVGID_9_"  style="overflow:visible;"/>
					</clipPath>
					<g style="clip-path:url(#SVGID_10_);">
						<g>
							<g>
								
									<linearGradient id="SVGID_11_" gradientUnits="userSpaceOnUse" x1="45.9455" y1="59.95" x2="47.5539" y2="59.95" gradientTransform="matrix(1 0 0 -1 0 100)">
									<stop  offset="0" style="stop-color:#48A7C1"/>
									<stop  offset="1" style="stop-color:#7AC8D1"/>
								</linearGradient>
								<polyline id="SVGID_14_" style="fill:url(#SVGID_11_);" points="47.6,43.2 46.7,42.5 46.6,38.1 46.2,38 45.9,36.9 
									46.8,37.1 47.5,37.7 47.6,43.2 								"/>
							</g>
						</g>
					</g>
				</g>
			</g>
		</g>
		<g>
			<path style="fill:#828282;" d="M49.8,39.3c0.6,0.4,0.9,0.9,1.2,1.6c0.2,0.6,0.4,1.4,0.4,2.4s-0.1,1.6-0.4,1.9
				c-0.2,0.3-0.6,0.2-1.2-0.2s-0.9-0.9-1.2-1.5c-0.2-0.6-0.4-1.4-0.4-2.4c0-0.9,0.1-1.6,0.4-1.9C48.9,38.8,49.3,38.9,49.8,39.3z
				 M50.5,42.6v-0.5l-0.1-0.5l-0.1-0.4l-0.1-0.4L50,40.5l-0.3-0.2l-0.2-0.1h-0.2l-0.1,0.2l-0.1,0.3v0.4v0.5v0.6v0.5l0.1,0.4l0.1,0.3
				l0.2,0.3l0.3,0.2l0.3,0.1l0.2-0.1l0.1-0.3v-0.5L50.5,42.6"/>
			<g style="enable-background:new    ;">
				<g>
					<defs>
						<path id="SVGID_12_" d="M49.8,39.3c0.6,0.4,0.9,0.9,1.2,1.6c0.2,0.6,0.4,1.4,0.4,2.4s-0.1,1.6-0.4,1.9
							c-0.2,0.3-0.6,0.2-1.2-0.2s-0.9-0.9-1.2-1.5c-0.2-0.6-0.4-1.4-0.4-2.4c0-0.9,0.1-1.6,0.4-1.9C48.9,38.8,49.3,38.9,49.8,39.3z
							 M50.5,42.6v-0.5l-0.1-0.5l-0.1-0.4l-0.1-0.4L50,40.5l-0.3-0.2l-0.2-0.1h-0.2l-0.1,0.2l-0.1,0.3v0.4v0.5v0.6v0.5l0.1,0.4
							l0.1,0.3l0.2,0.3l0.3,0.2l0.3,0.1l0.2-0.1l0.1-0.3v-0.5L50.5,42.6"/>
					</defs>
					<clipPath id="SVGID_13_">
						<use xlink:href="#SVGID_12_"  style="overflow:visible;"/>
					</clipPath>
					<g style="clip-path:url(#SVGID_13_);">
						<g>
							<g>
								
									<linearGradient id="SVGID_15_" gradientUnits="userSpaceOnUse" x1="48.2907" y1="57.9" x2="51.4022" y2="57.9" gradientTransform="matrix(1 0 0 -1 0 100)">
									<stop  offset="0" style="stop-color:#48A7C1"/>
									<stop  offset="1" style="stop-color:#7AC8D1"/>
								</linearGradient>
								<polyline id="SVGID_19_" style="fill:url(#SVGID_15_);" points="51.4,43.6 51.4,43.9 51.4,44.2 51.3,44.4 51.3,44.7 
									51.2,44.8 51.1,45 51.1,45.1 51,45.2 50.8,45.3 50.7,45.3 50.6,45.3 50.4,45.3 50.2,45.2 50.1,45.1 49.9,44.9 49.7,44.8 
									49.5,44.6 49.3,44.4 49.1,44.3 49,44.1 48.9,43.8 48.8,43.6 48.7,43.4 48.6,43.2 48.5,42.9 48.4,42.6 48.4,42.3 48.4,42 
									48.3,41.7 48.3,41.3 48.3,41 48.3,40.6 48.3,40.3 48.3,40 48.4,39.8 48.4,39.6 48.5,39.4 48.6,39.2 48.6,39.1 48.7,39 
									48.9,38.9 49,38.9 49.1,38.9 49.3,39 49.4,39 49.6,39.1 49.8,39.3 50,39.4 50.2,39.6 50.4,39.8 50.5,40 50.7,40.2 
									50.8,40.4 50.9,40.6 51,40.8 51.1,41.1 51.2,41.4 51.2,41.6 51.3,41.9 51.3,42.2 51.4,42.6 51.4,42.9 51.4,43.2 51.4,43.6 
																	"/>
							</g>
						</g>
					</g>
				</g>
			</g>
		</g>
		<g>
			<path style="fill:#828282;" d="M53.5,42c0.6,0.4,0.9,0.9,1.2,1.6c0.2,0.6,0.4,1.4,0.4,2.4s-0.1,1.6-0.4,1.9
				c-0.2,0.3-0.6,0.2-1.2-0.2c-0.6-0.4-0.9-0.9-1.2-1.5c-0.3-0.7-0.4-1.4-0.4-2.4c0-0.9,0.1-1.6,0.4-1.9C52.6,41.5,53,41.6,53.5,42z
				 M54.2,45.3v-0.5v-0.5l-0.1-0.4L54,43.5l-0.2-0.3L53.5,43l-0.2-0.1h-0.2L53,43.1v0.3v0.4v0.5v0.6v0.5l0.1,0.4l0.1,0.3l0.2,0.3
				l0.2,0.2l0.3,0.1l0.2-0.1l0.1-0.3l0.1-0.5L54.2,45.3"/>
			<g style="enable-background:new    ;">
				<g>
					
						<linearGradient id="SVGID_16_" gradientUnits="userSpaceOnUse" x1="52.0133" y1="55.1401" x2="55.0972" y2="55.1401" gradientTransform="matrix(1 0 0 -1 0 100)">
						<stop  offset="0" style="stop-color:#48A7C1"/>
						<stop  offset="1" style="stop-color:#7AC8D1"/>
					</linearGradient>
					<path id="SVGID_22_" style="fill:url(#SVGID_16_);" d="M53.5,42c0.6,0.4,0.9,0.9,1.2,1.6c0.2,0.6,0.4,1.4,0.4,2.4
						s-0.1,1.6-0.4,1.9c-0.2,0.3-0.6,0.2-1.2-0.2c-0.6-0.4-0.9-0.9-1.2-1.5c-0.3-0.7-0.4-1.4-0.4-2.4c0-0.9,0.1-1.6,0.4-1.9
						C52.6,41.5,53,41.6,53.5,42z M54.2,45.3v-0.5v-0.5l-0.1-0.4L54,43.5l-0.2-0.3L53.5,43l-0.2-0.1h-0.2L53,43.1v0.3v0.4v0.5v0.6
						v0.5l0.1,0.4l0.1,0.3l0.2,0.3l0.2,0.2l0.3,0.1l0.2-0.1l0.1-0.3l0.1-0.5L54.2,45.3"/>
				</g>
				<g>
					<defs>
						<path id="SVGID_17_" d="M53.5,42c0.6,0.4,0.9,0.9,1.2,1.6c0.2,0.6,0.4,1.4,0.4,2.4s-0.1,1.6-0.4,1.9c-0.2,0.3-0.6,0.2-1.2-0.2
							c-0.6-0.4-0.9-0.9-1.2-1.5c-0.3-0.7-0.4-1.4-0.4-2.4c0-0.9,0.1-1.6,0.4-1.9C52.6,41.5,53,41.6,53.5,42z M54.2,45.3v-0.5v-0.5
							l-0.1-0.4L54,43.5l-0.2-0.3L53.5,43l-0.2-0.1h-0.2L53,43.1v0.3v0.4v0.5v0.6v0.5l0.1,0.4l0.1,0.3l0.2,0.3l0.2,0.2l0.3,0.1
							l0.2-0.1l0.1-0.3l0.1-0.5L54.2,45.3"/>
					</defs>
					<clipPath id="SVGID_18_">
						<use xlink:href="#SVGID_17_"  style="overflow:visible;"/>
					</clipPath>
				</g>
			</g>
		</g>
		<g>
			<path style="fill:#828282;" d="M59.7,49.4l0.3,0.7l0.1,0.7c0,0.4-0.1,0.7-0.3,0.9c-0.2,0.1-0.5,0.1-0.8-0.1v0.6l-0.6-0.4v-0.6
				l-0.5-0.6L57.5,50l-0.2-0.5L57.2,49l0.7,0.1l0.3,0.7l0.5,0.5l0.4,0.1l0.1-0.3l-0.1-0.3L59,49.5l-0.3-0.4l-0.3-0.4l-0.3-0.4
				l-0.3-0.5l-0.3-0.5l-0.2-0.5l-0.1-0.6c0-0.4,0.1-0.7,0.3-0.8s0.5-0.1,0.8,0.1v-0.4l0.6,0.4v0.4l0.4,0.4l0.3,0.4l0.2,0.4l0.1,0.4
				l0.1,0.3l-0.7-0.1l-0.1-0.3l-0.1-0.3L58.9,47l-0.3-0.3l-0.4-0.1l-0.1,0.3l0.1,0.4l0.3,0.4l0.4,0.5l0.4,0.6L59.7,49.4z"/>
			<g style="enable-background:new    ;">
				<g>
					<defs>
						<path id="SVGID_20_" d="M59.7,49.4l0.3,0.7l0.1,0.7c0,0.4-0.1,0.7-0.3,0.9c-0.2,0.1-0.5,0.1-0.8-0.1v0.6l-0.6-0.4v-0.6
							l-0.5-0.6L57.5,50l-0.2-0.5L57.2,49l0.7,0.1l0.3,0.7l0.5,0.5l0.4,0.1l0.1-0.3l-0.1-0.3L59,49.5l-0.3-0.4l-0.3-0.4l-0.3-0.4
							l-0.3-0.5l-0.3-0.5l-0.2-0.5l-0.1-0.6c0-0.4,0.1-0.7,0.3-0.8s0.5-0.1,0.8,0.1v-0.4l0.6,0.4v0.4l0.4,0.4l0.3,0.4l0.2,0.4
							l0.1,0.4l0.1,0.3l-0.7-0.1l-0.1-0.3l-0.1-0.3L58.9,47l-0.3-0.3l-0.4-0.1l-0.1,0.3l0.1,0.4l0.3,0.4l0.4,0.5l0.4,0.6L59.7,49.4z
							"/>
					</defs>
					<clipPath id="SVGID_21_">
						<use xlink:href="#SVGID_20_"  style="overflow:visible;"/>
					</clipPath>
					<g style="clip-path:url(#SVGID_21_);">
						<g>
							<g>
								
									<linearGradient id="SVGID_23_" gradientUnits="userSpaceOnUse" x1="57.1606" y1="51.35" x2="60.1312" y2="51.35" gradientTransform="matrix(1 0 0 -1 0 100)">
									<stop  offset="0" style="stop-color:#48A7C1"/>
									<stop  offset="1" style="stop-color:#7AC8D1"/>
								</linearGradient>
								<polyline id="SVGID_29_" style="fill:url(#SVGID_23_);" points="60.1,50.9 60.1,51.1 60.1,51.2 60.1,51.3 60,51.4 60,51.5 
									59.9,51.6 59.8,51.6 59.8,51.7 59.7,51.7 59.6,51.7 59.5,51.7 59.4,51.7 59.3,51.7 59.1,51.6 59,51.6 59,52.2 58.4,51.8 
									58.4,51.2 57.9,50.7 57.5,50 57.3,49.5 57.2,49 57.9,49.1 58.2,49.8 58.7,50.4 59.1,50.5 59.2,50.2 59.2,49.9 59,49.5 
									58.7,49.1 58.4,48.8 58.1,48.3 57.8,47.9 57.5,47.3 57.3,46.8 57.3,46.3 57.3,46.1 57.3,46 57.3,45.9 57.4,45.7 57.4,45.7 
									57.4,45.6 57.5,45.5 57.6,45.5 57.7,45.4 57.7,45.4 57.8,45.4 57.9,45.4 58,45.4 58.2,45.4 58.3,45.5 58.4,45.6 58.4,45.1 
									59,45.5 59,46 59.3,46.4 59.6,46.8 59.8,47.2 60,47.6 60.1,47.9 59.3,47.8 59.2,47.5 59.1,47.2 58.9,47 58.7,46.7 
									58.3,46.6 58.2,46.9 58.3,47.3 58.6,47.8 59,48.3 59.4,48.9 59.7,49.4 60,50.1 60.1,50.8 60.1,50.9 								"/>
							</g>
						</g>
					</g>
				</g>
			</g>
		</g>
	</g>
</g>
</svg>
