<?xml version="1.0" encoding="utf-8"?>
<!-- Generator: Adobe Illustrator 23.0.1, SVG Export Plug-In . SVG Version: 6.00 Build 0)  -->
<svg version="1.1" id="Layer_1" xmlns="http://www.w3.org/2000/svg" xmlns:xlink="http://www.w3.org/1999/xlink" x="0px" y="0px"
	 viewBox="0 0 100 100" style="enable-background:new 0 0 100 100;" xml:space="preserve">
<g id="left-leg_9_">
	<path id="Shoes_13_" d="M11,47.2c0,0.6,0,1-0.1,1.2s-0.2,0.4-0.2,0.6c0.5,0.2,1.1,0.3,1.6,0.3v-0.1c0.4,0,0.8,0.2,1.2,0.4
		c0.6,0.3,1.6,0.6,2.1,0.4c0.6-0.2,0.6-0.7,0.2-1c-0.3-0.3-1.5-0.8-2.1-1.1c-0.4-0.1-0.8-0.7-1.3-1.7L11,47.2z"/>
	
		<linearGradient id="Foot_1_" gradientUnits="userSpaceOnUse" x1="-268.9656" y1="-340.5241" x2="-269.6034" y2="-340.805" gradientTransform="matrix(-18.0476 0 0 60 -4843.4111 20472.1934)">
		<stop  offset="0" style="stop-color:#48A7C1"/>
		<stop  offset="0.9995" style="stop-color:#225C69"/>
	</linearGradient>
	<path id="Foot_11_" style="fill:url(#Foot_1_);" d="M10.2,38.1c0.5,6.2,0.8,9.4,0.8,9.7c0,0.4,1.4,0.7,2.5,0.3
		c-0.2-3.2-0.2-5.6,0-7.2c0.2-2.4,0.8-5.7,0.4-7.9c-0.3-1.5-1.9-1.8-4.9-1L10.2,38.1z"/>
</g>
</svg>
