<?xml version="1.0" encoding="utf-8"?>
<!-- Generator: Adobe Illustrator 23.0.1, SVG Export Plug-In . SVG Version: 6.00 Build 0)  -->
<svg version="1.1" id="Layer_1" xmlns="http://www.w3.org/2000/svg" xmlns:xlink="http://www.w3.org/1999/xlink" x="0px" y="0px"
	 viewBox="0 0 100 100" style="enable-background:new 0 0 100 100;" xml:space="preserve">
<g>
	<g style="enable-background:new    ;">
		<g>
			<polygon style="fill:#3D6979;" points="38.9,20.4 39.5,20.2 39.6,20.2 39,20.5 			"/>
		</g>
		<g style="enable-background:new    ;">
			<g>
				<defs>
					<path id="SVGID_1_" d="M40,20.2l-0.6,0.3c-0.1,0-0.2,0-0.4,0l0.6-0.3C39.8,20.3,39.9,20.3,40,20.2z"/>
				</defs>
				<clipPath id="SVGID_2_">
					<use xlink:href="#SVGID_1_"  style="overflow:visible;"/>
				</clipPath>
				<g style="clip-path:url(#SVGID_2_);enable-background:new    ;">
					<path style="fill:#3D6978;" d="M39,20.5l0.6-0.3c0.1,0.1,0.3,0.1,0.4,0l-0.6,0.3C39.3,20.6,39.1,20.5,39,20.5"/>
				</g>
			</g>
		</g>
		<g>
			<polygon style="fill:#457789;" points="38.9,18.4 39.6,18.1 39.5,20.2 38.9,20.4 			"/>
		</g>
		<g style="enable-background:new    ;">
			<g>
				<defs>
					<path id="SVGID_3_" d="M40.9,21.7L40.3,22c0.2-0.1,0.4-0.2,0.5-0.4l0.6-0.3C41.3,21.4,41.1,21.6,40.9,21.7z"/>
				</defs>
				<clipPath id="SVGID_4_">
					<use xlink:href="#SVGID_3_"  style="overflow:visible;"/>
				</clipPath>
				<g style="clip-path:url(#SVGID_4_);enable-background:new    ;">
					<path style="fill:#3F6D7D;" d="M40.8,21.5l0.6-0.3l0,0L40.8,21.5L40.8,21.5"/>
					<path style="fill:#3D6978;" d="M40.8,21.6l0.6-0.3c-0.1,0.2-0.3,0.3-0.5,0.4L40.3,22C40.5,21.9,40.7,21.7,40.8,21.6"/>
				</g>
			</g>
		</g>
		<g>
			<polygon style="fill:#3D6979;" points="37.6,16.4 38.2,16.1 39.6,16.7 39,17 			"/>
		</g>
		<g style="enable-background:new    ;">
			<g>
				<defs>
					<path id="SVGID_5_" d="M39,17l0.6-0.3c0.4,0.2,0.8,0.5,1.1,0.8l-0.6,0.3C39.8,17.4,39.4,17.2,39,17z"/>
				</defs>
				<clipPath id="SVGID_6_">
					<use xlink:href="#SVGID_5_"  style="overflow:visible;"/>
				</clipPath>
				<g style="clip-path:url(#SVGID_6_);enable-background:new    ;">
					<path style="fill:#3D6978;" d="M39,17l0.6-0.3c0.4,0.2,0.8,0.5,1.1,0.8l-0.6,0.3C39.8,17.4,39.4,17.2,39,17"/>
				</g>
			</g>
		</g>
		<g style="enable-background:new    ;">
			<g>
				<defs>
					<path id="SVGID_7_" d="M40.8,18.9l0.6-0.3c0.2,0.5,0.3,0.9,0.3,1.4s-0.1,0.9-0.3,1.2l-0.6,0.3c0.2-0.3,0.3-0.7,0.3-1.2
						S41,19.4,40.8,18.9z"/>
				</defs>
				<clipPath id="SVGID_8_">
					<use xlink:href="#SVGID_7_"  style="overflow:visible;"/>
				</clipPath>
				<g style="clip-path:url(#SVGID_8_);enable-background:new    ;">
					<path style="fill:#3F6D7D;" d="M40.8,18.9l0.6-0.3c0.2,0.5,0.3,0.9,0.3,1.4s-0.1,0.9-0.3,1.2l-0.6,0.3c0.2-0.3,0.3-0.7,0.3-1.2
						S41,19.4,40.8,18.9"/>
					<path style="fill:#3D6978;" d="M40.8,21.5l0.6-0.3l0,0L40.8,21.5L40.8,21.5"/>
				</g>
			</g>
		</g>
		<g style="enable-background:new    ;">
			<g>
				<defs>
					<path id="SVGID_9_" d="M40.1,17.8l0.6-0.3c0.3,0.3,0.6,0.7,0.8,1.2L40.9,19C40.7,18.5,40.4,18.1,40.1,17.8z"/>
				</defs>
				<clipPath id="SVGID_10_">
					<use xlink:href="#SVGID_9_"  style="overflow:visible;"/>
				</clipPath>
				<g style="clip-path:url(#SVGID_10_);enable-background:new    ;">
					<path style="fill:#3D6978;" d="M40.1,17.8l0.6-0.3c0.1,0.1,0.2,0.2,0.3,0.3l-0.6,0.3C40.3,18,40.2,17.9,40.1,17.8"/>
					<path style="fill:#3F6D7D;" d="M40.4,18.1l0.6-0.3c0.2,0.3,0.4,0.5,0.5,0.9L40.9,19C40.7,18.6,40.6,18.3,40.4,18.1"/>
				</g>
			</g>
		</g>
		<g>
			<path style="fill:#74C7E5;" d="M40.8,18.9c0.2,0.5,0.3,0.9,0.3,1.4s-0.1,0.9-0.3,1.2C40.6,21.8,40.4,22,40,22
				c-0.3,0-0.7,0-1.2-0.2l-1.4-0.6l0.1-4.9L39,17c0.4,0.2,0.8,0.5,1.1,0.8C40.4,18.1,40.7,18.5,40.8,18.9z M39.5,20.4
				c0.1-0.1,0.2-0.4,0.2-0.7c0-0.3,0-0.6-0.2-0.9c-0.1-0.2-0.3-0.4-0.5-0.5h-0.1v2.1H39C39.2,20.6,39.4,20.5,39.5,20.4"/>
		</g>
	</g>
	<g style="enable-background:new    ;">
		<g style="enable-background:new    ;">
			<g>
				<defs>
					<path id="SVGID_11_" d="M42.8,21.9l0.6-0.3c0.1,0.2,0.3,0.4,0.5,0.5l-0.6,0.3C43.1,22.3,42.9,22.1,42.8,21.9z"/>
				</defs>
				<clipPath id="SVGID_12_">
					<use xlink:href="#SVGID_11_"  style="overflow:visible;"/>
				</clipPath>
				<g style="clip-path:url(#SVGID_12_);enable-background:new    ;">
					<path style="fill:#3F6D7D;" d="M42.8,21.9l0.6-0.3c0,0.1,0.1,0.2,0.2,0.3L43,22.2C42.9,22,42.8,22,42.8,21.9"/>
					<path style="fill:#3D6978;" d="M42.9,22.1l0.6-0.3c0.1,0.1,0.2,0.2,0.3,0.3l-0.6,0.3C43.1,22.3,43,22.2,42.9,22.1"/>
				</g>
			</g>
		</g>
		<g style="enable-background:new    ;">
			<g>
				<defs>
					<path id="SVGID_13_" d="M44.3,22.1l-0.6,0.3c-0.1,0-0.2,0-0.4,0l0.6-0.3C44,22.2,44.2,22.2,44.3,22.1z"/>
				</defs>
				<clipPath id="SVGID_14_">
					<use xlink:href="#SVGID_13_"  style="overflow:visible;"/>
				</clipPath>
				<g style="clip-path:url(#SVGID_14_);enable-background:new    ;">
					<path style="fill:#3D6978;" d="M43.3,22.4l0.6-0.3c0.1,0.1,0.3,0.1,0.4,0l-0.6,0.3C43.6,22.5,43.4,22.5,43.3,22.4"/>
				</g>
			</g>
		</g>
		<g style="enable-background:new    ;">
			<g>
				<defs>
					<path id="SVGID_15_" d="M42.8,20.3l0.6-0.3c-0.1,0.1-0.2,0.4-0.2,0.7c0,0.3,0,0.6,0.2,0.9l-0.6,0.3c-0.1-0.2-0.2-0.5-0.2-0.9
						C42.6,20.7,42.7,20.5,42.8,20.3z"/>
				</defs>
				<clipPath id="SVGID_16_">
					<use xlink:href="#SVGID_15_"  style="overflow:visible;"/>
				</clipPath>
				<g style="clip-path:url(#SVGID_16_);enable-background:new    ;">
					<path style="fill:#3D6978;" d="M42.8,20.3l0.6-0.3c0,0,0,0,0,0.1L42.8,20.3C42.8,20.4,42.8,20.4,42.8,20.3"/>
					<path style="fill:#3F6D7D;" d="M42.8,20.4l0.6-0.3c-0.1,0.1-0.1,0.4-0.1,0.6c0,0.3,0,0.6,0.2,0.9l-0.6,0.3
						c-0.1-0.2-0.2-0.5-0.2-0.9C42.6,20.7,42.7,20.5,42.8,20.4"/>
				</g>
			</g>
		</g>
		<g style="enable-background:new    ;">
			<g>
				<defs>
					<path id="SVGID_17_" d="M43,20.2l0.6-0.3c-0.1,0-0.1,0.1-0.1,0.1l-0.6,0.3C42.9,20.3,42.9,20.3,43,20.2z"/>
				</defs>
				<clipPath id="SVGID_18_">
					<use xlink:href="#SVGID_17_"  style="overflow:visible;"/>
				</clipPath>
				<g style="clip-path:url(#SVGID_18_);enable-background:new    ;">
					<path style="fill:#3D6978;" d="M43,20.2l0.6-0.3c-0.1,0-0.1,0.1-0.1,0.1l-0.6,0.3C42.9,20.3,42.9,20.3,43,20.2"/>
				</g>
			</g>
		</g>
		<g style="enable-background:new    ;">
			<g>
				<defs>
					<path id="SVGID_19_" d="M42,18.7l0.6-0.3c0.1-0.1,0.3-0.1,0.4-0.1l-0.6,0.3C42.3,18.6,42.1,18.7,42,18.7z"/>
				</defs>
				<clipPath id="SVGID_20_">
					<use xlink:href="#SVGID_19_"  style="overflow:visible;"/>
				</clipPath>
				<g style="clip-path:url(#SVGID_20_);enable-background:new    ;">
					<path style="fill:#3D6978;" d="M42,18.7l0.6-0.3c0.1-0.1,0.3-0.1,0.4-0.1l-0.6,0.3C42.3,18.6,42.1,18.7,42,18.7"/>
				</g>
			</g>
		</g>
		<g style="enable-background:new    ;">
			<g>
				<defs>
					<path id="SVGID_21_" d="M45.2,23.2l0.6-0.3c-0.1,0.3-0.2,0.5-0.4,0.6l-0.6,0.3C45,23.6,45.1,23.4,45.2,23.2z"/>
				</defs>
				<clipPath id="SVGID_22_">
					<use xlink:href="#SVGID_21_"  style="overflow:visible;"/>
				</clipPath>
				<g style="clip-path:url(#SVGID_22_);enable-background:new    ;">
					<path style="fill:#3F6D7D;" d="M45.2,23.2l0.6-0.3c-0.1,0.1-0.1,0.3-0.2,0.4L45,23.6C45.1,23.4,45.2,23.3,45.2,23.2"/>
					<path style="fill:#3D6978;" d="M45.1,23.5l0.6-0.3c-0.1,0.1-0.1,0.2-0.2,0.3l-0.6,0.3C44.9,23.7,45,23.6,45.1,23.5"/>
				</g>
			</g>
		</g>
		<g style="enable-background:new    ;">
			<g>
				<defs>
					<path id="SVGID_23_" d="M45.2,23.7L44.6,24c0.1,0,0.2-0.1,0.3-0.2l0.6-0.3C45.3,23.6,45.3,23.6,45.2,23.7z"/>
				</defs>
				<clipPath id="SVGID_24_">
					<use xlink:href="#SVGID_23_"  style="overflow:visible;"/>
				</clipPath>
				<g style="clip-path:url(#SVGID_24_);enable-background:new    ;">
					<path style="fill:#3D6978;" d="M44.8,23.8l0.6-0.3c-0.1,0.1-0.2,0.1-0.2,0.2L44.6,24C44.6,23.9,44.7,23.8,44.8,23.8"/>
				</g>
			</g>
		</g>
		<g style="enable-background:new    ;">
			<g>
				<defs>
					<path id="SVGID_25_" d="M42.5,18.6l0.6-0.3c0.3,0,0.6,0.1,0.9,0.2l-0.6,0.3C43,18.7,42.7,18.6,42.5,18.6z"/>
				</defs>
				<clipPath id="SVGID_26_">
					<use xlink:href="#SVGID_25_"  style="overflow:visible;"/>
				</clipPath>
				<g style="clip-path:url(#SVGID_26_);enable-background:new    ;">
					<path style="fill:#3D6978;" d="M42.5,18.6l0.6-0.3c0.3,0,0.6,0.1,0.9,0.2l-0.6,0.3C43,18.7,42.7,18.6,42.5,18.6"/>
				</g>
			</g>
		</g>
		<g style="enable-background:new    ;">
			<g>
				<defs>
					<path id="SVGID_27_" d="M43.3,18.8l0.6-0.3c0.3,0.1,0.6,0.3,0.9,0.6l-0.6,0.3C44,19.1,43.7,19,43.3,18.8z"/>
				</defs>
				<clipPath id="SVGID_28_">
					<use xlink:href="#SVGID_27_"  style="overflow:visible;"/>
				</clipPath>
				<g style="clip-path:url(#SVGID_28_);enable-background:new    ;">
					<path style="fill:#3D6978;" d="M43.3,18.8l0.6-0.3c0.3,0.1,0.6,0.3,0.9,0.6l-0.6,0.3C44,19.1,43.7,19,43.3,18.8"/>
				</g>
			</g>
		</g>
		<g style="enable-background:new    ;">
			<g>
				<defs>
					<path id="SVGID_29_" d="M45.3,21.2l0.6-0.3c0.1,0.3,0.1,0.7,0.1,1c0,0.4-0.1,0.7-0.2,0.9l-0.6,0.3c0.1-0.3,0.2-0.6,0.2-0.9
						C45.4,21.9,45.4,21.5,45.3,21.2z"/>
				</defs>
				<clipPath id="SVGID_30_">
					<use xlink:href="#SVGID_29_"  style="overflow:visible;"/>
				</clipPath>
				<g style="clip-path:url(#SVGID_30_);enable-background:new    ;">
					<path style="fill:#3F6D7D;" d="M45.3,21.2l0.6-0.3c0.1,0.3,0.1,0.7,0.1,1c0,0.4-0.1,0.7-0.2,0.9l-0.6,0.3
						c0.1-0.3,0.2-0.6,0.2-0.9C45.4,21.9,45.4,21.5,45.3,21.2"/>
				</g>
			</g>
		</g>
		<g style="enable-background:new    ;">
			<g>
				<defs>
					<path id="SVGID_31_" d="M44.2,19.4l0.6-0.3c0.3,0.2,0.5,0.5,0.6,0.8l-0.6,0.3C44.7,19.9,44.5,19.6,44.2,19.4z"/>
				</defs>
				<clipPath id="SVGID_32_">
					<use xlink:href="#SVGID_31_"  style="overflow:visible;"/>
				</clipPath>
				<g style="clip-path:url(#SVGID_32_);enable-background:new    ;">
					<path style="fill:#3D6978;" d="M44.2,19.4l0.6-0.3c0.1,0.1,0.2,0.2,0.3,0.4l-0.6,0.3C44.5,19.6,44.4,19.5,44.2,19.4"/>
					<path style="fill:#3F6D7D;" d="M44.6,19.8l0.6-0.3c0.1,0.1,0.2,0.3,0.3,0.5l-0.6,0.3C44.8,20.1,44.7,19.9,44.6,19.8"/>
				</g>
			</g>
		</g>
		<g style="enable-background:new    ;">
			<g>
				<defs>
					<path id="SVGID_33_" d="M44.9,20.2l0.6-0.3c0.2,0.3,0.3,0.6,0.4,1l-0.6,0.3C45.2,20.9,45.1,20.5,44.9,20.2z"/>
				</defs>
				<clipPath id="SVGID_34_">
					<use xlink:href="#SVGID_33_"  style="overflow:visible;"/>
				</clipPath>
				<g style="clip-path:url(#SVGID_34_);enable-background:new    ;">
					<path style="fill:#3F6D7D;" d="M44.9,20.2l0.6-0.3c0.2,0.3,0.3,0.6,0.4,1l-0.6,0.3C45.2,20.9,45.1,20.5,44.9,20.2"/>
				</g>
			</g>
		</g>
		<g>
			<path style="fill:#74C7E5;" d="M45.3,21.2c0.1,0.3,0.1,0.7,0.1,1c0,0.4-0.1,0.7-0.2,0.9c-0.1,0.3-0.2,0.5-0.4,0.6
				c-0.2,0.2-0.4,0.2-0.7,0.3c-0.3,0-0.6-0.1-0.9-0.2c-0.3-0.1-0.6-0.3-0.9-0.6c-0.3-0.2-0.5-0.5-0.7-0.8s-0.3-0.6-0.4-1
				c-0.1-0.3-0.1-0.7-0.1-1.1c0-0.3,0.1-0.6,0.2-0.9c0.1-0.3,0.3-0.5,0.4-0.6c0.2-0.2,0.4-0.2,0.7-0.2s0.6,0.1,0.9,0.2
				s0.6,0.3,0.9,0.6c0.3,0.2,0.5,0.5,0.6,0.8C45.1,20.5,45.2,20.9,45.3,21.2z M43.8,22.3c0.1-0.1,0.2-0.4,0.2-0.7
				c0-0.3,0-0.6-0.2-0.8c-0.1-0.2-0.3-0.4-0.5-0.5s-0.4-0.1-0.5,0.1c-0.1,0.1-0.2,0.4-0.2,0.7c0,0.3,0,0.6,0.2,0.9
				c0.1,0.2,0.3,0.4,0.5,0.5C43.5,22.5,43.7,22.5,43.8,22.3"/>
		</g>
	</g>
	<g style="enable-background:new    ;">
		<g>
			<polygon style="fill:#46788A;" points="47.1,23.6 47.8,23.3 47.9,23.7 47.2,24 			"/>
		</g>
		<g>
			<polygon style="fill:#416F80;" points="47.2,24 47.9,23.7 48.1,24 47.5,24.3 			"/>
		</g>
		<g>
			<polygon style="fill:#3B6574;" points="47.5,24.3 48.1,24 48.4,24 47.8,24.2 			"/>
		</g>
		<g style="enable-background:new    ;">
			<g>
				<defs>
					<path id="SVGID_35_" d="M49.3,24.5l0.6-0.3c0,0.6-0.2,1-0.5,1.2l-0.6,0.3C49.1,25.5,49.3,25.1,49.3,24.5z"/>
				</defs>
				<clipPath id="SVGID_36_">
					<use xlink:href="#SVGID_35_"  style="overflow:visible;"/>
				</clipPath>
				<g style="clip-path:url(#SVGID_36_);enable-background:new    ;">
					<path style="fill:#3F6D7D;" d="M49.3,24.5l0.6-0.3c0,0.4-0.1,0.7-0.3,1L49,25.5C49.2,25.2,49.3,24.9,49.3,24.5"/>
					<path style="fill:#3D6978;" d="M49.1,25.5l0.6-0.3c-0.1,0.1-0.1,0.2-0.2,0.3l-0.6,0.3C48.9,25.7,49,25.6,49.1,25.5"/>
				</g>
			</g>
		</g>
		<g style="enable-background:new    ;">
			<g>
				<defs>
					<path id="SVGID_37_" d="M49.3,25.5l-0.6,0.3c0,0,0.1,0,0.1-0.1l0.6-0.3C49.4,25.5,49.4,25.5,49.3,25.5z"/>
				</defs>
				<clipPath id="SVGID_38_">
					<use xlink:href="#SVGID_37_"  style="overflow:visible;"/>
				</clipPath>
				<g style="clip-path:url(#SVGID_38_);enable-background:new    ;">
					<path style="fill:#3D6978;" d="M48.8,25.7l0.6-0.3l-0.1,0.1l-0.6,0.3C48.7,25.8,48.8,25.8,48.8,25.7"/>
				</g>
			</g>
		</g>
		<g>
			<polygon style="fill:#3D6979;" points="45.8,20 46.4,19.7 47.8,20.3 47.2,20.6 			"/>
		</g>
		<g>
			<polygon style="fill:#457789;" points="47.2,20.6 47.8,20.3 47.8,23.3 47.1,23.6 			"/>
		</g>
		<g>
			<polygon style="fill:#437384;" points="50.8,26.3 51.4,26 51.2,26.7 50.6,27 			"/>
		</g>
		<g>
			<path style="fill:#74C7E5;" d="M49.4,21.5v3c0,0.6-0.2,1-0.5,1.2s-0.8,0.2-1.3,0c-0.6-0.3-1-0.6-1.3-1.1s-0.5-1.1-0.4-1.7v-3
				l1.4,0.6v3l0.1,0.4l0.3,0.3H48l0.1-0.3v-3L49.4,21.5z"/>
		</g>
		<g>
			<polygon style="fill:#457789;" points="49.4,21.5 50,21.3 49.9,24.2 49.3,24.5 			"/>
		</g>
		<g>
			<polygon style="fill:#3D6979;" points="48,20.9 48.6,20.6 50,21.3 49.4,21.5 			"/>
		</g>
		<g>
			<polygon style="fill:#3D6979;" points="51,25.2 51.6,24.9 52.1,25.1 51.5,25.4 			"/>
		</g>
		<g>
			<polygon style="fill:#437384;" points="51.3,24.3 51.9,24 51.6,24.9 51,25.2 			"/>
		</g>
		<g>
			<polygon style="fill:#46788A;" points="52,22.7 52.6,22.4 53.9,27.9 53.3,28.2 			"/>
		</g>
		<g>
			<path style="fill:#74C7E5;" d="M52,22.7l1.3,5.5l-1.5-0.6l-0.1-0.8l-0.9-0.4L50.6,27l-1.4-0.6l1.4-4.3L52,22.7z M51,25.2l0.5,0.2
				l-0.2-1.1L51,25.2"/>
		</g>
		<g>
			<polygon style="fill:#3D6979;" points="50.6,22.1 51.2,21.8 52.6,22.4 52,22.7 			"/>
		</g>
	</g>
	<g style="enable-background:new    ;">
		<g>
			<polygon style="fill:#457789;" points="54.9,26.6 55.6,26.3 55.5,28.6 54.9,28.9 			"/>
		</g>
		<g>
			<polygon style="fill:#3D6979;" points="53.6,23.4 54.2,23.1 55.6,23.7 55,24 			"/>
		</g>
		<g>
			<polygon style="fill:#46788A;" points="55,24 55.6,23.7 56.5,26.4 55.8,26.7 			"/>
		</g>
		<g>
			<polygon style="fill:#74C7E5;" points="57.3,25 57.2,29.9 55.8,29.2 54.9,26.6 54.9,28.9 53.5,28.2 53.6,23.4 55,24 55.8,26.7 
				55.9,24.4 			"/>
		</g>
		<g>
			<polygon style="fill:#457789;" points="57.3,25 57.9,24.7 57.8,29.6 57.2,29.9 			"/>
		</g>
		<g>
			<polygon style="fill:#3D6979;" points="55.9,24.4 56.5,24.1 57.9,24.7 57.3,25 			"/>
		</g>
	</g>
	<g style="enable-background:new    ;">
		<g>
			<polygon style="fill:#457789;" points="59,28.8 59.6,28.5 59.6,29 58.9,29.3 			"/>
		</g>
		<g>
			<polygon style="fill:#3D6979;" points="58.9,29.3 59.6,29 60.6,29.4 60,29.7 			"/>
		</g>
		<g>
			<polygon style="fill:#457789;" points="60,29.7 60.6,29.4 60.6,30.8 60,31.1 			"/>
		</g>
		<g>
			<polygon style="fill:#457789;" points="59,27.2 59.6,26.9 59.6,27.3 59,27.5 			"/>
		</g>
		<g>
			<polygon style="fill:#3D6979;" points="59,27.5 59.6,27.3 60.5,27.7 59.9,27.9 			"/>
		</g>
		<g>
			<polygon style="fill:#457789;" points="59.9,27.9 60.5,27.7 60.5,28.9 59.9,29.2 			"/>
		</g>
		<g>
			<polygon style="fill:#3D6979;" points="57.6,25.2 58.2,24.9 60.6,25.9 60,26.2 			"/>
		</g>
		<g>
			<polygon style="fill:#457789;" points="60,26.2 60.6,25.9 60.6,27.3 60,27.6 			"/>
		</g>
		<g>
			<polygon style="fill:#74C7E5;" points="60,26.2 60,27.6 59,27.2 59,27.5 59.9,27.9 59.9,29.2 59,28.8 58.9,29.3 60,29.7 60,31.1 
				57.5,30 57.6,25.2 			"/>
		</g>
	</g>
</g>
</svg>
