<?xml version="1.0" encoding="utf-8"?>
<!-- Generator: Adobe Illustrator 23.0.1, SVG Export Plug-In . SVG Version: 6.00 Build 0)  -->
<svg version="1.1" id="Layer_1" xmlns="http://www.w3.org/2000/svg" xmlns:xlink="http://www.w3.org/1999/xlink" x="0px" y="0px"
	 viewBox="0 0 100 100" style="enable-background:new 0 0 100 100;" xml:space="preserve">
<linearGradient id="right_1_" gradientUnits="userSpaceOnUse" x1="513.8688" y1="82" x2="522.3669" y2="82" gradientTransform="matrix(-1 0 0 -1 599.0688 100)">
	<stop  offset="0" style="stop-color:#48A7C1"/>
	<stop  offset="4.041848e-03" style="stop-color:#3D92A8"/>
	<stop  offset="1.059190e-02" style="stop-color:#2E7586"/>
	<stop  offset="1.599067e-02" style="stop-color:#256371"/>
	<stop  offset="1.953125e-02" style="stop-color:#225C69"/>
	<stop  offset="9.980002e-02" style="stop-color:#386D79"/>
	<stop  offset="0.3362" style="stop-color:#759CA6"/>
	<stop  offset="0.5529" style="stop-color:#A5C2C9"/>
	<stop  offset="0.7426" style="stop-color:#C8DDE3"/>
	<stop  offset="0.8981" style="stop-color:#DDEDF2"/>
	<stop  offset="1" style="stop-color:#E5F3F8"/>
</linearGradient>
<path id="right_7_" style="fill:url(#right_1_);" d="M85.2,15.2c0-0.5-0.3-0.9-0.7-1.1c0.1-0.2,0.1-0.3,0.1-0.5
	c0-0.9-0.7-1.7-1.7-1.7c-0.6,0-1.1,0.3-1.4,0.7c-0.2-0.6-0.8-1-1.5-1s-1.3,0.5-1.5,1.2c-0.1,0-0.1,0-0.2,0c-0.9,0-1.7,0.8-1.7,1.7
	c0,0.8,0.6,1.5,1.3,1.7c-0.3,0.3-0.4,0.7-0.4,1.1c0,0.9,0.7,1.6,1.6,1.6l0,0c0,0.1,0.1,0.3,0.1,0.4c-0.5,0.1-0.9,0.5-0.9,1
	c-0.3,0.2-0.5,0.5-0.5,0.9c0,0.5,0.4,0.9,0.8,1.1l0,0c0,0.3,0.1,0.5,0.3,0.7c0,0.1,0,0.1,0,0.2c0,0.3,0.2,0.5,0.4,0.6c0,0,0,0,0,0.1
	c0,0.3,0.2,0.5,0.5,0.5s0.5-0.2,0.5-0.5c0-0.1,0-0.2-0.1-0.3c0.1-0.1,0.1-0.2,0.1-0.3c0-0.1,0-0.1,0-0.2c0.1-0.1,0.2-0.3,0.3-0.5
	c0.2-0.1,0.5-0.2,0.6-0.4c0.1,0,0.2,0.1,0.4,0.1c0.5,0,0.9-0.4,0.9-0.9v-0.1c0.2-0.1,0.3-0.3,0.5-0.5c0.7-0.2,1.1-0.8,1.1-1.5
	c0-0.3-0.1-0.6-0.2-0.8c0.2-0.2,0.4-0.4,0.4-0.8c0-0.2,0-0.3-0.1-0.5c0.1-0.1,0.1-0.3,0.1-0.5l0,0C84.7,16.3,85.2,15.8,85.2,15.2z"
	/>
</svg>
