<?xml version="1.0" encoding="utf-8"?>
<!-- Generator: Adobe Illustrator 23.0.1, SVG Export Plug-In . SVG Version: 6.00 Build 0)  -->
<svg version="1.1" id="Layer_1" xmlns="http://www.w3.org/2000/svg" xmlns:xlink="http://www.w3.org/1999/xlink" x="0px" y="0px"
	 viewBox="0 0 100 100" style="enable-background:new 0 0 100 100;" xml:space="preserve">
<g id="smoke_7_">
	
		<linearGradient id="left_1_" gradientUnits="userSpaceOnUse" x1="-20.012" y1="6.6028" x2="-20.8125" y2="19.6115" gradientTransform="matrix(1 0 0 1 100.6615 0)">
		<stop  offset="0" style="stop-color:#625FA7"/>
		<stop  offset="1" style="stop-color:#62C4E4"/>
	</linearGradient>
	<path id="left_7_" style="fill:url(#left_1_);" d="M83.4,18.4c0,0.7-0.6,1.3-1.3,1.3c-0.1,0-0.2,0-0.2,0C82,19.8,82,20,82,20.1
		c0,0.5-0.4,0.9-0.9,0.9c-0.1,0-0.2,0-0.3,0l0.3,1c-0.1,0.2-0.3,0.4-0.6,0.4c0,0.2-0.1,0.4-0.3,0.5c0,0.1,0,0.1,0,0.2s0,0.2-0.1,0.3
		c0.1,0.1,0.1,0.2,0.1,0.3c0,0.3-0.2,0.5-0.5,0.5s-0.5-0.2-0.5-0.5c0,0,0,0,0-0.1C79.1,23.5,79,23.2,79,23c0-0.1,0-0.1,0-0.2
		c-0.2-0.2-0.3-0.4-0.3-0.7l0,0c-0.5-0.1-0.8-0.5-0.8-1.1c0-0.4,0.2-0.8,0.5-0.9c0-0.5,0.4-1,0.9-1c-0.1-0.1-0.1-0.2-0.1-0.4l0,0
		c-0.9,0-1.6-0.7-1.6-1.6c0-0.4,0.2-0.8,0.4-1.1c-0.8-0.2-1.3-0.9-1.3-1.7c0-0.9,0.8-1.7,1.7-1.7h0.1c0.2-0.1,0.4-0.2,0.7-0.2
		c0.7,0,1.3,0.6,1.3,1.3v0.1c0.3,0.2,0.6,0.6,0.6,1c0,0.2,0,0.3-0.1,0.5c0.2-0.2,0.5-0.3,0.8-0.3c0.7,0,1.3,0.6,1.3,1.3
		c0,0.3-0.1,0.7-0.4,0.9C83.1,17.5,83.4,17.9,83.4,18.4z M79.9,17.4L79.9,17.4L79.9,17.4L79.9,17.4z"/>
</g>
</svg>
