<?xml version="1.0" encoding="utf-8"?>
<!-- Generator: Adobe Illustrator 23.0.1, SVG Export Plug-In . SVG Version: 6.00 Build 0)  -->
<svg version="1.1" id="Layer_1" xmlns="http://www.w3.org/2000/svg" xmlns:xlink="http://www.w3.org/1999/xlink" x="0px" y="0px"
	 viewBox="0 0 100 100" style="enable-background:new 0 0 100 100;" xml:space="preserve">
<g id="right-leg_9_">
	<path id="Shoes_12_" d="M8.6,50.2c0.2,0.4,0.5,0.8,0.9,1.2c0.6,0.6,1.3,1.6,0.7,2.2s-2.4-0.3-2.6-1s-0.4-1.1-0.5-1.3L7,51.5
		c-0.4-0.4-0.6-0.7-0.6-0.8s0-0.7,0-1.8L8.6,50.2z"/>
	
		<linearGradient id="Foot_1_" gradientUnits="userSpaceOnUse" x1="-267.0321" y1="-341.0959" x2="-268.0035" y2="-341.3909" gradientTransform="matrix(-21.323 0 0 67.37 -5688.3853 23024.4727)">
		<stop  offset="0" style="stop-color:#48A7C1"/>
		<stop  offset="0.9995" style="stop-color:#225C69"/>
	</linearGradient>
	<path id="Foot_10_" style="fill:url(#Foot_1_);" d="M6.9,35.3c-0.4,7.8-0.6,12.3-0.6,13.5c0,1.8,0.8,2.2,1.4,2.2
		c0.4,0,0.8,0,1.2-0.1c0-3.3,0.2-5.7,0.4-7.4c0.4-2.5,1.1-4.6,1.8-7.5c0.4-1.9,0.8-3.1,1.1-3.7l-4,0.7L6.9,35.3z"/>
</g>
</svg>
