<?xml version="1.0" encoding="utf-8"?>
<!-- Generator: Adobe Illustrator 23.0.1, SVG Export Plug-In . SVG Version: 6.00 Build 0)  -->
<svg version="1.1" id="Layer_1" xmlns="http://www.w3.org/2000/svg" xmlns:xlink="http://www.w3.org/1999/xlink" x="0px" y="0px"
	 viewBox="0 0 100 100" style="enable-background:new 0 0 100 100;" xml:space="preserve">
<style type="text/css">
	.st0{opacity:0.2;fill:url(#shade_1_);}
	.st1{fill:url(#SVGID_1_);}
	.st2{fill:url(#SVGID_2_);}
	.st3{fill:url(#SVGID_3_);}
	.st4{fill:url(#SVGID_4_);}
	.st5{fill:url(#SVGID_5_);}
	.st6{fill:url(#SVGID_6_);}
	.st7{fill:url(#SVGID_7_);}
	.st8{fill:url(#SVGID_8_);}
	.st9{fill:url(#SVGID_9_);}
	.st10{fill:url(#SVGID_10_);}
	.st11{fill:url(#SVGID_11_);}
	.st12{fill:url(#SVGID_12_);}
	.st13{fill:url(#SVGID_13_);}
	.st14{fill:url(#SVGID_14_);}
	.st15{fill:url(#SVGID_15_);}
	.st16{fill:url(#SVGID_16_);}
	.st17{fill:url(#SVGID_17_);}
	.st18{fill:url(#SVGID_18_);}
	.st19{fill:url(#SVGID_19_);}
	.st20{fill:url(#SVGID_20_);}
	.st21{fill:url(#SVGID_21_);}
	.st22{fill:url(#SVGID_22_);}
	.st23{fill:url(#SVGID_23_);}
	.st24{fill:url(#SVGID_24_);}
	.st25{fill:url(#SVGID_25_);}
	.st26{fill:url(#SVGID_26_);}
	.st27{fill:url(#SVGID_27_);}
	.st28{fill:url(#SVGID_28_);}
	.st29{fill:url(#SVGID_29_);}
	.st30{fill:url(#SVGID_30_);}
	.st31{fill:url(#SVGID_31_);}
	.st32{fill:url(#SVGID_32_);}
</style>
<g id="heavy-weight-truck_1_">
	<g id="truck_3_">
		
			<linearGradient id="shade_1_" gradientUnits="userSpaceOnUse" x1="815.4269" y1="60.9326" x2="799.9883" y2="87.6732" gradientTransform="matrix(-1 0 0 1 881.254 0)">
			<stop  offset="5.227065e-03" style="stop-color:#48A7C1"/>
			<stop  offset="1" style="stop-color:#225C69"/>
		</linearGradient>
		<path id="shade_26_" class="st0" d="M64.5,61.7c0.9-0.5,2.4-0.5,3.4,0l27.4,15.9c0.9,0.5,0.9,1.4,0,1.9l-12.7,7.4
			c-0.9,0.5-2.4,0.5-3.4,0L51.8,71c-0.9-0.5-0.9-1.4,0-1.9L64.5,61.7z"/>
		<g id="back_3_">
			<g id="tyre_5_">
				<linearGradient id="SVGID_1_" gradientUnits="userSpaceOnUse" x1="53.8914" y1="68.3844" x2="59.2129" y2="68.3844">
					<stop  offset="5.376340e-03" style="stop-color:#223A8E"/>
					<stop  offset="0.3064" style="stop-color:#456FA9"/>
					<stop  offset="0.6232" style="stop-color:#65A0C2"/>
					<stop  offset="0.8646" style="stop-color:#79BFD1"/>
					<stop  offset="1" style="stop-color:#80CAD7"/>
				</linearGradient>
				<path class="st1" d="M57.8,70.2c0-1.5-1-3.3-2.3-4c-0.6-0.4-1.2-0.4-1.6-0.2l0,0l1.4-0.8l0,0c0.4-0.2,1-0.2,1.6,0.2
					c1.3,0.7,2.3,2.5,2.3,4c0,0.8-0.3,1.3-0.8,1.5l0,0l-1.2,0.7l0,0C57.6,71.4,57.8,70.9,57.8,70.2z"/>
				<linearGradient id="SVGID_2_" gradientUnits="userSpaceOnUse" x1="53.1745" y1="68.902" x2="57.8275" y2="68.902">
					<stop  offset="6.778585e-03" style="stop-color:#92D4F6"/>
					<stop  offset="0.2627" style="stop-color:#A5DBF4"/>
					<stop  offset="0.7343" style="stop-color:#C4E5F1"/>
					<stop  offset="1" style="stop-color:#CFE9F0"/>
				</linearGradient>
				<path class="st2" d="M53.9,66c0.4-0.2,1-0.2,1.6,0.2c1.3,0.7,2.3,2.5,2.3,4c0,0.7-0.2,1.2-0.6,1.4c-0.4,0.3-1.1,0.3-1.8-0.1
					c-1.3-0.7-2.3-2.5-2.3-4C53.2,66.8,53.5,66.3,53.9,66z"/>
				<linearGradient id="SVGID_3_" gradientUnits="userSpaceOnUse" x1="54.1915" y1="68.902" x2="56.8104" y2="68.902">
					<stop  offset="0" style="stop-color:#FFFFFF"/>
					<stop  offset="0.3662" style="stop-color:#FCFDFE"/>
					<stop  offset="0.6134" style="stop-color:#F3F8FD"/>
					<stop  offset="0.8248" style="stop-color:#E4EFFA"/>
					<stop  offset="1" style="stop-color:#D1E4F6"/>
				</linearGradient>
				<path class="st3" d="M54.6,67.3c0.2-0.1,0.6-0.1,0.9,0.1c0.7,0.4,1.3,1.4,1.3,2.3c0,0.4-0.1,0.6-0.3,0.8c-0.2,0.2-0.6,0.2-1,0
					c-0.7-0.4-1.3-1.4-1.3-2.3C54.2,67.7,54.3,67.4,54.6,67.3z"/>
				<linearGradient id="SVGID_4_" gradientUnits="userSpaceOnUse" x1="54.3538" y1="68.902" x2="56.7316" y2="68.902">
					<stop  offset="0" style="stop-color:#4489C8"/>
					<stop  offset="0.2286" style="stop-color:#76AAD7"/>
					<stop  offset="0.4788" style="stop-color:#A6C9E5"/>
					<stop  offset="0.6999" style="stop-color:#C8E0EF"/>
					<stop  offset="0.8812" style="stop-color:#DDEEF6"/>
					<stop  offset="1" style="stop-color:#E5F3F8"/>
				</linearGradient>
				<path class="st4" d="M54.4,68.9c0-0.1,0-0.1-0.1-0.2c0.2,0.1,0.3-0.1,0.3-0.3c0-0.2-0.1-0.5-0.3-0.7c0,0,0-0.1,0.1-0.1
					c0.1,0.1,0.1,0.2,0.2,0.2c0.1,0.1,0.2,0.1,0.3,0c0.1-0.1,0.2-0.3,0.1-0.6c0,0,0.1,0,0.1,0c0,0.2,0.2,0.5,0.4,0.6
					c0.2,0.1,0.4,0.1,0.4-0.1c0,0,0.1,0.1,0.1,0.1C56,68,56,68.3,56.2,68.6c0.1,0.1,0.2,0.3,0.3,0.3c0.1,0,0.2,0.1,0.2,0.1
					c0,0.1,0,0.1,0.1,0.2c-0.2-0.1-0.3,0.1-0.3,0.3c0,0.2,0.1,0.5,0.3,0.7c0,0,0,0.1-0.1,0.1c-0.1-0.1-0.1-0.2-0.2-0.2
					c-0.1-0.1-0.2-0.1-0.3,0C56,70,56,70.3,56.1,70.5c0,0-0.1,0-0.1,0c0-0.2-0.2-0.5-0.4-0.6c-0.2-0.1-0.4-0.1-0.4,0.1
					c0,0-0.1-0.1-0.1-0.1c0.1-0.1,0.1-0.4-0.1-0.6c-0.1-0.1-0.2-0.3-0.3-0.3C54.6,68.9,54.5,68.9,54.4,68.9"/>
			</g>
			<g id="cargo_6_">
				<linearGradient id="SVGID_5_" gradientUnits="userSpaceOnUse" x1="69.3912" y1="72.5404" x2="63.2722" y2="72.5404">
					<stop  offset="4.836310e-03" style="stop-color:#9ED7F6"/>
					<stop  offset="1" style="stop-color:#48A7C1"/>
				</linearGradient>
				<polygon class="st5" points="69.4,73.1 69.4,75.5 63.3,72 63.3,69.6 				"/>
				<linearGradient id="SVGID_6_" gradientUnits="userSpaceOnUse" x1="69.3912" y1="73.7176" x2="71.4296" y2="73.7176">
					<stop  offset="6.778585e-03" style="stop-color:#92D4F6"/>
					<stop  offset="0.2627" style="stop-color:#A5DBF4"/>
					<stop  offset="0.7343" style="stop-color:#C4E5F1"/>
					<stop  offset="1" style="stop-color:#CFE9F0"/>
				</linearGradient>
				<polygon class="st6" points="69.4,75.5 71.4,74.3 71.4,72 69.4,73.1 				"/>
				<g>
					<linearGradient id="SVGID_7_" gradientUnits="userSpaceOnUse" x1="51.0364" y1="60.7669" x2="69.3912" y2="60.7669">
						<stop  offset="4.836310e-03" style="stop-color:#9ED7F6"/>
						<stop  offset="1" style="stop-color:#48A7C1"/>
					</linearGradient>
					<polygon class="st7" points="69.4,73.1 69.4,59 51,48.4 51,62.5 					"/>
					<linearGradient id="SVGID_8_" gradientUnits="userSpaceOnUse" x1="51.0391" y1="50.1707" x2="81.6261" y2="50.1707">
						<stop  offset="5.376340e-03" style="stop-color:#225C69"/>
						<stop  offset="0.4452" style="stop-color:#368397"/>
						<stop  offset="0.8006" style="stop-color:#439DB6"/>
						<stop  offset="1" style="stop-color:#48A7C1"/>
					</linearGradient>
					<polygon class="st8" points="69.4,59 81.6,51.9 63.3,41.3 51,48.4 					"/>
					<linearGradient id="SVGID_9_" gradientUnits="userSpaceOnUse" x1="69.3903" y1="62.5326" x2="81.6266" y2="62.5326">
						<stop  offset="5.376340e-03" style="stop-color:#225C69"/>
						<stop  offset="0.4452" style="stop-color:#368397"/>
						<stop  offset="0.8006" style="stop-color:#439DB6"/>
						<stop  offset="1" style="stop-color:#48A7C1"/>
					</linearGradient>
					<polygon class="st9" points="81.6,51.9 81.6,66.1 69.4,73.1 69.4,59 					"/>
				</g>
				<linearGradient id="SVGID_10_" gradientUnits="userSpaceOnUse" x1="61.2325" y1="66.6535" x2="51.0364" y2="66.6535">
					<stop  offset="4.836310e-03" style="stop-color:#9ED7F6"/>
					<stop  offset="1" style="stop-color:#48A7C1"/>
				</linearGradient>
				<path class="st10" d="M61.2,68.4v2.4L58.1,69c-0.4-1.3-1.3-2.5-2.4-3.1c-0.7-0.4-1.4-0.5-1.9-0.2c-0.2,0.1-0.4,0.3-0.5,0.5
					L51,64.9v-2.4L61.2,68.4z"/>
				<linearGradient id="SVGID_11_" gradientUnits="userSpaceOnUse" x1="61.2325" y1="69.5966" x2="63.2743" y2="69.5966">
					<stop  offset="0" style="stop-color:#6485C3"/>
					<stop  offset="1" style="stop-color:#39509D"/>
				</linearGradient>
				<polygon class="st11" points="61.2,69.6 63.3,70.8 63.3,69.6 61.2,68.4 				"/>
				<linearGradient id="SVGID_12_" gradientUnits="userSpaceOnUse" x1="61.2325" y1="69.5966" x2="62.2534" y2="69.5966">
					<stop  offset="0" style="stop-color:#6485C3"/>
					<stop  offset="1" style="stop-color:#39509D"/>
				</linearGradient>
				<polygon class="st12" points="61.2,70.8 62.3,70.2 62.3,69 61.2,68.4 				"/>
			</g>
		</g>
		<g id="front_3_">
			<g id="tyre_4_">
				<linearGradient id="SVGID_13_" gradientUnits="userSpaceOnUse" x1="74.9681" y1="79.9646" x2="80.2895" y2="79.9646">
					<stop  offset="5.376340e-03" style="stop-color:#223A8E"/>
					<stop  offset="0.3064" style="stop-color:#456FA9"/>
					<stop  offset="0.6232" style="stop-color:#65A0C2"/>
					<stop  offset="0.8646" style="stop-color:#79BFD1"/>
					<stop  offset="1" style="stop-color:#80CAD7"/>
				</linearGradient>
				<path class="st13" d="M78.9,81.8c0-1.5-1-3.3-2.3-4c-0.6-0.4-1.2-0.4-1.6-0.2l0,0l1.4-0.8l0,0c0.4-0.2,1-0.2,1.6,0.2
					c1.3,0.7,2.3,2.5,2.3,4c0,0.8-0.3,1.3-0.8,1.5l0,0l-1.2,0.7l0,0C78.7,83,78.9,82.5,78.9,81.8z"/>
				<linearGradient id="SVGID_14_" gradientUnits="userSpaceOnUse" x1="74.2511" y1="80.4821" x2="78.9041" y2="80.4821">
					<stop  offset="6.778585e-03" style="stop-color:#92D4F6"/>
					<stop  offset="0.2627" style="stop-color:#A5DBF4"/>
					<stop  offset="0.7343" style="stop-color:#C4E5F1"/>
					<stop  offset="1" style="stop-color:#CFE9F0"/>
				</linearGradient>
				<path class="st14" d="M75,77.6c0.4-0.2,1-0.2,1.6,0.2c1.3,0.7,2.3,2.5,2.3,4c0,0.7-0.2,1.2-0.6,1.4c-0.4,0.3-1.1,0.3-1.8-0.1
					c-1.3-0.7-2.3-2.5-2.3-4C74.3,78.4,74.5,77.9,75,77.6z"/>
				<linearGradient id="SVGID_15_" gradientUnits="userSpaceOnUse" x1="75.2681" y1="80.4821" x2="77.8871" y2="80.4821">
					<stop  offset="0" style="stop-color:#FFFFFF"/>
					<stop  offset="0.3662" style="stop-color:#FCFDFE"/>
					<stop  offset="0.6134" style="stop-color:#F3F8FD"/>
					<stop  offset="0.8248" style="stop-color:#E4EFFA"/>
					<stop  offset="1" style="stop-color:#D1E4F6"/>
				</linearGradient>
				<path class="st15" d="M75.7,78.9c0.2-0.1,0.6-0.1,0.9,0.1c0.7,0.4,1.3,1.4,1.3,2.3c0,0.4-0.1,0.6-0.3,0.8c-0.2,0.2-0.6,0.2-1,0
					c-0.7-0.4-1.3-1.4-1.3-2.3C75.3,79.3,75.4,79,75.7,78.9z"/>
				<linearGradient id="SVGID_16_" gradientUnits="userSpaceOnUse" x1="75.4304" y1="80.4821" x2="77.8082" y2="80.4821">
					<stop  offset="0" style="stop-color:#4489C8"/>
					<stop  offset="0.2286" style="stop-color:#76AAD7"/>
					<stop  offset="0.4788" style="stop-color:#A6C9E5"/>
					<stop  offset="0.6999" style="stop-color:#C8E0EF"/>
					<stop  offset="0.8812" style="stop-color:#DDEEF6"/>
					<stop  offset="1" style="stop-color:#E5F3F8"/>
				</linearGradient>
				<path class="st16" d="M75.5,80.5c0-0.1,0-0.1-0.1-0.2c0.2,0.1,0.3-0.1,0.3-0.3c0-0.2-0.1-0.5-0.3-0.7c0,0,0-0.1,0.1-0.1
					c0.1,0.1,0.1,0.2,0.2,0.2c0.1,0.1,0.2,0.1,0.3,0c0.1-0.1,0.2-0.3,0.1-0.6c0,0,0.1,0,0.1,0c0,0.2,0.2,0.5,0.4,0.6
					c0.2,0.1,0.4,0.1,0.4-0.1c0,0,0.1,0.1,0.1,0.1c-0.1,0.1-0.1,0.4,0.1,0.6c0.1,0.1,0.2,0.3,0.3,0.3c0.1,0,0.2,0.1,0.2,0.1
					c0,0.1,0,0.1,0.1,0.2c-0.2-0.1-0.3,0.1-0.3,0.3c0,0.2,0.1,0.5,0.3,0.7c0,0,0,0.1-0.1,0.1c-0.1-0.1-0.1-0.2-0.2-0.2
					c-0.1-0.1-0.2-0.1-0.3,0c-0.1,0.1-0.2,0.3-0.1,0.6c0,0-0.1,0-0.1,0c0-0.2-0.2-0.5-0.4-0.6c-0.2-0.1-0.4-0.1-0.4,0.1
					c0,0-0.1-0.1-0.1-0.1c0.1-0.1,0.1-0.4-0.1-0.6c-0.1-0.1-0.2-0.3-0.3-0.3C75.6,80.5,75.6,80.4,75.5,80.5"/>
			</g>
			<g id="cargo_5_">
				<linearGradient id="SVGID_17_" gradientUnits="userSpaceOnUse" x1="71.4296" y1="62.1468" x2="93.1573" y2="62.1468">
					<stop  offset="5.376340e-03" style="stop-color:#225C69"/>
					<stop  offset="0.4452" style="stop-color:#368397"/>
					<stop  offset="0.8006" style="stop-color:#439DB6"/>
					<stop  offset="1" style="stop-color:#48A7C1"/>
				</linearGradient>
				<path class="st17" d="M80.9,68.8c-0.8-1-1.9-1.8-3-2.5l-6.5-3.8l0,0l12.2-7.1l6.5,3.8c1.1,0.7,2.2,1.5,3,2.5l-9.5,5.5L80.9,68.8
					z"/>
				<g>
					<linearGradient id="SVGID_18_" gradientUnits="userSpaceOnUse" x1="71.4296" y1="73.1282" x2="83.6645" y2="73.1282">
						<stop  offset="4.836310e-03" style="stop-color:#9ED7F6"/>
						<stop  offset="1" style="stop-color:#48A7C1"/>
					</linearGradient>
					<path class="st18" d="M71.4,62.5l0,12.8v1.3l2.9,1.7v0c0-0.5,0.1-0.8,0.3-1.1c0.1-0.2,0.3-0.4,0.5-0.5c0.5-0.3,1.2-0.2,1.9,0.2
						c1.1,0.6,2,1.9,2.5,3.2c0,0,0,0.1,0,0.1c0.2,0.5,0.3,0.9,0.3,1.4l3.7,2.1v-7.4c0-0.7-0.1-1.3-0.2-2c-0.1-0.6-0.3-1.3-0.5-1.9
						c-0.2-0.7-0.5-1.3-0.9-1.9c-0.3-0.6-0.7-1.2-1.2-1.7c-0.8-1-1.9-1.8-3-2.5L71.4,62.5L71.4,62.5z"/>
					<linearGradient id="SVGID_19_" gradientUnits="userSpaceOnUse" x1="79.6485" y1="81.9251" x2="83.6645" y2="81.9251">
						<stop  offset="4.836310e-03" style="stop-color:#9ED7F6"/>
						<stop  offset="1" style="stop-color:#48A7C1"/>
					</linearGradient>
					<path class="st19" d="M79.6,80.1c0,0,0,0.1,0,0.1c0.2,0.5,0.3,0.9,0.3,1.4l3.7,2.1v-1.3L79.6,80.1z"/>
					<linearGradient id="SVGID_20_" gradientUnits="userSpaceOnUse" x1="71.4322" y1="76.8603" x2="74.709" y2="76.8603">
						<stop  offset="4.836310e-03" style="stop-color:#9ED7F6"/>
						<stop  offset="1" style="stop-color:#48A7C1"/>
					</linearGradient>
					<path class="st20" d="M71.4,75.4v1.3l2.9,1.7c0-0.5,0.1-0.8,0.3-1.1L71.4,75.4z"/>
					<linearGradient id="SVGID_21_" gradientUnits="userSpaceOnUse" x1="73.4689" y1="70.4122" x2="82.8971" y2="70.4122">
						<stop  offset="0" style="stop-color:#4674B8"/>
						<stop  offset="1" style="stop-color:#2A2760"/>
					</linearGradient>
					<path class="st21" d="M73.5,70.8l9.4,5.4c0-0.6-0.1-1.1-0.2-1.8c-0.1-0.6-0.3-1.2-0.5-1.8c-0.2-0.6-0.5-1.2-0.8-1.8
						c-0.3-0.6-0.7-1.1-1.1-1.6c-0.8-0.9-1.7-1.7-2.8-2.3l-4.1-2.4L73.5,70.8z M79.5,69.2c0.2,0.2,0.3,0.3,0.5,0.5
						c0.4,0.5,0.7,1,1.1,1.5c0.3,0.5,0.6,1.1,0.8,1.7c0.2,0.6,0.3,1.1,0.4,1.7c0,0.3,0.1,0.5,0.1,0.8l-2.8-1.6V69.2z M74,70.5l0-5
						l3.3,1.9c0.6,0.4,1.2,0.8,1.7,1.2v4.7L74,70.5z"/>
					<linearGradient id="SVGID_22_" gradientUnits="userSpaceOnUse" x1="79.495" y1="72.2303" x2="82.3409" y2="72.2303">
						<stop  offset="6.297816e-03" style="stop-color:#7FBF7C"/>
						<stop  offset="1" style="stop-color:#E9F4F3"/>
					</linearGradient>
					<path class="st22" d="M81,71.1c0.3,0.5,0.6,1.1,0.8,1.7c0.2,0.6,0.3,1.1,0.4,1.7c0,0.3,0.1,0.5,0.1,0.8l-2.8-1.6v-4.5
						c0.2,0.2,0.3,0.3,0.5,0.5C80.3,70.1,80.7,70.6,81,71.1z"/>
					<linearGradient id="SVGID_23_" gradientUnits="userSpaceOnUse" x1="73.9805" y1="69.4318" x2="78.9834" y2="69.4318">
						<stop  offset="6.297816e-03" style="stop-color:#7FBF7C"/>
						<stop  offset="1" style="stop-color:#E9F4F3"/>
					</linearGradient>
					<path class="st23" d="M77.3,67.4c0.6,0.4,1.2,0.8,1.7,1.2v4.7l-5-2.9l0-5L77.3,67.4z"/>
					<g>
						<path d="M82.6,75.8c0.1,0,0.1-0.1,0.1-0.1c0-0.1-0.1-0.1-0.1-0.1l-1.6,0v-3.4l0.7,0c0.1,0,0.1-0.1,0.1-0.1
							c0-0.1-0.1-0.1-0.1-0.1h0l-0.8,0c-0.1,0-0.1,0.1-0.1,0.1v3.7c0,0.1,0.1,0.1,0.1,0.1L82.6,75.8L82.6,75.8z"/>
					</g>
					<linearGradient id="SVGID_24_" gradientUnits="userSpaceOnUse" x1="80.2895" y1="73.87" x2="81.3127" y2="73.87">
						<stop  offset="5.618000e-03" style="stop-color:#000000"/>
						<stop  offset="1" style="stop-color:#4E4D4D"/>
					</linearGradient>
					<path class="st24" d="M80.5,75.2h0.5c0.1,0,0.3-0.1,0.3-0.3v-2.1c0-0.1-0.1-0.3-0.3-0.3h-0.5c-0.1,0-0.3,0.1-0.3,0.3v2.1
						C80.3,75.1,80.4,75.2,80.5,75.2z"/>
				</g>
				<g>
					<linearGradient id="SVGID_25_" gradientUnits="userSpaceOnUse" x1="83.6645" y1="76.6608" x2="95.902" y2="76.6608">
						<stop  offset="4.836310e-03" style="stop-color:#9ED7F6"/>
						<stop  offset="1" style="stop-color:#48A7C1"/>
					</linearGradient>
					<polygon class="st25" points="83.7,82.4 83.7,83.7 95.9,76.7 95.9,75.4 95.9,69.6 83.7,76.7 					"/>
					<linearGradient id="SVGID_26_" gradientUnits="userSpaceOnUse" x1="80.9228" y1="69.2106" x2="95.902" y2="69.2106">
						<stop  offset="0" style="stop-color:#6485C3"/>
						<stop  offset="1" style="stop-color:#39509D"/>
					</linearGradient>
					<path class="st26" d="M83,72.4L83,72.4c-0.5-1.3-1.2-2.5-2.1-3.6l2.7-1.6l9.5-5.5c0.9,1.1,1.6,2.3,2.1,3.6
						c0.2,0.6,0.4,1.3,0.5,1.9c0.1,0.6,0.2,1.3,0.2,2v0.4l-6.1,3.5l-6.1,3.5l0,0l0-0.4C83.7,75,83.4,73.7,83,72.4z"/>
					<linearGradient id="SVGID_27_" gradientUnits="userSpaceOnUse" x1="83.6645" y1="79.5437" x2="95.902" y2="79.5437">
						<stop  offset="4.836310e-03" style="stop-color:#9ED7F6"/>
						<stop  offset="1" style="stop-color:#48A7C1"/>
					</linearGradient>
					<polygon class="st27" points="83.7,82.4 83.7,83.7 95.9,76.7 95.9,75.4 					"/>
					<linearGradient id="SVGID_28_" gradientUnits="userSpaceOnUse" x1="81.3127" y1="69.1546" x2="95.6462" y2="69.1546">
						<stop  offset="6.297816e-03" style="stop-color:#7FBF7C"/>
						<stop  offset="1" style="stop-color:#E9F4F3"/>
					</linearGradient>
					<path class="st28" d="M95.6,69.4v-0.2c0-0.6-0.1-1.3-0.2-1.9c-0.1-0.6-0.3-1.3-0.5-1.9c-0.4-1.2-1.1-2.4-1.9-3.4l-9.3,5.4
						l-2.5,1.4c0.8,1,1.5,2.2,1.9,3.5c0.4,1.2,0.7,2.5,0.7,3.9L95.6,69.4z"/>
					<linearGradient id="SVGID_29_" gradientUnits="userSpaceOnUse" x1="83.6645" y1="76.5377" x2="95.902" y2="76.5377">
						<stop  offset="0" style="stop-color:#6485C3"/>
						<stop  offset="1" style="stop-color:#39509D"/>
					</linearGradient>
					<polygon class="st29" points="95.9,74.2 95.9,71.8 83.7,78.8 83.7,81.3 					"/>
					<linearGradient id="SVGID_30_" gradientUnits="userSpaceOnUse" x1="87.7553" y1="76.0296" x2="92.1622" y2="76.0296">
						<stop  offset="5.618000e-03" style="stop-color:#000000"/>
						<stop  offset="1" style="stop-color:#4E4D4D"/>
					</linearGradient>
					<polygon class="st30" points="92.2,74.4 91.8,76.2 89.2,77.7 87.8,76.9 					"/>
					<linearGradient id="SVGID_31_" gradientUnits="userSpaceOnUse" x1="84.1864" y1="78.8425" x2="88.535" y2="78.8425">
						<stop  offset="6.297816e-03" style="stop-color:#7FBF7C"/>
						<stop  offset="1" style="stop-color:#E9F4F3"/>
					</linearGradient>
					<polygon class="st31" points="84.2,79.1 84.2,80.4 84.7,80.1 88.5,77.9 87.4,77.3 84.7,78.8 					"/>
					<linearGradient id="SVGID_32_" gradientUnits="userSpaceOnUse" x1="92.3413" y1="74.1819" x2="95.3827" y2="74.1819">
						<stop  offset="6.297816e-03" style="stop-color:#7FBF7C"/>
						<stop  offset="1" style="stop-color:#E9F4F3"/>
					</linearGradient>
					<polygon class="st32" points="92.3,75.7 94.9,74.3 95.4,74 95.4,72.6 94.9,72.9 92.6,74.2 					"/>
				</g>
			</g>
		</g>
	</g>
</g>
</svg>
