<?xml version="1.0" encoding="utf-8"?>
<!-- Generator: Adobe Illustrator 23.0.1, SVG Export Plug-In . SVG Version: 6.00 Build 0)  -->
<svg version="1.1" id="Layer_1" xmlns="http://www.w3.org/2000/svg" xmlns:xlink="http://www.w3.org/1999/xlink" x="0px" y="0px"
	 viewBox="0 0 100 100" style="enable-background:new 0 0 100 100;" xml:space="preserve">
<g id="sign_6_">
	<g id="base_22_">
		<path style="fill:#63A9DA;" d="M46.1,51.9c3.7,0.5,7.3-1.1,9.3-4.3c-0.1,0-0.3,0-0.4,0c-0.5,0.7-1.2,1.5-1.9,2H53
			c-0.3-0.2-0.6-0.4-0.9-0.5c0.4-0.5,0.8-0.9,1.1-1.5h-0.4c-0.3,0.4-0.6,0.9-1,1.3c-0.5-0.2-1-0.4-1.6-0.6h-0.1
			c0.1-0.2,0.2-0.5,0.3-0.7h-0.3l-0.3,0.7c-0.7-0.2-1.5-0.2-2.2-0.3c0-0.1,0-0.3,0-0.4h-0.3c0,0.1,0,0.3,0,0.4
			c-0.8,0-1.5,0.1-2.2,0.3l-0.3-0.6c-0.1,0-0.3,0-0.3,0l0.3,0.7l0,0c-0.5,0.2-1.1,0.4-1.6,0.6l0,0c-0.3-0.4-0.7-0.8-0.9-1.2
			c-0.1-0.2-0.3-0.1-0.4-0.1c0.3,0.5,0.7,1,1.1,1.5c-0.3,0.2-0.7,0.4-1,0.6c-0.7-0.6-1.4-1.3-1.9-2c-0.1,0-0.2,0-0.4,0
			c0.9,1.4,2.2,2.6,3.6,3.3l0,0l0,0C44,51.5,45,51.8,46.1,51.9z M51.9,49.4c0.3,0.1,0.6,0.3,0.9,0.5c-0.7,0.5-1.5,0.9-2.3,1.2
			L50,51.3c-0.1,0-0.2-0.1-0.3-0.2l0,0C50.5,50.6,51.2,50.1,51.9,49.4z M50,48.8L50,48.8c0.6,0.1,1.1,0.3,1.5,0.5
			c-0.4,0.4-0.9,0.8-1.3,1.2c-0.3,0.2-0.6,0.4-0.8,0.5l-0.5-0.2v-0.1C49.3,50,49.7,49.4,50,48.8z M47.6,48.4c0.7,0,1.4,0.1,2,0.2
			l0,0c-0.3,0.7-0.8,1.3-1.2,1.9c-0.2,0-0.4-0.1-0.6-0.1h-0.2C47.6,49.7,47.6,49.1,47.6,48.4z M49.5,51.4
			C49.5,51.5,49.4,51.5,49.5,51.4c-1.4,0.4-2.8,0.4-4.1,0c0-0.1,0.1-0.1,0.1-0.1C46.6,50.6,48.4,50.6,49.5,51.4z M45.3,48.6
			c0.6-0.1,1.3-0.2,2-0.2v2c-0.3,0.1-0.5,0.1-0.8,0.1C46,50,45.6,49.3,45.3,48.6L45.3,48.6z M43.3,49.3c0.5-0.2,1-0.4,1.5-0.5l0,0
			c0.4,0.7,0.8,1.3,1.2,1.9c-0.2,0.1-0.4,0.2-0.5,0.3C44.7,50.5,44,50,43.3,49.3L43.3,49.3z M42.1,50L42.1,50
			c0.3-0.2,0.6-0.4,0.9-0.5c0.7,0.7,1.4,1.2,2.2,1.7c-0.1,0.1-0.2,0.1-0.2,0.2C43.9,51.1,42.9,50.6,42.1,50z"/>
		<path style="fill:#63A9DA;" d="M48.2,33.1L48.2,33.1L48.2,33.1c-0.4,0-0.8,0-1.1,0c-0.1,0-0.3,0-0.4,0c-2.9,0.2-5.6,1.7-7.3,4.3
			c0.1,0,0.3,0,0.4,0c0.3-0.4,0.6-0.8,1-1.2c0.3-0.3,0.6-0.6,0.9-0.8c0.3,0.2,0.7,0.4,1,0.6c-0.4,0.5-0.8,0.9-1,1.5
			c0.1,0,0.2,0,0.4,0c0.3-0.4,0.6-0.9,1-1.3c0.5,0.2,1,0.4,1.6,0.5l0,0l-0.3,0.7c0.1,0,0.2,0,0.4,0c0.1-0.2,0.2-0.4,0.3-0.6
			c0.7,0.2,1.4,0.2,2.2,0.3c0.1,0.1,0,0.3,0.1,0.4h0.3c0-0.1,0-0.3,0-0.4c0.7,0,1.4-0.1,2.1-0.3h0.1l0.3,0.6c0.1,0,0.3,0,0.3,0
			l-0.3-0.7l0,0c0.6-0.1,1.1-0.4,1.6-0.6c0.4,0.4,0.7,0.9,1,1.3c0.1,0,0.3,0,0.4,0c-0.1-0.3-0.3-0.5-0.5-0.8
			c-0.2-0.2-0.3-0.4-0.5-0.7v-0.1l0.8-0.5h0.1c0.7,0.6,1.4,1.3,1.9,2c0.1,0,0.3,0,0.4,0C53.8,34.9,51.1,33.3,48.2,33.1z M42.9,35.7
			c-0.3-0.1-0.6-0.3-0.9-0.5l0,0c0.8-0.6,1.6-1,2.5-1.3l0.1-0.1l0,0c0.1,0,0.2-0.1,0.3,0s0.2,0.1,0.2,0.2
			C44.3,34.5,43.6,35,42.9,35.7z M44.8,36.4L44.8,36.4c-0.5-0.1-1-0.3-1.5-0.5v-0.1c0.7-0.6,1.4-1.2,2.1-1.6
			c0.2,0.1,0.4,0.1,0.5,0.2v0.1C45.5,35.1,45.1,35.7,44.8,36.4z M47.2,36.7c-0.3,0-0.6,0-1,0c-0.3,0-0.7-0.1-1.1-0.2
			c0.4-0.7,0.8-1.3,1.3-1.9l0.8,0.1C47.2,35.3,47.2,36,47.2,36.7z M45.5,33.8c-0.1,0-0.2-0.1-0.2-0.2c1.3-0.3,2.8-0.3,4.1,0l0,0
			C48.3,34.5,46.6,34.5,45.5,33.8z M47.6,36.7c0-0.6,0-1.4,0-2c0.2,0,0.5-0.1,0.8-0.1c0.5,0.6,0.9,1.2,1.2,1.9
			C48.9,36.6,48.2,36.7,47.6,36.7z M51.4,35.8c-0.5,0.2-1,0.4-1.5,0.5c-0.4-0.6-0.8-1.3-1.2-1.9c0.2-0.1,0.4-0.2,0.6-0.3
			C50,34.6,50.8,35.2,51.4,35.8L51.4,35.8z M52.7,35.2l-0.8,0.5h-0.1c-0.6-0.7-1.4-1.2-2.2-1.7c0-0.1,0.1-0.1,0.2-0.2
			C50.9,34,51.9,34.5,52.7,35.2L52.7,35.2z"/>
	</g>
	<g id="iso_3_">
		<path style="fill:#63A9DA;" d="M56.9,46.5L56.9,46.5c0.6-0.3,1.1-0.6,1.5-1.1c0.9-1.3,1-3.3,0.4-4.8c-0.2-0.6-0.7-1.1-1.2-1.5
			c-1.6-1-4-1.1-5.6-0.2c-0.9,0.5-1.5,1.4-1.6,2.3c-0.3,1.5-0.2,3.4,0.9,4.5c1.4,1.2,3.3,1.5,5.1,1C56.5,46.7,56.7,46.6,56.9,46.5z
			 M56,44c-0.1,0.3-0.3,0.6-0.6,0.7c-0.5,0.2-1.1,0.2-1.6-0.1c-0.4-0.3-0.4-0.7-0.5-1.1c0-0.8-0.1-1.7,0.1-2.5
			c0.2-0.5,0.7-0.6,1.1-0.6c0.5,0,0.9,0.1,1.2,0.5c0.2,0.3,0.2,0.6,0.2,1C56,42.5,56.1,43.3,56,44z"/>
		<path style="fill:#63A9DA;" d="M47.3,38.7c-1.3-0.6-3.2-0.6-4.4,0.3c-0.8,0.6-1,1.6-0.8,2.5s1,1.5,1.8,1.8c1.1,0.4,2.2,0.7,3.3,1
			c0.1,0,0.3,0.2,0.2,0.3c0,0.1-0.1,0.2-0.2,0.2c-1.1,0.3-2.4,0.1-3.2-0.8c-0.1-0.1-0.2-0.3-0.3-0.4h-1.6c0,1,0,2.1,0,3.1h1.8v-0.6
			c0.2,0.1,0.4,0.2,0.6,0.3c1.3,0.5,2.9,0.7,4.1,0c0.9-0.5,1.4-1.5,1.3-2.5c-0.1-1-1.1-2-2.1-2.2l-2.9-0.9l-0.2-0.1
			c-0.1-0.1-0.2-0.2-0.1-0.3c0.2-0.4,0.8-0.3,1.2-0.3c0.8,0.1,1.7,0.4,2.2,1.2c0.5,0,1.2,0,1.7,0c0-1,0-1.9,0-2.9
			c-0.5,0-1.2,0-1.8,0c0,0.1,0,0.4,0,0.5L47.3,38.7z"/>
		<path style="fill:#63A9DA;" d="M37.5,44.7h-1.2c0,0.7,0,1.3,0,2h5.3v-2c-0.4,0-0.8,0-1.2,0v-4.3l0,0h1.2c0-0.7,0-1.4,0-2.1H37
			h-0.8c0,0.6,0,1.4,0,2c0.4,0,0.8,0,1.2,0v4.1L37.5,44.7z"/>
	</g>
</g>
</svg>
