<?xml version="1.0" encoding="utf-8"?>
<!-- Generator: Adobe Illustrator 23.0.1, SVG Export Plug-In . SVG Version: 6.00 Build 0)  -->
<svg version="1.1" id="Layer_1" xmlns="http://www.w3.org/2000/svg" xmlns:xlink="http://www.w3.org/1999/xlink" x="0px" y="0px"
	 viewBox="0 0 100 100" style="enable-background:new 0 0 100 100;" xml:space="preserve">
<g>
	<path style="fill:#FFFFFF;" d="M59.9,15.4C62,20.6,63,29.9,63,43c0,13.3-1,23.6-3.1,31c-2.1,7.5-5.4,12.5-9.9,14.9
		s-7.8,0.9-9.9-4.4C38,79.4,37,70.1,37,56.9c0-13.1,1-23.5,3.1-31s5.4-12.3,9.9-14.8C54.5,8.7,57.8,10.1,59.9,15.4z M53.1,65.2
		c0.6-3.6,0.8-9.4,0.8-17.3S53.6,34.6,53,31.6c-0.5-3-1.6-4.1-3.1-3.3c-1.6,0.8-2.6,3.1-3.2,6.7c-0.5,3.5-0.7,9.2-0.7,17.1
		s0.3,13.5,0.8,16.5c0.6,3,1.6,4,3.2,3.1C51.5,70.8,52.6,68.7,53.1,65.2"/>
</g>
</svg>
