<?xml version="1.0" encoding="utf-8"?>
<!-- Generator: Adobe Illustrator 23.0.1, SVG Export Plug-In . SVG Version: 6.00 Build 0)  -->
<svg version="1.1" id="Layer_1" xmlns="http://www.w3.org/2000/svg" xmlns:xlink="http://www.w3.org/1999/xlink" x="0px" y="0px"
	 viewBox="0 0 100 100" style="enable-background:new 0 0 100 100;" xml:space="preserve">
<g>
	<g>
		
			<linearGradient id="SVGID_1_" gradientUnits="userSpaceOnUse" x1="-644.6601" y1="10.0329" x2="-644.6601" y2="69.0292" gradientTransform="matrix(-1 0 0 -1 -612.5101 100)">
			<stop  offset="0" style="stop-color:#F3B5A6"/>
			<stop  offset="0.9995" style="stop-color:#C05063"/>
			<stop  offset="1" style="stop-color:#C05063"/>
		</linearGradient>
		<path style="fill:url(#SVGID_1_);" d="M17.8,31.5c-2-1.1-3.6-0.2-3.6,2.1l-0.1,33.1c0,2.3,1.6,5.1,3.6,6.2l28.8,16.6
			c2,1.1,3.6,0.2,3.6-2.1l0.1-33.1c0-2.3-1.6-5.1-3.6-6.2L17.8,31.5z"/>
	</g>
	<polygon style="fill:#FFFFFF;" points="46.6,52.3 40.1,48.6 40.1,56.1 46.6,59.9 	"/>
	<polygon style="fill:#FFFFFF;" points="38.8,48 32.3,44.2 32.3,51.8 38.8,55.5 	"/>
	
		<linearGradient id="SVGID_2_" gradientUnits="userSpaceOnUse" x1="-663.11" y1="10.2" x2="-663.11" y2="89.9568" gradientTransform="matrix(-1 0 0 -1 -612.5101 100)">
		<stop  offset="0" style="stop-color:#F3B5A6"/>
		<stop  offset="0.9995" style="stop-color:#C05063"/>
		<stop  offset="1" style="stop-color:#C05063"/>
	</linearGradient>
	<path style="fill:url(#SVGID_2_);" d="M15.3,31.2c0,0,0.1,0,0.1-0.1c0,0,0,0,0.1,0h0.1c0,0,0,0,0.1,0l0,0l0,0c0,0,0,0,0.1,0
		s0.1,0,0.2,0l0,0h0.1c0.1,0,0.2,0,0.3,0c0,0,0,0,0.1,0s0.1,0,0.2,0l0,0h0.1c0.1,0,0.1,0,0.2,0s0.2,0.1,0.3,0.1h0.1
		c0.1,0,0.2,0.1,0.3,0.1c0.1,0,0.2,0.1,0.2,0.1L46.7,48c0.1,0.1,0.2,0.1,0.3,0.2c0.1,0.1,0.2,0.1,0.3,0.2c0,0,0.1,0,0.1,0.1l0,0
		c0.1,0.1,0.2,0.1,0.2,0.2l0,0c0.1,0.1,0.2,0.1,0.2,0.2l0.1,0.1c0.1,0.1,0.2,0.2,0.2,0.2l0,0c0,0.1,0.1,0.1,0.1,0.2
		c0,0.1,0.1,0.1,0.1,0.2c0.1,0.1,0.1,0.1,0.2,0.2l0.1,0.1c0.1,0.1,0.1,0.2,0.2,0.3c0,0,0,0.1,0.1,0.1c0.1,0.1,0.2,0.2,0.2,0.4
		c0,0,0,0,0,0.1c0.1,0.1,0.1,0.2,0.2,0.3c0,0,0,0.1,0.1,0.1c0.1,0.1,0.1,0.2,0.2,0.4l0,0c0.1,0.1,0.1,0.3,0.2,0.4v0.1
		c0,0.1,0.1,0.2,0.1,0.3v0.1c0,0.1,0.1,0.2,0.1,0.3s0,0.1,0,0.2c0,0,0,0,0,0.1s0.1,0.3,0.1,0.4c0,0.1,0,0.1,0,0.2c0,0.1,0,0.2,0,0.2
		c0,0.1,0,0.2,0,0.4l0,0L50,87.4c0,0.1,0,0.2,0,0.4c0,0.1,0,0.2,0,0.3c0,0.1,0,0.1,0,0.2s-0.1,0.3-0.1,0.4s0,0.1-0.1,0.2
		c0,0.1,0,0.1-0.1,0.1c-0.1,0.2-0.2,0.3-0.3,0.5c0,0.1-0.1,0.1-0.1,0.1s0,0-0.1,0.1s-0.1,0.1-0.2,0.1h0.1L84.8,69
		c0.2-0.1,0.5-0.3,0.6-0.6c0.3-0.4,0.4-1,0.4-1.7l0.1-33.1c0-0.2,0-0.4,0-0.6c0,0,0,0,0-0.1v-0.1c0-0.1,0-0.2-0.1-0.3v-0.1
		c0,0,0,0,0-0.1s0-0.1,0-0.2c0-0.1,0-0.1,0-0.2v-0.1c0-0.1,0-0.1,0-0.1v-0.1c0-0.1,0-0.1-0.1-0.2v-0.1c0,0,0,0,0-0.1
		s-0.1-0.2-0.1-0.3l0,0l0,0c0-0.1-0.1-0.2-0.1-0.3c0,0,0-0.1-0.1-0.1c0,0,0-0.1-0.1-0.1c0,0,0-0.1-0.1-0.1c0-0.1-0.1-0.2-0.1-0.2
		s0,0,0-0.1l0,0c-0.1-0.1-0.1-0.2-0.2-0.3l0,0c0,0,0-0.1-0.1-0.1c0-0.1-0.1-0.1-0.1-0.2c0,0,0-0.1-0.1-0.1l-0.1-0.1
		c0,0,0-0.1-0.1-0.1L84.3,29c0-0.1-0.1-0.1-0.1-0.2c0,0,0-0.1-0.1-0.1L84,28.6c-0.1-0.1-0.2-0.2-0.2-0.3l-0.1-0.1l0,0
		c-0.2-0.2-0.3-0.3-0.5-0.4c0,0-0.1,0-0.1-0.1c-0.2-0.1-0.4-0.3-0.6-0.4L52.6,10.5c-0.2-0.1-0.3-0.2-0.5-0.2c0,0,0,0-0.1,0h-0.1
		c-0.1,0-0.2-0.1-0.3-0.1h-0.1h-0.1c-0.1,0-0.1,0-0.1,0h-0.1h-0.1H51c0,0,0,0-0.1,0s-0.1,0-0.2,0h-0.1c-0.1,0-0.1,0-0.2,0l0,0
		c0,0,0,0-0.1,0h-0.1h-0.1c0,0,0,0-0.1,0l0,0c-0.1,0-0.1,0.1-0.2,0.1l0,0l-12.2,7.8L32.8,21L15.3,31.2z"/>
	<path style="fill:#FFFFFF;" d="M66.6,51.4l5.1-2.9v-4.4c0-0.3,0-0.7-0.1-1.1v-0.1v-0.2c0-0.2-0.1-0.3-0.1-0.5v-0.1
		c0-0.1,0-0.2-0.1-0.3c0-0.1,0-0.2-0.1-0.3c0-0.2-0.1-0.3-0.1-0.4c0-0.1,0-0.2-0.1-0.2c0-0.1-0.1-0.3-0.1-0.4h0
		c-0.1-0.2-0.2-0.4-0.2-0.6v-0.1c-0.1-0.2-0.2-0.3-0.2-0.5l-0.1-0.2c-0.1-0.2-0.2-0.3-0.3-0.5l-0.1-0.1c-0.1-0.2-0.2-0.4-0.3-0.5
		l-0.1-0.1c-0.1-0.2-0.2-0.3-0.3-0.4l-0.1-0.2c-0.1-0.1-0.2-0.2-0.2-0.3c-0.1-0.1-0.1-0.2-0.2-0.3s-0.1-0.2-0.2-0.2
		c-0.1-0.1-0.2-0.3-0.4-0.4C68.1,36,68,35.9,68,35.8c-0.3-0.3-0.5-0.5-0.8-0.7L67,35c-0.4-0.3-0.7-0.5-1-0.6L37.8,18.1l-5,2.9
		l30.7,17.8c0.1,0.1,0.2,0.2,0.4,0.3l0.1,0.1c0.1,0.1,0.3,0.2,0.4,0.4l0.1,0.1c0.1,0.1,0.1,0.1,0.2,0.2l0.1,0.1
		c0,0.1,0.1,0.1,0.1,0.2c0.1,0.1,0.1,0.1,0.2,0.2l0.1,0.1c0.1,0.1,0.1,0.2,0.2,0.2v0.1c0.1,0.1,0.2,0.3,0.2,0.4v0.1
		c0.1,0.1,0.1,0.2,0.2,0.3l0.1,0.1C66,41.8,66,41.9,66,42v0.1c0,0.1,0.1,0.2,0.1,0.3v0.1c0,0.1,0.1,0.2,0.1,0.3v0.1
		c0,0.1,0,0.1,0.1,0.2l0.1,0.3c0,0.1,0,0.1,0,0.2v0.1c0,0.2,0,0.3,0,0.5L66.6,51.4z"/>
</g>
</svg>
