<?xml version="1.0" encoding="utf-8"?>
<!-- Generator: Adobe Illustrator 23.0.1, SVG Export Plug-In . SVG Version: 6.00 Build 0)  -->
<svg version="1.1" id="Layer_1" xmlns="http://www.w3.org/2000/svg" xmlns:xlink="http://www.w3.org/1999/xlink" x="0px" y="0px"
	 viewBox="0 0 100 100" style="enable-background:new 0 0 100 100;" xml:space="preserve">
<g>
	<path style="fill:#FFFFFF;" d="M41.4,15.9c1.5-3.8,3.6-5.7,6.2-5.9c1.2-0.1,2.5,0.2,4,0.9c4.6,2.1,7.6,6.9,9.4,14.3
		c1.8,7.1,2.5,17.5,2,30.8c-0.5,13.3-1.8,22.6-4.3,28.1c-1.6,3.7-3.6,5.7-6.3,5.8c-1.2,0.1-2.5-0.2-3.9-0.8
		c-4.4-2.1-7.5-7.1-9.4-14.3c-1.8-7.3-2.4-17.7-2-31C37.6,30.6,39.1,21.2,41.4,15.9z M46.3,65.4c0.6,3.6,1.5,5.6,2.9,6.3
		c0.4,0.2,0.7,0.2,1,0.2c1.1-0.1,1.9-1.3,2.3-3.7c0.6-3,1.2-8.5,1.5-16.4s0.2-13.8-0.2-17.3c-0.4-3.4-1.3-5.6-2.9-6.3
		c-0.3-0.2-0.7-0.2-1-0.2c-1,0.1-1.8,1.3-2.3,3.7c-0.8,3-1.2,8.5-1.5,16.4S45.9,61.8,46.3,65.4"/>
</g>
</svg>
