<?xml version="1.0" encoding="utf-8"?>
<!-- Generator: Adobe Illustrator 23.0.1, SVG Export Plug-In . SVG Version: 6.00 Build 0)  -->
<svg version="1.1" id="Layer_1" xmlns="http://www.w3.org/2000/svg" xmlns:xlink="http://www.w3.org/1999/xlink" x="0px" y="0px"
	 viewBox="0 0 100 100" style="enable-background:new 0 0 100 100;" xml:space="preserve">
<g>
	<polygon style="fill:#FFFFFF;" points="50,10 57.2,13.5 54.4,90 45.7,85.9 47.8,27.6 44.3,28.2 42.8,11.7 	"/>
</g>
<g id="arrow-box_6_">
	<g>
		
			<linearGradient id="SVGID_1_" gradientUnits="userSpaceOnUse" x1="-192.9913" y1="90" x2="-192.9913" y2="30.7072" gradientTransform="matrix(1 0 0 1 260.8763 0)">
			<stop  offset="0" style="stop-color:#F3B5A6"/>
			<stop  offset="0.9995" style="stop-color:#C05063"/>
			<stop  offset="1" style="stop-color:#C05063"/>
		</linearGradient>
		<path style="fill:url(#SVGID_1_);" d="M82.3,31.2c2-1.2,3.6-0.2,3.6,2.1L86,66.5c0,2.3-1.6,5.1-3.6,6.2l-29,16.7
			c-2,1.2-3.6,0.2-3.6-2.1l-0.1-33.3c0-2.3,1.6-5.1,3.6-6.2L82.3,31.2z"/>
	</g>
	
		<linearGradient id="SVGID_2_" gradientUnits="userSpaceOnUse" x1="-188.8368" y1="39.989" x2="-188.8368" y2="51.3497" gradientTransform="matrix(1 0 0 1 260.8763 0)">
		<stop  offset="0" style="stop-color:#FFFFFF"/>
		<stop  offset="0.3662" style="stop-color:#FCFDFE"/>
		<stop  offset="0.6134" style="stop-color:#F3F8FD"/>
		<stop  offset="0.8248" style="stop-color:#E4EFFA"/>
		<stop  offset="1" style="stop-color:#D1E4F6"/>
	</linearGradient>
	<polygon style="fill:url(#SVGID_2_);" points="68.8,43.8 75.3,40 75.3,47.6 68.8,51.3 	"/>
	
		<linearGradient id="SVGID_3_" gradientUnits="userSpaceOnUse" x1="-181.0219" y1="35.6017" x2="-181.0219" y2="46.9624" gradientTransform="matrix(1 0 0 1 260.8763 0)">
		<stop  offset="0" style="stop-color:#FFFFFF"/>
		<stop  offset="0.3662" style="stop-color:#FCFDFE"/>
		<stop  offset="0.6134" style="stop-color:#F3F8FD"/>
		<stop  offset="0.8248" style="stop-color:#E4EFFA"/>
		<stop  offset="1" style="stop-color:#D1E4F6"/>
	</linearGradient>
	<polygon style="fill:url(#SVGID_3_);" points="76.6,39.4 83.1,35.6 83.1,43.2 76.6,47 	"/>
	
		<linearGradient id="SVGID_4_" gradientUnits="userSpaceOnUse" x1="-246.9031" y1="49.9705" x2="-175.9274" y2="49.9705" gradientTransform="matrix(1 0 0 1 260.8763 0)">
		<stop  offset="0" style="stop-color:#F3B5A6"/>
		<stop  offset="0.9995" style="stop-color:#C05063"/>
		<stop  offset="1" style="stop-color:#C05063"/>
	</linearGradient>
	<path style="fill:url(#SVGID_4_);" d="M84.9,31.1c0,0-0.1,0-0.1-0.1c0,0,0,0-0.1,0c0,0-0.1,0-0.1,0c0,0,0,0-0.1,0c0,0,0,0,0,0
		c0,0,0,0,0,0c0,0,0,0-0.1,0c-0.1,0-0.1,0-0.2,0c0,0,0,0,0,0h-0.1c-0.1,0-0.2,0-0.3,0c0,0,0,0-0.1,0c-0.1,0-0.1,0-0.2,0c0,0,0,0,0,0
		c0,0-0.1,0-0.1,0c-0.1,0-0.1,0-0.2,0c-0.1,0-0.2,0.1-0.3,0.1c0,0-0.1,0-0.1,0c-0.1,0-0.2,0.1-0.3,0.1c-0.1,0-0.2,0.1-0.2,0.1
		l-29,16.7c-0.1,0.1-0.2,0.1-0.3,0.2c-0.1,0.1-0.2,0.1-0.3,0.2c0,0-0.1,0-0.1,0.1c0,0,0,0,0,0c-0.1,0.1-0.2,0.1-0.2,0.2c0,0,0,0,0,0
		c-0.1,0.1-0.2,0.1-0.2,0.2l-0.1,0.1c-0.1,0.1-0.2,0.2-0.2,0.2c0,0,0,0,0,0c0,0.1-0.1,0.1-0.1,0.2c0,0.1-0.1,0.1-0.1,0.2
		c-0.1,0.1-0.1,0.1-0.2,0.2c0,0-0.1,0.1-0.1,0.1c-0.1,0.1-0.1,0.2-0.2,0.3c0,0,0,0.1-0.1,0.1c-0.1,0.1-0.2,0.2-0.2,0.4
		c0,0,0,0,0,0.1c-0.1,0.1-0.1,0.2-0.2,0.3c0,0,0,0.1-0.1,0.1c-0.1,0.1-0.1,0.2-0.2,0.4c0,0,0,0,0,0c-0.1,0.1-0.1,0.3-0.2,0.4
		c0,0,0,0.1,0,0.1c0,0.1-0.1,0.2-0.1,0.3c0,0,0,0.1,0,0.1c0,0.1-0.1,0.2-0.1,0.3c0,0.1,0,0.1,0,0.2c0,0,0,0,0,0.1
		c0,0.1-0.1,0.3-0.1,0.4c0,0.1,0,0.1,0,0.2c0,0.1,0,0.2,0,0.2c0,0.1,0,0.2,0,0.4v0L50,87.6c0,0.1,0,0.2,0,0.4c0,0.1,0,0.2,0,0.3
		c0,0.1,0,0.1,0,0.2c0,0.1,0.1,0.3,0.1,0.4c0,0.1,0,0.1,0.1,0.2c0,0.1,0,0.1,0.1,0.1c0.1,0.2,0.2,0.3,0.3,0.5c0,0.1,0.1,0.1,0.1,0.1
		c0,0,0,0,0.1,0.1c0.1,0.1,0.1,0.1,0.2,0.1l-0.1,0L15.1,69c-0.2-0.1-0.5-0.3-0.6-0.6c-0.3-0.4-0.4-1-0.4-1.7L14,33.5
		c0-0.2,0-0.4,0-0.6c0,0,0,0,0-0.1c0,0,0-0.1,0-0.1c0-0.1,0-0.2,0.1-0.3c0,0,0-0.1,0-0.1c0,0,0,0,0-0.1c0-0.1,0-0.1,0-0.2
		c0-0.1,0-0.1,0-0.2c0,0,0-0.1,0-0.1c0-0.1,0-0.1,0-0.1c0,0,0-0.1,0-0.1c0-0.1,0-0.1,0.1-0.2c0,0,0-0.1,0-0.1c0,0,0,0,0-0.1
		c0-0.1,0.1-0.2,0.1-0.3c0,0,0,0,0,0c0,0,0,0,0,0c0-0.1,0.1-0.2,0.1-0.3c0,0,0-0.1,0.1-0.1c0,0,0-0.1,0.1-0.1c0,0,0-0.1,0.1-0.1
		c0-0.1,0.1-0.2,0.1-0.2c0,0,0,0,0-0.1c0,0,0,0,0,0c0.1-0.1,0.1-0.2,0.2-0.3c0,0,0,0,0,0c0,0,0-0.1,0.1-0.1c0-0.1,0.1-0.1,0.1-0.2
		c0,0,0-0.1,0.1-0.1c0,0,0.1-0.1,0.1-0.1c0,0,0-0.1,0.1-0.1c0,0,0.1-0.1,0.1-0.1c0-0.1,0.1-0.1,0.1-0.2c0,0,0-0.1,0.1-0.1
		c0,0,0.1-0.1,0.1-0.1c0.1-0.1,0.2-0.2,0.2-0.3c0,0,0.1-0.1,0.1-0.1c0,0,0,0,0,0c0.2-0.2,0.3-0.3,0.5-0.4c0,0,0.1,0,0.1-0.1
		c0.2-0.1,0.4-0.3,0.6-0.4l29-16.7c0.2-0.1,0.3-0.2,0.5-0.2c0,0,0,0,0.1,0c0,0,0.1,0,0.1,0c0.1,0,0.2-0.1,0.3-0.1c0,0,0.1,0,0.1,0
		c0,0,0.1,0,0.1,0c0.1,0,0.1,0,0.1,0c0,0,0.1,0,0.1,0c0,0,0.1,0,0.1,0c0,0,0.1,0,0.1,0c0,0,0,0,0.1,0c0.1,0,0.1,0,0.2,0h0.1
		c0.1,0,0.1,0,0.2,0c0,0,0,0,0,0c0,0,0,0,0.1,0c0,0,0.1,0,0.1,0c0,0,0.1,0,0.1,0c0,0,0,0,0.1,0c0,0,0,0,0,0c0.1,0,0.1,0.1,0.2,0.1
		c0,0,0,0,0,0l13.2,7.7l5.1,3L84.9,31.1z"/>
	<path style="fill:none;stroke:#000000;stroke-width:1.064;stroke-miterlimit:10;" d="M84.9,31"/>
	<path style="fill:none;" d="M71.9,17.9l0-0.1l-0.1,0.2c0,0,0,0,0.1,0L71.9,17.9z"/>
	<path style="fill:#FFFFFF;" d="M29.2,48.9l0-4.4c0-0.3,0-0.7,0.1-1.1l0-0.1l0-0.2c0-0.2,0.1-0.3,0.1-0.5l0-0.1c0-0.1,0-0.2,0.1-0.3
		c0-0.1,0-0.2,0.1-0.3c0-0.2,0.1-0.3,0.1-0.4c0-0.1,0-0.2,0.1-0.2c0-0.1,0.1-0.3,0.1-0.4l0.1-0.2c0.1-0.2,0.2-0.4,0.2-0.6l0-0.1
		c0.1-0.2,0.2-0.3,0.2-0.5l0.1-0.2c0.1-0.2,0.2-0.3,0.3-0.5l0.1-0.1c0.1-0.2,0.2-0.4,0.3-0.6l0.1-0.1c0.1-0.2,0.2-0.3,0.3-0.4
		l0.1-0.2c0.1-0.1,0.2-0.2,0.2-0.3c0.1-0.1,0.1-0.2,0.2-0.3c0.1-0.1,0.1-0.2,0.2-0.2c0.1-0.1,0.2-0.3,0.4-0.4
		c0.1-0.1,0.1-0.1,0.2-0.2c0.3-0.3,0.5-0.5,0.8-0.7l0.1-0.1c0.4-0.3,0.7-0.5,1-0.7l28.4-16.4l5.1,3L37.3,39.1
		c-0.1,0.1-0.2,0.2-0.4,0.3l-0.1,0.1c-0.1,0.1-0.3,0.2-0.4,0.4l-0.1,0.1c-0.1,0.1-0.1,0.1-0.2,0.2L36,40.3c0,0.1-0.1,0.1-0.1,0.2
		c-0.1,0.1-0.1,0.1-0.2,0.2l-0.1,0.1c-0.1,0.1-0.1,0.2-0.2,0.2l0,0.1c-0.1,0.1-0.2,0.3-0.2,0.4l0,0.1c-0.1,0.1-0.1,0.2-0.2,0.3
		l-0.1,0.1c-0.1,0.1-0.1,0.2-0.1,0.3l0,0.1c0,0.1-0.1,0.2-0.1,0.3l0,0.1c0,0.1-0.1,0.2-0.1,0.3l0,0.1c0,0.1,0,0.1-0.1,0.2l-0.1,0.3
		c0,0.1,0,0.1,0,0.2l0,0.1c0,0.2,0,0.3,0,0.5l0,7.4L29.2,48.9z"/>
</g>
</svg>
