<?xml version="1.0" encoding="utf-8"?>
<!-- Generator: Adobe Illustrator 23.0.1, SVG Export Plug-In . SVG Version: 6.00 Build 0)  -->
<svg version="1.1" id="Layer_1" xmlns="http://www.w3.org/2000/svg" xmlns:xlink="http://www.w3.org/1999/xlink" x="0px" y="0px"
	 viewBox="0 0 100 100" style="enable-background:new 0 0 100 100;" xml:space="preserve">
<g>
	<g>
		
			<linearGradient id="SVGID_1_" gradientUnits="userSpaceOnUse" x1="-644.6222" y1="90" x2="-644.6222" y2="31.0037" gradientTransform="matrix(-1 0 0 1 -612.5101 0)">
			<stop  offset="0" style="stop-color:#F3B5A6"/>
			<stop  offset="0.9995" style="stop-color:#C05063"/>
			<stop  offset="1" style="stop-color:#C05063"/>
		</linearGradient>
		<path style="fill:url(#SVGID_1_);" d="M17.8,31.5c-2-1.1-3.6-0.2-3.6,2.1l-0.1,33.1c0,2.3,1.6,5.1,3.6,6.2l28.8,16.6
			c2,1.1,3.6,0.2,3.6-2.1l0.1-33.1c0-2.3-1.6-5.1-3.6-6.2L17.8,31.5z"/>
	</g>
	<polygon style="fill:#FFFFFF;" points="46.6,52.3 40.1,48.6 40.1,56.1 46.6,59.9 	"/>
	<polygon style="fill:#FFFFFF;" points="38.8,48 32.3,44.2 32.3,51.8 38.8,55.5 	"/>
	
		<linearGradient id="SVGID_2_" gradientUnits="userSpaceOnUse" x1="-663.1387" y1="89.7568" x2="-663.1387" y2="10" gradientTransform="matrix(-1 0 0 1 -612.5101 0)">
		<stop  offset="0" style="stop-color:#F3B5A6"/>
		<stop  offset="0.9995" style="stop-color:#C05063"/>
		<stop  offset="1" style="stop-color:#C05063"/>
	</linearGradient>
	<path style="fill:url(#SVGID_2_);" d="M15.3,31.2c0,0,0.1,0,0.1-0.1c0,0,0,0,0.1,0c0,0,0.1,0,0.1,0c0,0,0,0,0.1,0c0,0,0,0,0,0
		c0,0,0,0,0,0c0,0,0,0,0.1,0c0.1,0,0.1,0,0.2,0c0,0,0,0,0,0h0.1c0.1,0,0.2,0,0.3,0c0,0,0,0,0.1,0c0.1,0,0.1,0,0.2,0c0,0,0,0,0,0
		c0,0,0.1,0,0.1,0c0.1,0,0.1,0,0.2,0c0.1,0,0.2,0.1,0.3,0.1c0,0,0.1,0,0.1,0c0.1,0,0.2,0.1,0.3,0.1c0.1,0,0.2,0.1,0.2,0.1l28.8,16.6
		c0.1,0.1,0.2,0.1,0.3,0.2c0.1,0.1,0.2,0.1,0.3,0.2c0,0,0.1,0,0.1,0.1c0,0,0,0,0,0c0.1,0.1,0.2,0.1,0.2,0.2c0,0,0,0,0,0
		c0.1,0.1,0.2,0.1,0.2,0.2l0.1,0.1c0.1,0.1,0.2,0.2,0.2,0.2c0,0,0,0,0,0c0,0.1,0.1,0.1,0.1,0.2c0,0.1,0.1,0.1,0.1,0.2
		c0.1,0.1,0.1,0.1,0.2,0.2c0,0,0.1,0.1,0.1,0.1c0.1,0.1,0.1,0.2,0.2,0.3c0,0,0,0.1,0.1,0.1c0.1,0.1,0.2,0.2,0.2,0.4c0,0,0,0,0,0.1
		c0.1,0.1,0.1,0.2,0.2,0.3c0,0,0,0.1,0.1,0.1c0.1,0.1,0.1,0.2,0.2,0.4c0,0,0,0,0,0c0.1,0.1,0.1,0.3,0.2,0.4c0,0,0,0.1,0,0.1
		c0,0.1,0.1,0.2,0.1,0.3c0,0,0,0.1,0,0.1c0,0.1,0.1,0.2,0.1,0.3c0,0.1,0,0.1,0,0.2c0,0,0,0,0,0.1c0,0.1,0.1,0.3,0.1,0.4
		c0,0.1,0,0.1,0,0.2c0,0.1,0,0.2,0,0.2c0,0.1,0,0.2,0,0.4v0l-0.1,33.1c0,0.1,0,0.2,0,0.4c0,0.1,0,0.2,0,0.3c0,0.1,0,0.1,0,0.2
		c0,0.1-0.1,0.3-0.1,0.4c0,0.1,0,0.1-0.1,0.2c0,0.1,0,0.1-0.1,0.1c-0.1,0.2-0.2,0.3-0.3,0.5c0,0.1-0.1,0.1-0.1,0.1c0,0,0,0-0.1,0.1
		c-0.1,0.1-0.1,0.1-0.2,0.1l0.1,0L84.8,69c0.2-0.1,0.5-0.3,0.6-0.6c0.3-0.4,0.4-1,0.4-1.7l0.1-33.1c0-0.2,0-0.4,0-0.6c0,0,0,0,0-0.1
		c0,0,0-0.1,0-0.1c0-0.1,0-0.2-0.1-0.3c0,0,0-0.1,0-0.1c0,0,0,0,0-0.1c0-0.1,0-0.1,0-0.2c0-0.1,0-0.1,0-0.2c0,0,0-0.1,0-0.1
		c0-0.1,0-0.1,0-0.1c0,0,0-0.1,0-0.1c0-0.1,0-0.1-0.1-0.2c0,0,0-0.1,0-0.1c0,0,0,0,0-0.1c0-0.1-0.1-0.2-0.1-0.3c0,0,0,0,0,0
		c0,0,0,0,0,0c0-0.1-0.1-0.2-0.1-0.3c0,0,0-0.1-0.1-0.1c0,0,0-0.1-0.1-0.1c0,0,0-0.1-0.1-0.1c0-0.1-0.1-0.2-0.1-0.2c0,0,0,0,0-0.1
		c0,0,0,0,0,0c-0.1-0.1-0.1-0.2-0.2-0.3c0,0,0,0,0,0c0,0,0-0.1-0.1-0.1c0-0.1-0.1-0.1-0.1-0.2c0,0,0-0.1-0.1-0.1
		c0,0-0.1-0.1-0.1-0.1c0,0,0-0.1-0.1-0.1c0,0-0.1-0.1-0.1-0.1c0-0.1-0.1-0.1-0.1-0.2c0,0,0-0.1-0.1-0.1c0,0-0.1-0.1-0.1-0.1
		c-0.1-0.1-0.2-0.2-0.2-0.3c0,0-0.1-0.1-0.1-0.1c0,0,0,0,0,0c-0.2-0.2-0.3-0.3-0.5-0.4c0,0-0.1,0-0.1-0.1c-0.2-0.1-0.4-0.3-0.6-0.4
		L52.6,10.5c-0.2-0.1-0.3-0.2-0.5-0.2c0,0,0,0-0.1,0c0,0-0.1,0-0.1,0c-0.1,0-0.2-0.1-0.3-0.1c0,0-0.1,0-0.1,0c0,0-0.1,0-0.1,0
		c-0.1,0-0.1,0-0.1,0c0,0-0.1,0-0.1,0c0,0-0.1,0-0.1,0c0,0-0.1,0-0.1,0c0,0,0,0-0.1,0c-0.1,0-0.1,0-0.2,0h-0.1c-0.1,0-0.1,0-0.2,0
		c0,0,0,0,0,0c0,0,0,0-0.1,0c0,0-0.1,0-0.1,0c0,0-0.1,0-0.1,0c0,0,0,0-0.1,0c0,0,0,0,0,0c-0.1,0-0.1,0.1-0.2,0.1c0,0,0,0,0,0
		l-12.2,7.8L32.8,21L15.3,31.2z"/>
	<path style="fill:#FFFFFF;" d="M66.6,51.4l-3.2,1.8l5.8,3.3l5.7-9.9l-3.2,1.9l0-4.4c0-0.3,0-0.7-0.1-1.1l0-0.1l0-0.2
		c0-0.2-0.1-0.3-0.1-0.5l0-0.1c0-0.1,0-0.2-0.1-0.3c0-0.1,0-0.2-0.1-0.3c0-0.2-0.1-0.3-0.1-0.4c0-0.1,0-0.2-0.1-0.2
		c0-0.1-0.1-0.3-0.1-0.4L71,40.5c-0.1-0.2-0.2-0.4-0.2-0.6l0-0.1c-0.1-0.2-0.2-0.3-0.2-0.5l-0.1-0.2c-0.1-0.2-0.2-0.3-0.3-0.5
		l-0.1-0.1c-0.1-0.2-0.2-0.4-0.3-0.5l-0.1-0.1c-0.1-0.2-0.2-0.3-0.3-0.4l-0.1-0.2c-0.1-0.1-0.2-0.2-0.2-0.3
		c-0.1-0.1-0.1-0.2-0.2-0.3c-0.1-0.1-0.1-0.2-0.2-0.2c-0.1-0.1-0.2-0.3-0.4-0.4C68.1,36,68,35.9,68,35.8c-0.3-0.3-0.5-0.5-0.8-0.7
		L67,35c-0.4-0.3-0.7-0.5-1-0.6L37.8,18.1L32.8,21l30.7,17.8c0.1,0.1,0.2,0.2,0.4,0.3l0.1,0.1c0.1,0.1,0.3,0.2,0.4,0.4l0.1,0.1
		c0.1,0.1,0.1,0.1,0.2,0.2l0.1,0.1c0,0.1,0.1,0.1,0.1,0.2c0.1,0.1,0.1,0.1,0.2,0.2l0.1,0.1c0.1,0.1,0.1,0.2,0.2,0.2l0,0.1
		c0.1,0.1,0.2,0.3,0.2,0.4l0,0.1c0.1,0.1,0.1,0.2,0.2,0.3l0.1,0.1c0.1,0.1,0.1,0.2,0.1,0.3l0,0.1c0,0.1,0.1,0.2,0.1,0.3l0,0.1
		c0,0.1,0.1,0.2,0.1,0.3l0,0.1c0,0.1,0,0.1,0.1,0.2l0.1,0.3c0,0.1,0,0.1,0,0.2l0,0.1c0,0.2,0,0.3,0,0.5L66.6,51.4z"/>
</g>
</svg>
