<?xml version="1.0" encoding="utf-8"?>
<!-- Generator: Adobe Illustrator 23.0.1, SVG Export Plug-In . SVG Version: 6.00 Build 0)  -->
<svg version="1.1" id="Layer_1" xmlns="http://www.w3.org/2000/svg" xmlns:xlink="http://www.w3.org/1999/xlink" x="0px" y="0px"
	 viewBox="0 0 100 100" style="enable-background:new 0 0 100 100;" xml:space="preserve">
<g>
	<path style="fill:#FFFFFF;" d="M79.9,80.4c0,0.1,0,0.2,0,0.4c0,0.2,0,0.3,0,0.4c0,0.1-0.1,0.2-0.1,0.2s-0.1,0-0.1-0.1
		c0-0.1,0-0.2,0-0.4c0-0.2,0-0.3,0-0.4c0-0.1,0.1-0.2,0.1-0.2S79.9,80.4,79.9,80.4z M79.8,81.1c0,0,0-0.1,0-0.2c0-0.1,0-0.2,0-0.2
		c0,0,0-0.1,0,0c0,0,0,0,0,0.1c0,0,0,0.1,0,0.2C79.7,81,79.7,81.1,79.8,81.1C79.7,81.2,79.8,81.2,79.8,81.1
		C79.8,81.2,79.8,81.2,79.8,81.1"/>
</g>
<g>
	<polygon style="fill:#FFFFFF;" points="57.2,10 57.3,85.3 48.5,90 48.4,32.7 44.9,36.8 42.7,22.7 49.9,13.9 	"/>
</g>
</svg>
