<?xml version="1.0" encoding="utf-8"?>
<!-- Generator: Adobe Illustrator 23.0.1, SVG Export Plug-In . SVG Version: 6.00 Build 0)  -->
<svg version="1.1" id="Layer_1" xmlns="http://www.w3.org/2000/svg" xmlns:xlink="http://www.w3.org/1999/xlink" x="0px" y="0px"
	 viewBox="0 0 100 100" style="enable-background:new 0 0 100 100;" xml:space="preserve">
<g>
	<path style="fill:#FFFFFF;" d="M79.9,80.4c0,0.1,0,0.2,0,0.4c0,0.2,0,0.3,0,0.4c0,0.1-0.1,0.2-0.1,0.2s-0.1,0-0.1-0.1
		c0-0.1,0-0.2,0-0.4c0-0.2,0-0.3,0-0.4c0-0.1,0.1-0.2,0.1-0.2S79.9,80.4,79.9,80.4z M79.8,81.1c0,0,0-0.1,0-0.2c0-0.1,0-0.2,0-0.2
		c0,0,0-0.1,0,0c0,0,0,0,0,0.1c0,0,0,0.1,0,0.2C79.7,81,79.7,81.1,79.8,81.1C79.7,81.2,79.8,81.2,79.8,81.1
		C79.8,81.2,79.8,81.2,79.8,81.1"/>
</g>
<g id="arrow-box_5_">
	<g>
		<g>
			<g>
				<g>
					
						<linearGradient id="SVGID_1_" gradientUnits="userSpaceOnUse" x1="-648.9704" y1="89.9517" x2="-648.9704" y2="30.7305" gradientTransform="matrix(1 0 0 1 716.8338 0)">
						<stop  offset="0" style="stop-color:#F3B5A6"/>
						<stop  offset="0.9995" style="stop-color:#C05063"/>
						<stop  offset="1" style="stop-color:#C05063"/>
					</linearGradient>
					<path style="fill:url(#SVGID_1_);" d="M82.3,31.2c2-1.2,3.6-0.2,3.6,2.1L86,66.5c0,2.3-1.6,5.1-3.6,6.2L53.5,89.5
						c-2,1.2-3.6,0.2-3.6-2.1l-0.1-33.2c0-2.3,1.6-5.1,3.6-6.2L82.3,31.2z"/>
				</g>
				
					<linearGradient id="SVGID_2_" gradientUnits="userSpaceOnUse" x1="-644.8209" y1="40.001" x2="-644.8209" y2="51.348" gradientTransform="matrix(1 0 0 1 716.8338 0)">
					<stop  offset="0" style="stop-color:#FFFFFF"/>
					<stop  offset="0.3662" style="stop-color:#FCFDFE"/>
					<stop  offset="0.6134" style="stop-color:#F3F8FD"/>
					<stop  offset="0.8248" style="stop-color:#E4EFFA"/>
					<stop  offset="1" style="stop-color:#D1E4F6"/>
				</linearGradient>
				<polygon style="fill:url(#SVGID_2_);" points="68.7,43.8 75.3,40 75.3,47.6 68.7,51.3 				"/>
				
					<linearGradient id="SVGID_3_" gradientUnits="userSpaceOnUse" x1="-637.0155" y1="35.6191" x2="-637.0155" y2="46.966" gradientTransform="matrix(1 0 0 1 716.8338 0)">
					<stop  offset="0" style="stop-color:#FFFFFF"/>
					<stop  offset="0.3662" style="stop-color:#FCFDFE"/>
					<stop  offset="0.6134" style="stop-color:#F3F8FD"/>
					<stop  offset="0.8248" style="stop-color:#E4EFFA"/>
					<stop  offset="1" style="stop-color:#D1E4F6"/>
				</linearGradient>
				<polygon style="fill:url(#SVGID_3_);" points="76.5,39.4 83.1,35.6 83.1,43.2 76.5,47 				"/>
				
					<linearGradient id="SVGID_4_" gradientUnits="userSpaceOnUse" x1="-702.8171" y1="49.9706" x2="-631.9272" y2="49.9706" gradientTransform="matrix(1 0 0 1 716.8338 0)">
					<stop  offset="0" style="stop-color:#F3B5A6"/>
					<stop  offset="0.9995" style="stop-color:#C05063"/>
					<stop  offset="1" style="stop-color:#C05063"/>
				</linearGradient>
				<path style="fill:url(#SVGID_4_);" d="M84.9,31.1c0,0-0.1,0-0.1-0.1c0,0,0,0-0.1,0c0,0-0.1,0-0.1,0c0,0,0,0-0.1,0c0,0,0,0,0,0
					c0,0,0,0,0,0c0,0,0,0-0.1,0c-0.1,0-0.1,0-0.2,0c0,0,0,0,0,0h-0.1c-0.1,0-0.2,0-0.3,0c0,0,0,0-0.1,0c-0.1,0-0.1,0-0.2,0
					c0,0,0,0,0,0c0,0-0.1,0-0.1,0c-0.1,0-0.1,0-0.2,0c-0.1,0-0.2,0.1-0.3,0.1c0,0-0.1,0-0.1,0c-0.1,0-0.2,0.1-0.3,0.1
					c-0.1,0-0.2,0.1-0.2,0.1L53.5,48.1c-0.1,0.1-0.2,0.1-0.3,0.2c-0.1,0.1-0.2,0.1-0.3,0.2c0,0-0.1,0-0.1,0.1c0,0,0,0,0,0
					c-0.1,0.1-0.2,0.1-0.2,0.2c0,0,0,0,0,0c-0.1,0.1-0.2,0.1-0.2,0.2l-0.1,0.1c-0.1,0.1-0.2,0.2-0.2,0.2c0,0,0,0,0,0
					c0,0.1-0.1,0.1-0.1,0.2c0,0.1-0.1,0.1-0.1,0.2c-0.1,0.1-0.1,0.1-0.2,0.2c0,0-0.1,0.1-0.1,0.1c-0.1,0.1-0.1,0.2-0.2,0.3
					c0,0,0,0.1-0.1,0.1c-0.1,0.1-0.2,0.2-0.2,0.4c0,0,0,0,0,0.1c-0.1,0.1-0.1,0.2-0.2,0.3c0,0,0,0.1-0.1,0.1
					c-0.1,0.1-0.1,0.2-0.2,0.4c0,0,0,0,0,0c-0.1,0.1-0.1,0.3-0.2,0.4c0,0,0,0.1,0,0.1c0,0.1-0.1,0.2-0.1,0.3c0,0,0,0.1,0,0.1
					c0,0.1-0.1,0.2-0.1,0.3c0,0.1,0,0.1,0,0.2c0,0,0,0,0,0.1c0,0.1-0.1,0.3-0.1,0.4c0,0.1,0,0.1,0,0.2c0,0.1,0,0.2,0,0.2
					c0,0.1,0,0.2,0,0.4v0L50,87.6c0,0.1,0,0.2,0,0.4c0,0.1,0,0.2,0,0.3c0,0.1,0,0.1,0,0.2c0,0.1,0.1,0.3,0.1,0.4
					c0,0.1,0,0.1,0.1,0.2c0,0.1,0,0.1,0.1,0.1c0.1,0.2,0.2,0.3,0.3,0.5c0,0.1,0.1,0.1,0.1,0.1c0,0,0,0,0.1,0.1
					c0.1,0.1,0.1,0.1,0.2,0.1l-0.1,0L15.2,69c-0.2-0.1-0.5-0.3-0.6-0.6c-0.3-0.4-0.4-1-0.4-1.7L14,33.5c0-0.2,0-0.4,0-0.6
					c0,0,0,0,0-0.1c0,0,0-0.1,0-0.1c0-0.1,0-0.2,0.1-0.3c0,0,0-0.1,0-0.1c0,0,0,0,0-0.1c0-0.1,0-0.1,0-0.2c0-0.1,0-0.1,0-0.2
					c0,0,0-0.1,0-0.1c0-0.1,0-0.1,0-0.1c0,0,0-0.1,0-0.1c0-0.1,0-0.1,0.1-0.2c0,0,0-0.1,0-0.1c0,0,0,0,0-0.1c0-0.1,0.1-0.2,0.1-0.3
					c0,0,0,0,0,0c0,0,0,0,0,0c0-0.1,0.1-0.2,0.1-0.3c0,0,0-0.1,0.1-0.1c0,0,0-0.1,0.1-0.1c0,0,0-0.1,0.1-0.1C15,30.1,15,30,15,30
					c0,0,0,0,0-0.1c0,0,0,0,0,0c0.1-0.1,0.1-0.2,0.2-0.3c0,0,0,0,0,0c0,0,0-0.1,0.1-0.1c0-0.1,0.1-0.1,0.1-0.2c0,0,0-0.1,0.1-0.1
					c0,0,0.1-0.1,0.1-0.1c0,0,0-0.1,0.1-0.1c0,0,0.1-0.1,0.1-0.1c0-0.1,0.1-0.1,0.1-0.2c0,0,0-0.1,0.1-0.1c0,0,0.1-0.1,0.1-0.1
					c0.1-0.1,0.2-0.2,0.2-0.3c0,0,0.1-0.1,0.1-0.1c0,0,0,0,0,0c0.2-0.2,0.3-0.3,0.5-0.4c0,0,0.1,0,0.1-0.1c0.2-0.1,0.4-0.3,0.6-0.4
					l28.9-16.7c0.2-0.1,0.3-0.2,0.5-0.2c0,0,0,0,0.1,0c0,0,0.1,0,0.1,0c0.1,0,0.2-0.1,0.3-0.1c0,0,0.1,0,0.1,0c0,0,0.1,0,0.1,0
					c0.1,0,0.1,0,0.1,0c0,0,0.1,0,0.1,0c0,0,0.1,0,0.1,0c0,0,0.1,0,0.1,0c0,0,0,0,0.1,0c0.1,0,0.1,0,0.2,0h0.1c0.1,0,0.1,0,0.2,0
					c0,0,0,0,0,0c0,0,0,0,0.1,0c0,0,0.1,0,0.1,0c0,0,0.1,0,0.1,0c0,0,0,0,0.1,0c0,0,0,0,0,0c0.1,0,0.1,0.1,0.2,0.1c0,0,0,0,0,0
					L62.3,18l5.1,3L84.9,31.1z"/>
				<path style="fill:none;stroke:#000000;stroke-width:1.0627;stroke-miterlimit:10;" d="M84.8,31"/>
				<path style="fill:none;" d="M71.9,18l0-0.1l-0.1,0.2c0,0,0,0,0.1,0L71.9,18z"/>
				<path style="fill:#FFFFFF;" d="M27.3,45.3l1.9,0.9l0-1.8c0-0.3,0-0.7,0.1-1.1l0-0.1l0-0.2c0-0.2,0.1-0.3,0.1-0.5l0-0.1
					c0-0.1,0-0.2,0.1-0.3c0-0.1,0-0.2,0.1-0.3c0-0.2,0.1-0.3,0.1-0.4c0-0.1,0-0.2,0.1-0.2c0-0.1,0.1-0.3,0.1-0.4l0.1-0.2
					c0.1-0.2,0.2-0.4,0.2-0.6l0-0.1c0.1-0.2,0.2-0.3,0.2-0.5l0.1-0.2c0.1-0.2,0.2-0.3,0.3-0.5l0.1-0.1c0.1-0.2,0.2-0.4,0.3-0.6
					l0.1-0.1c0.1-0.2,0.2-0.3,0.3-0.4l0.1-0.2c0.1-0.1,0.2-0.2,0.2-0.3c0.1-0.1,0.1-0.2,0.2-0.3c0.1-0.1,0.1-0.2,0.2-0.2
					c0.1-0.1,0.2-0.3,0.4-0.4c0.1-0.1,0.1-0.1,0.2-0.2c0.3-0.3,0.5-0.5,0.8-0.7l0.1-0.1c0.4-0.3,0.7-0.5,1-0.7l28.3-16.4l5.1,3
					L37.3,39.1c-0.1,0.1-0.2,0.2-0.4,0.3l-0.1,0.1c-0.1,0.1-0.3,0.2-0.4,0.4l-0.1,0.1c-0.1,0.1-0.1,0.1-0.2,0.2L36,40.3
					c0,0.1-0.1,0.1-0.1,0.2c-0.1,0.1-0.1,0.1-0.2,0.2l-0.1,0.1c-0.1,0.1-0.1,0.2-0.2,0.2l0,0.1c-0.1,0.1-0.2,0.3-0.2,0.4l0,0.1
					c-0.1,0.1-0.1,0.2-0.2,0.3L35,41.9c-0.1,0.1-0.1,0.2-0.1,0.3l0,0.1c0,0.1-0.1,0.2-0.1,0.3l0,0.1c0,0.1-0.1,0.2-0.1,0.3l0,0.1
					c0,0.1,0,0.1-0.1,0.2l-0.1,0.3c0,0.1,0,0.1,0,0.2l0,0.1c0,0.2,0,0.3,0,0.5l0.2,3.9l1.7,0.7l-5.1,4.9L27.3,45.3z"/>
			</g>
		</g>
	</g>
</g>
</svg>
