<?xml version="1.0" encoding="utf-8"?>
<!-- Generator: Adobe Illustrator 23.0.1, SVG Export Plug-In . SVG Version: 6.00 Build 0)  -->
<svg version="1.1" id="Layer_1" xmlns="http://www.w3.org/2000/svg" xmlns:xlink="http://www.w3.org/1999/xlink" x="0px" y="0px"
	 viewBox="0 0 100 100" style="enable-background:new 0 0 100 100;" xml:space="preserve">
<g>
	<g>
		<g style="enable-background:new    ;">
			<g>
				<polygon style="fill:#B5BDD4;" points="56.6,29.9 31.5,44.4 18.8,42.8 44,28.2 				"/>
			</g>
			<g>
				
					<linearGradient id="SVGID_1_" gradientUnits="userSpaceOnUse" x1="792.2014" y1="57.823" x2="792.2014" y2="42.7647" gradientTransform="matrix(-1 0 0 1 817.4098 0)">
					<stop  offset="6.297816e-03" style="stop-color:#7FBF7C"/>
					<stop  offset="1" style="stop-color:#E9F4F3"/>
				</linearGradient>
				<polygon style="fill:url(#SVGID_1_);" points="31.6,57.8 18.9,50.5 18.8,42.8 31.5,44.4 				"/>
			</g>
			<g>
				
					<linearGradient id="SVGID_2_" gradientUnits="userSpaceOnUse" x1="785.9158" y1="43.8436" x2="760.6875" y2="43.8436" gradientTransform="matrix(-1 0 0 1 817.4098 0)">
					<stop  offset="6.297816e-03" style="stop-color:#7FBF7C"/>
					<stop  offset="1" style="stop-color:#E9F4F3"/>
				</linearGradient>
				<polygon style="fill:url(#SVGID_2_);" points="31.6,57.8 31.5,44.4 56.6,29.9 56.7,43.3 				"/>
			</g>
			<polygon style="fill:#F4B740;" points="41.2,52.3 41.1,47.3 50.5,41.9 50.6,46.9 			"/>
			<g>
				
					<linearGradient id="SVGID_3_" gradientUnits="userSpaceOnUse" x1="-261.0002" y1="36.931" x2="-259.1092" y2="36.931" gradientTransform="matrix(1 0 0 1 309.3953 0)">
					<stop  offset="5.742611e-03" style="stop-color:#618256"/>
					<stop  offset="1" style="stop-color:#377F58"/>
				</linearGradient>
				<polygon style="fill:url(#SVGID_3_);" points="48.4,38.5 48.4,36.4 50.3,35.3 50.3,37.4 				"/>
				
					<linearGradient id="SVGID_4_" gradientUnits="userSpaceOnUse" x1="-263.543" y1="38.4028" x2="-261.652" y2="38.4028" gradientTransform="matrix(1 0 0 1 309.3953 0)">
					<stop  offset="5.742611e-03" style="stop-color:#618256"/>
					<stop  offset="1" style="stop-color:#377F58"/>
				</linearGradient>
				<polygon style="fill:url(#SVGID_4_);" points="45.9,40 45.9,37.9 47.7,36.8 47.7,38.9 				"/>
				
					<linearGradient id="SVGID_5_" gradientUnits="userSpaceOnUse" x1="-266.0859" y1="39.8746" x2="-264.1948" y2="39.8746" gradientTransform="matrix(1 0 0 1 309.3953 0)">
					<stop  offset="5.742611e-03" style="stop-color:#618256"/>
					<stop  offset="1" style="stop-color:#377F58"/>
				</linearGradient>
				<polygon style="fill:url(#SVGID_5_);" points="43.3,41.5 43.3,39.4 45.2,38.3 45.2,40.4 				"/>
				
					<linearGradient id="SVGID_6_" gradientUnits="userSpaceOnUse" x1="-258.4573" y1="35.4592" x2="-256.5662" y2="35.4592" gradientTransform="matrix(1 0 0 1 309.3953 0)">
					<stop  offset="5.742611e-03" style="stop-color:#618256"/>
					<stop  offset="1" style="stop-color:#377F58"/>
				</linearGradient>
				<polygon style="fill:url(#SVGID_6_);" points="50.9,37.1 50.9,34.9 52.8,33.9 52.8,36 				"/>
				
					<linearGradient id="SVGID_7_" gradientUnits="userSpaceOnUse" x1="-268.6287" y1="41.3464" x2="-266.7377" y2="41.3464" gradientTransform="matrix(1 0 0 1 309.3953 0)">
					<stop  offset="5.742611e-03" style="stop-color:#618256"/>
					<stop  offset="1" style="stop-color:#377F58"/>
				</linearGradient>
				<polygon style="fill:url(#SVGID_7_);" points="40.8,43 40.8,40.8 42.7,39.7 42.7,41.9 				"/>
				
					<linearGradient id="SVGID_8_" gradientUnits="userSpaceOnUse" x1="-255.9145" y1="34.0224" x2="-254.1445" y2="34.0224" gradientTransform="matrix(1 0 0 1 309.3953 0)">
					<stop  offset="5.742611e-03" style="stop-color:#618256"/>
					<stop  offset="1" style="stop-color:#377F58"/>
				</linearGradient>
				<polygon style="fill:url(#SVGID_8_);" points="53.5,35.6 53.5,33.5 55.3,32.4 55.3,34.6 				"/>
				
					<linearGradient id="SVGID_9_" gradientUnits="userSpaceOnUse" x1="-276.1362" y1="45.7268" x2="-274.3662" y2="45.7268" gradientTransform="matrix(1 0 0 1 309.3953 0)">
					<stop  offset="5.742611e-03" style="stop-color:#618256"/>
					<stop  offset="1" style="stop-color:#377F58"/>
				</linearGradient>
				<polygon style="fill:url(#SVGID_9_);" points="33.3,47.3 33.3,45.2 35,44.2 35,46.3 				"/>
				
					<linearGradient id="SVGID_10_" gradientUnits="userSpaceOnUse" x1="-273.7144" y1="44.29" x2="-271.8234" y2="44.29" gradientTransform="matrix(1 0 0 1 309.3953 0)">
					<stop  offset="5.742611e-03" style="stop-color:#618256"/>
					<stop  offset="1" style="stop-color:#377F58"/>
				</linearGradient>
				<polygon style="fill:url(#SVGID_10_);" points="35.7,45.9 35.7,43.8 37.6,42.7 37.6,44.8 				"/>
				
					<linearGradient id="SVGID_11_" gradientUnits="userSpaceOnUse" x1="-271.1715" y1="42.8182" x2="-269.2805" y2="42.8182" gradientTransform="matrix(1 0 0 1 309.3953 0)">
					<stop  offset="5.742611e-03" style="stop-color:#618256"/>
					<stop  offset="1" style="stop-color:#377F58"/>
				</linearGradient>
				<polygon style="fill:url(#SVGID_11_);" points="38.2,44.4 38.2,42.3 40.1,41.2 40.1,43.3 				"/>
				<polygon style="fill:#0E60A9;" points="51.7,43.6 51.7,41.5 53.5,40.5 53.5,42.6 				"/>
				<polygon style="fill:#0E60A9;" points="37.7,51.2 37.7,49.1 39.5,48 39.5,50.2 				"/>
			</g>
			<g>
				<polygon style="fill:#B5BDD4;" points="57.7,29.6 31.2,44.9 17.8,43 44.3,27.7 				"/>
			</g>
			<g>
				
					<linearGradient id="SVGID_12_" gradientUnits="userSpaceOnUse" x1="799.5948" y1="35.6121" x2="759.7474" y2="35.6121" gradientTransform="matrix(-1 0 0 1 817.4098 0)">
					<stop  offset="6.297816e-03" style="stop-color:#8FC07D"/>
					<stop  offset="1" style="stop-color:#377F58"/>
				</linearGradient>
				<polygon style="fill:url(#SVGID_12_);" points="57.7,28.9 31.2,44.2 17.8,42.3 44.3,27 				"/>
			</g>
			
				<linearGradient id="SVGID_13_" gradientUnits="userSpaceOnUse" x1="799.5948" y1="43.6151" x2="786.2542" y2="43.6151" gradientTransform="matrix(-1 0 0 1 817.4098 0)">
				<stop  offset="6.297816e-03" style="stop-color:#8FC07D"/>
				<stop  offset="1" style="stop-color:#377F58"/>
			</linearGradient>
			<polygon style="fill:url(#SVGID_13_);" points="31.2,44.9 17.8,43 17.8,42.3 31.2,44.2 			"/>
			
				<linearGradient id="SVGID_14_" gradientUnits="userSpaceOnUse" x1="759.7474" y1="36.9016" x2="786.2542" y2="36.9016" gradientTransform="matrix(-1 0 0 1 817.4098 0)">
				<stop  offset="6.297816e-03" style="stop-color:#8FC07D"/>
				<stop  offset="1" style="stop-color:#377F58"/>
			</linearGradient>
			<polygon style="fill:url(#SVGID_14_);" points="31.2,44.9 31.2,44.2 57.7,28.9 57.7,29.6 			"/>
			<g>
				<polygon style="fill:#E5AB39;" points="50.1,47.1 50.1,42.1 50.3,42.1 50.3,47 				"/>
				<polygon style="fill:#E5AB39;" points="49.2,47.7 49.2,42.7 49.3,42.6 49.3,47.6 				"/>
				<polygon style="fill:#E5AB39;" points="48.2,48.2 48.2,43.3 48.3,43.2 48.3,48.2 				"/>
				<polygon style="fill:#E5AB39;" points="47.2,48.8 47.2,43.8 47.4,43.7 47.4,48.7 				"/>
				<polygon style="fill:#E5AB39;" points="46.3,49.3 46.3,44.4 46.4,44.3 46.4,49.3 				"/>
				<polygon style="fill:#E5AB39;" points="45.3,49.9 45.3,44.9 45.4,44.9 45.4,49.8 				"/>
				<polygon style="fill:#E5AB39;" points="44.3,50.5 44.3,45.5 44.5,45.4 44.5,50.4 				"/>
				<polygon style="fill:#E5AB39;" points="43.4,51 43.4,46 43.5,46 43.5,50.9 				"/>
				<polygon style="fill:#E5AB39;" points="42.4,51.6 42.4,46.6 42.5,46.5 42.5,51.5 				"/>
				<polygon style="fill:#E5AB39;" points="41.4,52.1 41.4,47.2 41.6,47.1 41.6,52.1 				"/>
			</g>
		</g>
	</g>
	<g>
		
			<linearGradient id="SVGID_15_" gradientUnits="userSpaceOnUse" x1="-283.0074" y1="49.7943" x2="-281.2373" y2="49.7943" gradientTransform="matrix(1 0 0 1 309.3953 0)">
			<stop  offset="5.742611e-03" style="stop-color:#618256"/>
			<stop  offset="1" style="stop-color:#377F58"/>
		</linearGradient>
		<polygon style="fill:url(#SVGID_15_);" points="26.4,50.3 26.4,48.2 28.2,49.2 28.2,51.4 		"/>
		
			<linearGradient id="SVGID_16_" gradientUnits="userSpaceOnUse" x1="-285.5502" y1="48.3575" x2="-283.6591" y2="48.3575" gradientTransform="matrix(1 0 0 1 309.3953 0)">
			<stop  offset="5.742611e-03" style="stop-color:#618256"/>
			<stop  offset="1" style="stop-color:#377F58"/>
		</linearGradient>
		<polygon style="fill:url(#SVGID_16_);" points="25.7,50 23.8,48.9 23.8,46.7 25.7,47.8 		"/>
		
			<linearGradient id="SVGID_17_" gradientUnits="userSpaceOnUse" x1="-288.093" y1="46.8857" x2="-286.2019" y2="46.8857" gradientTransform="matrix(1 0 0 1 309.3953 0)">
			<stop  offset="5.742611e-03" style="stop-color:#618256"/>
			<stop  offset="1" style="stop-color:#377F58"/>
		</linearGradient>
		<polygon style="fill:url(#SVGID_17_);" points="21.3,47.4 21.3,45.3 23.2,46.4 23.2,48.5 		"/>
	</g>
</g>
<g>
	<g>
		<g style="enable-background:new    ;">
			<g>
				<polygon style="fill:#B5BDD4;" points="44.1,51.7 31.5,50.1 56.6,35.6 69.3,37.2 				"/>
			</g>
			<g>
				
					<linearGradient id="SVGID_18_" gradientUnits="userSpaceOnUse" x1="779.5467" y1="65.1771" x2="779.5467" y2="50.1188" gradientTransform="matrix(-1 0 0 1 817.4098 0)">
					<stop  offset="6.297816e-03" style="stop-color:#7FBF7C"/>
					<stop  offset="1" style="stop-color:#E9F4F3"/>
				</linearGradient>
				<polygon style="fill:url(#SVGID_18_);" points="31.6,57.8 31.5,50.1 44.1,51.7 44.2,65.2 				"/>
			</g>
			<g>
				
					<linearGradient id="SVGID_19_" gradientUnits="userSpaceOnUse" x1="773.261" y1="51.1977" x2="748.0328" y2="51.1977" gradientTransform="matrix(-1 0 0 1 817.4098 0)">
					<stop  offset="6.297816e-03" style="stop-color:#7FBF7C"/>
					<stop  offset="1" style="stop-color:#E9F4F3"/>
				</linearGradient>
				<polygon style="fill:url(#SVGID_19_);" points="44.2,65.2 44.1,51.7 69.3,37.2 69.4,50.7 				"/>
			</g>
			<polygon style="fill:#F4B740;" points="53.8,59.6 53.8,54.7 63.2,49.3 63.2,54.2 			"/>
			<g>
				
					<linearGradient id="SVGID_20_" gradientUnits="userSpaceOnUse" x1="-248.3454" y1="44.2851" x2="-246.4544" y2="44.2851" gradientTransform="matrix(1 0 0 1 309.3953 0)">
					<stop  offset="5.742611e-03" style="stop-color:#618256"/>
					<stop  offset="1" style="stop-color:#377F58"/>
				</linearGradient>
				<polygon style="fill:url(#SVGID_20_);" points="61,45.9 61,43.8 62.9,42.7 62.9,44.8 				"/>
				
					<linearGradient id="SVGID_21_" gradientUnits="userSpaceOnUse" x1="-250.8882" y1="45.7569" x2="-248.9972" y2="45.7569" gradientTransform="matrix(1 0 0 1 309.3953 0)">
					<stop  offset="5.742611e-03" style="stop-color:#618256"/>
					<stop  offset="1" style="stop-color:#377F58"/>
				</linearGradient>
				<polygon style="fill:url(#SVGID_21_);" points="58.5,47.4 58.5,45.2 60.4,44.1 60.4,46.3 				"/>
				
					<linearGradient id="SVGID_22_" gradientUnits="userSpaceOnUse" x1="-253.4312" y1="47.2287" x2="-251.5401" y2="47.2287" gradientTransform="matrix(1 0 0 1 309.3953 0)">
					<stop  offset="5.742611e-03" style="stop-color:#618256"/>
					<stop  offset="1" style="stop-color:#377F58"/>
				</linearGradient>
				<polygon style="fill:url(#SVGID_22_);" points="56,48.8 56,46.7 57.9,45.6 57.9,47.7 				"/>
				
					<linearGradient id="SVGID_23_" gradientUnits="userSpaceOnUse" x1="-245.8026" y1="42.8133" x2="-243.9115" y2="42.8133" gradientTransform="matrix(1 0 0 1 309.3953 0)">
					<stop  offset="5.742611e-03" style="stop-color:#618256"/>
					<stop  offset="1" style="stop-color:#377F58"/>
				</linearGradient>
				<polygon style="fill:url(#SVGID_23_);" points="63.6,44.4 63.6,42.3 65.5,41.2 65.5,43.3 				"/>
				
					<linearGradient id="SVGID_24_" gradientUnits="userSpaceOnUse" x1="-255.974" y1="48.7005" x2="-254.0829" y2="48.7005" gradientTransform="matrix(1 0 0 1 309.3953 0)">
					<stop  offset="5.742611e-03" style="stop-color:#618256"/>
					<stop  offset="1" style="stop-color:#377F58"/>
				</linearGradient>
				<polygon style="fill:url(#SVGID_24_);" points="53.4,50.3 53.4,48.2 55.3,47.1 55.3,49.2 				"/>
				
					<linearGradient id="SVGID_25_" gradientUnits="userSpaceOnUse" x1="-243.2597" y1="41.3765" x2="-241.4897" y2="41.3765" gradientTransform="matrix(1 0 0 1 309.3953 0)">
					<stop  offset="5.742611e-03" style="stop-color:#618256"/>
					<stop  offset="1" style="stop-color:#377F58"/>
				</linearGradient>
				<polygon style="fill:url(#SVGID_25_);" points="66.1,42.9 66.1,40.8 67.9,39.8 67.9,41.9 				"/>
				
					<linearGradient id="SVGID_26_" gradientUnits="userSpaceOnUse" x1="-263.4815" y1="53.0809" x2="-261.7115" y2="53.0809" gradientTransform="matrix(1 0 0 1 309.3953 0)">
					<stop  offset="5.742611e-03" style="stop-color:#618256"/>
					<stop  offset="1" style="stop-color:#377F58"/>
				</linearGradient>
				<polygon style="fill:url(#SVGID_26_);" points="45.9,54.7 45.9,52.5 47.7,51.5 47.7,53.6 				"/>
				
					<linearGradient id="SVGID_27_" gradientUnits="userSpaceOnUse" x1="-261.0597" y1="51.6441" x2="-259.1686" y2="51.6441" gradientTransform="matrix(1 0 0 1 309.3953 0)">
					<stop  offset="5.742611e-03" style="stop-color:#618256"/>
					<stop  offset="1" style="stop-color:#377F58"/>
				</linearGradient>
				<polygon style="fill:url(#SVGID_27_);" points="48.3,53.3 48.3,51.1 50.2,50 50.2,52.2 				"/>
				
					<linearGradient id="SVGID_28_" gradientUnits="userSpaceOnUse" x1="-258.5168" y1="50.1723" x2="-256.6258" y2="50.1723" gradientTransform="matrix(1 0 0 1 309.3953 0)">
					<stop  offset="5.742611e-03" style="stop-color:#618256"/>
					<stop  offset="1" style="stop-color:#377F58"/>
				</linearGradient>
				<polygon style="fill:url(#SVGID_28_);" points="50.9,51.8 50.9,49.7 52.8,48.6 52.8,50.7 				"/>
				<polygon style="fill:#0E60A9;" points="64.4,51 64.4,48.9 66.1,47.8 66.1,50 				"/>
				<polygon style="fill:#0E60A9;" points="50.4,58.5 50.4,56.4 52.2,55.4 52.2,57.5 				"/>
			</g>
			<g>
				<polygon style="fill:#B5BDD4;" points="43.8,52.3 30.5,50.4 57,35.1 70.3,37 				"/>
			</g>
			<g>
				
					<linearGradient id="SVGID_29_" gradientUnits="userSpaceOnUse" x1="786.94" y1="42.9662" x2="747.0927" y2="42.9662" gradientTransform="matrix(-1 0 0 1 817.4098 0)">
					<stop  offset="6.297816e-03" style="stop-color:#8FC07D"/>
					<stop  offset="1" style="stop-color:#377F58"/>
				</linearGradient>
				<polygon style="fill:url(#SVGID_29_);" points="43.8,51.6 30.5,49.7 57,34.4 70.3,36.3 				"/>
			</g>
			
				<linearGradient id="SVGID_30_" gradientUnits="userSpaceOnUse" x1="786.94" y1="50.9692" x2="773.5994" y2="50.9692" gradientTransform="matrix(-1 0 0 1 817.4098 0)">
				<stop  offset="6.297816e-03" style="stop-color:#8FC07D"/>
				<stop  offset="1" style="stop-color:#377F58"/>
			</linearGradient>
			<polygon style="fill:url(#SVGID_30_);" points="30.5,50.4 30.5,49.7 43.8,51.6 43.8,52.3 			"/>
			
				<linearGradient id="SVGID_31_" gradientUnits="userSpaceOnUse" x1="747.0927" y1="44.2557" x2="773.5994" y2="44.2557" gradientTransform="matrix(-1 0 0 1 817.4098 0)">
				<stop  offset="6.297816e-03" style="stop-color:#8FC07D"/>
				<stop  offset="1" style="stop-color:#377F58"/>
			</linearGradient>
			<polygon style="fill:url(#SVGID_31_);" points="43.8,52.3 43.8,51.6 70.3,36.3 70.3,37 			"/>
			<g>
				<polygon style="fill:#E5AB39;" points="62.8,54.5 62.8,49.5 62.9,49.4 62.9,54.4 				"/>
				<polygon style="fill:#E5AB39;" points="61.8,55 61.8,50 61.9,50 61.9,54.9 				"/>
				<polygon style="fill:#E5AB39;" points="60.9,55.6 60.9,50.6 61,50.5 61,55.5 				"/>
				<polygon style="fill:#E5AB39;" points="59.9,56.1 59.9,51.2 60,51.1 60,56.1 				"/>
				<polygon style="fill:#E5AB39;" points="58.9,56.7 58.9,51.7 59.1,51.7 59.1,56.6 				"/>
				<polygon style="fill:#E5AB39;" points="58,57.2 58,52.3 58.1,52.2 58.1,57.2 				"/>
				<polygon style="fill:#E5AB39;" points="57,57.8 57,52.8 57.1,52.8 57.1,57.7 				"/>
				<polygon style="fill:#E5AB39;" points="56,58.4 56,53.4 56.2,53.3 56.2,58.3 				"/>
				<polygon style="fill:#E5AB39;" points="55.1,58.9 55.1,54 55.2,53.9 55.2,58.9 				"/>
				<polygon style="fill:#E5AB39;" points="54.1,59.5 54.1,54.5 54.2,54.4 54.2,59.4 				"/>
			</g>
		</g>
	</g>
</g>
<g>
	<polygon style="fill:#B5BDD4;" points="56.8,59.1 44.1,57.5 69.3,43 81.9,44.6 	"/>
</g>
<g>
	
		<linearGradient id="SVGID_32_" gradientUnits="userSpaceOnUse" x1="766.8913" y1="72.5289" x2="766.8913" y2="57.4706" gradientTransform="matrix(-1 0 0 1 817.4098 0)">
		<stop  offset="6.297816e-03" style="stop-color:#7FBF7C"/>
		<stop  offset="1" style="stop-color:#E9F4F3"/>
	</linearGradient>
	<polygon style="fill:url(#SVGID_32_);" points="44.2,65.2 44.1,57.5 56.8,59.1 56.9,72.5 	"/>
</g>
<g>
	
		<linearGradient id="SVGID_33_" gradientUnits="userSpaceOnUse" x1="760.6057" y1="58.5496" x2="735.3773" y2="58.5496" gradientTransform="matrix(-1 0 0 1 817.4098 0)">
		<stop  offset="6.297816e-03" style="stop-color:#7FBF7C"/>
		<stop  offset="1" style="stop-color:#E9F4F3"/>
	</linearGradient>
	<polygon style="fill:url(#SVGID_33_);" points="82,58 56.9,72.5 56.8,59.1 81.9,44.6 	"/>
</g>
<g>
	
		<linearGradient id="SVGID_34_" gradientUnits="userSpaceOnUse" x1="-235.69" y1="51.6369" x2="-233.799" y2="51.6369" gradientTransform="matrix(1 0 0 1 309.3953 0)">
		<stop  offset="5.742611e-03" style="stop-color:#618256"/>
		<stop  offset="1" style="stop-color:#377F58"/>
	</linearGradient>
	<polygon style="fill:url(#SVGID_34_);" points="73.7,53.2 73.7,51.1 75.6,50 75.6,52.2 	"/>
	
		<linearGradient id="SVGID_35_" gradientUnits="userSpaceOnUse" x1="-238.2329" y1="53.1087" x2="-236.3418" y2="53.1087" gradientTransform="matrix(1 0 0 1 309.3953 0)">
		<stop  offset="5.742611e-03" style="stop-color:#618256"/>
		<stop  offset="1" style="stop-color:#377F58"/>
	</linearGradient>
	<polygon style="fill:url(#SVGID_35_);" points="71.2,54.7 71.2,52.6 73.1,51.5 73.1,53.6 	"/>
	
		<linearGradient id="SVGID_36_" gradientUnits="userSpaceOnUse" x1="-233.1472" y1="50.1651" x2="-231.2561" y2="50.1651" gradientTransform="matrix(1 0 0 1 309.3953 0)">
		<stop  offset="5.742611e-03" style="stop-color:#618256"/>
		<stop  offset="1" style="stop-color:#377F58"/>
	</linearGradient>
	<polygon style="fill:url(#SVGID_36_);" points="78.1,50.7 76.2,51.8 76.2,49.7 78.1,48.6 	"/>
	
		<linearGradient id="SVGID_37_" gradientUnits="userSpaceOnUse" x1="-230.6043" y1="48.7284" x2="-228.8343" y2="48.7284" gradientTransform="matrix(1 0 0 1 309.3953 0)">
		<stop  offset="5.742611e-03" style="stop-color:#618256"/>
		<stop  offset="1" style="stop-color:#377F58"/>
	</linearGradient>
	<polygon style="fill:url(#SVGID_37_);" points="78.8,50.3 78.8,48.2 80.6,47.2 80.6,49.3 	"/>
</g>
<g>
	<polygon style="fill:#B5BDD4;" points="56.5,59.6 43.1,57.7 69.6,42.4 83,44.3 	"/>
</g>
<g>
	
		<linearGradient id="SVGID_38_" gradientUnits="userSpaceOnUse" x1="774.2846" y1="50.318" x2="734.4373" y2="50.318" gradientTransform="matrix(-1 0 0 1 817.4098 0)">
		<stop  offset="6.297816e-03" style="stop-color:#8FC07D"/>
		<stop  offset="1" style="stop-color:#377F58"/>
	</linearGradient>
	<polygon style="fill:url(#SVGID_38_);" points="56.5,58.9 43.1,57 69.6,41.7 83,43.6 	"/>
</g>
<linearGradient id="SVGID_39_" gradientUnits="userSpaceOnUse" x1="774.2846" y1="58.321" x2="760.944" y2="58.321" gradientTransform="matrix(-1 0 0 1 817.4098 0)">
	<stop  offset="6.297816e-03" style="stop-color:#8FC07D"/>
	<stop  offset="1" style="stop-color:#377F58"/>
</linearGradient>
<polygon style="fill:url(#SVGID_39_);" points="43.1,57.7 43.1,57 56.5,58.9 56.5,59.6 "/>
<linearGradient id="SVGID_40_" gradientUnits="userSpaceOnUse" x1="734.4373" y1="48.9692" x2="751.8044" y2="48.9692" gradientTransform="matrix(-1 0 0 1 817.4098 0)">
	<stop  offset="6.297816e-03" style="stop-color:#8FC07D"/>
	<stop  offset="1" style="stop-color:#377F58"/>
</linearGradient>
<polygon style="fill:url(#SVGID_40_);" points="83,44.3 65.6,54.3 69.7,51.3 83,43.6 "/>
<linearGradient id="SVGID_41_" gradientUnits="userSpaceOnUse" x1="747.6882" y1="55.4328" x2="760.944" y2="55.4328" gradientTransform="matrix(-1 0 0 1 817.4098 0)">
	<stop  offset="6.297816e-03" style="stop-color:#8FC07D"/>
	<stop  offset="1" style="stop-color:#377F58"/>
</linearGradient>
<polygon style="fill:url(#SVGID_41_);" points="56.5,59.6 56.5,58.9 69.7,51.3 65.6,54.3 "/>
<g>
	
		<linearGradient id="SVGID_42_" gradientUnits="userSpaceOnUse" x1="-257.6972" y1="64.5003" x2="-255.9272" y2="64.5003" gradientTransform="matrix(1 0 0 1 309.3953 0)">
		<stop  offset="5.742611e-03" style="stop-color:#618256"/>
		<stop  offset="1" style="stop-color:#377F58"/>
	</linearGradient>
	<polygon style="fill:url(#SVGID_42_);" points="51.7,65 51.7,62.9 53.5,64 53.5,66.1 	"/>
	
		<linearGradient id="SVGID_43_" gradientUnits="userSpaceOnUse" x1="-260.24" y1="63.0635" x2="-258.349" y2="63.0635" gradientTransform="matrix(1 0 0 1 309.3953 0)">
		<stop  offset="5.742611e-03" style="stop-color:#618256"/>
		<stop  offset="1" style="stop-color:#377F58"/>
	</linearGradient>
	<polygon style="fill:url(#SVGID_43_);" points="49.2,63.6 49.2,61.5 51,62.5 51,64.7 	"/>
	
		<linearGradient id="SVGID_44_" gradientUnits="userSpaceOnUse" x1="-262.7829" y1="61.5917" x2="-260.8918" y2="61.5917" gradientTransform="matrix(1 0 0 1 309.3953 0)">
		<stop  offset="5.742611e-03" style="stop-color:#618256"/>
		<stop  offset="1" style="stop-color:#377F58"/>
	</linearGradient>
	<polygon style="fill:url(#SVGID_44_);" points="46.6,62.1 46.6,60 48.5,61.1 48.5,63.2 	"/>
</g>
<g id="tuyaux_1_">
	<g>
		
			<linearGradient id="SVGID_45_" gradientUnits="userSpaceOnUse" x1="-1550.6868" y1="63.4417" x2="-1548.954" y2="63.4417" gradientTransform="matrix(1 0 0 1 1624.7147 0)">
			<stop  offset="6.778585e-03" style="stop-color:#92D4F6"/>
			<stop  offset="0.2627" style="stop-color:#A5DBF4"/>
			<stop  offset="0.7343" style="stop-color:#C4E5F1"/>
			<stop  offset="1" style="stop-color:#CFE9F0"/>
		</linearGradient>
		<path style="opacity:0.2;fill:url(#SVGID_45_);" d="M75.5,63.1c-0.3-0.2-0.9-0.2-1.2,0c-0.3,0.2-0.3,0.5,0,0.7
			c0.3,0.2,0.9,0.2,1.2,0l0,0C75.8,63.6,75.8,63.3,75.5,63.1L75.5,63.1z"/>
		<g>
			<path style="fill:#57AD5C;" d="M75.4,63.2c-0.3-0.1-0.7-0.1-0.9,0c-0.3,0.1-0.3,0.4,0,0.5c0.3,0.1,0.7,0.1,0.9,0l0,0
				C75.6,63.6,75.6,63.3,75.4,63.2L75.4,63.2z"/>
			<path style="fill:#57AD5C;" d="M73.5,59.6c-0.3,0.1-0.5,0.5-0.5,0.8c0,0.3,0.2,0.4,0.5,0.3l0,0c0.3-0.1,0.5-0.5,0.5-0.8
				C74,59.6,73.8,59.5,73.5,59.6z"/>
			
				<linearGradient id="SVGID_46_" gradientUnits="userSpaceOnUse" x1="-236.0749" y1="61.5059" x2="-233.8491" y2="61.5059" gradientTransform="matrix(1 0 0 1 309.3953 0)">
				<stop  offset="6.297816e-03" style="stop-color:#8FC07D"/>
				<stop  offset="1" style="stop-color:#377F58"/>
			</linearGradient>
			<path style="fill:url(#SVGID_46_);" d="M75.5,63.4v-1.7c0-1.8-1.7-2.2-1.7-2.2l-0.5,1.2c0.9,0.3,0.9,1.2,0.9,1.2v1.5H75.5z"/>
		</g>
	</g>
	<g>
		
			<linearGradient id="SVGID_47_" gradientUnits="userSpaceOnUse" x1="-1548.9473" y1="62.5668" x2="-1547.2146" y2="62.5668" gradientTransform="matrix(1 0 0 1 1624.7147 0)">
			<stop  offset="6.778585e-03" style="stop-color:#92D4F6"/>
			<stop  offset="0.2627" style="stop-color:#A5DBF4"/>
			<stop  offset="0.7343" style="stop-color:#C4E5F1"/>
			<stop  offset="1" style="stop-color:#CFE9F0"/>
		</linearGradient>
		<path style="opacity:0.2;fill:url(#SVGID_47_);" d="M77.2,62.2c-0.3-0.2-0.9-0.2-1.2,0c-0.3,0.2-0.3,0.5,0,0.7
			c0.3,0.2,0.9,0.2,1.2,0l0,0C77.6,62.7,77.6,62.4,77.2,62.2L77.2,62.2z"/>
		<g>
			<path style="fill:#57AD5C;" d="M77.1,62.3c-0.3-0.1-0.7-0.1-0.9,0c-0.3,0.1-0.3,0.4,0,0.5c0.3,0.1,0.7,0.1,0.9,0l0,0
				C77.3,62.7,77.3,62.4,77.1,62.3L77.1,62.3z"/>
			<path style="fill:#57AD5C;" d="M75.3,58.7c-0.3,0.1-0.5,0.5-0.5,0.8c0,0.3,0.2,0.4,0.5,0.3l0,0c0.3-0.1,0.5-0.5,0.5-0.8
				C75.8,58.7,75.5,58.6,75.3,58.7z"/>
			
				<linearGradient id="SVGID_48_" gradientUnits="userSpaceOnUse" x1="-234.3355" y1="60.631" x2="-232.1097" y2="60.631" gradientTransform="matrix(1 0 0 1 309.3953 0)">
				<stop  offset="6.297816e-03" style="stop-color:#8FC07D"/>
				<stop  offset="1" style="stop-color:#377F58"/>
			</linearGradient>
			<path style="fill:url(#SVGID_48_);" d="M77.3,62.6v-1.7c0-1.8-1.7-2.2-1.7-2.2l-0.5,1.2C76,60.2,76,61,76,61v1.5H77.3z"/>
		</g>
	</g>
	<g>
		
			<linearGradient id="SVGID_49_" gradientUnits="userSpaceOnUse" x1="-1547.2759" y1="61.7471" x2="-1545.5431" y2="61.7471" gradientTransform="matrix(1 0 0 1 1624.7147 0)">
			<stop  offset="6.778585e-03" style="stop-color:#92D4F6"/>
			<stop  offset="0.2627" style="stop-color:#A5DBF4"/>
			<stop  offset="0.7343" style="stop-color:#C4E5F1"/>
			<stop  offset="1" style="stop-color:#CFE9F0"/>
		</linearGradient>
		<path style="opacity:0.2;fill:url(#SVGID_49_);" d="M78.9,61.4c-0.3-0.2-0.9-0.2-1.2,0c-0.3,0.2-0.3,0.5,0,0.7
			c0.3,0.2,0.9,0.2,1.2,0l0,0C79.3,61.9,79.3,61.6,78.9,61.4L78.9,61.4z"/>
		<g>
			<path style="fill:#57AD5C;" d="M78.8,61.5c-0.3-0.1-0.7-0.1-0.9,0c-0.3,0.1-0.3,0.4,0,0.5c0.3,0.1,0.7,0.1,0.9,0l0,0
				C79,61.9,79,61.6,78.8,61.5L78.8,61.5z"/>
			<path style="fill:#57AD5C;" d="M77,57.9c-0.3,0.1-0.5,0.5-0.5,0.8c0,0.3,0.2,0.4,0.5,0.3l0,0c0.3-0.1,0.5-0.5,0.5-0.8
				C77.4,57.9,77.2,57.8,77,57.9z"/>
			
				<linearGradient id="SVGID_50_" gradientUnits="userSpaceOnUse" x1="-232.664" y1="59.8112" x2="-230.4382" y2="59.8112" gradientTransform="matrix(1 0 0 1 309.3953 0)">
				<stop  offset="6.297816e-03" style="stop-color:#8FC07D"/>
				<stop  offset="1" style="stop-color:#377F58"/>
			</linearGradient>
			<path style="fill:url(#SVGID_50_);" d="M79,61.7v-1.7c0-1.8-1.7-2.2-1.7-2.2L76.7,59c0.9,0.3,0.9,1.2,0.9,1.2v1.5H79z"/>
		</g>
	</g>
</g>
</svg>
