<?xml version="1.0" encoding="utf-8"?>
<!-- Generator: Adobe Illustrator 23.0.1, SVG Export Plug-In . SVG Version: 6.00 Build 0)  -->
<svg version="1.1" id="Layer_1" xmlns="http://www.w3.org/2000/svg" xmlns:xlink="http://www.w3.org/1999/xlink" x="0px" y="0px"
	 viewBox="0 0 100 100" style="enable-background:new 0 0 100 100;" xml:space="preserve">
<polygon style="fill:#C0C3C6;" points="97.6,55.6 97.6,55.6 97.6,55.6 "/>
<path style="fill:#C0C3C6;" d="M4.1,58.3c0,0.9,0.6,1.7,1.7,2.4L44,82.9c2.2,1.3,5.9,1.3,8.2,0l43.7-25c1.1-0.7,1.7-1.5,1.7-2.4v1.3
	h0c0,0.9-0.6,1.7-1.7,2.4l-43.7,25c-2.3,1.3-5.9,1.3-8.2,0L5.8,61.9c-1.1-0.7-1.7-1.5-1.7-2.4h0L4.1,58.3L4.1,58.3z"/>
<path style="fill:#EEF1F3;" d="M95.9,57.9l-43.7,25c-2.3,1.3-5.9,1.3-8.2,0L5.8,60.7c-1.1-0.7-1.7-1.5-1.7-2.4
	c0-0.9,0.6-1.7,1.7-2.4l43.7-25c2.3-1.3,5.9-1.3,8.2,0l38.1,22.2c1.1,0.7,1.7,1.5,1.7,2.4c0,0,0,0,0,0C97.6,56.4,97,57.3,95.9,57.9z
	"/>
</svg>
