<?xml version="1.0" encoding="utf-8"?>
<!-- Generator: Adobe Illustrator 23.0.1, SVG Export Plug-In . SVG Version: 6.00 Build 0)  -->
<svg version="1.1" id="Layer_1" xmlns="http://www.w3.org/2000/svg" xmlns:xlink="http://www.w3.org/1999/xlink" x="0px" y="0px"
	 viewBox="0 0 100 100" style="enable-background:new 0 0 100 100;" xml:space="preserve">
<path style="fill:#C0C3C6;" d="M97.6,55.6L97.6,55.6L97.6,55.6z"/>
<g id="tee_5_">
	<g id="base_34_">
		<g style="opacity:0.24;">
			
				<linearGradient id="SVGID_1_" gradientUnits="userSpaceOnUse" x1="682.1551" y1="60.6506" x2="679.4145" y2="55.9038" gradientTransform="matrix(-1 0 0 -1 724.748 100)">
				<stop  offset="0" style="stop-color:#6485C3;stop-opacity:0"/>
				<stop  offset="0.2111" style="stop-color:#6A8BC6;stop-opacity:0.1266"/>
				<stop  offset="0.4949" style="stop-color:#7A9CCF;stop-opacity:0.297"/>
				<stop  offset="0.8189" style="stop-color:#95B8DE;stop-opacity:0.4913"/>
				<stop  offset="1" style="stop-color:#A7CBE8;stop-opacity:0.6"/>
			</linearGradient>
			<path style="fill:url(#SVGID_1_);" d="M39,41.4c-0.3,0.2-0.3,0.5,0,0.6l4.4,2.5c0.3,0.2,0.8,0.2,1.1,0l4.4-2.5
				c0.3-0.2,0.3-0.5,0-0.6l-4.4-2.5c-0.3-0.2-0.8-0.2-1.1,0L39,41.4z"/>
		</g>
		<g>
			
				<linearGradient id="SVGID_2_" gradientUnits="userSpaceOnUse" x1="675.6393" y1="60.2" x2="685.9594" y2="60.2" gradientTransform="matrix(-1 0 0 -1 724.748 100)">
				<stop  offset="0" style="stop-color:#74C7F0"/>
				<stop  offset="0.3181" style="stop-color:#A1D9F5"/>
				<stop  offset="1" style="stop-color:#FFFFFF"/>
			</linearGradient>
			<path style="fill:url(#SVGID_2_);" d="M39,39.5c-0.3,0.2-0.3,0.5,0,0.6l4.4,2.5c0.3,0.2,0.8,0.2,1.1,0l4.4-2.5
				c0.3-0.2,0.3-0.5,0-0.6L44.5,37c-0.3-0.2-0.8-0.2-1.1,0L39,39.5z"/>
		</g>
		<g>
			
				<linearGradient id="SVGID_3_" gradientUnits="userSpaceOnUse" x1="676.0913" y1="60.1" x2="685.507" y2="60.1" gradientTransform="matrix(-1 0 0 -1 724.748 100)">
				<stop  offset="0" style="stop-color:#57AD5C"/>
				<stop  offset="1" style="stop-color:#80C07C"/>
			</linearGradient>
			<path style="fill:url(#SVGID_3_);" d="M43.9,42.5c0.1,0,0.3,0,0.4-0.1l4.4-2.5l-4.3-2.5c-0.1,0-0.2-0.1-0.4-0.1
				c-0.1,0-0.3,0-0.4,0.1l-4.4,2.5l4.3,2.5C43.7,42.4,43.8,42.5,43.9,42.5z"/>
		</g>
		
			<linearGradient id="SVGID_4_" gradientUnits="userSpaceOnUse" x1="675.6367" y1="58.5" x2="685.9594" y2="58.5" gradientTransform="matrix(-1 0 0 -1 724.748 100)">
			<stop  offset="0" style="stop-color:#6FBB84"/>
			<stop  offset="1" style="stop-color:#57AD5C"/>
		</linearGradient>
		<path style="fill:url(#SVGID_4_);" d="M38.8,39.9L38.8,39.9L38.8,39.9L38.8,39.9L38.8,39.9C38.8,40,38.8,40,38.8,39.9L38.8,39.9
			L38.8,39.9L38.8,39.9L38.8,39.9L38.8,39.9L38.8,39.9L38.8,39.9L38.8,39.9L38.8,39.9L38.8,39.9l4.4,2.6c0,0,0,0,0.1,0l0,0
			c0,0,0,0,0.1,0l0,0l0,0l0,0l0,0l0,0h0.1l0,0c0,0,0,0,0.1,0l0,0l0,0l0,0l0,0l0,0l0,0l0,0l0,0l0,0l0,0l0,0h0.1l0,0
			c0,0,0.1,0,0.1-0.1l4.4-2.5c0.2-0.1,0.2-0.2,0.2-0.3v0.9c0,0.1-0.1,0.2-0.2,0.3l-4.4,2.5c0,0-0.1,0-0.1,0.1l0,0l0,0h-0.1l0,0l0,0
			l0,0l0,0l0,0l0,0l0,0l0,0l0,0l0,0l0,0l0,0l0,0l0,0l0,0l0,0l0,0c0,0,0,0-0.1,0l0,0l0,0h-0.1l0,0l0,0l0,0l0,0l0,0l0,0l0,0
			c0,0,0,0-0.1,0l0,0c0,0,0,0-0.1,0L39,41.1l0,0l0,0l0,0l0,0l0,0l0,0l0,0l0,0l0,0l0,0l0,0l0,0l0,0l0,0l0,0l0,0l0,0l0,0l0,0l0,0l0,0
			l0,0l0,0L38.8,39.9z"/>
	</g>
	<g id="tee_6_">
		
			<linearGradient id="SVGID_5_" gradientUnits="userSpaceOnUse" x1="-267.4489" y1="64.3321" x2="-265.6491" y2="67.4495" gradientTransform="matrix(1 0 0 -1 309.3953 100)">
			<stop  offset="0" style="stop-color:#E95281"/>
			<stop  offset="1" style="stop-color:#BF3D62"/>
		</linearGradient>
		<path style="fill:url(#SVGID_5_);" d="M42.9,32c-0.4,0-0.9,0.8-1,1.5c-0.1,0.5-0.1,1.2-0.1,1.9c0,0,0.5,0.6,1.8,0
			C43.3,34.9,43.5,33.3,42.9,32z"/>
		<g>
			
				<linearGradient id="SVGID_6_" gradientUnits="userSpaceOnUse" x1="-267.0732" y1="60.7331" x2="-263.4811" y2="66.9548" gradientTransform="matrix(1 0 0 -1 309.3953 100)">
				<stop  offset="0" style="stop-color:#E95281"/>
				<stop  offset="1" style="stop-color:#BF3D62"/>
			</linearGradient>
			<path style="fill:url(#SVGID_6_);" d="M42,38.6c0,0,0.3,0.9,1.7,1.3c0.1,0,0.2,0,0.3,0.1c1,0.1,2-0.2,2.1-0.7c0,0-0.2-1.6,0.2-3
				c0.1-0.5,0.2-1,0.2-1.5c0-0.1,0-0.2,0-0.3c0-0.5-0.1-0.9-0.3-1.1c0-0.1-0.1-0.1-0.2-0.2c-0.1-0.1-0.2-0.2-0.4-0.3l-0.1-0.1
				c-0.5-0.3-1.2-0.6-1.8-0.7c-0.1,0-0.1,0-0.2,0c-0.1,0-0.1,0-0.2,0c-1-0.2-1.2,1.1-1.2,1.7c0,0.6,0.1,2.1,0.1,2.9
				C42.2,37.2,42,38.6,42,38.6z"/>
		</g>
		
			<linearGradient id="SVGID_7_" gradientUnits="userSpaceOnUse" x1="-265.3994" y1="62.7404" x2="-262.8815" y2="62.7404" gradientTransform="matrix(1 0 0 -1 309.3953 100)">
			<stop  offset="0" style="stop-color:#E95281"/>
			<stop  offset="1" style="stop-color:#BF3D62"/>
		</linearGradient>
		<path style="fill:url(#SVGID_7_);" d="M44,40c1,0.1,2-0.2,2.1-0.7c0,0-0.2-1.6,0.2-3c0.1-0.5,0.2-1,0.2-1.5c0-0.1,0-0.2,0-0.3
			l-1.3,0.7c0,0-0.2,3-0.3,3.9C44.8,39.5,44.6,39.8,44,40z"/>
		
			<linearGradient id="SVGID_8_" gradientUnits="userSpaceOnUse" x1="-264.0316" y1="63.1101" x2="-262.2937" y2="66.1201" gradientTransform="matrix(1 0 0 -1 309.3953 100)">
			<stop  offset="0" style="stop-color:#E95281"/>
			<stop  offset="1" style="stop-color:#BF3D62"/>
		</linearGradient>
		<path style="fill:url(#SVGID_8_);" d="M46.2,33.4c-0.2-0.1-0.7,0-0.9,0.7c-0.2,0.5-0.1,2-0.1,2.8c0,0,1.1,0.6,2-0.2
			C47.1,35.9,47,34.2,46.2,33.4z"/>
		
			<linearGradient id="SVGID_9_" gradientUnits="userSpaceOnUse" x1="-265.7843" y1="67.4156" x2="-263.942" y2="67.4156" gradientTransform="matrix(1 0 0 -1 309.3953 100)">
			<stop  offset="0" style="stop-color:#E95281"/>
			<stop  offset="1" style="stop-color:#BF3D62"/>
		</linearGradient>
		<path style="fill:url(#SVGID_9_);" d="M44.1,33c-0.4-0.2-0.5-0.6-0.4-0.8v-0.1l0,0c0.6,0.1,1.3,0.4,1.8,0.7l0,0c0,0,0,0-0.1,0.1
			C45.1,32.9,44.5,33.2,44.1,33z"/>
		<path style="fill:#FFFFFF;" d="M44,33.2c0.6,0.2,1.3-0.2,1.6-0.3l-0.1-0.1l0,0c-0.5-0.3-1.2-0.6-1.8-0.7l0,0l0,0
			c-0.1,0-0.1,0-0.2,0C43.4,32.4,43.4,32.9,44,33.2z M43.6,32.2c0.5,0.1,1.4,0.5,1.7,0.7C45,33,44.5,33.2,44,33.1
			C43.7,32.9,43.6,32.4,43.6,32.2z"/>
	</g>
</g>
</svg>
