<?xml version="1.0" encoding="utf-8"?>
<!-- Generator: Adobe Illustrator 23.0.1, SVG Export Plug-In . SVG Version: 6.00 Build 0)  -->
<svg version="1.1" id="Layer_1" xmlns="http://www.w3.org/2000/svg" xmlns:xlink="http://www.w3.org/1999/xlink" x="0px" y="0px"
	 viewBox="0 0 100 100" style="enable-background:new 0 0 100 100;" xml:space="preserve">
<style type="text/css">
	.st0{fill:url(#SVGID_1_);}
	.st1{fill:url(#SVGID_2_);}
	.st2{opacity:0.4;}
	.st3{fill:url(#SVGID_3_);}
	.st4{fill:url(#SVGID_4_);}
	.st5{fill:url(#SVGID_5_);}
	.st6{fill:url(#SVGID_6_);}
	.st7{fill:url(#SVGID_7_);}
	.st8{fill:url(#SVGID_8_);}
	.st9{fill:url(#SVGID_9_);}
	.st10{fill:url(#SVGID_10_);}
	
		.st11{opacity:0.2;fill:none;stroke:#FFFFFF;stroke-width:0.9021;stroke-linecap:round;stroke-miterlimit:10;enable-background:new    ;}
	.st12{fill:none;stroke:url(#tuyau-3_1_);stroke-width:1.2032;stroke-linecap:round;stroke-linejoin:round;stroke-miterlimit:10;}
	.st13{fill:none;stroke:url(#tuyau-4_2_);stroke-width:1.2336;stroke-linecap:round;stroke-miterlimit:10;}
	.st14{opacity:0.6;fill:#8EC498;enable-background:new    ;}
</style>
<g id="tuyau-2_2_">
	
		<linearGradient id="SVGID_1_" gradientUnits="userSpaceOnUse" x1="-204.7577" y1="59.1517" x2="-230.3785" y2="44.8005" gradientTransform="matrix(1 0 0 -1 309.3953 100)">
		<stop  offset="6.297816e-03" style="stop-color:#7FBF7C"/>
		<stop  offset="1" style="stop-color:#E9F4F3"/>
	</linearGradient>
	<path class="st0" d="M93.4,45.3L76.7,55l1.5,2.5l16.7-9.6C94.9,47.9,94.2,45.4,93.4,45.3"/>
	
		<linearGradient id="SVGID_2_" gradientUnits="userSpaceOnUse" x1="-215.4935" y1="53.3853" x2="-215.4935" y2="49.3455" gradientTransform="matrix(1 0 0 -1 309.3953 100)">
		<stop  offset="6.297816e-03" style="stop-color:#7FBF7C"/>
		<stop  offset="1" style="stop-color:#E9F4F3"/>
	</linearGradient>
	<path class="st1" d="M94.6,48.3c-0.1,0-0.2,0-0.2-0.1c0-0.6-0.1-1.1-0.4-1.6c-0.3-0.4-0.8-0.8-1.1-1c-0.1,0-0.1-0.2,0-0.2
		c0,0,0.8-0.5,1.7,1C95.2,47.3,95,48.2,94.6,48.3z"/>
	<g>
		<g class="st2">
			
				<linearGradient id="SVGID_3_" gradientUnits="userSpaceOnUse" x1="-224.7074" y1="42.718" x2="-226.8795" y2="46.2247" gradientTransform="matrix(1 0 0 -1 309.3953 100)">
				<stop  offset="5.376340e-03" style="stop-color:#23398D"/>
				<stop  offset="0.3102" style="stop-color:#456FA8"/>
				<stop  offset="0.6252" style="stop-color:#64A0C0"/>
				<stop  offset="0.8653" style="stop-color:#78BFCF"/>
				<stop  offset="1" style="stop-color:#7FCAD5"/>
			</linearGradient>
			<path class="st3" d="M82.8,54.8c0.2-1.8-1.4-2.5-1.4-2.5h0.1C81.6,52.3,83.1,53.1,82.8,54.8L82.8,54.8z"/>
		</g>
		<g class="st2">
			
				<linearGradient id="SVGID_4_" gradientUnits="userSpaceOnUse" x1="-226.4206" y1="41.7261" x2="-228.5928" y2="45.2328" gradientTransform="matrix(1 0 0 -1 309.3953 100)">
				<stop  offset="5.376340e-03" style="stop-color:#23398D"/>
				<stop  offset="0.3102" style="stop-color:#456FA8"/>
				<stop  offset="0.6252" style="stop-color:#64A0C0"/>
				<stop  offset="0.8653" style="stop-color:#78BFCF"/>
				<stop  offset="1" style="stop-color:#7FCAD5"/>
			</linearGradient>
			<path class="st4" d="M81.1,55.8c0.2-1.8-1.4-2.5-1.4-2.5h0.1C79.9,53.3,81.3,54,81.1,55.8L81.1,55.8z"/>
		</g>
		<g class="st2">
			
				<linearGradient id="SVGID_5_" gradientUnits="userSpaceOnUse" x1="-221.1472" y1="44.7691" x2="-223.3194" y2="48.2757" gradientTransform="matrix(1 0 0 -1 309.3953 100)">
				<stop  offset="5.376340e-03" style="stop-color:#23398D"/>
				<stop  offset="0.3102" style="stop-color:#456FA8"/>
				<stop  offset="0.6252" style="stop-color:#64A0C0"/>
				<stop  offset="0.8653" style="stop-color:#78BFCF"/>
				<stop  offset="1" style="stop-color:#7FCAD5"/>
			</linearGradient>
			<path class="st5" d="M86.4,52.8c0.2-1.8-1.4-2.5-1.4-2.5h0.1C85.2,50.3,86.6,51,86.4,52.8L86.4,52.8z"/>
		</g>
		<g class="st2">
			
				<linearGradient id="SVGID_6_" gradientUnits="userSpaceOnUse" x1="-222.8547" y1="43.7809" x2="-225.0268" y2="47.2876" gradientTransform="matrix(1 0 0 -1 309.3953 100)">
				<stop  offset="5.376340e-03" style="stop-color:#23398D"/>
				<stop  offset="0.3102" style="stop-color:#456FA8"/>
				<stop  offset="0.6252" style="stop-color:#64A0C0"/>
				<stop  offset="0.8653" style="stop-color:#78BFCF"/>
				<stop  offset="1" style="stop-color:#7FCAD5"/>
			</linearGradient>
			<path class="st6" d="M84.7,53.8c0.2-1.8-1.4-2.5-1.4-2.5h0.1C83.5,51.3,84.9,52,84.7,53.8L84.7,53.8z"/>
		</g>
		<g class="st2">
			
				<linearGradient id="SVGID_7_" gradientUnits="userSpaceOnUse" x1="-217.6037" y1="46.8121" x2="-219.7759" y2="50.3187" gradientTransform="matrix(1 0 0 -1 309.3953 100)">
				<stop  offset="5.376340e-03" style="stop-color:#23398D"/>
				<stop  offset="0.3102" style="stop-color:#456FA8"/>
				<stop  offset="0.6252" style="stop-color:#64A0C0"/>
				<stop  offset="0.8653" style="stop-color:#78BFCF"/>
				<stop  offset="1" style="stop-color:#7FCAD5"/>
			</linearGradient>
			<path class="st7" d="M89.9,50.7c0.2-1.8-1.4-2.5-1.4-2.5h0.1C88.7,48.2,90.2,49,89.9,50.7L89.9,50.7z"/>
		</g>
		<g class="st2">
			
				<linearGradient id="SVGID_8_" gradientUnits="userSpaceOnUse" x1="-219.3111" y1="45.824" x2="-221.4833" y2="49.3307" gradientTransform="matrix(1 0 0 -1 309.3953 100)">
				<stop  offset="5.376340e-03" style="stop-color:#23398D"/>
				<stop  offset="0.3102" style="stop-color:#456FA8"/>
				<stop  offset="0.6252" style="stop-color:#64A0C0"/>
				<stop  offset="0.8653" style="stop-color:#78BFCF"/>
				<stop  offset="1" style="stop-color:#7FCAD5"/>
			</linearGradient>
			<path class="st8" d="M88.2,51.7c0.2-1.8-1.4-2.5-1.4-2.5h0.1C87,49.2,88.5,50,88.2,51.7L88.2,51.7z"/>
		</g>
		<g class="st2">
			
				<linearGradient id="SVGID_9_" gradientUnits="userSpaceOnUse" x1="-214.0436" y1="48.8631" x2="-216.2158" y2="52.3698" gradientTransform="matrix(1 0 0 -1 309.3953 100)">
				<stop  offset="5.376340e-03" style="stop-color:#23398D"/>
				<stop  offset="0.3102" style="stop-color:#456FA8"/>
				<stop  offset="0.6252" style="stop-color:#64A0C0"/>
				<stop  offset="0.8653" style="stop-color:#78BFCF"/>
				<stop  offset="1" style="stop-color:#7FCAD5"/>
			</linearGradient>
			<path class="st9" d="M93.5,48.7c0.2-1.8-1.4-2.5-1.4-2.5h0.1C92.3,46.2,93.7,46.9,93.5,48.7L93.5,48.7z"/>
		</g>
		<g class="st2">
			
				<linearGradient id="SVGID_10_" gradientUnits="userSpaceOnUse" x1="-215.751" y1="47.8751" x2="-217.9232" y2="51.3818" gradientTransform="matrix(1 0 0 -1 309.3953 100)">
				<stop  offset="5.376340e-03" style="stop-color:#23398D"/>
				<stop  offset="0.3102" style="stop-color:#456FA8"/>
				<stop  offset="0.6252" style="stop-color:#64A0C0"/>
				<stop  offset="0.8653" style="stop-color:#78BFCF"/>
				<stop  offset="1" style="stop-color:#7FCAD5"/>
			</linearGradient>
			<path class="st10" d="M91.8,49.7c0.2-1.8-1.4-2.5-1.4-2.5h0.1C90.6,47.2,92,47.9,91.8,49.7L91.8,49.7z"/>
		</g>
	</g>
	<line class="st11" x1="80.1" y1="54" x2="93.2" y2="46.6"/>
</g>
<linearGradient id="tuyau-3_1_" gradientUnits="userSpaceOnUse" x1="-232.5953" y1="46.8984" x2="-232.5953" y2="90.4016" gradientTransform="matrix(1 0 0 -1 309.3953 100)">
	<stop  offset="6.297816e-03" style="stop-color:#A5C986"/>
	<stop  offset="1" style="stop-color:#86C59D"/>
</linearGradient>
<polyline id="tuyau-3_2_" class="st12" points="54.7,52.5 98.9,26.4 73.4,10.2 "/>
<linearGradient id="tuyau-4_2_" gradientUnits="userSpaceOnUse" x1="-249.5463" y1="46.2" x2="-234.2678" y2="46.2" gradientTransform="matrix(1 0 0 -1 309.3953 100)">
	<stop  offset="5.227065e-03" style="stop-color:#AED2BC"/>
	<stop  offset="1" style="stop-color:#6EB768"/>
</linearGradient>
<line id="tuyau-4_1_" class="st13" x1="74.5" y1="58.3" x2="60.5" y2="49.3"/>
<path id="_x31__4_" class="st14" d="M76.2,9.1C76.2,9.1,76.2,9.1,76.2,9.1l-0.1,1.4c0,0,0,0.1,0.1,0.1l1.2,0.7c0,0,0.1,0,0.1,0
	l0-1.3c0,0,0-0.1-0.1-0.1L76.2,9.1z"/>
<path id="_x31__1_" class="st14" d="M94.2,26C94.3,26,94.3,26,94.2,26l0.1,1.4c0,0,0,0.1-0.1,0.1l-1.2,0.7c0,0-0.1,0-0.1,0l0-1.3
	c0,0,0-0.1,0.1-0.1L94.2,26z"/>
<path id="_x31__2_" class="st14" d="M63.8,48.4C63.8,48.3,63.7,48.4,63.8,48.4l-0.1,1.4c0,0,0,0.1,0.1,0.1l1.2,0.7c0,0,0.1,0,0.1,0
	l0-1.3c0,0,0-0.1-0.1-0.1L63.8,48.4z"/>
<path id="_x31__3_" class="st14" d="M83.4,48.6C83.5,48.6,83.5,48.6,83.4,48.6l0.1,1.4c0,0,0,0.1-0.1,0.1l-1.2,0.7c0,0-0.1,0-0.1,0
	l0-1.3c0,0,0-0.1,0.1-0.1L83.4,48.6z"/>
</svg>
