<?xml version="1.0" encoding="utf-8"?>
<!-- Generator: Adobe Illustrator 23.0.1, SVG Export Plug-In . SVG Version: 6.00 Build 0)  -->
<svg version="1.1" id="Layer_1" xmlns="http://www.w3.org/2000/svg" xmlns:xlink="http://www.w3.org/1999/xlink" x="0px" y="0px"
	 viewBox="0 0 100 100" style="enable-background:new 0 0 100 100;" xml:space="preserve">
<polygon style="fill:#C0C3C6;" points="97.6,55.6 97.6,55.6 97.6,55.6 "/>
<g id="credit_card_1_">
	<g style="opacity:0.24;">
		
			<linearGradient id="SVGID_1_" gradientUnits="userSpaceOnUse" x1="264.3511" y1="1189.118" x2="249.4729" y2="1189.1425" gradientTransform="matrix(-0.4986 -0.8668 0.8668 -0.4986 -876.254 879.488)">
			<stop  offset="0" style="stop-color:#6485C3;stop-opacity:0"/>
			<stop  offset="0.2111" style="stop-color:#6A8BC6;stop-opacity:0.1266"/>
			<stop  offset="0.4949" style="stop-color:#7A9CCF;stop-opacity:0.297"/>
			<stop  offset="0.8189" style="stop-color:#95B8DE;stop-opacity:0.4913"/>
			<stop  offset="1" style="stop-color:#A7CBE8;stop-opacity:0.6"/>
		</linearGradient>
		<path style="fill:url(#SVGID_1_);" d="M23.6,56.9c0.3-0.2,0.8-0.2,1,0l6.2,3.6l7.6,4.4c0.3,0.2,0.3,0.4,0,0.6l-9.2,5.3
			c-0.3,0.2-0.8,0.2-1,0L19.8,66l-5.3-3.1c-0.3-0.2-0.3-0.4,0-0.6L23.6,56.9z"/>
	</g>
	<g>
		
			<linearGradient id="SVGID_2_" gradientUnits="userSpaceOnUse" x1="250.7279" y1="1189.853" x2="265.6095" y2="1189.853" gradientTransform="matrix(-0.4986 -0.8668 0.8668 -0.4986 -876.254 879.488)">
			<stop  offset="0" style="stop-color:#E95281"/>
			<stop  offset="1" style="stop-color:#BF3D62"/>
		</linearGradient>
		<path style="fill:url(#SVGID_2_);" d="M23.6,55.5c0.3-0.2,0.8-0.2,1,0l6.2,3.6l7.6,4.4c0.3,0.2,0.3,0.4,0,0.6l-9.2,5.3
			c-0.3,0.2-0.8,0.2-1,0l-8.4-4.9l-5.3-3.1c-0.3-0.2-0.3-0.4,0-0.6L23.6,55.5z"/>
	</g>
	
		<linearGradient id="SVGID_3_" gradientUnits="userSpaceOnUse" x1="250.5184" y1="1189.7745" x2="265.4251" y2="1189.7745" gradientTransform="matrix(-0.4986 -0.8668 0.8668 -0.4986 -876.254 879.488)">
		<stop  offset="0" style="stop-color:#E95281"/>
		<stop  offset="1" style="stop-color:#BF3D62"/>
	</linearGradient>
	<path style="fill:url(#SVGID_3_);" d="M14.3,61.4C14.3,61.3,14.3,61.3,14.3,61.4C14.3,61.3,14.3,61.3,14.3,61.4
		c-0.1-0.1-0.1-0.1-0.1-0.1c0,0,0,0,0,0c0,0,0-0.1,0-0.1l0,0.2c0,0,0,0,0,0c0,0,0,0,0,0c0,0,0,0,0,0c0,0,0,0,0,0c0,0,0,0,0,0
		c0,0,0,0,0,0c0,0,0,0,0,0c0,0,0,0,0,0c0,0,0,0,0,0c0,0,0,0,0,0c0,0,0,0,0,0c0,0,0,0,0,0c0,0,0,0,0,0c0,0,0,0,0,0c0,0,0,0,0,0
		c0,0,0,0,0.1,0l13.8,8c0,0,0.1,0,0.1,0.1c0,0,0,0,0,0c0,0,0,0,0.1,0c0,0,0,0,0,0c0,0,0,0,0,0c0,0,0,0,0,0c0,0,0,0,0.1,0
		c0,0,0,0,0,0c0,0,0,0,0,0c0,0,0,0,0,0c0,0,0,0,0.1,0c0,0,0,0,0.1,0c0,0,0,0,0,0c0,0,0,0,0,0c0,0,0,0,0,0c0,0,0,0,0.1,0c0,0,0,0,0,0
		c0,0,0,0,0,0c0,0,0,0,0,0c0,0,0,0,0.1,0c0,0,0,0,0.1,0c0,0,0,0,0,0c0,0,0,0,0,0c0,0,0,0,0,0c0,0,0,0,0.1,0c0,0,0,0,0,0c0,0,0,0,0,0
		c0,0,0,0,0,0c0,0,0.1,0,0.1,0l9.2-5.3c0.1,0,0.1-0.1,0.2-0.1c0-0.1,0.1-0.1,0.1-0.2l0-0.2c0,0.1-0.1,0.2-0.2,0.3l-9.2,5.3
		c0,0-0.1,0-0.1,0.1c0,0,0,0,0,0c0,0-0.1,0-0.1,0c0,0,0,0,0,0c0,0-0.1,0-0.1,0c0,0,0,0,0,0c0,0-0.1,0-0.1,0c0,0,0,0,0,0
		c0,0-0.1,0-0.1,0c0,0,0,0,0,0c0,0-0.1,0-0.1,0c0,0,0,0,0,0c0,0-0.1,0-0.1,0c0,0,0,0,0,0c0,0-0.1,0-0.1-0.1l-13.8-8
		C14.4,61.4,14.4,61.4,14.3,61.4C14.3,61.4,14.3,61.4,14.3,61.4z"/>
	<g>
		
			<linearGradient id="SVGID_4_" gradientUnits="userSpaceOnUse" x1="256.8804" y1="1187.6113" x2="265.6095" y2="1187.6113" gradientTransform="matrix(-0.4986 -0.8668 0.8668 -0.4986 -876.254 879.488)">
			<stop  offset="0" style="stop-color:#E95281"/>
			<stop  offset="1" style="stop-color:#BF3D62"/>
		</linearGradient>
		<path style="fill:url(#SVGID_4_);" d="M23.6,55.5c0.3-0.2,0.8-0.2,1,0l6.2,3.6c0,1.4-0.9,2.9-2.8,4c-2.3,1.3-5.4,1.8-8.3,1.5
			l-5.3-3.1c-0.3-0.2-0.3-0.4,0-0.6L23.6,55.5z"/>
	</g>
	<g>
		<g>
			<path style="fill:#FFFFFF;" d="M30.2,65.1c-0.2-0.1-0.2-0.3,0-0.4c0.2-0.1,0.5-0.1,0.6,0l2.3,1.3c0.2,0.1,0.2,0.3,0,0.4
				c-0.2,0.1-0.5,0.1-0.6,0L30.2,65.1z"/>
		</g>
		<g>
			
				<linearGradient id="SVGID_5_" gradientUnits="userSpaceOnUse" x1="251.3878" y1="1189.1909" x2="254.8638" y2="1189.1909" gradientTransform="matrix(-0.4986 -0.8668 0.8668 -0.4986 -876.254 879.488)">
				<stop  offset="0.2946" style="stop-color:#FFD755"/>
				<stop  offset="0.7485" style="stop-color:#F8AD20"/>
			</linearGradient>
			<path style="fill:url(#SVGID_5_);" d="M25.6,67.1c-0.1-0.1-0.1-0.2,0-0.3l2.2-1.3c0.1-0.1,0.4-0.1,0.5,0l2.9,1.7
				c0.1,0.1,0.1,0.2,0,0.3L29,68.8c-0.1,0.1-0.4,0.1-0.5,0L25.6,67.1z"/>
		</g>
		<g>
			
				<linearGradient id="SVGID_6_" gradientUnits="userSpaceOnUse" x1="260.6288" y1="1190.9216" x2="264.7353" y2="1190.9216" gradientTransform="matrix(-0.4986 -0.8668 0.8668 -0.4986 -876.254 879.488)">
				<stop  offset="0.2946" style="stop-color:#FFD755"/>
				<stop  offset="0.7485" style="stop-color:#F8AD20"/>
			</linearGradient>
			<path style="fill:url(#SVGID_6_);" d="M23.1,58.2c-0.7-0.4-0.7-1,0-1.4c0.7-0.4,1.7-0.4,2.4,0c0.3,0.2,0.5,0.5,0.5,0.7
				c0.4,0,0.9,0.1,1.2,0.3c0.7,0.4,0.7,1,0,1.4c-0.7,0.4-1.7,0.4-2.4,0c-0.3-0.2-0.5-0.5-0.5-0.7C23.9,58.5,23.4,58.4,23.1,58.2z"/>
		</g>
		<g>
			<path style="fill:#FFFFFF;" d="M26.7,63.1c-0.2-0.1-0.2-0.3,0-0.4c0.2-0.1,0.5-0.1,0.6,0l2.3,1.3c0.2,0.1,0.2,0.3,0,0.4
				c-0.2,0.1-0.5,0.1-0.6,0L26.7,63.1z"/>
		</g>
		<g>
			<path style="fill:#FFFFFF;" d="M23.3,61.1c-0.2-0.1-0.2-0.3,0-0.4c0.2-0.1,0.5-0.1,0.6,0l2.3,1.3c0.2,0.1,0.2,0.3,0,0.4
				c-0.2,0.1-0.5,0.1-0.6,0L23.3,61.1z"/>
		</g>
		<g>
			<path style="fill:#FFFFFF;" d="M19.8,59.1c-0.2-0.1-0.2-0.3,0-0.4c0.2-0.1,0.5-0.1,0.6,0l2.3,1.3c0.2,0.1,0.2,0.3,0,0.4
				c-0.2,0.1-0.5,0.1-0.6,0L19.8,59.1z"/>
		</g>
	</g>
</g>
</svg>
