<?xml version="1.0" encoding="utf-8"?>
<!-- Generator: Adobe Illustrator 23.0.1, SVG Export Plug-In . SVG Version: 6.00 Build 0)  -->
<svg version="1.1" id="Layer_1" xmlns="http://www.w3.org/2000/svg" xmlns:xlink="http://www.w3.org/1999/xlink" x="0px" y="0px"
	 viewBox="0 0 100 100" style="enable-background:new 0 0 100 100;" xml:space="preserve">
<path style="fill:#C0C3C6;" d="M97.6,55.6L97.6,55.6L97.6,55.6z"/>
<g>
	<g style="opacity:0.24;">
		
			<linearGradient id="SVGID_1_" gradientUnits="userSpaceOnUse" x1="673.8953" y1="65.4202" x2="671.1547" y2="60.6734" gradientTransform="matrix(-1 0 0 -1 724.748 100)">
			<stop  offset="0" style="stop-color:#6485C3;stop-opacity:0"/>
			<stop  offset="0.2111" style="stop-color:#6A8BC6;stop-opacity:0.1266"/>
			<stop  offset="0.4949" style="stop-color:#7A9CCF;stop-opacity:0.297"/>
			<stop  offset="0.8189" style="stop-color:#95B8DE;stop-opacity:0.4913"/>
			<stop  offset="1" style="stop-color:#A7CBE8;stop-opacity:0.6"/>
		</linearGradient>
		<path style="fill:url(#SVGID_1_);" d="M47.3,36.7c-0.3,0.2-0.3,0.5,0,0.6l4.4,2.5c0.3,0.2,0.8,0.2,1.1,0l4.4-2.5
			c0.3-0.2,0.3-0.5,0-0.6l-4.4-2.5c-0.3-0.2-0.8-0.2-1.1,0L47.3,36.7z"/>
	</g>
	<g>
		
			<linearGradient id="SVGID_2_" gradientUnits="userSpaceOnUse" x1="667.3919" y1="64.9" x2="677.7119" y2="64.9" gradientTransform="matrix(-1 0 0 -1 724.748 100)">
			<stop  offset="0" style="stop-color:#74C7F0"/>
			<stop  offset="0.3181" style="stop-color:#A1D9F5"/>
			<stop  offset="1" style="stop-color:#FFFFFF"/>
		</linearGradient>
		<path style="fill:url(#SVGID_2_);" d="M47.3,34.8c-0.3,0.2-0.3,0.5,0,0.6l4.4,2.5c0.3,0.2,0.8,0.2,1.1,0l4.4-2.5
			c0.3-0.2,0.3-0.5,0-0.6l-4.4-2.5c-0.3-0.2-0.8-0.2-1.1,0L47.3,34.8z"/>
	</g>
	<g>
		
			<linearGradient id="SVGID_3_" gradientUnits="userSpaceOnUse" x1="667.8439" y1="64.9" x2="677.2596" y2="64.9" gradientTransform="matrix(-1 0 0 -1 724.748 100)">
			<stop  offset="0" style="stop-color:#57AD5C"/>
			<stop  offset="1" style="stop-color:#80C07C"/>
		</linearGradient>
		<path style="fill:url(#SVGID_3_);" d="M52.2,37.7c0.1,0,0.3,0,0.4-0.1l4.4-2.5l-4.3-2.5c-0.1,0-0.2-0.1-0.4-0.1
			c-0.1,0-0.3,0-0.4,0.1l-4.4,2.5l4.3,2.5C51.9,37.7,52,37.7,52.2,37.7z"/>
	</g>
	
		<linearGradient id="SVGID_4_" gradientUnits="userSpaceOnUse" x1="667.3892" y1="63.3" x2="677.7119" y2="63.3" gradientTransform="matrix(-1 0 0 -1 724.748 100)">
		<stop  offset="0" style="stop-color:#6FBB84"/>
		<stop  offset="1" style="stop-color:#57AD5C"/>
	</linearGradient>
	<path style="fill:url(#SVGID_4_);" d="M47,35.1L47,35.1L47,35.1C47,35.2,47,35.2,47,35.1C47,35.2,47,35.2,47,35.1
		C47,35.2,47,35.2,47,35.1L47,35.1L47,35.1L47,35.1L47,35.1L47,35.1L47,35.1L47,35.1L47,35.1L47,35.1L47,35.1l4.4,2.6c0,0,0,0,0.1,0
		l0,0c0,0,0,0,0.1,0l0,0l0,0l0,0l0,0l0,0h0.1l0,0c0,0,0,0,0.1,0l0,0l0,0l0,0l0,0l0,0l0,0l0,0l0,0l0,0l0,0l0,0h0.1l0,0
		c0,0,0.1,0,0.1-0.1l4.4-2.5c0.2-0.1,0.2-0.2,0.2-0.3v0.9c0,0.1-0.1,0.2-0.2,0.3L52,38.5c0,0-0.1,0-0.1,0.1l0,0l0,0h-0.1l0,0l0,0
		l0,0l0,0l0,0l0,0l0,0l0,0l0,0l0,0l0,0l0,0l0,0l0,0l0,0l0,0l0,0c0,0,0,0-0.1,0l0,0l0,0h-0.1l0,0l0,0l0,0l0,0l0,0l0,0l0,0
		c0,0,0,0-0.1,0l0,0c0,0,0,0-0.1,0L47,36.1l0,0l0,0l0,0l0,0l0,0l0,0l0,0l0,0l0,0l0,0l0,0l0,0l0,0l0,0l0,0l0,0l0,0l0,0l0,0l0,0l0,0
		l0,0l0,0V35.1z"/>
	<g>
		
			<linearGradient id="SVGID_5_" gradientUnits="userSpaceOnUse" x1="165.656" y1="75.6418" x2="165.656" y2="64.1741" gradientTransform="matrix(-1 0 0 -1 218.0767 100)">
			<stop  offset="0" style="stop-color:#E95281"/>
			<stop  offset="1" style="stop-color:#BF3D62"/>
		</linearGradient>
		<path style="fill:url(#SVGID_5_);" d="M50.4,27c0,0.1,0,0.2,0,0.2l0,0l0.1,8c0.5,0.2,1,0.2,1.2,0.1c0.3-0.1,0.4-0.2,0.4-0.2l0.1-6
			V29l0.4,6.6c1.1,0.6,1.7-0.2,1.7-0.2v-5.6c0,0,0-0.8,0.2-1.9v-0.1c0-0.1,0-0.1,0-0.2c0.1-0.6,0-1.2-0.1-1.6v-0.1v-0.1l0,0l0,0
			c0-0.1,0-0.2,0-0.2c-0.4-0.7-0.9-0.9-2.2-1.2c-1.2-0.2-1.9,0.7-1.9,0.7v0.6C50.4,26,50.4,26.6,50.4,27z"/>
		
			<linearGradient id="SVGID_6_" gradientUnits="userSpaceOnUse" x1="165.6267" y1="75.2249" x2="165.6267" y2="73.5442" gradientTransform="matrix(-1 0 0 -1 218.0767 100)">
			<stop  offset="0" style="stop-color:#E95281"/>
			<stop  offset="1" style="stop-color:#BF3D62"/>
		</linearGradient>
		<path style="fill:url(#SVGID_6_);" d="M52.6,26.5c-0.8,0-1.7-0.6-2-1.1c0.3-0.3,0.9-0.7,1.7-0.6c1.1,0.2,1.6,0.4,2,1
			C54.2,26.1,53.7,26.5,52.6,26.5z"/>
		<g>
			
				<linearGradient id="SVGID_7_" gradientUnits="userSpaceOnUse" x1="163.7927" y1="69.15" x2="164.0236" y2="69.15" gradientTransform="matrix(-1 0 0 -1 218.0767 100)">
				<stop  offset="5.618000e-03" style="stop-color:#FAFCFF"/>
				<stop  offset="1" style="stop-color:#E5E8F5"/>
			</linearGradient>
			<path style="fill:url(#SVGID_7_);" d="M54.2,35.6c0-0.3,0-0.8,0-1.3c0-2.1-0.1-5.2,0-5.9c0.2-1.1-0.1-2.3-0.1-2.3H54
				c0,0,0.3,1.2,0.1,2.2c-0.1,0.8-0.1,3.9,0,6C54.1,34.9,54.1,35.3,54.2,35.6L54.2,35.6z"/>
		</g>
		
			<linearGradient id="SVGID_8_" gradientUnits="userSpaceOnUse" x1="166.7543" y1="73.35" x2="167.6775" y2="73.35" gradientTransform="matrix(-1 0 0 -1 218.0767 100)">
			<stop  offset="5.618000e-03" style="stop-color:#FAFCFF"/>
			<stop  offset="1" style="stop-color:#E5E8F5"/>
		</linearGradient>
		<path style="fill:url(#SVGID_8_);" d="M50.4,27c0,0.1,0,0.2,0,0.2c0.7-0.3,0.9-1,0.9-1l-0.2-0.1C51,26.5,50.7,26.8,50.4,27z"/>
		
			<linearGradient id="SVGID_9_" gradientUnits="userSpaceOnUse" x1="163.8466" y1="72.9" x2="165.1183" y2="72.9" gradientTransform="matrix(-1 0 0 -1 218.0767 100)">
			<stop  offset="5.618000e-03" style="stop-color:#FAFCFF"/>
			<stop  offset="1" style="stop-color:#E5E8F5"/>
		</linearGradient>
		<path style="fill:url(#SVGID_9_);" d="M53,26.6c0,0,0.3,0.9,1.2,1.1c0,0,0-0.1,0-0.2c-0.4-0.1-0.9-0.5-1.1-1L53,26.6z"/>
		
			<linearGradient id="SVGID_10_" gradientUnits="userSpaceOnUse" x1="163.504" y1="74.1406" x2="167.5959" y2="74.1406" gradientTransform="matrix(-1 0 0 -1 218.0767 100)">
			<stop  offset="5.618000e-03" style="stop-color:#FAFCFF"/>
			<stop  offset="1" style="stop-color:#E5E8F5"/>
		</linearGradient>
		<path style="fill:url(#SVGID_10_);" d="M50.5,25.1v0.6c0.6,0.7,1.8,1,2.7,0.9c0.8-0.1,1.3-0.4,1.4-0.5V26v-0.1l0,0l0,0v-0.2
			c-0.2,0.3-0.8,0.5-1.4,0.6C52.4,26.3,51.1,26,50.5,25.1z"/>
		
			<linearGradient id="SVGID_11_" gradientUnits="userSpaceOnUse" x1="165.787" y1="68.95" x2="166.3645" y2="68.95" gradientTransform="matrix(-1 0 0 -1 218.0767 100)">
			<stop  offset="0" style="stop-color:#1A1A1A;stop-opacity:0.6"/>
			<stop  offset="0.1968" style="stop-color:#1D1E2B;stop-opacity:0.4812"/>
			<stop  offset="0.5859" style="stop-color:#252957;stop-opacity:0.2463"/>
			<stop  offset="0.9939" style="stop-color:#2F358B;stop-opacity:0"/>
		</linearGradient>
		<path style="fill:url(#SVGID_11_);" d="M51.7,35.3c0.3-0.1,0.4-0.2,0.4-0.2l0.1-6c0-0.1,0-0.2,0-0.1c0,0,0-0.5-0.2-0.9
			c0-0.2,0-0.9,0-1.3c0,0-0.2,0.8-0.1,1.2c0,0.1,0.1,0.8,0.1,1.3C52,30.9,51.9,34.3,51.7,35.3z"/>
	</g>
</g>
</svg>
