<?xml version="1.0" encoding="utf-8"?>
<!-- Generator: Adobe Illustrator 23.0.1, SVG Export Plug-In . SVG Version: 6.00 Build 0)  -->
<svg version="1.1" id="Layer_1" xmlns="http://www.w3.org/2000/svg" xmlns:xlink="http://www.w3.org/1999/xlink" x="0px" y="0px"
	 viewBox="0 0 100 100" style="enable-background:new 0 0 100 100;" xml:space="preserve">
<g id="chimneys_1_">
	<g id="_x33__6_">
		<g id="ch_8_">
			
				<linearGradient id="SVGID_1_" gradientUnits="userSpaceOnUse" x1="-265.0071" y1="31.1189" x2="-260.8647" y2="31.1189" gradientTransform="matrix(1 0 0 1 309.3953 0)">
				<stop  offset="6.297816e-03" style="stop-color:#8FC07D"/>
				<stop  offset="0.1872" style="stop-color:#74AC72"/>
				<stop  offset="0.5394" style="stop-color:#377F58"/>
			</linearGradient>
			<path style="fill:url(#SVGID_1_);" d="M45,30.3L45,30.3c-0.8,0.5-0.8,1.2,0,1.7c0.8,0.5,2.1,0.5,2.9,0l0,0c0.8-0.5,0.8-1.2,0-1.7
				C47.1,29.8,45.8,29.8,45,30.3z"/>
			
				<linearGradient id="SVGID_2_" gradientUnits="userSpaceOnUse" x1="769.1964" y1="31.1189" x2="772.7045" y2="31.1189" gradientTransform="matrix(-1 0 0 1 817.4098 0)">
				<stop  offset="6.297816e-03" style="stop-color:#7FBF7C"/>
				<stop  offset="1" style="stop-color:#E9F4F3"/>
			</linearGradient>
			<path style="fill:url(#SVGID_2_);" d="M45.2,30.4L45.2,30.4c-0.7,0.4-0.7,1,0,1.4c0.7,0.4,1.8,0.4,2.5,0l0,0c0.7-0.4,0.7-1,0-1.4
				C47,30,45.9,30,45.2,30.4z"/>
			
				<linearGradient id="SVGID_3_" gradientUnits="userSpaceOnUse" x1="769.1965" y1="28.0485" x2="772.7045" y2="28.0485" gradientTransform="matrix(-1 0 0 1 817.4098 0)">
				<stop  offset="6.297816e-03" style="stop-color:#7FBF7C"/>
				<stop  offset="1" style="stop-color:#E9F4F3"/>
			</linearGradient>
			<polygon style="fill:url(#SVGID_3_);" points="45.2,25 44.7,31.1 46.5,31.1 48.2,31.1 47.7,25 46.5,25 			"/>
			
				<linearGradient id="SVGID_4_" gradientUnits="userSpaceOnUse" x1="769.6787" y1="24.978" x2="772.2222" y2="24.978" gradientTransform="matrix(-1 0 0 1 817.4098 0)">
				<stop  offset="5.742611e-03" style="stop-color:#618256"/>
				<stop  offset="1" style="stop-color:#377F58"/>
			</linearGradient>
			<path style="fill:url(#SVGID_4_);" d="M45.6,24.5L45.6,24.5c-0.5,0.3-0.5,0.8,0,1c0.5,0.3,1.3,0.3,1.8,0v0c0.5-0.3,0.5-0.8,0-1
				C46.9,24.2,46.1,24.2,45.6,24.5z"/>
			
				<linearGradient id="SVGID_5_" gradientUnits="userSpaceOnUse" x1="-264.0241" y1="24.978" x2="-261.8477" y2="24.978" gradientTransform="matrix(1 0 0 1 309.3953 0)">
				<stop  offset="6.297816e-03" style="stop-color:#8FC07D"/>
				<stop  offset="0.1872" style="stop-color:#74AC72"/>
				<stop  offset="0.5394" style="stop-color:#377F58"/>
			</linearGradient>
			<path style="fill:url(#SVGID_5_);" d="M46.5,24.4c-0.3,0-0.6,0.1-0.8,0.2l0,0c-0.2,0.1-0.3,0.2-0.3,0.4c0,0.1,0.1,0.3,0.3,0.4
				c0.2,0.1,0.5,0.2,0.8,0.2h0c0.3,0,0.6-0.1,0.8-0.2c0.2-0.1,0.3-0.2,0.3-0.4c0-0.1-0.1-0.3-0.3-0.4C47.1,24.5,46.8,24.4,46.5,24.4
				z"/>
			
				<linearGradient id="SVGID_6_" gradientUnits="userSpaceOnUse" x1="769.5841" y1="26.1036" x2="772.3165" y2="26.1036" gradientTransform="matrix(-1 0 0 1 817.4098 0)">
				<stop  offset="5.742611e-03" style="stop-color:#618256"/>
				<stop  offset="1" style="stop-color:#377F58"/>
			</linearGradient>
			<path style="fill:url(#SVGID_6_);" d="M47.5,25.9L47.5,25.9c-0.6,0.3-1.5,0.3-2,0c-0.1-0.1-0.2-0.2-0.3-0.3l0,0.6
				c0.1,0.1,0.2,0.1,0.3,0.2c0.6,0.3,1.6,0.3,2.2,0l0,0c0.1-0.1,0.2-0.1,0.2-0.2l0-0.6C47.7,25.7,47.6,25.8,47.5,25.9z"/>
		</g>
		
			<linearGradient id="smoke_1_" gradientUnits="userSpaceOnUse" x1="770.2449" y1="25.3161" x2="769.2369" y2="19.5994" gradientTransform="matrix(-1 0 0 1 817.4098 0)">
			<stop  offset="0" style="stop-color:#69A076"/>
			<stop  offset="1" style="stop-color:#FFFFFF;stop-opacity:0"/>
		</linearGradient>
		<path id="smoke_10_" style="opacity:0.7;fill:url(#smoke_1_);" d="M49.9,22c0-0.3-0.2-0.6-0.5-0.8c0.1-0.2,0.1-0.3,0.1-0.5
			c0-0.5-0.4-1-1-1c-0.3,0-0.6,0.2-0.8,0.4C47.7,20,47.5,20,47.3,20c-0.5,0-1,0.4-1,1c0,0.2,0,0.3,0.1,0.4c-0.5,0-0.8,0.4-0.8,0.9
			c0,0.2,0.1,0.4,0.2,0.5c-0.3,0-0.5,0.3-0.5,0.6c0,0.2,0.2,0.5,0.4,0.5c0,0.1,0.1,0.1,0.1,0.2c-0.1,0.1-0.1,0.2-0.1,0.3
			c0,0.3,0.2,0.5,0.5,0.5c0,0,0.1,0,0.1,0c0,0.2,0.2,0.3,0.3,0.3c0.2,0,0.3-0.2,0.3-0.3c0-0.1,0-0.1-0.1-0.2c0.2,0,0.4-0.2,0.6-0.3
			c0,0,0,0,0.1,0c0.3,0,0.5-0.1,0.7-0.4c0.1,0,0.1,0,0.2,0c0.5,0,1-0.4,1-1c0-0.1,0-0.1,0-0.2C49.7,22.7,49.9,22.4,49.9,22z"/>
	</g>
</g>
</svg>
