<?xml version="1.0" encoding="utf-8"?>
<!-- Generator: Adobe Illustrator 23.0.1, SVG Export Plug-In . SVG Version: 6.00 Build 0)  -->
<svg version="1.1" id="Layer_1" xmlns="http://www.w3.org/2000/svg" xmlns:xlink="http://www.w3.org/1999/xlink" x="0px" y="0px"
	 viewBox="0 0 100 100" style="enable-background:new 0 0 100 100;" xml:space="preserve">
<g id="woman-controller_1_">
	<g>
		
			<linearGradient id="SVGID_1_" gradientUnits="userSpaceOnUse" x1="1319.823" y1="73.8505" x2="1318.7574" y2="15.034" gradientTransform="matrix(-1 0 0 1 1384.7639 0)">
			<stop  offset="0" style="stop-color:#E95281"/>
			<stop  offset="1" style="stop-color:#BF3D62"/>
		</linearGradient>
		<path style="fill:url(#SVGID_1_);" d="M66.4,48.1c0,0,1.5,0.5,1.9,2.1s1.1,8.5,1,9.9c0,1.4,0.8,4.5,0.6,5.1s-1.7,0.5-3.7,1.1
			c-2.5,0.7-3.8,1.5-5,0.8c-0.6-0.4,0-5.3,0.2-6.3s-0.3-5.7-0.9-7.5c-0.2-0.6,1.7-2.6,2.9-3.8C64.6,48.2,66.4,48.1,66.4,48.1z"/>
		
			<linearGradient id="SVGID_2_" gradientUnits="userSpaceOnUse" x1="873.2318" y1="59.9446" x2="876.009" y2="59.9446" gradientTransform="matrix(-1 0 0 1 936.7361 0)">
			<stop  offset="0" style="stop-color:#E95281"/>
			<stop  offset="1" style="stop-color:#BF3D62"/>
		</linearGradient>
		<path style="fill:url(#SVGID_2_);" d="M63.2,52.5c0,0,0.6,6.3,0.1,8s-0.4,6.2-0.4,6.8c0,0-1,0.3-1.7-0.2c-0.8-0.5,0.1-5.6,0.1-5.6
			s0.2-1.1,0.2-1.9c0-1.8-0.7-5.7-0.7-5.7L63.2,52.5z"/>
	</g>
</g>
</svg>
