<?xml version="1.0" encoding="utf-8"?>
<!-- Generator: Adobe Illustrator 23.0.1, SVG Export Plug-In . SVG Version: 6.00 Build 0)  -->
<svg version="1.1" id="Layer_1" xmlns="http://www.w3.org/2000/svg" xmlns:xlink="http://www.w3.org/1999/xlink" x="0px" y="0px"
	 viewBox="0 0 100 100" style="enable-background:new 0 0 100 100;" xml:space="preserve">
<path style="fill:#C0C3C6;" d="M97.6,55.6L97.6,55.6L97.6,55.6z"/>
<g id="shoes_6_">
	<g id="base_33_">
		<g style="opacity:0.24;">
			
				<linearGradient id="SVGID_1_" gradientUnits="userSpaceOnUse" x1="690.3835" y1="55.8997" x2="687.6429" y2="51.1529" gradientTransform="matrix(-1 0 0 -1 724.748 100)">
				<stop  offset="0" style="stop-color:#6485C3;stop-opacity:0"/>
				<stop  offset="0.2111" style="stop-color:#6A8BC6;stop-opacity:0.1266"/>
				<stop  offset="0.4949" style="stop-color:#7A9CCF;stop-opacity:0.297"/>
				<stop  offset="0.8189" style="stop-color:#95B8DE;stop-opacity:0.4913"/>
				<stop  offset="1" style="stop-color:#A7CBE8;stop-opacity:0.6"/>
			</linearGradient>
			<path style="fill:url(#SVGID_1_);" d="M30.8,46.2c-0.3,0.2-0.3,0.5,0,0.6l4.4,2.5c0.3,0.2,0.8,0.2,1.1,0l4.4-2.5
				c0.3-0.2,0.3-0.5,0-0.6l-4.4-2.5c-0.3-0.2-0.8-0.2-1.1,0L30.8,46.2z"/>
		</g>
		<g>
			
				<linearGradient id="SVGID_2_" gradientUnits="userSpaceOnUse" x1="683.8926" y1="55.4" x2="694.2126" y2="55.4" gradientTransform="matrix(-1 0 0 -1 724.748 100)">
				<stop  offset="0" style="stop-color:#FFFFFF"/>
				<stop  offset="0.3662" style="stop-color:#FCFDFE"/>
				<stop  offset="0.6134" style="stop-color:#F3F8FD"/>
				<stop  offset="0.8248" style="stop-color:#E4EFFA"/>
				<stop  offset="1" style="stop-color:#D1E4F6"/>
			</linearGradient>
			<path style="fill:url(#SVGID_2_);" d="M30.8,44.3c-0.3,0.2-0.3,0.5,0,0.6l4.4,2.5c0.3,0.2,0.8,0.2,1.1,0l4.4-2.5
				c0.3-0.2,0.3-0.5,0-0.6l-4.4-2.5c-0.3-0.2-0.8-0.2-1.1,0L30.8,44.3z"/>
		</g>
		<g>
			
				<linearGradient id="SVGID_3_" gradientUnits="userSpaceOnUse" x1="684.3446" y1="55.4" x2="693.7603" y2="55.4" gradientTransform="matrix(-1 0 0 -1 724.748 100)">
				<stop  offset="0" style="stop-color:#57AD5C"/>
				<stop  offset="1" style="stop-color:#80C07C"/>
			</linearGradient>
			<path style="fill:url(#SVGID_3_);" d="M35.7,47.2c0.1,0,0.3,0,0.4-0.1l4.4-2.5l-4.3-2.5c-0.1,0-0.2-0.1-0.4-0.1
				c-0.1,0-0.3,0-0.4,0.1L31,44.6l4.3,2.5C35.4,47.2,35.5,47.2,35.7,47.2z"/>
		</g>
		
			<linearGradient id="SVGID_4_" gradientUnits="userSpaceOnUse" x1="683.8899" y1="53.8" x2="694.2126" y2="53.8" gradientTransform="matrix(-1 0 0 -1 724.748 100)">
			<stop  offset="0" style="stop-color:#6FBB84"/>
			<stop  offset="1" style="stop-color:#57AD5C"/>
		</linearGradient>
		<path style="fill:url(#SVGID_4_);" d="M30.5,44.6L30.5,44.6C30.5,44.7,30.5,44.7,30.5,44.6C30.5,44.7,30.5,44.7,30.5,44.6
			C30.5,44.7,30.5,44.7,30.5,44.6C30.5,44.7,30.5,44.7,30.5,44.6L30.5,44.6L30.5,44.6L30.5,44.6L30.5,44.6L30.5,44.6L30.5,44.6
			L30.5,44.6L30.5,44.6L30.5,44.6L30.5,44.6l4.4,2.6c0,0,0,0,0.1,0l0,0c0,0,0,0,0.1,0l0,0l0,0l0,0l0,0l0,0h0.1l0,0c0,0,0,0,0.1,0
			l0,0l0,0l0,0l0,0l0,0l0,0l0,0l0,0l0,0l0,0l0,0h0.1l0,0c0,0,0.1,0,0.1-0.1l4.4-2.5c0.2-0.1,0.2-0.2,0.2-0.3v0.9
			c0,0.1-0.1,0.2-0.2,0.3L35.5,48c0,0-0.1,0-0.1,0.1l0,0l0,0h-0.1l0,0l0,0l0,0l0,0l0,0l0,0l0,0l0,0l0,0l0,0l0,0l0,0l0,0l0,0l0,0l0,0
			l0,0c0,0,0,0-0.1,0l0,0l0,0h-0.1l0,0l0,0l0,0l0,0l0,0l0,0l0,0c0,0,0,0-0.1,0l0,0c0,0,0,0-0.1,0l-4.4-2.5l0,0l0,0l0,0l0,0l0,0l0,0
			l0,0l0,0l0,0l0,0l0,0l0,0l0,0l0,0l0,0l0,0l0,0l0,0l0,0l0,0l0,0l0,0l0,0L30.5,44.6z"/>
	</g>
	<g id="shoes_7_">
		<g>
			
				<linearGradient id="SVGID_5_" gradientUnits="userSpaceOnUse" x1="685.7809" y1="56.5201" x2="690.8677" y2="56.5201" gradientTransform="matrix(-1 0 0 -1 724.748 100)">
				<stop  offset="5.618000e-03" style="stop-color:#FAFCFF"/>
				<stop  offset="1" style="stop-color:#E5E8F5"/>
			</linearGradient>
			<path style="fill:url(#SVGID_5_);" d="M33.9,42.6c0,0.1,0.2,0.3,0.6,0.3c0.7,0.1,1,0.2,1.3,0.5c0.2,0.3,0.8,0.6,1.3,0.6
				c0.1,0,0.1,0,0.2,0c0.6-0.1,1.3-0.2,1.5-0.5c0.1-0.1,0.2-0.3,0.1-0.5l0,0c0,0,0.4,0.7-0.4,1.1c-0.8,0.3-1.4,0.3-1.9,0.2
				s-0.9-0.6-1.2-0.7s-0.9-0.1-1.2-0.3C34,43.1,33.9,43,33.9,42.6L33.9,42.6z"/>
			
				<linearGradient id="SVGID_6_" gradientUnits="userSpaceOnUse" x1="685.8661" y1="58.263" x2="690.8946" y2="58.263" gradientTransform="matrix(-1 0 0 -1 724.748 100)">
				<stop  offset="0" style="stop-color:#E95281"/>
				<stop  offset="1" style="stop-color:#BF3D62"/>
			</linearGradient>
			<path style="fill:url(#SVGID_6_);" d="M33.9,42.5L33.9,42.5c0.1,0.1,0.2,0.3,0.6,0.4c0.7,0.1,1,0.2,1.3,0.5
				c0.2,0.3,0.8,0.6,1.3,0.6c0.1,0,0.1,0,0.2,0c0.6-0.1,1.3-0.2,1.5-0.5c0.1-0.1,0.2-0.3,0.1-0.5l0,0c0-0.2-0.2-0.4-0.6-0.5
				c-0.1,0-0.2,0-0.3-0.1h-0.1c-0.5-0.1-1-0.2-1.3-0.6c-0.4-0.4-0.7-1.3-0.8-2.3c0,0-0.9,0.2-1.3,0c-0.4-0.1-0.6,0.1-0.5,0.4l0,0
				c0.1,0.3,0.1,1.1,0,1.6C33.8,42.1,33.9,42.5,33.9,42.5z"/>
			
				<linearGradient id="SVGID_7_" gradientUnits="userSpaceOnUse" x1="689.0061" y1="60.072" x2="690.699" y2="60.072" gradientTransform="matrix(-1 0 0 -1 724.748 100)">
				<stop  offset="5.618000e-03" style="stop-color:#FAFCFF"/>
				<stop  offset="1" style="stop-color:#E5E8F5"/>
			</linearGradient>
			<path style="fill:url(#SVGID_7_);" d="M34,39.9c0,0.1,0.1,0.2,0.3,0.3c0.3,0.2,1-0.2,1-0.2l0.4-0.4c0,0-0.8,0.2-1.2,0.1
				C34.2,39.6,34,39.7,34,39.9z"/>
			
				<linearGradient id="SVGID_8_" gradientUnits="userSpaceOnUse" x1="686.8253" y1="58.65" x2="689.3911" y2="58.65" gradientTransform="matrix(-1 0 0 -1 724.748 100)">
				<stop  offset="5.618000e-03" style="stop-color:#FAFCFF"/>
				<stop  offset="1" style="stop-color:#E5E8F5"/>
			</linearGradient>
			<path style="fill:url(#SVGID_8_);" d="M35.4,40c0-0.1,0.2-0.4,0.5-0.4c0,1,0.4,1.9,0.8,2.3c0.3,0.3,0.8,0.5,1.3,0.6
				c-0.2,0.1-0.4,0.2-0.7,0.6c-0.3-0.1-1-0.4-1.3-1C35.6,41.2,35.3,40.1,35.4,40z"/>
			
				<linearGradient id="SVGID_9_" gradientUnits="userSpaceOnUse" x1="685.8659" y1="56.8" x2="687.6927" y2="56.8" gradientTransform="matrix(-1 0 0 -1 724.748 100)">
				<stop  offset="5.618000e-03" style="stop-color:#FAFCFF"/>
				<stop  offset="1" style="stop-color:#E5E8F5"/>
			</linearGradient>
			<path style="fill:url(#SVGID_9_);" d="M37.9,42.4c0.1,0,0.3,0.1,0.4,0.1c0.7,0.1,0.7,0.6,0.4,1c-0.2,0.3-0.9,0.5-1.5,0.5
				c-0.1,0-0.1,0-0.2,0c0-0.2,0-0.6,0.2-1l0,0C37.5,42.6,37.7,42.5,37.9,42.4z"/>
			<g>
				<path d="M37.1,42.7L37.1,42.7c0-0.1-0.1-0.2-0.1-0.3c-0.2,0-0.2,0.1-0.2,0.1l0,0l0,0c0-0.1,0-0.2,0-0.2c-0.1,0-0.2,0-0.2,0.1
					l0,0l0,0c0-0.1,0-0.2,0-0.3c-0.1,0-0.2,0-0.2,0l0,0l0,0c0-0.1,0-0.2,0-0.2c-0.1,0-0.2-0.1-0.3-0.1l0,0l0,0c0,0,0-0.1,0.1-0.3
					c-0.1,0-0.2-0.1-0.2-0.1l0,0l0,0c0-0.1,0.1-0.1,0.1-0.2c-0.1,0-0.2-0.1-0.2-0.1l0,0l0,0c0,0,0.2-0.2,0.2-0.4l0,0l0,0
					c0,0,0,0.3,0,0.6c0.1,0,0.1,0.1,0.1,0.1l0,0c0,0.1,0,0.2,0,0.3c0.1,0,0.1,0.1,0.2,0.1l0,0c0,0,0,0.1,0.1,0.3
					c0.1,0,0.2,0.1,0.2,0.1l0,0c0,0,0,0.1,0,0.2c0.1,0,0.2,0,0.2,0.1l0,0c0,0,0,0.1,0,0.2C37,42.7,37.1,42.7,37.1,42.7L37.1,42.7
					L37.1,42.7L37.1,42.7c0.1,0.1,0.2,0.1,0.3,0.1l0,0l0,0L37.1,42.7C37.2,42.7,37.2,42.7,37.1,42.7L37.1,42.7z M37.1,42.4
					c0,0.1,0,0.1,0,0.2l0.2-0.2C37.3,42.4,37.2,42.4,37.1,42.4z M37.1,42.4L37.1,42.4c0-0.1-0.1-0.1-0.2-0.1c0,0.1,0,0.1,0,0.2
					C36.9,42.4,37,42.4,37.1,42.4C37,42.4,37,42.4,37.1,42.4z M36.8,42.2C36.8,42.1,36.8,42.1,36.8,42.2c-0.1-0.1-0.1-0.1-0.2-0.1
					c0,0.1,0,0.2,0,0.2C36.6,42.2,36.7,42.2,36.8,42.2C36.7,42.2,36.8,42.2,36.8,42.2z M36.3,41.7c0,0.1,0,0.1,0,0.2
					c0,0,0.1,0,0.2,0v-0.1C36.4,41.8,36.4,41.8,36.3,41.7z M36.1,41.4c0,0.1,0,0.2,0,0.2c0.1,0,0.1,0,0.2,0.1c0-0.1,0-0.2,0-0.2
					C36.2,41.4,36.1,41.4,36.1,41.4z M35.9,41c0,0.1,0,0.1-0.1,0.2c0,0,0.1,0,0.2,0.1C36,41.2,36,41.1,35.9,41
					C36,41.1,36,41,35.9,41z M35.7,40.8c0,0,0.1,0.1,0.2,0.1c0-0.1,0-0.2,0-0.3C35.8,40.7,35.8,40.8,35.7,40.8z"/>
			</g>
			<path d="M35.4,41.1c0,0.1,0.1,0.1,0.1,0.2c0,0.1,0,0.1,0,0.2c0.1,0.3,0.1,0.6,0.1,0.6l0,0l0,0l0,0c0,0,0.1-0.3-0.1-0.6v-0.1l0,0
				c0,0,0.1,0,0.1-0.1c0.1-0.1,0.1-0.3,0.1-0.5c0.1,0.3,0.3,0.5,0.4,0.6c0.2,0.1,0.2,0.3,0.2,0.3l0,0l0,0c0,0,0.1-0.3-0.2-0.4
				c-0.1,0-0.3-0.4-0.4-0.7v-0.1c0,0.1,0.1,0.1,0.1,0.2c0.1,0.1,0.1,0.2,0.2,0.3c0,0.1,0.1,0.1,0.2,0.1h0.1c0.1-0.1,0.1-0.2,0-0.3
				c-0.2-0.3-0.7-0.4-0.7-0.4l0,0l0,0l0,0l0,0l0,0l0,0l0,0l0,0l0,0l0,0l0,0l0,0l0,0l0,0l0,0l0,0l0,0C35.7,40.1,35.3,40.8,35.4,41.1z
				 M35.8,40.2c0.1,0,0.4,0.2,0.6,0.4c0.1,0.1,0.1,0.2,0,0.3c-0.1,0-0.1,0-0.2,0c0,0-0.1-0.1-0.2-0.3C36,40.4,35.9,40.3,35.8,40.2z
				 M35.6,41.2c0-0.3,0.1-0.8,0.1-1c0,0.1,0.1,0.2,0.1,0.3C35.9,40.8,35.8,41.1,35.6,41.2C35.7,41.2,35.7,41.3,35.6,41.2z
				 M35.7,40.4c0,0.2-0.1,0.6-0.1,0.8l-0.1-0.1C35.4,40.9,35.6,40.6,35.7,40.4z"/>
		</g>
		<g>
			
				<linearGradient id="SVGID_10_" gradientUnits="userSpaceOnUse" x1="687.5187" y1="55.7955" x2="692.4509" y2="55.7955" gradientTransform="matrix(-1 0 0 -1 724.748 100)">
				<stop  offset="5.618000e-03" style="stop-color:#FAFCFF"/>
				<stop  offset="1" style="stop-color:#E5E8F5"/>
			</linearGradient>
			<path style="fill:url(#SVGID_10_);" d="M32.3,43.1c0,0.1,0.2,0.3,0.6,0.4c0.7,0.2,1,0.4,1.2,0.7s0.7,0.7,1.2,0.8
				c0.1,0,0.1,0,0.2,0c0.6,0,1.3,0,1.6-0.3c0.1-0.1,0.2-0.3,0.2-0.5l0,0c0,0,0.3,0.8-0.6,1c-0.9,0.2-1.5,0.1-1.9-0.1
				c-0.4-0.2-0.8-0.7-1.1-0.9c-0.2-0.2-0.9-0.3-1.1-0.4C32.3,43.7,32.3,43.5,32.3,43.1L32.3,43.1z"/>
			
				<linearGradient id="SVGID_11_" gradientUnits="userSpaceOnUse" x1="687.5596" y1="57.3403" x2="692.451" y2="57.3403" gradientTransform="matrix(-1 0 0 -1 724.748 100)">
				<stop  offset="0" style="stop-color:#E95281"/>
				<stop  offset="1" style="stop-color:#BF3D62"/>
			</linearGradient>
			<path style="fill:url(#SVGID_11_);" d="M32.3,43.1L32.3,43.1c0,0.1,0.2,0.4,0.6,0.5c0.7,0.2,1,0.4,1.2,0.7s0.7,0.7,1.2,0.8
				c0.1,0,0.1,0,0.2,0c0.6,0,1.3,0,1.6-0.3c0.1-0.1,0.2-0.3,0.2-0.5l0,0c0-0.2-0.1-0.4-0.5-0.5c-0.1,0-0.2-0.1-0.3-0.1h-0.1
				c-0.5-0.2-0.9-0.4-1.2-0.8c-0.3-0.5-0.5-1.4-0.4-2.4c0,0-1,0-1.3-0.2c-0.4-0.2-0.6,0-0.6,0.3l0,0c0,0.3-0.1,1.1-0.3,1.6
				C32.3,42.6,32.3,43.1,32.3,43.1z"/>
			
				<linearGradient id="SVGID_12_" gradientUnits="userSpaceOnUse" x1="690.1547" y1="59.4138" x2="691.8802" y2="59.4138" gradientTransform="matrix(-1 0 0 -1 724.748 100)">
				<stop  offset="5.618000e-03" style="stop-color:#FAFCFF"/>
				<stop  offset="1" style="stop-color:#E5E8F5"/>
			</linearGradient>
			<path style="fill:url(#SVGID_12_);" d="M32.9,40.5c0,0.1,0.1,0.2,0.2,0.3c0.3,0.3,1.1-0.1,1.1-0.1l0.4-0.3c0,0-0.8,0.1-1.2-0.1
				C33.1,40.2,32.9,40.3,32.9,40.5z"/>
			
				<linearGradient id="SVGID_13_" gradientUnits="userSpaceOnUse" x1="688.4199" y1="57.75" x2="690.6003" y2="57.75" gradientTransform="matrix(-1 0 0 -1 724.748 100)">
				<stop  offset="5.618000e-03" style="stop-color:#FAFCFF"/>
				<stop  offset="1" style="stop-color:#E5E8F5"/>
			</linearGradient>
			<path style="fill:url(#SVGID_13_);" d="M34.2,40.8c0-0.1,0.2-0.3,0.6-0.4c-0.1,1,0.1,1.9,0.4,2.4c0.2,0.4,0.7,0.6,1.2,0.8
				c-0.2,0-0.5,0.1-0.7,0.5c-0.3-0.1-1-0.6-1.1-1.2C34.2,42,34.1,40.9,34.2,40.8z"/>
			
				<linearGradient id="SVGID_14_" gradientUnits="userSpaceOnUse" x1="687.5592" y1="55.7" x2="689.5026" y2="55.7" gradientTransform="matrix(-1 0 0 -1 724.748 100)">
				<stop  offset="5.618000e-03" style="stop-color:#FAFCFF"/>
				<stop  offset="1" style="stop-color:#E5E8F5"/>
			</linearGradient>
			<path style="fill:url(#SVGID_14_);" d="M36.3,43.6c0.1,0,0.2,0.1,0.4,0.1c0.6,0.2,0.6,0.7,0.3,1S36,45,35.4,45
				c-0.1,0-0.1,0-0.2,0c0-0.2,0.1-0.6,0.3-0.9l0,0C35.9,43.7,36.1,43.6,36.3,43.6z"/>
			<g>
				<path d="M35.5,43.8C35.5,43.8,35.5,43.7,35.5,43.8c0-0.1,0-0.2,0-0.3c-0.2,0-0.2,0.1-0.2,0.1l0,0l0,0c0-0.1,0-0.2,0-0.2
					c-0.1,0-0.2,0-0.2,0l0,0l0,0c0-0.1,0-0.2,0-0.3c-0.1,0-0.2,0-0.2,0l0,0l0,0c0-0.1,0.1-0.2,0.1-0.2c-0.1,0-0.2-0.1-0.2-0.1l0,0
					l0,0c0,0,0.1-0.1,0.1-0.3c-0.1,0-0.1-0.1-0.2-0.1l0,0l0,0c0,0,0.1-0.1,0.1-0.2c-0.1-0.1-0.2-0.1-0.2-0.2l0,0l0,0
					c0,0,0.3-0.2,0.3-0.4l0,0l0,0c0,0,0,0.3-0.1,0.6c0.1,0.1,0.1,0.1,0.1,0.1l0,0c0,0.1,0,0.2,0,0.3c0.1,0,0.1,0.1,0.1,0.1l0,0
					c0,0,0,0.1,0,0.3c0.1,0.1,0.2,0.1,0.2,0.1l0,0c0,0,0,0.1,0,0.2c0.1,0,0.1,0,0.2,0.1l0,0c0,0,0,0.1,0,0.2c0.1,0,0.2,0,0.2,0l0,0
					l0,0v0.1c0.1,0,0.2,0,0.3,0.1l0,0l0,0L35.5,43.8L35.5,43.8L35.5,43.8z M35.5,43.5c0,0.1,0,0.1,0,0.2l0.2-0.2
					C35.7,43.5,35.6,43.5,35.5,43.5z M35.5,43.4L35.5,43.4c0-0.1-0.1-0.1-0.2-0.1c0,0.1,0,0.1,0,0.2C35.3,43.4,35.4,43.4,35.5,43.4
					L35.5,43.4z M35.2,43.2c0-0.1,0-0.1,0-0.2c-0.1,0-0.1-0.1-0.2-0.1c0,0.1,0,0.2,0,0.2C35.1,43.2,35.1,43.2,35.2,43.2L35.2,43.2z
					 M34.8,42.7c0,0.1,0,0.1,0,0.2c0,0,0.1,0,0.2,0v-0.1C35,42.7,34.9,42.7,34.8,42.7z M34.7,42.3c0,0.1-0.1,0.2-0.1,0.2
					c0.1,0,0.1,0,0.2,0.1C34.8,42.4,34.8,42.4,34.7,42.3C34.8,42.3,34.7,42.3,34.7,42.3z M34.6,41.9c0,0.1,0,0.1-0.1,0.2l0.1,0.1
					C34.7,42.1,34.7,42,34.6,41.9L34.6,41.9z M34.4,41.6L34.4,41.6c0.1,0,0.1-0.1,0.2-0.2C34.5,41.5,34.4,41.6,34.4,41.6z"/>
			</g>
			<path d="M34.1,41.9c0,0.1,0,0.1,0.1,0.2c0,0.1,0,0.1,0,0.2c0.1,0.3,0,0.6,0,0.6l0,0l0,0l0,0c0,0,0.1-0.3,0-0.6v-0.1l0,0h0.1
				c0.1-0.1,0.2-0.2,0.2-0.5c0.1,0.3,0.2,0.5,0.3,0.6c0.2,0.1,0.1,0.3,0.1,0.3l0,0l0,0c0,0,0.1-0.3-0.2-0.4
				c-0.1-0.1-0.2-0.4-0.3-0.8v-0.1c0,0.1,0,0.1,0.1,0.2c0.1,0.1,0.1,0.2,0.1,0.3s0.1,0.1,0.2,0.1h0.1c0.1,0,0.1-0.2,0.1-0.3
				c-0.2-0.3-0.6-0.5-0.6-0.5l0,0l0,0l0,0l0,0l0,0l0,0l0,0l0,0l0,0l0,0l0,0l0,0l0,0l0,0l0,0l0,0l0,0C34.5,41,34,41.5,34.1,41.9z
				 M34.6,41c0.1,0.1,0.4,0.2,0.5,0.4c0.1,0.1,0,0.2,0,0.2c-0.1,0-0.2,0-0.2,0s-0.1-0.2-0.1-0.3C34.7,41.3,34.7,41.1,34.6,41z
				 M34.2,42.1c0-0.3,0.2-0.8,0.3-1c0,0.1,0,0.2,0.1,0.3c0,0.3-0.1,0.6-0.2,0.6C34.3,42.1,34.3,42.1,34.2,42.1z M34.4,41.2
				c-0.1,0.2-0.2,0.6-0.2,0.8v-0.1C34.1,41.7,34.3,41.4,34.4,41.2z"/>
		</g>
	</g>
</g>
</svg>
