<?xml version="1.0" encoding="utf-8"?>
<!-- Generator: Adobe Illustrator 23.0.1, SVG Export Plug-In . SVG Version: 6.00 Build 0)  -->
<svg version="1.1" id="Layer_1" xmlns="http://www.w3.org/2000/svg" xmlns:xlink="http://www.w3.org/1999/xlink" x="0px" y="0px"
	 viewBox="0 0 100 100" style="enable-background:new 0 0 100 100;" xml:space="preserve">
<g id="woman-controller_1_">
	<g>
		<linearGradient id="SVGID_1_" gradientUnits="userSpaceOnUse" x1="65.0126" y1="91.2306" x2="65.0126" y2="64.1105">
			<stop  offset="6.297816e-03" style="stop-color:#8FC07D"/>
			<stop  offset="0.154" style="stop-color:#77AE73"/>
			<stop  offset="0.364" style="stop-color:#5B9A67"/>
			<stop  offset="0.5754" style="stop-color:#478B5F"/>
			<stop  offset="0.7872" style="stop-color:#3B825A"/>
			<stop  offset="1" style="stop-color:#377F58"/>
		</linearGradient>
		<path style="fill:url(#SVGID_1_);" d="M69.1,64.4c0,0,0.9,3.7,0,7c-0.6,2.3,0,17.6,0,17.6s-0.6,0.8-1.8,0c0,0-1.9-15.9-1.9-17
			l-0.8,0.4c0,0-1.1,5-1.1,7.4s0.2,11.3,0.2,11.3s-1,0.4-1.7-0.2c0,0-1.1-9.4-1.4-11.9C60.3,76.4,61,66.6,61,66.6
			S66.5,63.1,69.1,64.4z"/>
	</g>
</g>
</svg>
