<?xml version="1.0" encoding="utf-8"?>
<!-- Generator: Adobe Illustrator 23.0.1, SVG Export Plug-In . SVG Version: 6.00 Build 0)  -->
<svg version="1.1" id="Layer_1" xmlns="http://www.w3.org/2000/svg" xmlns:xlink="http://www.w3.org/1999/xlink" x="0px" y="0px"
	 viewBox="0 0 100 100" style="enable-background:new 0 0 100 100;" xml:space="preserve">
<g id="right-leg_10_">
	
		<linearGradient id="SVGID_1_" gradientUnits="userSpaceOnUse" x1="-231.1342" y1="62.2564" x2="-229.9362" y2="62.2564" gradientTransform="matrix(1 0 0 1 309.3953 0)">
		<stop  offset="5.618000e-03" style="stop-color:#000000"/>
		<stop  offset="1" style="stop-color:#4E4D4D"/>
	</linearGradient>
	<path style="fill:url(#SVGID_1_);" d="M79.4,61.5c0,0,0.1,0.2,0.1,0.4s0,0.4,0,0.5c0,0-0.3,0.1-0.5,0.4c-0.3,0.4-1,0.2-0.5-0.3
		C79,62.1,79.4,61.5,79.4,61.5z"/>
	
		<linearGradient id="SVGID_2_" gradientUnits="userSpaceOnUse" x1="-231.211" y1="56.15" x2="-229.0052" y2="56.15" gradientTransform="matrix(1 0 0 1 309.3953 0)">
		<stop  offset="5.117199e-03" style="stop-color:#F7C6D3"/>
		<stop  offset="1" style="stop-color:#F3A8B2"/>
	</linearGradient>
	<path style="fill:url(#SVGID_2_);" d="M79.9,53.2c0.4,0.6,0.6,1.7,0.5,2.5s-1,5.3-1,5.9c0,0-0.1,0.7-0.4,1s-0.4,0.2-0.5,0.1
		c0-0.1,0.5-0.6,0.5-0.9c0,0,0.1-6.8-0.1-7.1c-0.1-0.3-0.4-0.9-0.3-1.3c0.1-0.4-0.4-3.9-0.4-3.9l1.9,0.1
		C80.1,49.6,79.5,52.6,79.9,53.2z"/>
</g>
</svg>
