<?xml version="1.0" encoding="utf-8"?>
<!-- Generator: Adobe Illustrator 23.0.1, SVG Export Plug-In . SVG Version: 6.00 Build 0)  -->
<svg version="1.1" id="Layer_1" xmlns="http://www.w3.org/2000/svg" xmlns:xlink="http://www.w3.org/1999/xlink" x="0px" y="0px"
	 viewBox="0 0 100 100" style="enable-background:new 0 0 100 100;" xml:space="preserve">
<g id="socle-envoi-it_1_">
	<g id="paper-2_1_">
		<g>
			
				<linearGradient id="SVGID_1_" gradientUnits="userSpaceOnUse" x1="4373.5586" y1="1092.6663" x2="4377.71" y2="1085.3313" gradientTransform="matrix(-0.7618 0.6479 -0.208 -1.1358 3600.2773 -1547.5612)">
				<stop  offset="0" style="stop-color:#A3D0CE"/>
				<stop  offset="0.9992" style="stop-color:#BED9A7"/>
			</linearGradient>
			<polygon style="fill:url(#SVGID_1_);" points="39.6,54.1 41.7,52.3 41.1,49 40.5,48.9 38.9,50.2 			"/>
			
				<linearGradient id="SVGID_2_" gradientUnits="userSpaceOnUse" x1="-225.6644" y1="50.85" x2="-225.074" y2="50.85" gradientTransform="matrix(1 0 0 -1 266.1266 100)">
				<stop  offset="6.813359e-03" style="stop-color:#739965"/>
				<stop  offset="0.9989" style="stop-color:#286143"/>
			</linearGradient>
			<polygon style="fill:url(#SVGID_2_);" points="40.5,48.9 40.6,49.4 41.1,49 			"/>
			
				<linearGradient id="SVGID_3_" gradientUnits="userSpaceOnUse" x1="-226.7053" y1="49.65" x2="-225.3468" y2="49.65" gradientTransform="matrix(1 0 0 -1 266.1266 100)">
				<stop  offset="6.813359e-03" style="stop-color:#739965"/>
				<stop  offset="0.9989" style="stop-color:#286143"/>
			</linearGradient>
			<polygon style="fill:url(#SVGID_3_);" points="39.4,51 40.8,49.8 40.8,49.7 39.4,50.8 			"/>
			
				<linearGradient id="SVGID_4_" gradientUnits="userSpaceOnUse" x1="-226.8049" y1="49.3" x2="-225.0985" y2="49.3" gradientTransform="matrix(1 0 0 -1 266.1266 100)">
				<stop  offset="6.813359e-03" style="stop-color:#739965"/>
				<stop  offset="0.9989" style="stop-color:#286143"/>
			</linearGradient>
			<polygon style="fill:url(#SVGID_4_);" points="39.3,51.5 41,50 41,49.9 39.3,51.3 			"/>
			
				<linearGradient id="SVGID_5_" gradientUnits="userSpaceOnUse" x1="-226.7377" y1="48.95" x2="-225.0313" y2="48.95" gradientTransform="matrix(1 0 0 -1 266.1266 100)">
				<stop  offset="6.813359e-03" style="stop-color:#739965"/>
				<stop  offset="0.9989" style="stop-color:#286143"/>
			</linearGradient>
			<polygon style="fill:url(#SVGID_5_);" points="39.4,51.8 41.1,50.4 41.1,50.3 39.4,51.7 			"/>
			
				<linearGradient id="SVGID_6_" gradientUnits="userSpaceOnUse" x1="-226.6705" y1="48.6" x2="-224.9641" y2="48.6" gradientTransform="matrix(1 0 0 -1 266.1266 100)">
				<stop  offset="6.813359e-03" style="stop-color:#739965"/>
				<stop  offset="0.9989" style="stop-color:#286143"/>
			</linearGradient>
			<polygon style="fill:url(#SVGID_6_);" points="39.5,52.2 41.2,50.8 41.1,50.6 39.5,52.1 			"/>
			
				<linearGradient id="SVGID_7_" gradientUnits="userSpaceOnUse" x1="-226.6033" y1="48.2" x2="-224.8969" y2="48.2" gradientTransform="matrix(1 0 0 -1 266.1266 100)">
				<stop  offset="6.813359e-03" style="stop-color:#739965"/>
				<stop  offset="0.9989" style="stop-color:#286143"/>
			</linearGradient>
			<polygon style="fill:url(#SVGID_7_);" points="39.5,52.6 41.2,51.1 41.2,51 39.5,52.4 			"/>
			
				<linearGradient id="SVGID_8_" gradientUnits="userSpaceOnUse" x1="-226.5361" y1="47.85" x2="-224.8297" y2="47.85" gradientTransform="matrix(1 0 0 -1 266.1266 100)">
				<stop  offset="6.813359e-03" style="stop-color:#739965"/>
				<stop  offset="0.9989" style="stop-color:#286143"/>
			</linearGradient>
			<polygon style="fill:url(#SVGID_8_);" points="39.6,52.9 41.3,51.5 41.3,51.4 39.6,52.8 			"/>
			
				<linearGradient id="SVGID_9_" gradientUnits="userSpaceOnUse" x1="-226.4688" y1="47.5" x2="-224.7625" y2="47.5" gradientTransform="matrix(1 0 0 -1 266.1266 100)">
				<stop  offset="6.813359e-03" style="stop-color:#739965"/>
				<stop  offset="0.9989" style="stop-color:#286143"/>
			</linearGradient>
			<polygon style="fill:url(#SVGID_9_);" points="39.7,53.3 41.4,51.9 41.3,51.7 39.7,53.2 			"/>
		</g>
	</g>
</g>
</svg>
