<?xml version="1.0" encoding="utf-8"?>
<!-- Generator: Adobe Illustrator 23.0.1, SVG Export Plug-In . SVG Version: 6.00 Build 0)  -->
<svg version="1.1" id="Layer_1" xmlns="http://www.w3.org/2000/svg" xmlns:xlink="http://www.w3.org/1999/xlink" x="0px" y="0px"
	 viewBox="0 0 100 100" style="enable-background:new 0 0 100 100;" xml:space="preserve">
<g>
	<g style="opacity:0.24;">
		
			<linearGradient id="SVGID_1_" gradientUnits="userSpaceOnUse" x1="673.8953" y1="65.4202" x2="671.1547" y2="60.6734" gradientTransform="matrix(-1 0 0 -1 724.748 100)">
			<stop  offset="0" style="stop-color:#6485C3;stop-opacity:0"/>
			<stop  offset="0.2111" style="stop-color:#6A8BC6;stop-opacity:0.1266"/>
			<stop  offset="0.4949" style="stop-color:#7A9CCF;stop-opacity:0.297"/>
			<stop  offset="0.8189" style="stop-color:#95B8DE;stop-opacity:0.4913"/>
			<stop  offset="1" style="stop-color:#A7CBE8;stop-opacity:0.6"/>
		</linearGradient>
		<path style="fill:url(#SVGID_1_);" d="M47.3,36.7c-0.3,0.2-0.3,0.5,0,0.6l4.4,2.5c0.3,0.2,0.8,0.2,1.1,0l4.4-2.5
			c0.3-0.2,0.3-0.5,0-0.6l-4.4-2.5c-0.3-0.2-0.8-0.2-1.1,0L47.3,36.7z"/>
	</g>
	<g>
		
			<linearGradient id="SVGID_2_" gradientUnits="userSpaceOnUse" x1="667.3919" y1="64.9" x2="677.7119" y2="64.9" gradientTransform="matrix(-1 0 0 -1 724.748 100)">
			<stop  offset="0" style="stop-color:#74C7F0"/>
			<stop  offset="0.3181" style="stop-color:#A1D9F5"/>
			<stop  offset="1" style="stop-color:#FFFFFF"/>
		</linearGradient>
		<path style="fill:url(#SVGID_2_);" d="M47.3,34.8c-0.3,0.2-0.3,0.5,0,0.6l4.4,2.5c0.3,0.2,0.8,0.2,1.1,0l4.4-2.5
			c0.3-0.2,0.3-0.5,0-0.6l-4.4-2.5c-0.3-0.2-0.8-0.2-1.1,0L47.3,34.8z"/>
	</g>
	<g>
		
			<linearGradient id="SVGID_3_" gradientUnits="userSpaceOnUse" x1="667.8439" y1="64.9" x2="677.2596" y2="64.9" gradientTransform="matrix(-1 0 0 -1 724.748 100)">
			<stop  offset="0" style="stop-color:#57AD5C"/>
			<stop  offset="1" style="stop-color:#80C07C"/>
		</linearGradient>
		<path style="fill:url(#SVGID_3_);" d="M52.2,37.7c0.1,0,0.3,0,0.4-0.1l4.4-2.5l-4.3-2.5c-0.1,0-0.2-0.1-0.4-0.1
			c-0.1,0-0.3,0-0.4,0.1l-4.4,2.5l4.3,2.5C51.9,37.7,52,37.7,52.2,37.7z"/>
	</g>
	
		<linearGradient id="SVGID_4_" gradientUnits="userSpaceOnUse" x1="667.3892" y1="63.3" x2="677.7119" y2="63.3" gradientTransform="matrix(-1 0 0 -1 724.748 100)">
		<stop  offset="0" style="stop-color:#6FBB84"/>
		<stop  offset="1" style="stop-color:#57AD5C"/>
	</linearGradient>
	<path style="fill:url(#SVGID_4_);" d="M47,35.1L47,35.1L47,35.1C47,35.2,47,35.2,47,35.1C47,35.2,47,35.2,47,35.1
		C47,35.2,47,35.2,47,35.1L47,35.1L47,35.1L47,35.1L47,35.1L47,35.1L47,35.1L47,35.1L47,35.1L47,35.1L47,35.1l4.4,2.6c0,0,0,0,0.1,0
		l0,0c0,0,0,0,0.1,0l0,0l0,0l0,0l0,0l0,0h0.1l0,0c0,0,0,0,0.1,0l0,0l0,0l0,0l0,0l0,0l0,0l0,0l0,0l0,0l0,0l0,0h0.1l0,0
		c0,0,0.1,0,0.1-0.1l4.4-2.5c0.2-0.1,0.2-0.2,0.2-0.3v0.9c0,0.1-0.1,0.2-0.2,0.3L52,38.5c0,0-0.1,0-0.1,0.1l0,0l0,0h-0.1l0,0l0,0
		l0,0l0,0l0,0l0,0l0,0l0,0l0,0l0,0l0,0l0,0l0,0l0,0l0,0l0,0l0,0c0,0,0,0-0.1,0l0,0l0,0h-0.1l0,0l0,0l0,0l0,0l0,0l0,0l0,0
		c0,0,0,0-0.1,0l0,0c0,0,0,0-0.1,0L47,36.1l0,0l0,0l0,0l0,0l0,0l0,0l0,0l0,0l0,0l0,0l0,0l0,0l0,0l0,0l0,0l0,0l0,0l0,0l0,0l0,0l0,0
		l0,0l0,0V35.1z"/>
	<g>
		
			<linearGradient id="SVGID_5_" gradientUnits="userSpaceOnUse" x1="165.656" y1="75.6418" x2="165.656" y2="64.1741" gradientTransform="matrix(-1 0 0 -1 218.0767 100)">
			<stop  offset="0" style="stop-color:#E95281"/>
			<stop  offset="1" style="stop-color:#BF3D62"/>
		</linearGradient>
		<path style="fill:url(#SVGID_5_);" d="M50.4,27c0,0.1,0,0.2,0,0.2l0,0l0.1,8c0.5,0.2,1,0.2,1.2,0.1c0.3-0.1,0.4-0.2,0.4-0.2l0.1-6
			V29l0.4,6.6c1.1,0.6,1.7-0.2,1.7-0.2v-5.6c0,0,0-0.8,0.2-1.9v-0.1c0-0.1,0-0.1,0-0.2c0.1-0.6,0-1.2-0.1-1.6v-0.1v-0.1l0,0l0,0
			c0-0.1,0-0.2,0-0.2c-0.4-0.7-0.9-0.9-2.2-1.2c-1.2-0.2-1.9,0.7-1.9,0.7v0.6C50.4,26,50.4,26.6,50.4,27z"/>
		
			<linearGradient id="SVGID_6_" gradientUnits="userSpaceOnUse" x1="165.6267" y1="75.2249" x2="165.6267" y2="73.5442" gradientTransform="matrix(-1 0 0 -1 218.0767 100)">
			<stop  offset="0" style="stop-color:#E95281"/>
			<stop  offset="1" style="stop-color:#BF3D62"/>
		</linearGradient>
		<path style="fill:url(#SVGID_6_);" d="M52.6,26.5c-0.8,0-1.7-0.6-2-1.1c0.3-0.3,0.9-0.7,1.7-0.6c1.1,0.2,1.6,0.4,2,1
			C54.2,26.1,53.7,26.5,52.6,26.5z"/>
		<g>
			
				<linearGradient id="SVGID_7_" gradientUnits="userSpaceOnUse" x1="163.7927" y1="69.15" x2="164.0236" y2="69.15" gradientTransform="matrix(-1 0 0 -1 218.0767 100)">
				<stop  offset="5.618000e-03" style="stop-color:#FAFCFF"/>
				<stop  offset="1" style="stop-color:#E5E8F5"/>
			</linearGradient>
			<path style="fill:url(#SVGID_7_);" d="M54.2,35.6c0-0.3,0-0.8,0-1.3c0-2.1-0.1-5.2,0-5.9c0.2-1.1-0.1-2.3-0.1-2.3H54
				c0,0,0.3,1.2,0.1,2.2c-0.1,0.8-0.1,3.9,0,6C54.1,34.9,54.1,35.3,54.2,35.6L54.2,35.6z"/>
		</g>
		
			<linearGradient id="SVGID_8_" gradientUnits="userSpaceOnUse" x1="166.7543" y1="73.35" x2="167.6775" y2="73.35" gradientTransform="matrix(-1 0 0 -1 218.0767 100)">
			<stop  offset="5.618000e-03" style="stop-color:#FAFCFF"/>
			<stop  offset="1" style="stop-color:#E5E8F5"/>
		</linearGradient>
		<path style="fill:url(#SVGID_8_);" d="M50.4,27c0,0.1,0,0.2,0,0.2c0.7-0.3,0.9-1,0.9-1l-0.2-0.1C51,26.5,50.7,26.8,50.4,27z"/>
		
			<linearGradient id="SVGID_9_" gradientUnits="userSpaceOnUse" x1="163.8466" y1="72.9" x2="165.1183" y2="72.9" gradientTransform="matrix(-1 0 0 -1 218.0767 100)">
			<stop  offset="5.618000e-03" style="stop-color:#FAFCFF"/>
			<stop  offset="1" style="stop-color:#E5E8F5"/>
		</linearGradient>
		<path style="fill:url(#SVGID_9_);" d="M53,26.6c0,0,0.3,0.9,1.2,1.1c0,0,0-0.1,0-0.2c-0.4-0.1-0.9-0.5-1.1-1L53,26.6z"/>
		
			<linearGradient id="SVGID_10_" gradientUnits="userSpaceOnUse" x1="163.504" y1="74.1406" x2="167.5959" y2="74.1406" gradientTransform="matrix(-1 0 0 -1 218.0767 100)">
			<stop  offset="5.618000e-03" style="stop-color:#FAFCFF"/>
			<stop  offset="1" style="stop-color:#E5E8F5"/>
		</linearGradient>
		<path style="fill:url(#SVGID_10_);" d="M50.5,25.1v0.6c0.6,0.7,1.8,1,2.7,0.9c0.8-0.1,1.3-0.4,1.4-0.5V26v-0.1l0,0l0,0v-0.2
			c-0.2,0.3-0.8,0.5-1.4,0.6C52.4,26.3,51.1,26,50.5,25.1z"/>
		
			<linearGradient id="SVGID_11_" gradientUnits="userSpaceOnUse" x1="165.787" y1="68.95" x2="166.3645" y2="68.95" gradientTransform="matrix(-1 0 0 -1 218.0767 100)">
			<stop  offset="0" style="stop-color:#1A1A1A;stop-opacity:0.6"/>
			<stop  offset="0.1968" style="stop-color:#1D1E2B;stop-opacity:0.4812"/>
			<stop  offset="0.5859" style="stop-color:#252957;stop-opacity:0.2463"/>
			<stop  offset="0.9939" style="stop-color:#2F358B;stop-opacity:0"/>
		</linearGradient>
		<path style="fill:url(#SVGID_11_);" d="M51.7,35.3c0.3-0.1,0.4-0.2,0.4-0.2l0.1-6c0-0.1,0-0.2,0-0.1c0,0,0-0.5-0.2-0.9
			c0-0.2,0-0.9,0-1.3c0,0-0.2,0.8-0.1,1.2c0,0.1,0.1,0.8,0.1,1.3C52,30.9,51.9,34.3,51.7,35.3z"/>
	</g>
</g>
<g id="tee_5_">
	<g id="base_34_">
		<g style="opacity:0.24;">
			
				<linearGradient id="SVGID_12_" gradientUnits="userSpaceOnUse" x1="682.1551" y1="60.6506" x2="679.4145" y2="55.9038" gradientTransform="matrix(-1 0 0 -1 724.748 100)">
				<stop  offset="0" style="stop-color:#6485C3;stop-opacity:0"/>
				<stop  offset="0.2111" style="stop-color:#6A8BC6;stop-opacity:0.1266"/>
				<stop  offset="0.4949" style="stop-color:#7A9CCF;stop-opacity:0.297"/>
				<stop  offset="0.8189" style="stop-color:#95B8DE;stop-opacity:0.4913"/>
				<stop  offset="1" style="stop-color:#A7CBE8;stop-opacity:0.6"/>
			</linearGradient>
			<path style="fill:url(#SVGID_12_);" d="M39,41.4c-0.3,0.2-0.3,0.5,0,0.6l4.4,2.5c0.3,0.2,0.8,0.2,1.1,0l4.4-2.5
				c0.3-0.2,0.3-0.5,0-0.6l-4.4-2.5c-0.3-0.2-0.8-0.2-1.1,0L39,41.4z"/>
		</g>
		<g>
			
				<linearGradient id="SVGID_13_" gradientUnits="userSpaceOnUse" x1="675.6393" y1="60.2" x2="685.9594" y2="60.2" gradientTransform="matrix(-1 0 0 -1 724.748 100)">
				<stop  offset="0" style="stop-color:#74C7F0"/>
				<stop  offset="0.3181" style="stop-color:#A1D9F5"/>
				<stop  offset="1" style="stop-color:#FFFFFF"/>
			</linearGradient>
			<path style="fill:url(#SVGID_13_);" d="M39,39.5c-0.3,0.2-0.3,0.5,0,0.6l4.4,2.5c0.3,0.2,0.8,0.2,1.1,0l4.4-2.5
				c0.3-0.2,0.3-0.5,0-0.6L44.5,37c-0.3-0.2-0.8-0.2-1.1,0L39,39.5z"/>
		</g>
		<g>
			
				<linearGradient id="SVGID_14_" gradientUnits="userSpaceOnUse" x1="676.0913" y1="60.1" x2="685.507" y2="60.1" gradientTransform="matrix(-1 0 0 -1 724.748 100)">
				<stop  offset="0" style="stop-color:#57AD5C"/>
				<stop  offset="1" style="stop-color:#80C07C"/>
			</linearGradient>
			<path style="fill:url(#SVGID_14_);" d="M43.9,42.5c0.1,0,0.3,0,0.4-0.1l4.4-2.5l-4.3-2.5c-0.1,0-0.2-0.1-0.4-0.1
				c-0.1,0-0.3,0-0.4,0.1l-4.4,2.5l4.3,2.5C43.7,42.4,43.8,42.5,43.9,42.5z"/>
		</g>
		
			<linearGradient id="SVGID_15_" gradientUnits="userSpaceOnUse" x1="675.6367" y1="58.5" x2="685.9594" y2="58.5" gradientTransform="matrix(-1 0 0 -1 724.748 100)">
			<stop  offset="0" style="stop-color:#6FBB84"/>
			<stop  offset="1" style="stop-color:#57AD5C"/>
		</linearGradient>
		<path style="fill:url(#SVGID_15_);" d="M38.8,39.9L38.8,39.9L38.8,39.9L38.8,39.9L38.8,39.9C38.8,40,38.8,40,38.8,39.9L38.8,39.9
			L38.8,39.9L38.8,39.9L38.8,39.9L38.8,39.9L38.8,39.9L38.8,39.9L38.8,39.9L38.8,39.9L38.8,39.9l4.4,2.6c0,0,0,0,0.1,0l0,0
			c0,0,0,0,0.1,0l0,0l0,0l0,0l0,0l0,0h0.1l0,0c0,0,0,0,0.1,0l0,0l0,0l0,0l0,0l0,0l0,0l0,0l0,0l0,0l0,0l0,0h0.1l0,0
			c0,0,0.1,0,0.1-0.1l4.4-2.5c0.2-0.1,0.2-0.2,0.2-0.3v0.9c0,0.1-0.1,0.2-0.2,0.3l-4.4,2.5c0,0-0.1,0-0.1,0.1l0,0l0,0h-0.1l0,0l0,0
			l0,0l0,0l0,0l0,0l0,0l0,0l0,0l0,0l0,0l0,0l0,0l0,0l0,0l0,0l0,0c0,0,0,0-0.1,0l0,0l0,0h-0.1l0,0l0,0l0,0l0,0l0,0l0,0l0,0
			c0,0,0,0-0.1,0l0,0c0,0,0,0-0.1,0L39,41.1l0,0l0,0l0,0l0,0l0,0l0,0l0,0l0,0l0,0l0,0l0,0l0,0l0,0l0,0l0,0l0,0l0,0l0,0l0,0l0,0l0,0
			l0,0l0,0L38.8,39.9z"/>
	</g>
	<g id="tee_6_">
		
			<linearGradient id="SVGID_16_" gradientUnits="userSpaceOnUse" x1="-267.4489" y1="64.3321" x2="-265.6491" y2="67.4495" gradientTransform="matrix(1 0 0 -1 309.3953 100)">
			<stop  offset="0" style="stop-color:#E95281"/>
			<stop  offset="1" style="stop-color:#BF3D62"/>
		</linearGradient>
		<path style="fill:url(#SVGID_16_);" d="M42.9,32c-0.4,0-0.9,0.8-1,1.5c-0.1,0.5-0.1,1.2-0.1,1.9c0,0,0.5,0.6,1.8,0
			C43.3,34.9,43.5,33.3,42.9,32z"/>
		<g>
			
				<linearGradient id="SVGID_17_" gradientUnits="userSpaceOnUse" x1="-267.0732" y1="60.7331" x2="-263.4811" y2="66.9548" gradientTransform="matrix(1 0 0 -1 309.3953 100)">
				<stop  offset="0" style="stop-color:#E95281"/>
				<stop  offset="1" style="stop-color:#BF3D62"/>
			</linearGradient>
			<path style="fill:url(#SVGID_17_);" d="M42,38.6c0,0,0.3,0.9,1.7,1.3c0.1,0,0.2,0,0.3,0.1c1,0.1,2-0.2,2.1-0.7c0,0-0.2-1.6,0.2-3
				c0.1-0.5,0.2-1,0.2-1.5c0-0.1,0-0.2,0-0.3c0-0.5-0.1-0.9-0.3-1.1c0-0.1-0.1-0.1-0.2-0.2c-0.1-0.1-0.2-0.2-0.4-0.3l-0.1-0.1
				c-0.5-0.3-1.2-0.6-1.8-0.7c-0.1,0-0.1,0-0.2,0c-0.1,0-0.1,0-0.2,0c-1-0.2-1.2,1.1-1.2,1.7c0,0.6,0.1,2.1,0.1,2.9
				C42.2,37.2,42,38.6,42,38.6z"/>
		</g>
		
			<linearGradient id="SVGID_18_" gradientUnits="userSpaceOnUse" x1="-265.3994" y1="62.7404" x2="-262.8815" y2="62.7404" gradientTransform="matrix(1 0 0 -1 309.3953 100)">
			<stop  offset="0" style="stop-color:#E95281"/>
			<stop  offset="1" style="stop-color:#BF3D62"/>
		</linearGradient>
		<path style="fill:url(#SVGID_18_);" d="M44,40c1,0.1,2-0.2,2.1-0.7c0,0-0.2-1.6,0.2-3c0.1-0.5,0.2-1,0.2-1.5c0-0.1,0-0.2,0-0.3
			l-1.3,0.7c0,0-0.2,3-0.3,3.9C44.8,39.5,44.6,39.8,44,40z"/>
		
			<linearGradient id="SVGID_19_" gradientUnits="userSpaceOnUse" x1="-264.0316" y1="63.1101" x2="-262.2937" y2="66.1201" gradientTransform="matrix(1 0 0 -1 309.3953 100)">
			<stop  offset="0" style="stop-color:#E95281"/>
			<stop  offset="1" style="stop-color:#BF3D62"/>
		</linearGradient>
		<path style="fill:url(#SVGID_19_);" d="M46.2,33.4c-0.2-0.1-0.7,0-0.9,0.7c-0.2,0.5-0.1,2-0.1,2.8c0,0,1.1,0.6,2-0.2
			C47.1,35.9,47,34.2,46.2,33.4z"/>
		
			<linearGradient id="SVGID_20_" gradientUnits="userSpaceOnUse" x1="-265.7843" y1="67.4156" x2="-263.942" y2="67.4156" gradientTransform="matrix(1 0 0 -1 309.3953 100)">
			<stop  offset="0" style="stop-color:#E95281"/>
			<stop  offset="1" style="stop-color:#BF3D62"/>
		</linearGradient>
		<path style="fill:url(#SVGID_20_);" d="M44.1,33c-0.4-0.2-0.5-0.6-0.4-0.8v-0.1l0,0c0.6,0.1,1.3,0.4,1.8,0.7l0,0c0,0,0,0-0.1,0.1
			C45.1,32.9,44.5,33.2,44.1,33z"/>
		<path style="fill:#FFFFFF;" d="M44,33.2c0.6,0.2,1.3-0.2,1.6-0.3l-0.1-0.1l0,0c-0.5-0.3-1.2-0.6-1.8-0.7l0,0l0,0
			c-0.1,0-0.1,0-0.2,0C43.4,32.4,43.4,32.9,44,33.2z M43.6,32.2c0.5,0.1,1.4,0.5,1.7,0.7C45,33,44.5,33.2,44,33.1
			C43.7,32.9,43.6,32.4,43.6,32.2z"/>
	</g>
</g>
<g id="shoes_6_">
	<g id="base_33_">
		<g style="opacity:0.24;">
			
				<linearGradient id="SVGID_21_" gradientUnits="userSpaceOnUse" x1="690.3835" y1="55.8997" x2="687.6429" y2="51.1529" gradientTransform="matrix(-1 0 0 -1 724.748 100)">
				<stop  offset="0" style="stop-color:#6485C3;stop-opacity:0"/>
				<stop  offset="0.2111" style="stop-color:#6A8BC6;stop-opacity:0.1266"/>
				<stop  offset="0.4949" style="stop-color:#7A9CCF;stop-opacity:0.297"/>
				<stop  offset="0.8189" style="stop-color:#95B8DE;stop-opacity:0.4913"/>
				<stop  offset="1" style="stop-color:#A7CBE8;stop-opacity:0.6"/>
			</linearGradient>
			<path style="fill:url(#SVGID_21_);" d="M30.8,46.2c-0.3,0.2-0.3,0.5,0,0.6l4.4,2.5c0.3,0.2,0.8,0.2,1.1,0l4.4-2.5
				c0.3-0.2,0.3-0.5,0-0.6l-4.4-2.5c-0.3-0.2-0.8-0.2-1.1,0L30.8,46.2z"/>
		</g>
		<g>
			
				<linearGradient id="SVGID_22_" gradientUnits="userSpaceOnUse" x1="683.8926" y1="55.4" x2="694.2126" y2="55.4" gradientTransform="matrix(-1 0 0 -1 724.748 100)">
				<stop  offset="0" style="stop-color:#FFFFFF"/>
				<stop  offset="0.3662" style="stop-color:#FCFDFE"/>
				<stop  offset="0.6134" style="stop-color:#F3F8FD"/>
				<stop  offset="0.8248" style="stop-color:#E4EFFA"/>
				<stop  offset="1" style="stop-color:#D1E4F6"/>
			</linearGradient>
			<path style="fill:url(#SVGID_22_);" d="M30.8,44.3c-0.3,0.2-0.3,0.5,0,0.6l4.4,2.5c0.3,0.2,0.8,0.2,1.1,0l4.4-2.5
				c0.3-0.2,0.3-0.5,0-0.6l-4.4-2.5c-0.3-0.2-0.8-0.2-1.1,0L30.8,44.3z"/>
		</g>
		<g>
			
				<linearGradient id="SVGID_23_" gradientUnits="userSpaceOnUse" x1="684.3446" y1="55.4" x2="693.7603" y2="55.4" gradientTransform="matrix(-1 0 0 -1 724.748 100)">
				<stop  offset="0" style="stop-color:#57AD5C"/>
				<stop  offset="1" style="stop-color:#80C07C"/>
			</linearGradient>
			<path style="fill:url(#SVGID_23_);" d="M35.7,47.2c0.1,0,0.3,0,0.4-0.1l4.4-2.5l-4.3-2.5c-0.1,0-0.2-0.1-0.4-0.1
				c-0.1,0-0.3,0-0.4,0.1L31,44.6l4.3,2.5C35.4,47.2,35.5,47.2,35.7,47.2z"/>
		</g>
		
			<linearGradient id="SVGID_24_" gradientUnits="userSpaceOnUse" x1="683.8899" y1="53.8" x2="694.2126" y2="53.8" gradientTransform="matrix(-1 0 0 -1 724.748 100)">
			<stop  offset="0" style="stop-color:#6FBB84"/>
			<stop  offset="1" style="stop-color:#57AD5C"/>
		</linearGradient>
		<path style="fill:url(#SVGID_24_);" d="M30.5,44.6L30.5,44.6C30.5,44.7,30.5,44.7,30.5,44.6C30.5,44.7,30.5,44.7,30.5,44.6
			C30.5,44.7,30.5,44.7,30.5,44.6C30.5,44.7,30.5,44.7,30.5,44.6L30.5,44.6L30.5,44.6L30.5,44.6L30.5,44.6L30.5,44.6L30.5,44.6
			L30.5,44.6L30.5,44.6L30.5,44.6L30.5,44.6l4.4,2.6c0,0,0,0,0.1,0l0,0c0,0,0,0,0.1,0l0,0l0,0l0,0l0,0l0,0h0.1l0,0c0,0,0,0,0.1,0
			l0,0l0,0l0,0l0,0l0,0l0,0l0,0l0,0l0,0l0,0l0,0h0.1l0,0c0,0,0.1,0,0.1-0.1l4.4-2.5c0.2-0.1,0.2-0.2,0.2-0.3v0.9
			c0,0.1-0.1,0.2-0.2,0.3L35.5,48c0,0-0.1,0-0.1,0.1l0,0l0,0h-0.1l0,0l0,0l0,0l0,0l0,0l0,0l0,0l0,0l0,0l0,0l0,0l0,0l0,0l0,0l0,0l0,0
			l0,0c0,0,0,0-0.1,0l0,0l0,0h-0.1l0,0l0,0l0,0l0,0l0,0l0,0l0,0c0,0,0,0-0.1,0l0,0c0,0,0,0-0.1,0l-4.4-2.5l0,0l0,0l0,0l0,0l0,0l0,0
			l0,0l0,0l0,0l0,0l0,0l0,0l0,0l0,0l0,0l0,0l0,0l0,0l0,0l0,0l0,0l0,0l0,0L30.5,44.6z"/>
	</g>
	<g id="shoes_7_">
		<g>
			
				<linearGradient id="SVGID_25_" gradientUnits="userSpaceOnUse" x1="685.7809" y1="56.5201" x2="690.8677" y2="56.5201" gradientTransform="matrix(-1 0 0 -1 724.748 100)">
				<stop  offset="5.618000e-03" style="stop-color:#FAFCFF"/>
				<stop  offset="1" style="stop-color:#E5E8F5"/>
			</linearGradient>
			<path style="fill:url(#SVGID_25_);" d="M33.9,42.6c0,0.1,0.2,0.3,0.6,0.3c0.7,0.1,1,0.2,1.3,0.5c0.2,0.3,0.8,0.6,1.3,0.6
				c0.1,0,0.1,0,0.2,0c0.6-0.1,1.3-0.2,1.5-0.5c0.1-0.1,0.2-0.3,0.1-0.5l0,0c0,0,0.4,0.7-0.4,1.1c-0.8,0.3-1.4,0.3-1.9,0.2
				s-0.9-0.6-1.2-0.7s-0.9-0.1-1.2-0.3C34,43.1,33.9,43,33.9,42.6L33.9,42.6z"/>
			
				<linearGradient id="SVGID_26_" gradientUnits="userSpaceOnUse" x1="685.8661" y1="58.263" x2="690.8946" y2="58.263" gradientTransform="matrix(-1 0 0 -1 724.748 100)">
				<stop  offset="0" style="stop-color:#E95281"/>
				<stop  offset="1" style="stop-color:#BF3D62"/>
			</linearGradient>
			<path style="fill:url(#SVGID_26_);" d="M33.9,42.5L33.9,42.5c0.1,0.1,0.2,0.3,0.6,0.4c0.7,0.1,1,0.2,1.3,0.5
				c0.2,0.3,0.8,0.6,1.3,0.6c0.1,0,0.1,0,0.2,0c0.6-0.1,1.3-0.2,1.5-0.5c0.1-0.1,0.2-0.3,0.1-0.5l0,0c0-0.2-0.2-0.4-0.6-0.5
				c-0.1,0-0.2,0-0.3-0.1h-0.1c-0.5-0.1-1-0.2-1.3-0.6c-0.4-0.4-0.7-1.3-0.8-2.3c0,0-0.9,0.2-1.3,0c-0.4-0.1-0.6,0.1-0.5,0.4l0,0
				c0.1,0.3,0.1,1.1,0,1.6C33.8,42.1,33.9,42.5,33.9,42.5z"/>
			
				<linearGradient id="SVGID_27_" gradientUnits="userSpaceOnUse" x1="689.0061" y1="60.072" x2="690.699" y2="60.072" gradientTransform="matrix(-1 0 0 -1 724.748 100)">
				<stop  offset="5.618000e-03" style="stop-color:#FAFCFF"/>
				<stop  offset="1" style="stop-color:#E5E8F5"/>
			</linearGradient>
			<path style="fill:url(#SVGID_27_);" d="M34,39.9c0,0.1,0.1,0.2,0.3,0.3c0.3,0.2,1-0.2,1-0.2l0.4-0.4c0,0-0.8,0.2-1.2,0.1
				C34.2,39.6,34,39.7,34,39.9z"/>
			
				<linearGradient id="SVGID_28_" gradientUnits="userSpaceOnUse" x1="686.8253" y1="58.65" x2="689.3911" y2="58.65" gradientTransform="matrix(-1 0 0 -1 724.748 100)">
				<stop  offset="5.618000e-03" style="stop-color:#FAFCFF"/>
				<stop  offset="1" style="stop-color:#E5E8F5"/>
			</linearGradient>
			<path style="fill:url(#SVGID_28_);" d="M35.4,40c0-0.1,0.2-0.4,0.5-0.4c0,1,0.4,1.9,0.8,2.3c0.3,0.3,0.8,0.5,1.3,0.6
				c-0.2,0.1-0.4,0.2-0.7,0.6c-0.3-0.1-1-0.4-1.3-1C35.6,41.2,35.3,40.1,35.4,40z"/>
			
				<linearGradient id="SVGID_29_" gradientUnits="userSpaceOnUse" x1="685.8659" y1="56.8" x2="687.6927" y2="56.8" gradientTransform="matrix(-1 0 0 -1 724.748 100)">
				<stop  offset="5.618000e-03" style="stop-color:#FAFCFF"/>
				<stop  offset="1" style="stop-color:#E5E8F5"/>
			</linearGradient>
			<path style="fill:url(#SVGID_29_);" d="M37.9,42.4c0.1,0,0.3,0.1,0.4,0.1c0.7,0.1,0.7,0.6,0.4,1c-0.2,0.3-0.9,0.5-1.5,0.5
				c-0.1,0-0.1,0-0.2,0c0-0.2,0-0.6,0.2-1l0,0C37.5,42.6,37.7,42.5,37.9,42.4z"/>
			<g>
				<path d="M37.1,42.7L37.1,42.7c0-0.1-0.1-0.2-0.1-0.3c-0.2,0-0.2,0.1-0.2,0.1l0,0l0,0c0-0.1,0-0.2,0-0.2c-0.1,0-0.2,0-0.2,0.1
					l0,0l0,0c0-0.1,0-0.2,0-0.3c-0.1,0-0.2,0-0.2,0l0,0l0,0c0-0.1,0-0.2,0-0.2c-0.1,0-0.2-0.1-0.3-0.1l0,0l0,0c0,0,0-0.1,0.1-0.3
					c-0.1,0-0.2-0.1-0.2-0.1l0,0l0,0c0-0.1,0.1-0.1,0.1-0.2c-0.1,0-0.2-0.1-0.2-0.1l0,0l0,0c0,0,0.2-0.2,0.2-0.4l0,0l0,0
					c0,0,0,0.3,0,0.6c0.1,0,0.1,0.1,0.1,0.1l0,0c0,0.1,0,0.2,0,0.3c0.1,0,0.1,0.1,0.2,0.1l0,0c0,0,0,0.1,0.1,0.3
					c0.1,0,0.2,0.1,0.2,0.1l0,0c0,0,0,0.1,0,0.2c0.1,0,0.2,0,0.2,0.1l0,0c0,0,0,0.1,0,0.2C37,42.7,37.1,42.7,37.1,42.7L37.1,42.7
					L37.1,42.7L37.1,42.7c0.1,0.1,0.2,0.1,0.3,0.1l0,0l0,0L37.1,42.7C37.2,42.7,37.2,42.7,37.1,42.7L37.1,42.7z M37.1,42.4
					c0,0.1,0,0.1,0,0.2l0.2-0.2C37.3,42.4,37.2,42.4,37.1,42.4z M37.1,42.4L37.1,42.4c0-0.1-0.1-0.1-0.2-0.1c0,0.1,0,0.1,0,0.2
					C36.9,42.4,37,42.4,37.1,42.4C37,42.4,37,42.4,37.1,42.4z M36.8,42.2C36.8,42.1,36.8,42.1,36.8,42.2c-0.1-0.1-0.1-0.1-0.2-0.1
					c0,0.1,0,0.2,0,0.2C36.6,42.2,36.7,42.2,36.8,42.2C36.7,42.2,36.8,42.2,36.8,42.2z M36.3,41.7c0,0.1,0,0.1,0,0.2
					c0,0,0.1,0,0.2,0v-0.1C36.4,41.8,36.4,41.8,36.3,41.7z M36.1,41.4c0,0.1,0,0.2,0,0.2c0.1,0,0.1,0,0.2,0.1c0-0.1,0-0.2,0-0.2
					C36.2,41.4,36.1,41.4,36.1,41.4z M35.9,41c0,0.1,0,0.1-0.1,0.2c0,0,0.1,0,0.2,0.1C36,41.2,36,41.1,35.9,41
					C36,41.1,36,41,35.9,41z M35.7,40.8c0,0,0.1,0.1,0.2,0.1c0-0.1,0-0.2,0-0.3C35.8,40.7,35.8,40.8,35.7,40.8z"/>
			</g>
			<path d="M35.4,41.1c0,0.1,0.1,0.1,0.1,0.2c0,0.1,0,0.1,0,0.2c0.1,0.3,0.1,0.6,0.1,0.6l0,0l0,0l0,0c0,0,0.1-0.3-0.1-0.6v-0.1l0,0
				c0,0,0.1,0,0.1-0.1c0.1-0.1,0.1-0.3,0.1-0.5c0.1,0.3,0.3,0.5,0.4,0.6c0.2,0.1,0.2,0.3,0.2,0.3l0,0l0,0c0,0,0.1-0.3-0.2-0.4
				c-0.1,0-0.3-0.4-0.4-0.7v-0.1c0,0.1,0.1,0.1,0.1,0.2c0.1,0.1,0.1,0.2,0.2,0.3c0,0.1,0.1,0.1,0.2,0.1h0.1c0.1-0.1,0.1-0.2,0-0.3
				c-0.2-0.3-0.7-0.4-0.7-0.4l0,0l0,0l0,0l0,0l0,0l0,0l0,0l0,0l0,0l0,0l0,0l0,0l0,0l0,0l0,0l0,0l0,0C35.7,40.1,35.3,40.8,35.4,41.1z
				 M35.8,40.2c0.1,0,0.4,0.2,0.6,0.4c0.1,0.1,0.1,0.2,0,0.3c-0.1,0-0.1,0-0.2,0c0,0-0.1-0.1-0.2-0.3C36,40.4,35.9,40.3,35.8,40.2z
				 M35.6,41.2c0-0.3,0.1-0.8,0.1-1c0,0.1,0.1,0.2,0.1,0.3C35.9,40.8,35.8,41.1,35.6,41.2C35.7,41.2,35.7,41.3,35.6,41.2z
				 M35.7,40.4c0,0.2-0.1,0.6-0.1,0.8l-0.1-0.1C35.4,40.9,35.6,40.6,35.7,40.4z"/>
		</g>
		<g>
			
				<linearGradient id="SVGID_30_" gradientUnits="userSpaceOnUse" x1="687.5187" y1="55.7955" x2="692.4509" y2="55.7955" gradientTransform="matrix(-1 0 0 -1 724.748 100)">
				<stop  offset="5.618000e-03" style="stop-color:#FAFCFF"/>
				<stop  offset="1" style="stop-color:#E5E8F5"/>
			</linearGradient>
			<path style="fill:url(#SVGID_30_);" d="M32.3,43.1c0,0.1,0.2,0.3,0.6,0.4c0.7,0.2,1,0.4,1.2,0.7s0.7,0.7,1.2,0.8
				c0.1,0,0.1,0,0.2,0c0.6,0,1.3,0,1.6-0.3c0.1-0.1,0.2-0.3,0.2-0.5l0,0c0,0,0.3,0.8-0.6,1c-0.9,0.2-1.5,0.1-1.9-0.1
				c-0.4-0.2-0.8-0.7-1.1-0.9c-0.2-0.2-0.9-0.3-1.1-0.4C32.3,43.7,32.3,43.5,32.3,43.1L32.3,43.1z"/>
			
				<linearGradient id="SVGID_31_" gradientUnits="userSpaceOnUse" x1="687.5596" y1="57.3403" x2="692.451" y2="57.3403" gradientTransform="matrix(-1 0 0 -1 724.748 100)">
				<stop  offset="0" style="stop-color:#E95281"/>
				<stop  offset="1" style="stop-color:#BF3D62"/>
			</linearGradient>
			<path style="fill:url(#SVGID_31_);" d="M32.3,43.1L32.3,43.1c0,0.1,0.2,0.4,0.6,0.5c0.7,0.2,1,0.4,1.2,0.7s0.7,0.7,1.2,0.8
				c0.1,0,0.1,0,0.2,0c0.6,0,1.3,0,1.6-0.3c0.1-0.1,0.2-0.3,0.2-0.5l0,0c0-0.2-0.1-0.4-0.5-0.5c-0.1,0-0.2-0.1-0.3-0.1h-0.1
				c-0.5-0.2-0.9-0.4-1.2-0.8c-0.3-0.5-0.5-1.4-0.4-2.4c0,0-1,0-1.3-0.2c-0.4-0.2-0.6,0-0.6,0.3l0,0c0,0.3-0.1,1.1-0.3,1.6
				C32.3,42.6,32.3,43.1,32.3,43.1z"/>
			
				<linearGradient id="SVGID_32_" gradientUnits="userSpaceOnUse" x1="690.1547" y1="59.4138" x2="691.8802" y2="59.4138" gradientTransform="matrix(-1 0 0 -1 724.748 100)">
				<stop  offset="5.618000e-03" style="stop-color:#FAFCFF"/>
				<stop  offset="1" style="stop-color:#E5E8F5"/>
			</linearGradient>
			<path style="fill:url(#SVGID_32_);" d="M32.9,40.5c0,0.1,0.1,0.2,0.2,0.3c0.3,0.3,1.1-0.1,1.1-0.1l0.4-0.3c0,0-0.8,0.1-1.2-0.1
				C33.1,40.2,32.9,40.3,32.9,40.5z"/>
			
				<linearGradient id="SVGID_33_" gradientUnits="userSpaceOnUse" x1="688.4199" y1="57.75" x2="690.6003" y2="57.75" gradientTransform="matrix(-1 0 0 -1 724.748 100)">
				<stop  offset="5.618000e-03" style="stop-color:#FAFCFF"/>
				<stop  offset="1" style="stop-color:#E5E8F5"/>
			</linearGradient>
			<path style="fill:url(#SVGID_33_);" d="M34.2,40.8c0-0.1,0.2-0.3,0.6-0.4c-0.1,1,0.1,1.9,0.4,2.4c0.2,0.4,0.7,0.6,1.2,0.8
				c-0.2,0-0.5,0.1-0.7,0.5c-0.3-0.1-1-0.6-1.1-1.2C34.2,42,34.1,40.9,34.2,40.8z"/>
			
				<linearGradient id="SVGID_34_" gradientUnits="userSpaceOnUse" x1="687.5592" y1="55.7" x2="689.5026" y2="55.7" gradientTransform="matrix(-1 0 0 -1 724.748 100)">
				<stop  offset="5.618000e-03" style="stop-color:#FAFCFF"/>
				<stop  offset="1" style="stop-color:#E5E8F5"/>
			</linearGradient>
			<path style="fill:url(#SVGID_34_);" d="M36.3,43.6c0.1,0,0.2,0.1,0.4,0.1c0.6,0.2,0.6,0.7,0.3,1S36,45,35.4,45
				c-0.1,0-0.1,0-0.2,0c0-0.2,0.1-0.6,0.3-0.9l0,0C35.9,43.7,36.1,43.6,36.3,43.6z"/>
			<g>
				<path d="M35.5,43.8C35.5,43.8,35.5,43.7,35.5,43.8c0-0.1,0-0.2,0-0.3c-0.2,0-0.2,0.1-0.2,0.1l0,0l0,0c0-0.1,0-0.2,0-0.2
					c-0.1,0-0.2,0-0.2,0l0,0l0,0c0-0.1,0-0.2,0-0.3c-0.1,0-0.2,0-0.2,0l0,0l0,0c0-0.1,0.1-0.2,0.1-0.2c-0.1,0-0.2-0.1-0.2-0.1l0,0
					l0,0c0,0,0.1-0.1,0.1-0.3c-0.1,0-0.1-0.1-0.2-0.1l0,0l0,0c0,0,0.1-0.1,0.1-0.2c-0.1-0.1-0.2-0.1-0.2-0.2l0,0l0,0
					c0,0,0.3-0.2,0.3-0.4l0,0l0,0c0,0,0,0.3-0.1,0.6c0.1,0.1,0.1,0.1,0.1,0.1l0,0c0,0.1,0,0.2,0,0.3c0.1,0,0.1,0.1,0.1,0.1l0,0
					c0,0,0,0.1,0,0.3c0.1,0.1,0.2,0.1,0.2,0.1l0,0c0,0,0,0.1,0,0.2c0.1,0,0.1,0,0.2,0.1l0,0c0,0,0,0.1,0,0.2c0.1,0,0.2,0,0.2,0l0,0
					l0,0v0.1c0.1,0,0.2,0,0.3,0.1l0,0l0,0L35.5,43.8L35.5,43.8L35.5,43.8z M35.5,43.5c0,0.1,0,0.1,0,0.2l0.2-0.2
					C35.7,43.5,35.6,43.5,35.5,43.5z M35.5,43.4L35.5,43.4c0-0.1-0.1-0.1-0.2-0.1c0,0.1,0,0.1,0,0.2C35.3,43.4,35.4,43.4,35.5,43.4
					L35.5,43.4z M35.2,43.2c0-0.1,0-0.1,0-0.2c-0.1,0-0.1-0.1-0.2-0.1c0,0.1,0,0.2,0,0.2C35.1,43.2,35.1,43.2,35.2,43.2L35.2,43.2z
					 M34.8,42.7c0,0.1,0,0.1,0,0.2c0,0,0.1,0,0.2,0v-0.1C35,42.7,34.9,42.7,34.8,42.7z M34.7,42.3c0,0.1-0.1,0.2-0.1,0.2
					c0.1,0,0.1,0,0.2,0.1C34.8,42.4,34.8,42.4,34.7,42.3C34.8,42.3,34.7,42.3,34.7,42.3z M34.6,41.9c0,0.1,0,0.1-0.1,0.2l0.1,0.1
					C34.7,42.1,34.7,42,34.6,41.9L34.6,41.9z M34.4,41.6L34.4,41.6c0.1,0,0.1-0.1,0.2-0.2C34.5,41.5,34.4,41.6,34.4,41.6z"/>
			</g>
			<path d="M34.1,41.9c0,0.1,0,0.1,0.1,0.2c0,0.1,0,0.1,0,0.2c0.1,0.3,0,0.6,0,0.6l0,0l0,0l0,0c0,0,0.1-0.3,0-0.6v-0.1l0,0h0.1
				c0.1-0.1,0.2-0.2,0.2-0.5c0.1,0.3,0.2,0.5,0.3,0.6c0.2,0.1,0.1,0.3,0.1,0.3l0,0l0,0c0,0,0.1-0.3-0.2-0.4
				c-0.1-0.1-0.2-0.4-0.3-0.8v-0.1c0,0.1,0,0.1,0.1,0.2c0.1,0.1,0.1,0.2,0.1,0.3s0.1,0.1,0.2,0.1h0.1c0.1,0,0.1-0.2,0.1-0.3
				c-0.2-0.3-0.6-0.5-0.6-0.5l0,0l0,0l0,0l0,0l0,0l0,0l0,0l0,0l0,0l0,0l0,0l0,0l0,0l0,0l0,0l0,0l0,0C34.5,41,34,41.5,34.1,41.9z
				 M34.6,41c0.1,0.1,0.4,0.2,0.5,0.4c0.1,0.1,0,0.2,0,0.2c-0.1,0-0.2,0-0.2,0s-0.1-0.2-0.1-0.3C34.7,41.3,34.7,41.1,34.6,41z
				 M34.2,42.1c0-0.3,0.2-0.8,0.3-1c0,0.1,0,0.2,0.1,0.3c0,0.3-0.1,0.6-0.2,0.6C34.3,42.1,34.3,42.1,34.2,42.1z M34.4,41.2
				c-0.1,0.2-0.2,0.6-0.2,0.8v-0.1C34.1,41.7,34.3,41.4,34.4,41.2z"/>
		</g>
	</g>
</g>
</svg>
