<?xml version="1.0" encoding="utf-8"?>
<!-- Generator: Adobe Illustrator 23.0.1, SVG Export Plug-In . SVG Version: 6.00 Build 0)  -->
<svg version="1.1" id="Layer_1" xmlns="http://www.w3.org/2000/svg" xmlns:xlink="http://www.w3.org/1999/xlink" x="0px" y="0px"
	 viewBox="0 0 100 100" style="enable-background:new 0 0 100 100;" xml:space="preserve">
<linearGradient id="hair_1_" gradientUnits="userSpaceOnUse" x1="-231.7242" y1="35.2665" x2="-225.8922" y2="35.2665" gradientTransform="matrix(1 0 0 1 309.3953 0)">
	<stop  offset="5.618000e-03" style="stop-color:#000000"/>
	<stop  offset="1" style="stop-color:#4E4D4D"/>
</linearGradient>
<path id="hair_8_" style="fill:url(#hair_1_);" d="M81.3,35.4c0,0,0.4-0.6,0.7-0.4c0.3,0.2-0.2,0.8-0.6,1c0,0-0.1,0.1-0.2,0.4
	c-0.1,0.3,0.1,1.1-0.2,1.4s-0.7,0.6-0.5,1s2,0.8,2.4,0c0.4-0.9,0.7-1.2,0.5-2.1c-0.3-1-0.1-1.2,0-1.9s0-1.1-0.4-1.5s0-1.6-1-1.8
	c-1-0.2-1.1,0-1.9-0.2S79,32,78.8,32.1s-0.9,0.1-1,0.5c-0.2,0.4,0.1,1,0.7,1.1c0.6,0,0.7,0.4,1.2,0.5s1-0.1,1.2,0.1
	C81.1,34.7,81.2,35.1,81.3,35.4z"/>
</svg>
