<?xml version="1.0" encoding="utf-8"?>
<!-- Generator: Adobe Illustrator 23.0.1, SVG Export Plug-In . SVG Version: 6.00 Build 0)  -->
<svg version="1.1" id="Layer_1" xmlns="http://www.w3.org/2000/svg" xmlns:xlink="http://www.w3.org/1999/xlink" x="0px" y="0px"
	 viewBox="0 0 100 100" style="enable-background:new 0 0 100 100;" xml:space="preserve">
<g id="box_21_">
	<g>
		
			<linearGradient id="SVGID_1_" gradientUnits="userSpaceOnUse" x1="-61.9569" y1="19.6746" x2="-61.9569" y2="37.8588" gradientTransform="matrix(-1 0 0 1 -31.6297 0)">
			<stop  offset="6.297816e-03" style="stop-color:#8FC07D"/>
			<stop  offset="1" style="stop-color:#377F58"/>
		</linearGradient>
		<path style="fill:url(#SVGID_1_);" d="M34.7,19.8c0.6-0.4,1.1-0.1,1.1,0.6l0,10.2c0,0.7-0.5,1.6-1.1,1.9l-8.9,5.1
			c-0.6,0.4-1.1,0.1-1.1-0.6l0-10.2c0-0.7,0.5-1.6,1.1-1.9L34.7,19.8z"/>
	</g>
	<polygon style="fill:#FFFFFF;" points="25.9,26.3 27.9,25.1 27.9,27.4 25.9,28.6 	"/>
	<polygon style="fill:#FFFFFF;" points="28.3,24.9 30.3,23.7 30.3,26.1 28.3,27.2 	"/>
	
		<linearGradient id="SVGID_2_" gradientUnits="userSpaceOnUse" x1="-56.2497" y1="37.7838" x2="-56.2497" y2="13.2672" gradientTransform="matrix(-1 0 0 1 -31.6297 0)">
		<stop  offset="6.297816e-03" style="stop-color:#7FBF7C"/>
		<stop  offset="1" style="stop-color:#E9F4F3"/>
	</linearGradient>
	<path style="fill:url(#SVGID_2_);" d="M35.5,19.7C35.5,19.7,35.5,19.7,35.5,19.7C35.5,19.7,35.5,19.7,35.5,19.7c-0.1,0-0.1,0-0.1,0
		c0,0,0,0,0,0c0,0,0,0,0,0c0,0,0,0,0,0c0,0,0,0,0,0c0,0,0,0-0.1,0c0,0,0,0,0,0h0c0,0-0.1,0-0.1,0c0,0,0,0,0,0c0,0,0,0-0.1,0
		c0,0,0,0,0,0c0,0,0,0,0,0c0,0,0,0,0,0c0,0-0.1,0-0.1,0c0,0,0,0,0,0c0,0-0.1,0-0.1,0c0,0,0,0-0.1,0L25.9,25c0,0-0.1,0-0.1,0.1
		c0,0-0.1,0-0.1,0.1c0,0,0,0,0,0c0,0,0,0,0,0c0,0,0,0-0.1,0.1c0,0,0,0,0,0c0,0-0.1,0-0.1,0.1l0,0c0,0,0,0.1-0.1,0.1c0,0,0,0,0,0
		c0,0,0,0,0,0c0,0,0,0,0,0.1c0,0,0,0-0.1,0.1c0,0,0,0,0,0c0,0,0,0.1-0.1,0.1c0,0,0,0,0,0c0,0,0,0.1-0.1,0.1c0,0,0,0,0,0
		c0,0,0,0.1-0.1,0.1c0,0,0,0,0,0c0,0,0,0.1-0.1,0.1c0,0,0,0,0,0c0,0,0,0.1,0,0.1c0,0,0,0,0,0c0,0,0,0.1,0,0.1c0,0,0,0,0,0
		c0,0,0,0.1,0,0.1c0,0,0,0,0,0.1c0,0,0,0,0,0c0,0,0,0.1,0,0.1c0,0,0,0,0,0c0,0,0,0,0,0.1c0,0,0,0.1,0,0.1v0l0,10.2c0,0,0,0.1,0,0.1
		c0,0,0,0.1,0,0.1c0,0,0,0,0,0.1c0,0,0,0.1,0,0.1c0,0,0,0,0,0c0,0,0,0,0,0c0,0.1,0.1,0.1,0.1,0.1c0,0,0,0,0,0c0,0,0,0,0,0
		c0,0,0,0,0.1,0l0,0l-11-6.4c-0.1,0-0.1-0.1-0.2-0.2c-0.1-0.1-0.1-0.3-0.1-0.5l0-10.2c0-0.1,0-0.1,0-0.2c0,0,0,0,0,0c0,0,0,0,0,0
		c0,0,0-0.1,0-0.1c0,0,0,0,0,0c0,0,0,0,0,0c0,0,0,0,0-0.1c0,0,0,0,0-0.1c0,0,0,0,0,0c0,0,0,0,0,0c0,0,0,0,0,0c0,0,0,0,0-0.1
		c0,0,0,0,0,0c0,0,0,0,0,0c0,0,0-0.1,0-0.1c0,0,0,0,0,0c0,0,0,0,0,0c0,0,0-0.1,0-0.1c0,0,0,0,0,0c0,0,0,0,0,0c0,0,0,0,0,0
		c0,0,0,0,0-0.1c0,0,0,0,0,0c0,0,0,0,0,0c0,0,0-0.1,0.1-0.1c0,0,0,0,0,0c0,0,0,0,0,0c0,0,0,0,0-0.1c0,0,0,0,0,0c0,0,0,0,0,0
		c0,0,0,0,0,0c0,0,0,0,0,0c0,0,0,0,0-0.1c0,0,0,0,0,0c0,0,0,0,0,0c0,0,0-0.1,0.1-0.1c0,0,0,0,0,0c0,0,0,0,0,0c0.1,0,0.1-0.1,0.2-0.1
		c0,0,0,0,0,0c0.1,0,0.1-0.1,0.2-0.1l8.9-5.1c0,0,0.1-0.1,0.1-0.1c0,0,0,0,0,0c0,0,0,0,0,0c0,0,0.1,0,0.1,0c0,0,0,0,0,0c0,0,0,0,0,0
		c0,0,0,0,0,0c0,0,0,0,0,0c0,0,0,0,0,0c0,0,0,0,0,0c0,0,0,0,0,0c0,0,0,0,0.1,0h0c0,0,0,0,0.1,0c0,0,0,0,0,0c0,0,0,0,0,0c0,0,0,0,0,0
		c0,0,0,0,0,0c0,0,0,0,0,0c0,0,0,0,0,0c0,0,0,0,0.1,0c0,0,0,0,0,0l4,2.4l1.6,0.9L35.5,19.7z"/>
	<path style="fill:#FFFFFF;" d="M22.6,21l1,0.6l0-2l-3.5,0l1,0.6l-1.2,0.7c-0.1,0.1-0.2,0.1-0.3,0.2l0,0l0,0c0,0-0.1,0.1-0.1,0.1
		l0,0c0,0,0,0-0.1,0.1c0,0,0,0-0.1,0.1c0,0-0.1,0.1-0.1,0.1c0,0,0,0-0.1,0.1c0,0-0.1,0.1-0.1,0.1l0,0c0,0.1-0.1,0.1-0.1,0.2l0,0
		c0,0-0.1,0.1-0.1,0.1l0,0c0,0-0.1,0.1-0.1,0.1l0,0c0,0.1-0.1,0.1-0.1,0.2l0,0c0,0.1,0,0.1-0.1,0.1l0,0.1c0,0,0,0.1,0,0.1
		c0,0,0,0.1,0,0.1c0,0,0,0.1,0,0.1c0,0.1,0,0.1,0,0.2c0,0,0,0.1,0,0.1c0,0.1,0,0.2-0.1,0.3l0,0c0,0.1,0,0.3,0,0.4l0,10l1.6,0.9
		l0-10.9c0,0,0-0.1,0-0.2l0,0c0-0.1,0-0.1,0-0.2l0,0c0,0,0-0.1,0-0.1l0-0.1c0,0,0,0,0-0.1c0,0,0,0,0-0.1l0,0c0,0,0-0.1,0-0.1l0,0
		c0,0,0-0.1,0.1-0.1l0,0c0,0,0-0.1,0.1-0.1l0,0c0,0,0-0.1,0.1-0.1l0,0c0,0,0-0.1,0.1-0.1l0,0c0,0,0,0,0.1-0.1l0,0c0,0,0,0,0,0
		l0.1-0.1c0,0,0,0,0.1,0l0,0c0,0,0.1-0.1,0.1-0.1L22.6,21z"/>
	<path style="fill:none;stroke:#000000;stroke-width:7.524841e-02;stroke-miterlimit:10;" d="M35.5,19.7"/>
</g>
</svg>
