<?xml version="1.0" encoding="utf-8"?>
<!-- Generator: Adobe Illustrator 23.0.1, SVG Export Plug-In . SVG Version: 6.00 Build 0)  -->
<svg version="1.1" id="Layer_1" xmlns="http://www.w3.org/2000/svg" xmlns:xlink="http://www.w3.org/1999/xlink" x="0px" y="0px"
	 viewBox="0 0 100 100" style="enable-background:new 0 0 100 100;" xml:space="preserve">
<linearGradient id="SVGID_1_" gradientUnits="userSpaceOnUse" x1="-18.5429" y1="84.1739" x2="-11.2911" y2="84.1739" gradientTransform="matrix(-1 0 0 -1 1.0318 100)">
	<stop  offset="0" style="stop-color:#E2E5F4"/>
	<stop  offset="0.2383" style="stop-color:#E4E0ED"/>
	<stop  offset="0.5769" style="stop-color:#EBD1DB"/>
	<stop  offset="0.9741" style="stop-color:#F5BABC"/>
	<stop  offset="1" style="stop-color:#F6B8BA"/>
</linearGradient>
<path style="fill:url(#SVGID_1_);" d="M16.4,20.7c0,0-4.1,0.4-3.7-1.7c0,0,0.3-1.4,0.2-2.3s-1.5-3.7,0.6-5.1s5.2-0.4,5.8,0.9
	c0.6,1.3,0.3,2.7,0,3.3c-0.3,0.6-0.1,1.5-0.5,1.9s-0.8,1.9-1.2,1.9C17.1,19.7,16.4,19.4,16.4,20.7z"/>
<path style="fill:#81656B;" d="M15.8,17.5c0,0-0.5,0-1.2,0.8c-0.4,0.4-1.4,0.2-1.7,0c0,0-0.3-0.8-0.5-1.4s-0.7-2-0.2-3.1
	s3.1-3.9,5.6-2.4s2.1,2.5,2.1,2.5s0.2,0.9-1.1,1.4c-0.6,0.3-1,1.5-1.3,1.9c-0.2,0-0.4-0.1-0.5-0.1c0.1-0.7,0-1.1-0.5-1.2
	C15.7,15.8,15.8,17.5,15.8,17.5z"/>
</svg>
