<?xml version="1.0" encoding="utf-8"?>
<!-- Generator: Adobe Illustrator 23.0.1, SVG Export Plug-In . SVG Version: 6.00 Build 0)  -->
<svg version="1.1" id="Layer_1" xmlns="http://www.w3.org/2000/svg" xmlns:xlink="http://www.w3.org/1999/xlink" x="0px" y="0px"
	 viewBox="0 0 100 100" style="enable-background:new 0 0 100 100;" xml:space="preserve">
<g id="box_27_">
	<g style="opacity:0.4;">
		
			<linearGradient id="SVGID_1_" gradientUnits="userSpaceOnUse" x1="-327.8255" y1="-627.6089" x2="-327.8255" y2="-581.4319" gradientTransform="matrix(0.8718 -1.2886 1.1263 0.762 1013.8787 106.8119)">
			<stop  offset="0" style="stop-color:#252F62"/>
			<stop  offset="0.1575" style="stop-color:#263467;stop-opacity:0.8425"/>
			<stop  offset="0.3432" style="stop-color:#294275;stop-opacity:0.6568"/>
			<stop  offset="0.5431" style="stop-color:#2F598D;stop-opacity:0.4569"/>
			<stop  offset="0.7531" style="stop-color:#3679AE;stop-opacity:0.2469"/>
			<stop  offset="0.9689" style="stop-color:#3FA1D8;stop-opacity:3.109598e-02"/>
			<stop  offset="1" style="stop-color:#41A8DF;stop-opacity:0"/>
		</linearGradient>
		<path style="fill:url(#SVGID_1_);" d="M10.7,67.6c-2.3,1.3-2.6,3.4-0.6,4.8l29.1,19.9c2,1.4,5.5,1.5,7.8,0.2l33.6-18.2
			c2.3-1.3,2.6-3.4,0.6-4.8L52.5,43.2c-2-1.4-5.5-1.5-7.8-0.2L10.7,67.6z"/>
	</g>
	<g>
		
			<linearGradient id="SVGID_2_" gradientUnits="userSpaceOnUse" x1="-1152.8093" y1="46.9542" x2="-1152.8093" y2="118.2258" gradientTransform="matrix(0.9979 6.501389e-02 -6.501389e-02 0.9979 1187.0676 50.8314)">
			<stop  offset="6.297816e-03" style="stop-color:#7FBF7C"/>
			<stop  offset="1" style="stop-color:#E9F4F3"/>
		</linearGradient>
		<path style="fill:url(#SVGID_2_);" d="M17.9,22.3c-2.1-1.4-3.9-0.5-4.1,2L10.9,67c-0.2,2.5,1.4,5.7,3.5,7.1l30.3,20.3
			c2.1,1.4,3.9,0.5,4.1-2l2.9-42.7c0.2-2.5-1.4-5.7-3.5-7.1L17.9,22.3z"/>
	</g>
	<polygon style="fill:#FFFFFF;" points="47.9,47.2 41.1,42.6 40.5,50.8 47.4,55.4 	"/>
	<polygon style="fill:#FFFFFF;" points="39.7,41.8 32.9,37.2 32.3,45.5 39.2,50.1 	"/>
	
		<linearGradient id="SVGID_3_" gradientUnits="userSpaceOnUse" x1="-1141.0795" y1="28.2949" x2="-1106.9509" y2="105.9402" gradientTransform="matrix(0.9979 6.501389e-02 -6.501389e-02 0.9979 1187.0676 50.8314)">
		<stop  offset="6.297816e-03" style="stop-color:#8FC07D"/>
		<stop  offset="1" style="stop-color:#377F58"/>
	</linearGradient>
	<path style="fill:url(#SVGID_3_);" d="M15.3,21.7c0,0,0.1,0,0.1,0c0,0,0,0,0.1,0c0.1,0,0.1,0,0.2,0c0,0,0,0,0.1,0c0,0,0,0,0,0
		c0,0,0,0,0.1,0c0,0,0,0,0.1,0c0.1,0,0.1,0,0.2,0c0,0,0,0,0,0l0.1,0c0.1,0,0.2,0,0.3,0c0,0,0,0,0.1,0c0.1,0,0.1,0,0.2,0c0,0,0,0,0,0
		c0,0,0.1,0,0.1,0c0.1,0,0.1,0,0.2,0.1c0.1,0,0.2,0.1,0.3,0.1c0,0,0.1,0,0.1,0c0.1,0,0.2,0.1,0.3,0.2c0.1,0,0.2,0.1,0.2,0.1
		l30.3,20.3c0.1,0.1,0.2,0.1,0.3,0.2c0.1,0.1,0.2,0.2,0.3,0.2c0,0,0.1,0.1,0.1,0.1c0,0,0,0,0,0c0.1,0.1,0.2,0.1,0.2,0.2c0,0,0,0,0,0
		c0.1,0.1,0.2,0.2,0.2,0.3l0.1,0.1c0.1,0.1,0.2,0.2,0.2,0.3c0,0,0,0,0,0c0,0.1,0.1,0.1,0.1,0.2c0,0.1,0.1,0.1,0.1,0.2
		c0.1,0.1,0.1,0.2,0.2,0.2c0,0.1,0.1,0.1,0.1,0.2c0.1,0.1,0.1,0.2,0.2,0.3c0,0,0,0.1,0.1,0.1c0.1,0.1,0.2,0.3,0.2,0.4c0,0,0,0,0,0.1
		c0.1,0.1,0.1,0.2,0.2,0.4c0,0,0,0.1,0.1,0.1c0.1,0.1,0.1,0.3,0.2,0.4c0,0,0,0,0,0.1c0.1,0.1,0.1,0.3,0.1,0.4c0,0,0,0.1,0,0.1
		c0,0.1,0.1,0.2,0.1,0.3c0,0.1,0,0.1,0,0.2c0,0.1,0,0.2,0.1,0.3c0,0.1,0,0.1,0,0.2c0,0,0,0.1,0,0.1c0,0.2,0,0.3,0.1,0.5
		c0,0.1,0,0.1,0,0.2c0,0.1,0,0.2,0,0.3c0,0.1,0,0.3,0,0.4l0,0l-2.9,42.7c0,0.1,0,0.3,0,0.4c0,0.1,0,0.2,0,0.3c0,0.1,0,0.2-0.1,0.2
		c0,0.1-0.1,0.3-0.1,0.4c0,0.1,0,0.1-0.1,0.2c0,0.1-0.1,0.1-0.1,0.2c-0.1,0.2-0.2,0.4-0.4,0.5c-0.1,0.1-0.1,0.1-0.2,0.1
		c0,0,0,0-0.1,0.1c-0.1,0.1-0.2,0.1-0.2,0.1l0.1,0l40.5-20.2c0.3-0.1,0.5-0.3,0.7-0.6c0.3-0.4,0.5-1.1,0.6-1.8l2.9-42.7
		c0-0.2,0-0.5,0-0.7c0,0,0-0.1,0-0.1c0,0,0-0.1,0-0.1c0-0.1,0-0.2,0-0.3c0-0.1,0-0.1,0-0.1c0,0,0-0.1,0-0.1c0-0.1,0-0.1,0-0.2
		c0-0.1,0-0.1,0-0.2c0,0,0-0.1,0-0.1c0-0.1,0-0.1,0-0.2c0,0,0-0.1,0-0.1c0-0.1,0-0.1-0.1-0.2c0,0,0-0.1,0-0.1c0,0,0,0,0-0.1
		c0-0.1-0.1-0.2-0.1-0.4c0,0,0,0,0,0c0,0,0,0,0-0.1c0-0.1-0.1-0.2-0.1-0.3c0,0,0-0.1,0-0.1c0,0,0-0.1-0.1-0.1c0,0,0-0.1,0-0.1
		c0-0.1-0.1-0.2-0.1-0.3c0,0,0,0,0-0.1c0,0,0,0,0,0c-0.1-0.1-0.1-0.2-0.2-0.3c0,0,0,0,0-0.1c0,0,0-0.1-0.1-0.1
		c0-0.1-0.1-0.1-0.1-0.2c0,0,0-0.1-0.1-0.1c0-0.1-0.1-0.1-0.1-0.2c0,0,0-0.1-0.1-0.1c0,0-0.1-0.1-0.1-0.1c0-0.1-0.1-0.1-0.1-0.2
		c0,0,0-0.1-0.1-0.1c0,0-0.1-0.1-0.1-0.1c-0.1-0.1-0.2-0.2-0.2-0.3c0,0-0.1-0.1-0.1-0.1c0,0,0,0,0,0c-0.2-0.2-0.3-0.4-0.5-0.5
		c0,0-0.1-0.1-0.1-0.1c-0.2-0.2-0.4-0.3-0.6-0.5L58.5,2c-0.2-0.1-0.3-0.2-0.5-0.3c0,0,0,0-0.1,0c0,0-0.1,0-0.1,0
		c-0.1,0-0.2-0.1-0.3-0.1c0,0-0.1,0-0.1,0c0,0-0.1,0-0.1,0c-0.1,0-0.1,0-0.2,0c0,0-0.1,0-0.1,0c0,0-0.1,0-0.1,0c0,0-0.1,0-0.1,0
		c0,0,0,0-0.1,0c-0.1,0-0.1,0-0.2,0l-0.1,0c-0.1,0-0.2,0-0.2,0c0,0,0,0,0,0c0,0-0.1,0-0.1,0c0,0-0.1,0-0.1,0c0,0-0.1,0-0.1,0
		c0,0,0,0-0.1,0c0,0,0,0,0,0c-0.1,0-0.1,0.1-0.2,0.1c0,0,0,0,0,0L40.8,9l-5.7,2.9L15.3,21.7z"/>
	<path style="fill:#FFFFFF;" d="M60.6,29.1L57,30.9l0.5-7.3L70,24.4l-3.6,1.8l4,2.7c0.3,0.2,0.6,0.4,0.9,0.7l0.1,0l0.2,0.1
		c0.1,0.1,0.3,0.2,0.4,0.4l0.1,0.1c0.1,0.1,0.1,0.1,0.2,0.2c0.1,0.1,0.1,0.1,0.2,0.2c0.1,0.1,0.2,0.3,0.3,0.4
		c0.1,0.1,0.1,0.1,0.2,0.2c0.1,0.1,0.2,0.3,0.3,0.4l0.1,0.2c0.1,0.2,0.3,0.4,0.4,0.6l0.1,0.1c0.1,0.2,0.2,0.3,0.3,0.5l0.1,0.2
		c0.1,0.2,0.2,0.4,0.3,0.5l0.1,0.1c0.1,0.2,0.2,0.4,0.3,0.6l0.1,0.1c0.1,0.2,0.1,0.4,0.2,0.5l0.1,0.3c0,0.1,0.1,0.3,0.1,0.4
		c0,0.1,0.1,0.2,0.1,0.4c0,0.1,0.1,0.2,0.1,0.3c0,0.2,0.1,0.4,0.1,0.6c0,0.1,0,0.2,0.1,0.3c0.1,0.4,0.1,0.8,0.2,1.2l0,0.2
		c0,0.5,0,0.9,0,1.3L73,82.1l-5.8,2.8l3-45.4c0-0.1,0-0.3,0-0.5l0-0.1c0-0.2,0-0.4-0.1-0.6l0-0.2c0-0.1,0-0.2-0.1-0.3L70,37.6
		c0-0.1,0-0.1-0.1-0.2c0-0.1,0-0.2-0.1-0.3L69.8,37c0-0.1-0.1-0.2-0.1-0.3l0-0.1c-0.1-0.2-0.1-0.3-0.2-0.4l0-0.1
		c-0.1-0.1-0.1-0.2-0.2-0.3l-0.1-0.1c-0.1-0.1-0.1-0.2-0.2-0.3l0-0.1c-0.1-0.1-0.1-0.2-0.2-0.3l-0.1-0.1c-0.1-0.1-0.1-0.2-0.2-0.2
		l-0.1-0.1c-0.1-0.1-0.1-0.1-0.2-0.2L68,34.1c-0.1-0.1-0.1-0.1-0.2-0.2l-0.1-0.1c-0.2-0.1-0.3-0.2-0.4-0.3L60.6,29.1z"/>
	<path style="fill:none;stroke:#000000;stroke-width:0.2678;stroke-miterlimit:10;" d="M15.1,21.8"/>
</g>
</svg>
