<?xml version="1.0" encoding="utf-8"?>
<!-- Generator: Adobe Illustrator 23.0.1, SVG Export Plug-In . SVG Version: 6.00 Build 0)  -->
<svg version="1.1" id="Layer_1" xmlns="http://www.w3.org/2000/svg" xmlns:xlink="http://www.w3.org/1999/xlink" x="0px" y="0px"
	 viewBox="0 0 100 100" style="enable-background:new 0 0 100 100;" xml:space="preserve">
<g>
	<path d="M12.8,64.5c0.5-0.3,1.1-0.4,1.6-0.2c0.4,0.2,0.5,0.5,0.4,0.9c0.3,0.3,0.3,0.7,0,1c-0.4,0.4-1,0.5-1.4,0.3l-1.6-0.9
		c-0.3-0.2-0.4-0.6-0.1-0.9C11.9,64.4,12.4,64.3,12.8,64.5L12.8,64.5z M13.1,65.2l-0.4,0.4l0.5,0.3l0.4-0.4l0.4,0.2l-0.1-0.9
		L12.7,65L13.1,65.2z"/>
</g>
</svg>
