<?xml version="1.0" encoding="utf-8"?>
<!-- Generator: Adobe Illustrator 23.0.1, SVG Export Plug-In . SVG Version: 6.00 Build 0)  -->
<svg version="1.1" id="Layer_1" xmlns="http://www.w3.org/2000/svg" xmlns:xlink="http://www.w3.org/1999/xlink" x="0px" y="0px"
	 viewBox="0 0 100 100" style="enable-background:new 0 0 100 100;" xml:space="preserve">
<g>
	
		<linearGradient id="SVGID_1_" gradientUnits="userSpaceOnUse" x1="-5.8762" y1="31.95" x2="-21.2998" y2="31.95" gradientTransform="matrix(-1 0 0 -1 1.0318 100)">
		<stop  offset="5.227065e-03" style="stop-color:#AED2BC"/>
		<stop  offset="1" style="stop-color:#6EB768"/>
	</linearGradient>
	<path style="fill:url(#SVGID_1_);" d="M9.2,64.9c-3,1.7-3,4.6,0,6.3c3,1.7,7.9,1.7,10.9,0s3-4.6,0-6.3
		C17.1,63.2,12.2,63.2,9.2,64.9z"/>
</g>
<linearGradient id="SVGID_2_" gradientUnits="userSpaceOnUse" x1="-12.6271" y1="33.7873" x2="-9.5692" y2="33.7873" gradientTransform="matrix(-1 0 0 -1 1.0318 100)">
	<stop  offset="6.813359e-03" style="stop-color:#739965"/>
	<stop  offset="0.9989" style="stop-color:#286143"/>
</linearGradient>
<path style="fill:url(#SVGID_2_);" d="M11.5,65.8c0,0,0.9-0.2,1.3-0.4c0.6-0.3,1.2,0.3,0.5,0.8c-0.5,0.4-1.4,0.9-2.3,0.9
	c-0.7,0.1-0.4-1.1-0.4-1.1L11.5,65.8z"/>
<linearGradient id="SVGID_3_" gradientUnits="userSpaceOnUse" x1="-19.3304" y1="30.6636" x2="-15.2075" y2="30.6636" gradientTransform="matrix(-1 0 0 -1 1.0318 100)">
	<stop  offset="6.813359e-03" style="stop-color:#739965"/>
	<stop  offset="0.9989" style="stop-color:#286143"/>
</linearGradient>
<path style="fill:url(#SVGID_3_);" d="M17.7,68.6c0,0,1.5,0.2,2.2,0.1c0.7,0,1,1-1.3,1.2c-2,0.1-2.5,0.6-2.4-0.7
	C16.4,68.5,17.7,68.6,17.7,68.6z"/>
<linearGradient id="SVGID_4_" gradientUnits="userSpaceOnUse" x1="-7.6468" y1="56.018" x2="-19.048" y2="56.018" gradientTransform="matrix(-1 0 0 -1 1.0318 100)">
	<stop  offset="0" style="stop-color:#E95281"/>
	<stop  offset="1" style="stop-color:#BF3D62"/>
</linearGradient>
<path style="fill:url(#SVGID_4_);" d="M9.1,56.6c-0.2,3.5,1.5,9.5,1.5,9.5s0.7,0.2,1.4-0.3c-0.3-4.2,0.1-8.9,0.8-10.8
	c0.7-2.1,1-7.3,1.2-8.1c0,0,1.1,4.3,0.8,8.2c-0.1,1.3-0.4,2.5-0.3,3.9c0.2,1.4,1.8,10,1.8,10s1,0.3,1.3-0.4c0,0,0.1-7.9,0.3-10.6
	c0.1-2.7,0.8-5.5,1.3-8.8c1.2-7.3-0.5-10.5-0.2-13c0-0.2,0-0.4,0.1-0.6c0.2-1.8,0.8-5.1,1-7.9c0.1-1.7,0.1-3.3-0.2-4.4
	c-0.1-0.2-0.6-0.8-1.4-1.3l-0.1-0.1c-0.1-0.1-0.2-0.2-0.3-0.2l0,0c-1.8-1.2-4.5-2.6-6.4-2.8c-0.1,0-0.1,0-0.2,0c-0.2,0-0.4,0-0.5,0
	h-0.1c-2.9,0.3-0.6,13.2-0.6,14.7S9.3,37,8.9,40c-0.2,1.8,0.1,3.9,0.9,8.4C10.3,52.1,9.2,55.1,9.1,56.6z"/>
<linearGradient id="SVGID_5_" gradientUnits="userSpaceOnUse" x1="-17.3682" y1="75.15" x2="-9.2676" y2="75.15" gradientTransform="matrix(-1 0 0 -1 1.0318 100)">
	<stop  offset="6.297816e-03" style="stop-color:#8FC07D"/>
	<stop  offset="1" style="stop-color:#377F58"/>
</linearGradient>
<path style="fill:url(#SVGID_5_);" d="M10.6,27.6c2.1,1.1,5.6,3.2,5.6,3.2S15.9,28,16.1,26c0.3-2,1.4-3.2,2.3-4l-0.1-0.1
	c-0.1-0.1-0.2-0.2-0.3-0.2l0,0c-1.8-1.2-4.5-2.6-6.4-2.8C10.5,20,9.9,24.3,10.6,27.6z"/>
</svg>
