<?xml version="1.0" encoding="utf-8"?>
<!-- Generator: Adobe Illustrator 23.0.1, SVG Export Plug-In . SVG Version: 6.00 Build 0)  -->
<svg version="1.1" id="Layer_1" xmlns="http://www.w3.org/2000/svg" xmlns:xlink="http://www.w3.org/1999/xlink" x="0px" y="0px"
	 viewBox="0 0 100 100" style="enable-background:new 0 0 100 100;" xml:space="preserve">
<g id="ead-taric_1_">
	<g id="haut_1_">
		<g>
			<g id="ead_3_">
				<g id="base_31_">
					<path style="fill:#FFFFFF;" d="M75.6,24.5c-0.2-0.1-0.4,0-0.4,0.3v5.8c0,0.3,0.2,0.6,0.4,0.8l5.1,2.9c0.2,0.1,0.4,0,0.4-0.3
						v-5.8c0-0.3-0.2-0.6-0.4-0.8L75.6,24.5z"/>
				</g>
				<g id="ead_4_">
					<g>
						<polygon style="fill:#69A076;" points="76.4,26.9 76.4,27.7 76,27.4 76,28 76.4,28.2 76.4,29 76,28.8 76,29.4 76.5,29.7 
							76.5,30.5 75.5,30 75.5,26.4 						"/>
					</g>
					<g>
						<path style="fill:#69A076;" d="M78.1,27.8l0.6,3.9l-0.4-0.2l-0.1-0.9l-0.5-0.3L77.5,31l-0.4-0.2l0.6-3.2L78.1,27.8z
							 M77.7,29.7l0.3,0.2l-0.2-1.2L77.7,29.7"/>
					</g>
					<g>
						<path style="fill:#69A076;" d="M80.3,29.5c0.2,0.4,0.2,0.9,0.2,1.4s-0.1,0.9-0.2,1.2c-0.2,0.2-0.4,0.3-0.7,0.1l-0.5-0.3v-3.6
							l0.5,0.3C79.9,28.8,80.1,29.1,80.3,29.5z M79.9,31.4C80,31.3,80,31,80,30.7c0-0.3,0-0.6-0.1-0.8c-0.1-0.2-0.2-0.4-0.3-0.4
							h-0.1v2.1h0.1C79.8,31.5,79.9,31.5,79.9,31.4"/>
					</g>
				</g>
			</g>
			<g id="taric_2_">
				<g id="base_30_">
					<path style="fill:#FFFFFF;" d="M75.6,32.7c-0.2-0.1-0.4,0-0.4,0.3v5.8c0,0.3,0.2,0.6,0.4,0.8l6.9,4.1c0.2,0.1,0.4,0,0.4-0.3
						v-5.8c0-0.3-0.2-0.6-0.4-0.8L75.6,32.7z"/>
				</g>
				<g id="taric_3_">
					<g>
						<polygon style="fill:#69A076;" points="76.6,35.5 76.6,36.1 76.3,35.9 76.2,38.1 75.9,37.9 75.9,35.7 75.6,35.5 75.6,34.9 
													"/>
					</g>
					<g>
						<path style="fill:#69A076;" d="M77.7,36.1l0.4,3.1L77.8,39l-0.1-0.7L77.3,38l-0.1,0.6l-0.4-0.2l0.6-2.6L77.7,36.1z M77.3,37.6
							l0.3,0.2l-0.1-1L77.3,37.6"/>
					</g>
					<g>
						<path style="fill:#69A076;" d="M79.3,38.7l0.3,1.4l-0.4-0.2L79,38.7l-0.1-0.1v1l-0.4-0.2l0.1-2.9l0.5,0.3
							c0.2,0.1,0.3,0.3,0.4,0.5s0.1,0.4,0.1,0.7l-0.1,0.4L79.3,38.7z M79.1,38.1v-0.2v-0.2L79,37.5h-0.1v0.6H79.1L79.1,38.1"/>
					</g>
					<g>
						<polygon style="fill:#69A076;" points="80.4,37.7 80.4,40.6 80,40.4 80.1,37.5 						"/>
					</g>
					<g>
						<path style="fill:#69A076;" d="M81.6,38.4c0.2,0.1,0.3,0.2,0.4,0.5l-0.1,0.6L81.6,39h-0.2l-0.1,0.1l-0.1,0.2v0.3V40l0.1,0.4
							l0.2,0.2c0.1,0.1,0.2,0.1,0.3,0l0.1,0.7c-0.1,0.1-0.3,0.1-0.4,0s-0.3-0.2-0.4-0.4s-0.2-0.4-0.3-0.7c0-0.3-0.1-0.5-0.1-0.8
							l0.1-0.6l0.2-0.4l0.2-0.2C81.4,38.3,81.5,38.3,81.6,38.4z"/>
					</g>
				</g>
			</g>
			<g id="text-lines_1_">
				<g>
					<path style="fill:#FFFFFF;" d="M71,25.3c-0.2-0.1-0.3,0-0.3,0.2s0.1,0.5,0.3,0.6l3.1,1.8c0.2,0.1,0.3,0,0.3-0.2
						s-0.1-0.5-0.3-0.6L71,25.3z"/>
				</g>
				<g>
					<path style="fill:#FFFFFF;" d="M68.8,22.1c-0.2-0.1-0.3,0-0.3,0.2s0.2,0.5,0.3,0.6l5.3,3c0.2,0.1,0.3,0,0.3-0.2
						s-0.1-0.5-0.3-0.6L68.8,22.1z"/>
				</g>
				<g>
					<path style="fill:#FFFFFF;" d="M68.8,20.2c-0.2-0.1-0.3,0-0.3,0.2s0.2,0.5,0.3,0.6l5.3,3c0.2,0.1,0.3,0,0.3-0.2
						s-0.1-0.5-0.3-0.6L68.8,20.2z"/>
				</g>
				<g>
					<path style="fill:#FFFFFF;" d="M71,33.5c-0.2-0.1-0.3,0-0.3,0.2s0.1,0.5,0.3,0.6l3,1.7c0.2,0.1,0.3,0,0.3-0.2s-0.1-0.5-0.3-0.6
						L71,33.5z"/>
				</g>
				<g>
					<path style="fill:#FFFFFF;" d="M68.8,30.3c-0.2-0.1-0.3,0-0.3,0.2s0.2,0.5,0.3,0.6l5.3,3c0.2,0.1,0.3,0,0.3-0.2
						s-0.1-0.5-0.3-0.6L68.8,30.3z"/>
				</g>
				<g>
					<path style="fill:#FFFFFF;" d="M68.8,28.4c-0.2-0.1-0.3,0-0.3,0.2s0.2,0.5,0.3,0.6l5.3,3c0.2,0.1,0.3,0,0.3-0.2
						s-0.1-0.5-0.3-0.6L68.8,28.4z"/>
				</g>
			</g>
		</g>
	</g>
</g>
</svg>
