<?xml version="1.0" encoding="utf-8"?>
<!-- Generator: Adobe Illustrator 23.0.1, SVG Export Plug-In . SVG Version: 6.00 Build 0)  -->
<svg version="1.1" id="Layer_1" xmlns="http://www.w3.org/2000/svg" xmlns:xlink="http://www.w3.org/1999/xlink" x="0px" y="0px"
	 viewBox="0 0 100 100" style="enable-background:new 0 0 100 100;" xml:space="preserve">
<g id="socle-envoi-it_1_">
	<g id="paper-1_1_">
		<g>
			
				<linearGradient id="SVGID_1_" gradientUnits="userSpaceOnUse" x1="-249.2451" y1="-2585.7737" x2="-243.3387" y2="-2596.21" gradientTransform="matrix(0.3335 0.9428 0.7502 -0.8778 2071.4553 -1996.0381)">
				<stop  offset="0" style="stop-color:#A3D0CE"/>
				<stop  offset="0.9992" style="stop-color:#BED9A7"/>
			</linearGradient>
			<polygon style="fill:url(#SVGID_1_);" points="43.9,51.3 42.6,47.7 45.8,44 46.5,44.4 47.5,47.1 			"/>
			
				<linearGradient id="SVGID_2_" gradientUnits="userSpaceOnUse" x1="-220.3645" y1="55.55" x2="-219.5913" y2="55.55" gradientTransform="matrix(1 0 0 -1 266.1266 100)">
				<stop  offset="6.813359e-03" style="stop-color:#739965"/>
				<stop  offset="0.9989" style="stop-color:#286143"/>
			</linearGradient>
			<polygon style="fill:url(#SVGID_2_);" points="46.5,44.4 46.1,44.9 45.8,44 			"/>
			
				<linearGradient id="SVGID_3_" gradientUnits="userSpaceOnUse" x1="-220.6299" y1="53.65" x2="-219.675" y2="53.65" gradientTransform="matrix(1 0 0 -1 266.1266 100)">
				<stop  offset="6.813359e-03" style="stop-color:#739965"/>
				<stop  offset="0.9989" style="stop-color:#286143"/>
			</linearGradient>
			<polygon style="fill:url(#SVGID_3_);" points="46.3,47.6 45.5,45.3 45.6,45.1 46.5,47.5 			"/>
			
				<linearGradient id="SVGID_4_" gradientUnits="userSpaceOnUse" x1="-221.0875" y1="53.25" x2="-219.9159" y2="53.25" gradientTransform="matrix(1 0 0 -1 266.1266 100)">
				<stop  offset="6.813359e-03" style="stop-color:#739965"/>
				<stop  offset="0.9989" style="stop-color:#286143"/>
			</linearGradient>
			<polygon style="fill:url(#SVGID_4_);" points="46.1,48.3 45,45.4 45.2,45.2 46.2,48.2 			"/>
			
				<linearGradient id="SVGID_5_" gradientUnits="userSpaceOnUse" x1="-221.4323" y1="52.85" x2="-220.2607" y2="52.85" gradientTransform="matrix(1 0 0 -1 266.1266 100)">
				<stop  offset="6.813359e-03" style="stop-color:#739965"/>
				<stop  offset="0.9989" style="stop-color:#286143"/>
			</linearGradient>
			<polygon style="fill:url(#SVGID_5_);" points="45.7,48.7 44.7,45.8 44.8,45.6 45.9,48.6 			"/>
			
				<linearGradient id="SVGID_6_" gradientUnits="userSpaceOnUse" x1="-221.7772" y1="52.45" x2="-220.6055" y2="52.45" gradientTransform="matrix(1 0 0 -1 266.1266 100)">
				<stop  offset="6.813359e-03" style="stop-color:#739965"/>
				<stop  offset="0.9989" style="stop-color:#286143"/>
			</linearGradient>
			<polygon style="fill:url(#SVGID_6_);" points="45.4,49.1 44.3,46.2 44.5,46 45.5,49 			"/>
			
				<linearGradient id="SVGID_7_" gradientUnits="userSpaceOnUse" x1="-222.122" y1="52.05" x2="-220.9504" y2="52.05" gradientTransform="matrix(1 0 0 -1 266.1266 100)">
				<stop  offset="6.813359e-03" style="stop-color:#739965"/>
				<stop  offset="0.9989" style="stop-color:#286143"/>
			</linearGradient>
			<polygon style="fill:url(#SVGID_7_);" points="45.1,49.5 44,46.6 44.1,46.4 45.2,49.4 			"/>
			
				<linearGradient id="SVGID_8_" gradientUnits="userSpaceOnUse" x1="-222.4668" y1="51.65" x2="-221.2952" y2="51.65" gradientTransform="matrix(1 0 0 -1 266.1266 100)">
				<stop  offset="6.813359e-03" style="stop-color:#739965"/>
				<stop  offset="0.9989" style="stop-color:#286143"/>
			</linearGradient>
			<polygon style="fill:url(#SVGID_8_);" points="44.7,49.9 43.7,47 43.8,46.8 44.8,49.8 			"/>
			
				<linearGradient id="SVGID_9_" gradientUnits="userSpaceOnUse" x1="-222.8116" y1="51.25" x2="-221.64" y2="51.25" gradientTransform="matrix(1 0 0 -1 266.1266 100)">
				<stop  offset="6.813359e-03" style="stop-color:#739965"/>
				<stop  offset="0.9989" style="stop-color:#286143"/>
			</linearGradient>
			<polygon style="fill:url(#SVGID_9_);" points="44.4,50.3 43.3,47.4 43.4,47.2 44.5,50.2 			"/>
		</g>
	</g>
</g>
</svg>
