<?xml version="1.0" encoding="utf-8"?>
<!-- Generator: Adobe Illustrator 23.0.1, SVG Export Plug-In . SVG Version: 6.00 Build 0)  -->
<svg version="1.1" id="Layer_1" xmlns="http://www.w3.org/2000/svg" xmlns:xlink="http://www.w3.org/1999/xlink" x="0px" y="0px"
	 viewBox="0 0 100 100" style="enable-background:new 0 0 100 100;" xml:space="preserve">
<linearGradient id="SVGID_1_" gradientUnits="userSpaceOnUse" x1="-20.7357" y1="86.8741" x2="-16.5963" y2="86.8741" gradientTransform="matrix(-1 0 0 -1 1.0318 100)">
	<stop  offset="6.297816e-03" style="stop-color:#8FC07D"/>
	<stop  offset="1" style="stop-color:#377F58"/>
</linearGradient>
<path style="fill:url(#SVGID_1_);" d="M18.7,15c0,0,3.6-1,3-2.5c-0.6-1.4-2-1.5-3.5-0.9C16.7,12.2,18.7,15,18.7,15z"/>
<linearGradient id="SVGID_2_" gradientUnits="userSpaceOnUse" x1="-18.9743" y1="87.4458" x2="-10.3921" y2="87.4458" gradientTransform="matrix(-1 0 0 -1 1.0318 100)">
	<stop  offset="6.297816e-03" style="stop-color:#8FC07D"/>
	<stop  offset="1" style="stop-color:#377F58"/>
</linearGradient>
<path style="fill:url(#SVGID_2_);" d="M19.6,14.3c-0.8,1-3.1,1.8-5.1,1.7s-3.5-0.8-2.8-3.7c0.6-2.5,3.3-3.2,4.6-3.2
	c1.2,0,2.7,0.7,3.3,1.9C20,11.7,20.3,13.5,19.6,14.3z"/>
</svg>
