<?xml version="1.0" encoding="utf-8"?>
<!-- Generator: Adobe Illustrator 23.0.1, SVG Export Plug-In . SVG Version: 6.00 Build 0)  -->
<svg version="1.1" id="Layer_1" xmlns="http://www.w3.org/2000/svg" xmlns:xlink="http://www.w3.org/1999/xlink" x="0px" y="0px"
	 viewBox="0 0 100 100" style="enable-background:new 0 0 100 100;" xml:space="preserve">
<g id="box_25_">
	<g>
		<g style="opacity:0.4;">
			
				<linearGradient id="SVGID_1_" gradientUnits="userSpaceOnUse" x1="124.9163" y1="267.4914" x2="131.63" y2="222.3034" gradientTransform="matrix(0.7862 -1.3425 1.1734 0.6871 -325.3782 67.1218)">
				<stop  offset="0" style="stop-color:#41A8DF;stop-opacity:0"/>
				<stop  offset="0" style="stop-color:#252F62"/>
				<stop  offset="0" style="stop-color:#253063;stop-opacity:0.9977"/>
				<stop  offset="0.1538" style="stop-color:#263568;stop-opacity:0.8443"/>
				<stop  offset="0.3433" style="stop-color:#2A4477;stop-opacity:0.6552"/>
				<stop  offset="0.5514" style="stop-color:#2F5C90;stop-opacity:0.4475"/>
				<stop  offset="0.7731" style="stop-color:#377EB3;stop-opacity:0.2264"/>
				<stop  offset="1" style="stop-color:#41A8DF;stop-opacity:0"/>
			</linearGradient>
			<path style="fill:url(#SVGID_1_);" d="M23.6,69.6c-2.3,1.4-2.4,3.6-0.3,4.9l30.9,18.2c2.1,1.3,5.7,1.1,8-0.3l33-20.6
				c2.3-1.4,2.4-3.6,0.3-4.9L64.5,20.1c-2.1-1.3-5.7-1.1-8,0.3L23.6,69.6z"/>
		</g>
	</g>
	<g>
		<g>
			<g>
				<g>
					<g>
						
							<linearGradient id="SVGID_2_" gradientUnits="userSpaceOnUse" x1="-330.1878" y1="94.6154" x2="-330.1878" y2="26.0127" gradientTransform="matrix(-1 0 0 1 -303.1148 0)">
							<stop  offset="6.297816e-03" style="stop-color:#7FBF7C"/>
							<stop  offset="1" style="stop-color:#E9F4F3"/>
						</linearGradient>
						<path style="fill:url(#SVGID_2_);" d="M10.4,26.6c-2.3-1.3-4.2-0.3-4.2,2.4L6.1,67.5c0,2.7,1.9,5.9,4.2,7.2L43.8,94
							c2.3,1.3,4.2,0.3,4.2-2.4l0.1-38.5c0-2.7-1.9-5.9-4.2-7.2L10.4,26.6z"/>
					</g>
					
						<linearGradient id="SVGID_3_" gradientUnits="userSpaceOnUse" x1="-325.381" y1="36.7518" x2="-325.381" y2="49.8963" gradientTransform="matrix(-1 0 0 1 -303.1148 0)">
						<stop  offset="0" style="stop-color:#FFFFFF"/>
						<stop  offset="0.3662" style="stop-color:#FCFDFE"/>
						<stop  offset="0.6134" style="stop-color:#F3F8FD"/>
						<stop  offset="0.8248" style="stop-color:#E4EFFA"/>
						<stop  offset="1" style="stop-color:#D1E4F6"/>
					</linearGradient>
					<polygon style="fill:url(#SVGID_3_);" points="26.1,41.1 18.5,36.8 18.5,45.5 26.1,49.9 					"/>
					
						<linearGradient id="SVGID_4_" gradientUnits="userSpaceOnUse" x1="-316.3391" y1="31.6757" x2="-316.3391" y2="44.8202" gradientTransform="matrix(-1 0 0 1 -303.1148 0)">
						<stop  offset="0" style="stop-color:#FFFFFF"/>
						<stop  offset="0.3662" style="stop-color:#FCFDFE"/>
						<stop  offset="0.6134" style="stop-color:#F3F8FD"/>
						<stop  offset="0.8248" style="stop-color:#E4EFFA"/>
						<stop  offset="1" style="stop-color:#D1E4F6"/>
					</linearGradient>
					<polygon style="fill:url(#SVGID_4_);" points="17,36.1 9.4,31.7 9.4,40.4 17,44.8 					"/>
					
						<linearGradient id="SVGID_5_" gradientUnits="userSpaceOnUse" x1="-351.7194" y1="1.8395" x2="-351.7194" y2="94.3326" gradientTransform="matrix(-1 0 0 1 -303.1148 0)">
						<stop  offset="6.297816e-03" style="stop-color:#8FC07D"/>
						<stop  offset="1" style="stop-color:#377F58"/>
					</linearGradient>
					<path style="fill:url(#SVGID_5_);" d="M7.5,26.2c0,0,0.1,0,0.1-0.1c0,0,0,0,0.1,0c0.1,0,0.1,0,0.2-0.1c0,0,0,0,0.1,0
						c0,0,0,0,0,0c0,0,0,0,0,0c0,0,0,0,0.1,0c0.1,0,0.1,0,0.2,0c0,0,0,0,0,0h0.1c0.1,0,0.2,0,0.3,0c0,0,0,0,0.1,0c0.1,0,0.1,0,0.2,0
						c0,0,0,0,0,0c0,0,0.1,0,0.2,0c0.1,0,0.1,0,0.2,0.1c0.1,0,0.2,0.1,0.3,0.1c0,0,0.1,0,0.1,0c0.1,0,0.2,0.1,0.3,0.1
						c0.1,0,0.2,0.1,0.3,0.1l33.5,19.3c0.1,0.1,0.2,0.1,0.3,0.2c0.1,0.1,0.2,0.2,0.3,0.2c0,0,0.1,0.1,0.1,0.1c0,0,0,0,0,0
						c0.1,0.1,0.2,0.1,0.3,0.2c0,0,0,0,0,0c0.1,0.1,0.2,0.2,0.3,0.3l0.1,0.1c0.1,0.1,0.2,0.2,0.3,0.3c0,0,0,0,0,0
						c0.1,0.1,0.1,0.1,0.2,0.2c0.1,0.1,0.1,0.1,0.2,0.2c0.1,0.1,0.1,0.2,0.2,0.2c0,0.1,0.1,0.1,0.1,0.2c0.1,0.1,0.1,0.2,0.2,0.3
						c0,0,0.1,0.1,0.1,0.1c0.1,0.1,0.2,0.3,0.3,0.4c0,0,0,0,0,0.1c0.1,0.1,0.1,0.3,0.2,0.4c0,0,0,0.1,0.1,0.1
						c0.1,0.1,0.1,0.3,0.2,0.4c0,0,0,0,0,0.1c0.1,0.1,0.1,0.3,0.2,0.5c0,0,0,0.1,0,0.1c0,0.1,0.1,0.2,0.1,0.3c0,0.1,0,0.1,0.1,0.2
						c0,0.1,0.1,0.2,0.1,0.3c0,0.1,0,0.1,0.1,0.2c0,0,0,0.1,0,0.1c0,0.2,0.1,0.3,0.1,0.5c0,0.1,0,0.1,0,0.2c0,0.1,0,0.2,0,0.3
						c0,0.1,0,0.3,0,0.4v0L48,91.6c0,0.1,0,0.3,0,0.4c0,0.1,0,0.2,0,0.3c0,0.1,0,0.2,0,0.3c0,0.2-0.1,0.3-0.1,0.4
						c0,0.1,0,0.1-0.1,0.2c0,0.1,0,0.1-0.1,0.2c-0.1,0.2-0.2,0.4-0.4,0.5c-0.1,0.1-0.1,0.1-0.2,0.2c0,0,0,0-0.1,0.1
						c-0.1,0.1-0.2,0.1-0.2,0.2l0.1,0l41.5-24.1c0.3-0.2,0.5-0.4,0.7-0.7c0.3-0.5,0.5-1.2,0.5-2L89.7,29c0-0.2,0-0.5,0-0.7
						c0,0,0-0.1,0-0.1c0,0,0-0.1,0-0.1c0-0.1,0-0.2-0.1-0.3c0-0.1,0-0.1,0-0.2c0,0,0-0.1,0-0.1c0-0.1,0-0.1-0.1-0.2
						c0-0.1,0-0.1,0-0.2c0,0,0-0.1,0-0.1c0-0.1,0-0.1-0.1-0.2c0,0,0-0.1,0-0.1c0-0.1,0-0.1-0.1-0.2c0,0,0-0.1,0-0.1c0,0,0,0,0-0.1
						c0-0.1-0.1-0.2-0.2-0.4c0,0,0,0,0,0c0,0,0,0,0-0.1c0-0.1-0.1-0.2-0.1-0.3c0,0,0-0.1-0.1-0.1c0,0,0-0.1-0.1-0.1
						c0,0,0-0.1-0.1-0.1c0-0.1-0.1-0.2-0.1-0.3c0,0,0,0,0-0.1c0,0,0,0,0,0c-0.1-0.1-0.1-0.2-0.2-0.4c0,0,0,0,0-0.1
						c0,0-0.1-0.1-0.1-0.1c0-0.1-0.1-0.1-0.1-0.2c0,0-0.1-0.1-0.1-0.1c0-0.1-0.1-0.1-0.1-0.2c0,0-0.1-0.1-0.1-0.1
						c0,0-0.1-0.1-0.1-0.1c-0.1-0.1-0.1-0.1-0.2-0.2c0,0,0-0.1-0.1-0.1c0,0-0.1-0.1-0.1-0.1c-0.1-0.1-0.2-0.2-0.3-0.3
						c0,0-0.1-0.1-0.1-0.1c0,0,0,0-0.1,0c-0.2-0.2-0.4-0.4-0.6-0.5c0,0-0.1-0.1-0.1-0.1c-0.2-0.2-0.4-0.3-0.6-0.4L52,2.4
						c-0.2-0.1-0.4-0.2-0.5-0.3c0,0,0,0-0.1,0c0,0-0.1,0-0.1,0C51.2,2,51.1,2,51,2c0,0-0.1,0-0.1,0c0,0-0.1,0-0.1,0
						c-0.1,0-0.1,0-0.2,0c0,0-0.1,0-0.1,0c0,0-0.1,0-0.1,0c0,0-0.1,0-0.1,0c0,0,0,0-0.1,0c-0.1,0-0.1,0-0.2,0H50c-0.1,0-0.2,0-0.3,0
						c0,0,0,0,0,0c0,0-0.1,0-0.1,0c0,0-0.1,0-0.1,0c0,0-0.1,0-0.1,0c0,0,0,0-0.1,0c0,0,0,0,0,0c-0.1,0-0.1,0.1-0.2,0.1c0,0,0,0,0,0
						L33.7,11l-5.9,3.4L7.5,26.2z"/>
					<path style="fill:none;stroke:#000000;stroke-width:1.5263;stroke-miterlimit:10;" d="M7.4,26.3"/>
					
						<linearGradient id="SVGID_6_" gradientUnits="userSpaceOnUse" x1="-374.9995" y1="31.0468" x2="-329.7871" y2="31.0468" gradientTransform="matrix(-1 0 0 1 -303.1148 0)">
						<stop  offset="0" style="stop-color:#FFFFFF"/>
						<stop  offset="0.3662" style="stop-color:#FCFDFE"/>
						<stop  offset="0.6134" style="stop-color:#F3F8FD"/>
						<stop  offset="0.8248" style="stop-color:#E4EFFA"/>
						<stop  offset="1" style="stop-color:#D1E4F6"/>
					</linearGradient>
					<path style="fill:url(#SVGID_6_);" d="M71.9,47l0-5.1c0-0.4,0-0.8-0.1-1.2l0-0.1l0-0.2c0-0.2-0.1-0.4-0.1-0.5l0-0.1
						c0-0.1,0-0.2-0.1-0.3c0-0.1,0-0.2-0.1-0.3c0-0.2-0.1-0.3-0.1-0.5c0-0.1-0.1-0.2-0.1-0.3c-0.1-0.2-0.1-0.3-0.2-0.5l-0.1-0.2
						c-0.1-0.2-0.2-0.5-0.3-0.7l0-0.1c-0.1-0.2-0.2-0.4-0.3-0.6l-0.1-0.2c-0.1-0.2-0.2-0.4-0.3-0.6L70,35.4
						c-0.1-0.2-0.3-0.4-0.4-0.6l-0.1-0.1c-0.1-0.2-0.2-0.3-0.3-0.5L69,33.9c-0.1-0.1-0.2-0.2-0.3-0.4c-0.1-0.1-0.2-0.2-0.2-0.3
						c-0.1-0.1-0.2-0.2-0.2-0.3c-0.1-0.2-0.3-0.3-0.4-0.5c-0.1-0.1-0.1-0.1-0.2-0.2c-0.3-0.3-0.6-0.6-0.9-0.8l-0.1-0.1
						c-0.4-0.3-0.8-0.6-1.1-0.8l-32.8-19l-5.9,3.4l35.8,20.6c0.1,0.1,0.3,0.2,0.5,0.3l0.1,0.1c0.2,0.1,0.3,0.3,0.5,0.4l0.1,0.1
						c0.1,0.1,0.2,0.2,0.2,0.3l0.1,0.2c0,0.1,0.1,0.1,0.1,0.2c0.1,0.1,0.1,0.1,0.2,0.2l0.1,0.1c0.1,0.1,0.1,0.2,0.2,0.3l0,0.1
						c0.1,0.2,0.2,0.3,0.3,0.4l0,0.1c0.1,0.1,0.1,0.2,0.2,0.4l0.1,0.1c0.1,0.1,0.1,0.2,0.2,0.4l0,0.1c0,0.1,0.1,0.2,0.1,0.4l0,0.1
						c0,0.1,0.1,0.2,0.1,0.3l0,0.2c0,0.1,0,0.2,0.1,0.3l0.1,0.4c0,0.1,0,0.2,0,0.3l0,0.1c0,0.2,0,0.4,0,0.5l0,8.5L71.9,47z"/>
				</g>
			</g>
		</g>
	</g>
</g>
</svg>
