<?xml version="1.0" encoding="utf-8"?>
<!-- Generator: Adobe Illustrator 23.0.1, SVG Export Plug-In . SVG Version: 6.00 Build 0)  -->
<svg version="1.1" id="Layer_1" xmlns="http://www.w3.org/2000/svg" xmlns:xlink="http://www.w3.org/1999/xlink" x="0px" y="0px"
	 viewBox="0 0 100 100" style="enable-background:new 0 0 100 100;" xml:space="preserve">
<g id="boxes-waiting_1_">
	<g id="box_22_">
		<g style="opacity:0.4;">
			
				<linearGradient id="SVGID_1_" gradientUnits="userSpaceOnUse" x1="-311.1184" y1="-600.1968" x2="-311.1184" y2="-586.9468" gradientTransform="matrix(0.7862 -1.3425 1.1734 0.6871 1014.8901 65.4664)">
				<stop  offset="0" style="stop-color:#252F62"/>
				<stop  offset="0.1575" style="stop-color:#263467;stop-opacity:0.8425"/>
				<stop  offset="0.3432" style="stop-color:#294275;stop-opacity:0.6568"/>
				<stop  offset="0.5431" style="stop-color:#2F598D;stop-opacity:0.4569"/>
				<stop  offset="0.7531" style="stop-color:#3679AE;stop-opacity:0.2469"/>
				<stop  offset="0.9689" style="stop-color:#3FA1D8;stop-opacity:3.109598e-02"/>
				<stop  offset="1" style="stop-color:#41A8DF;stop-opacity:0"/>
			</linearGradient>
			<path style="fill:url(#SVGID_1_);" d="M63,76.2c-0.6,0.4-0.7,1-0.1,1.4l8.7,5.2c0.6,0.4,1.6,0.3,2.2-0.1l9.3-5.8
				c0.6-0.4,0.7-1,0.1-1.4l-8.7-8.3c-0.6-0.4-1.6-0.3-2.2,0.1L63,76.2z"/>
		</g>
		<g>
			
				<linearGradient id="SVGID_2_" gradientUnits="userSpaceOnUse" x1="-1114.3608" y1="61.5856" x2="-1114.3608" y2="83.3413" gradientTransform="matrix(1 0 0 1 1183.1135 0)">
				<stop  offset="6.297816e-03" style="stop-color:#7FBF7C"/>
				<stop  offset="1" style="stop-color:#E9F4F3"/>
			</linearGradient>
			<path style="fill:url(#SVGID_2_);" d="M64.2,61.7c-0.6-0.4-1.1-0.1-1.1,0.6l0,13.6c0,0.7,0.5,1.6,1.1,2l9.1,5.2
				c0.6,0.4,1.1,0.1,1.1-0.6l0-13.6c0-0.7-0.5-1.6-1.1-2L64.2,61.7z"/>
		</g>
		<polygon style="fill:#FFFFFF;" points="73.3,68.3 71.2,67.1 71.2,69.5 73.3,70.7 		"/>
		<polygon style="fill:#FFFFFF;" points="70.9,66.9 68.8,65.7 68.8,68.1 70.9,69.3 		"/>
		
			<linearGradient id="SVGID_3_" gradientUnits="userSpaceOnUse" x1="-1108.5415" y1="83.2646" x2="-1108.5415" y2="55.0331" gradientTransform="matrix(1 0 0 1 1183.1135 0)">
			<stop  offset="6.297816e-03" style="stop-color:#8FC07D"/>
			<stop  offset="1" style="stop-color:#377F58"/>
		</linearGradient>
		<path style="fill:url(#SVGID_3_);" d="M63.5,61.6C63.5,61.6,63.5,61.6,63.5,61.6C63.5,61.6,63.5,61.6,63.5,61.6c0.1,0,0.1,0,0.1,0
			c0,0,0,0,0,0c0,0,0,0,0,0c0,0,0,0,0,0c0,0,0,0,0,0c0,0,0,0,0.1,0c0,0,0,0,0,0h0c0,0,0.1,0,0.1,0c0,0,0,0,0,0c0,0,0,0,0.1,0
			c0,0,0,0,0,0c0,0,0,0,0,0c0,0,0,0,0,0c0,0,0.1,0,0.1,0c0,0,0,0,0,0c0,0,0.1,0,0.1,0c0,0,0,0,0.1,0l9.1,5.2c0,0,0.1,0,0.1,0.1
			c0,0,0.1,0,0.1,0.1c0,0,0,0,0,0c0,0,0,0,0,0c0,0,0,0,0.1,0.1c0,0,0,0,0,0c0,0,0.1,0,0.1,0.1l0,0c0,0,0,0.1,0.1,0.1c0,0,0,0,0,0
			c0,0,0,0,0,0c0,0,0,0,0,0.1c0,0,0,0,0.1,0.1c0,0,0,0,0,0c0,0,0,0.1,0.1,0.1c0,0,0,0,0,0c0,0,0,0.1,0.1,0.1c0,0,0,0,0,0
			c0,0,0,0.1,0.1,0.1c0,0,0,0,0,0c0,0,0,0.1,0.1,0.1c0,0,0,0,0,0c0,0,0,0.1,0,0.1c0,0,0,0,0,0c0,0,0,0.1,0,0.1c0,0,0,0,0,0
			c0,0,0,0.1,0,0.1c0,0,0,0,0,0.1c0,0,0,0,0,0c0,0,0,0.1,0,0.1c0,0,0,0,0,0c0,0,0,0,0,0.1c0,0,0,0.1,0,0.1v0l0,13.6c0,0,0,0.1,0,0.1
			c0,0,0,0.1,0,0.1c0,0,0,0,0,0.1c0,0,0,0.1,0,0.1c0,0,0,0,0,0c0,0,0,0,0,0c0,0.1-0.1,0.1-0.1,0.1c0,0,0,0,0,0c0,0,0,0,0,0
			c0,0,0,0-0.1,0l0,0l11.2-6.5c0.1,0,0.1-0.1,0.2-0.2c0.1-0.1,0.1-0.3,0.1-0.5l0-13.6c0-0.1,0-0.1,0-0.2c0,0,0,0,0,0c0,0,0,0,0,0
			c0,0,0-0.1,0-0.1c0,0,0,0,0,0c0,0,0,0,0,0c0,0,0,0,0-0.1c0,0,0,0,0-0.1c0,0,0,0,0,0c0,0,0,0,0,0c0,0,0,0,0,0c0,0,0,0,0-0.1
			c0,0,0,0,0,0c0,0,0,0,0,0c0,0,0-0.1,0-0.1c0,0,0,0,0,0c0,0,0,0,0,0c0,0,0-0.1,0-0.1c0,0,0,0,0,0c0,0,0,0,0,0c0,0,0,0,0,0
			c0,0,0,0,0-0.1c0,0,0,0,0,0c0,0,0,0,0,0c0,0,0-0.1-0.1-0.1c0,0,0,0,0,0c0,0,0,0,0,0c0,0,0,0,0-0.1c0,0,0,0,0,0c0,0,0,0,0,0
			c0,0,0,0,0,0c0,0,0,0,0,0c0,0,0,0,0-0.1c0,0,0,0,0,0c0,0,0,0,0,0c0,0,0-0.1-0.1-0.1c0,0,0,0,0,0c0,0,0,0,0,0
			c-0.1,0-0.1-0.1-0.2-0.1c0,0,0,0,0,0c-0.1,0-0.1-0.1-0.2-0.1l-9.1-5.2c0,0-0.1-0.1-0.1-0.1c0,0,0,0,0,0c0,0,0,0,0,0
			c0,0-0.1,0-0.1,0c0,0,0,0,0,0c0,0,0,0,0,0c0,0,0,0,0,0c0,0,0,0,0,0c0,0,0,0,0,0c0,0,0,0,0,0c0,0,0,0,0,0c0,0,0,0-0.1,0h0
			c0,0,0,0-0.1,0c0,0,0,0,0,0c0,0,0,0,0,0c0,0,0,0,0,0c0,0,0,0,0,0c0,0,0,0,0,0c0,0,0,0,0,0c0,0,0,0-0.1,0c0,0,0,0,0,0l-4.1,2.4
			L69,58.4L63.5,61.6z"/>
		<path style="fill:#FFFFFF;" d="M76.6,62.9l-1,0.6l0-2.1l3.6,0l-1,0.6l1.2,0.7c0.1,0.1,0.2,0.1,0.3,0.2l0,0l0,0
			c0,0,0.1,0.1,0.1,0.1l0,0c0,0,0,0,0.1,0.1c0,0,0,0,0.1,0.1c0,0,0.1,0.1,0.1,0.1c0,0,0,0,0.1,0.1c0,0,0.1,0.1,0.1,0.1l0,0
			c0,0.1,0.1,0.1,0.1,0.2l0,0c0,0,0.1,0.1,0.1,0.1l0,0c0,0,0.1,0.1,0.1,0.1l0,0c0,0.1,0.1,0.1,0.1,0.2l0,0c0,0.1,0,0.1,0.1,0.1
			l0,0.1c0,0,0,0.1,0,0.1c0,0,0,0.1,0,0.1c0,0,0,0.1,0,0.1c0,0.1,0,0.1,0,0.2c0,0,0,0.1,0,0.1c0,0.1,0.1,0.2,0.1,0.3l0,0
			c0,0.1,0,0.3,0,0.4l0,13.4l-1.6,0.9l0-14.4c0,0,0-0.1,0-0.2l0,0c0-0.1,0-0.1,0-0.2l0,0c0,0,0-0.1,0-0.1l0-0.1c0,0,0,0,0-0.1
			c0,0,0,0,0-0.1l0,0c0,0,0-0.1,0-0.1l0,0c0,0,0-0.1-0.1-0.1l0,0c0,0,0-0.1-0.1-0.1l0,0c0,0,0-0.1-0.1-0.1l0,0c0,0,0-0.1-0.1-0.1
			l0,0c0,0,0,0-0.1-0.1l0,0c0,0,0,0-0.1,0l-0.1-0.1c0,0,0,0-0.1,0l0,0c0,0-0.1-0.1-0.1-0.1L76.6,62.9z"/>
		<path style="fill:none;stroke:#000000;stroke-width:7.683860e-02;stroke-miterlimit:10;" d="M63.4,61.7"/>
	</g>
</g>
</svg>
