<?xml version="1.0" encoding="utf-8"?>
<!-- Generator: Adobe Illustrator 23.0.1, SVG Export Plug-In . SVG Version: 6.00 Build 0)  -->
<svg version="1.1" id="Layer_1" xmlns="http://www.w3.org/2000/svg" xmlns:xlink="http://www.w3.org/1999/xlink" x="0px" y="0px"
	 viewBox="0 0 100 100" style="enable-background:new 0 0 100 100;" xml:space="preserve">
<g id="entrée-tapis_1_">
	<g>
		
			<linearGradient id="SVGID_1_" gradientUnits="userSpaceOnUse" x1="277.7547" y1="68.8116" x2="300.0569" y2="68.8116" gradientTransform="matrix(-1 0 0 1 356.5976 0)">
			<stop  offset="5.227065e-03" style="stop-color:#E1F8EA"/>
			<stop  offset="1" style="stop-color:#6EB768"/>
		</linearGradient>
		<path style="fill:url(#SVGID_1_);" d="M66.4,67l6.9-3.9v7.2c0,0.3-0.1,0.5-0.4,0.7l-6.2,3.6l0,0c-0.2,0.1-0.4,0.1-0.6,0l-5.8-3.3
			c-0.2-0.1-0.4-0.4-0.4-0.6v-7L66.4,67z"/>
		
			<linearGradient id="SVGID_2_" gradientUnits="userSpaceOnUse" x1="288.3672" y1="72.5425" x2="290.4092" y2="61.1197" gradientTransform="matrix(-1 0 0 1 356.5976 0)">
			<stop  offset="5.782268e-03" style="stop-color:#B0CB7C"/>
			<stop  offset="0.1213" style="stop-color:#AAC97A"/>
			<stop  offset="0.28" style="stop-color:#98C275"/>
			<stop  offset="0.4638" style="stop-color:#7BB76D"/>
			<stop  offset="0.6663" style="stop-color:#53A761"/>
			<stop  offset="0.8818" style="stop-color:#1F9352"/>
			<stop  offset="1" style="stop-color:#008749"/>
		</linearGradient>
		<path style="fill:url(#SVGID_2_);" d="M73.1,63.4l-6.2,3.6c-0.3,0.2-0.7,0.2-1,0l-5.9-3.4c0,0,3.4-1.7,7.2-3.9l6,3.2
			C73.3,62.9,73.3,63.2,73.1,63.4z"/>
	</g>
	<g>
		<linearGradient id="SVGID_3_" gradientUnits="userSpaceOnUse" x1="66.7006" y1="67.098" x2="66.7006" y2="64.6426">
			<stop  offset="5.376340e-03" style="stop-color:#FFFFFF"/>
			<stop  offset="1" style="stop-color:#FFFFFF"/>
		</linearGradient>
		<path style="fill:url(#SVGID_3_);" d="M70.8,64.7l-3.9,2.3l0,0c-0.4,0.2-0.8,0.2-1.2-0.1l-1-0.6l-2.1-1.2l2.1,1.2l1,0.6
			c0.3,0.2,0.8,0.3,1.1,0.1l0,0L70.8,64.7z"/>
	</g>
	<g>
		
			<linearGradient id="SVGID_4_" gradientUnits="userSpaceOnUse" x1="713.7192" y1="66.1464" x2="711.4915" y2="71.538" gradientTransform="matrix(1 0 0 1 -645.0655 0)">
			<stop  offset="6.297816e-03" style="stop-color:#7FBF7C"/>
			<stop  offset="1" style="stop-color:#E9F4F3"/>
		</linearGradient>
		<path style="opacity:0.6;fill:url(#SVGID_4_);" d="M72.3,63.1l-5.9,3.6l-0.2-0.1l0,0c0-0.7,0.4-1.6,1-1.9l4.1-2.4
			C71.9,62,72.3,62.3,72.3,63.1L72.3,63.1z"/>
		
			<linearGradient id="SVGID_5_" gradientUnits="userSpaceOnUse" x1="290.0286" y1="66.1615" x2="273.0605" y2="55.1595" gradientTransform="matrix(-1 0 0 1 356.5976 0)">
			<stop  offset="6.297816e-03" style="stop-color:#8FC07D"/>
			<stop  offset="1" style="stop-color:#377F58"/>
		</linearGradient>
		<path style="fill:url(#SVGID_5_);" d="M72.5,63.2l-6.1,3.5l0,0c0-0.7,0.4-1.6,1-1.9l4.1-2.4C72.1,62.1,72.5,62.4,72.5,63.2
			L72.5,63.2z"/>
	</g>
	
		<linearGradient id="SVGID_6_" gradientUnits="userSpaceOnUse" x1="294.8739" y1="68.0235" x2="303.2892" y2="69.5535" gradientTransform="matrix(-1 0 0 1 356.5976 0)">
		<stop  offset="6.297816e-03" style="stop-color:#8FC07D"/>
		<stop  offset="1" style="stop-color:#377F58"/>
	</linearGradient>
	<polygon style="fill:url(#SVGID_6_);" points="61.5,68 65,70 65,67.5 61.5,65.5 	"/>
	
		<linearGradient id="SVGID_7_" gradientUnits="userSpaceOnUse" x1="292.7675" y1="67.5881" x2="292.0262" y2="67.4183" gradientTransform="matrix(-1 0 0 1 356.5976 0)">
		<stop  offset="5.376340e-03" style="stop-color:#EB6583"/>
		<stop  offset="0.1237" style="stop-color:#ED7588"/>
		<stop  offset="0.5242" style="stop-color:#F5A696"/>
		<stop  offset="0.829" style="stop-color:#F9C5A0"/>
		<stop  offset="1" style="stop-color:#FBD0A3"/>
	</linearGradient>
	<polygon style="fill:url(#SVGID_7_);" points="64.1,67.3 64.8,67.7 64.8,67.6 64.1,67.2 	"/>
	
		<linearGradient id="SVGID_8_" gradientUnits="userSpaceOnUse" x1="292.4266" y1="67.8217" x2="291.8803" y2="67.6545" gradientTransform="matrix(-1 0 0 1 356.5976 0)">
		<stop  offset="5.376340e-03" style="stop-color:#EB6583"/>
		<stop  offset="0.1237" style="stop-color:#ED7588"/>
		<stop  offset="0.5242" style="stop-color:#F5A696"/>
		<stop  offset="0.829" style="stop-color:#F9C5A0"/>
		<stop  offset="1" style="stop-color:#FBD0A3"/>
	</linearGradient>
	<polygon style="fill:url(#SVGID_8_);" points="64.4,67.6 64.8,67.9 64.8,67.8 64.4,67.5 	"/>
	
		<linearGradient id="SVGID_9_" gradientUnits="userSpaceOnUse" x1="291.2261" y1="70.0907" x2="292.5483" y2="71.0337" gradientTransform="matrix(-1 0 0 1 356.5976 0)">
		<stop  offset="5.782268e-03" style="stop-color:#B0CB7C"/>
		<stop  offset="0.1213" style="stop-color:#AAC97A"/>
		<stop  offset="0.28" style="stop-color:#98C275"/>
		<stop  offset="0.4638" style="stop-color:#7BB76D"/>
		<stop  offset="0.6663" style="stop-color:#53A761"/>
		<stop  offset="0.8818" style="stop-color:#1F9352"/>
		<stop  offset="1" style="stop-color:#008749"/>
	</linearGradient>
	<polygon style="fill:url(#SVGID_9_);" points="65,70 65,70.7 64.4,71.2 64.4,70.9 	"/>
	
		<linearGradient id="SVGID_10_" gradientUnits="userSpaceOnUse" x1="291.9896" y1="71.2957" x2="293.9756" y2="70.0131" gradientTransform="matrix(-1 0 0 1 356.5976 0)">
		<stop  offset="5.782268e-03" style="stop-color:#B0CB7C"/>
		<stop  offset="0.1213" style="stop-color:#AAC97A"/>
		<stop  offset="0.28" style="stop-color:#98C275"/>
		<stop  offset="0.4638" style="stop-color:#7BB76D"/>
		<stop  offset="0.6663" style="stop-color:#53A761"/>
		<stop  offset="0.8818" style="stop-color:#1F9352"/>
		<stop  offset="1" style="stop-color:#008749"/>
	</linearGradient>
	<polygon style="fill:url(#SVGID_10_);" points="60.9,69.1 64.4,71.2 64.4,70.9 60.9,68.8 	"/>
	
		<linearGradient id="SVGID_11_" gradientUnits="userSpaceOnUse" x1="295.118" y1="68.4829" x2="298.9806" y2="65.9883" gradientTransform="matrix(-1 0 0 1 356.5976 0)">
		<stop  offset="5.782268e-03" style="stop-color:#B0CB7C"/>
		<stop  offset="0.1213" style="stop-color:#AAC97A"/>
		<stop  offset="0.28" style="stop-color:#98C275"/>
		<stop  offset="0.4638" style="stop-color:#7BB76D"/>
		<stop  offset="0.6663" style="stop-color:#53A761"/>
		<stop  offset="0.8818" style="stop-color:#1F9352"/>
		<stop  offset="1" style="stop-color:#008749"/>
	</linearGradient>
	<polygon style="fill:url(#SVGID_11_);" points="61.5,68 60.9,68.8 64.4,70.9 65,70 	"/>
	
		<linearGradient id="SVGID_12_" gradientUnits="userSpaceOnUse" x1="291.5397" y1="68.6754" x2="292.5852" y2="68.6754" gradientTransform="matrix(-1 0 0 1 356.5976 0)">
		<stop  offset="6.297816e-03" style="stop-color:#7FBF7C"/>
		<stop  offset="1" style="stop-color:#E9F4F3"/>
	</linearGradient>
	<polygon style="fill:url(#SVGID_12_);" points="62.1,68.5 61.5,68.2 61.1,68.8 61.7,69.2 	"/>
	
		<linearGradient id="SVGID_13_" gradientUnits="userSpaceOnUse" x1="287.8202" y1="-245.0064" x2="287.1416" y2="-242.9297" gradientTransform="matrix(-1 1.1547 0 1 356.5353 -23.8179)">
		<stop  offset="5.376340e-03" style="stop-color:#FFFFFF"/>
		<stop  offset="1" style="stop-color:#FFFFFF;stop-opacity:0"/>
	</linearGradient>
	<polygon style="opacity:0.4;fill:url(#SVGID_13_);" points="69.2,63.8 69.7,64.8 69.2,65.1 68.7,64 	"/>
	
		<linearGradient id="SVGID_14_" gradientUnits="userSpaceOnUse" x1="287.1583" y1="-244.5093" x2="286.5457" y2="-242.6349" gradientTransform="matrix(-1 1.1547 0 1 356.5353 -23.8179)">
		<stop  offset="5.376340e-03" style="stop-color:#FFFFFF"/>
		<stop  offset="1" style="stop-color:#FFFFFF;stop-opacity:0"/>
	</linearGradient>
	<polygon style="opacity:0.4;fill:url(#SVGID_14_);" points="69.7,63.5 70.2,64.5 69.9,64.7 69.4,63.6 	"/>
	
		<linearGradient id="SVGID_15_" gradientUnits="userSpaceOnUse" x1="284.3474" y1="69.6584" x2="287.0752" y2="69.6584" gradientTransform="matrix(-1 0 0 1 356.5976 0)">
		<stop  offset="6.297816e-03" style="stop-color:#7FBF7C"/>
		<stop  offset="1" style="stop-color:#E9F4F3"/>
	</linearGradient>
	<polygon style="fill:url(#SVGID_15_);" points="62.3,68.7 64.6,70 64.2,70.6 61.9,69.3 	"/>
	
		<linearGradient id="SVGID_16_" gradientUnits="userSpaceOnUse" x1="286.7251" y1="69.8637" x2="300.8614" y2="62.2375" gradientTransform="matrix(-1 0 0 1 356.5976 0)">
		<stop  offset="6.297816e-03" style="stop-color:#8FC07D"/>
		<stop  offset="1" style="stop-color:#377F58"/>
	</linearGradient>
	<path style="fill:url(#SVGID_16_);" d="M67.7,73.9l4.6-2.6V66c0-0.1-0.1-0.2-0.2-0.1l-3.9,2.3c-0.3,0.1-0.4,0.4-0.4,0.7V73.9z"/>
	
		<linearGradient id="light_1_" gradientUnits="userSpaceOnUse" x1="-741.9175" y1="69.3956" x2="-741.0282" y2="70.2849" gradientTransform="matrix(1 0 0 1 808.8605 0)">
		<stop  offset="5.376340e-03" style="stop-color:#EB6583"/>
		<stop  offset="0.1237" style="stop-color:#ED7588"/>
		<stop  offset="0.5242" style="stop-color:#F5A696"/>
		<stop  offset="0.829" style="stop-color:#F9C5A0"/>
		<stop  offset="1" style="stop-color:#FBD0A3"/>
	</linearGradient>
	<polygon id="light_11_" style="fill:url(#light_1_);" points="67.4,69.8 67,70 67,69.6 67.4,69.4 	"/>
	<polygon id="light_10_" style="fill:#57AD5C;" points="67.4,70.4 67,70.6 67,70.2 67.4,70 	"/>
</g>
<g id="tapis_2_">
	<g id="bande_1_">
		
			<linearGradient id="rubber-bottom_2_" gradientUnits="userSpaceOnUse" x1="635.3096" y1="67.51" x2="615.9871" y2="94.027" gradientTransform="matrix(-1 0 0 1 706.9755 0)">
			<stop  offset="6.297816e-03" style="stop-color:#8FC07D"/>
			<stop  offset="1" style="stop-color:#377F58"/>
		</linearGradient>
		<path id="rubber-bottom_1_" style="fill:url(#rubber-bottom_2_);" d="M69.3,69.4l20.7,11.8c0.2,0.1,0.3,0.1,0.3,0.1l-0.1,0.1
			l-4.5,2.6h-0.4L67.7,73.8v-2.9C67.7,70.6,69.1,69.7,69.3,69.4z"/>
		<g id="stripes-2_1_" style="opacity:0.5;">
			
				<linearGradient id="SVGID_17_" gradientUnits="userSpaceOnUse" x1="276.7186" y1="77.258" x2="279.8815" y2="77.258" gradientTransform="matrix(-1 0 0 1 356.5976 0)">
				<stop  offset="6.297816e-03" style="stop-color:#7FBF7C"/>
				<stop  offset="1" style="stop-color:#E9F4F3"/>
			</linearGradient>
			
				<line style="fill:none;stroke:url(#SVGID_17_);stroke-width:6.149868e-02;stroke-linecap:round;stroke-linejoin:round;stroke-miterlimit:10;" x1="79.8" y1="76.4" x2="76.7" y2="78.1"/>
			
				<linearGradient id="SVGID_18_" gradientUnits="userSpaceOnUse" x1="279.4945" y1="75.6278" x2="282.6575" y2="75.6278" gradientTransform="matrix(-1 0 0 1 356.5976 0)">
				<stop  offset="6.297816e-03" style="stop-color:#7FBF7C"/>
				<stop  offset="1" style="stop-color:#E9F4F3"/>
			</linearGradient>
			
				<line style="fill:none;stroke:url(#SVGID_18_);stroke-width:6.149868e-02;stroke-linecap:round;stroke-linejoin:round;stroke-miterlimit:10;" x1="77.1" y1="74.7" x2="74" y2="76.5"/>
			
				<linearGradient id="SVGID_19_" gradientUnits="userSpaceOnUse" x1="282.0858" y1="74.0879" x2="285.2488" y2="74.0879" gradientTransform="matrix(-1 0 0 1 356.5976 0)">
				<stop  offset="6.297816e-03" style="stop-color:#7FBF7C"/>
				<stop  offset="1" style="stop-color:#E9F4F3"/>
			</linearGradient>
			
				<line style="fill:none;stroke:url(#SVGID_19_);stroke-width:6.149868e-02;stroke-linecap:round;stroke-linejoin:round;stroke-miterlimit:10;" x1="74.5" y1="73.2" x2="71.4" y2="75"/>
			
				<linearGradient id="SVGID_20_" gradientUnits="userSpaceOnUse" x1="284.6667" y1="72.6448" x2="287.8297" y2="72.6448" gradientTransform="matrix(-1 0 0 1 356.5976 0)">
				<stop  offset="6.297816e-03" style="stop-color:#7FBF7C"/>
				<stop  offset="1" style="stop-color:#E9F4F3"/>
			</linearGradient>
			
				<line style="fill:none;stroke:url(#SVGID_20_);stroke-width:6.149868e-02;stroke-linecap:round;stroke-linejoin:round;stroke-miterlimit:10;" x1="71.9" y1="71.8" x2="68.8" y2="73.5"/>
		</g>
		
			<linearGradient id="shade_1_" gradientUnits="userSpaceOnUse" x1="276.1975" y1="70.9304" x2="282.2659" y2="82.5196" gradientTransform="matrix(-1 0 0 1 356.5976 0)">
			<stop  offset="0" style="stop-color:#00714C;stop-opacity:0.5"/>
			<stop  offset="0.2914" style="stop-color:#046B4A;stop-opacity:0.354"/>
			<stop  offset="0.6842" style="stop-color:#115A43;stop-opacity:0.1571"/>
			<stop  offset="0.9978" style="stop-color:#1E473C;stop-opacity:0"/>
		</linearGradient>
		<path id="shade_33_" style="fill:url(#shade_1_);" d="M85.5,83.9l-1.2,0c-0.6,0-1.2-0.2-1.7-0.4l-16-9.1l1-0.6L85.5,83.9z"/>
		<g id="rubber-top_1_">
			<path style="fill:none;stroke:#221E20;stroke-width:0.5668;stroke-linecap:round;stroke-miterlimit:10;" d="M85,83.4"/>
			
				<linearGradient id="SVGID_21_" gradientUnits="userSpaceOnUse" x1="283.8938" y1="69.5086" x2="263.2409" y2="83.1367" gradientTransform="matrix(-1 0 0 1 356.5976 0)">
				<stop  offset="6.297816e-03" style="stop-color:#7FBF7C"/>
				<stop  offset="1" style="stop-color:#E9F4F3"/>
			</linearGradient>
			<path style="fill:url(#SVGID_21_);" d="M68.8,67.7l21.3,12.2c0,0,0.8,0.7,0.2,1.3c0,0,0.4-0.6-0.6-1.3L68.5,67.8
				C68.6,67.8,68.8,67.7,68.8,67.7z"/>
			
				<linearGradient id="SVGID_22_" gradientUnits="userSpaceOnUse" x1="689.5659" y1="84.9566" x2="700.8167" y2="65.4696" gradientTransform="matrix(-1 0 0 1 773.4269 0)">
				<stop  offset="5.782268e-03" style="stop-color:#B0CB7C"/>
				<stop  offset="0.1948" style="stop-color:#AAC67C"/>
				<stop  offset="0.4544" style="stop-color:#98B87B"/>
				<stop  offset="0.7534" style="stop-color:#7BA27B"/>
				<stop  offset="1" style="stop-color:#5E8B7A"/>
			</linearGradient>
			<path style="fill:url(#SVGID_22_);" d="M68.5,67.8l21.2,12.1c0,0,0.7,0.4,0.6,1.1c0,0.1-0.1,0.2-0.2,0.3l-4.4,2.5
				c0,0,0.4-0.8-0.7-1.4l-17.4-9.9l0-3.7c0-0.2,0.1-0.5,0.4-0.7L68.5,67.8z"/>
			
				<linearGradient id="SVGID_23_" gradientUnits="userSpaceOnUse" x1="288.3205" y1="72.0779" x2="265.6429" y2="87.4231" gradientTransform="matrix(-1 0 0 1 356.5976 0)">
				<stop  offset="5.742611e-03" style="stop-color:#618256"/>
				<stop  offset="1" style="stop-color:#377F58"/>
			</linearGradient>
			<path style="fill:url(#SVGID_23_);" d="M67.7,72.5l17.7,10.1c0,0,0.7,0.5,0.5,1.2c0,0-0.2,0.2-0.4,0.1c0.1-0.1,0.5-0.5-0.3-1.2
				l-17.6-10V72.5z"/>
		</g>
		<g id="stripes-1_1_">
			
				<linearGradient id="SVGID_24_" gradientUnits="userSpaceOnUse" x1="274.6559" y1="77.2613" x2="277.8188" y2="77.2613" gradientTransform="matrix(-1 0 0 1 356.5976 0)">
				<stop  offset="6.297816e-03" style="stop-color:#7FBF7C"/>
				<stop  offset="1" style="stop-color:#E9F4F3"/>
			</linearGradient>
			
				<line style="fill:none;stroke:url(#SVGID_24_);stroke-width:6.149868e-02;stroke-linecap:round;stroke-linejoin:round;stroke-miterlimit:10;" x1="81.9" y1="76.4" x2="78.8" y2="78.2"/>
			
				<linearGradient id="SVGID_25_" gradientUnits="userSpaceOnUse" x1="277.2472" y1="75.7214" x2="280.4101" y2="75.7214" gradientTransform="matrix(-1 0 0 1 356.5976 0)">
				<stop  offset="6.297816e-03" style="stop-color:#7FBF7C"/>
				<stop  offset="1" style="stop-color:#E9F4F3"/>
			</linearGradient>
			
				<line style="fill:none;stroke:url(#SVGID_25_);stroke-width:6.149868e-02;stroke-linecap:round;stroke-linejoin:round;stroke-miterlimit:10;" x1="79.3" y1="74.8" x2="76.2" y2="76.6"/>
			
				<linearGradient id="SVGID_26_" gradientUnits="userSpaceOnUse" x1="252.8436" y1="56.0633" x2="256.0066" y2="56.0633" gradientTransform="matrix(-0.9986 5.377966e-02 5.377966e-02 0.9986 334.1997 9.2483)">
				<stop  offset="6.297816e-03" style="stop-color:#7FBF7C"/>
				<stop  offset="1" style="stop-color:#E9F4F3"/>
			</linearGradient>
			
				<line style="fill:none;stroke:url(#SVGID_26_);stroke-width:6.149868e-02;stroke-linecap:round;stroke-linejoin:round;stroke-miterlimit:10;" x1="84.7" y1="77.9" x2="81.7" y2="79.9"/>
			
				<linearGradient id="SVGID_27_" gradientUnits="userSpaceOnUse" x1="244.8807" y1="49.4901" x2="248.0437" y2="49.4901" gradientTransform="matrix(-0.9973 7.294130e-02 7.294130e-02 0.9973 328.1128 12.8804)">
				<stop  offset="6.297816e-03" style="stop-color:#7FBF7C"/>
				<stop  offset="1" style="stop-color:#E9F4F3"/>
			</linearGradient>
			
				<line style="fill:none;stroke:url(#SVGID_27_);stroke-width:6.149868e-02;stroke-linecap:round;stroke-linejoin:round;stroke-miterlimit:10;" x1="87.4" y1="79.2" x2="84.4" y2="81.2"/>
			
				<linearGradient id="SVGID_28_" gradientUnits="userSpaceOnUse" x1="280.0231" y1="74.0912" x2="283.1861" y2="74.0912" gradientTransform="matrix(-1 0 0 1 356.5976 0)">
				<stop  offset="6.297816e-03" style="stop-color:#7FBF7C"/>
				<stop  offset="1" style="stop-color:#E9F4F3"/>
			</linearGradient>
			
				<line style="fill:none;stroke:url(#SVGID_28_);stroke-width:6.149868e-02;stroke-linecap:round;stroke-linejoin:round;stroke-miterlimit:10;" x1="76.5" y1="73.2" x2="73.4" y2="75"/>
			
				<linearGradient id="SVGID_29_" gradientUnits="userSpaceOnUse" x1="282.6144" y1="72.5512" x2="285.7774" y2="72.5512" gradientTransform="matrix(-1 0 0 1 356.5976 0)">
				<stop  offset="6.297816e-03" style="stop-color:#7FBF7C"/>
				<stop  offset="1" style="stop-color:#E9F4F3"/>
			</linearGradient>
			
				<line style="fill:none;stroke:url(#SVGID_29_);stroke-width:6.149868e-02;stroke-linecap:round;stroke-linejoin:round;stroke-miterlimit:10;" x1="74" y1="71.7" x2="70.9" y2="73.4"/>
			
				<linearGradient id="SVGID_30_" gradientUnits="userSpaceOnUse" x1="285.1953" y1="71.1081" x2="288.3583" y2="71.1081" gradientTransform="matrix(-1 0 0 1 356.5976 0)">
				<stop  offset="6.297816e-03" style="stop-color:#7FBF7C"/>
				<stop  offset="1" style="stop-color:#E9F4F3"/>
			</linearGradient>
			
				<line style="fill:none;stroke:url(#SVGID_30_);stroke-width:6.149868e-02;stroke-linecap:round;stroke-linejoin:round;stroke-miterlimit:10;" x1="71.4" y1="70.2" x2="68.3" y2="72"/>
			
				<linearGradient id="SVGID_31_" gradientUnits="userSpaceOnUse" x1="287.7867" y1="68.9945" x2="288.9519" y2="68.9945" gradientTransform="matrix(-1 0 0 1 356.5976 0)">
				<stop  offset="6.297816e-03" style="stop-color:#7FBF7C"/>
				<stop  offset="1" style="stop-color:#E9F4F3"/>
			</linearGradient>
			
				<line style="fill:none;stroke:url(#SVGID_31_);stroke-width:6.149868e-02;stroke-linecap:round;stroke-linejoin:round;stroke-miterlimit:10;" x1="68.8" y1="68.7" x2="67.7" y2="69.3"/>
		</g>
		<g id="wheel_1_">
			
				<linearGradient id="SVGID_32_" gradientUnits="userSpaceOnUse" x1="291.3961" y1="172.692" x2="288.9169" y2="174.3833" gradientTransform="matrix(-0.866 -0.5 0 1.1547 336.5851 28.063)">
				<stop  offset="5.376340e-03" style="stop-color:#23398D"/>
				<stop  offset="0.3102" style="stop-color:#456FA8"/>
				<stop  offset="0.6252" style="stop-color:#64A0C0"/>
				<stop  offset="0.8653" style="stop-color:#78BFCF"/>
				<stop  offset="1" style="stop-color:#7FCAD5"/>
			</linearGradient>
			<path style="fill:url(#SVGID_32_);" d="M84.8,83c0,0.3,0.2,0.7,0.5,0.8c0.3,0.1,0.5,0,0.5-0.3c0-0.3-0.2-0.7-0.5-0.8
				C85,82.6,84.8,82.7,84.8,83z"/>
			
				<linearGradient id="SVGID_33_" gradientUnits="userSpaceOnUse" x1="291.0114" y1="172.9545" x2="289.3351" y2="174.098" gradientTransform="matrix(-0.866 -0.5 0 1.1547 336.5851 28.063)">
				<stop  offset="6.297816e-03" style="stop-color:#7FBF7C"/>
				<stop  offset="1" style="stop-color:#E9F4F3"/>
			</linearGradient>
			<path style="fill:url(#SVGID_33_);" d="M84.9,83.1c0,0.2,0.1,0.5,0.3,0.6s0.3,0,0.3-0.2s-0.1-0.5-0.3-0.6S84.9,82.9,84.9,83.1z"
				/>
		</g>
	</g>
</g>
</svg>
