<?xml version="1.0" encoding="utf-8"?>
<!-- Generator: Adobe Illustrator 23.0.1, SVG Export Plug-In . SVG Version: 6.00 Build 0)  -->
<svg version="1.1" id="Layer_1" xmlns="http://www.w3.org/2000/svg" xmlns:xlink="http://www.w3.org/1999/xlink" x="0px" y="0px"
	 viewBox="0 0 100 100" style="enable-background:new 0 0 100 100;" xml:space="preserve">
<g id="socle-envoi-it_1_">
	<g id="socle-bottom_1_">
		
			<linearGradient id="shade_1_" gradientUnits="userSpaceOnUse" x1="285.5113" y1="35.4" x2="238.674" y2="35.4" gradientTransform="matrix(-1 0 0 -1 308.2378 100)">
			<stop  offset="4.607372e-04" style="stop-color:#316736"/>
			<stop  offset="1" style="stop-color:#6FBB84;stop-opacity:0"/>
		</linearGradient>
		<ellipse id="shade_30_" style="fill:url(#shade_1_);" cx="47.4" cy="64.6" rx="22.7" ry="8.4"/>
		<g id="socle_3_">
			
				<linearGradient id="SVGID_1_" gradientUnits="userSpaceOnUse" x1="-247.4775" y1="34.0591" x2="-183.0251" y2="45.4238" gradientTransform="matrix(1 0 0 -1 266.1266 100)">
				<stop  offset="6.297816e-03" style="stop-color:#8FC07D"/>
				<stop  offset="0.154" style="stop-color:#77AE73"/>
				<stop  offset="0.364" style="stop-color:#5B9A67"/>
				<stop  offset="0.5754" style="stop-color:#478B5F"/>
				<stop  offset="0.7872" style="stop-color:#3B825A"/>
				<stop  offset="1" style="stop-color:#377F58"/>
			</linearGradient>
			<path style="fill:url(#SVGID_1_);" d="M60.2,61.9c0-0.1,0-0.2,0-0.2v-1.9h-0.3c-0.7-2-2.3-3.9-5-5.4c-7.2-4.1-18.8-4.1-26.1,0
				c-2.7,1.5-4.3,3.4-5,5.4h-0.4V62l0,0l0,0l0,0c0.1,2.7,1.8,5.3,5.4,7.3c7.2,4.1,18.8,4.1,26.1,0c3.5-2,5.3-4.7,5.4-7.3l0,0v-0.1
				H60.2z"/>
			
				<linearGradient id="SVGID_2_" gradientUnits="userSpaceOnUse" x1="-195.3015" y1="15.7568" x2="-234.9007" y2="49.2414" gradientTransform="matrix(1 0 0 -1 266.1266 100)">
				<stop  offset="5.227065e-03" style="stop-color:#AED2BC"/>
				<stop  offset="1" style="stop-color:#6EB768"/>
			</linearGradient>
			<path style="fill:url(#SVGID_2_);" d="M54.9,52.2c7.2,4.1,7.1,10.9-0.1,15c-7.2,4.2-18.9,4.2-26.1,0c-7.2-4.1-7.1-10.9,0.1-15
				S47.7,48,54.9,52.2z"/>
		</g>
	</g>
	<g id="socle-middle_1_">
		
			<linearGradient id="shade_-socle_2_" gradientUnits="userSpaceOnUse" x1="-232.9772" y1="44.1887" x2="-208.5212" y2="34.0092" gradientTransform="matrix(1 0 0 -1 266.1266 100)">
			<stop  offset="4.607372e-04" style="stop-color:#316736"/>
			<stop  offset="1" style="stop-color:#6FBB84;stop-opacity:0"/>
		</linearGradient>
		<path id="shade_-socle_1_" style="fill:url(#shade_-socle_2_);" d="M61.1,61.1c0,3.8-4.2,6.8-14.6,6.8s-18.7-3.1-18.7-7
			s8.4-7,18.7-7S61.1,57.3,61.1,61.1z"/>
		<g id="socle_2_">
			
				<linearGradient id="SVGID_3_" gradientUnits="userSpaceOnUse" x1="-219.2703" y1="53.4777" x2="-233.9855" y2="20.3685" gradientTransform="matrix(1 0 0 -1 266.1266 100)">
				<stop  offset="6.297816e-03" style="stop-color:#8FC07D"/>
				<stop  offset="0.154" style="stop-color:#77AE73"/>
				<stop  offset="0.364" style="stop-color:#5B9A67"/>
				<stop  offset="0.5754" style="stop-color:#478B5F"/>
				<stop  offset="0.7872" style="stop-color:#3B825A"/>
				<stop  offset="1" style="stop-color:#377F58"/>
			</linearGradient>
			<path style="fill:url(#SVGID_3_);" d="M56.9,58.6c0-0.1,0-0.1,0-0.2v-1.6h-0.3c-0.6-1.6-1.9-3.2-4.1-4.5
				c-5.9-3.4-15.6-3.4-21.5,0c-2.2,1.3-3.6,2.8-4.2,4.4h-0.3v1.8l0,0v0.1l0,0c0,2.2,1.5,4.4,4.4,6.1c5.9,3.4,15.6,3.4,21.5,0
				C55.3,63,56.8,60.8,56.9,58.6L56.9,58.6L56.9,58.6z"/>
			
				<linearGradient id="SVGID_4_" gradientUnits="userSpaceOnUse" x1="-203.3422" y1="25.4" x2="-236.0862" y2="53.0879" gradientTransform="matrix(1 0 0 -1 266.1266 100)">
				<stop  offset="5.227065e-03" style="stop-color:#AED2BC"/>
				<stop  offset="1" style="stop-color:#6EB768"/>
			</linearGradient>
			<path style="fill:url(#SVGID_4_);" d="M52.4,50.5c5.9,3.4,5.9,9-0.1,12.4s-15.6,3.5-21.5,0s-5.9-9,0.1-12.4S46.5,47.1,52.4,50.5z
				"/>
		</g>
	</g>
	<g id="socle-top_1_">
		
			<linearGradient id="shade-socle_2_" gradientUnits="userSpaceOnUse" x1="-227.3782" y1="41.4998" x2="-211.6832" y2="44.2115" gradientTransform="matrix(1 0 0 -1 266.1266 100)">
			<stop  offset="4.607372e-04" style="stop-color:#316736"/>
			<stop  offset="1" style="stop-color:#6FBB84;stop-opacity:0"/>
		</linearGradient>
		<path id="shade-socle_1_" style="fill:url(#shade-socle_2_);" d="M46.1,63.2l6.6-0.2c0,0,1.7-0.2,1.7-2c0,0,1.2-2.1,0.7-3.7
			c0,0,0-3.7-2.2-4.9c-2.3-1.2-7.5-1.9-9.4-1.5S41,51.2,41,51.2L46.1,63.2z"/>
		<g>
			<g>
				
					<linearGradient id="SVGID_5_" gradientUnits="userSpaceOnUse" x1="-217.2451" y1="45.4173" x2="-214.1275" y2="41.3911" gradientTransform="matrix(1 0 0 -1 266.1266 100)">
					<stop  offset="6.297816e-03" style="stop-color:#8FC07D"/>
					<stop  offset="0.154" style="stop-color:#77AE73"/>
					<stop  offset="0.364" style="stop-color:#5B9A67"/>
					<stop  offset="0.5754" style="stop-color:#478B5F"/>
					<stop  offset="0.7872" style="stop-color:#3B825A"/>
					<stop  offset="1" style="stop-color:#377F58"/>
				</linearGradient>
				<path style="fill:url(#SVGID_5_);" d="M50.7,54.2v2.6c0,1-0.9,1.7-0.9,1.7v-2.6C49.8,55.9,50.7,55.3,50.7,54.2z"/>
			</g>
			
				<linearGradient id="SVGID_6_" gradientUnits="userSpaceOnUse" x1="-205.424" y1="25.0187" x2="-223.5004" y2="45.0902" gradientTransform="matrix(1 0 0 -1 266.1266 100)">
				<stop  offset="0" style="stop-color:#4489C8"/>
				<stop  offset="0.2286" style="stop-color:#76AAD7"/>
				<stop  offset="0.4788" style="stop-color:#A6C9E5"/>
				<stop  offset="0.6999" style="stop-color:#C8E0EF"/>
				<stop  offset="0.8812" style="stop-color:#DDEEF6"/>
				<stop  offset="1" style="stop-color:#E5F3F8"/>
			</linearGradient>
			<path style="fill:url(#SVGID_6_);" d="M49.8,56c1.9,1.8,0.3,3.9-2.7,4.5c-0.1,0-0.1,0-0.2,0c-0.1,0-0.2,0-0.2,0
				c-0.1,0-0.2,0-0.2,0c-0.1,0-0.1,0-0.2,0c-0.1,0-0.2,0-0.2,0c-0.1,0-0.2,0-0.2,0c-0.1,0-0.1,0-0.2,0c-0.1,0-0.1,0-0.2,0
				c-0.1,0-0.2,0-0.2,0c-0.1,0-0.1,0-0.2,0c-0.1,0-0.1,0-0.2,0c-0.1,0-0.1,0-0.2,0c-0.1,0-0.1,0-0.2,0c-0.1,0-0.1,0-0.2,0
				c-0.1,0-0.1,0-0.2,0c-0.1,0-0.1,0-0.2,0c-0.1,0-0.1,0-0.1,0c-0.1,0-0.1,0-0.2,0c-0.1,0-0.1,0-0.2,0c-0.1,0-0.1,0-0.1,0
				c-0.1,0-0.1,0-0.1,0c-0.1,0-0.1,0-0.1-0.1H43h-0.1c-0.1,0-0.1,0-0.1-0.1h-0.1h-0.1h-0.1c-0.1,0-0.1-0.1-0.2-0.1c0,0,0,0-0.1,0
				c0,0,0,0-0.1,0l-9.4-5.4c-2.1-1.3-0.8-2.5-0.7-2.6c2.5-2.1,5.4-0.6,5.6-0.5c0.1,0,0.1-0.1,0.2-0.1c0.1,0,0.2-0.1,0.2-0.1
				c0.1,0,0.1,0,0.2-0.1c0.1,0,0.2,0,0.2-0.1c0.1,0,0.1,0,0.2,0c0.1,0,0.2,0,0.2,0c0.1,0,0.1,0,0.2,0c0.1,0,0.1,0,0.2,0
				c0.1,0,0.1,0,0.2,0c0.1,0,0.1,0,0.2,0c0.1,0,0.1,0,0.2,0c0.1,0,0.1,0,0.2,0c0.1,0,0.1,0,0.2,0c0.1,0,0.1,0,0.1,0
				c0.1,0,0.1,0,0.2,0c0.1,0,0.1,0,0.1,0c0.1,0,0.1,0,0.2,0c0.1,0,0.1,0,0.1,0c0.1,0,0.1,0,0.1,0c0.1,0,0.1,0,0.1,0
				c0.1,0,0.1,0,0.1,0c0.1,0,0.1,0,0.1,0c0.1,0,0.1,0,0.1,0c0.1,0,0.1,0,0.1,0h0.1h0.1h0.1h0.1c0,0,0,0,0.1,0h0.1
				c0.1,0,0.1,0.1,0.1,0.1s0,0,0.1,0c0,0,0,0,0.1,0l0,0c0.2,0.1,0.2,0,0.3,0c0,0,0,0,0.1,0s0.1,0,0.1,0s0,0,0.1,0s0.1,0,0.2,0
				c0.1,0,0.1,0,0.2,0c0.1,0,0.2,0,0.2,0c0.2,0,0.3,0,0.4-0.1c0.1,0,0.1,0,0.2,0c0.1,0,0.2,0,0.2,0c0.1,0,0.1,0,0.2,0
				c0.1,0,0.1,0,0.2,0c0.2,0,0.3,0,0.4,0c0.1,0,0.1,0,0.2,0c0.2,0,0.3,0,0.4,0c0.1,0,0.1,0,0.2,0c0.1,0,0.1,0,0.2,0
				c0.1,0,0.1,0,0.2,0c0.1,0,0.1,0,0.1,0c0.1,0,0.2,0,0.3,0s0.1,0,0.1,0c0.1,0,0.2,0,0.3,0s0.1,0,0.1,0c0.1,0,0.2,0,0.3,0.1
				c0.1,0,0.1,0,0.1,0c0.1,0,0.2,0,0.3,0.1c0.1,0,0.1,0,0.1,0c0.1,0,0.2,0,0.2,0.1h0.1h0.1h0.1h0.1c0.1,0,0.1,0.1,0.2,0.1H49h0.1
				h0.1h0.1h0.1c0,0,0,0,0.1,0s0.1,0.1,0.1,0.1C49.9,52,49.9,52,50,52c0,0,0.1,0,0.1,0.1C51.9,54.4,49.9,55.9,49.8,56z"/>
			
				<linearGradient id="SVGID_7_" gradientUnits="userSpaceOnUse" x1="-235.7232" y1="41.85" x2="-203.5471" y2="41.85" gradientTransform="matrix(1 0 0 -1 266.1266 100)">
				<stop  offset="5.227065e-03" style="stop-color:#96C781"/>
				<stop  offset="1" style="stop-color:#6EB768"/>
			</linearGradient>
			<path style="fill:url(#SVGID_7_);" d="M47.1,60.5c-0.1,0-0.1,0-0.2,0c-0.1,0-0.2,0-0.2,0c-0.1,0-0.2,0-0.2,0c-0.1,0-0.1,0-0.2,0
				c-0.1,0-0.2,0-0.2,0c-0.1,0-0.2,0-0.2,0c-0.1,0-0.1,0-0.2,0c-0.1,0-0.1,0-0.2,0c-0.1,0-0.2,0-0.2,0c-0.1,0-0.1,0-0.2,0
				c-0.1,0-0.1,0-0.2,0c-0.1,0-0.1,0-0.2,0c-0.1,0-0.1,0-0.2,0c-0.1,0-0.1,0-0.2,0c-0.1,0-0.1,0-0.2,0c-0.1,0-0.1,0-0.2,0
				c-0.1,0-0.1,0-0.1,0c-0.1,0-0.1,0-0.2,0c-0.1,0-0.1,0-0.2,0c-0.1,0-0.1,0-0.1,0c-0.1,0-0.1,0-0.1,0c-0.1,0-0.1,0-0.1-0.1H43h-0.1
				c-0.1,0-0.1,0-0.1-0.1h-0.1h-0.1h-0.1c-0.1,0-0.1-0.1-0.2-0.1c0,0,0,0-0.1,0c0,0,0,0-0.1,0l-9.4-5.4c-0.9-0.6-1.2-1.1-1.2-1.6
				v2.6c0,0.5,0.3,1,1.2,1.6l9.4,5.4c0,0,0,0,0.1,0c0,0,0,0,0.1,0c0,0,0.1,0,0.2,0.1c0,0,0,0,0.1,0h0.1h0.1c0,0,0.1,0,0.1,0.1H43
				h0.1c0,0,0.1,0,0.1,0.1h0.1h0.1c0,0,0.1,0,0.2,0c0,0,0.1,0,0.2,0h0.1c0,0,0.1,0,0.2,0c0,0,0.1,0,0.2,0c0.1,0,0.1,0,0.2,0
				c0.1,0,0.1,0,0.2,0c0.1,0,0.1,0,0.2,0c0.1,0,0.1,0,0.2,0c0.1,0,0.1,0,0.2,0c0.1,0,0.1,0,0.2,0c0.1,0,0.1,0,0.2,0
				c0.1,0,0.1,0,0.2,0c0.1,0,0.1,0,0.2,0c0.1,0,0.1,0,0.2,0c0.1,0,0.1,0,0.2,0c0.1,0,0.1,0,0.2,0c0.1,0,0.1,0,0.2,0
				c0.1,0,0.1,0,0.2,0c2.1-0.5,3.5-1.6,3.5-2.9v-2.6C50.6,58.9,49.2,60,47.1,60.5z"/>
			
				<linearGradient id="XMLID_2_" gradientUnits="userSpaceOnUse" x1="-246.8" y1="44.4104" x2="-219.4638" y2="44.4104" gradientTransform="matrix(1 0 0 -1 266.1266 100)">
				<stop  offset="5.227065e-03" style="stop-color:#96C781"/>
				<stop  offset="1" style="stop-color:#6EB768"/>
			</linearGradient>
			<path id="XMLID_1058_" style="fill:url(#XMLID_2_);" d="M37.3,51.6c0,0-2.7-1.6-4.9,0.2c0,0-1.3,1.2,0.6,2.3l8.8,5
				c0,0,2.4,1.6,5.1,1c2.7-0.6,3.9-2.6,2.2-4.2c0,0,2.4-1.8-0.1-3.7c0,0-2.5-1.4-6.8-0.5C42.3,51.7,40.1,50.5,37.3,51.6z"/>
		</g>
		<g>
			<g>
				
					<ellipse transform="matrix(1 -5.332381e-03 5.332381e-03 1 -0.2932 0.2279)" style="fill:#57AD5C;" cx="42.6" cy="55.1" rx="5" ry="2.9"/>
			</g>
			
				<linearGradient id="SVGID_8_" gradientUnits="userSpaceOnUse" x1="-229.4014" y1="53.8804" x2="-219.341" y2="38.624" gradientTransform="matrix(1 0 0 -1 266.1266 100)">
				<stop  offset="5.227065e-03" style="stop-color:#AED2BC"/>
				<stop  offset="1" style="stop-color:#6EB768"/>
			</linearGradient>
			<path style="fill:url(#SVGID_8_);" d="M39.4,56.9c1.8,1,4.6,1,6.4,0c1.8-1,1.8-2.7,0-3.7s-4.6-1-6.4,0S37.6,55.8,39.4,56.9z"/>
		</g>
	</g>
	<g id="lights_42_">
		
			<path style="opacity:0.8;fill:none;stroke:#FAF8FB;stroke-width:5.783299e-02;stroke-miterlimit:10;enable-background:new    ;" d="
			M46.8,61.1l4.7,2.1c0.1,0.1,0.2,0.2,0.2,0.3v0.7c0,0.1-0.1,0.2-0.2,0.3c-0.6,0.3-3,1.4-5.6,1.7"/>
		
			<linearGradient id="SVGID_9_" gradientUnits="userSpaceOnUse" x1="-224.392" y1="35.2075" x2="-221.2324" y2="31.862" gradientTransform="matrix(1 0 0 -1 266.1266 100)">
			<stop  offset="6.297816e-03" style="stop-color:#7FBF7C"/>
			<stop  offset="1" style="stop-color:#E9F4F3"/>
		</linearGradient>
		<path style="fill:url(#SVGID_9_);" d="M42.4,66.2c0,0,0.8,0,1.8-0.1v0.6c0,0-0.9,0.1-1.8,0.1V66.2z"/>
		
			<linearGradient id="SVGID_10_" gradientUnits="userSpaceOnUse" x1="-220.7514" y1="33.7281" x2="-224.0346" y2="30.521" gradientTransform="matrix(1 0 0 -1 266.1266 100)">
			<stop  offset="5.376340e-03" style="stop-color:#EB6583"/>
			<stop  offset="0.1237" style="stop-color:#ED7588"/>
			<stop  offset="0.5242" style="stop-color:#F5A696"/>
			<stop  offset="0.829" style="stop-color:#F9C5A0"/>
			<stop  offset="1" style="stop-color:#FBD0A3"/>
		</linearGradient>
		<path style="fill:url(#SVGID_10_);" d="M44.6,66c0,0,1.1-0.1,1.8-0.3v0.6c0,0-0.9,0.2-1.8,0.3V66z"/>
		
			<path style="opacity:0.8;fill:none;stroke:#FAF8FB;stroke-width:6.094497e-02;stroke-miterlimit:10;enable-background:new    ;" d="
			M37.6,58.1l-2.2-1.3c-0.1,0-0.1-0.1-0.1-0.2V56c0-0.1,0.1-0.2,0.1-0.2l0.2-0.1"/>
		
			<path style="opacity:0.8;fill:none;stroke:#FAF8FB;stroke-width:5.298840e-02;stroke-miterlimit:10;enable-background:new    ;" d="
			M38.1,58.6v0.9c0,0.1-0.1,0.2-0.2,0.2l-6.7,2.7c-0.1,0-0.2,0.1-0.2,0.2v0.5"/>
		
			<linearGradient id="SVGID_11_" gradientUnits="userSpaceOnUse" x1="-236.8738" y1="37.5751" x2="-233.8072" y2="33.2307" gradientTransform="matrix(1 0 0 -1 266.1266 100)">
			<stop  offset="5.376340e-03" style="stop-color:#EB6583"/>
			<stop  offset="0.1237" style="stop-color:#ED7588"/>
			<stop  offset="0.5242" style="stop-color:#F5A696"/>
			<stop  offset="0.829" style="stop-color:#F9C5A0"/>
			<stop  offset="1" style="stop-color:#FBD0A3"/>
		</linearGradient>
		<path style="fill:url(#SVGID_11_);" d="M29.2,62.4c0,0,0.7,0.5,1.2,0.9V64c0,0-1-0.6-1.2-0.9V62.4z"/>
		
			<linearGradient id="SVGID_12_" gradientUnits="userSpaceOnUse" x1="-228.1302" y1="42.2225" x2="-221.9443" y2="33.2331" gradientTransform="matrix(1 0 0 -1 266.1266 100)">
			<stop  offset="6.297816e-03" style="stop-color:#8FC07D"/>
			<stop  offset="0.154" style="stop-color:#77AE73"/>
			<stop  offset="0.364" style="stop-color:#5B9A67"/>
			<stop  offset="0.5754" style="stop-color:#478B5F"/>
			<stop  offset="0.7872" style="stop-color:#3B825A"/>
			<stop  offset="1" style="stop-color:#377F58"/>
		</linearGradient>
		<polygon style="fill:url(#SVGID_12_);" points="41.5,60.7 35.9,57.5 35.9,56.9 41.5,60.1 		"/>
		
			<linearGradient id="SVGID_13_" gradientUnits="userSpaceOnUse" x1="-230.7793" y1="30.5498" x2="-227.3235" y2="26.8908" gradientTransform="matrix(1 0 0 -1 266.1266 100)">
			<stop  offset="6.297816e-03" style="stop-color:#7FBF7C"/>
			<stop  offset="1" style="stop-color:#E9F4F3"/>
		</linearGradient>
		<path style="fill:url(#SVGID_13_);" d="M36.2,70.8c0,0,0.7,0.2,1.6,0.3v0.5c0,0-0.9,0-1.6-0.3V70.8z"/>
		
			<linearGradient id="SVGID_14_" gradientUnits="userSpaceOnUse" x1="-228.7681" y1="30.2851" x2="-225.5168" y2="26.8426" gradientTransform="matrix(1 0 0 -1 266.1266 100)">
			<stop  offset="0" style="stop-color:#D6EBE6"/>
			<stop  offset="0.2443" style="stop-color:#DDC4C4"/>
			<stop  offset="0.5895" style="stop-color:#E59399"/>
			<stop  offset="0.8524" style="stop-color:#EA747E"/>
			<stop  offset="1" style="stop-color:#EC6974"/>
		</linearGradient>
		<path style="fill:url(#SVGID_14_);" d="M38.1,71.1c0,0,0.7,0.1,1.7,0.1v0.5c0,0-0.8,0-1.7-0.1V71.1z"/>
		
			<path style="opacity:0.8;fill:none;stroke:#FAF8FB;stroke-width:5.298840e-02;stroke-miterlimit:10;enable-background:new    ;" d="
			M39.7,71.4h1.5v-0.9c0-0.1,0-0.2-0.1-0.2l-3.5-3.1c-0.1-0.1-0.1-0.2-0.1-0.3v-0.4c0-0.1,0.1-0.2,0.2-0.2c0.7,0.1,2.9,0.4,4.7,0.2"
			/>
	</g>
</g>
</svg>
