<?xml version="1.0" encoding="utf-8"?>
<!-- Generator: Adobe Illustrator 23.0.1, SVG Export Plug-In . SVG Version: 6.00 Build 0)  -->
<svg version="1.1" id="Layer_1" xmlns="http://www.w3.org/2000/svg" xmlns:xlink="http://www.w3.org/1999/xlink" x="0px" y="0px"
	 viewBox="0 0 100 100" style="enable-background:new 0 0 100 100;" xml:space="preserve">
<linearGradient id="SVGID_1_" gradientUnits="userSpaceOnUse" x1="-31.6212" y1="64.8066" x2="-27.9344" y2="64.8066" gradientTransform="matrix(-1 0 0 -1 1.0318 100)">
	<stop  offset="0" style="stop-color:#E2E5F4"/>
	<stop  offset="0.2383" style="stop-color:#E4E0ED"/>
	<stop  offset="0.5769" style="stop-color:#EBD1DB"/>
	<stop  offset="0.9741" style="stop-color:#F5BABC"/>
	<stop  offset="1" style="stop-color:#F6B8BA"/>
</linearGradient>
<path style="fill:url(#SVGID_1_);" d="M29,34.9c0,0,1.1-1,1.3-0.8c0.3,0.3,1.4,0.7,2,0.1c0.6-0.6,0.6,2-1.1,2.1
	c-1.5,0.1-1.9-0.4-2.3-0.5v-0.9H29z"/>
<linearGradient id="SVGID_2_" gradientUnits="userSpaceOnUse" x1="-28.2798" y1="70.5" x2="-16.3553" y2="70.5" gradientTransform="matrix(-1 0 0 -1 1.0318 100)">
	<stop  offset="6.297816e-03" style="stop-color:#8FC07D"/>
	<stop  offset="1" style="stop-color:#377F58"/>
</linearGradient>
<path style="fill:url(#SVGID_2_);" d="M19.4,22.9c0,0-1.8,1-2,3.2c-0.2,1.7,0.7,8.4,1.8,8.8c2.3,0.9,9.9,1.2,9.9,1.2
	s0.4-0.8,0.1-1.7c0,0-7.7-1.1-8.4-1.7C20.2,32.1,21.7,24,19.4,22.9z"/>
</svg>
