<?xml version="1.0" encoding="utf-8"?>
<!-- Generator: Adobe Illustrator 23.0.1, SVG Export Plug-In . SVG Version: 6.00 Build 0)  -->
<svg version="1.1" id="Layer_1" xmlns="http://www.w3.org/2000/svg" xmlns:xlink="http://www.w3.org/1999/xlink" x="0px" y="0px"
	 viewBox="0 0 100 100" style="enable-background:new 0 0 100 100;" xml:space="preserve">
<g id="tapis_3_">
	
		<linearGradient id="SVGID_1_" gradientUnits="userSpaceOnUse" x1="386.2258" y1="26.4151" x2="397.629" y2="7.8315" gradientTransform="matrix(-0.9969 7.832512e-02 7.832512e-02 0.9969 412.1128 -27.7676)">
		<stop  offset="6.813359e-03" style="stop-color:#739965"/>
		<stop  offset="0.9989" style="stop-color:#286143"/>
	</linearGradient>
	<path style="opacity:0.2;fill:url(#SVGID_1_);" d="M13.2,17.7c-3.2,0-4.3,1.9-3.5,3.3c0.3,0.4,24.3,14.4,24.3,14.4l16,3.4
		L13.2,17.7z"/>
	
		<linearGradient id="bas-bas_2_" gradientUnits="userSpaceOnUse" x1="2532.5144" y1="28.0248" x2="2494.8965" y2="79.649" gradientTransform="matrix(-0.9996 -2.935683e-02 -2.935683e-02 0.9996 2551.052 58.7144)">
		<stop  offset="6.297816e-03" style="stop-color:#8FC07D"/>
		<stop  offset="1" style="stop-color:#377F58"/>
	</linearGradient>
	<path id="bas-bas_1_" style="fill:url(#bas-bas_2_);" d="M9.9,19.9l38.3,24l0.4,0l3.7-2.9l0.1-0.1c0,0-0.1,0-0.3-0.1L15.5,17
		c-0.2,0.3-5.9,1.7-5.9,2C9.6,19,9.5,19.6,9.9,19.9z"/>
	<g id="bande-top_2_">
		
			<linearGradient id="SVGID_2_" gradientUnits="userSpaceOnUse" x1="2458.0806" y1="1086.8463" x2="2455.5684" y2="1088.5602" gradientTransform="matrix(-0.851 -0.5252 -3.389820e-02 1.1542 2180.031 75.8604)">
			<stop  offset="5.376340e-03" style="stop-color:#23398D"/>
			<stop  offset="0.3102" style="stop-color:#456FA8"/>
			<stop  offset="0.6252" style="stop-color:#64A0C0"/>
			<stop  offset="0.8653" style="stop-color:#78BFCF"/>
			<stop  offset="1" style="stop-color:#7FCAD5"/>
		</linearGradient>
		<path style="fill:url(#SVGID_2_);" d="M51.6,40.1c0,0.3,0.2,0.7,0.5,0.9c0.3,0.2,0.5,0,0.5-0.3s-0.2-0.7-0.5-0.9
			S51.6,39.8,51.6,40.1z"/>
		<g>
			<path style="fill:none;stroke:#221E20;stroke-width:0.5668;stroke-linecap:round;stroke-miterlimit:10;" d="M48,43.5"/>
			
				<linearGradient id="SVGID_3_" gradientUnits="userSpaceOnUse" x1="-648.4596" y1="43.958" x2="-647.9426" y2="43.0625" gradientTransform="matrix(0.9996 2.935683e-02 -2.935683e-02 0.9996 682.6186 3.8399)">
				<stop  offset="6.297816e-03" style="stop-color:#7FBF7C"/>
				<stop  offset="1" style="stop-color:#E9F4F3"/>
			</linearGradient>
			<path style="fill:url(#SVGID_3_);" d="M14.3,16.1l38,23.6c0,0,0.7,0.7,0.2,1.3c0,0,0.4-0.6-0.5-1.3L14,16.2
				C14.1,16.1,14.3,16.1,14.3,16.1z"/>
			
				<linearGradient id="SVGID_4_" gradientUnits="userSpaceOnUse" x1="-235.0256" y1="47.4318" x2="-232.3585" y2="42.8123" gradientTransform="matrix(0.9996 2.935683e-02 -2.935683e-02 0.9996 265.969 -8.3968)">
				<stop  offset="5.782268e-03" style="stop-color:#B0CB7C"/>
				<stop  offset="0.1948" style="stop-color:#AAC67C"/>
				<stop  offset="0.4544" style="stop-color:#98B87B"/>
				<stop  offset="0.7534" style="stop-color:#7BA27B"/>
				<stop  offset="1" style="stop-color:#5E8B7A"/>
			</linearGradient>
			<path style="fill:url(#SVGID_4_);" d="M14,16.2l37.9,23.4c0,0,0.7,0.4,0.6,1.1c0,0.1-0.1,0.2-0.2,0.3l-3.6,2.9
				c0,0,0.5-0.8-0.6-1.4c0,0-37.9-23.8-38.2-24c1-0.6,3.5-1.9,3.7-2.1L14,16.2z"/>
			
				<linearGradient id="SVGID_5_" gradientUnits="userSpaceOnUse" x1="-652.6356" y1="47.1674" x2="-651.8778" y2="45.8549" gradientTransform="matrix(0.9996 2.935683e-02 -2.935683e-02 0.9996 682.6186 3.8399)">
				<stop  offset="6.297816e-03" style="stop-color:#7FBF7C"/>
				<stop  offset="1" style="stop-color:#E9F4F3"/>
			</linearGradient>
			<path style="fill:url(#SVGID_5_);" d="M10,19.9c-0.2-0.3-0.3-0.7-0.3-0.9c0.1-0.4,0.6-0.2,0.6-0.2l38,24c0.8,0.7,0.3,1.1,0.2,1.2
				c0.1,0,0.4-0.1,0.4-0.1c0.3-0.7-0.5-1.2-0.5-1.2L10.2,18.6c0,0-0.2-0.1-0.4-0.1C9.3,18.5,9.5,19.7,10,19.9z"/>
		</g>
	</g>
	<g id="roulement_1_">
		
			<linearGradient id="SVGID_6_" gradientUnits="userSpaceOnUse" x1="2524.3193" y1="1115.4832" x2="2521.689" y2="1117.2775" gradientTransform="matrix(-0.809 -0.5878 -0.1208 1.1484 2186.0193 220.5201)">
			<stop  offset="5.782268e-03" style="stop-color:#B0CB7C"/>
			<stop  offset="0.1948" style="stop-color:#AAC67C"/>
			<stop  offset="0.4544" style="stop-color:#98B87B"/>
			<stop  offset="0.7534" style="stop-color:#7BA27B"/>
			<stop  offset="1" style="stop-color:#5E8B7A"/>
		</linearGradient>
		<path style="fill:url(#SVGID_6_);" d="M9.6,19c0,0.3,0.2,0.7,0.4,0.9c0.3,0.2,0.5,0.1,0.5-0.2s-0.2-0.7-0.4-0.9S9.7,18.7,9.6,19z"
			/>
		
			<linearGradient id="SVGID_7_" gradientUnits="userSpaceOnUse" x1="2267.6558" y1="1004.8332" x2="2265.9009" y2="1006.0303" gradientTransform="matrix(-0.809 -0.5878 -0.1208 1.1484 1965.3225 197.3087)">
			<stop  offset="6.297816e-03" style="stop-color:#7FBF7C"/>
			<stop  offset="1" style="stop-color:#E9F4F3"/>
		</linearGradient>
		<path style="fill:url(#SVGID_7_);" d="M9.8,19.1c0,0.2,0.1,0.5,0.3,0.6c0.2,0.1,0.3,0.1,0.4-0.2c0-0.2-0.1-0.5-0.3-0.6
			C10,18.8,9.8,18.9,9.8,19.1z"/>
	</g>
</g>
</svg>
