<?xml version="1.0" encoding="utf-8"?>
<!-- Generator: Adobe Illustrator 23.0.1, SVG Export Plug-In . SVG Version: 6.00 Build 0)  -->
<svg version="1.1" id="Layer_1" xmlns="http://www.w3.org/2000/svg" xmlns:xlink="http://www.w3.org/1999/xlink" x="0px" y="0px"
	 viewBox="0 0 100 100" style="enable-background:new 0 0 100 100;" xml:space="preserve">
<linearGradient id="legs_1_" gradientUnits="userSpaceOnUse" x1="299.2258" y1="19.6228" x2="284.5983" y2="21.4242" gradientTransform="matrix(-1 0 0 -1 299.9656 100)">
	<stop  offset="5.227065e-03" style="stop-color:#AED2BC"/>
	<stop  offset="1" style="stop-color:#6EB768"/>
</linearGradient>
<path id="legs_2_" style="fill:url(#legs_1_);" d="M6.7,74.8c0,0,1.1,3.4,1.2,4.4c0.1,0.9,0,5.4,0,5.4s0.4,0.2,1,0s0.3,0.5-0.3,0.6
	C7.9,85.3,7,85.6,7,85.4c0-0.2,0-1.2,0-1.4c0.1-0.2-0.8-4.2-0.8-4.2l-1.7-3.3l-0.6,7.7c0,0,1.6-0.3,1.5,0c0,0.3-1.6,0.9-2,0.8
	s-0.6-4.4-0.6-5.4s-0.5-5.3-0.5-5.3L6.7,74.8z"/>
</svg>
