<?xml version="1.0" encoding="utf-8"?>
<!-- Generator: Adobe Illustrator 23.0.1, SVG Export Plug-In . SVG Version: 6.00 Build 0)  -->
<svg version="1.1" id="Layer_1" xmlns="http://www.w3.org/2000/svg" xmlns:xlink="http://www.w3.org/1999/xlink" x="0px" y="0px"
	 viewBox="0 0 100 100" style="enable-background:new 0 0 100 100;" xml:space="preserve">
<g id="trolley_1_">
	<g>
		
			<linearGradient id="SVGID_1_" gradientUnits="userSpaceOnUse" x1="-237.7347" y1="51.65" x2="-226.8049" y2="51.65" gradientTransform="matrix(1 0 0 -1 309.3953 100)">
			<stop  offset="6.813359e-03" style="stop-color:#739965"/>
			<stop  offset="0.9989" style="stop-color:#286143"/>
		</linearGradient>
		<path style="fill:url(#SVGID_1_);" d="M79.4,51.6L79.4,51.6l-7.7-4.4c-0.1,0-0.1-0.1-0.1-0.2c0-0.1,0-0.1,0.1-0.2l3.1-1.7
			c0.1,0,0.1,0,0.2,0l7.4,4.4c0.1,0,0.1,0.1,0.1,0.2c0,0.1,0,0.1-0.1,0.2L79.4,51.6C79.5,51.6,79.5,51.6,79.4,51.6z M72.3,47
			l7.2,4.1l2.5-1.5l-7-4.1L72.3,47z"/>
	</g>
	
		<linearGradient id="SVGID_2_" gradientUnits="userSpaceOnUse" x1="-232.0764" y1="69.2867" x2="-228.2658" y2="69.2867" gradientTransform="matrix(0.9994 3.593653e-02 3.593653e-02 -0.9994 304.6465 113.8601)">
		<stop  offset="5.117199e-03" style="stop-color:#F7C6D3"/>
		<stop  offset="1" style="stop-color:#F3A8B2"/>
	</linearGradient>
	<path style="fill:url(#SVGID_2_);" d="M78.7,36.4C78.7,36.4,78.6,36.4,78.7,36.4C78.6,36.4,78.7,36.4,78.7,36.4L78.7,36.4z"/>
	<g>
		
			<linearGradient id="SVGID_3_" gradientUnits="userSpaceOnUse" x1="-234.8687" y1="52.5545" x2="-226.5966" y2="52.5545" gradientTransform="matrix(1 0 0 -1 309.3953 100)">
			<stop  offset="6.813359e-03" style="stop-color:#739965"/>
			<stop  offset="0.9989" style="stop-color:#286143"/>
		</linearGradient>
		<path style="fill:url(#SVGID_3_);" d="M82.4,50.1c-0.1,0-0.1,0-0.2-0.1l-7.4-4.4c-0.2-0.1-0.3-0.4-0.1-0.6
			c0.1-0.2,0.4-0.3,0.6-0.1l7.4,4.4c0.2,0.1,0.3,0.4,0.1,0.6C82.7,50,82.5,50.1,82.4,50.1z"/>
	</g>
	<path style="fill:none;stroke:#E42320;stroke-width:0.3969;stroke-linejoin:round;stroke-miterlimit:10;" d="M73.4,47.9"/>
	
		<linearGradient id="SVGID_4_" gradientUnits="userSpaceOnUse" x1="-235.3233" y1="39.5842" x2="-241.2875" y2="29.254" gradientTransform="matrix(1 0 0 -1 309.3953 100)">
		<stop  offset="0" style="stop-color:#6485C3;stop-opacity:0"/>
		<stop  offset="0.2111" style="stop-color:#6A8BC6;stop-opacity:0.1266"/>
		<stop  offset="0.4949" style="stop-color:#7A9CCF;stop-opacity:0.297"/>
		<stop  offset="0.8189" style="stop-color:#95B8DE;stop-opacity:0.4913"/>
		<stop  offset="1" style="stop-color:#A7CBE8;stop-opacity:0.6"/>
	</linearGradient>
	<polygon style="opacity:0.24;fill:url(#SVGID_4_);enable-background:new    ;" points="61.2,66.8 69.1,71.3 80.9,64.5 71.3,58.8 	
		"/>
	<g>
		<g style="enable-background:new    ;">
			<g>
				<polygon style="fill:#9C9C9C;" points="70.5,66.7 71.3,66.2 71.3,67.6 70.5,68 				"/>
			</g>
			<g>
				
					<linearGradient id="SVGID_5_" gradientUnits="userSpaceOnUse" x1="-238.7818" y1="32" x2="-236.9916" y2="32" gradientTransform="matrix(1 0 0 -1 309.3953 100)">
					<stop  offset="5.618000e-03" style="stop-color:#000000"/>
					<stop  offset="1" style="stop-color:#4E4D4D"/>
				</linearGradient>
				<path style="fill:url(#SVGID_5_);" d="M71.5,67c0.5-0.3,0.9-0.1,0.9,0.5S72,68.8,71.5,69c-0.5,0.3-0.9,0.1-0.9-0.5
					S71,67.3,71.5,67z"/>
			</g>
			<g>
				
					<linearGradient id="SVGID_6_" gradientUnits="userSpaceOnUse" x1="-238.3367" y1="31.95" x2="-237.4367" y2="31.95" gradientTransform="matrix(1 0 0 -1 309.3953 100)">
					<stop  offset="5.618000e-03" style="stop-color:#FAFCFF"/>
					<stop  offset="1.126736e-02" style="stop-color:#F9FBFF"/>
					<stop  offset="0.1679" style="stop-color:#EEF0F9"/>
					<stop  offset="0.3881" style="stop-color:#E7EAF6"/>
					<stop  offset="1" style="stop-color:#E5E8F5"/>
				</linearGradient>
				<path style="fill:url(#SVGID_6_);" d="M71.5,67.5c0.2-0.1,0.5,0,0.5,0.3s-0.2,0.6-0.4,0.8c-0.2,0.1-0.5,0-0.5-0.3
					S71.3,67.6,71.5,67.5z"/>
			</g>
			
				<linearGradient id="SVGID_7_" gradientUnits="userSpaceOnUse" x1="-239.2752" y1="32.15" x2="-237.2527" y2="32.15" gradientTransform="matrix(1 0 0 -1 309.3953 100)">
				<stop  offset="5.618000e-03" style="stop-color:#000000"/>
				<stop  offset="1" style="stop-color:#4E4D4D"/>
			</linearGradient>
			<path style="fill:url(#SVGID_7_);" d="M70.6,68.4L70.6,68.4C70.6,68.3,70.6,68.3,70.6,68.4L70.6,68.4L70.6,68.4
				c0-0.1,0-0.1,0-0.2l0,0c0,0,0,0,0-0.1l0,0V68l0,0v-0.1l0,0v-0.1l0,0c0,0,0-0.1,0.1-0.1l0,0c0,0,0,0,0-0.1l0,0c0,0,0,0,0-0.1l0,0
				l0,0c0,0,0,0,0.1-0.1l0,0l0,0c0,0,0,0,0.1,0l0,0c0,0,0,0,0.1,0l0,0c0,0,0.1,0,0.1-0.1h0.1l0,0h0.1l0,0c0,0,0,0,0.1,0l0,0l0,0l0,0
				c0,0,0,0,0.1,0l0,0c0,0,0,0,0.1,0l0,0l0,0l0,0c0,0,0,0,0.1,0L71.2,67l0,0l0,0l0,0l0,0l0,0l0,0l0,0l0,0c0,0,0,0-0.1,0l0,0l0,0l0,0
				l0,0l0,0l0,0l0,0l0,0l0,0l0,0l0,0c0,0,0,0-0.1,0l0,0l0,0h-0.1c0,0-0.1,0-0.1,0.1l0,0c0,0,0,0-0.1,0l0,0c0,0,0,0-0.1,0l0,0l0,0
				l0,0c0,0,0,0-0.1,0.1l0,0l0,0l0,0l0,0l0,0l0,0l0,0l0,0l0,0l0,0v0.1l0,0l0,0c0,0,0,0,0,0.1l0,0l0,0l0,0c0,0,0,0,0,0.1l0,0l0,0v0.1
				l0,0l0,0l0,0l0,0l0,0l0,0l0,0l0,0l0,0l0,0c0,0,0,0,0,0.1l0,0l0,0l0,0v0.1c0,0.3,0.1,0.5,0.3,0.6l0.5,0.3
				c-0.2-0.1-0.3-0.3-0.3-0.6C70.6,68.5,70.6,68.5,70.6,68.4L70.6,68.4z"/>
			
				<linearGradient id="SVGID_8_" gradientUnits="userSpaceOnUse" x1="-239.0358" y1="32.3" x2="-238.1335" y2="32.3" gradientTransform="matrix(1 0 0 -1 309.3953 100)">
				<stop  offset="6.297816e-03" style="stop-color:#8FC07D"/>
				<stop  offset="1" style="stop-color:#377F58"/>
			</linearGradient>
			<path style="fill:url(#SVGID_8_);" d="M71.2,67l-0.8-0.4h-0.1v0.9l0,0l0,0l0,0v-0.1l0,0l0,0l0,0l0,0v-0.5l0.7,0.4v1.4l0.1,0.1
				v-1.4C71.3,67,71.2,67,71.2,67z"/>
			
				<linearGradient id="SVGID_9_" gradientUnits="userSpaceOnUse" x1="-239.0152" y1="32.85" x2="-237.3111" y2="32.85" gradientTransform="matrix(1 0 0 -1 309.3953 100)">
				<stop  offset="6.297816e-03" style="stop-color:#8FC07D"/>
				<stop  offset="1" style="stop-color:#377F58"/>
			</linearGradient>
			<path style="fill:url(#SVGID_9_);" d="M72.1,66.6L72.1,66.6L72.1,66.6L72.1,66.6L72.1,66.6L72.1,66.6L72.1,66.6L72.1,66.6
				L72.1,66.6L72.1,66.6L72.1,66.6C72.1,66.5,72.1,66.5,72.1,66.6C72.1,66.5,72.1,66.5,72.1,66.6C72.1,66.5,72.1,66.5,72.1,66.6
				C72.1,66.5,72.1,66.5,72.1,66.6C72.1,66.5,72.1,66.5,72.1,66.6C72.1,66.5,72.1,66.5,72.1,66.6C72.1,66.5,72.1,66.5,72.1,66.6
				C72.1,66.5,72.1,66.5,72.1,66.6C72.1,66.5,72.1,66.5,72.1,66.6C72.1,66.5,72.1,66.5,72.1,66.6C72.1,66.5,72.1,66.5,72.1,66.6
				C72.1,66.5,72.1,66.5,72.1,66.6C72.1,66.5,72.1,66.5,72.1,66.6C72.1,66.5,72.1,66.5,72.1,66.6C72.1,66.5,72.1,66.5,72.1,66.6
				C72.1,66.5,72.1,66.5,72.1,66.6C72.1,66.5,72.1,66.5,72.1,66.6C72,66.5,72,66.5,72.1,66.6C72,66.5,72,66.5,72.1,66.6L72.1,66.6
				C72,66.5,72,66.5,72.1,66.6C72,66.5,72,66.5,72.1,66.6C72,66.5,72,66.5,72.1,66.6C72,66.5,72,66.5,72.1,66.6
				C72,66.5,72,66.5,72.1,66.6C72,66.5,72,66.5,72.1,66.6C72,66.5,72,66.5,72.1,66.6L72.1,66.6L72.1,66.6L72.1,66.6L71.2,66l0,0l0,0
				l0,0l0,0l0,0l0,0l0,0l0,0l0,0l0,0l0,0l0,0l0,0l0,0l0,0l0,0l0,0l0,0l0,0l0,0l0,0l-0.8,0.5l0,0l0,0l0,0l0,0l0,0l0,0l0,0l0.8,0.4
				l0,0l0,0l0,0l0,0l0,0l0,0l0,0v1.4l0.8-0.5L72.1,66.6L72.1,66.6z"/>
		</g>
	</g>
	<g>
		<g style="enable-background:new    ;">
			<g>
				<polygon style="fill:#9C9C9C;" points="75,64.1 75.9,63.6 75.9,65 75,65.5 				"/>
			</g>
			<g>
				<g>
					
						<linearGradient id="SVGID_10_" gradientUnits="userSpaceOnUse" x1="-234.2242" y1="34.6" x2="-232.434" y2="34.6" gradientTransform="matrix(1 0 0 -1 309.3953 100)">
						<stop  offset="5.618000e-03" style="stop-color:#000000"/>
						<stop  offset="1" style="stop-color:#4E4D4D"/>
					</linearGradient>
					<path style="fill:url(#SVGID_10_);" d="M76.1,64.4c0.5-0.3,0.9-0.1,0.9,0.5s-0.4,1.3-0.9,1.5c-0.5,0.3-0.9,0.1-0.9-0.5
						S75.6,64.7,76.1,64.4z"/>
				</g>
				<g>
					
						<linearGradient id="SVGID_11_" gradientUnits="userSpaceOnUse" x1="-233.7791" y1="34.55" x2="-232.8792" y2="34.55" gradientTransform="matrix(1 0 0 -1 309.3953 100)">
						<stop  offset="5.618000e-03" style="stop-color:#FAFCFF"/>
						<stop  offset="1.126736e-02" style="stop-color:#F9FBFF"/>
						<stop  offset="0.1679" style="stop-color:#EEF0F9"/>
						<stop  offset="0.3881" style="stop-color:#E7EAF6"/>
						<stop  offset="1" style="stop-color:#E5E8F5"/>
					</linearGradient>
					<path style="fill:url(#SVGID_11_);" d="M76.1,64.9c0.2-0.1,0.5,0,0.5,0.3s-0.2,0.6-0.4,0.8c-0.2,0.1-0.5,0-0.5-0.3
						C75.6,65.4,75.8,65.1,76.1,64.9z"/>
				</g>
				
					<linearGradient id="SVGID_12_" gradientUnits="userSpaceOnUse" x1="-234.7176" y1="34.75" x2="-232.6951" y2="34.75" gradientTransform="matrix(1 0 0 -1 309.3953 100)">
					<stop  offset="5.618000e-03" style="stop-color:#000000"/>
					<stop  offset="1" style="stop-color:#4E4D4D"/>
				</linearGradient>
				<path style="fill:url(#SVGID_12_);" d="M75.2,65.8L75.2,65.8C75.2,65.7,75.2,65.7,75.2,65.8L75.2,65.8L75.2,65.8
					c0-0.1,0-0.1,0-0.2l0,0c0,0,0,0,0-0.1l0,0v-0.1l0,0v-0.1l0,0v-0.1l0,0c0,0,0-0.1,0.1-0.1l0,0c0,0,0,0,0-0.1l0,0c0,0,0,0,0-0.1
					l0,0l0,0c0,0,0,0,0.1-0.1l0,0l0,0c0,0,0,0,0.1,0l0,0c0,0,0,0,0.1,0l0,0c0,0,0.1,0,0.1-0.1h0.1l0,0h0.1l0,0c0,0,0,0,0.1,0l0,0
					l0,0l0,0c0,0,0,0,0.1,0l0,0c0,0,0,0,0.1,0l0,0l0,0l0,0c0,0,0,0,0.1,0l-0.5-0.3l0,0l0,0l0,0l0,0l0,0l0,0l0,0l0,0c0,0,0,0-0.1,0
					l0,0l0,0l0,0l0,0l0,0l0,0l0,0l0,0l0,0l0,0l0,0c0,0,0,0-0.1,0l0,0l0,0h-0.1c0,0-0.1,0-0.1,0.1l0,0c0,0,0,0-0.1,0l0,0
					c0,0,0,0-0.1,0l0,0l0,0l0,0c0,0,0,0-0.1,0.1l0,0l0,0l0,0l0,0l0,0l0,0l0,0l0,0l0,0l0,0v0.1l0,0l0,0c0,0,0,0,0,0.1l0,0l0,0l0,0
					c0,0,0,0,0,0.1l0,0l0,0V65l0,0l0,0l0,0l0,0l0,0l0,0l0,0l0,0l0,0l0,0c0,0,0,0,0,0.1l0,0l0,0l0,0v0.1c0,0.3,0.1,0.5,0.3,0.6
					l0.5,0.3c-0.2-0.1-0.3-0.3-0.3-0.6C75.2,65.9,75.2,65.9,75.2,65.8C75.2,65.9,75.2,65.8,75.2,65.8z"/>
			</g>
			
				<linearGradient id="SVGID_13_" gradientUnits="userSpaceOnUse" x1="-234.4783" y1="35" x2="-233.5759" y2="35" gradientTransform="matrix(1 0 0 -1 309.3953 100)">
				<stop  offset="6.297816e-03" style="stop-color:#8FC07D"/>
				<stop  offset="1" style="stop-color:#377F58"/>
			</linearGradient>
			<path style="fill:url(#SVGID_13_);" d="M75.8,64.4L75,63.9h-0.1v0.9l0,0l0,0l0,0v-0.1l0,0l0,0l0,0l0,0v-0.5l0.7,0.4V66l0.1,0.1
				v-1.4C75.8,64.4,75.8,64.4,75.8,64.4z"/>
			
				<linearGradient id="SVGID_14_" gradientUnits="userSpaceOnUse" x1="-234.4576" y1="35.35" x2="-232.7535" y2="35.35" gradientTransform="matrix(1 0 0 -1 309.3953 100)">
				<stop  offset="6.297816e-03" style="stop-color:#8FC07D"/>
				<stop  offset="1" style="stop-color:#377F58"/>
			</linearGradient>
			<path style="fill:url(#SVGID_14_);" d="M76.6,64L76.6,64L76.6,64L76.6,64L76.6,64L76.6,64L76.6,64L76.6,64L76.6,64L76.6,64
				L76.6,64L76.6,64L76.6,64L76.6,64L76.6,64L76.6,64L76.6,64L76.6,64L76.6,64L76.6,64L76.6,64C76.6,63.9,76.6,63.9,76.6,64
				C76.6,63.9,76.6,63.9,76.6,64C76.6,63.9,76.6,63.9,76.6,64C76.6,63.9,76.6,63.9,76.6,64C76.6,63.9,76.6,63.9,76.6,64
				C76.6,63.9,76.6,63.9,76.6,64C76.6,63.9,76.6,63.9,76.6,64C76.6,63.9,76.6,63.9,76.6,64C76.6,63.9,76.6,63.9,76.6,64L76.6,64
				C76.6,63.9,76.6,63.9,76.6,64C76.6,63.9,76.6,63.9,76.6,64C76.6,63.9,76.6,63.9,76.6,64C76.6,63.9,76.6,63.9,76.6,64
				C76.6,63.9,76.6,63.9,76.6,64C76.6,63.9,76.6,63.9,76.6,64C76.5,63.9,76.5,63.9,76.6,64L76.6,64L76.6,64L76.6,64l-0.9-0.5l0,0
				l0,0l0,0l0,0l0,0l0,0l0,0l0,0l0,0l0,0l0,0l0,0l0,0l0,0l0,0l0,0l0,0l0,0l0,0l0,0l0,0L74.9,64l0,0l0,0l0,0l0,0l0,0l0,0l0,0l0.8,0.4
				l0,0l0,0l0,0l0,0l0,0l0,0l0,0v1.4l0.8-0.5L76.6,64L76.6,64z"/>
		</g>
	</g>
	<g>
		<g style="enable-background:new    ;">
			<g>
				<polygon style="fill:#9C9C9C;" points="64.4,63.2 65.2,62.7 65.2,64 64.4,64.5 				"/>
			</g>
			<g>
				
					<linearGradient id="SVGID_15_" gradientUnits="userSpaceOnUse" x1="-244.8481" y1="35.5" x2="-243.0579" y2="35.5" gradientTransform="matrix(1 0 0 -1 309.3953 100)">
					<stop  offset="5.618000e-03" style="stop-color:#000000"/>
					<stop  offset="1" style="stop-color:#4E4D4D"/>
				</linearGradient>
				<path style="fill:url(#SVGID_15_);" d="M65.4,63.5c0.5-0.3,0.9-0.1,0.9,0.5s-0.4,1.3-0.9,1.5c-0.5,0.3-0.9,0.1-0.9-0.5
					S64.9,63.8,65.4,63.5z"/>
			</g>
			<g>
				
					<linearGradient id="SVGID_16_" gradientUnits="userSpaceOnUse" x1="-244.403" y1="35.45" x2="-243.503" y2="35.45" gradientTransform="matrix(1 0 0 -1 309.3953 100)">
					<stop  offset="5.618000e-03" style="stop-color:#FAFCFF"/>
					<stop  offset="1.126736e-02" style="stop-color:#F9FBFF"/>
					<stop  offset="0.1679" style="stop-color:#EEF0F9"/>
					<stop  offset="0.3881" style="stop-color:#E7EAF6"/>
					<stop  offset="1" style="stop-color:#E5E8F5"/>
				</linearGradient>
				<path style="fill:url(#SVGID_16_);" d="M65.4,64c0.2-0.1,0.5,0,0.5,0.3s-0.2,0.6-0.4,0.8c-0.2,0.1-0.5,0-0.5-0.3
					S65.2,64.1,65.4,64z"/>
			</g>
			
				<linearGradient id="SVGID_17_" gradientUnits="userSpaceOnUse" x1="-245.3415" y1="35.65" x2="-243.319" y2="35.65" gradientTransform="matrix(1 0 0 -1 309.3953 100)">
				<stop  offset="5.618000e-03" style="stop-color:#000000"/>
				<stop  offset="1" style="stop-color:#4E4D4D"/>
			</linearGradient>
			<path style="fill:url(#SVGID_17_);" d="M64.6,64.9C64.6,64.9,64.6,64.8,64.6,64.9C64.6,64.8,64.6,64.8,64.6,64.9L64.6,64.9
				L64.6,64.9c0-0.1,0-0.1,0-0.2l0,0c0,0,0,0,0-0.1l0,0v-0.1l0,0v-0.1l0,0v-0.1l0,0c0,0,0-0.1,0.1-0.1l0,0c0,0,0,0,0-0.1l0,0
				c0,0,0,0,0-0.1l0,0l0,0c0,0,0,0,0.1-0.1l0,0l0,0c0,0,0,0,0.1,0l0,0c0,0,0,0,0.1,0l0,0c0,0,0.1,0,0.1-0.1h0.1l0,0h0.1l0,0
				c0,0,0,0,0.1,0l0,0l0,0l0,0c0,0,0,0,0.1,0l0,0c0,0,0,0,0.1,0l0,0l0,0l0,0c0,0,0,0,0.1,0l-0.5-0.3l0,0l0,0l0,0l0,0l0,0l0,0l0,0
				l0,0c0,0,0,0-0.1,0l0,0l0,0l0,0l0,0l0,0l0,0l0,0l0,0l0,0l0,0l0,0c0,0,0,0-0.1,0l0,0l0,0h-0.1c0,0-0.1,0-0.1,0.1l0,0
				c0,0,0,0-0.1,0l0,0c0,0,0,0-0.1,0l0,0l0,0l0,0c0,0,0,0-0.1,0.1l0,0l0,0l0,0l0,0l0,0l0,0l0,0l0,0l0,0l0,0v0.1l0,0l0,0
				c0,0,0,0,0,0.1l0,0l0,0l0,0c0,0,0,0,0,0.1l0,0l0,0v0.1l0,0l0,0l0,0l0,0l0,0l0,0l0,0l0,0l0,0l0,0c0,0,0,0,0,0.1l0,0l0,0l0,0v0.1
				c0,0.3,0.1,0.5,0.3,0.6l0.5,0.3c-0.2-0.1-0.3-0.3-0.3-0.6C64.5,65,64.5,64.9,64.6,64.9L64.6,64.9z"/>
			
				<linearGradient id="SVGID_18_" gradientUnits="userSpaceOnUse" x1="-245.1021" y1="35.9" x2="-244.1998" y2="35.9" gradientTransform="matrix(1 0 0 -1 309.3953 100)">
				<stop  offset="6.297816e-03" style="stop-color:#8FC07D"/>
				<stop  offset="1" style="stop-color:#377F58"/>
			</linearGradient>
			<path style="fill:url(#SVGID_18_);" d="M65.1,63.4L64.4,63h-0.1v0.9l0,0l0,0l0,0v-0.1l0,0l0,0l0,0l0,0v-0.5l0.7,0.4v1.4l0.1,0.1
				v-1.4C65.2,63.5,65.2,63.5,65.1,63.4z"/>
			
				<linearGradient id="SVGID_19_" gradientUnits="userSpaceOnUse" x1="-245.0815" y1="36.3" x2="-243.3774" y2="36.3" gradientTransform="matrix(1 0 0 -1 309.3953 100)">
				<stop  offset="6.297816e-03" style="stop-color:#8FC07D"/>
				<stop  offset="1" style="stop-color:#377F58"/>
			</linearGradient>
			<path style="fill:url(#SVGID_19_);" d="M66,63.1L66,63.1L66,63.1C66,63.1,66,63,66,63.1C66,63,66,63,66,63.1C66,63,66,63,66,63.1
				C66,63,66,63,66,63.1C66,63,66,63,66,63.1C66,63,66,63,66,63.1C66,63,66,63,66,63.1L66,63.1C66,63,66,63,66,63.1
				C66,63,66,63,66,63.1C66,63,66,63,66,63.1C66,63,66,63,66,63.1C66,63,66,63,66,63.1C66,63,66,63,66,63.1C66,63,66,63,66,63.1
				C66,63,66,63,66,63.1C66,63,66,63,66,63.1C66,63,66,63,66,63.1C66,63,66,63,66,63.1C66,63,66,63,66,63.1C66,63,66,63,66,63.1
				C66,63,66,63,66,63.1C66,63,66,63,66,63.1C66,63,66,63,66,63.1C66,63,66,63,66,63.1C66,63,66,63,66,63.1C66,63,66,63,66,63.1
				L66,63.1C66,63,66,63,66,63.1C66,63,66,63,66,63.1C66,63,66,63,66,63.1C66,63,66,63,66,63.1C66,63,66,63,66,63.1
				C66,63,66,63,66,63.1C66,63,66,63,66,63.1L66,63.1L66,63.1L66,63.1l-0.8-0.5l0,0l0,0l0,0l0,0l0,0l0,0l0,0l0,0l0,0l0,0l0,0l0,0
				l0,0l0,0l0,0l0,0l0,0l0,0l0,0l0,0l0,0L64.3,63l0,0l0,0l0,0l0,0l0,0l0,0l0,0l0.8,0.4l0,0l0,0l0,0l0,0l0,0l0,0l0,0v1.4l0.8-0.5
				L66,63.1L66,63.1z"/>
		</g>
	</g>
	<g>
		<g style="enable-background:new    ;">
			<g>
				<polygon style="fill:#9C9C9C;" points="69,60.6 69.8,60.1 69.8,61.5 69,61.9 				"/>
			</g>
			<g>
				
					<linearGradient id="SVGID_20_" gradientUnits="userSpaceOnUse" x1="-240.2905" y1="38.05" x2="-238.5003" y2="38.05" gradientTransform="matrix(1 0 0 -1 309.3953 100)">
					<stop  offset="5.618000e-03" style="stop-color:#000000"/>
					<stop  offset="1" style="stop-color:#4E4D4D"/>
				</linearGradient>
				<path style="fill:url(#SVGID_20_);" d="M70,60.9c0.5-0.3,0.9-0.1,0.9,0.5S70.5,62.7,70,63s-0.9,0.1-0.9-0.5S69.5,61.2,70,60.9z"
					/>
			</g>
			<g>
				
					<linearGradient id="SVGID_21_" gradientUnits="userSpaceOnUse" x1="-239.8454" y1="38.05" x2="-238.9454" y2="38.05" gradientTransform="matrix(1 0 0 -1 309.3953 100)">
					<stop  offset="5.618000e-03" style="stop-color:#FAFCFF"/>
					<stop  offset="1.126736e-02" style="stop-color:#F9FBFF"/>
					<stop  offset="0.1679" style="stop-color:#EEF0F9"/>
					<stop  offset="0.3881" style="stop-color:#E7EAF6"/>
					<stop  offset="1" style="stop-color:#E5E8F5"/>
				</linearGradient>
				<path style="fill:url(#SVGID_21_);" d="M70,61.4c0.2-0.1,0.5,0,0.5,0.3s-0.2,0.6-0.4,0.8c-0.2,0.1-0.5,0-0.5-0.3
					C69.5,61.9,69.7,61.6,70,61.4z"/>
			</g>
			
				<linearGradient id="SVGID_22_" gradientUnits="userSpaceOnUse" x1="-240.7839" y1="38.25" x2="-238.7614" y2="38.25" gradientTransform="matrix(1 0 0 -1 309.3953 100)">
				<stop  offset="5.618000e-03" style="stop-color:#000000"/>
				<stop  offset="1" style="stop-color:#4E4D4D"/>
			</linearGradient>
			<path style="fill:url(#SVGID_22_);" d="M69.1,62.3L69.1,62.3C69.1,62.2,69.1,62.2,69.1,62.3L69.1,62.3L69.1,62.3
				c0-0.1,0-0.1,0-0.2l0,0c0,0,0,0,0-0.1l0,0v-0.1l0,0v-0.1l0,0v-0.1l0,0c0,0,0-0.1,0.1-0.1l0,0c0,0,0,0,0-0.1l0,0c0,0,0,0,0-0.1
				l0,0l0,0c0,0,0,0,0.1-0.1l0,0l0,0c0,0,0,0,0.1,0l0,0c0,0,0,0,0.1,0l0,0c0,0,0.1,0,0.1-0.1h0.1l0,0h0.1l0,0c0,0,0,0,0.1,0l0,0l0,0
				l0,0c0,0,0,0,0.1,0l0,0c0,0,0,0,0.1,0l0,0l0,0l0,0c0,0,0,0,0.1,0l-0.5-0.3l0,0l0,0l0,0l0,0l0,0l0,0l0,0l0,0c0,0,0,0-0.1,0l0,0
				l0,0l0,0l0,0l0,0l0,0l0,0l0,0l0,0l0,0l0,0c0,0,0,0-0.1,0l0,0l0,0h-0.1c0,0-0.1,0-0.1,0.1l0,0c0,0,0,0-0.1,0l0,0c0,0,0,0-0.1,0
				l0,0l0,0l0,0c0,0,0,0-0.1,0.1l0,0l0,0l0,0l0,0l0,0l0,0l0,0l0,0l0,0l0,0v0.1l0,0l0,0c0,0,0,0,0,0.1l0,0l0,0l0,0c0,0,0,0,0,0.1l0,0
				l0,0v0.1l0,0l0,0l0,0l0,0l0,0l0,0l0,0l0,0l0,0l0,0c0,0,0,0,0,0.1l0,0l0,0l0,0v0.1c0,0.3,0.1,0.5,0.3,0.6l0.5,0.3
				c-0.2-0.1-0.3-0.3-0.3-0.6C69.1,62.4,69.1,62.4,69.1,62.3L69.1,62.3z"/>
			
				<linearGradient id="SVGID_23_" gradientUnits="userSpaceOnUse" x1="-240.5446" y1="38.4" x2="-239.6422" y2="38.4" gradientTransform="matrix(1 0 0 -1 309.3953 100)">
				<stop  offset="6.297816e-03" style="stop-color:#8FC07D"/>
				<stop  offset="1" style="stop-color:#377F58"/>
			</linearGradient>
			<path style="fill:url(#SVGID_23_);" d="M69.7,60.9l-0.8-0.4h-0.1v0.9l0,0l0,0l0,0v-0.1l0,0l0,0l0,0l0,0v-0.5l0.7,0.4v1.4l0.1,0.1
				v-1.4C69.8,60.9,69.7,60.9,69.7,60.9z"/>
			
				<linearGradient id="SVGID_24_" gradientUnits="userSpaceOnUse" x1="-240.5239" y1="38.85" x2="-238.8198" y2="38.85" gradientTransform="matrix(1 0 0 -1 309.3953 100)">
				<stop  offset="6.297816e-03" style="stop-color:#8FC07D"/>
				<stop  offset="1" style="stop-color:#377F58"/>
			</linearGradient>
			<path style="fill:url(#SVGID_24_);" d="M70.6,60.5L70.6,60.5L70.6,60.5L70.6,60.5L70.6,60.5L70.6,60.5L70.6,60.5L70.6,60.5
				L70.6,60.5L70.6,60.5L70.6,60.5L70.6,60.5L70.6,60.5L70.6,60.5L70.6,60.5C70.6,60.4,70.6,60.4,70.6,60.5
				C70.6,60.4,70.6,60.4,70.6,60.5C70.6,60.4,70.6,60.4,70.6,60.5C70.6,60.4,70.6,60.4,70.6,60.5C70.6,60.4,70.6,60.4,70.6,60.5
				C70.6,60.4,70.6,60.4,70.6,60.5C70.6,60.4,70.6,60.4,70.6,60.5C70.6,60.4,70.6,60.4,70.6,60.5C70.6,60.4,70.6,60.4,70.6,60.5
				C70.6,60.4,70.5,60.4,70.6,60.5C70.5,60.4,70.5,60.4,70.6,60.5C70.5,60.4,70.5,60.4,70.6,60.5C70.5,60.4,70.5,60.4,70.6,60.5
				C70.5,60.4,70.5,60.4,70.6,60.5C70.5,60.4,70.5,60.4,70.6,60.5L70.6,60.5C70.5,60.4,70.5,60.4,70.6,60.5
				C70.5,60.4,70.5,60.4,70.6,60.5C70.5,60.4,70.5,60.4,70.6,60.5C70.5,60.4,70.5,60.4,70.6,60.5C70.5,60.4,70.5,60.4,70.6,60.5
				C70.5,60.4,70.5,60.4,70.6,60.5C70.5,60.4,70.5,60.4,70.6,60.5L70.6,60.5L70.6,60.5L70.6,60.5L69.7,60l0,0l0,0l0,0l0,0l0,0l0,0
				l0,0l0,0l0,0l0,0l0,0l0,0l0,0l0,0l0,0l0,0l0,0l0,0l0,0l0,0l0,0l-0.8,0.5l0,0l0,0l0,0l0,0l0,0l0,0l0,0l0.8,0.4l0,0l0,0l0,0l0,0
				l0,0l0,0l0,0v1.4l0.8-0.5L70.6,60.5L70.6,60.5z"/>
		</g>
	</g>
	
		<linearGradient id="SVGID_25_" gradientUnits="userSpaceOnUse" x1="-245.2295" y1="39.5" x2="-231.2691" y2="39.5" gradientTransform="matrix(1 0 0 -1 309.3953 100)">
		<stop  offset="6.813359e-03" style="stop-color:#739965"/>
		<stop  offset="0.9989" style="stop-color:#286143"/>
	</linearGradient>
	<path style="fill:url(#SVGID_25_);" d="M78,57.3l-6-3.5c-0.1,0-0.1,0-0.2,0s-0.1,0.1-0.1,0.1l-1.4,6l-6,3.4c-0.1,0-0.1,0.1-0.1,0.2
		c0,0.1,0,0.1,0.1,0.2l6.1,3.5h0.1h0.1l6-3.5l0.1-0.1l1.4-6C78.1,57.4,78.1,57.3,78,57.3z M70.4,60.2l5.6,3.2l-1.1,0.7l-5.6-3.2
		L70.4,60.2z M67.8,61.7l1.1-0.6l5.6,3.2l-1,0.7L67.8,61.7z M73,65.2l-1.1,0.6l-5.6-3.2l1.1-0.6L73,65.2z M70.4,66.7l-5.6-3.3
		l1.1-0.6l5.6,3.2L70.4,66.7z M76.3,63.1l-5.7-3.2l1.3-5.6l5.7,3.3L76.3,63.1z"/>
	
		<linearGradient id="SVGID_26_" gradientUnits="userSpaceOnUse" x1="-248.1648" y1="40.75" x2="-231.2648" y2="40.75" gradientTransform="matrix(1 0 0 -1 309.3953 100)">
		<stop  offset="0" style="stop-color:#FFFFFF"/>
		<stop  offset="1" style="stop-color:#DEE8F3"/>
	</linearGradient>
	<path style="fill:url(#SVGID_26_);" d="M78,57.3l-6-3.5c-0.1,0-0.2,0-0.2,0l-10.5,7.8c-0.1,0-0.1,0.1-0.1,0.2c0,0.1,0,0.1,0.1,0.2
		l4.5,2.7h0.1H66l12-6.9c0.1,0,0.1-0.1,0.1-0.2C78.1,57.4,78.1,57.3,78,57.3z M64.7,61.6l0.9-0.7l1.4,0.8l-1,0.7L64.7,61.6z
		 M65.6,62.6l-1.1,0.6l-1.1-0.6l1-0.7L65.6,62.6z M70.4,56.8l-0.9,0.7l-1.1-0.7l0.9-0.7L70.4,56.8z M69.7,55.9l1-0.7l1.1,0.7
		l-0.9,0.7L69.7,55.9z M67.3,59.7l0.9-0.7l1.8,1l-1.1,0.6L67.3,59.7z M68.5,60.9l-1,0.6L66,60.7l0.9-0.7L68.5,60.9z M68.6,58.7
		l1-0.7l1.9,1.2l-1.1,0.6L68.6,58.7z M69.9,57.7l0.9-0.7l2.2,1.3l-1.1,0.6L69.9,57.7z M69.2,57.8l-1,0.7L67,57.8l1-0.7L69.2,57.8z
		 M67.8,58.8l-0.9,0.7l-1.2-0.7l1-0.7L67.8,58.8z M66.5,59.8l-0.9,0.7l-1.2-0.7l0.9-0.7L66.5,59.8z M65.2,60.7l-0.9,0.7l-1.2-0.7
		L64,60L65.2,60.7z M67.5,62l1.1,0.6l-1.1,0.6l-1.1-0.6L67.5,62z M67.9,61.8l1.1-0.6l1.1,0.6L69,62.4L67.9,61.8z M69.3,60.9l1-0.6
		l1.1,0.6l-1,0.6L69.3,60.9z M70.8,60.1l1.1-0.6l1.1,0.7l-1.1,0.6L70.8,60.1z M72.3,59.2l1.1-0.6l1.1,0.7l-1.1,0.6L72.3,59.2z
		 M73.8,58.3l1.1-0.6l1.1,0.7L74.9,59L73.8,58.3z M73.4,58.1l-2.2-1.3l0.9-0.7l2.3,1.4L73.4,58.1z M72.5,55.8l0.9-0.7l2.5,1.5
		l-1.1,0.6L72.5,55.8z M71.9,54.2l1.1,0.7l-0.9,0.7L71,54.9L71.9,54.2z M62.8,61l1.2,0.7l-1,0.7l-1.2-0.7L62.8,61z M65.9,64.1
		l-1.1-0.6l1.1-0.6l1.1,0.6L65.9,64.1z M76.4,58.1l-1.1-0.7l1.1-0.6l1.1,0.7L76.4,58.1z"/>
	
		<linearGradient id="SVGID_27_" gradientUnits="userSpaceOnUse" x1="-238.7453" y1="53.1588" x2="-238.7453" y2="38.0793" gradientTransform="matrix(1 0 0 -1 309.3953 100)">
		<stop  offset="6.813359e-03" style="stop-color:#739965"/>
		<stop  offset="0.9989" style="stop-color:#286143"/>
	</linearGradient>
	<path style="fill:url(#SVGID_27_);" d="M79.6,51.2L72,46.9l0,0l0,0l0,0l0,0l0,0l0,0l0,0l0,0l0,0l0,0l0,0l0,0l-10.4,9.5
		c0,0-0.1,0.1-0.1,0.2v5.2c0,0.1,0,0.2,0.1,0.2h0.1h0.1l10.3-7.7l5.9,3.4h0.1h0.1c0.1,0,0.1-0.1,0.1-0.1l1.5-6.1
		C79.7,51.4,79.6,51.3,79.6,51.2z M73.2,52.8l-1.1-0.6v-0.1v-1.2l1.1,0.6V52.8z M73.2,51l-1.1-0.6v-0.1v-1.1l1.1,0.6V51z M73.2,48
		v1.3l-1.1-0.6v-1.3L73.2,48z M70.7,48.4l1-0.9v2.9l-1,0.7V48.4z M70.7,51.7l1-0.7v1.3l-1,0.7V51.7z M63.2,55.2l1-0.9v1.6l-1,0.8
		C63.2,56.7,63.2,55.2,63.2,55.2z M63.2,57.2l1-0.8v1.2l-1.1,0.8v-1.2H63.2z M62.8,60.5l-1.1,0.8v-1.2l1.1-0.8V60.5z M62.8,58.8
		l-1.1,0.8v-1.2l1.1-0.8V58.8z M62.8,57l-1.1,0.8v-1.2l1.1-1V57z M63.2,60.2V59l1.1-0.8v1.2L63.2,60.2z M65.7,58.3l-1.1,0.8v-1.2
		l1.1-0.8V58.3z M65.7,56.6l-1.1,0.8v-1.2l1.1-0.8V56.6z M65.7,54.8l-1.1,0.8v-1.7l1.1-1V54.8z M67.2,57.1L66.1,58v-1.2l1.1-0.8
		V57.1z M67.2,55.5l-1.1,0.8V55l1.1-0.8V55.5z M67.2,53.7l-1.1,0.8v-2l1.1-1V53.7z M68.8,56l-1.1,0.8v-1.2l1.1-0.8V56z M68.8,54.3
		l-1.1,0.8v-1.3l1.1-0.8V54.3z M68.8,52.5l-1.1,0.8v-2.2l1.1-1V52.5z M70.2,54.9l-1.1,0.8v-1.2l1.1-0.8V54.9z M70.2,53.2l-1,0.8
		v-1.3l1.1-0.8L70.2,53.2L70.2,53.2z M70.2,51.5l-1.1,0.8v-2.5l1.1-1V51.5z M70.7,54.6v-1.2l1-0.8v1.2L70.7,54.6z M72.1,53.8v-1.2
		l1.1,0.6v1.2L72.1,53.8z M74.7,55.4l-1.1-0.6v-1.2l1.1,0.6V55.4z M74.7,53.6L73.6,53v-1.3l1.1,0.7V53.6z M74.7,51.9l-1.1-0.7V50
		l1.1,0.7V51.9z M74.7,50.2l-1.2-0.7v-1.3l1.2,0.7V50.2z M76.2,56.3l-1.1-0.6v-1.3l1.1,0.6V56.3z M76.2,54.5l-1.1-0.6v-1.3l1.1,0.6
		V54.5z M76.2,52.8l-1.1-0.6V51l1.1,0.6V52.8z M76.2,51.1l-1.1-0.6v-1.3l1.1,0.6V51.1z M77.8,57.2l-1.1-0.7v-1.3l1.4,0.8L77.8,57.2z
		 M78.2,55.6l-1.5-0.9v-1.2l1.8,1L78.2,55.6z M78.5,54.1L76.7,53v-1.2l2.2,1.2L78.5,54.1z M78.9,52.6l-2.3-1.3V50l2.6,1.5L78.9,52.6
		z"/>
	<g>
		
			<linearGradient id="SVGID_28_" gradientUnits="userSpaceOnUse" x1="-240.8226" y1="45.3" x2="-238.6941" y2="45.3" gradientTransform="matrix(1 0 0 -1 309.3953 100)">
			<stop  offset="5.227065e-03" style="stop-color:#AED2BC"/>
			<stop  offset="1" style="stop-color:#6EB768"/>
		</linearGradient>
		<polygon style="fill:url(#SVGID_28_);" points="69,50 70.7,58.9 69.8,59.4 68.6,50.8 		"/>
		<g>
			
				<linearGradient id="SVGID_29_" gradientUnits="userSpaceOnUse" x1="-244.3121" y1="48.7828" x2="-241.1448" y2="48.7828" gradientTransform="matrix(1 0 0 -1 309.3953 100)">
				<stop  offset="0" style="stop-color:#E95281"/>
				<stop  offset="1" style="stop-color:#BF3D62"/>
			</linearGradient>
			<path style="fill:url(#SVGID_29_);" d="M65.3,53.2c-0.1,0-0.1-0.1-0.2-0.1c0,0-0.5-3.1,1.8-3.8c0.3-0.1,0.6-0.1,0.8,0.1
				c0.1,0.1,0.6,0.6,0.4,2.1c0,0.1-0.1,0.2-0.2,0.1c-0.1,0-0.2-0.1-0.1-0.2c0-0.4,0.1-1.5-0.3-1.8c-0.1-0.1-0.3-0.1-0.5-0.1
				c-2,0.7-1.6,3.5-1.6,3.5C65.5,53.1,65.4,53.2,65.3,53.2L65.3,53.2z"/>
		</g>
		
			<linearGradient id="SVGID_30_" gradientUnits="userSpaceOnUse" x1="-245.5063" y1="48" x2="-238.6937" y2="48" gradientTransform="matrix(1 0 0 -1 309.3953 100)">
			<stop  offset="0" style="stop-color:#E95281"/>
			<stop  offset="1" style="stop-color:#BF3D62"/>
		</linearGradient>
		<polygon style="fill:url(#SVGID_30_);" points="63.9,53 69,50 68.6,50.8 70.7,51 65.6,54 65.2,53 		"/>
		
			<linearGradient id="SVGID_31_" gradientUnits="userSpaceOnUse" x1="-242.9465" y1="48.5021" x2="-242.0949" y2="47.027" gradientTransform="matrix(1 0 0 -1 309.3953 100)">
			<stop  offset="0" style="stop-color:#E95281"/>
			<stop  offset="1" style="stop-color:#BF3D62"/>
		</linearGradient>
		<polygon style="fill:url(#SVGID_31_);" points="68.6,50.8 68.8,52.1 65.6,54 65.2,53 63.9,53 69,50 		"/>
		
			<linearGradient id="SVGID_32_" gradientUnits="userSpaceOnUse" x1="-238.0186" y1="48.6093" x2="-243.9795" y2="38.2848" gradientTransform="matrix(1 0 0 -1 309.3953 100)">
			<stop  offset="0" style="stop-color:#E95281"/>
			<stop  offset="1" style="stop-color:#BF3D62"/>
		</linearGradient>
		<polygon style="fill:url(#SVGID_32_);" points="70.7,51 71.6,58.4 65.6,61.8 65.6,54 		"/>
		
			<linearGradient id="SVGID_33_" gradientUnits="userSpaceOnUse" x1="-239.9348" y1="47.5" x2="-239.5359" y2="47.5" gradientTransform="matrix(1 0 0 -1 309.3953 100)">
			<stop  offset="0" style="stop-color:#6485C3"/>
			<stop  offset="1" style="stop-color:#39509D"/>
		</linearGradient>
		<path style="fill:url(#SVGID_33_);" d="M69.8,52.4c0,0.1,0,0.2-0.1,0.3s-0.2,0-0.3-0.1c0-0.1,0-0.2,0.1-0.3S69.8,52.3,69.8,52.4z"
			/>
		<ellipse style="fill:#FFFFFF;" cx="66.9" cy="54.1" rx="0.2" ry="0.2"/>
		
			<linearGradient id="SVGID_34_" gradientUnits="userSpaceOnUse" x1="-243.2681" y1="46.4647" x2="-246.9936" y2="40.012" gradientTransform="matrix(1 0 0 -1 309.3953 100)">
			<stop  offset="0" style="stop-color:#E95281"/>
			<stop  offset="1" style="stop-color:#BF3D62"/>
		</linearGradient>
		<polygon style="fill:url(#SVGID_34_);" points="64.7,60.4 65.2,53 63.9,53 63,60.4 		"/>
		
			<linearGradient id="SVGID_35_" gradientUnits="userSpaceOnUse" x1="-242.14" y1="45.8134" x2="-245.8656" y2="39.3604" gradientTransform="matrix(1 0 0 -1 309.3953 100)">
			<stop  offset="0" style="stop-color:#E95281"/>
			<stop  offset="1" style="stop-color:#BF3D62"/>
		</linearGradient>
		<polygon style="fill:url(#SVGID_35_);" points="65.6,61.8 64.7,60.4 65.2,53 65.6,54 		"/>
		<g>
			
				<linearGradient id="SVGID_36_" gradientUnits="userSpaceOnUse" x1="-242.9218" y1="47.8707" x2="-239.5981" y2="47.8707" gradientTransform="matrix(1 0 0 -1 309.3953 100)">
				<stop  offset="0" style="stop-color:#E95281"/>
				<stop  offset="1" style="stop-color:#BF3D62"/>
			</linearGradient>
			<path style="fill:url(#SVGID_36_);" d="M66.9,54.3c-0.1,0-0.1,0-0.2-0.1c0-0.1-0.6-2,0.1-3.2c0.3-0.5,0.7-0.8,1.2-1
				c0.3-0.1,0.6,0,0.8,0.1c0.8,0.5,1,2.3,1,2.4c0,0.1-0.1,0.2-0.1,0.2c-0.1,0-0.2-0.1-0.2-0.1c0-0.5-0.3-1.8-0.8-2.2
				c-0.2-0.1-0.3-0.1-0.5-0.1c-0.5,0.1-0.8,0.4-1,0.8c-0.6,1.1-0.1,3-0.1,3C67,54.1,67,54.2,66.9,54.3L66.9,54.3z"/>
		</g>
	</g>
	<g>
		
			<linearGradient id="SVGID_37_" gradientUnits="userSpaceOnUse" x1="-236.9866" y1="45.15" x2="-234.8581" y2="45.15" gradientTransform="matrix(1 0 0 -1 309.3953 100)">
			<stop  offset="0" style="stop-color:#E95281"/>
			<stop  offset="1" style="stop-color:#BF3D62"/>
		</linearGradient>
		<polygon style="fill:url(#SVGID_37_);" points="72.8,50.2 74.5,59 73.7,59.5 72.4,50.9 		"/>
		<g>
			
				<linearGradient id="SVGID_38_" gradientUnits="userSpaceOnUse" x1="-240.4761" y1="48.6828" x2="-237.3088" y2="48.6828" gradientTransform="matrix(1 0 0 -1 309.3953 100)">
				<stop  offset="0" style="stop-color:#E95281"/>
				<stop  offset="1" style="stop-color:#BF3D62"/>
			</linearGradient>
			<path style="fill:url(#SVGID_38_);" d="M69.1,53.3c-0.1,0-0.1-0.1-0.2-0.1c0,0-0.5-3.1,1.8-3.8c0.3-0.1,0.6-0.1,0.8,0.1
				c0.1,0.1,0.6,0.6,0.4,2.1c0,0.1-0.1,0.2-0.2,0.1c-0.1,0-0.2-0.1-0.1-0.2c0-0.4,0.1-1.5-0.3-1.8c-0.1-0.1-0.3-0.1-0.5-0.1
				c-2.1,0.6-1.6,3.4-1.6,3.5C69.3,53.2,69.2,53.3,69.1,53.3L69.1,53.3z"/>
		</g>
		
			<linearGradient id="SVGID_39_" gradientUnits="userSpaceOnUse" x1="-241.6703" y1="47.85" x2="-234.8577" y2="47.85" gradientTransform="matrix(1 0 0 -1 309.3953 100)">
			<stop  offset="0" style="stop-color:#E95281"/>
			<stop  offset="1" style="stop-color:#BF3D62"/>
		</linearGradient>
		<polygon style="fill:url(#SVGID_39_);" points="67.7,53.1 72.8,50.2 72.4,50.9 74.5,51.1 69.4,54.1 69,53.1 		"/>
		
			<linearGradient id="SVGID_40_" gradientUnits="userSpaceOnUse" x1="-241.6703" y1="47.85" x2="-236.5607" y2="47.85" gradientTransform="matrix(1 0 0 -1 309.3953 100)">
			<stop  offset="0" style="stop-color:#E95281"/>
			<stop  offset="1" style="stop-color:#BF3D62"/>
		</linearGradient>
		<polygon style="fill:url(#SVGID_40_);" points="72.4,50.9 72.6,52.3 69.4,54.1 69,53.1 67.7,53.1 72.8,50.2 		"/>
		
			<linearGradient id="SVGID_41_" gradientUnits="userSpaceOnUse" x1="-239.9673" y1="43.45" x2="-234.006" y2="43.45" gradientTransform="matrix(1 0 0 -1 309.3953 100)">
			<stop  offset="0" style="stop-color:#E95281"/>
			<stop  offset="1" style="stop-color:#BF3D62"/>
		</linearGradient>
		<polygon style="fill:url(#SVGID_41_);" points="74.5,51.1 75.4,58.5 69.4,62 69.4,54.1 		"/>
		<ellipse style="fill:#FFFFFF;" cx="73.5" cy="52.7" rx="0.2" ry="0.2"/>
		<ellipse style="fill:#FFFFFF;" cx="70.7" cy="54.3" rx="0.2" ry="0.2"/>
		
			<linearGradient id="SVGID_42_" gradientUnits="userSpaceOnUse" x1="-242.5219" y1="43.2" x2="-240.3928" y2="43.2" gradientTransform="matrix(1 0 0 -1 309.3953 100)">
			<stop  offset="0" style="stop-color:#E95281"/>
			<stop  offset="1" style="stop-color:#BF3D62"/>
		</linearGradient>
		<polygon style="fill:url(#SVGID_42_);" points="68.6,60.5 69,53.1 67.7,53.1 66.9,60.5 		"/>
		
			<linearGradient id="SVGID_43_" gradientUnits="userSpaceOnUse" x1="-240.8183" y1="42.45" x2="-239.9673" y2="42.45" gradientTransform="matrix(1 0 0 -1 309.3953 100)">
			<stop  offset="0" style="stop-color:#E95281"/>
			<stop  offset="1" style="stop-color:#BF3D62"/>
		</linearGradient>
		<polygon style="fill:url(#SVGID_43_);" points="69.4,62 68.6,60.5 69,53.1 69.4,54.1 		"/>
		<g>
			
				<linearGradient id="SVGID_44_" gradientUnits="userSpaceOnUse" x1="-239.0858" y1="47.7707" x2="-235.7622" y2="47.7707" gradientTransform="matrix(1 0 0 -1 309.3953 100)">
				<stop  offset="0" style="stop-color:#E95281"/>
				<stop  offset="1" style="stop-color:#BF3D62"/>
			</linearGradient>
			<path style="fill:url(#SVGID_44_);" d="M70.7,54.4c-0.1,0-0.1,0-0.2-0.1c0-0.1-0.6-2,0.1-3.2c0.3-0.5,0.7-0.8,1.2-1
				c0.3-0.1,0.6,0,0.8,0.1c0.8,0.5,1,2.3,1,2.4c0,0.1-0.1,0.2-0.1,0.2c-0.1,0-0.2-0.1-0.2-0.1c0-0.5-0.3-1.8-0.8-2.2
				c-0.2-0.1-0.3-0.1-0.5-0.1c-0.5,0.1-0.8,0.4-1,0.8c-0.6,1.1-0.1,3-0.1,3C70.9,54.3,70.8,54.4,70.7,54.4L70.7,54.4z"/>
		</g>
	</g>
	
		<linearGradient id="SVGID_45_" gradientUnits="userSpaceOnUse" x1="-238.8953" y1="48.8092" x2="-238.8953" y2="35.4145" gradientTransform="matrix(1 0 0 -1 309.3953 100)">
		<stop  offset="6.813359e-03" style="stop-color:#739965"/>
		<stop  offset="0.9989" style="stop-color:#286143"/>
	</linearGradient>
	<path style="fill:url(#SVGID_45_);" d="M79.6,51.2c-0.1-0.1-0.2-0.1-0.2,0L66,58.9l-4.4-2.6c-0.1,0-0.1,0-0.2,0
		c-0.1,0-0.1,0.1-0.1,0.2v5.2c0,0.1,0,0.1,0.1,0.2l4.5,2.7l0,0l0,0l0,0l0,0c0,0,0,0,0.1,0c0,0,0,0,0.1,0l0,0l0,0l0,0l0,0l12-6.9
		l0.1-0.1l1.5-6.1C79.7,51.4,79.6,51.3,79.6,51.2z M61.6,58.6l1.1,0.7v1.2l-1.1-0.6V58.6z M63.2,59.5l1,0.6v1.2l-1-0.6L63.2,59.5z
		 M63.2,59v-1.3l1,0.6v1.2L63.2,59z M70.7,58.4l1-0.6V59l-1,0.6V58.4z M70.2,59.9l-1.1,0.6v-1.2l1.1-0.6V59.9z M72.1,57.6l1.1-0.6
		v1.2l-1.1,0.6V57.6z M73.6,56.7l1.2-0.7v1.2l-1.2,0.7V56.7z M75.2,55.8l1.1-0.6v1.3L75.2,57V55.8z M75.2,55.3v-1.2l1.1-0.6v1.2
		L75.2,55.3z M74.7,55.6l-1.2,0.7V55l1.2-0.7V55.6z M73.2,56.5l-1.1,0.6v-1.2l1.1-0.6V56.5z M71.7,57.3l-1,0.6v-1.2l1-0.6V57.3z
		 M70.2,58.2l-1.1,0.6v-1.2l1-0.6L70.2,58.2z M68.8,59l-1.1,0.6v-1.2l1.1-0.6V59z M67.2,59.9l-1.1,0.6v-1.2l1.1-0.6V59.9z
		 M65.7,62.2l-1.1-0.6v-1.2l1.1,0.7V62.2z M64.2,61.8v1.3l-1-0.6v-1.3L64.2,61.8z M64.6,62l1.1,0.6V64l-1.1-0.7V62z M66.1,61
		l1.1-0.6v1.2l-1.1,0.6V61z M67.7,60.1l1.1-0.6v1.2l-1.1,0.6V60.1z M68.8,61.2v1.3l-1.1,0.6v-1.3L68.8,61.2z M69.2,60.9l1.1-0.6v1.3
		l-1.1,0.6V60.9z M70.7,60.1l1-0.6v1.3l-1,0.6V60.1z M72.1,59.3l1.1-0.6V60l-1.1,0.6V59.3z M73.6,58.4l1.2-0.7V59l-1.2,0.7V58.4z
		 M75.2,57.5l1.1-0.6v1.3l-1.1,0.6V57.5z M76.7,56.7l1-0.6v1.3l-1,0.6V56.7z M78.3,55.3L78.3,55.3l-0.1-1.2l0.5-0.3L78.3,55.3z
		 M77.7,55.6l-1,0.6v-1.3l1-0.6V55.6z M76.7,54.4v-1.2l1.1-0.6v1.2L76.7,54.4z M65.7,60.5l-1.1-0.7v-1.2l1.1,0.7V60.5z M62.8,57.5
		v1.3l-1.1-0.7v-1.3L62.8,57.5z M61.6,60.4l1.1,0.6v1.3l-1.1-0.7V60.4z M66.1,62.7l1.1-0.6v1.3L66.1,64V62.7z M78.8,53.2l-0.6,0.4
		v-1.2l1-0.6L78.8,53.2z"/>
</g>
</svg>
