<?xml version="1.0" encoding="utf-8"?>
<!-- Generator: Adobe Illustrator 23.0.1, SVG Export Plug-In . SVG Version: 6.00 Build 0)  -->
<svg version="1.1" id="Layer_1" xmlns="http://www.w3.org/2000/svg" xmlns:xlink="http://www.w3.org/1999/xlink" x="0px" y="0px"
	 viewBox="0 0 100 100" style="enable-background:new 0 0 100 100;" xml:space="preserve">
<g id="computer_5_">
	
		<linearGradient id="SVGID_1_" gradientUnits="userSpaceOnUse" x1="984.0472" y1="56.5474" x2="974.5918" y2="40.1702" gradientTransform="matrix(-1 0 0 -1 1030.7963 100)">
		<stop  offset="0" style="stop-color:#6485C3;stop-opacity:0"/>
		<stop  offset="0.2111" style="stop-color:#6A8BC6;stop-opacity:0.1266"/>
		<stop  offset="0.4949" style="stop-color:#7A9CCF;stop-opacity:0.297"/>
		<stop  offset="0.8189" style="stop-color:#95B8DE;stop-opacity:0.4913"/>
		<stop  offset="1" style="stop-color:#A7CBE8;stop-opacity:0.6"/>
	</linearGradient>
	<path style="opacity:0.24;fill:url(#SVGID_1_);enable-background:new    ;" d="M55.1,38.7c0.6-0.4,1.7-0.4,2.3,0L74,48.3
		c0.6,0.4,0.6,1,0,1.4l-26,15c-0.6,0.4-1.7,0.4-2.3,0L29,55c-0.6-0.3-0.6-0.9,0-1.3L55.1,38.7z"/>
	
		<linearGradient id="SVGID_2_" gradientUnits="userSpaceOnUse" x1="956.3463" y1="51.2" x2="1002.1894" y2="51.2" gradientTransform="matrix(-1 0 0 -1 1030.7963 100)">
		<stop  offset="0" style="stop-color:#FFFFFF"/>
		<stop  offset="0.3662" style="stop-color:#FCFDFE"/>
		<stop  offset="0.6134" style="stop-color:#F3F8FD"/>
		<stop  offset="0.8248" style="stop-color:#E4EFFA"/>
		<stop  offset="1" style="stop-color:#D1E4F6"/>
	</linearGradient>
	<path style="fill:url(#SVGID_2_);" d="M55.1,35.8c0.6-0.4,1.7-0.4,2.3,0L74,45.4c0.6,0.4,0.6,1,0,1.4l-26,15
		c-0.6,0.4-1.7,0.4-2.3,0L29,52.1c-0.6-0.3-0.6-0.9,0-1.3L55.1,35.8z"/>
	
		<linearGradient id="SVGID_3_" gradientUnits="userSpaceOnUse" x1="984.1658" y1="58.9075" x2="974.3295" y2="41.8705" gradientTransform="matrix(-1 0 0 -1 1030.7963 100)">
		<stop  offset="0" style="stop-color:#FFFFFF"/>
		<stop  offset="0.3662" style="stop-color:#FCFDFE"/>
		<stop  offset="0.6134" style="stop-color:#F3F8FD"/>
		<stop  offset="0.8248" style="stop-color:#E4EFFA"/>
		<stop  offset="1" style="stop-color:#D1E4F6"/>
	</linearGradient>
	<path style="fill:url(#SVGID_3_);" d="M28.6,51.6L28.6,51.6L28.6,51.6C28.6,51.7,28.6,51.7,28.6,51.6c0,0.1,0,0.1,0.1,0.2l0,0
		c0,0,0,0,0,0.1l0,0c0,0,0,0,0.1,0.1l0,0c0,0,0,0,0.1,0.1l0,0c0,0,0.1,0,0.1,0.1l0,0c0,0,0.1,0,0.1,0.1L45.7,62c0,0,0.1,0,0.1,0.1
		l0,0h0.1l0,0H46h0.1c0,0,0,0,0.1,0h0.1c0,0,0,0,0.1,0l0,0h0.1l0,0c0,0,0,0,0.1,0h0.1c0,0,0,0,0.1,0h0.1H47h0.1h0.1h0.1
		c0,0,0,0,0.1,0h0.1c0,0,0,0,0.1,0h0.1c0,0,0,0,0.1,0l0,0h0.1l0,0H48l0,0c0,0,0.1,0,0.1-0.1l26-15c0.2-0.1,0.3-0.2,0.4-0.4v-0.1
		v-0.1v-0.1l0,0l0,0v1.2c0,0.2-0.2,0.5-0.5,0.7L48,63c0,0-0.1,0-0.1,0.1l0,0c0,0,0,0-0.1,0l0,0l0,0h-0.1l0,0l0,0l0,0h-0.1l0,0l0,0
		h-0.1l0,0l0,0h-0.1l0,0l0,0h-0.1l0,0l0,0h-0.1l0,0l0,0h-0.1l0,0l0,0l0,0H47l0,0l0,0c0,0,0,0-0.1,0h-0.1c0,0,0,0-0.1,0h-0.1l0,0
		h-0.1l0,0h-0.1l0,0c0,0-0.1,0-0.1-0.1L29,53.4l0,0c0,0-0.1,0-0.1-0.1l0,0c0,0-0.1,0-0.1-0.1l0,0l0,0c0,0,0,0-0.1-0.1l0,0l0,0l0,0
		l0,0c0,0,0,0,0-0.1l0,0l0,0c0,0,0,0,0-0.1l0,0l0,0c0,0,0,0,0-0.1l0,0l0,0c0,0,0,0,0-0.1l0,0L28.6,51.6
		C28.6,51.5,28.6,51.6,28.6,51.6z"/>
	<g>
		
			<linearGradient id="SVGID_4_" gradientUnits="userSpaceOnUse" x1="974.8497" y1="66.9791" x2="1003.2149" y2="66.9791" gradientTransform="matrix(-1 0 0 -1 1030.7963 100)">
			<stop  offset="0" style="stop-color:#FFFFFF"/>
			<stop  offset="0.3662" style="stop-color:#FCFDFE"/>
			<stop  offset="0.6134" style="stop-color:#F3F8FD"/>
			<stop  offset="0.8248" style="stop-color:#E4EFFA"/>
			<stop  offset="1" style="stop-color:#D1E4F6"/>
		</linearGradient>
		<path style="fill:url(#SVGID_4_);" d="M31.5,27.8c0.6-0.4,24.4-13.7,24.4-12.9V34c0,0.7-0.5,1.6-1.2,2l-26,15
			c-0.6,0.4-1.2,0.1-1.2-0.7l-0.1-19.2c0-0.7,0.5-1.5,1.1-1.9L31.5,27.8z M28.7,48.8l26.2-15.1l-0.1-18.3L28.7,30.5V48.8"/>
	</g>
	
		<linearGradient id="SVGID_5_" gradientUnits="userSpaceOnUse" x1="994.8838" y1="68.6625" x2="1008.8072" y2="54.7391" gradientTransform="matrix(-1 0 0 -1 1030.7963 100)">
		<stop  offset="0" style="stop-color:#FFFFFF"/>
		<stop  offset="0.3662" style="stop-color:#FCFDFE"/>
		<stop  offset="0.6134" style="stop-color:#F3F8FD"/>
		<stop  offset="0.8248" style="stop-color:#E4EFFA"/>
		<stop  offset="1" style="stop-color:#D1E4F6"/>
	</linearGradient>
	<path style="fill:url(#SVGID_5_);" d="M27.2,30.9C27.2,30.8,27.2,30.8,27.2,30.9C27.2,30.8,27.2,30.8,27.2,30.9
		C27.2,30.8,27.2,30.8,27.2,30.9c0-0.1,0-0.1,0-0.1s0,0,0-0.1c0,0,0,0,0-0.1l0,0l0,0c0,0,0,0,0-0.1c0,0,0,0,0-0.1l0,0l0,0l0,0
		c0,0,0,0,0-0.1l0,0l0,0l0,0c0,0,0,0,0-0.1c0,0,0,0,0-0.1l0,0l0,0l0,0c0,0,0,0,0-0.1l0,0l0,0l0,0c0,0,0,0,0-0.1c0,0,0,0,0-0.1l0,0
		l0,0l0,0c0,0,0,0,0-0.1l0,0l0,0l0,0c0,0,0,0,0-0.1l0,0c0,0,0-0.1,0.1-0.1l0,0l0,0c0,0,0,0,0-0.1l0,0l0,0l0,0l0,0l0,0l0,0l0,0l0,0
		l0,0l0,0l0,0l0,0l0,0l0,0l0,0l0,0l0,0l0,0l0,0l0,0l0,0l0,0l0,0l2.8-1.4l0,0l0,0l0,0l0,0l0,0l0,0l0,0l0,0l0,0l0,0l0,0l0,0l0,0l0,0
		l0,0l0,0l0,0l0,0l0,0l0,0l0,0l0,0l0,0l0,0l0,0l0,0l0,0l0,0l0,0l0,0l0,0l0,0l0,0c0,0,0,0,0.1,0l0,0l0,0h0.1l0,0l0,0l0,0l0,0l0,0l0,0
		l0.4,0.2l0,0l0,0l0,0l0,0c0,0,0,0-0.1,0l0,0c0,0,0,0-0.1,0l0,0l0,0l0,0l0,0l0,0l0,0l0,0l0,0l0,0l0,0l0,0l0,0l0,0l0,0h-0.1l0,0l0,0
		l0,0c0,0,0,0-0.1,0l-2.8,1.4c0,0-0.1,0-0.1,0.1l0,0c0,0-0.1,0-0.1,0.1l0,0l-0.1,0.1l0,0L27.1,30l0,0L27,30.1l0,0l-0.1,0.1l0,0
		c0,0,0,0.1-0.1,0.1c0,0,0,0,0,0.1c0,0,0,0,0,0.1l0,0c0,0,0,0.1-0.1,0.1l0,0c0,0,0,0.1-0.1,0.1l0,0c0,0,0,0.1-0.1,0.1l0,0v0.1l0,0
		V31l0,0v0.1l0,0v0.1l0,0v0.1l0.1,19.2v0.1l0,0v0.1l0,0v0.1l0,0v0.1l0,0V51l0,0c0,0,0,0,0,0.1l0,0l0,0l0,0c0,0,0,0,0.1,0l-0.4-0.2
		c0,0,0,0-0.1,0l0,0l0,0l0,0c0,0,0,0,0-0.1l0,0l0,0v-0.1l0,0l0,0c0,0,0,0,0-0.1l0,0l0,0l0,0c0,0,0,0,0-0.1l0,0l0,0l0,0
		c0,0,0,0,0-0.1l0,0l0,0l0,0c0,0,0,0,0-0.1c0,0,0,0,0-0.1l0,0L27.2,30.9L27.2,30.9z"/>
	<g id="screen_3_">
		
			<linearGradient id="SVGID_6_" gradientUnits="userSpaceOnUse" x1="-271.3033" y1="73.6225" x2="-263.8873" y2="60.7775" gradientTransform="matrix(1 0 0 -1 309.3953 100)">
			<stop  offset="5.762439e-03" style="stop-color:#71C8E2"/>
			<stop  offset="1" style="stop-color:#EAF6FD"/>
		</linearGradient>
		<path style="fill:url(#SVGID_6_);" d="M54.9,33.8L28.7,48.9V31.8l26.2-15.1V33.8z"/>
		<polygon style="fill:#53A2DA;" points="54.9,15.4 28.7,30.5 28.7,31.7 54.9,16.6 		"/>
		<g>
			<path style="fill:#E52E31;" d="M54.3,16c-0.2,0.1-0.3,0.3-0.3,0.5s0.1,0.3,0.3,0.2c0.2-0.1,0.3-0.3,0.3-0.5S54.5,15.9,54.3,16z"
				/>
		</g>
		<g>
			<path style="fill:#7FBB48;" d="M53.3,16.5C53.1,16.6,53,16.8,53,17s0.1,0.3,0.3,0.2c0.2-0.1,0.3-0.3,0.3-0.5S53.5,16.4,53.3,16.5
				z"/>
		</g>
		<g>
			<path style="fill:#F2902A;" d="M52.4,17.1c-0.2,0.1-0.3,0.3-0.3,0.5s0.1,0.3,0.3,0.2c0.2-0.1,0.3-0.3,0.3-0.5S52.5,17,52.4,17.1z
				"/>
		</g>
	</g>
	<g style="opacity:0.2;">
		
			<linearGradient id="SVGID_7_" gradientUnits="userSpaceOnUse" x1="-277.6203" y1="53.1" x2="-244.822" y2="53.1" gradientTransform="matrix(1 0 0 -1 309.3953 100)">
			<stop  offset="5.762439e-03" style="stop-color:#71C8E2"/>
			<stop  offset="1" style="stop-color:#EAF6FD"/>
		</linearGradient>
		<path style="fill:url(#SVGID_7_);" d="M64.4,42.2c0.3,0.2,0.3,0.4,0,0.6L41.1,56.3c-0.3,0.2-0.7,0.2-1,0L32,51.6
			c-0.3-0.2-0.3-0.4,0-0.6l23.3-13.5c0.3-0.2,0.7-0.2,1,0L64.4,42.2z"/>
	</g>
	<g>
		<g>
			<g>
				<path style="fill:#B9B9B9;" d="M37.7,48.9C37.8,48.9,37.8,49,37.7,48.9l-1,0.7c-0.1,0-0.2,0-0.2,0l-0.3-0.2
					c-0.1,0-0.1-0.1,0-0.1l1-0.6c0.1,0,0.2,0,0.2,0L37.7,48.9z"/>
			</g>
		</g>
		<g>
			<g>
				<path style="fill:#B9B9B9;" d="M39.8,49.4C39.9,49.4,39.9,49.5,39.8,49.4l-1,0.7c-0.1,0-0.2,0-0.2,0l-0.9-0.5
					c-0.1,0-0.1-0.1,0-0.1l1-0.6c0.1,0,0.2,0,0.2,0L39.8,49.4z"/>
			</g>
		</g>
		<g>
			<g>
				<path style="fill:#B9B9B9;" d="M38.1,50.4C38.2,50.4,38.2,50.5,38.1,50.4l-1,0.7c-0.1,0-0.2,0-0.2,0L36,50.6
					c-0.1,0-0.1-0.1,0-0.1l1-0.6c0.1,0,0.2,0,0.2,0L38.1,50.4z"/>
			</g>
		</g>
		<g>
			<g>
				<path style="fill:#B9B9B9;" d="M36,49.8C36.1,49.8,36.1,49.9,36,49.8l-1,0.7c-0.1,0-0.2,0-0.2,0l-0.3-0.2c-0.1,0-0.1-0.1,0-0.1
					l1-0.6c0.1,0,0.2,0,0.2,0L36,49.8z"/>
			</g>
		</g>
		<g>
			<g>
				<path style="fill:#B9B9B9;" d="M34.4,50.8C34.5,50.8,34.5,50.9,34.4,50.8l-1,0.7c-0.1,0-0.2,0-0.2,0l-0.3-0.2
					c-0.1,0-0.1-0.1,0-0.1l1-0.6c0.1,0,0.2,0,0.2,0L34.4,50.8z"/>
			</g>
		</g>
		<g>
			<g>
				<path style="fill:#B9B9B9;" d="M39.4,47.9C39.5,47.9,39.5,48,39.4,47.9l-1,0.7c-0.1,0-0.2,0-0.2,0l-0.3-0.2
					c-0.1,0-0.1-0.1,0-0.1l1-0.6c0.1,0,0.2,0,0.2,0L39.4,47.9z"/>
			</g>
		</g>
		<g>
			<g>
				<path style="fill:#B9B9B9;" d="M56.1,38.2C56.2,38.2,56.2,38.3,56.1,38.2l-1,0.7c-0.1,0-0.2,0-0.2,0l-0.3-0.2
					c-0.1,0-0.1-0.1,0-0.1l1-0.6c0.1,0,0.2,0,0.2,0L56.1,38.2z"/>
			</g>
		</g>
		<g>
			<g>
				<path style="fill:#B9B9B9;" d="M59.1,39.9C59.2,39.9,59.2,40,59.1,39.9l-1,0.7c-0.1,0-0.2,0-0.2,0L57,40.1c-0.1,0-0.1-0.1,0-0.1
					l1-0.6c0.1,0,0.2,0,0.2,0L59.1,39.9z"/>
			</g>
		</g>
		<g>
			<g>
				<path style="fill:#B9B9B9;" d="M57.4,40.9C57.5,40.9,57.5,41,57.4,40.9l-1,0.7c-0.1,0-0.2,0-0.2,0l-0.9-0.5
					c-0.1,0-0.1-0.1,0-0.1l1-0.6c0.1,0,0.2,0,0.2,0L57.4,40.9z"/>
			</g>
		</g>
		<g>
			<g>
				<path style="fill:#B9B9B9;" d="M55.3,45.5C55.4,45.5,55.4,45.6,55.3,45.5l-1,0.7c-0.1,0-0.2,0-0.2,0l-0.9-0.5
					c-0.1,0-0.1-0.1,0-0.1l1-0.6c0.1,0,0.2,0,0.2,0L55.3,45.5z"/>
			</g>
		</g>
		<g style="enable-background:new    ;">
			<g>
				<g>
					<path style="fill:#B9B9B9;" d="M54.4,39.1C54.5,39.1,54.5,39.2,54.4,39.1l-1,0.7c-0.1,0-0.2,0-0.2,0l-0.3-0.2
						c-0.1,0-0.1-0.1,0-0.1l1-0.6c0.1,0,0.2,0,0.2,0L54.4,39.1z"/>
				</g>
			</g>
			<g>
				<g>
					<path style="fill:#B9B9B9;" d="M57.6,39C57.7,39,57.7,39.1,57.6,39l-2.1,1.3c-0.1,0-0.2,0-0.2,0l-0.9-0.5c-0.1,0-0.1-0.1,0-0.1
						l2.1-1.2c0.1,0,0.2,0,0.2,0L57.6,39z"/>
				</g>
			</g>
			<g>
				<g>
					<path style="fill:#B9B9B9;" d="M52.8,40.1C52.9,40.1,52.9,40.2,52.8,40.1l-1,0.7c-0.1,0-0.2,0-0.2,0l-0.3-0.2
						c-0.1,0-0.1-0.1,0-0.1l1-0.6c0.1,0,0.2,0,0.2,0L52.8,40.1z"/>
				</g>
			</g>
			<g>
				<g>
					<path style="fill:#B9B9B9;" d="M54.9,40.6C55,40.6,55,40.7,54.9,40.6l-1,0.7c-0.1,0-0.2,0-0.2,0l-0.9-0.5c-0.1,0-0.1-0.1,0-0.1
						l1-0.6c0.1,0,0.2,0,0.2,0L54.9,40.6z"/>
				</g>
			</g>
			<g>
				<g>
					<path style="fill:#B9B9B9;" d="M60.6,40.8C60.7,40.8,60.7,40.9,60.6,40.8l-2.1,1.3c-0.1,0-0.2,0-0.2,0l-0.9-0.5
						c-0.1,0-0.1-0.1,0-0.1l2.1-1.2c0.1,0,0.2,0,0.2,0L60.6,40.8z"/>
				</g>
			</g>
			<g>
				<g>
					<path style="fill:#B9B9B9;" d="M55.8,41.8C55.9,41.8,55.9,41.9,55.8,41.8l-1,0.7c-0.1,0-0.2,0-0.2,0l-1-0.5
						c-0.1,0-0.1-0.1,0-0.1l1-0.6c0.1,0,0.2,0,0.2,0L55.8,41.8z"/>
				</g>
			</g>
			<g>
				<g>
					<path style="fill:#B9B9B9;" d="M57.9,42.3C58,42.3,58,42.4,57.9,42.3l-1,0.7c-0.1,0-0.2,0-0.2,0l-0.9-0.5c-0.1,0-0.1-0.1,0-0.1
						l1-0.6c0.1,0,0.2,0,0.2,0L57.9,42.3z"/>
				</g>
			</g>
			<g>
				<g>
					<path style="fill:#B9B9B9;" d="M62.1,41.6C62.2,41.6,62.2,41.7,62.1,41.6l-2.8,1.7c-0.1,0-0.2,0-0.2,0l-0.9-0.5
						c-0.1,0-0.1-0.1,0-0.1l2.8-1.6c0.1,0,0.2,0,0.2,0L62.1,41.6z"/>
				</g>
			</g>
			<g>
				<g>
					<path style="fill:#B9B9B9;" d="M54.1,42.8C54.2,42.8,54.2,42.9,54.1,42.8l-1,0.7c-0.1,0-0.2,0-0.2,0l-1-0.5
						c-0.1,0-0.1-0.1,0-0.1l1-0.6c0.1,0,0.2,0,0.2,0L54.1,42.8z"/>
				</g>
			</g>
			<g>
				<g>
					<path style="fill:#B9B9B9;" d="M63.6,42.5C63.7,42.5,63.7,42.6,63.6,42.5l-2.1,1.3c-0.1,0-0.2,0-0.2,0l-0.9-0.5
						c-0.1,0-0.1-0.1,0-0.1l2.1-1.2c0.1,0,0.2,0,0.2,0L63.6,42.5z"/>
				</g>
			</g>
			<g>
				<g>
					<path style="fill:#B9B9B9;" d="M56.2,43.3C56.3,43.3,56.3,43.4,56.2,43.3l-1,0.7c-0.1,0-0.2,0-0.2,0l-1-0.5
						c-0.1,0-0.1-0.1,0-0.1l1-0.6c0.1,0,0.2,0,0.2,0L56.2,43.3z"/>
				</g>
			</g>
			<g>
				<g>
					<path style="fill:#B9B9B9;" d="M58.7,43.6C58.8,43.6,58.8,43.7,58.7,43.6l-1,0.7c-0.1,0-0.2,0-0.2,0l-0.9-0.5
						c-0.1,0-0.1-0.1,0-0.1l1-0.6c0.1,0,0.2,0,0.2,0L58.7,43.6z"/>
				</g>
			</g>
			<g>
				<g>
					<path style="fill:#B9B9B9;" d="M60.8,44.1C60.9,44.1,60.9,44.2,60.8,44.1L59.4,45c-0.1,0-0.2,0-0.2,0l-0.9-0.5
						c-0.1,0-0.1-0.1,0-0.1l1.4-0.8c0.1,0,0.2,0,0.2,0L60.8,44.1z"/>
				</g>
			</g>
			<g>
				<g>
					<path style="fill:#B9B9B9;" d="M57,44.6C57.1,44.6,57.1,44.7,57,44.6l-1,0.7c-0.1,0-0.2,0-0.2,0l-0.9-0.5c-0.1,0-0.1-0.1,0-0.1
						l1-0.6c0.1,0,0.2,0,0.2,0L57,44.6z"/>
				</g>
			</g>
			<g>
				<g>
					<path style="fill:#B9B9B9;" d="M58.8,45.3C58.9,45.3,58.9,45.4,58.8,45.3l-1.4,0.9c-0.1,0-0.2,0-0.2,0l-0.9-0.5
						c-0.1,0-0.1-0.1,0-0.1l1.4-0.8c0.1,0,0.2,0,0.2,0L58.8,45.3z"/>
				</g>
			</g>
		</g>
		<g>
			<g>
				<path style="fill:#B9B9B9;" d="M51.1,41.1C51.2,41.1,51.2,41.2,51.1,41.1l-1,0.7c-0.1,0-0.2,0-0.2,0l-0.3-0.2
					c-0.1,0-0.1-0.1,0-0.1l1-0.6c0.1,0,0.2,0,0.2,0L51.1,41.1z"/>
			</g>
		</g>
		<g style="enable-background:new    ;">
			<g>
				<g>
					<path style="fill:#B9B9B9;" d="M51.5,42.6C51.6,42.6,51.6,42.7,51.5,42.6l-1,0.7c-0.1,0-0.2,0-0.2,0l-0.9-0.5
						c-0.1,0-0.1-0.1,0-0.1l1-0.6c0.1,0,0.2,0,0.2,0L51.5,42.6z"/>
				</g>
			</g>
			<g>
				<g>
					<path style="fill:#B9B9B9;" d="M52.4,43.8C52.5,43.8,52.5,43.9,52.4,43.8l-1,0.7c-0.1,0-0.2,0-0.2,0l-1-0.5
						c-0.1,0-0.1-0.1,0-0.1l1-0.6c0.1,0,0.2,0,0.2,0L52.4,43.8z"/>
				</g>
			</g>
		</g>
		<g>
			<g>
				<path style="fill:#B9B9B9;" d="M49.4,42.1C49.5,42.1,49.5,42.2,49.4,42.1l-1,0.7c-0.1,0-0.2,0-0.2,0l-0.3-0.2
					c-0.1,0-0.1-0.1,0-0.1l1-0.6c0.1,0,0.2,0,0.2,0L49.4,42.1z"/>
			</g>
		</g>
		<g>
			<g>
				<path style="fill:#B9B9B9;" d="M47.8,43C47.9,43,47.9,43.1,47.8,43l-1,0.7c-0.1,0-0.2,0-0.2,0l-0.3-0.2c-0.1,0-0.1-0.1,0-0.1
					l1-0.6c0.1,0,0.2,0,0.2,0L47.8,43z"/>
			</g>
		</g>
		<g>
			<g>
				<path style="fill:#B9B9B9;" d="M50.3,48.5C50.4,48.5,50.4,48.6,50.3,48.5l-1,0.7c-0.1,0-0.2,0-0.2,0l-0.9-0.5
					c-0.1,0-0.1-0.1,0-0.1l1-0.6c0.1,0,0.2,0,0.2,0L50.3,48.5z"/>
			</g>
		</g>
		<g style="enable-background:new    ;">
			<g>
				<g>
					<path style="fill:#B9B9B9;" d="M45.3,51.4C45.4,51.4,45.4,51.5,45.3,51.4l-1,0.7c-0.1,0-0.2,0-0.2,0l-0.9-0.5
						c-0.1,0-0.1-0.1,0-0.1l1-0.6c0.1,0,0.2,0,0.2,0L45.3,51.4z"/>
				</g>
			</g>
			<g>
				<g>
					<path style="fill:#B9B9B9;" d="M43.6,52.4C43.7,52.4,43.7,52.5,43.6,52.4L39.3,55c-0.1,0-0.2,0-0.2,0l-0.9-0.5
						c-0.1,0-0.1-0.1,0-0.1l4.3-2.5c0.1,0,0.2,0,0.2,0L43.6,52.4z"/>
				</g>
			</g>
		</g>
		<g>
			<g>
				<path style="fill:#B9B9B9;" d="M47,50.4C47.1,50.4,47.1,50.5,47,50.4l-1,0.7c-0.1,0-0.2,0-0.2,0l-0.9-0.5c-0.1,0-0.1-0.1,0-0.1
					l1-0.6c0.1,0,0.2,0,0.2,0L47,50.4z"/>
			</g>
		</g>
		<g>
			<g>
				<path style="fill:#B9B9B9;" d="M47,52.1C47.1,52.1,47.1,52.2,47,52.1L45.6,53c-0.1,0-0.2,0-0.2,0l-0.9-0.5c-0.1,0-0.1-0.1,0-0.1
					l1.4-0.8c0.1,0,0.2,0,0.2,0L47,52.1z"/>
			</g>
		</g>
		<g style="enable-background:new    ;">
			<g>
				<g>
					<path style="fill:#B9B9B9;" d="M52.9,45.2C53,45.2,53,45.3,52.9,45.2l-1,0.7c-0.1,0-0.2,0-0.2,0l-0.9-0.5c-0.1,0-0.1-0.1,0-0.1
						l1-0.6c0.1,0,0.2,0,0.2,0L52.9,45.2z"/>
				</g>
			</g>
			<g>
				<g>
					<path style="fill:#B9B9B9;" d="M46.5,45.5C46.6,45.5,46.6,45.6,46.5,45.5l-1,0.7c-0.1,0-0.2,0-0.2,0l-0.9-0.5
						c-0.1,0-0.1-0.1,0-0.1l1-0.6c0.1,0,0.2,0,0.2,0L46.5,45.5z"/>
				</g>
			</g>
			<g>
				<g>
					<path style="fill:#B9B9B9;" d="M49.1,45.7C49.2,45.7,49.2,45.8,49.1,45.7l-1,0.7c-0.1,0-0.2,0-0.2,0L47,45.9
						c-0.1,0-0.1-0.1,0-0.1l1-0.6c0.1,0,0.2,0,0.2,0L49.1,45.7z"/>
				</g>
			</g>
			<g>
				<g>
					<path style="fill:#B9B9B9;" d="M51.2,46.2C51.3,46.2,51.3,46.3,51.2,46.2l-1,0.7c-0.1,0-0.2,0-0.2,0l-1-0.5
						c-0.1,0-0.1-0.1,0-0.1l1-0.6c0.1,0,0.2,0,0.2,0L51.2,46.2z"/>
				</g>
			</g>
			<g>
				<g>
					<path style="fill:#B9B9B9;" d="M53.7,46.5C53.8,46.5,53.8,46.6,53.7,46.5l-1,0.7c-0.1,0-0.2,0-0.2,0l-0.9-0.5
						c-0.1,0-0.1-0.1,0-0.1l1-0.6c0.1,0,0.2,0,0.2,0L53.7,46.5z"/>
				</g>
			</g>
			<g>
				<g>
					<path style="fill:#B9B9B9;" d="M47.4,46.7C47.5,46.7,47.5,46.8,47.4,46.7l-1,0.7c-0.1,0-0.2,0-0.2,0l-0.9-0.5
						c-0.1,0-0.1-0.1,0-0.1l1-0.6c0.1,0,0.2,0,0.2,0L47.4,46.7z"/>
				</g>
			</g>
			<g>
				<g>
					<path style="fill:#B9B9B9;" d="M49.5,47.2C49.6,47.2,49.6,47.3,49.5,47.2l-1,0.7c-0.1,0-0.2,0-0.2,0l-0.9-0.5
						c-0.1,0-0.1-0.1,0-0.1l1-0.6c0.1,0,0.2,0,0.2,0L49.5,47.2z"/>
				</g>
			</g>
			<g>
				<g>
					<path style="fill:#B9B9B9;" d="M52,47.5C52.1,47.5,52.1,47.6,52,47.5l-1,0.7c-0.1,0-0.2,0-0.2,0l-0.9-0.5c-0.1,0-0.1-0.1,0-0.1
						l1-0.6c0.1,0,0.2,0,0.2,0L52,47.5z"/>
				</g>
			</g>
			<g>
				<g>
					<path style="fill:#B9B9B9;" d="M47.9,48.2C48,48.2,48,48.3,47.9,48.2l-1,0.7c-0.1,0-0.2,0-0.2,0l-0.9-0.5c-0.1,0-0.1-0.1,0-0.1
						l1-0.6c0.1,0,0.2,0,0.2,0L47.9,48.2z"/>
				</g>
			</g>
			<g>
				<g>
					<path style="fill:#B9B9B9;" d="M48.7,49.4C48.8,49.4,48.8,49.5,48.7,49.4l-1,0.7c-0.1,0-0.2,0-0.2,0l-0.9-0.5
						c-0.1,0-0.1-0.1,0-0.1l1-0.6c0.1,0,0.2,0,0.2,0L48.7,49.4z"/>
				</g>
			</g>
			<g>
				<g>
					<path style="fill:#B9B9B9;" d="M56.8,46.4C56.9,46.4,56.9,46.5,56.8,46.4l-9.2,5.5c-0.1,0-0.2,0-0.2,0l-0.9-0.5
						c-0.1,0-0.1-0.1,0-0.1l9.2-5.4c0.1,0,0.2,0,0.2,0L56.8,46.4z"/>
				</g>
			</g>
		</g>
		<g>
			<g>
				<path style="fill:#B9B9B9;" d="M49.8,43.6C49.9,43.6,49.9,43.7,49.8,43.6l-1,0.7c-0.1,0-0.2,0-0.2,0l-0.9-0.5
					c-0.1,0-0.1-0.1,0-0.1l1-0.6c0.1,0,0.2,0,0.2,0L49.8,43.6z"/>
			</g>
		</g>
		<g>
			<g>
				<path style="fill:#B9B9B9;" d="M48.1,44.5C48.2,44.5,48.2,44.6,48.1,44.5l-1,0.7c-0.1,0-0.2,0-0.2,0L46,44.8
					c-0.1,0-0.1-0.1,0-0.1l1-0.6c0.1,0,0.2,0,0.2,0L48.1,44.5z"/>
			</g>
		</g>
		<g>
			<g>
				<path style="fill:#B9B9B9;" d="M46.1,44C46.2,44,46.2,44.1,46.1,44l-1,0.7c-0.1,0-0.2,0-0.2,0l-0.3-0.2c-0.1,0-0.1-0.1,0-0.1
					l1-0.6c0.1,0,0.2,0,0.2,0L46.1,44z"/>
			</g>
		</g>
		<g>
			<g>
				<path style="fill:#B9B9B9;" d="M44.4,45C44.5,45,44.5,45.1,44.4,45l-1,0.7c-0.1,0-0.2,0-0.2,0l-0.3-0.2c-0.1,0-0.1-0.1,0-0.1
					l1-0.6c0.1,0,0.2,0,0.2,0L44.4,45z"/>
			</g>
		</g>
		<g>
			<g>
				<path style="fill:#B9B9B9;" d="M45.7,47.7C45.8,47.7,45.8,47.8,45.7,47.7l-1,0.7c-0.1,0-0.2,0-0.2,0l-0.9-0.5
					c-0.1,0-0.1-0.1,0-0.1l1-0.6c0.1,0,0.2,0,0.2,0L45.7,47.7z"/>
			</g>
		</g>
		<g style="enable-background:new    ;">
			<g>
				<g>
					<path style="fill:#B9B9B9;" d="M44,48.6C44.1,48.6,44.1,48.7,44,48.6l-1,0.7c-0.1,0-0.2,0-0.2,0l-0.9-0.5c-0.1,0-0.1-0.1,0-0.1
						l1-0.6c0.1,0,0.2,0,0.2,0L44,48.6z"/>
				</g>
			</g>
			<g>
				<g>
					<path style="fill:#B9B9B9;" d="M46.2,49.1C46.3,49.1,46.3,49.2,46.2,49.1l-1,0.7c-0.1,0-0.2,0-0.2,0l-1-0.4
						c-0.1,0-0.1-0.1,0-0.1l1-0.6c0.1,0,0.2,0,0.2,0L46.2,49.1z"/>
				</g>
			</g>
			<g>
				<g>
					<path style="fill:#B9B9B9;" d="M42.4,49.6C42.5,49.6,42.5,49.7,42.4,49.6l-1,0.7c-0.1,0-0.2,0-0.2,0l-0.9-0.5
						c-0.1,0-0.1-0.1,0-0.1l1-0.6c0.1,0,0.2,0,0.2,0L42.4,49.6z"/>
				</g>
			</g>
			<g>
				<g>
					<path style="fill:#B9B9B9;" d="M44.5,50.1C44.6,50.1,44.6,50.2,44.5,50.1l-1,0.7c-0.1,0-0.2,0-0.2,0l-0.9-0.5
						c-0.1,0-0.1-0.1,0-0.1l1-0.6c0.1,0,0.2,0,0.2,0L44.5,50.1z"/>
				</g>
			</g>
			<g>
				<g>
					<path style="fill:#B9B9B9;" d="M40.7,50.6C40.8,50.6,40.8,50.7,40.7,50.6l-1,0.7c-0.1,0-0.2,0-0.2,0l-0.9-0.5
						c-0.1,0-0.1-0.1,0-0.1l1-0.6c0.1,0,0.2,0,0.2,0L40.7,50.6z"/>
				</g>
			</g>
			<g>
				<g>
					<path style="fill:#B9B9B9;" d="M42.8,51.1C42.9,51.1,42.9,51.2,42.8,51.1l-1,0.7c-0.1,0-0.2,0-0.2,0l-0.9-0.5
						c-0.1,0-0.1-0.1,0-0.1l1-0.6c0.1,0,0.2,0,0.2,0L42.8,51.1z"/>
				</g>
			</g>
			<g>
				<g>
					<path style="fill:#B9B9B9;" d="M39,51.6C39.1,51.6,39.1,51.7,39,51.6l-2.7,1.7c-0.1,0-0.2,0-0.2,0l-0.9-0.5
						c-0.1,0-0.1-0.1,0-0.1l2.7-1.6c0.1,0,0.2,0,0.2,0L39,51.6z"/>
				</g>
			</g>
			<g>
				<g>
					<path style="fill:#B9B9B9;" d="M41.2,52C41.3,52,41.3,52.1,41.2,52l-3.4,2.1c-0.1,0-0.2,0-0.2,0l-0.9-0.5c-0.1,0-0.1-0.1,0-0.1
						l3.4-2c0.1,0,0.2,0,0.2,0L41.2,52z"/>
				</g>
			</g>
		</g>
		<g>
			<g>
				<path style="fill:#B9B9B9;" d="M41.5,48.4C41.6,48.4,41.6,48.5,41.5,48.4l-1,0.7c-0.1,0-0.2,0-0.2,0l-0.9-0.5
					c-0.1,0-0.1-0.1,0-0.1l1-0.6c0.1,0,0.2,0,0.2,0L41.5,48.4z"/>
			</g>
		</g>
		<g>
			<g>
				<path style="fill:#B9B9B9;" d="M43.1,47.4C43.2,47.4,43.2,47.5,43.1,47.4l-1,0.7c-0.1,0-0.2,0-0.2,0L41,47.6
					c-0.1,0-0.1-0.1,0-0.1l1-0.6c0.1,0,0.2,0,0.2,0L43.1,47.4z"/>
			</g>
		</g>
		<g>
			<g>
				<path style="fill:#B9B9B9;" d="M44.8,46.5C44.9,46.5,44.9,46.6,44.8,46.5l-1,0.7c-0.1,0-0.2,0-0.2,0l-0.9-0.5
					c-0.1,0-0.1-0.1,0-0.1l1-0.6c0.1,0,0.2,0,0.2,0L44.8,46.5z"/>
			</g>
		</g>
		<g>
			<g>
				<path style="fill:#B9B9B9;" d="M42.7,45.9C42.8,45.9,42.8,46,42.7,45.9l-1,0.7c-0.1,0-0.2,0-0.2,0l-0.3-0.2
					c-0.1,0-0.1-0.1,0-0.1l1-0.6c0.1,0,0.2,0,0.2,0L42.7,45.9z"/>
			</g>
		</g>
		<g>
			<g>
				<path style="fill:#B9B9B9;" d="M41.1,46.9C41.2,46.9,41.2,47,41.1,46.9l-1,0.7c-0.1,0-0.2,0-0.2,0l-0.3-0.2
					c-0.1,0-0.1-0.1,0-0.1l1-0.6c0.1,0,0.2,0,0.2,0L41.1,46.9z"/>
			</g>
		</g>
		<g>
			<g>
				<path style="fill:#B9B9B9;" d="M36.4,51.4C36.5,51.4,36.5,51.5,36.4,51.4l-1.6,1c-0.1,0-0.2,0-0.2,0l-0.9-0.5
					c-0.1,0-0.1-0.1,0-0.1l1.6-0.9c0.1,0,0.2,0,0.2,0L36.4,51.4z"/>
			</g>
		</g>
		<g>
			<g>
				<path style="fill:#B9B9B9;" d="M53.2,41.6C53.3,41.6,53.3,41.7,53.2,41.6l-1,0.7c-0.1,0-0.2,0-0.2,0l-1-0.5
					c-0.1,0-0.1-0.1,0-0.1l1-0.6c0.1,0,0.2,0,0.2,0L53.2,41.6z"/>
			</g>
		</g>
		<g>
			<g>
				<path style="fill:#B9B9B9;" d="M50.7,44.8C50.8,44.8,50.8,44.9,50.7,44.8l-1,0.7c-0.1,0-0.2,0-0.2,0L48.6,45
					c-0.1,0-0.1-0.1,0-0.1l1-0.6c0.1,0,0.2,0,0.2,0L50.7,44.8z"/>
			</g>
		</g>
		<g>
			<g>
				<path style="fill:#B9B9B9;" d="M54.5,44.3C54.6,44.3,54.6,44.4,54.5,44.3l-1,0.7c-0.1,0-0.2,0-0.2,0l-0.9-0.5
					c-0.1,0-0.1-0.1,0-0.1l1-0.6c0.1,0,0.2,0,0.2,0L54.5,44.3z"/>
			</g>
		</g>
		<g>
			<g>
				<path style="fill:#B9B9B9;" d="M42.9,54.5C43,54.5,43,54.6,42.9,54.5l-2.1,1.3c-0.1,0-0.2,0-0.2,0l-0.9-0.5
					c-0.1,0-0.1-0.1,0-0.1l2.1-1.2c0.1,0,0.2,0,0.2,0L42.9,54.5z"/>
			</g>
		</g>
		<g>
			<g>
				<path style="fill:#B9B9B9;" d="M44.9,53.3C45,53.3,45,53.4,44.9,53.3l-1.4,0.9c-0.1,0-0.2,0-0.2,0l-0.9-0.5
					c-0.1,0-0.1-0.1,0-0.1l1.4-0.8c0.1,0,0.2,0,0.2,0L44.9,53.3z"/>
			</g>
		</g>
	</g>
	<g>
		<g>
			<path style="fill:#B9B9B9;" d="M51.5,52.5c-0.2,0.1-0.2,0.3,0,0.4l4.1,2.4c0.2,0.1,0.5,0.1,0.7,0l6.4-3.7c0.2-0.1,0.2-0.3,0-0.4
				l-4.1-2.4c-0.2-0.1-0.5-0.1-0.7,0L51.5,52.5z"/>
		</g>
	</g>
	<g id="drapes_1_">
		
			<linearGradient id="SVGID_8_" gradientUnits="userSpaceOnUse" x1="-257.431" y1="81.6" x2="-251.9183" y2="81.6" gradientTransform="matrix(1 0 0 -1 309.3953 100)">
			<stop  offset="0" style="stop-color:#E95281"/>
			<stop  offset="1" style="stop-color:#BF3D62"/>
		</linearGradient>
		<path style="fill:url(#SVGID_8_);" d="M54.5,21.1C54.5,21.1,54.5,21,54.5,21.1c0-0.1,0-0.1,0-0.2c0,0,0,0,0-0.1v-0.1
			c0,0,0,0,0-0.1s0-0.2-0.1-0.3l0,0c0-0.1,0-0.1-0.1-0.2l0,0c0-0.1-0.1-0.1-0.1-0.2c0,0,0,0,0-0.1s0-0.1-0.1-0.2l0,0
			c0-0.1-0.1-0.1-0.1-0.2c0,0,0,0,0-0.1s-0.1-0.1-0.1-0.2l0,0c0-0.1-0.1-0.1-0.1-0.2l0,0c0-0.1-0.1-0.1-0.1-0.2l0,0
			c0-0.1-0.1-0.1-0.1-0.2l0,0c0-0.1-0.1-0.1-0.1-0.2l0,0c-0.1-0.1-0.1-0.2-0.2-0.2l0,0L53.2,18l0,0l-0.1-0.1l0,0
			c-0.1-0.1-0.1-0.1-0.2-0.2l0,0c-0.1-0.1-0.1-0.1-0.2-0.2l0,0c-0.1,0-0.1-0.1-0.2-0.1l0,0c-0.1,0-0.1-0.1-0.2-0.1l0,0l0,0l0,0
			l2.9-1.7c0.1,0,0.1,0.1,0.2,0.1l0,0c0.1,0,0.1,0.1,0.2,0.1l0,0c0.1,0.1,0.1,0.1,0.2,0.2l0,0c0.1,0.1,0.1,0.1,0.2,0.2l0,0l0,0
			l0.1,0.1l0,0l0.1,0.1l0,0l0,0c0.1,0.1,0.1,0.2,0.2,0.2l0,0l0,0c0.1,0.1,0.1,0.1,0.1,0.2l0,0l0,0c0,0.1,0.1,0.1,0.1,0.2l0,0l0,0
			c0,0.1,0.1,0.1,0.1,0.2l0,0l0,0c0,0.1,0.1,0.1,0.1,0.2l0,0l0,0c0,0.1,0.1,0.1,0.1,0.2l0,0l0,0c0,0.1,0.1,0.1,0.1,0.2l0,0l0,0
			c0,0.1,0,0.1,0.1,0.2l0,0l0,0c0,0.1,0.1,0.1,0.1,0.2l0,0l0,0c0,0.1,0,0.1,0.1,0.2l0,0l0,0c0,0.1,0,0.2,0.1,0.3l0,0l0,0v0.1
			c0,0,0,0,0,0.1V19c0,0,0,0,0,0.1l0,0c0,0.1,0,0.1,0,0.2l0,0c0,0.1,0,0.1,0,0.2l-2.9,1.7c0-0.1,0-0.1,0-0.2l0,0
			C54.5,21.2,54.5,21.2,54.5,21.1z"/>
		
			<linearGradient id="SVGID_9_" gradientUnits="userSpaceOnUse" x1="1052.6978" y1="79.9" x2="1058.2104" y2="79.9" gradientTransform="matrix(-1 0 0 -1 1107.2537 100)">
			<stop  offset="5.618000e-03" style="stop-color:#FAFCFF"/>
			<stop  offset="1" style="stop-color:#E5E8F5"/>
		</linearGradient>
		<path style="fill:url(#SVGID_9_);" d="M51.6,22.8C51.6,22.8,51.6,22.7,51.6,22.8c0-0.1,0-0.1,0-0.2c0,0,0,0,0-0.1v-0.1
			c0,0,0,0,0-0.1s0-0.2-0.1-0.3l0,0c0-0.1,0-0.1-0.1-0.2l0,0c0-0.1-0.1-0.1-0.1-0.2c0,0,0,0,0-0.1s0-0.1-0.1-0.2l0,0
			c0-0.1-0.1-0.1-0.1-0.2c0,0,0,0,0-0.1S51,20.9,51,20.8l0,0c0-0.1-0.1-0.1-0.1-0.2l0,0c0-0.1-0.1-0.1-0.1-0.2l0,0
			c0-0.1-0.1-0.1-0.1-0.2l0,0c0-0.1-0.1-0.1-0.1-0.2l0,0c-0.1-0.1-0.1-0.2-0.2-0.2l0,0l-0.1-0.1l0,0l-0.1-0.1l0,0
			c-0.1-0.1-0.1-0.1-0.2-0.2l0,0c-0.1-0.1-0.1-0.1-0.2-0.2l0,0c-0.1,0-0.1-0.1-0.2-0.1l0,0c-0.1,0-0.1-0.1-0.2-0.1l0,0l0,0l0,0
			l2.9-1.7c0.1,0,0.1,0.1,0.2,0.1l0,0c0.1,0,0.1,0.1,0.2,0.1l0,0c0.1,0.1,0.1,0.1,0.2,0.2l0,0c0.1,0.1,0.1,0.1,0.2,0.2l0,0l0,0
			l0.1,0.1l0,0l0.1,0.1l0,0l0,0c0.1,0.1,0.1,0.2,0.2,0.2l0,0l0,0c0.1,0.1,0.1,0.1,0.1,0.2l0,0l0,0c0,0.1,0.1,0.1,0.1,0.2l0,0l0,0
			c0,0.1,0.1,0.1,0.1,0.2l0,0l0,0c0,0.1,0.1,0.1,0.1,0.2l0,0l0,0c0,0.1,0.1,0.1,0.1,0.2l0,0l0,0c0,0.1,0.1,0.1,0.1,0.2l0,0l0,0
			c0,0.1,0,0.1,0.1,0.2l0,0l0,0c0,0.1,0.1,0.1,0.1,0.2l0,0l0,0c0,0.1,0,0.1,0.1,0.2l0,0l0,0c0,0.1,0,0.2,0.1,0.3l0,0l0,0v0.1
			c0,0,0,0,0,0.1v0.1c0,0,0,0,0,0.1l0,0c0,0.1,0,0.1,0,0.2l0,0c0,0.1,0,0.1,0,0.2l-2.9,1.7c0-0.1,0-0.1,0-0.2l0,0
			C51.6,22.9,51.6,22.8,51.6,22.8z"/>
		
			<linearGradient id="SVGID_10_" gradientUnits="userSpaceOnUse" x1="-263.2731" y1="78.2" x2="-257.7604" y2="78.2" gradientTransform="matrix(1 0 0 -1 309.3953 100)">
			<stop  offset="0" style="stop-color:#E95281"/>
			<stop  offset="1" style="stop-color:#BF3D62"/>
		</linearGradient>
		<path style="fill:url(#SVGID_10_);" d="M48.7,24.5C48.7,24.4,48.7,24.4,48.7,24.5c0-0.1,0-0.1,0-0.2c0,0,0,0,0-0.1v-0.1
			c0,0,0,0,0-0.1s0-0.2-0.1-0.3l0,0c0-0.1,0-0.1-0.1-0.2l0,0c0-0.1-0.1-0.1-0.1-0.2c0,0,0,0,0-0.1s0-0.1-0.1-0.2l0,0
			c0-0.1-0.1-0.1-0.1-0.2c0,0,0,0,0-0.1s-0.1-0.1-0.1-0.2l0,0c0-0.1-0.1-0.1-0.1-0.2l0,0c0-0.1-0.1-0.1-0.1-0.2l0,0
			c0-0.1-0.1-0.1-0.1-0.2l0,0c0-0.1-0.1-0.1-0.1-0.2l0,0c-0.1-0.1-0.1-0.2-0.2-0.2l0,0l-0.1-0.1l0,0l-0.1-0.1l0,0
			c-0.1-0.1-0.1-0.1-0.2-0.2l0,0C47,21,47,21,46.9,20.9l0,0c-0.1,0-0.1-0.1-0.2-0.1l0,0c-0.1,0-0.1-0.1-0.2-0.1l0,0l0,0l0,0l2.9-1.7
			c0.1,0,0.1,0.1,0.2,0.1l0,0c0.1,0,0.1,0.1,0.2,0.1l0,0c0.1,0.1,0.1,0.1,0.2,0.2l0,0c0.1,0.1,0.1,0.1,0.2,0.2l0,0l0,0l0.1,0.1l0,0
			l0.1,0.1l0,0l0,0c0.1,0.1,0.1,0.2,0.2,0.2l0,0l0,0c0.1,0.1,0.1,0.1,0.1,0.2l0,0l0,0c0,0.1,0.1,0.1,0.1,0.2l0,0l0,0
			c0,0.1,0.1,0.1,0.1,0.2l0,0l0,0c0,0.1,0.1,0.1,0.1,0.2l0,0l0,0c0,0.1,0.1,0.1,0.1,0.2l0,0l0,0c0,0.1,0.1,0.1,0.1,0.2l0,0l0,0
			c0,0.1,0,0.1,0.1,0.2l0,0l0,0c0,0.1,0.1,0.1,0.1,0.2l0,0l0,0c0,0.1,0,0.1,0.1,0.2l0,0l0,0c0,0.1,0,0.2,0.1,0.3l0,0l0,0v0.1
			c0,0,0,0,0,0.1v0.1c0,0,0,0,0,0.1l0,0c0,0.1,0,0.1,0,0.2l0,0c0,0.1,0,0.1,0,0.2l-2.9,1.7c0-0.1,0-0.1,0-0.2l0,0
			C48.7,24.6,48.7,24.5,48.7,24.5z"/>
		
			<linearGradient id="SVGID_11_" gradientUnits="userSpaceOnUse" x1="1058.5399" y1="76.6" x2="1064.0526" y2="76.6" gradientTransform="matrix(-1 0 0 -1 1107.2537 100)">
			<stop  offset="5.618000e-03" style="stop-color:#FAFCFF"/>
			<stop  offset="1" style="stop-color:#E5E8F5"/>
		</linearGradient>
		<path style="fill:url(#SVGID_11_);" d="M45.8,26.1L45.8,26.1c0-0.1,0-0.1,0-0.2c0,0,0,0,0-0.1v-0.1c0,0,0,0,0-0.1s0-0.2-0.1-0.3
			l0,0c0-0.1,0-0.1-0.1-0.2l0,0c0-0.1-0.1-0.1-0.1-0.2c0,0,0,0,0-0.1s0-0.1-0.1-0.2l0,0c0-0.1-0.1-0.1-0.1-0.2c0,0,0,0,0-0.1
			s-0.1-0.1-0.1-0.2l0,0c0-0.1-0.1-0.1-0.1-0.2l0,0c0-0.1-0.1-0.1-0.1-0.2l0,0c0-0.1-0.1-0.1-0.1-0.2l0,0c0-0.1-0.1-0.1-0.1-0.2l0,0
			c-0.1-0.1-0.1-0.2-0.2-0.2l0,0L44.5,23l0,0l-0.1-0.1l0,0c-0.1-0.1-0.1-0.1-0.2-0.2l0,0c-0.1-0.1-0.1-0.1-0.2-0.2l0,0
			c-0.1,0-0.1-0.1-0.2-0.1l0,0c-0.1,0-0.1-0.1-0.2-0.1l0,0l0,0l0,0l2.9-1.7c0.1,0,0.1,0.1,0.2,0.1l0,0c0.1,0,0.1,0.1,0.2,0.1l0,0
			c0.1,0.1,0.1,0.1,0.2,0.2l0,0c0.1,0.1,0.1,0.1,0.2,0.2l0,0l0,0l0.1,0.1l0,0l0.1,0.1l0,0l0,0c0.1,0.1,0.1,0.2,0.2,0.2l0,0l0,0
			c0.1,0.1,0.1,0.1,0.1,0.2l0,0l0,0c0,0.1,0.1,0.1,0.1,0.2l0,0l0,0c0,0.1,0.1,0.1,0.1,0.2l0,0l0,0c0,0.1,0.1,0.1,0.1,0.2l0,0l0,0
			c0,0.1,0.1,0.1,0.1,0.2l0,0l0,0c0,0.1,0.1,0.1,0.1,0.2l0,0l0,0c0,0.1,0,0.1,0.1,0.2l0,0l0,0c0,0.1,0.1,0.1,0.1,0.2l0,0l0,0
			c0,0.1,0,0.1,0.1,0.2l0,0l0,0c0,0.1,0,0.2,0.1,0.3l0,0l0,0v0.1c0,0,0,0,0,0.1V24c0,0,0,0,0,0.1l0,0c0,0.1,0,0.1,0,0.2l0,0
			c0,0.1,0,0.1,0,0.2l-2.9,1.7c0-0.1,0-0.1,0-0.2l0,0C45.8,26.3,45.8,26.2,45.8,26.1z"/>
		
			<linearGradient id="SVGID_12_" gradientUnits="userSpaceOnUse" x1="-269.1153" y1="74.9" x2="-263.6026" y2="74.9" gradientTransform="matrix(1 0 0 -1 309.3953 100)">
			<stop  offset="0" style="stop-color:#E95281"/>
			<stop  offset="1" style="stop-color:#BF3D62"/>
		</linearGradient>
		<path style="fill:url(#SVGID_12_);" d="M42.8,27.8L42.8,27.8c0-0.1,0-0.1,0-0.2c0,0,0,0,0-0.1v-0.1c0,0,0,0,0-0.1s0-0.2-0.1-0.3
			l0,0c0-0.1,0-0.1-0.1-0.2l0,0c0-0.1-0.1-0.1-0.1-0.2c0,0,0,0,0-0.1s0-0.1-0.1-0.2l0,0c0-0.1-0.1-0.1-0.1-0.2c0,0,0,0,0-0.1
			s-0.1-0.1-0.1-0.2l0,0c0-0.1-0.1-0.1-0.1-0.2l0,0c0-0.1-0.1-0.1-0.1-0.2l0,0c0-0.1-0.1-0.1-0.1-0.2l0,0c0-0.1-0.1-0.1-0.1-0.2l0,0
			c-0.1-0.1-0.1-0.2-0.2-0.2l0,0l-0.1-0.1l0,0l-0.1-0.1l0,0c-0.1-0.1-0.1-0.1-0.2-0.2l0,0c-0.1-0.1-0.1-0.1-0.2-0.2l0,0
			c-0.1,0-0.1-0.1-0.2-0.1l0,0c-0.1,0-0.1-0.1-0.2-0.1l0,0l0,0l0,0l2.9-1.7c0.1,0,0.1,0.1,0.2,0.1l0,0c0.1,0,0.1,0.1,0.2,0.1l0,0
			c0.1,0.1,0.1,0.1,0.2,0.2l0,0c0.1,0.1,0.1,0.1,0.2,0.2l0,0l0,0l0.1,0.1l0,0l0.1,0.1l0,0l0,0c0.1,0.1,0.1,0.2,0.2,0.2l0,0l0,0
			c0.1,0.1,0.1,0.1,0.1,0.2l0,0l0,0c0,0.1,0.1,0.1,0.1,0.2l0,0l0,0c0,0.1,0.1,0.1,0.1,0.2l0,0l0,0c0,0.1,0.1,0.1,0.1,0.2l0,0l0,0
			c0,0.1,0.1,0.1,0.1,0.2l0,0l0,0c0,0.1,0.1,0.1,0.1,0.2l0,0l0,0c0,0.1,0,0.1,0.1,0.2l0,0l0,0c0,0.1,0.1,0.1,0.1,0.2l0,0l0,0
			c0,0.1,0,0.1,0.1,0.2l0,0l0,0c0,0.1,0,0.2,0.1,0.3l0,0l0,0v0.1c0,0,0,0,0,0.1v0.1c0,0,0,0,0,0.1l0,0c0,0.1,0,0.1,0,0.2l0,0
			c0,0.1,0,0.1,0,0.2l-2.9,1.7c0-0.1,0-0.1,0-0.2l0,0C42.9,28,42.8,27.9,42.8,27.8z"/>
		
			<linearGradient id="SVGID_13_" gradientUnits="userSpaceOnUse" x1="1064.3821" y1="73.05" x2="1069.8948" y2="73.05" gradientTransform="matrix(-1 0 0 -1 1107.2537 100)">
			<stop  offset="5.618000e-03" style="stop-color:#FAFCFF"/>
			<stop  offset="1" style="stop-color:#E5E8F5"/>
		</linearGradient>
		<path style="fill:url(#SVGID_13_);" d="M39.9,29.5L39.9,29.5c0-0.1,0-0.1,0-0.2c0,0,0,0,0-0.1v-0.1c0,0,0,0,0-0.1s0-0.2-0.1-0.3
			l0,0c0-0.1,0-0.1-0.1-0.2l0,0c0-0.1-0.1-0.1-0.1-0.2c0,0,0,0,0-0.1s0-0.1-0.1-0.2l0,0c0-0.1-0.1-0.1-0.1-0.2c0,0,0,0,0-0.1
			s-0.1-0.1-0.1-0.2l0,0c0-0.1-0.1-0.1-0.1-0.2l0,0c0-0.1-0.1-0.1-0.1-0.2l0,0c0-0.1-0.1-0.1-0.1-0.2l0,0c0-0.1-0.1-0.1-0.1-0.2l0,0
			c-0.1-0.1-0.1-0.2-0.2-0.2l0,0l-0.1-0.1l0,0l-0.1-0.1l0,0C38.1,26.1,38.1,26,38,26l0,0c-0.1-0.1-0.1-0.1-0.2-0.2l0,0
			c-0.1,0-0.1-0.1-0.2-0.1l0,0c-0.1,0-0.1-0.1-0.2-0.1l0,0l0,0l0,0l2.9-1.7c0.1,0,0.1,0.1,0.2,0.1l0,0c0.1,0,0.1,0.1,0.2,0.1l0,0
			c0.1,0.1,0.1,0.1,0.2,0.2l0,0c0.1,0.1,0.1,0.1,0.2,0.2l0,0l0,0l0.1,0.1l0,0l0.1,0.1l0,0l0,0c0.1,0.1,0.1,0.2,0.2,0.2l0,0l0,0
			c0.1,0.1,0.1,0.1,0.1,0.2l0,0l0,0c0,0.1,0.1,0.1,0.1,0.2l0,0l0,0c0,0.1,0.1,0.1,0.1,0.2l0,0l0,0c0,0.1,0.1,0.1,0.1,0.2l0,0l0,0
			c0,0.1,0.1,0.1,0.1,0.2l0,0l0,0c0,0.1,0.1,0.1,0.1,0.2l0,0l0,0c0,0.1,0,0.1,0.1,0.2l0,0l0,0c0,0.1,0.1,0.1,0.1,0.2l0,0l0,0
			c0,0.1,0,0.1,0.1,0.2l0,0l0,0c0,0.1,0,0.2,0.1,0.3l0,0l0,0v0.1c0,0,0,0,0,0.1v0.1c0,0,0,0,0,0.1l0,0c0,0.1,0,0.1,0,0.2l0,0
			c0,0.1,0,0.1,0,0.2L39.9,30c0-0.1,0-0.1,0-0.2l0,0C39.9,29.6,39.9,29.6,39.9,29.5z"/>
		
			<linearGradient id="SVGID_14_" gradientUnits="userSpaceOnUse" x1="-274.9574" y1="71.3" x2="-269.4447" y2="71.3" gradientTransform="matrix(1 0 0 -1 309.3953 100)">
			<stop  offset="0" style="stop-color:#E95281"/>
			<stop  offset="1" style="stop-color:#BF3D62"/>
		</linearGradient>
		<path style="fill:url(#SVGID_14_);" d="M37,31.2C37,31.2,37,31.1,37,31.2c0-0.1,0-0.1,0-0.2c0,0,0,0,0-0.1v-0.1c0,0,0,0,0-0.1
			s0-0.2-0.1-0.3l0,0c0-0.1,0-0.1-0.1-0.2l0,0c0-0.1-0.1-0.1-0.1-0.2c0,0,0,0,0-0.1s0-0.1-0.1-0.2l0,0c0-0.1-0.1-0.1-0.1-0.2
			c0,0,0,0,0-0.1s-0.1-0.1-0.1-0.2l0,0c0-0.1-0.1-0.1-0.1-0.2l0,0c0-0.1-0.1-0.1-0.1-0.2l0,0c0-0.1-0.1-0.1-0.1-0.2l0,0
			c0-0.1-0.1-0.1-0.1-0.2l0,0c-0.1-0.1-0.1-0.2-0.2-0.2l0,0l-0.1-0.1l0,0L35.6,28l0,0c-0.1-0.1-0.1-0.1-0.2-0.2l0,0
			c-0.1-0.1-0.1-0.1-0.2-0.2l0,0c-0.1,0-0.1-0.1-0.2-0.1l0,0c-0.1,0-0.1-0.1-0.2-0.1l0,0l0,0l0,0l2.9-1.7c0.1,0,0.1,0.1,0.2,0.1l0,0
			c0.1,0,0.1,0.1,0.2,0.1l0,0c0.1,0.1,0.1,0.1,0.2,0.2l0,0c0.1,0.1,0.1,0.1,0.2,0.2l0,0l0,0l0.1,0.1l0,0l0.1,0.1l0,0l0,0
			c0.1,0.1,0.1,0.2,0.2,0.2l0,0l0,0c0.1,0.1,0.1,0.1,0.1,0.2l0,0l0,0c0,0.1,0.1,0.1,0.1,0.2l0,0l0,0c0,0.1,0.1,0.1,0.1,0.2l0,0l0,0
			c0,0.1,0.1,0.1,0.1,0.2l0,0l0,0c0,0.1,0.1,0.1,0.1,0.2l0,0l0,0c0,0.1,0.1,0.1,0.1,0.2l0,0l0,0c0,0.1,0,0.1,0.1,0.2l0,0l0,0
			c0,0.1,0.1,0.1,0.1,0.2l0,0l0,0c0,0.1,0,0.1,0.1,0.2l0,0l0,0c0,0.1,0,0.2,0.1,0.3l0,0l0,0v0.1c0,0,0,0,0,0.1v0.1c0,0,0,0,0,0.1
			l0,0c0,0.1,0,0.1,0,0.2l0,0c0,0.1,0,0.1,0,0.2L37,31.7c0-0.1,0-0.1,0-0.2l0,0C37,31.3,37,31.3,37,31.2z"/>
		
			<linearGradient id="SVGID_15_" gradientUnits="userSpaceOnUse" x1="1070.2241" y1="69.8" x2="1075.7368" y2="69.8" gradientTransform="matrix(-1 0 0 -1 1107.2537 100)">
			<stop  offset="5.618000e-03" style="stop-color:#FAFCFF"/>
			<stop  offset="1" style="stop-color:#E5E8F5"/>
		</linearGradient>
		<path style="fill:url(#SVGID_15_);" d="M34.1,32.9C34.1,32.8,34.1,32.8,34.1,32.9c0-0.1,0-0.1,0-0.2c0,0,0,0,0-0.1v-0.1
			c0,0,0,0,0-0.1s0-0.2-0.1-0.3l0,0c0-0.1,0-0.1-0.1-0.2l0,0c0-0.1-0.1-0.1-0.1-0.2c0,0,0,0,0-0.1s0-0.1-0.1-0.2l0,0
			c0-0.1-0.1-0.1-0.1-0.2c0,0,0,0,0-0.1s-0.1-0.1-0.1-0.2l0,0c0-0.1-0.1-0.1-0.1-0.2l0,0c0-0.1-0.1-0.1-0.1-0.2l0,0
			c0-0.1-0.1-0.1-0.1-0.2l0,0c0-0.1-0.1-0.1-0.1-0.2l0,0C33,30,33,29.9,32.9,29.9l0,0l-0.1-0.1l0,0l-0.1-0.1l0,0
			c-0.1-0.1-0.1-0.1-0.2-0.2l0,0c-0.1-0.1-0.1-0.1-0.2-0.2l0,0c-0.1,0-0.1-0.1-0.2-0.1l0,0c-0.1,0-0.1-0.1-0.2-0.1l0,0l0,0l0,0
			l2.9-1.7c0.1,0,0.1,0.1,0.2,0.1l0,0c0.1,0,0.1,0.1,0.2,0.1l0,0c0.1,0.1,0.1,0.1,0.2,0.2l0,0c0.1,0.1,0.1,0.1,0.2,0.2l0,0l0,0
			l0.1,0.1l0,0l0.1,0.1l0,0l0,0c0.1,0.1,0.1,0.2,0.2,0.2l0,0l0,0c0.1,0.1,0.1,0.1,0.1,0.2l0,0l0,0c0,0.1,0.1,0.1,0.1,0.2l0,0l0,0
			c0,0.1,0.1,0.1,0.1,0.2l0,0l0,0c0,0.1,0.1,0.1,0.1,0.2l0,0l0,0c0,0.1,0.1,0.1,0.1,0.2l0,0l0,0c0,0.1,0.1,0.1,0.1,0.2l0,0l0,0
			c0,0.1,0,0.1,0.1,0.2l0,0l0,0c0,0.1,0.1,0.1,0.1,0.2l0,0l0,0c0,0.1,0,0.1,0.1,0.2l0,0l0,0c0,0.1,0,0.2,0.1,0.3l0,0l0,0v0.1
			c0,0,0,0,0,0.1v0.1c0,0,0,0,0,0.1l0,0c0,0.1,0,0.1,0,0.2l0,0c0,0.1,0,0.1,0,0.2L34.1,33C34.1,32.9,34.1,32.9,34.1,32.9L34.1,32.9
			C34.1,33,34.1,32.9,34.1,32.9z"/>
		
			<linearGradient id="SVGID_16_" gradientUnits="userSpaceOnUse" x1="-280.8207" y1="67.25" x2="-278.2106" y2="67.25" gradientTransform="matrix(1 0 0 -1 309.3953 100)">
			<stop  offset="0" style="stop-color:#E95281"/>
			<stop  offset="1" style="stop-color:#BF3D62"/>
		</linearGradient>
		<path style="fill:url(#SVGID_16_);" d="M28.6,30.5v3l2.6,1.5C31.2,33.4,30,31.3,28.6,30.5z"/>
		
			<linearGradient id="SVGID_17_" gradientUnits="userSpaceOnUse" x1="-280.7995" y1="68" x2="-275.2868" y2="68" gradientTransform="matrix(1 0 0 -1 309.3953 100)">
			<stop  offset="0" style="stop-color:#E95281"/>
			<stop  offset="1" style="stop-color:#BF3D62"/>
		</linearGradient>
		<path style="fill:url(#SVGID_17_);" d="M31.2,34.5C31.2,34.5,31.1,34.5,31.2,34.5c0-0.1,0-0.1,0-0.2c0,0,0,0,0-0.1v-0.1
			c0,0,0,0,0-0.1s0-0.2-0.1-0.3l0,0c0-0.1,0-0.1-0.1-0.2l0,0c0-0.1-0.1-0.1-0.1-0.2c0,0,0,0,0-0.1s0-0.1-0.1-0.2l0,0
			c0-0.1-0.1-0.1-0.1-0.2c0,0,0,0,0-0.1s-0.1-0.1-0.1-0.2l0,0c0-0.1-0.1-0.1-0.1-0.2l0,0c0-0.1-0.1-0.1-0.1-0.2l0,0
			c0-0.1-0.1-0.1-0.1-0.2l0,0c0-0.1-0.1-0.1-0.1-0.2l0,0c-0.1-0.1-0.1-0.2-0.2-0.2l0,0l-0.1-0.1l0,0l-0.1-0.1l0,0
			c-0.1-0.1-0.1-0.1-0.2-0.2l0,0c-0.1-0.1-0.1-0.1-0.2-0.2l0,0c-0.1,0-0.1-0.1-0.2-0.1l0,0c-0.1,0-0.1-0.1-0.2-0.1l0,0l0,0l0,0
			l2.9-1.7c0.1,0,0.1,0.1,0.2,0.1l0,0c0.1,0,0.1,0.1,0.2,0.1l0,0c0.1,0.1,0.1,0.1,0.2,0.2l0,0c0.1,0.1,0.1,0.1,0.2,0.2l0,0l0,0
			l0.1,0.1l0,0l0.1,0.1l0,0l0,0C33,29.9,33,30,33.1,30l0,0l0,0c0.1,0.1,0.1,0.1,0.1,0.2l0,0l0,0c0,0.1,0.1,0.1,0.1,0.2l0,0l0,0
			c0,0.1,0.1,0.1,0.1,0.2l0,0l0,0c0,0.1,0.1,0.1,0.1,0.2l0,0l0,0c0,0.1,0.1,0.1,0.1,0.2l0,0l0,0c0,0.1,0.1,0.1,0.1,0.2l0,0l0,0
			c0,0.1,0,0.1,0.1,0.2l0,0l0,0c0,0.1,0.1,0.1,0.1,0.2l0,0l0,0c0,0.1,0,0.1,0.1,0.2l0,0l0,0c0,0.1,0,0.2,0.1,0.3l0,0l0,0v0.1
			c0,0,0,0,0,0.1v0.1c0,0,0,0,0,0.1l0,0c0,0.1,0,0.1,0,0.2l0,0c0,0.1,0,0.1,0,0.2L31.2,35c0-0.1,0-0.1,0-0.2l0,0
			C31.2,34.7,31.2,34.6,31.2,34.5z"/>
	</g>
</g>
</svg>
