<?xml version="1.0" encoding="utf-8"?>
<!-- Generator: Adobe Illustrator 23.0.1, SVG Export Plug-In . SVG Version: 6.00 Build 0)  -->
<svg version="1.1" id="Layer_1" xmlns="http://www.w3.org/2000/svg" xmlns:xlink="http://www.w3.org/1999/xlink" x="0px" y="0px"
	 viewBox="0 0 100 100" style="enable-background:new 0 0 100 100;" xml:space="preserve">
<g id="panel-controlleur-woman_1_">
	<g id="computer_4_">
		<g id="shade_32_">
			
				<linearGradient id="SVGID_1_" gradientUnits="userSpaceOnUse" x1="-379.4756" y1="27.7" x2="-428.3966" y2="27.7" gradientTransform="matrix(1 0 0 -1 469.5155 100)">
				<stop  offset="0" style="stop-color:#00714C;stop-opacity:0.5"/>
				<stop  offset="0.2916" style="stop-color:#046B4A;stop-opacity:0.354"/>
				<stop  offset="0.6846" style="stop-color:#115A43;stop-opacity:0.1571"/>
				<stop  offset="0.9983" style="stop-color:#1E473C;stop-opacity:0"/>
			</linearGradient>
			<path style="opacity:0.5;fill:url(#SVGID_1_);enable-background:new    ;" d="M38.3,86.7h13.6c2.1,0,4.2-0.6,6.1-1.6l24.5-14
				l-22-13.2L38.3,86.7z"/>
			
				<linearGradient id="SVGID_2_" gradientUnits="userSpaceOnUse" x1="-747.5839" y1="22.1522" x2="-739.7429" y2="17.6955" gradientTransform="matrix(1 0 0 -1 775.3595 100)">
				<stop  offset="2.096873e-02" style="stop-color:#283578"/>
				<stop  offset="0.1827" style="stop-color:#293A7C;stop-opacity:0.8348"/>
				<stop  offset="0.3734" style="stop-color:#2C4889;stop-opacity:0.6401"/>
				<stop  offset="0.5786" style="stop-color:#31609E;stop-opacity:0.4304"/>
				<stop  offset="0.7927" style="stop-color:#3881BC;stop-opacity:0.2118"/>
				<stop  offset="1" style="stop-color:#41A8DF;stop-opacity:0"/>
			</linearGradient>
			<polygon style="opacity:0.2;fill:url(#SVGID_2_);enable-background:new    ;" points="29.8,84.5 37.5,84.8 37.6,78.3 33.5,75.6 
				33.5,82.3 			"/>
		</g>
		<g id="machine_1_">
			
				<linearGradient id="SVGID_3_" gradientUnits="userSpaceOnUse" x1="-757.0484" y1="38.0989" x2="-701.3778" y2="25.6365" gradientTransform="matrix(1 0 0 -1 775.3595 100)">
				<stop  offset="5.227065e-03" style="stop-color:#E1F8EA"/>
				<stop  offset="1" style="stop-color:#6EB768"/>
			</linearGradient>
			<path style="fill:url(#SVGID_3_);" d="M42.8,86.3l25.1-14.5c0.8-0.5,1.3-1.4,1.3-2.3V56.1l-3.1-3.2L37.3,69.1l2.5,17.2l0,0
				C40.8,86.8,41.9,86.8,42.8,86.3z"/>
			
				<linearGradient id="SVGID_4_" gradientUnits="userSpaceOnUse" x1="-750.706" y1="29.4953" x2="-732.2422" y2="27.7899" gradientTransform="matrix(1 0 0 -1 775.3595 100)">
				<stop  offset="5.227065e-03" style="stop-color:#E1F8EA"/>
				<stop  offset="1" style="stop-color:#6EB768"/>
			</linearGradient>
			<path style="fill:url(#SVGID_4_);" d="M23.5,56.1v18.2c0,1.2,0.6,2.2,1.6,2.8l14.7,9c0.6,0.4,1.5-0.1,1.5-0.8V72.1L23.5,56.1z"/>
			<path style="fill:#57AD5C;" d="M42.5,72.2L68.7,57c0.6-0.3,0.7-1.1,0.2-1.6L52.1,40.3c-0.6-0.5-1.4-0.6-2-0.2l-25.9,15
				c-0.8,0.5-1,1.6-0.2,2.3L40.2,72C40.9,72.5,41.8,72.6,42.5,72.2z"/>
			
				<linearGradient id="SVGID_5_" gradientUnits="userSpaceOnUse" x1="-734.8052" y1="28.3155" x2="-719.1844" y2="69.5852" gradientTransform="matrix(1 0 0 -1 775.3595 100)">
				<stop  offset="6.297816e-03" style="stop-color:#7FBF7C"/>
				<stop  offset="1" style="stop-color:#E9F4F3"/>
			</linearGradient>
			<path style="fill:url(#SVGID_5_);" d="M42.8,70.6l24.1-14c0.5-0.3,0.6-1.1,0.2-1.5L51.9,41.6c-0.5-0.5-1.3-0.5-1.8-0.2L26.3,55.2
				c-0.8,0.4-0.9,1.5-0.2,2.1l14.6,13.1C41.3,70.9,42.2,71,42.8,70.6z"/>
			
				<linearGradient id="SVGID_6_" gradientUnits="userSpaceOnUse" x1="-729.3724" y1="8.7508" x2="-717.9863" y2="60.4056" gradientTransform="matrix(1 0 0 -1 775.3595 100)">
				<stop  offset="5.742611e-03" style="stop-color:#618256"/>
				<stop  offset="1" style="stop-color:#377F58"/>
			</linearGradient>
			<path style="fill:url(#SVGID_6_);" d="M64.3,52.7L37.6,67.6l3.1,2.7c0,0,1,0.9,2.3,0.2s23.9-13.9,23.9-13.9s1-0.8,0.2-1.6
				C66.2,54.3,64.3,52.7,64.3,52.7z"/>
		</g>
		<g id="box-on-side_1_">
			
				<linearGradient id="SVGID_7_" gradientUnits="userSpaceOnUse" x1="913.1204" y1="21.8" x2="906.494" y2="21.8" gradientTransform="matrix(-1 0 0 -1 936.7361 100)">
				<stop  offset="6.297816e-03" style="stop-color:#8FC07D"/>
				<stop  offset="1" style="stop-color:#377F58"/>
			</linearGradient>
			<path style="fill:url(#SVGID_7_);" d="M30.2,79.2L24,75.5c0,0-0.5,0.8-0.5,1.6l6.1,3.8C29.8,80.8,29.8,79.9,30.2,79.2z"/>
			
				<linearGradient id="SVGID_8_" gradientUnits="userSpaceOnUse" x1="913.121" y1="21.8" x2="903.2343" y2="21.8" gradientTransform="matrix(-1 0 0 -1 936.7361 100)">
				<stop  offset="6.297816e-03" style="stop-color:#8FC07D"/>
				<stop  offset="1" style="stop-color:#377F58"/>
			</linearGradient>
			<path style="fill:url(#SVGID_8_);" d="M27.4,71.8l6.1,3.8l-3.1,7l-0.7,2l-6.1-3.8V77c0,0-0.1-1.1,0.9-2.2
				C25.6,73.7,27.4,71.8,27.4,71.8z"/>
			
				<linearGradient id="SVGID_9_" gradientUnits="userSpaceOnUse" x1="906.981" y1="19.9" x2="903.2343" y2="19.9" gradientTransform="matrix(-1 0 0 -1 936.7361 100)">
				<stop  offset="6.297816e-03" style="stop-color:#8FC07D"/>
				<stop  offset="1" style="stop-color:#377F58"/>
			</linearGradient>
			<path style="fill:url(#SVGID_9_);" d="M33.5,75.6v6.8l-3.7,2.2v-3.7c0-0.7,0.4-1.6,0.9-2.2L33.5,75.6z"/>
			<g id="lights_45_">
				
					<linearGradient id="SVGID_10_" gradientUnits="userSpaceOnUse" x1="297.4974" y1="21.3491" x2="298.9588" y2="19.8877" gradientTransform="matrix(-1 0 0 -1 323.0966 100)">
					<stop  offset="5.376340e-03" style="stop-color:#EB6583"/>
					<stop  offset="0.1237" style="stop-color:#ED7588"/>
					<stop  offset="0.5242" style="stop-color:#F5A696"/>
					<stop  offset="0.829" style="stop-color:#F9C5A0"/>
					<stop  offset="1" style="stop-color:#FBD0A3"/>
				</linearGradient>
				<polygon style="fill:url(#SVGID_10_);" points="24.9,79.3 25.4,79.6 25.4,78.9 24.9,78.6 				"/>
				
					<linearGradient id="SVGID_11_" gradientUnits="userSpaceOnUse" x1="-748.6989" y1="18.6809" x2="-749.4174" y2="20.5505" gradientTransform="matrix(1 0 0 -1 775.3595 100)">
					<stop  offset="5.742611e-03" style="stop-color:#618256"/>
					<stop  offset="1" style="stop-color:#377F58"/>
				</linearGradient>
				<polygon style="fill:url(#SVGID_11_);" points="25.7,79.8 26.3,80.1 26.3,79.4 25.7,79.1 				"/>
				
					<linearGradient id="SVGID_12_" gradientUnits="userSpaceOnUse" x1="-746.7952" y1="17.6213" x2="-747.5137" y2="19.4909" gradientTransform="matrix(1 0 0 -1 775.3595 100)">
					<stop  offset="5.742611e-03" style="stop-color:#618256"/>
					<stop  offset="1" style="stop-color:#377F58"/>
				</linearGradient>
				<polygon style="fill:url(#SVGID_12_);" points="27.6,80.8 28.2,81.2 28.2,80.5 27.6,80.2 				"/>
				
					<linearGradient id="SVGID_13_" gradientUnits="userSpaceOnUse" x1="-747.7601" y1="18.16" x2="-748.4785" y2="20.0296" gradientTransform="matrix(1 0 0 -1 775.3595 100)">
					<stop  offset="5.742611e-03" style="stop-color:#618256"/>
					<stop  offset="1" style="stop-color:#377F58"/>
				</linearGradient>
				<polygon style="fill:url(#SVGID_13_);" points="26.7,80.3 27.2,80.6 27.2,80 26.7,79.6 				"/>
			</g>
		</g>
	</g>
</g>
</svg>
