<?xml version="1.0" encoding="utf-8"?>
<!-- Generator: Adobe Illustrator 23.0.1, SVG Export Plug-In . SVG Version: 6.00 Build 0)  -->
<svg version="1.1" id="Layer_1" xmlns="http://www.w3.org/2000/svg" xmlns:xlink="http://www.w3.org/1999/xlink" x="0px" y="0px"
	 viewBox="0 0 100 100" style="enable-background:new 0 0 100 100;" xml:space="preserve">
<path style="fill:#E2F2F8;" d="M8.2,66.1l6.3,3.6c0.5,0.3,1.1,0.3,1.5,0l0,0c0.3-0.3,0.2-0.7-0.2-1l-6.3-3.6c-0.5-0.3-1.1-0.3-1.5,0
	l0,0C7.6,65.4,7.7,65.8,8.2,66.1z"/>
<linearGradient id="SVGID_1_" gradientUnits="userSpaceOnUse" x1="292.8524" y1="35.1624" x2="284.095" y2="30.523" gradientTransform="matrix(-1 0 0 -1 299.9656 100)">
	<stop  offset="5.742611e-03" style="stop-color:#618256"/>
	<stop  offset="1" style="stop-color:#377F58"/>
</linearGradient>
<path style="fill:url(#SVGID_1_);" d="M8.2,66.1l6.3,3.6c0.5,0.3,1.1,0.3,1.5,0l0,0c0.3-0.3,0.2-0.7-0.3-1l-6.3-3.6
	c-0.5-0.3-1.1-0.3-1.5,0l0,0C7.6,65.4,7.8,65.9,8.2,66.1z"/>
</svg>
