<?xml version="1.0" encoding="utf-8"?>
<!-- Generator: Adobe Illustrator 23.0.1, SVG Export Plug-In . SVG Version: 6.00 Build 0)  -->
<svg version="1.1" id="Layer_1" xmlns="http://www.w3.org/2000/svg" xmlns:xlink="http://www.w3.org/1999/xlink" x="0px" y="0px"
	 viewBox="0 0 100 100" style="enable-background:new 0 0 100 100;" xml:space="preserve">
<style type="text/css">
	.st0{fill:url(#SVGID_1_);}
	.st1{fill:url(#SVGID_2_);}
	.st2{fill:url(#SVGID_3_);}
	.st3{fill:url(#SVGID_4_);}
	.st4{fill:url(#SVGID_5_);}
	.st5{fill:url(#SVGID_6_);}
</style>
<g id="chimneys_1_">
	<g id="_x33__6_">
		<g id="ch_8_">
			
				<linearGradient id="SVGID_1_" gradientUnits="userSpaceOnUse" x1="-265.0071" y1="68.85" x2="-260.8647" y2="68.85" gradientTransform="matrix(1 0 0 -1 309.3953 100)">
				<stop  offset="6.297816e-03" style="stop-color:#8FC07D"/>
				<stop  offset="0.1872" style="stop-color:#74AC72"/>
				<stop  offset="0.5394" style="stop-color:#377F58"/>
			</linearGradient>
			<path class="st0" d="M45,30.3L45,30.3c-0.8,0.5-0.8,1.2,0,1.7s2.1,0.5,2.9,0l0,0c0.8-0.5,0.8-1.2,0-1.7
				C47.1,29.8,45.8,29.8,45,30.3z"/>
			
				<linearGradient id="SVGID_2_" gradientUnits="userSpaceOnUse" x1="769.1964" y1="68.9" x2="772.7045" y2="68.9" gradientTransform="matrix(-1 0 0 -1 817.4098 100)">
				<stop  offset="6.297816e-03" style="stop-color:#7FBF7C"/>
				<stop  offset="1" style="stop-color:#E9F4F3"/>
			</linearGradient>
			<path class="st1" d="M45.2,30.4L45.2,30.4c-0.7,0.4-0.7,1,0,1.4c0.7,0.4,1.8,0.4,2.5,0l0,0c0.7-0.4,0.7-1,0-1.4
				S45.9,30,45.2,30.4z"/>
			
				<linearGradient id="SVGID_3_" gradientUnits="userSpaceOnUse" x1="769.1965" y1="71.95" x2="772.7045" y2="71.95" gradientTransform="matrix(-1 0 0 -1 817.4098 100)">
				<stop  offset="6.297816e-03" style="stop-color:#7FBF7C"/>
				<stop  offset="1" style="stop-color:#E9F4F3"/>
			</linearGradient>
			<polygon class="st2" points="45.2,25 44.7,31.1 46.5,31.1 48.2,31.1 47.7,25 46.5,25 			"/>
			
				<linearGradient id="SVGID_4_" gradientUnits="userSpaceOnUse" x1="769.6787" y1="75" x2="772.2222" y2="75" gradientTransform="matrix(-1 0 0 -1 817.4098 100)">
				<stop  offset="5.742611e-03" style="stop-color:#618256"/>
				<stop  offset="1" style="stop-color:#377F58"/>
			</linearGradient>
			<path class="st3" d="M45.6,24.5L45.6,24.5c-0.5,0.3-0.5,0.8,0,1c0.5,0.3,1.3,0.3,1.8,0l0,0c0.5-0.3,0.5-0.8,0-1
				C46.9,24.2,46.1,24.2,45.6,24.5z"/>
			
				<linearGradient id="SVGID_5_" gradientUnits="userSpaceOnUse" x1="-264.0241" y1="75" x2="-261.8477" y2="75" gradientTransform="matrix(1 0 0 -1 309.3953 100)">
				<stop  offset="6.297816e-03" style="stop-color:#8FC07D"/>
				<stop  offset="0.1872" style="stop-color:#74AC72"/>
				<stop  offset="0.5394" style="stop-color:#377F58"/>
			</linearGradient>
			<path class="st4" d="M46.5,24.4c-0.3,0-0.6,0.1-0.8,0.2l0,0c-0.2,0.1-0.3,0.2-0.3,0.4c0,0.1,0.1,0.3,0.3,0.4s0.5,0.2,0.8,0.2l0,0
				c0.3,0,0.6-0.1,0.8-0.2s0.3-0.2,0.3-0.4c0-0.1-0.1-0.3-0.3-0.4S46.8,24.4,46.5,24.4z"/>
			
				<linearGradient id="SVGID_6_" gradientUnits="userSpaceOnUse" x1="769.5841" y1="73.8875" x2="772.3165" y2="73.8875" gradientTransform="matrix(-1 0 0 -1 817.4098 100)">
				<stop  offset="5.742611e-03" style="stop-color:#618256"/>
				<stop  offset="1" style="stop-color:#377F58"/>
			</linearGradient>
			<path class="st5" d="M47.5,25.9L47.5,25.9c-0.6,0.3-1.5,0.3-2,0c-0.1-0.1-0.2-0.2-0.3-0.3v0.6c0.1,0.1,0.2,0.1,0.3,0.2
				c0.6,0.3,1.6,0.3,2.2,0l0,0c0.1-0.1,0.2-0.1,0.2-0.2v-0.6C47.7,25.7,47.6,25.8,47.5,25.9z"/>
		</g>
	</g>
</g>
</svg>
