<?xml version="1.0" encoding="utf-8"?>
<!-- Generator: Adobe Illustrator 23.0.1, SVG Export Plug-In . SVG Version: 6.00 Build 0)  -->
<svg version="1.1" id="Layer_1" xmlns="http://www.w3.org/2000/svg" xmlns:xlink="http://www.w3.org/1999/xlink" x="0px" y="0px"
	 viewBox="0 0 100 100" style="enable-background:new 0 0 100 100;" xml:space="preserve">
<g id="boxes-waiting_1_">
	<g id="palette_2_">
		<g>
			<g style="opacity:0.2;">
				
					<linearGradient id="SVGID_1_" gradientUnits="userSpaceOnUse" x1="554.0327" y1="74.0825" x2="605.1259" y2="74.0825" gradientTransform="matrix(-1 0 0 1 650.5285 0)">
					<stop  offset="0" style="stop-color:#00714C;stop-opacity:0.5"/>
					<stop  offset="0.2916" style="stop-color:#046B4A;stop-opacity:0.354"/>
					<stop  offset="0.6846" style="stop-color:#115A43;stop-opacity:0.1571"/>
					<stop  offset="0.9983" style="stop-color:#1E473C;stop-opacity:0"/>
				</linearGradient>
				<path style="fill:url(#SVGID_1_);" d="M95.7,73c1,0.6,1,1.6,0,2.1L72.9,88.4c-1,0.6-2.7,0.6-3.7,0l-23-13.3c-1-0.6-1-1.6,0-2.1
					L69,59.7c1-0.6,2.7-0.6,3.7,0L95.7,73z"/>
			</g>
			<g>
				<g>
					<g style="enable-background:new    ;">
						<g>
							
								<linearGradient id="SVGID_2_" gradientUnits="userSpaceOnUse" x1="552.3053" y1="72.6612" x2="603.3985" y2="72.6612" gradientTransform="matrix(-1 0 0 1 650.5285 0)">
								<stop  offset="5.227065e-03" style="stop-color:#E1F8EA"/>
								<stop  offset="1" style="stop-color:#6EB768"/>
							</linearGradient>
							<path style="fill:url(#SVGID_2_);" d="M97.5,71.6c1,0.6,1,1.6,0,2.1L74.6,87c-1,0.6-2.7,0.6-3.7,0l-23-13.3
								c-1-0.6-1-1.6,0-2.1l22.9-13.3c1-0.6,2.7-0.6,3.7,0L97.5,71.6z"/>
						</g>
						
							<linearGradient id="SVGID_3_" gradientUnits="userSpaceOnUse" x1="577.8531" y1="72.6546" x2="577.8531" y2="88.3103" gradientTransform="matrix(-1 0 0 1 650.5285 0)">
							<stop  offset="5.227065e-03" style="stop-color:#E1F8EA"/>
							<stop  offset="1" style="stop-color:#6EB768"/>
						</linearGradient>
						<path style="fill:url(#SVGID_3_);" d="M98.2,72.9C98.2,72.9,98.2,73,98.2,72.9c0,0.1-0.1,0.2-0.1,0.3c0,0,0,0,0,0
							c-0.1,0.1-0.1,0.2-0.2,0.2c-0.1,0-0.1,0.1-0.2,0.1c-0.1,0-0.1,0.1-0.2,0.1L74.6,87c-0.2,0.1-0.3,0.2-0.5,0.2
							c-0.1,0-0.1,0-0.2,0.1c-0.1,0-0.2,0-0.3,0.1c-0.1,0-0.2,0-0.3,0.1c0,0-0.1,0-0.1,0c-0.1,0-0.3,0-0.4,0c0,0,0,0-0.1,0
							c-0.1,0-0.3,0-0.4,0c0,0,0,0-0.1,0c-0.1,0-0.3,0-0.4-0.1c0,0,0,0-0.1,0c-0.1,0-0.2-0.1-0.4-0.1c0,0,0,0-0.1,0
							c-0.1-0.1-0.3-0.1-0.4-0.2l-23-13.3c-0.5-0.3-0.8-0.7-0.8-1.1l0,0.9c0,0.4,0.3,0.8,0.8,1.1l23,13.3c0.1,0.1,0.2,0.1,0.4,0.2
							c0,0,0,0,0,0c0,0,0,0,0.1,0c0.1,0,0.2,0.1,0.2,0.1c0,0,0.1,0,0.1,0c0,0,0,0,0.1,0c0,0,0,0,0.1,0c0.1,0,0.2,0,0.3,0
							c0,0,0.1,0,0.1,0c0,0,0,0,0.1,0c0,0,0.1,0,0.1,0c0.1,0,0.2,0,0.3,0c0,0,0.1,0,0.1,0c0,0,0,0,0.1,0c0,0,0.1,0,0.1,0
							c0.1,0,0.2,0,0.3,0c0,0,0,0,0,0c0,0,0.1,0,0.1,0c0.1,0,0.2,0,0.2,0c0,0,0.1,0,0.1,0c0.1,0,0.2,0,0.3-0.1c0,0,0.1,0,0.1,0
							c0,0,0,0,0.1,0c0.2-0.1,0.4-0.1,0.5-0.2l22.9-13.3c0,0,0,0,0,0c0.1,0,0.1-0.1,0.1-0.1c0.1,0,0.1-0.1,0.2-0.1c0,0,0,0,0,0
							c0.1-0.1,0.1-0.1,0.2-0.2c0,0,0,0,0,0c0,0,0,0,0,0c0,0,0,0,0-0.1c0,0,0.1-0.1,0.1-0.1c0,0,0,0,0,0c0,0,0,0,0,0
							c0,0,0-0.1,0-0.1c0,0,0-0.1,0-0.2c0,0,0,0,0,0l0-0.9C98.2,72.8,98.2,72.8,98.2,72.9z"/>
					</g>
				</g>
				<g>
					<g style="enable-background:new    ;">
						<g>
							
								<linearGradient id="SVGID_4_" gradientUnits="userSpaceOnUse" x1="598.6349" y1="74.5189" x2="600.4006" y2="74.5189" gradientTransform="matrix(-1 0 0 1 650.5285 0)">
								<stop  offset="5.227065e-03" style="stop-color:#AED2BC"/>
								<stop  offset="1" style="stop-color:#6EB768"/>
							</linearGradient>
							<polygon style="fill:url(#SVGID_4_);" points="51.9,74 51.9,76 50.1,75 50.1,73 							"/>
						</g>
						<g>
							
								<linearGradient id="SVGID_5_" gradientUnits="userSpaceOnUse" x1="583.8303" y1="70.7252" x2="598.6406" y2="70.7252" gradientTransform="matrix(-1 0 0 1 650.5285 0)">
								<stop  offset="5.227065e-03" style="stop-color:#AED2BC"/>
								<stop  offset="1" style="stop-color:#6EB768"/>
							</linearGradient>
							<polygon style="fill:url(#SVGID_5_);" points="51.9,74 66.7,65.4 66.7,67.4 51.9,76 							"/>
						</g>
						<g>
							<polygon style="fill:#848585;" points="50.1,73 64.9,64.4 66.7,65.4 51.9,74 							"/>
						</g>
					</g>
				</g>
				<g>
					<g style="enable-background:new    ;">
						<g>
							
								<linearGradient id="SVGID_6_" gradientUnits="userSpaceOnUse" x1="581.1606" y1="84.6043" x2="582.9264" y2="84.6043" gradientTransform="matrix(-1 0 0 1 650.5285 0)">
								<stop  offset="5.227065e-03" style="stop-color:#AED2BC"/>
								<stop  offset="1" style="stop-color:#6EB768"/>
							</linearGradient>
							<polygon style="fill:url(#SVGID_6_);" points="69.4,84.1 69.4,86.1 67.6,85.1 67.6,83.1 							"/>
						</g>
						<g>
							
								<linearGradient id="SVGID_7_" gradientUnits="userSpaceOnUse" x1="566.3561" y1="80.8106" x2="581.1664" y2="80.8106" gradientTransform="matrix(-1 0 0 1 650.5285 0)">
								<stop  offset="5.227065e-03" style="stop-color:#AED2BC"/>
								<stop  offset="1" style="stop-color:#6EB768"/>
							</linearGradient>
							<polygon style="fill:url(#SVGID_7_);" points="69.4,84.1 84.2,75.5 84.2,77.5 69.4,86.1 							"/>
						</g>
						<g>
							<polygon style="fill:#848585;" points="67.6,83.1 82.4,74.5 84.2,75.5 69.4,84.1 							"/>
						</g>
					</g>
				</g>
				<g>
					<g style="enable-background:new    ;">
						<g>
							
								<linearGradient id="SVGID_8_" gradientUnits="userSpaceOnUse" x1="552.3053" y1="69.8248" x2="603.3985" y2="69.8248" gradientTransform="matrix(-1 0 0 1 650.5285 0)">
								<stop  offset="5.782268e-03" style="stop-color:#B0CB7C"/>
								<stop  offset="0.1213" style="stop-color:#AAC97A"/>
								<stop  offset="0.28" style="stop-color:#98C275"/>
								<stop  offset="0.4638" style="stop-color:#7BB76D"/>
								<stop  offset="0.6663" style="stop-color:#53A761"/>
								<stop  offset="0.8818" style="stop-color:#1F9352"/>
								<stop  offset="1" style="stop-color:#008749"/>
							</linearGradient>
							<path style="fill:url(#SVGID_8_);" d="M97.5,68.8c1,0.6,1,1.6,0,2.1L74.6,84.2c-1,0.6-2.7,0.6-3.7,0l-23-13.3
								c-1-0.6-1-1.6,0-2.1l22.9-13.3c1-0.6,2.7-0.6,3.7,0L97.5,68.8z"/>
						</g>
						
							<linearGradient id="SVGID_9_" gradientUnits="userSpaceOnUse" x1="577.8531" y1="69.8183" x2="577.8531" y2="85.4739" gradientTransform="matrix(-1 0 0 1 650.5285 0)">
							<stop  offset="5.227065e-03" style="stop-color:#E1F8EA"/>
							<stop  offset="1" style="stop-color:#6EB768"/>
						</linearGradient>
						<path style="fill:url(#SVGID_9_);" d="M98.2,70.1C98.2,70.1,98.2,70.1,98.2,70.1c0,0.1-0.1,0.2-0.1,0.3c0,0,0,0,0,0
							c-0.1,0.1-0.1,0.2-0.2,0.2c-0.1,0-0.1,0.1-0.2,0.1c-0.1,0-0.1,0.1-0.2,0.1L74.6,84.2c-0.2,0.1-0.3,0.2-0.5,0.2
							c-0.1,0-0.1,0-0.2,0.1c-0.1,0-0.2,0-0.3,0.1c-0.1,0-0.2,0-0.3,0.1c0,0-0.1,0-0.1,0c-0.1,0-0.3,0-0.4,0c0,0,0,0-0.1,0
							c-0.1,0-0.3,0-0.4,0c0,0,0,0-0.1,0c-0.1,0-0.3,0-0.4-0.1c0,0,0,0-0.1,0c-0.1,0-0.2-0.1-0.4-0.1c0,0,0,0-0.1,0
							c-0.1-0.1-0.3-0.1-0.4-0.2l-23-13.3c-0.5-0.3-0.8-0.7-0.8-1.1l0,0.9c0,0.4,0.3,0.8,0.8,1.1l23,13.3c0.1,0.1,0.2,0.1,0.4,0.2
							c0,0,0,0,0,0c0,0,0,0,0.1,0c0.1,0,0.2,0.1,0.2,0.1c0,0,0.1,0,0.1,0c0,0,0,0,0.1,0c0,0,0,0,0.1,0c0.1,0,0.2,0,0.3,0
							c0,0,0.1,0,0.1,0c0,0,0,0,0.1,0c0,0,0.1,0,0.1,0c0.1,0,0.2,0,0.3,0c0,0,0.1,0,0.1,0c0,0,0,0,0.1,0c0,0,0.1,0,0.1,0
							c0.1,0,0.2,0,0.3,0c0,0,0,0,0,0c0,0,0.1,0,0.1,0c0.1,0,0.2,0,0.2,0c0,0,0.1,0,0.1,0c0.1,0,0.2,0,0.3-0.1c0,0,0.1,0,0.1,0
							c0,0,0,0,0.1,0c0.2-0.1,0.4-0.1,0.5-0.2l22.9-13.3c0,0,0,0,0,0c0.1,0,0.1-0.1,0.1-0.1c0.1,0,0.1-0.1,0.2-0.1c0,0,0,0,0,0
							c0.1-0.1,0.1-0.1,0.2-0.2c0,0,0,0,0,0c0,0,0,0,0,0c0,0,0,0,0-0.1c0,0,0.1-0.1,0.1-0.1c0,0,0,0,0,0c0,0,0,0,0,0
							c0,0,0-0.1,0-0.1c0,0,0-0.1,0-0.2c0,0,0,0,0,0l0-0.9C98.2,69.9,98.2,70,98.2,70.1z"/>
					</g>
				</g>
			</g>
		</g>
	</g>
</g>
</svg>
