<?xml version="1.0" encoding="utf-8"?>
<!-- Generator: Adobe Illustrator 23.0.1, SVG Export Plug-In . SVG Version: 6.00 Build 0)  -->
<svg version="1.1" id="Layer_1" xmlns="http://www.w3.org/2000/svg" xmlns:xlink="http://www.w3.org/1999/xlink" x="0px" y="0px"
	 viewBox="0 0 100 100" style="enable-background:new 0 0 100 100;" xml:space="preserve">
<g id="ead-taric_1_">
	<g id="base_32_">
		
			<linearGradient id="SVGID_1_" gradientUnits="userSpaceOnUse" x1="-392.8101" y1="-694.9436" x2="-374.5882" y2="-693.9106" gradientTransform="matrix(1 0 0 1 461.4306 754.2892)">
			<stop  offset="4.607372e-04" style="stop-color:#316736"/>
			<stop  offset="1" style="stop-color:#6FBB84;stop-opacity:0"/>
		</linearGradient>
		<polygon style="fill:url(#SVGID_1_);" points="73.4,54.5 79.4,54.5 89.5,59.2 77.4,65.3 		"/>
		<g>
			<g id="XMLID_1062_">
				<g id="XMLID_1066_">
					
						<linearGradient id="XMLID_2_" gradientUnits="userSpaceOnUse" x1="226.4346" y1="24.4845" x2="226.5415" y2="67.452" gradientTransform="matrix(-1 0 0 -1 299.9656 100)">
						<stop  offset="5.227065e-03" style="stop-color:#AED2BC"/>
						<stop  offset="1" style="stop-color:#6EB768"/>
					</linearGradient>
					<path id="XMLID_1067_" style="fill:url(#XMLID_2_);" d="M77,45.6l0.3,19.6l0,0c-0.2,0.1-0.4,0.1-0.6,0L70,61.4
						c-0.2-0.1-0.3-0.3-0.3-0.5V41.7L77,45.6z"/>
				</g>
				<g id="XMLID_1064_">
					
						<linearGradient id="XMLID_3_" gradientUnits="userSpaceOnUse" x1="219.6156" y1="73.3353" x2="219.6156" y2="41.1868" gradientTransform="matrix(-1 0 0 -1 299.9656 100)">
						<stop  offset="5.227065e-03" style="stop-color:#AED2BC"/>
						<stop  offset="1" style="stop-color:#6EB768"/>
					</linearGradient>
					<path id="XMLID_1065_" style="fill:url(#XMLID_3_);" d="M83.7,41.8V61c0,0.2-0.1,0.4-0.3,0.5l-6.1,3.6c-0.1,0.1-0.3,0-0.3-0.2
						V45.3L83.7,41.8z"/>
				</g>
				
					<linearGradient id="XMLID_4_" gradientUnits="userSpaceOnUse" x1="794.4235" y1="52.6926" x2="794.4235" y2="64.7449" gradientTransform="matrix(1 0 0 -1 -717.6908 100)">
					<stop  offset="5.227065e-03" style="stop-color:#AED2BC"/>
					<stop  offset="1" style="stop-color:#6EB768"/>
				</linearGradient>
				<path id="XMLID_1063_" style="fill:url(#XMLID_4_);" d="M83.6,42l-6.3,3.7c-0.3,0.2-0.6,0.2-0.9,0l-6.5-3.8
					c-0.2-0.1-0.2-0.4,0-0.5l6.6-3.7c0.3-0.2,0.6-0.1,0.9,0l6.2,3.9C83.8,41.8,83.7,42,83.6,42z"/>
			</g>
		</g>
		<path style="fill:#57AD5C;" d="M74.3,62.5L74.3,62.5c-0.3-0.2-0.6-0.6-0.6-1V45.8c0-0.4,0.2-0.5,0.5-0.4h0.1
			c0.3,0.2,0.5,0.6,0.5,0.9V62C74.7,62.5,74.5,62.7,74.3,62.5z"/>
		<path style="fill:#57AD5C;" d="M72.5,61.6L72.5,61.6c-0.3-0.2-0.6-0.6-0.6-1V44.9c0-0.4,0.2-0.5,0.5-0.4h0.1
			c0.3,0.2,0.5,0.6,0.5,0.9v15.7C73,61.5,72.8,61.7,72.5,61.6z"/>
		<path style="fill:none;stroke:#6FBB84;stroke-width:7.055778e-02;stroke-miterlimit:10;" d="M69.7,56.6l1.2,0.7
			c0.2,0.1,0.4,0,0.4-0.2v-8.8c0-0.2-0.1-0.4-0.3-0.4l-1.3-0.8"/>
		<path style="fill:none;stroke:#6FBB84;stroke-width:7.605788e-02;stroke-miterlimit:10;" d="M83.7,46.7l-6.4,3.5
			c-0.2,0.1-0.5,0.1-0.7,0l-0.9-0.5c-0.1-0.1-0.3,0-0.3,0.1v8.8c0,0.3,0.2,0.6,0.4,0.7l0.8,0.4c0.2,0.1,0.5,0.1,0.7,0l6.4-3.7"/>
		
			<path style="fill:none;stroke:#32BDEF;stroke-width:7.033933e-02;stroke-linecap:round;stroke-linejoin:round;stroke-miterlimit:10;" d="
			M74.2,45.5v-0.8c0-0.2,0.1-0.3,0.2-0.4l0.8-0.4"/>
		
			<path style="fill:none;stroke:#32BDEF;stroke-width:7.033933e-02;stroke-linecap:round;stroke-linejoin:round;stroke-miterlimit:10;" d="
			M72.5,44.6v-0.8c0-0.2,0.1-0.3,0.2-0.4l0.8-0.4"/>
		<g>
			<g id="XMLID_1059_">
				
					<linearGradient id="XMLID_5_" gradientUnits="userSpaceOnUse" x1="222.819" y1="59.241" x2="225.3512" y2="52.0195" gradientTransform="matrix(-1 0 0 -1 299.9656 100)">
					<stop  offset="5.742611e-03" style="stop-color:#618256"/>
					<stop  offset="1" style="stop-color:#377F58"/>
				</linearGradient>
				<path id="XMLID_1061_" style="fill:url(#XMLID_5_);" d="M76.4,44.6L72,42.1c-0.1-0.1,0-0.7,0-0.7l4.8-2.6l4.9,2.7
					c0,0,0,0.6-0.2,0.7l-4.3,2.5C77,44.8,76.7,44.8,76.4,44.6z"/>
				
					<linearGradient id="XMLID_6_" gradientUnits="userSpaceOnUse" x1="777.9695" y1="65.5138" x2="788.0412" y2="61.2687" gradientTransform="matrix(1 0 0 -1 -717.6908 100)">
					<stop  offset="0" style="stop-color:#4489C8"/>
					<stop  offset="0.2286" style="stop-color:#76AAD7"/>
					<stop  offset="0.4788" style="stop-color:#A6C9E5"/>
					<stop  offset="0.6999" style="stop-color:#C8E0EF"/>
					<stop  offset="0.8812" style="stop-color:#DDEEF6"/>
					<stop  offset="1" style="stop-color:#E5F3F8"/>
				</linearGradient>
				<path id="XMLID_1060_" style="fill:url(#XMLID_6_);" d="M76.5,44.2l-4.4-2.5c-0.2-0.1-0.2-0.4,0-0.5l4.4-2.5
					c0.2-0.1,0.4-0.1,0.6,0l4.4,2.6c0.2,0.1,0.2,0.4,0,0.5l-4.3,2.5C77,44.3,76.7,44.3,76.5,44.2z"/>
			</g>
			<g>
				
					<linearGradient id="SVGID_2_" gradientUnits="userSpaceOnUse" x1="-326.095" y1="-219.5597" x2="-319.9521" y2="-227.4259" gradientTransform="matrix(-0.866 -0.5 1 -0.5774 15.9822 -249.2018)">
					<stop  offset="5.742611e-03" style="stop-color:#618256"/>
					<stop  offset="1" style="stop-color:#377F58"/>
				</linearGradient>
				<polygon style="fill:url(#SVGID_2_);" points="76,40 79,41.7 79.4,41.5 76.3,39.8 				"/>
				
					<linearGradient id="SVGID_3_" gradientUnits="userSpaceOnUse" x1="-326.5227" y1="-219.8936" x2="-320.3797" y2="-227.7599" gradientTransform="matrix(-0.866 -0.5 1 -0.5774 15.9822 -249.2018)">
					<stop  offset="5.742611e-03" style="stop-color:#618256"/>
					<stop  offset="1" style="stop-color:#377F58"/>
				</linearGradient>
				<polygon style="fill:url(#SVGID_3_);" points="75.2,40.5 78.2,42.2 78.5,42 75.5,40.3 				"/>
				
					<linearGradient id="SVGID_4_" gradientUnits="userSpaceOnUse" x1="-326.9388" y1="-220.2186" x2="-320.7959" y2="-228.0849" gradientTransform="matrix(-0.866 -0.5 1 -0.5774 15.9822 -249.2018)">
					<stop  offset="5.742611e-03" style="stop-color:#618256"/>
					<stop  offset="1" style="stop-color:#377F58"/>
				</linearGradient>
				<polygon style="fill:url(#SVGID_4_);" points="74.3,40.9 77.3,42.7 77.7,42.5 74.6,40.8 				"/>
			</g>
		</g>
		<g id="lights_44_">
			
				<linearGradient id="SVGID_5_" gradientUnits="userSpaceOnUse" x1="-803.4243" y1="44.4359" x2="-800.1711" y2="40.8662" gradientTransform="matrix(1 0 0 -1 875.4044 100)">
				<stop  offset="5.376340e-03" style="stop-color:#D6EBE6"/>
				<stop  offset="0.2483" style="stop-color:#DDC4C4"/>
				<stop  offset="0.5917" style="stop-color:#E59399"/>
				<stop  offset="0.8532" style="stop-color:#EA747E"/>
				<stop  offset="1" style="stop-color:#EC6974"/>
			</linearGradient>
			<path style="fill:url(#SVGID_5_);" d="M74.5,58.2c0,0.2-0.1,0.3-0.3,0.2s-0.3-0.4-0.3-0.6c0-0.2,0.1-0.3,0.3-0.2
				S74.5,58,74.5,58.2z"/>
			
				<linearGradient id="SVGID_6_" gradientUnits="userSpaceOnUse" x1="-803.3917" y1="43.0001" x2="-800.1385" y2="39.4304" gradientTransform="matrix(1 0 0 -1 875.4044 100)">
				<stop  offset="5.376340e-03" style="stop-color:#D6EBE6"/>
				<stop  offset="0.2483" style="stop-color:#DDC4C4"/>
				<stop  offset="0.5917" style="stop-color:#E59399"/>
				<stop  offset="0.8532" style="stop-color:#EA747E"/>
				<stop  offset="1" style="stop-color:#EC6974"/>
			</linearGradient>
			<path style="fill:url(#SVGID_6_);" d="M74.5,59.6c0,0.2-0.1,0.3-0.3,0.2s-0.3-0.4-0.3-0.6c0-0.2,0.1-0.3,0.3-0.2
				S74.5,59.4,74.5,59.6z"/>
			
				<linearGradient id="SVGID_7_" gradientUnits="userSpaceOnUse" x1="-802.314" y1="50.7411" x2="-799.467" y2="44.1969" gradientTransform="matrix(1 0 0 -1 875.4044 100)">
				<stop  offset="6.297816e-03" style="stop-color:#7FBF7C"/>
				<stop  offset="1" style="stop-color:#E9F4F3"/>
			</linearGradient>
			<path style="fill:url(#SVGID_7_);" d="M74.2,54.4L74.2,54.4c-0.1-0.1-0.2-0.2-0.2-0.3V49c0-0.1,0.1-0.2,0.1-0.1l0,0
				c0.1,0,0.1,0.2,0.1,0.3v5.1C74.3,54.4,74.3,54.4,74.2,54.4z"/>
			
				<linearGradient id="SVGID_8_" gradientUnits="userSpaceOnUse" x1="-805.1129" y1="45.3061" x2="-801.8597" y2="41.7364" gradientTransform="matrix(1 0 0 -1 875.4044 100)">
				<stop  offset="5.376340e-03" style="stop-color:#D6EBE6"/>
				<stop  offset="0.2483" style="stop-color:#DDC4C4"/>
				<stop  offset="0.5917" style="stop-color:#E59399"/>
				<stop  offset="0.8532" style="stop-color:#EA747E"/>
				<stop  offset="1" style="stop-color:#EC6974"/>
			</linearGradient>
			<path style="fill:url(#SVGID_8_);" d="M72.8,57.3c0,0.2-0.1,0.3-0.3,0.2c-0.2-0.1-0.3-0.4-0.3-0.6s0.1-0.3,0.3-0.2
				C72.7,56.9,72.8,57.1,72.8,57.3z"/>
			
				<linearGradient id="SVGID_9_" gradientUnits="userSpaceOnUse" x1="-805.1329" y1="43.7522" x2="-801.8797" y2="40.1825" gradientTransform="matrix(1 0 0 -1 875.4044 100)">
				<stop  offset="5.376340e-03" style="stop-color:#D6EBE6"/>
				<stop  offset="0.2483" style="stop-color:#DDC4C4"/>
				<stop  offset="0.5917" style="stop-color:#E59399"/>
				<stop  offset="0.8532" style="stop-color:#EA747E"/>
				<stop  offset="1" style="stop-color:#EC6974"/>
			</linearGradient>
			<path style="fill:url(#SVGID_9_);" d="M72.8,58.9c0,0.2-0.1,0.3-0.3,0.2c-0.2-0.1-0.3-0.4-0.3-0.6c0-0.2,0.1-0.3,0.3-0.2
				C72.7,58.4,72.8,58.6,72.8,58.9z"/>
			
				<linearGradient id="SVGID_10_" gradientUnits="userSpaceOnUse" x1="-804.0148" y1="51.7432" x2="-801.168" y2="45.199" gradientTransform="matrix(1 0 0 -1 875.4044 100)">
				<stop  offset="6.297816e-03" style="stop-color:#7FBF7C"/>
				<stop  offset="1" style="stop-color:#E9F4F3"/>
			</linearGradient>
			<path style="fill:url(#SVGID_10_);" d="M72.5,53.4L72.5,53.4c-0.1-0.1-0.2-0.2-0.2-0.3V48c0-0.1,0.1-0.2,0.1-0.1l0,0
				c0.1,0,0.1,0.2,0.1,0.3v5.1C72.6,53.4,72.5,53.4,72.5,53.4z"/>
			<g>
				
					<linearGradient id="SVGID_11_" gradientUnits="userSpaceOnUse" x1="223.2834" y1="47.7486" x2="225.5067" y2="44.2469" gradientTransform="matrix(-1 0 0 -1 299.9656 100)">
					<stop  offset="6.297816e-03" style="stop-color:#7FBF7C"/>
					<stop  offset="1" style="stop-color:#E9F4F3"/>
				</linearGradient>
				<path style="fill:url(#SVGID_11_);" d="M76.1,53.8L76.1,53.8C76.2,53.9,76.2,53.8,76.1,53.8l0.1-1.1c0-0.1-0.1-0.2-0.1-0.2l0,0
					c-0.1,0-0.1,0-0.1,0.1v1C76,53.7,76.1,53.8,76.1,53.8z"/>
				
					<linearGradient id="SVGID_12_" gradientUnits="userSpaceOnUse" x1="223.2482" y1="46.104" x2="225.4715" y2="42.6023" gradientTransform="matrix(-1 0 0 -1 299.9656 100)">
					<stop  offset="6.297816e-03" style="stop-color:#7FBF7C"/>
					<stop  offset="1" style="stop-color:#E9F4F3"/>
				</linearGradient>
				<path style="fill:url(#SVGID_12_);" d="M76.1,55.5L76.1,55.5C76.2,55.6,76.2,55.5,76.1,55.5l0.1-1.1c0-0.1-0.1-0.2-0.1-0.2l0,0
					c-0.1,0-0.1,0-0.1,0.1v1C76,55.3,76.1,55.4,76.1,55.5z"/>
				
					<linearGradient id="SVGID_13_" gradientUnits="userSpaceOnUse" x1="223.2582" y1="44.4883" x2="225.4815" y2="40.9865" gradientTransform="matrix(-1 0 0 -1 299.9656 100)">
					<stop  offset="6.297816e-03" style="stop-color:#7FBF7C"/>
					<stop  offset="1" style="stop-color:#E9F4F3"/>
				</linearGradient>
				<path style="fill:url(#SVGID_13_);" d="M76.1,57.1L76.1,57.1C76.2,57.2,76.2,57.1,76.1,57.1l0.1-1.1c0-0.1-0.1-0.2-0.1-0.2l0,0
					c-0.1,0-0.1,0-0.1,0.1v1C76,56.9,76.1,57.1,76.1,57.1z"/>
			</g>
			<g>
				
					<linearGradient id="SVGID_14_" gradientUnits="userSpaceOnUse" x1="228.9631" y1="50.1805" x2="231.1865" y2="46.6788" gradientTransform="matrix(-1 0 0 -1 299.9656 100)">
					<stop  offset="6.297816e-03" style="stop-color:#7FBF7C"/>
					<stop  offset="1" style="stop-color:#E9F4F3"/>
				</linearGradient>
				<path style="fill:url(#SVGID_14_);" d="M70.4,51.4L70.4,51.4C70.5,51.5,70.5,51.4,70.4,51.4l0.1-1.1c0-0.1-0.1-0.2-0.1-0.2l0,0
					c-0.1,0-0.1,0-0.1,0.1v1C70.3,51.2,70.3,51.3,70.4,51.4z"/>
				
					<linearGradient id="SVGID_15_" gradientUnits="userSpaceOnUse" x1="228.9732" y1="48.5647" x2="231.1966" y2="45.063" gradientTransform="matrix(-1 0 0 -1 299.9656 100)">
					<stop  offset="6.297816e-03" style="stop-color:#7FBF7C"/>
					<stop  offset="1" style="stop-color:#E9F4F3"/>
				</linearGradient>
				<path style="fill:url(#SVGID_15_);" d="M70.4,53L70.4,53C70.5,53.1,70.5,53,70.4,53l0.1-1.1c0-0.1-0.1-0.2-0.1-0.2l0,0
					c-0.1,0-0.1,0-0.1,0.1v1C70.3,52.9,70.3,53,70.4,53z"/>
				
					<linearGradient id="SVGID_16_" gradientUnits="userSpaceOnUse" x1="228.9832" y1="46.9489" x2="231.2066" y2="43.4471" gradientTransform="matrix(-1 0 0 -1 299.9656 100)">
					<stop  offset="6.297816e-03" style="stop-color:#7FBF7C"/>
					<stop  offset="1" style="stop-color:#E9F4F3"/>
				</linearGradient>
				<path style="fill:url(#SVGID_16_);" d="M70.4,54.6L70.4,54.6C70.5,54.7,70.5,54.6,70.4,54.6l0.1-1.1c0-0.1-0.1-0.2-0.1-0.2l0,0
					c-0.1,0-0.1,0-0.1,0.1v1C70.3,54.5,70.3,54.6,70.4,54.6z"/>
			</g>
			
				<linearGradient id="SVGID_17_" gradientUnits="userSpaceOnUse" x1="225.1808" y1="39.4847" x2="226.6328" y2="38.0328" gradientTransform="matrix(-1 0 0 -1 299.9656 100)">
				<stop  offset="6.297816e-03" style="stop-color:#7FBF7C"/>
				<stop  offset="1" style="stop-color:#E9F4F3"/>
			</linearGradient>
			<path style="fill:url(#SVGID_17_);" d="M74.5,61.3c0,0.2-0.1,0.3-0.3,0.2c-0.2-0.1-0.3-0.4-0.3-0.6c0-0.2,0.1-0.3,0.3-0.2
				S74.5,61.1,74.5,61.3z"/>
			
				<linearGradient id="SVGID_18_" gradientUnits="userSpaceOnUse" x1="224.7965" y1="44.2288" x2="227.7894" y2="42.287" gradientTransform="matrix(-1 0 0 -1 299.9656 100)">
				<stop  offset="6.297816e-03" style="stop-color:#7FBF7C"/>
				<stop  offset="1" style="stop-color:#E9F4F3"/>
			</linearGradient>
			<path style="fill:url(#SVGID_18_);" d="M74.5,56.6c0,0.2-0.1,0.3-0.3,0.2s-0.3-0.4-0.3-0.6c0-0.2,0.1-0.3,0.3-0.2
				S74.5,56.4,74.5,56.6z"/>
			
				<linearGradient id="SVGID_19_" gradientUnits="userSpaceOnUse" x1="226.905" y1="44.9384" x2="228.4816" y2="43.4241" gradientTransform="matrix(-1 0 0 -1 299.9656 100)">
				<stop  offset="6.297816e-03" style="stop-color:#7FBF7C"/>
				<stop  offset="1" style="stop-color:#E9F4F3"/>
			</linearGradient>
			<path style="fill:url(#SVGID_19_);" d="M72.8,55.8c0,0.2-0.1,0.3-0.3,0.2c-0.2-0.1-0.3-0.4-0.3-0.6s0.1-0.3,0.3-0.2
				C72.7,55.3,72.8,55.6,72.8,55.8z"/>
			
				<linearGradient id="SVGID_20_" gradientUnits="userSpaceOnUse" x1="226.9075" y1="40.2361" x2="228.4841" y2="38.7218" gradientTransform="matrix(-1 0 0 -1 299.9656 100)">
				<stop  offset="6.297816e-03" style="stop-color:#7FBF7C"/>
				<stop  offset="1" style="stop-color:#E9F4F3"/>
			</linearGradient>
			<path style="fill:url(#SVGID_20_);" d="M72.8,60.5c0,0.2-0.1,0.3-0.3,0.2c-0.2-0.1-0.3-0.4-0.3-0.6c0-0.2,0.1-0.3,0.3-0.2
				C72.7,60,72.8,60.3,72.8,60.5z"/>
		</g>
	</g>
</g>
</svg>
