<?xml version="1.0" encoding="utf-8"?>
<!-- Generator: Adobe Illustrator 23.0.1, SVG Export Plug-In . SVG Version: 6.00 Build 0)  -->
<svg version="1.1" id="Layer_1" xmlns="http://www.w3.org/2000/svg" xmlns:xlink="http://www.w3.org/1999/xlink" x="0px" y="0px"
	 viewBox="0 0 100 100" style="enable-background:new 0 0 100 100;" xml:space="preserve">
<linearGradient id="body_1_" gradientUnits="userSpaceOnUse" x1="297.0829" y1="25.4444" x2="290.0589" y2="38.2092" gradientTransform="matrix(-1 0 0 -1 299.9656 100)">
	<stop  offset="0" style="stop-color:#E95281"/>
	<stop  offset="1" style="stop-color:#BF3D62"/>
</linearGradient>
<path id="body_4_" style="fill:url(#body_1_);" d="M11.1,67c0,0-1.1,1.8-1.8,1.7c-0.7-0.1-1.1-1.1-2-1.7c-0.8-0.5-1.5-0.7-1.7-0.9
	c-0.5-0.3-1-0.7-1.5-0.9s-0.9,0-1.2,0.4S1.8,73,2.3,74.2c0.4,1.2,1,0.5,2.8,1c1.7,0.5,1.6,0.2,1.6-1s-0.6-2.8-0.4-3.9
	c0.2-1,0-2,0.7-1.5c0.5,0.4,1.3,0.9,2.2,1s1.9-1,2.6-2.6L11.1,67z"/>
<linearGradient id="collar_2_" gradientUnits="userSpaceOnUse" x1="295.0172" y1="34.4621" x2="292.7255" y2="37.4907" gradientTransform="matrix(-1 0 0 -1 299.9656 100)">
	<stop  offset="0" style="stop-color:#E95281"/>
	<stop  offset="1" style="stop-color:#BF3D62"/>
</linearGradient>
<path id="collar_1_" style="fill:url(#collar_2_);" d="M4.2,65.1c0,0,0.7,0.4,1.1,0.4s0.4,0.5,0.3,0.6c0,0.1-1.2-0.3-1.3-0.5
	C4.1,65.4,4.1,65.3,4.2,65.1z"/>
</svg>
