<?xml version="1.0" encoding="utf-8"?>
<!-- Generator: Adobe Illustrator 23.0.1, SVG Export Plug-In . SVG Version: 6.00 Build 0)  -->
<svg version="1.1" id="Layer_1" xmlns="http://www.w3.org/2000/svg" xmlns:xlink="http://www.w3.org/1999/xlink" x="0px" y="0px"
	 viewBox="0 0 100 100" style="enable-background:new 0 0 100 100;" xml:space="preserve">
<g id="chimneys_1_">
	<g id="_x33__6_">
		
			<linearGradient id="smoke_1_" gradientUnits="userSpaceOnUse" x1="770.2449" y1="25.3161" x2="769.2369" y2="19.5994" gradientTransform="matrix(-1 0 0 1 817.4098 0)">
			<stop  offset="0" style="stop-color:#69A076"/>
			<stop  offset="1" style="stop-color:#FFFFFF;stop-opacity:0"/>
		</linearGradient>
		<path id="smoke_10_" style="opacity:0.7;fill:url(#smoke_1_);" d="M49.9,22c0-0.3-0.2-0.6-0.5-0.8c0.1-0.2,0.1-0.3,0.1-0.5
			c0-0.5-0.4-1-1-1c-0.3,0-0.6,0.2-0.8,0.4C47.7,20,47.5,20,47.3,20c-0.5,0-1,0.4-1,1c0,0.2,0,0.3,0.1,0.4c-0.5,0-0.8,0.4-0.8,0.9
			c0,0.2,0.1,0.4,0.2,0.5c-0.3,0-0.5,0.3-0.5,0.6c0,0.2,0.2,0.5,0.4,0.5c0,0.1,0.1,0.1,0.1,0.2c-0.1,0.1-0.1,0.2-0.1,0.3
			c0,0.3,0.2,0.5,0.5,0.5c0,0,0.1,0,0.1,0c0,0.2,0.2,0.3,0.3,0.3c0.2,0,0.3-0.2,0.3-0.3c0-0.1,0-0.1-0.1-0.2c0.2,0,0.4-0.2,0.6-0.3
			c0,0,0,0,0.1,0c0.3,0,0.5-0.1,0.7-0.4c0.1,0,0.1,0,0.2,0c0.5,0,1-0.4,1-1c0-0.1,0-0.1,0-0.2C49.7,22.7,49.9,22.4,49.9,22z"/>
	</g>
</g>
</svg>
