<?xml version="1.0" encoding="utf-8"?>
<!-- Generator: Adobe Illustrator 23.0.1, SVG Export Plug-In . SVG Version: 6.00 Build 0)  -->
<svg version="1.1" id="Layer_1" xmlns="http://www.w3.org/2000/svg" xmlns:xlink="http://www.w3.org/1999/xlink" x="0px" y="0px"
	 viewBox="0 0 100 100" style="enable-background:new 0 0 100 100;" xml:space="preserve">
<g id="boxes-waiting_1_">
	<g id="box_23_">
		<g style="opacity:0.4;">
			
				<linearGradient id="SVGID_1_" gradientUnits="userSpaceOnUse" x1="-300.6075" y1="-607.2425" x2="-300.6075" y2="-593.1112" gradientTransform="matrix(0.7862 -1.3425 1.1734 0.6871 1014.8901 65.4664)">
				<stop  offset="0" style="stop-color:#252F62"/>
				<stop  offset="0.1575" style="stop-color:#263467;stop-opacity:0.8425"/>
				<stop  offset="0.3432" style="stop-color:#294275;stop-opacity:0.6568"/>
				<stop  offset="0.5431" style="stop-color:#2F598D;stop-opacity:0.4569"/>
				<stop  offset="0.7531" style="stop-color:#3679AE;stop-opacity:0.2469"/>
				<stop  offset="0.9689" style="stop-color:#3FA1D8;stop-opacity:3.109598e-02"/>
				<stop  offset="1" style="stop-color:#41A8DF;stop-opacity:0"/>
			</linearGradient>
			<path style="fill:url(#SVGID_1_);" d="M62,61.4c-0.6,0.4-0.7,1-0.1,1.4l8.7,5.2c0.6,0.4,1.6,0.3,2.2-0.1l9.3-5.8
				c0.6-0.4,0.7-1,0.1-1.4l-8.7-17.9c-0.6-0.4-1.6-0.3-2.2,0.1L62,61.4z"/>
		</g>
		<g>
			
				<linearGradient id="SVGID_2_" gradientUnits="userSpaceOnUse" x1="-1115.4117" y1="37.2478" x2="-1115.4117" y2="68.5477" gradientTransform="matrix(1 0 0 1 1183.1135 0)">
				<stop  offset="6.297816e-03" style="stop-color:#7FBF7C"/>
				<stop  offset="1" style="stop-color:#E9F4F3"/>
			</linearGradient>
			<path style="fill:url(#SVGID_2_);" d="M63.2,37.4c-0.6-0.4-1.1-0.1-1.1,0.6l0,23.1c0,0.7,0.5,1.6,1.1,2l9.1,5.2
				c0.6,0.4,1.1,0.1,1.1-0.6l0-23.1c0-0.7-0.5-1.6-1.1-2L63.2,37.4z"/>
		</g>
		<polygon style="fill:#FFFFFF;" points="72.2,44 70.2,42.8 70.2,45.2 72.2,46.4 		"/>
		<polygon style="fill:#FFFFFF;" points="69.8,42.6 67.8,41.4 67.8,43.8 69.8,45 		"/>
		
			<linearGradient id="SVGID_3_" gradientUnits="userSpaceOnUse" x1="-1109.5924" y1="68.471" x2="-1109.5924" y2="30.6953" gradientTransform="matrix(1 0 0 1 1183.1135 0)">
			<stop  offset="6.297816e-03" style="stop-color:#8FC07D"/>
			<stop  offset="1" style="stop-color:#377F58"/>
		</linearGradient>
		<path style="fill:url(#SVGID_3_);" d="M62.4,37.3C62.4,37.3,62.4,37.3,62.4,37.3C62.5,37.3,62.5,37.3,62.4,37.3c0.1,0,0.1,0,0.1,0
			c0,0,0,0,0,0c0,0,0,0,0,0c0,0,0,0,0,0c0,0,0,0,0,0c0,0,0,0,0.1,0c0,0,0,0,0,0h0c0,0,0.1,0,0.1,0c0,0,0,0,0,0c0,0,0,0,0.1,0
			c0,0,0,0,0,0c0,0,0,0,0,0c0,0,0,0,0,0c0,0,0.1,0,0.1,0c0,0,0,0,0,0c0,0,0.1,0,0.1,0c0,0,0,0,0.1,0l9.1,5.2c0,0,0.1,0,0.1,0.1
			c0,0,0.1,0,0.1,0.1c0,0,0,0,0,0c0,0,0,0,0,0c0,0,0,0,0.1,0.1c0,0,0,0,0,0c0,0,0.1,0,0.1,0.1l0,0c0,0,0,0.1,0.1,0.1c0,0,0,0,0,0
			c0,0,0,0,0,0c0,0,0,0,0,0.1c0,0,0,0,0.1,0.1c0,0,0,0,0,0c0,0,0,0.1,0.1,0.1c0,0,0,0,0,0c0,0,0,0.1,0.1,0.1c0,0,0,0,0,0
			c0,0,0,0.1,0.1,0.1c0,0,0,0,0,0c0,0,0,0.1,0.1,0.1c0,0,0,0,0,0c0,0,0,0.1,0,0.1c0,0,0,0,0,0c0,0,0,0.1,0,0.1c0,0,0,0,0,0
			c0,0,0,0.1,0,0.1c0,0,0,0,0,0.1c0,0,0,0,0,0c0,0,0,0.1,0,0.1c0,0,0,0,0,0c0,0,0,0,0,0.1c0,0,0,0.1,0,0.1v0l0,23.1c0,0,0,0.1,0,0.1
			c0,0,0,0.1,0,0.1c0,0,0,0,0,0.1c0,0,0,0.1,0,0.1c0,0,0,0,0,0c0,0,0,0,0,0c0,0.1-0.1,0.1-0.1,0.1c0,0,0,0,0,0c0,0,0,0,0,0
			c0,0,0,0-0.1,0l0,0l11.2-6.5c0.1,0,0.1-0.1,0.2-0.2c0.1-0.1,0.1-0.3,0.1-0.5l0-23.1c0-0.1,0-0.1,0-0.2c0,0,0,0,0,0c0,0,0,0,0,0
			c0,0,0-0.1,0-0.1c0,0,0,0,0,0c0,0,0,0,0,0c0,0,0,0,0-0.1c0,0,0,0,0-0.1c0,0,0,0,0,0c0,0,0,0,0,0c0,0,0,0,0,0c0,0,0,0,0-0.1
			c0,0,0,0,0,0c0,0,0,0,0,0c0,0,0-0.1,0-0.1c0,0,0,0,0,0c0,0,0,0,0,0c0,0,0-0.1,0-0.1c0,0,0,0,0,0c0,0,0,0,0,0c0,0,0,0,0,0
			c0,0,0,0,0-0.1c0,0,0,0,0,0c0,0,0,0,0,0c0,0,0-0.1-0.1-0.1c0,0,0,0,0,0c0,0,0,0,0,0c0,0,0,0,0-0.1c0,0,0,0,0,0c0,0,0,0,0,0
			c0,0,0,0,0,0c0,0,0,0,0,0c0,0,0,0,0-0.1c0,0,0,0,0,0c0,0,0,0,0,0c0,0,0-0.1-0.1-0.1c0,0,0,0,0,0c0,0,0,0,0,0
			c-0.1,0-0.1-0.1-0.2-0.1c0,0,0,0,0,0c-0.1,0-0.1-0.1-0.2-0.1l-9.1-5.2c0,0-0.1-0.1-0.1-0.1c0,0,0,0,0,0c0,0,0,0,0,0
			c0,0-0.1,0-0.1,0c0,0,0,0,0,0c0,0,0,0,0,0c0,0,0,0,0,0c0,0,0,0,0,0c0,0,0,0,0,0c0,0,0,0,0,0c0,0,0,0,0,0c0,0,0,0-0.1,0h0
			c0,0,0,0-0.1,0c0,0,0,0,0,0c0,0,0,0,0,0c0,0,0,0,0,0c0,0,0,0,0,0c0,0,0,0,0,0c0,0,0,0,0,0c0,0,0,0-0.1,0c0,0,0,0,0,0l-4.1,2.4
			l-1.6,0.9L62.4,37.3z"/>
		<path style="fill:#FFFFFF;" d="M75.5,38.6l-1,0.6l0-2.1l3.6,0l-1,0.6l1.2,0.7c0.1,0.1,0.2,0.1,0.3,0.2l0,0l0,0
			c0,0,0.1,0.1,0.1,0.1l0,0c0,0,0,0,0.1,0.1c0,0,0,0,0.1,0.1c0,0,0.1,0.1,0.1,0.1c0,0,0,0,0.1,0.1c0,0,0.1,0.1,0.1,0.1l0,0
			c0,0.1,0.1,0.1,0.1,0.2l0,0c0,0,0.1,0.1,0.1,0.1l0,0c0,0,0.1,0.1,0.1,0.1l0,0c0,0.1,0.1,0.1,0.1,0.2l0,0c0,0.1,0,0.1,0.1,0.1
			l0,0.1c0,0,0,0.1,0,0.1c0,0,0,0.1,0,0.1c0,0,0,0.1,0,0.1c0,0.1,0,0.1,0,0.2c0,0,0,0.1,0,0.1c0,0.1,0.1,0.2,0.1,0.3l0,0
			c0,0.1,0,0.3,0,0.4l0,23l-1.6,0.9l0-23.9c0,0,0-0.1,0-0.2l0,0c0-0.1,0-0.1,0-0.2l0,0c0,0,0-0.1,0-0.1l0-0.1c0,0,0,0,0-0.1
			c0,0,0,0,0-0.1l0,0c0,0,0-0.1,0-0.1l0,0c0,0,0-0.1-0.1-0.1l0,0c0,0,0-0.1-0.1-0.1l0,0c0,0,0-0.1-0.1-0.1l0,0c0,0,0-0.1-0.1-0.1
			l0,0c0,0,0,0-0.1-0.1l0,0c0,0,0,0-0.1,0l-0.1-0.1c0,0,0,0-0.1,0l0,0c0,0-0.1-0.1-0.1-0.1L75.5,38.6z"/>
		<path style="fill:none;stroke:#000000;stroke-width:7.683860e-02;stroke-miterlimit:10;" d="M62.4,37.3"/>
	</g>
</g>
</svg>
